G75*
G70*
%OFA0B0*%
%FSLAX24Y24*%
%IPPOS*%
%LPD*%
%AMOC8*
5,1,8,0,0,1.08239X$1,22.5*
%
%ADD10OC8,0.0730*%
%ADD11C,0.1380*%
%ADD12C,0.0785*%
%ADD13C,0.0790*%
%ADD14R,0.0433X0.0315*%
%ADD15R,0.0315X0.0433*%
%ADD16C,0.0437*%
D10*
X015210Y001992D03*
X015210Y003370D03*
X015210Y006992D03*
X015210Y008370D03*
X015210Y011992D03*
X015210Y013370D03*
X015210Y016992D03*
X015210Y018370D03*
X015210Y021992D03*
X015210Y023370D03*
X015210Y026992D03*
X015210Y028370D03*
X025072Y027012D03*
X025072Y022012D03*
X025072Y017012D03*
X025072Y012012D03*
X025072Y007012D03*
X025072Y002012D03*
X031962Y015240D03*
X033340Y015240D03*
X036962Y015240D03*
X038340Y015240D03*
X038320Y025103D03*
X033320Y025103D03*
D11*
X001651Y002681D03*
X001651Y007681D03*
X001651Y012681D03*
X001651Y017681D03*
X001651Y022681D03*
X001651Y027681D03*
X028651Y027681D03*
X032651Y028681D03*
X037651Y028681D03*
X028651Y022681D03*
X028651Y017681D03*
X028651Y012681D03*
X028651Y007681D03*
X028651Y002681D03*
X032651Y001681D03*
X037651Y001681D03*
D12*
X036671Y006369D02*
X036671Y007074D01*
X038631Y007074D02*
X038631Y006369D01*
X033631Y006369D02*
X033631Y007074D01*
X031671Y007074D02*
X031671Y006369D01*
X031671Y011289D02*
X031671Y011994D01*
X033631Y011994D02*
X033631Y011289D01*
X036671Y011289D02*
X036671Y011994D01*
X038631Y011994D02*
X038631Y011289D01*
X011964Y011701D02*
X011259Y011701D01*
X011259Y013661D02*
X011964Y013661D01*
X011964Y016701D02*
X011259Y016701D01*
X011259Y018661D02*
X011964Y018661D01*
X011964Y021701D02*
X011259Y021701D01*
X011259Y023661D02*
X011964Y023661D01*
X011964Y026701D02*
X011259Y026701D01*
X011259Y028661D02*
X011964Y028661D01*
X007044Y028661D02*
X006339Y028661D01*
X006339Y026701D02*
X007044Y026701D01*
X007044Y023661D02*
X006339Y023661D01*
X006339Y021701D02*
X007044Y021701D01*
X007044Y018661D02*
X006339Y018661D01*
X006339Y016701D02*
X007044Y016701D01*
X007044Y013661D02*
X006339Y013661D01*
X006339Y011701D02*
X007044Y011701D01*
X007044Y008661D02*
X006339Y008661D01*
X006339Y006701D02*
X007044Y006701D01*
X007044Y003661D02*
X006339Y003661D01*
X006339Y001701D02*
X007044Y001701D01*
X011259Y001701D02*
X011964Y001701D01*
X011964Y003661D02*
X011259Y003661D01*
X011259Y006701D02*
X011964Y006701D01*
X011964Y008661D02*
X011259Y008661D01*
D13*
X009151Y009451D03*
X009151Y010911D03*
X009151Y014451D03*
X009151Y015911D03*
X009151Y019451D03*
X009151Y020911D03*
X009151Y024451D03*
X009151Y025911D03*
X009151Y029451D03*
X030881Y009181D03*
X034421Y009181D03*
X035881Y009181D03*
X039421Y009181D03*
X009151Y005911D03*
X009151Y004451D03*
X009151Y000911D03*
D14*
X004663Y002386D03*
X004663Y002977D03*
X003639Y002977D03*
X003639Y002386D03*
X003639Y007386D03*
X003639Y007977D03*
X004663Y007977D03*
X004663Y007386D03*
X004663Y012386D03*
X004663Y012977D03*
X003639Y012977D03*
X003639Y012386D03*
X003639Y017386D03*
X003639Y017977D03*
X004663Y017977D03*
X004663Y017386D03*
X004663Y022386D03*
X004663Y022977D03*
X003639Y022977D03*
X003639Y022386D03*
X003639Y027386D03*
X003639Y027977D03*
X004663Y027977D03*
X004663Y027386D03*
D15*
X032356Y004693D03*
X032946Y004693D03*
X032946Y003670D03*
X032356Y003670D03*
X037356Y003670D03*
X037946Y003670D03*
X037946Y004693D03*
X037356Y004693D03*
D16*
X036151Y004945D03*
X036137Y003416D03*
X034175Y003416D03*
X034157Y004947D03*
X031151Y004945D03*
X031137Y003416D03*
X039175Y003416D03*
X039157Y004947D03*
X020653Y006953D03*
X020070Y004548D03*
X020653Y001953D03*
X020070Y009548D03*
X020653Y011953D03*
X020070Y014548D03*
X020653Y016953D03*
X020070Y019548D03*
X020653Y021953D03*
X020070Y024548D03*
X020653Y026953D03*
X020070Y029548D03*
X030785Y020101D03*
X033380Y020683D03*
X035785Y020101D03*
X038380Y020683D03*
X004917Y021176D03*
X003385Y021158D03*
X003385Y019195D03*
X004915Y019181D03*
X004917Y016176D03*
X003385Y016158D03*
X003385Y014195D03*
X004915Y014181D03*
X004917Y011176D03*
X003385Y011158D03*
X003385Y009195D03*
X004915Y009181D03*
X004917Y006176D03*
X003385Y006158D03*
X003385Y004195D03*
X004915Y004181D03*
X004917Y001176D03*
X003385Y001158D03*
X003385Y024195D03*
X004915Y024181D03*
X004917Y026176D03*
X003385Y026158D03*
X003385Y029195D03*
X004915Y029181D03*
M02*
