G75*
G70*
%OFA0B0*%
%FSLAX24Y24*%
%IPPOS*%
%LPD*%
%AMOC8*
5,1,8,0,0,1.08239X$1,22.5*
%
%ADD10C,0.0000*%
%ADD11OC8,0.0650*%
%ADD12C,0.0705*%
%ADD13R,0.0945X0.0630*%
%ADD14C,0.0357*%
%ADD15C,0.0160*%
%ADD16C,0.0359*%
D10*
X000101Y000181D02*
X000101Y005177D01*
X030121Y005177D01*
X030121Y000181D01*
X000101Y000181D01*
X008746Y000911D02*
X008748Y000948D01*
X008754Y000985D01*
X008763Y001021D01*
X008777Y001055D01*
X008794Y001088D01*
X008814Y001120D01*
X008837Y001149D01*
X008863Y001175D01*
X008892Y001198D01*
X008923Y001218D01*
X008957Y001235D01*
X008991Y001249D01*
X009027Y001258D01*
X009064Y001264D01*
X009101Y001266D01*
X009138Y001264D01*
X009175Y001258D01*
X009211Y001249D01*
X009245Y001235D01*
X009278Y001218D01*
X009310Y001198D01*
X009339Y001175D01*
X009365Y001149D01*
X009388Y001120D01*
X009408Y001089D01*
X009425Y001055D01*
X009439Y001021D01*
X009448Y000985D01*
X009454Y000948D01*
X009456Y000911D01*
X009454Y000874D01*
X009448Y000837D01*
X009439Y000801D01*
X009425Y000767D01*
X009408Y000734D01*
X009388Y000702D01*
X009365Y000673D01*
X009339Y000647D01*
X009310Y000624D01*
X009279Y000604D01*
X009245Y000587D01*
X009211Y000573D01*
X009175Y000564D01*
X009138Y000558D01*
X009101Y000556D01*
X009064Y000558D01*
X009027Y000564D01*
X008991Y000573D01*
X008957Y000587D01*
X008924Y000604D01*
X008892Y000624D01*
X008863Y000647D01*
X008837Y000673D01*
X008814Y000702D01*
X008794Y000733D01*
X008777Y000767D01*
X008763Y000801D01*
X008754Y000837D01*
X008748Y000874D01*
X008746Y000911D01*
X000951Y002681D02*
X000953Y002731D01*
X000959Y002781D01*
X000969Y002831D01*
X000982Y002879D01*
X000999Y002927D01*
X001020Y002973D01*
X001044Y003017D01*
X001072Y003059D01*
X001103Y003099D01*
X001137Y003136D01*
X001174Y003171D01*
X001213Y003202D01*
X001254Y003231D01*
X001298Y003256D01*
X001344Y003278D01*
X001391Y003296D01*
X001439Y003310D01*
X001488Y003321D01*
X001538Y003328D01*
X001588Y003331D01*
X001639Y003330D01*
X001689Y003325D01*
X001739Y003316D01*
X001787Y003304D01*
X001835Y003287D01*
X001881Y003267D01*
X001926Y003244D01*
X001969Y003217D01*
X002009Y003187D01*
X002047Y003154D01*
X002082Y003118D01*
X002115Y003079D01*
X002144Y003038D01*
X002170Y002995D01*
X002193Y002950D01*
X002212Y002903D01*
X002227Y002855D01*
X002239Y002806D01*
X002247Y002756D01*
X002251Y002706D01*
X002251Y002656D01*
X002247Y002606D01*
X002239Y002556D01*
X002227Y002507D01*
X002212Y002459D01*
X002193Y002412D01*
X002170Y002367D01*
X002144Y002324D01*
X002115Y002283D01*
X002082Y002244D01*
X002047Y002208D01*
X002009Y002175D01*
X001969Y002145D01*
X001926Y002118D01*
X001881Y002095D01*
X001835Y002075D01*
X001787Y002058D01*
X001739Y002046D01*
X001689Y002037D01*
X001639Y002032D01*
X001588Y002031D01*
X001538Y002034D01*
X001488Y002041D01*
X001439Y002052D01*
X001391Y002066D01*
X001344Y002084D01*
X001298Y002106D01*
X001254Y002131D01*
X001213Y002160D01*
X001174Y002191D01*
X001137Y002226D01*
X001103Y002263D01*
X001072Y002303D01*
X001044Y002345D01*
X001020Y002389D01*
X000999Y002435D01*
X000982Y002483D01*
X000969Y002531D01*
X000959Y002581D01*
X000953Y002631D01*
X000951Y002681D01*
X008746Y004451D02*
X008748Y004488D01*
X008754Y004525D01*
X008763Y004561D01*
X008777Y004595D01*
X008794Y004628D01*
X008814Y004660D01*
X008837Y004689D01*
X008863Y004715D01*
X008892Y004738D01*
X008923Y004758D01*
X008957Y004775D01*
X008991Y004789D01*
X009027Y004798D01*
X009064Y004804D01*
X009101Y004806D01*
X009138Y004804D01*
X009175Y004798D01*
X009211Y004789D01*
X009245Y004775D01*
X009278Y004758D01*
X009310Y004738D01*
X009339Y004715D01*
X009365Y004689D01*
X009388Y004660D01*
X009408Y004629D01*
X009425Y004595D01*
X009439Y004561D01*
X009448Y004525D01*
X009454Y004488D01*
X009456Y004451D01*
X009454Y004414D01*
X009448Y004377D01*
X009439Y004341D01*
X009425Y004307D01*
X009408Y004274D01*
X009388Y004242D01*
X009365Y004213D01*
X009339Y004187D01*
X009310Y004164D01*
X009279Y004144D01*
X009245Y004127D01*
X009211Y004113D01*
X009175Y004104D01*
X009138Y004098D01*
X009101Y004096D01*
X009064Y004098D01*
X009027Y004104D01*
X008991Y004113D01*
X008957Y004127D01*
X008924Y004144D01*
X008892Y004164D01*
X008863Y004187D01*
X008837Y004213D01*
X008814Y004242D01*
X008794Y004273D01*
X008777Y004307D01*
X008763Y004341D01*
X008754Y004377D01*
X008748Y004414D01*
X008746Y004451D01*
X027951Y002681D02*
X027953Y002731D01*
X027959Y002781D01*
X027969Y002831D01*
X027982Y002879D01*
X027999Y002927D01*
X028020Y002973D01*
X028044Y003017D01*
X028072Y003059D01*
X028103Y003099D01*
X028137Y003136D01*
X028174Y003171D01*
X028213Y003202D01*
X028254Y003231D01*
X028298Y003256D01*
X028344Y003278D01*
X028391Y003296D01*
X028439Y003310D01*
X028488Y003321D01*
X028538Y003328D01*
X028588Y003331D01*
X028639Y003330D01*
X028689Y003325D01*
X028739Y003316D01*
X028787Y003304D01*
X028835Y003287D01*
X028881Y003267D01*
X028926Y003244D01*
X028969Y003217D01*
X029009Y003187D01*
X029047Y003154D01*
X029082Y003118D01*
X029115Y003079D01*
X029144Y003038D01*
X029170Y002995D01*
X029193Y002950D01*
X029212Y002903D01*
X029227Y002855D01*
X029239Y002806D01*
X029247Y002756D01*
X029251Y002706D01*
X029251Y002656D01*
X029247Y002606D01*
X029239Y002556D01*
X029227Y002507D01*
X029212Y002459D01*
X029193Y002412D01*
X029170Y002367D01*
X029144Y002324D01*
X029115Y002283D01*
X029082Y002244D01*
X029047Y002208D01*
X029009Y002175D01*
X028969Y002145D01*
X028926Y002118D01*
X028881Y002095D01*
X028835Y002075D01*
X028787Y002058D01*
X028739Y002046D01*
X028689Y002037D01*
X028639Y002032D01*
X028588Y002031D01*
X028538Y002034D01*
X028488Y002041D01*
X028439Y002052D01*
X028391Y002066D01*
X028344Y002084D01*
X028298Y002106D01*
X028254Y002131D01*
X028213Y002160D01*
X028174Y002191D01*
X028137Y002226D01*
X028103Y002263D01*
X028072Y002303D01*
X028044Y002345D01*
X028020Y002389D01*
X027999Y002435D01*
X027982Y002483D01*
X027969Y002531D01*
X027959Y002581D01*
X027953Y002631D01*
X027951Y002681D01*
D11*
X025022Y002012D03*
X015160Y001992D03*
X015160Y003370D03*
D12*
X011913Y003661D02*
X011208Y003661D01*
X006993Y003661D02*
X006288Y003661D01*
X006288Y001701D02*
X006993Y001701D01*
X011208Y001701D02*
X011913Y001701D01*
D13*
X004869Y002229D03*
X003333Y002229D03*
X003333Y003134D03*
X004869Y003134D03*
D14*
X004865Y004181D03*
X003335Y004195D03*
X003335Y001158D03*
X004867Y001176D03*
X020603Y001953D03*
D15*
X016577Y001953D01*
X015160Y003370D01*
X013707Y004181D02*
X013185Y003660D01*
X011562Y003660D01*
X011561Y003661D01*
X006641Y003661D01*
X004865Y004181D02*
X004865Y003138D01*
X004869Y003134D01*
X003335Y003136D02*
X003333Y003134D01*
X003335Y003136D02*
X003335Y004195D01*
X003333Y002229D02*
X003335Y002227D01*
X003335Y001158D01*
X004867Y001176D02*
X004867Y002227D01*
X004869Y002229D01*
X006641Y001701D02*
X011561Y001701D01*
X014869Y001701D01*
X015160Y001992D01*
X016101Y004181D02*
X017609Y002674D01*
X020028Y002674D01*
X016101Y004181D02*
X013707Y004181D01*
D16*
X020028Y002674D03*
M02*
