G75*
G70*
%OFA0B0*%
%FSLAX24Y24*%
%IPPOS*%
%LPD*%
%AMOC8*
5,1,8,0,0,1.08239X$1,22.5*
%
%ADD10C,0.0110*%
%ADD11C,0.0080*%
%ADD12C,0.0050*%
%ADD13C,0.0040*%
%ADD14C,0.0060*%
%ADD15C,0.0020*%
%ADD16R,0.0850X0.0200*%
%ADD17R,0.0157X0.0157*%
D10*
X003381Y000551D02*
X003381Y000945D01*
X003185Y000748D02*
X003578Y000748D01*
X004657Y000713D02*
X004952Y000713D01*
X005051Y000812D01*
X005051Y001008D01*
X004952Y001107D01*
X004657Y001107D01*
X004657Y000516D01*
X004854Y000713D02*
X005051Y000516D01*
X004952Y004341D02*
X004755Y004341D01*
X004657Y004440D01*
X004657Y004833D01*
X004755Y004932D01*
X004952Y004932D01*
X005051Y004833D01*
X005051Y004636D02*
X004854Y004636D01*
X005051Y004636D02*
X005051Y004440D01*
X004952Y004341D01*
X003580Y004408D02*
X003482Y004309D01*
X003186Y004309D01*
X003186Y004900D01*
X003482Y004900D01*
X003580Y004801D01*
X003580Y004703D01*
X003482Y004604D01*
X003186Y004604D01*
X003482Y004604D02*
X003580Y004506D01*
X003580Y004408D01*
D11*
X012657Y004551D02*
X012657Y004972D01*
X012867Y004972D01*
X012937Y004902D01*
X012937Y004761D01*
X012867Y004691D01*
X012657Y004691D01*
X012797Y004691D02*
X012937Y004551D01*
X013117Y004621D02*
X013187Y004551D01*
X013327Y004551D01*
X013397Y004621D01*
X013397Y004761D01*
X013257Y004761D01*
X013577Y004761D02*
X013787Y004761D01*
X013857Y004691D01*
X013857Y004621D01*
X013787Y004551D01*
X013577Y004551D01*
X013577Y004972D01*
X013787Y004972D01*
X013857Y004902D01*
X013857Y004832D01*
X013787Y004761D01*
X014038Y004832D02*
X014108Y004761D01*
X014248Y004761D01*
X014318Y004691D01*
X014318Y004621D01*
X014248Y004551D01*
X014108Y004551D01*
X014038Y004621D01*
X014498Y004621D02*
X014568Y004691D01*
X014778Y004691D01*
X014778Y004761D02*
X014778Y004551D01*
X014568Y004551D01*
X014498Y004621D01*
X014708Y004832D02*
X014778Y004761D01*
X014708Y004832D02*
X014568Y004832D01*
X014318Y004902D02*
X014248Y004972D01*
X014108Y004972D01*
X014038Y004902D01*
X014038Y004832D01*
X013397Y004902D02*
X013327Y004972D01*
X013187Y004972D01*
X013117Y004902D01*
X013117Y004621D01*
X014958Y004551D02*
X014958Y004972D01*
X014958Y004832D02*
X015168Y004832D01*
X015239Y004761D01*
X015239Y004621D01*
X015168Y004551D01*
X014958Y004551D01*
X015419Y004621D02*
X015489Y004551D01*
X015629Y004551D01*
X015419Y004621D02*
X015419Y004761D01*
X015489Y004832D01*
X015629Y004832D01*
X015699Y004761D01*
X015699Y004691D01*
X015419Y004691D01*
X015879Y004691D02*
X016019Y004832D01*
X016089Y004832D01*
X015879Y004832D02*
X015879Y004551D01*
X016263Y004481D02*
X016543Y004481D01*
X016723Y004551D02*
X016723Y004972D01*
X016933Y004972D01*
X017003Y004902D01*
X017003Y004761D01*
X016933Y004691D01*
X016723Y004691D01*
X017183Y004691D02*
X017464Y004691D01*
X017464Y004761D01*
X017394Y004832D01*
X017253Y004832D01*
X017183Y004761D01*
X017183Y004621D01*
X017253Y004551D01*
X017394Y004551D01*
X017644Y004551D02*
X017644Y004832D01*
X017784Y004832D02*
X017854Y004832D01*
X017784Y004832D02*
X017644Y004691D01*
X018027Y004551D02*
X018167Y004551D01*
X018097Y004551D02*
X018097Y004832D01*
X018027Y004832D01*
X018334Y004832D02*
X018544Y004832D01*
X018614Y004761D01*
X018614Y004621D01*
X018544Y004551D01*
X018334Y004551D01*
X018334Y004411D02*
X018334Y004832D01*
X018795Y004761D02*
X018865Y004832D01*
X019005Y004832D01*
X019075Y004761D01*
X019075Y004551D01*
X019255Y004551D02*
X019535Y004551D01*
X019395Y004551D02*
X019395Y004972D01*
X019255Y004832D01*
X018795Y004972D02*
X018795Y004551D01*
X020176Y004832D02*
X020316Y004551D01*
X020456Y004832D01*
X020636Y004832D02*
X020776Y004972D01*
X020776Y004551D01*
X020636Y004551D02*
X020916Y004551D01*
X021096Y004551D02*
X021166Y004551D01*
X021166Y004621D01*
X021096Y004621D01*
X021096Y004551D01*
X021326Y004621D02*
X021397Y004551D01*
X021537Y004551D01*
X021607Y004621D01*
X021607Y004691D01*
X021537Y004761D01*
X021326Y004761D01*
X021326Y004621D01*
X021326Y004761D02*
X021467Y004902D01*
X021607Y004972D01*
X022902Y004739D02*
X023182Y004739D01*
X023363Y004739D02*
X023643Y004739D01*
X023823Y004599D02*
X023823Y004879D01*
X023893Y004949D01*
X024033Y004949D01*
X024103Y004879D01*
X023823Y004599D01*
X023893Y004529D01*
X024033Y004529D01*
X024103Y004599D01*
X024103Y004879D01*
X024283Y004879D02*
X024353Y004949D01*
X024493Y004949D01*
X024564Y004879D01*
X024564Y004809D01*
X024283Y004529D01*
X024564Y004529D01*
X025204Y004529D02*
X025484Y004529D01*
X025344Y004529D02*
X025344Y004949D01*
X025204Y004809D01*
X025024Y004739D02*
X024744Y004739D01*
X025664Y004809D02*
X025804Y004949D01*
X025804Y004529D01*
X025664Y004529D02*
X025945Y004529D01*
X023112Y004529D02*
X023112Y004949D01*
X022902Y004739D01*
X018097Y004972D02*
X018097Y005042D01*
X018203Y000883D02*
X018203Y000813D01*
X018510Y000743D02*
X018510Y000463D01*
X018580Y000393D01*
X018746Y000463D02*
X018816Y000393D01*
X018887Y000463D01*
X018957Y000393D01*
X019027Y000463D01*
X019027Y000673D01*
X019207Y000603D02*
X019207Y000463D01*
X019277Y000393D01*
X019417Y000393D01*
X019487Y000463D01*
X019487Y000603D01*
X019417Y000673D01*
X019277Y000673D01*
X019207Y000603D01*
X018746Y000673D02*
X018746Y000463D01*
X018273Y000393D02*
X018133Y000393D01*
X018203Y000393D02*
X018203Y000673D01*
X018133Y000673D01*
X017953Y000603D02*
X017882Y000673D01*
X017672Y000673D01*
X017492Y000603D02*
X017492Y000393D01*
X017672Y000393D02*
X017882Y000393D01*
X017953Y000463D01*
X017953Y000603D01*
X017492Y000603D02*
X017422Y000673D01*
X017212Y000673D01*
X017212Y000393D01*
X017032Y000813D02*
X016752Y000393D01*
X016571Y000813D02*
X016291Y000393D01*
X016131Y000393D02*
X016061Y000393D01*
X016061Y000463D01*
X016131Y000463D01*
X016131Y000393D01*
X015881Y000463D02*
X015811Y000393D01*
X015601Y000393D01*
X015434Y000393D02*
X015364Y000463D01*
X015364Y000743D01*
X015294Y000673D02*
X015434Y000673D01*
X015601Y000673D02*
X015811Y000673D01*
X015881Y000603D01*
X015881Y000463D01*
X016061Y000603D02*
X016061Y000673D01*
X016131Y000673D01*
X016131Y000603D01*
X016061Y000603D01*
X015601Y000673D02*
X015601Y000253D01*
X015127Y000393D02*
X015057Y000463D01*
X015057Y000743D01*
X014987Y000673D02*
X015127Y000673D01*
X014807Y000603D02*
X014807Y000393D01*
X014527Y000393D02*
X014527Y000813D01*
X014597Y000673D02*
X014737Y000673D01*
X014807Y000603D01*
X014597Y000673D02*
X014527Y000603D01*
X017672Y000813D02*
X017672Y000393D01*
X018440Y000673D02*
X018580Y000673D01*
X019667Y000673D02*
X019667Y000393D01*
X019947Y000393D02*
X019947Y000603D01*
X019877Y000673D01*
X019667Y000673D01*
X020128Y000603D02*
X020198Y000673D01*
X020408Y000673D01*
X020588Y000603D02*
X020658Y000673D01*
X020798Y000673D01*
X020868Y000603D01*
X020868Y000533D01*
X020588Y000533D01*
X020588Y000463D02*
X020588Y000603D01*
X021048Y000673D02*
X021048Y000393D01*
X020798Y000393D02*
X020658Y000393D01*
X020588Y000463D01*
X020408Y000393D02*
X020198Y000393D01*
X020128Y000463D01*
X020128Y000603D01*
X020408Y000813D02*
X020408Y000393D01*
X021048Y000533D02*
X021188Y000673D01*
X021258Y000673D01*
X021662Y000603D02*
X021662Y000463D01*
X021732Y000393D01*
X021942Y000393D01*
X022122Y000463D02*
X022192Y000393D01*
X022333Y000393D01*
X022403Y000463D01*
X022403Y000603D01*
X022333Y000673D01*
X022192Y000673D01*
X022122Y000603D01*
X022122Y000463D01*
X022583Y000393D02*
X022583Y000673D01*
X022653Y000673D01*
X022723Y000603D01*
X022793Y000673D01*
X022863Y000603D01*
X022863Y000393D01*
X022723Y000393D02*
X022723Y000603D01*
X021942Y000673D02*
X021732Y000673D01*
X021662Y000603D01*
X021502Y000463D02*
X021432Y000463D01*
X021432Y000393D01*
X021502Y000393D01*
X021502Y000463D01*
D12*
X024601Y001181D02*
X024601Y004181D01*
X015601Y004181D01*
X015601Y001181D01*
X024601Y001181D01*
X011026Y001082D02*
X010726Y001082D01*
X010951Y001307D01*
X010951Y000856D01*
X007376Y000931D02*
X007301Y000856D01*
X007151Y000856D01*
X007076Y000931D01*
X007301Y001082D02*
X007376Y001007D01*
X007376Y000931D01*
X007301Y001082D02*
X007226Y001082D01*
X007301Y001082D02*
X007376Y001157D01*
X007376Y001232D01*
X007301Y001307D01*
X007151Y001307D01*
X007076Y001232D01*
X007076Y004006D02*
X007376Y004006D01*
X007226Y004006D02*
X007226Y004457D01*
X007076Y004307D01*
X010676Y004382D02*
X010751Y004457D01*
X010901Y004457D01*
X010976Y004382D01*
X010976Y004307D01*
X010676Y004006D01*
X010976Y004006D01*
X007886Y005456D02*
X007586Y005456D01*
X007736Y005456D02*
X007736Y005907D01*
X007586Y005757D01*
X007426Y005832D02*
X007351Y005907D01*
X007201Y005907D01*
X007126Y005832D01*
X007126Y005757D01*
X007201Y005682D01*
X007351Y005682D01*
X007426Y005607D01*
X007426Y005531D01*
X007351Y005456D01*
X007201Y005456D01*
X007126Y005531D01*
D13*
X003586Y000701D02*
X003279Y000701D01*
X003279Y001162D01*
X003740Y001162D02*
X003740Y000701D01*
X004046Y000701D01*
X004200Y000701D02*
X004430Y000701D01*
X004507Y000778D01*
X004507Y001085D01*
X004430Y001162D01*
X004200Y001162D01*
X004200Y000701D01*
X004660Y000701D02*
X004967Y000701D01*
X004814Y000701D02*
X004814Y001162D01*
X004660Y001008D01*
X004046Y001162D02*
X003740Y001162D01*
X003740Y000932D02*
X003893Y000932D01*
X014160Y001701D02*
X014467Y001701D01*
X014314Y001701D02*
X014314Y002162D01*
X014160Y002008D01*
X014160Y003201D02*
X014467Y003508D01*
X014467Y003585D01*
X014391Y003662D01*
X014237Y003662D01*
X014160Y003585D01*
X014160Y003201D02*
X014467Y003201D01*
X025410Y002085D02*
X025487Y002162D01*
X025641Y002162D01*
X025717Y002085D01*
X025717Y002008D01*
X025641Y001932D01*
X025717Y001855D01*
X025717Y001778D01*
X025641Y001701D01*
X025487Y001701D01*
X025410Y001778D01*
X025564Y001932D02*
X025641Y001932D01*
D14*
X011501Y002231D02*
X011501Y003131D01*
X009851Y003431D02*
X009851Y001931D01*
X008351Y001931D01*
X008351Y003431D01*
X009851Y003431D01*
X006701Y003131D02*
X006701Y002231D01*
X007701Y002681D02*
X007703Y002756D01*
X007709Y002830D01*
X007719Y002904D01*
X007733Y002977D01*
X007750Y003049D01*
X007772Y003121D01*
X007797Y003191D01*
X007826Y003259D01*
X007859Y003327D01*
X007895Y003392D01*
X007934Y003455D01*
X007977Y003516D01*
X008023Y003575D01*
X008072Y003631D01*
X008124Y003684D01*
X008179Y003735D01*
X008236Y003782D01*
X008296Y003827D01*
X008358Y003868D01*
X008423Y003906D01*
X008489Y003940D01*
X008557Y003971D01*
X008626Y003998D01*
X008697Y004021D01*
X008769Y004041D01*
X008842Y004057D01*
X008915Y004069D01*
X008989Y004077D01*
X009064Y004081D01*
X009138Y004081D01*
X009213Y004077D01*
X009287Y004069D01*
X009360Y004057D01*
X009433Y004041D01*
X009505Y004021D01*
X009576Y003998D01*
X009645Y003971D01*
X009713Y003940D01*
X009779Y003906D01*
X009844Y003868D01*
X009906Y003827D01*
X009966Y003782D01*
X010023Y003735D01*
X010078Y003684D01*
X010130Y003631D01*
X010179Y003575D01*
X010225Y003516D01*
X010268Y003455D01*
X010307Y003392D01*
X010343Y003327D01*
X010376Y003259D01*
X010405Y003191D01*
X010430Y003121D01*
X010452Y003049D01*
X010469Y002977D01*
X010483Y002904D01*
X010493Y002830D01*
X010499Y002756D01*
X010501Y002681D01*
X010499Y002606D01*
X010493Y002532D01*
X010483Y002458D01*
X010469Y002385D01*
X010452Y002313D01*
X010430Y002241D01*
X010405Y002171D01*
X010376Y002103D01*
X010343Y002035D01*
X010307Y001970D01*
X010268Y001907D01*
X010225Y001846D01*
X010179Y001787D01*
X010130Y001731D01*
X010078Y001678D01*
X010023Y001627D01*
X009966Y001580D01*
X009906Y001535D01*
X009844Y001494D01*
X009779Y001456D01*
X009713Y001422D01*
X009645Y001391D01*
X009576Y001364D01*
X009505Y001341D01*
X009433Y001321D01*
X009360Y001305D01*
X009287Y001293D01*
X009213Y001285D01*
X009138Y001281D01*
X009064Y001281D01*
X008989Y001285D01*
X008915Y001293D01*
X008842Y001305D01*
X008769Y001321D01*
X008697Y001341D01*
X008626Y001364D01*
X008557Y001391D01*
X008489Y001422D01*
X008423Y001456D01*
X008358Y001494D01*
X008296Y001535D01*
X008236Y001580D01*
X008179Y001627D01*
X008124Y001678D01*
X008072Y001731D01*
X008023Y001787D01*
X007977Y001846D01*
X007934Y001907D01*
X007895Y001970D01*
X007859Y002035D01*
X007826Y002103D01*
X007797Y002171D01*
X007772Y002241D01*
X007750Y002313D01*
X007733Y002385D01*
X007719Y002458D01*
X007709Y002532D01*
X007703Y002606D01*
X007701Y002681D01*
X006701Y001181D02*
X006701Y000681D01*
X007101Y000281D01*
X007201Y000181D01*
X008401Y000181D01*
X008401Y000281D01*
X008701Y000281D01*
X009501Y000281D01*
X009801Y000281D01*
X011101Y000281D01*
X011001Y000181D01*
X009801Y000181D01*
X009801Y000281D01*
X009501Y000281D02*
X009501Y000131D01*
X008701Y000131D01*
X008701Y000281D01*
X008401Y000281D02*
X007101Y000281D01*
X011101Y000281D02*
X011501Y000681D01*
X011501Y001181D01*
X011501Y004181D02*
X011501Y004681D01*
X011101Y005081D01*
X011001Y005181D01*
X009801Y005181D01*
X009801Y005081D01*
X009501Y005081D01*
X009501Y005231D01*
X008701Y005231D01*
X008701Y005081D01*
X008401Y005081D01*
X008401Y005181D01*
X007201Y005181D01*
X007101Y005081D01*
X006701Y004681D01*
X006701Y004181D01*
X007101Y005081D02*
X008401Y005081D01*
X008701Y005081D02*
X009501Y005081D01*
X009801Y005081D02*
X011101Y005081D01*
D15*
X009751Y003331D02*
X008451Y003331D01*
X008451Y002031D01*
X009751Y002031D01*
X009751Y003331D01*
X008801Y002681D02*
X008803Y002715D01*
X008809Y002749D01*
X008818Y002782D01*
X008832Y002813D01*
X008849Y002843D01*
X008869Y002871D01*
X008892Y002896D01*
X008918Y002919D01*
X008946Y002938D01*
X008976Y002954D01*
X009008Y002966D01*
X009041Y002975D01*
X009075Y002980D01*
X009110Y002981D01*
X009144Y002978D01*
X009177Y002971D01*
X009210Y002961D01*
X009241Y002946D01*
X009270Y002929D01*
X009297Y002908D01*
X009322Y002884D01*
X009344Y002857D01*
X009362Y002829D01*
X009377Y002798D01*
X009389Y002766D01*
X009397Y002732D01*
X009401Y002698D01*
X009401Y002664D01*
X009397Y002630D01*
X009389Y002596D01*
X009377Y002564D01*
X009362Y002533D01*
X009344Y002505D01*
X009322Y002478D01*
X009297Y002454D01*
X009270Y002433D01*
X009241Y002416D01*
X009210Y002401D01*
X009177Y002391D01*
X009144Y002384D01*
X009110Y002381D01*
X009075Y002382D01*
X009041Y002387D01*
X009008Y002396D01*
X008976Y002408D01*
X008946Y002424D01*
X008918Y002443D01*
X008892Y002466D01*
X008869Y002491D01*
X008849Y002519D01*
X008832Y002549D01*
X008818Y002580D01*
X008809Y002613D01*
X008803Y002647D01*
X008801Y002681D01*
X008701Y002681D02*
X008703Y002721D01*
X008709Y002760D01*
X008719Y002799D01*
X008732Y002836D01*
X008750Y002872D01*
X008771Y002906D01*
X008795Y002938D01*
X008822Y002967D01*
X008852Y002994D01*
X008884Y003017D01*
X008919Y003037D01*
X008955Y003053D01*
X008993Y003066D01*
X009032Y003075D01*
X009071Y003080D01*
X009111Y003081D01*
X009151Y003078D01*
X009190Y003071D01*
X009228Y003060D01*
X009266Y003046D01*
X009301Y003027D01*
X009334Y003006D01*
X009366Y002981D01*
X009394Y002953D01*
X009420Y002923D01*
X009442Y002890D01*
X009461Y002855D01*
X009477Y002818D01*
X009489Y002780D01*
X009497Y002741D01*
X009501Y002701D01*
X009501Y002661D01*
X009497Y002621D01*
X009489Y002582D01*
X009477Y002544D01*
X009461Y002507D01*
X009442Y002472D01*
X009420Y002439D01*
X009394Y002409D01*
X009366Y002381D01*
X009334Y002356D01*
X009301Y002335D01*
X009266Y002316D01*
X009228Y002302D01*
X009190Y002291D01*
X009151Y002284D01*
X009111Y002281D01*
X009071Y002282D01*
X009032Y002287D01*
X008993Y002296D01*
X008955Y002309D01*
X008919Y002325D01*
X008884Y002345D01*
X008852Y002368D01*
X008822Y002395D01*
X008795Y002424D01*
X008771Y002456D01*
X008750Y002490D01*
X008732Y002526D01*
X008719Y002563D01*
X008709Y002602D01*
X008703Y002641D01*
X008701Y002681D01*
D16*
X007776Y005081D03*
X010426Y005081D03*
X010426Y000281D03*
X007776Y000281D03*
D17*
X004337Y002681D03*
X004101Y002681D03*
X003865Y002681D03*
M02*
