%
M48
M72
T01C0.0197
T02C0.0200
T03C0.0236
T04C0.0320
T05C0.0394
T06C0.0400
T07C0.1300
%
T01
X7333Y2762
X10633Y4623
X12402Y5827
X12488Y6395
X9833Y7262
X5333Y6762
X5333Y4762
T02
X12333Y4512
X13083Y4762
X13533Y5162
X12342Y5264
X13533Y7062
X17333Y8262
X17481Y5176
X17333Y2762
T03
X19452Y3211
X19984Y3211
X20837Y3467
X21833Y3762
X21165Y3988
X20865Y4453
X20002Y4714
X19471Y4714
X19737Y5114
X19718Y5856
X19984Y6218
X19452Y6218
X20892Y6535
X20097Y6922
X19376Y6922
X20865Y7412
X20002Y7645
X19452Y7645
X19737Y8063
X19699Y8805
X19452Y9186
X19984Y9167
X21357Y9384
X22333Y9262
X22833Y8762
X23333Y8262
X24333Y8262
X23833Y7762
X24333Y7262
X23333Y7262
X22833Y7762
X22333Y7262
X21833Y7762
X22333Y8262
X21833Y8762
X21193Y6974
X21833Y6762
X22833Y6762
X23833Y6762
X24333Y6262
X23833Y5762
X23333Y6262
X22833Y5762
X22333Y6262
X21833Y5762
X22333Y5262
X22833Y4762
X23333Y5262
X23833Y4762
X24333Y5262
X24333Y4262
X23833Y3762
X23333Y4262
X22833Y3762
X22333Y4262
X21833Y4762
X20078Y3972
X19357Y3972
X19737Y2831
X19756Y2070
X20002Y1689
X19471Y1708
X21833Y1762
X22333Y2262
X22833Y1762
X22833Y2762
X23333Y3262
X23833Y2762
X24333Y3262
X22333Y3262
X21833Y2762
T04
X10961Y9092
X8961Y9092
T05
X7351Y7762
X6642Y7762
X5934Y7762
X5225Y7762
X4516Y7762
T06
X2651Y8508
X2651Y9508
X1633Y7362
X1633Y6362
X1633Y5362
X1633Y4362
X1633Y3362
X7833Y1262
X8833Y1262
X9833Y1262
X10833Y1262
X11833Y1262
X12833Y1262
X13833Y1262
X13733Y9412
X14733Y9412
X15733Y9412
X12733Y9412
T07
X1232Y1262
X1233Y9762
X24333Y9762
X24333Y1262
M30
