G75*
G70*
%OFA0B0*%
%FSLAX24Y24*%
%IPPOS*%
%LPD*%
%AMOC8*
5,1,8,0,0,1.08239X$1,22.5*
%
%ADD10R,0.0789X0.0395*%
%ADD11R,0.0808X0.1261*%
%ADD12R,0.0710X0.0867*%
%ADD13OC8,0.0710*%
%ADD14R,0.0552X0.0395*%
%ADD15C,0.0680*%
%ADD16R,0.0680X0.0680*%
%ADD17C,0.1380*%
%ADD18R,0.0630X0.0217*%
%ADD19OC8,0.0674*%
%ADD20C,0.0440*%
%ADD21C,0.0437*%
%ADD22C,0.0476*%
D10*
X018729Y001557D03*
X018733Y002462D03*
X018729Y003368D03*
X018729Y004557D03*
X018733Y005462D03*
X018729Y006368D03*
X018729Y007507D03*
X018733Y008412D03*
X018729Y009318D03*
D11*
X020733Y008412D03*
X020733Y005462D03*
X020733Y002462D03*
D12*
X016734Y005212D03*
X015631Y005212D03*
X015631Y006312D03*
X016734Y006312D03*
X016734Y007412D03*
X015631Y007412D03*
X008184Y004862D03*
X007081Y004862D03*
X007081Y003612D03*
X008184Y003612D03*
X008165Y006167D03*
X007063Y006167D03*
D13*
X008961Y009092D03*
X010961Y009092D03*
D14*
X012233Y008166D03*
X013083Y008166D03*
X013983Y008166D03*
X013983Y007458D03*
X013083Y007458D03*
X012233Y007458D03*
X015833Y004016D03*
X015833Y003308D03*
D15*
X013833Y001262D03*
X012833Y001262D03*
X011833Y001262D03*
X010833Y001262D03*
X009833Y001262D03*
X008833Y001262D03*
X007833Y001262D03*
X001633Y003362D03*
X001633Y004362D03*
X001633Y005362D03*
X001633Y006362D03*
X001633Y007362D03*
X002651Y008508D03*
X002651Y009508D03*
X012733Y009412D03*
X013733Y009412D03*
X014733Y009412D03*
D16*
X015733Y009412D03*
D17*
X001232Y001262D03*
X001233Y009762D03*
X024333Y009762D03*
X024333Y001262D03*
D18*
X014272Y003099D03*
X014272Y003355D03*
X014272Y003610D03*
X014272Y003866D03*
X014272Y004122D03*
X014272Y004378D03*
X014272Y004634D03*
X014272Y004890D03*
X014272Y005146D03*
X014272Y005402D03*
X014272Y005658D03*
X014272Y005914D03*
X014272Y006170D03*
X014272Y006425D03*
X011393Y006425D03*
X011393Y006170D03*
X011393Y005914D03*
X011393Y005658D03*
X011393Y005402D03*
X011393Y005146D03*
X011393Y004890D03*
X011393Y004634D03*
X011393Y004378D03*
X011393Y004122D03*
X011393Y003866D03*
X011393Y003610D03*
X011393Y003355D03*
X011393Y003099D03*
D19*
X007351Y007762D03*
X006642Y007762D03*
X005934Y007762D03*
X005225Y007762D03*
X004516Y007762D03*
D20*
X012342Y005264D03*
X013083Y004762D03*
X013533Y005162D03*
X012333Y004512D03*
X017333Y002762D03*
X017481Y005176D03*
X013533Y007062D03*
X017333Y008262D03*
D21*
X012488Y006395D03*
X012402Y005827D03*
X010633Y004623D03*
X007333Y002762D03*
X005333Y004762D03*
X005333Y006762D03*
X009833Y007262D03*
D22*
X019376Y006922D03*
X020097Y006922D03*
X020892Y006535D03*
X019984Y006218D03*
X019452Y006218D03*
X019718Y005856D03*
X019737Y005114D03*
X020002Y004714D03*
X019471Y004714D03*
X020865Y004453D03*
X021165Y003988D03*
X021833Y003762D03*
X022333Y004262D03*
X022833Y003762D03*
X023333Y004262D03*
X023833Y003762D03*
X024333Y004262D03*
X023833Y004762D03*
X024333Y005262D03*
X023333Y005262D03*
X022833Y004762D03*
X022333Y005262D03*
X021833Y004762D03*
X020078Y003972D03*
X019357Y003972D03*
X020837Y003467D03*
X019984Y003211D03*
X019452Y003211D03*
X019737Y002831D03*
X019756Y002070D03*
X020002Y001689D03*
X019471Y001708D03*
X021833Y001762D03*
X022333Y002262D03*
X022833Y001762D03*
X022833Y002762D03*
X023333Y003262D03*
X023833Y002762D03*
X024333Y003262D03*
X022333Y003262D03*
X021833Y002762D03*
X021833Y005762D03*
X022333Y006262D03*
X022833Y005762D03*
X023333Y006262D03*
X023833Y005762D03*
X024333Y006262D03*
X023833Y006762D03*
X022833Y006762D03*
X021833Y006762D03*
X021193Y006974D03*
X020865Y007412D03*
X020002Y007645D03*
X019452Y007645D03*
X019737Y008063D03*
X019699Y008805D03*
X019452Y009186D03*
X019984Y009167D03*
X021357Y009384D03*
X022333Y009262D03*
X022833Y008762D03*
X023333Y008262D03*
X024333Y008262D03*
X023833Y007762D03*
X024333Y007262D03*
X023333Y007262D03*
X022833Y007762D03*
X022333Y007262D03*
X021833Y007762D03*
X022333Y008262D03*
X021833Y008762D03*
M02*
