G75*
G70*
%OFA0B0*%
%FSLAX24Y24*%
%IPPOS*%
%LPD*%
%AMOC8*
5,1,8,0,0,1.08239X$1,22.5*
%
%ADD10R,0.0709X0.0315*%
%ADD11R,0.0728X0.1181*%
%ADD12R,0.0630X0.0787*%
%ADD13R,0.0472X0.0315*%
%ADD14R,0.0550X0.0137*%
D10*
X018729Y001557D03*
X018733Y002462D03*
X018729Y003368D03*
X018729Y004557D03*
X018733Y005462D03*
X018729Y006368D03*
X018729Y007507D03*
X018733Y008412D03*
X018729Y009318D03*
D11*
X020733Y008412D03*
X020733Y005462D03*
X020733Y002462D03*
D12*
X007081Y003612D03*
X008184Y003612D03*
X008184Y004862D03*
X007081Y004862D03*
X007063Y006167D03*
X008165Y006167D03*
X015631Y006312D03*
X016734Y006312D03*
X016734Y005212D03*
X015631Y005212D03*
X015631Y007412D03*
X016734Y007412D03*
D13*
X013983Y007458D03*
X013083Y007458D03*
X012233Y007458D03*
X012233Y008166D03*
X013083Y008166D03*
X013983Y008166D03*
X015833Y004016D03*
X015833Y003308D03*
D14*
X014272Y003355D03*
X014272Y003610D03*
X014272Y003866D03*
X014272Y004122D03*
X014272Y004378D03*
X014272Y004634D03*
X014272Y004890D03*
X014272Y005146D03*
X014272Y005402D03*
X014272Y005658D03*
X014272Y005914D03*
X014272Y006170D03*
X014272Y006425D03*
X011393Y006425D03*
X011393Y006170D03*
X011393Y005914D03*
X011393Y005658D03*
X011393Y005402D03*
X011393Y005146D03*
X011393Y004890D03*
X011393Y004634D03*
X011393Y004378D03*
X011393Y004122D03*
X011393Y003866D03*
X011393Y003610D03*
X011393Y003355D03*
X011393Y003099D03*
X014272Y003099D03*
M02*
