G75*
G70*
%OFA0B0*%
%FSLAX24Y24*%
%IPPOS*%
%LPD*%
%AMOC8*
5,1,8,0,0,1.08239X$1,22.5*
%
%ADD10OC8,0.0630*%
%ADD11C,0.0600*%
%ADD12R,0.0600X0.0600*%
%ADD13OC8,0.0594*%
%ADD14C,0.0240*%
%ADD15C,0.0360*%
%ADD16C,0.0100*%
%ADD17C,0.0357*%
%ADD18C,0.0396*%
%ADD19C,0.0320*%
D10*
X008961Y009092D03*
X010961Y009092D03*
D11*
X012733Y009412D03*
X013733Y009412D03*
X014733Y009412D03*
X002651Y009508D03*
X002651Y008508D03*
X001633Y007362D03*
X001633Y006362D03*
X001633Y005362D03*
X001633Y004362D03*
X001633Y003362D03*
X007833Y001262D03*
X008833Y001262D03*
X009833Y001262D03*
X010833Y001262D03*
X011833Y001262D03*
X012833Y001262D03*
X013833Y001262D03*
D12*
X015733Y009412D03*
D13*
X007351Y007762D03*
X006642Y007762D03*
X005934Y007762D03*
X005225Y007762D03*
X004516Y007762D03*
D14*
X017833Y007657D02*
X024833Y007657D01*
X024833Y007895D02*
X017833Y007895D01*
X017833Y008134D02*
X024833Y008134D01*
X024833Y008373D02*
X017833Y008373D01*
X017833Y008611D02*
X024108Y008611D01*
X024179Y008592D02*
X024487Y008592D01*
X024784Y008672D01*
X024833Y008700D01*
X024833Y002324D01*
X024784Y002352D01*
X024487Y002432D01*
X024179Y002432D01*
X023881Y002352D01*
X023614Y002198D01*
X023396Y001980D01*
X023242Y001714D01*
X023163Y001416D01*
X023163Y001298D01*
X022883Y001162D01*
X017833Y001162D01*
X017833Y005032D01*
X017861Y005101D01*
X017861Y005252D01*
X017833Y005320D01*
X017833Y009662D01*
X022933Y009662D01*
X023179Y009545D01*
X023242Y009310D01*
X023396Y009044D01*
X023614Y008826D01*
X023881Y008672D01*
X024179Y008592D01*
X024558Y008611D02*
X024833Y008611D01*
X023590Y008850D02*
X017833Y008850D01*
X017833Y009088D02*
X023371Y009088D01*
X023238Y009327D02*
X017833Y009327D01*
X017833Y009565D02*
X023137Y009565D01*
X024833Y007418D02*
X017833Y007418D01*
X017833Y007180D02*
X024833Y007180D01*
X024833Y006941D02*
X017833Y006941D01*
X017833Y006703D02*
X024833Y006703D01*
X024833Y006464D02*
X017833Y006464D01*
X017833Y006226D02*
X024833Y006226D01*
X024833Y005987D02*
X017833Y005987D01*
X017833Y005749D02*
X024833Y005749D01*
X024833Y005510D02*
X017833Y005510D01*
X017853Y005271D02*
X024833Y005271D01*
X024833Y005033D02*
X017833Y005033D01*
X017833Y004794D02*
X024833Y004794D01*
X024833Y004556D02*
X017833Y004556D01*
X017833Y004317D02*
X024833Y004317D01*
X024833Y004079D02*
X017833Y004079D01*
X017833Y003840D02*
X024833Y003840D01*
X024833Y003602D02*
X017833Y003602D01*
X017833Y003363D02*
X024833Y003363D01*
X024833Y003125D02*
X017833Y003125D01*
X017833Y002886D02*
X024833Y002886D01*
X024833Y002647D02*
X017833Y002647D01*
X017833Y002409D02*
X024092Y002409D01*
X024573Y002409D02*
X024833Y002409D01*
X023586Y002170D02*
X017833Y002170D01*
X017833Y001932D02*
X023368Y001932D01*
X023237Y001693D02*
X017833Y001693D01*
X017833Y001455D02*
X023173Y001455D01*
X022994Y001216D02*
X017833Y001216D01*
D15*
X017333Y002762D03*
X013083Y004762D03*
X013533Y005162D03*
X012342Y005264D03*
X012333Y004512D03*
X017481Y005176D03*
X013533Y007062D03*
X017333Y008262D03*
D16*
X002257Y000837D02*
X002185Y000712D01*
X009128Y000712D01*
X008982Y000858D01*
X008918Y000832D01*
X008747Y000832D01*
X008589Y000898D01*
X008468Y001018D01*
X008403Y001176D01*
X008403Y001348D01*
X008429Y001411D01*
X007386Y002454D01*
X007271Y002454D01*
X007158Y002501D01*
X007071Y002587D01*
X007024Y002701D01*
X007024Y002823D01*
X007071Y002937D01*
X007158Y003023D01*
X007271Y003070D01*
X007394Y003070D01*
X007507Y003023D01*
X007594Y002937D01*
X007641Y002823D01*
X007641Y002708D01*
X008683Y001666D01*
X008747Y001692D01*
X008918Y001692D01*
X009076Y001627D01*
X009197Y001506D01*
X009263Y001348D01*
X009263Y001176D01*
X009236Y001113D01*
X009429Y000920D01*
X009566Y000920D01*
X009468Y001018D01*
X009403Y001176D01*
X009403Y001348D01*
X009468Y001506D01*
X009589Y001627D01*
X009653Y001653D01*
X009653Y002337D01*
X009758Y002442D01*
X010453Y003137D01*
X010453Y004367D01*
X010372Y004448D01*
X010325Y004562D01*
X010325Y004684D01*
X010372Y004798D01*
X010420Y004846D01*
X007150Y004846D01*
X006513Y004208D01*
X006513Y004187D01*
X006407Y004082D01*
X005507Y003182D01*
X005358Y003182D01*
X002023Y003182D01*
X001997Y003118D01*
X001876Y002998D01*
X001718Y002932D01*
X001547Y002932D01*
X001389Y002998D01*
X001268Y003118D01*
X001203Y003276D01*
X001203Y003448D01*
X001268Y003606D01*
X001389Y003727D01*
X001547Y003792D01*
X001718Y003792D01*
X001876Y003727D01*
X001997Y003606D01*
X002023Y003542D01*
X005358Y003542D01*
X006153Y004337D01*
X006153Y004357D01*
X006878Y005082D01*
X006407Y005082D01*
X005507Y004182D01*
X005358Y004182D01*
X002023Y004182D01*
X001997Y004118D01*
X001876Y003998D01*
X001718Y003932D01*
X001547Y003932D01*
X001389Y003998D01*
X001268Y004118D01*
X001203Y004276D01*
X001203Y004448D01*
X001268Y004606D01*
X001389Y004727D01*
X001547Y004792D01*
X001718Y004792D01*
X001876Y004727D01*
X001997Y004606D01*
X002023Y004542D01*
X005116Y004542D01*
X005071Y004587D01*
X005024Y004701D01*
X005024Y004823D01*
X005071Y004937D01*
X005153Y005018D01*
X005153Y006506D01*
X005071Y006587D01*
X005024Y006701D01*
X005024Y006823D01*
X005071Y006937D01*
X005158Y007023D01*
X005271Y007070D01*
X005394Y007070D01*
X005507Y007023D01*
X005589Y006942D01*
X009258Y006942D01*
X009524Y007208D01*
X009524Y007323D01*
X009571Y007437D01*
X009658Y007523D01*
X009771Y007570D01*
X009894Y007570D01*
X010007Y007523D01*
X010094Y007437D01*
X010141Y007323D01*
X010141Y007201D01*
X010094Y007087D01*
X010007Y007001D01*
X009894Y006954D01*
X009779Y006954D01*
X009407Y006582D01*
X009258Y006582D01*
X005589Y006582D01*
X005513Y006506D01*
X005513Y005018D01*
X005594Y004937D01*
X005641Y004824D01*
X006153Y005337D01*
X006258Y005442D01*
X011406Y005442D01*
X012184Y006323D01*
X012179Y006334D01*
X012179Y006456D01*
X012226Y006570D01*
X012313Y006657D01*
X012426Y006704D01*
X012549Y006704D01*
X012662Y006657D01*
X012749Y006570D01*
X012796Y006456D01*
X012796Y006334D01*
X012749Y006220D01*
X012662Y006134D01*
X012565Y006093D01*
X012576Y006088D01*
X012663Y006002D01*
X012710Y005888D01*
X012710Y005766D01*
X012663Y005652D01*
X012576Y005566D01*
X012501Y005534D01*
X012518Y005527D01*
X012605Y005440D01*
X012652Y005326D01*
X012652Y005203D01*
X012605Y005089D01*
X012518Y005002D01*
X012404Y004954D01*
X012287Y004954D01*
X012106Y004774D01*
X012106Y004724D01*
X012157Y004775D01*
X012271Y004822D01*
X012394Y004822D01*
X012508Y004775D01*
X012595Y004688D01*
X012643Y004574D01*
X012643Y004450D01*
X012595Y004336D01*
X012513Y004254D01*
X012513Y003337D01*
X012903Y002946D01*
X012903Y003087D01*
X012903Y004504D01*
X012820Y004586D01*
X012773Y004700D01*
X012773Y004824D01*
X012820Y004938D01*
X012907Y005025D01*
X012909Y005026D01*
X012951Y006704D01*
X012944Y006714D01*
X012953Y006777D01*
X012955Y006841D01*
X012963Y006849D01*
X012965Y006861D01*
X013016Y006900D01*
X013063Y006944D01*
X013075Y006944D01*
X013223Y007055D01*
X013223Y007124D01*
X013270Y007238D01*
X013333Y007300D01*
X013333Y009254D01*
X013303Y009326D01*
X013303Y009498D01*
X013333Y009570D01*
X013333Y010310D01*
X002187Y010311D01*
X002258Y010187D01*
X002333Y009907D01*
X002333Y009827D01*
X002396Y009890D01*
X002562Y009958D01*
X002601Y009958D01*
X002601Y009558D01*
X002701Y009558D01*
X002701Y009958D01*
X002741Y009958D01*
X002906Y009890D01*
X003033Y009763D01*
X003101Y009598D01*
X003101Y009558D01*
X002701Y009558D01*
X002701Y009458D01*
X002701Y009058D01*
X002741Y009058D01*
X002906Y009127D01*
X003033Y009253D01*
X003101Y009419D01*
X003101Y009458D01*
X002701Y009458D01*
X002601Y009458D01*
X002601Y009058D01*
X002562Y009058D01*
X002396Y009127D01*
X002270Y009253D01*
X002245Y009314D01*
X002114Y009087D01*
X001909Y008882D01*
X001658Y008737D01*
X001378Y008662D01*
X001089Y008662D01*
X000809Y008737D01*
X000783Y008752D01*
X000783Y002272D01*
X000808Y002287D01*
X001088Y002362D01*
X001377Y002362D01*
X001657Y002287D01*
X001908Y002142D01*
X002113Y001937D01*
X007903Y001937D01*
X008001Y001839D02*
X002170Y001839D01*
X002226Y001740D02*
X008100Y001740D01*
X008087Y001644D02*
X007922Y001712D01*
X007883Y001712D01*
X007883Y001312D01*
X008283Y001312D01*
X008283Y001352D01*
X008214Y001517D01*
X008087Y001644D01*
X008089Y001642D02*
X008198Y001642D01*
X008188Y001543D02*
X008297Y001543D01*
X008244Y001445D02*
X008396Y001445D01*
X008403Y001346D02*
X008283Y001346D01*
X008283Y001212D02*
X007883Y001212D01*
X007883Y001312D01*
X007783Y001312D01*
X007783Y001712D01*
X007743Y001712D01*
X007578Y001644D01*
X007451Y001517D01*
X007383Y001352D01*
X007383Y001312D01*
X007782Y001312D01*
X007782Y001212D01*
X007383Y001212D01*
X007383Y001173D01*
X007451Y001007D01*
X007578Y000881D01*
X007743Y000812D01*
X007783Y000812D01*
X007783Y001212D01*
X007883Y001212D01*
X007883Y000812D01*
X007922Y000812D01*
X008087Y000881D01*
X008214Y001007D01*
X008283Y001173D01*
X008283Y001212D01*
X008273Y001149D02*
X008414Y001149D01*
X008403Y001247D02*
X007883Y001247D01*
X007833Y001262D02*
X002833Y001262D01*
X000833Y003262D01*
X000833Y004862D01*
X001333Y005362D01*
X001633Y005362D01*
X001683Y005386D02*
X005153Y005386D01*
X005153Y005288D02*
X002083Y005288D01*
X002083Y005273D02*
X002083Y005312D01*
X001683Y005312D01*
X001683Y005412D01*
X002083Y005412D01*
X002083Y005452D01*
X002014Y005617D01*
X001887Y005744D01*
X001722Y005812D01*
X001683Y005812D01*
X001683Y005412D01*
X001583Y005412D01*
X001583Y005812D01*
X001543Y005812D01*
X001378Y005744D01*
X001251Y005617D01*
X001183Y005452D01*
X001183Y005412D01*
X001582Y005412D01*
X001582Y005312D01*
X001183Y005312D01*
X001183Y005273D01*
X001251Y005107D01*
X001378Y004981D01*
X001543Y004912D01*
X001583Y004912D01*
X001583Y005312D01*
X001683Y005312D01*
X001683Y004912D01*
X001722Y004912D01*
X001887Y004981D01*
X002014Y005107D01*
X002083Y005273D01*
X002048Y005189D02*
X005153Y005189D01*
X005153Y005091D02*
X001998Y005091D01*
X001899Y004992D02*
X005127Y004992D01*
X005053Y004894D02*
X000783Y004894D01*
X000783Y004992D02*
X001366Y004992D01*
X001268Y005091D02*
X000783Y005091D01*
X000783Y005189D02*
X001217Y005189D01*
X001183Y005288D02*
X000783Y005288D01*
X000783Y005386D02*
X001582Y005386D01*
X001583Y005288D02*
X001683Y005288D01*
X001683Y005189D02*
X001583Y005189D01*
X001583Y005091D02*
X001683Y005091D01*
X001683Y004992D02*
X001583Y004992D01*
X001359Y004696D02*
X000783Y004696D01*
X000783Y004598D02*
X001265Y004598D01*
X001224Y004499D02*
X000783Y004499D01*
X000783Y004401D02*
X001203Y004401D01*
X001203Y004302D02*
X000783Y004302D01*
X000783Y004204D02*
X001233Y004204D01*
X001281Y004105D02*
X000783Y004105D01*
X000783Y004007D02*
X001380Y004007D01*
X001885Y004007D02*
X005823Y004007D01*
X005921Y004105D02*
X001984Y004105D01*
X001633Y004362D02*
X005433Y004362D01*
X006333Y005262D01*
X011487Y005262D01*
X012488Y006395D01*
X012771Y006273D02*
X012940Y006273D01*
X012938Y006175D02*
X012703Y006175D01*
X012589Y006076D02*
X012935Y006076D01*
X012933Y005978D02*
X012673Y005978D01*
X012710Y005879D02*
X012931Y005879D01*
X012928Y005780D02*
X012710Y005780D01*
X012675Y005682D02*
X012926Y005682D01*
X012923Y005583D02*
X012594Y005583D01*
X012560Y005485D02*
X012921Y005485D01*
X012918Y005386D02*
X012627Y005386D01*
X012652Y005288D02*
X012916Y005288D01*
X012913Y005189D02*
X012646Y005189D01*
X012606Y005091D02*
X012911Y005091D01*
X012874Y004992D02*
X012495Y004992D01*
X012226Y004894D02*
X012802Y004894D01*
X012773Y004795D02*
X012459Y004795D01*
X012586Y004696D02*
X012774Y004696D01*
X012815Y004598D02*
X012633Y004598D01*
X012643Y004499D02*
X012903Y004499D01*
X012903Y004401D02*
X012622Y004401D01*
X012561Y004302D02*
X012903Y004302D01*
X012903Y004204D02*
X012513Y004204D01*
X012513Y004105D02*
X012903Y004105D01*
X012903Y004007D02*
X012513Y004007D01*
X012513Y003908D02*
X012903Y003908D01*
X012903Y003810D02*
X012513Y003810D01*
X012513Y003711D02*
X012903Y003711D01*
X012903Y003613D02*
X012513Y003613D01*
X012513Y003514D02*
X012903Y003514D01*
X012903Y003415D02*
X012513Y003415D01*
X012532Y003317D02*
X012903Y003317D01*
X012903Y003218D02*
X012631Y003218D01*
X012729Y003120D02*
X012903Y003120D01*
X012903Y003021D02*
X012828Y003021D01*
X013083Y003012D02*
X013333Y002762D01*
X013333Y001012D01*
X013061Y000740D01*
X009354Y000740D01*
X008833Y001262D01*
X007333Y002762D01*
X007641Y002726D02*
X010042Y002726D01*
X010140Y002824D02*
X007641Y002824D01*
X007600Y002923D02*
X010239Y002923D01*
X010337Y003021D02*
X007509Y003021D01*
X007156Y003021D02*
X001900Y003021D01*
X001998Y003120D02*
X010436Y003120D01*
X010453Y003218D02*
X005543Y003218D01*
X005642Y003317D02*
X010453Y003317D01*
X010453Y003415D02*
X005741Y003415D01*
X005839Y003514D02*
X010453Y003514D01*
X010453Y003613D02*
X005938Y003613D01*
X006036Y003711D02*
X010453Y003711D01*
X010453Y003810D02*
X006135Y003810D01*
X006233Y003908D02*
X010453Y003908D01*
X010453Y004007D02*
X006332Y004007D01*
X006430Y004105D02*
X010453Y004105D01*
X010453Y004204D02*
X006513Y004204D01*
X006607Y004302D02*
X010453Y004302D01*
X010419Y004401D02*
X006705Y004401D01*
X006804Y004499D02*
X010351Y004499D01*
X010325Y004598D02*
X006903Y004598D01*
X007001Y004696D02*
X010330Y004696D01*
X010371Y004795D02*
X007100Y004795D01*
X006689Y004894D02*
X006219Y004894D01*
X006317Y004992D02*
X006788Y004992D01*
X007076Y005026D02*
X011600Y005026D01*
X012402Y005827D01*
X011966Y006076D02*
X005513Y006076D01*
X005513Y005978D02*
X011879Y005978D01*
X011792Y005879D02*
X005513Y005879D01*
X005513Y005780D02*
X011705Y005780D01*
X011618Y005682D02*
X005513Y005682D01*
X005513Y005583D02*
X011531Y005583D01*
X011444Y005485D02*
X005513Y005485D01*
X005513Y005386D02*
X006202Y005386D01*
X006104Y005288D02*
X005513Y005288D01*
X005513Y005189D02*
X006005Y005189D01*
X005907Y005091D02*
X005513Y005091D01*
X005539Y004992D02*
X005808Y004992D01*
X005710Y004894D02*
X005612Y004894D01*
X005333Y004762D02*
X005333Y006762D01*
X009333Y006762D01*
X009833Y007262D01*
X010141Y007259D02*
X013291Y007259D01*
X013333Y007357D02*
X010127Y007357D01*
X010075Y007456D02*
X013333Y007456D01*
X013333Y007554D02*
X009933Y007554D01*
X009732Y007554D02*
X007747Y007554D01*
X007778Y007586D02*
X007778Y007939D01*
X007528Y008189D01*
X007174Y008189D01*
X006997Y008012D01*
X006819Y008189D01*
X006466Y008189D01*
X006302Y008026D01*
X006119Y008209D01*
X005982Y008209D01*
X005982Y007811D01*
X005885Y007811D01*
X005885Y008209D01*
X005749Y008209D01*
X005565Y008026D01*
X005402Y008189D01*
X005048Y008189D01*
X004871Y008012D01*
X004693Y008189D01*
X004340Y008189D01*
X004090Y007939D01*
X004090Y007586D01*
X004340Y007336D01*
X004693Y007336D01*
X004871Y007513D01*
X005048Y007336D01*
X005402Y007336D01*
X005565Y007499D01*
X005749Y007316D01*
X005885Y007316D01*
X005885Y007714D01*
X005982Y007714D01*
X005982Y007316D01*
X006119Y007316D01*
X006302Y007499D01*
X006466Y007336D01*
X006819Y007336D01*
X006997Y007513D01*
X007174Y007336D01*
X007528Y007336D01*
X007778Y007586D01*
X007778Y007653D02*
X013333Y007653D01*
X013333Y007751D02*
X007778Y007751D01*
X007778Y007850D02*
X013333Y007850D01*
X013333Y007948D02*
X007769Y007948D01*
X007670Y008047D02*
X013333Y008047D01*
X013333Y008146D02*
X007572Y008146D01*
X007131Y008146D02*
X006863Y008146D01*
X006961Y008047D02*
X007032Y008047D01*
X006422Y008146D02*
X006183Y008146D01*
X006281Y008047D02*
X006323Y008047D01*
X005982Y008047D02*
X005885Y008047D01*
X005885Y008146D02*
X005982Y008146D01*
X005685Y008146D02*
X005446Y008146D01*
X005544Y008047D02*
X005586Y008047D01*
X005885Y007948D02*
X005982Y007948D01*
X005982Y007850D02*
X005885Y007850D01*
X005885Y007653D02*
X005982Y007653D01*
X005982Y007554D02*
X005885Y007554D01*
X005885Y007456D02*
X005982Y007456D01*
X005982Y007357D02*
X005885Y007357D01*
X005707Y007357D02*
X005423Y007357D01*
X005522Y007456D02*
X005609Y007456D01*
X005027Y007357D02*
X004715Y007357D01*
X004813Y007456D02*
X004928Y007456D01*
X005250Y007062D02*
X001940Y007062D01*
X001997Y007118D02*
X002063Y007276D01*
X002063Y007448D01*
X001997Y007606D01*
X001876Y007727D01*
X001718Y007792D01*
X001547Y007792D01*
X001389Y007727D01*
X001268Y007606D01*
X001203Y007448D01*
X001203Y007276D01*
X001268Y007118D01*
X001389Y006998D01*
X001547Y006932D01*
X001718Y006932D01*
X001876Y006998D01*
X001997Y007118D01*
X002014Y007160D02*
X009476Y007160D01*
X009524Y007259D02*
X002055Y007259D01*
X002063Y007357D02*
X004318Y007357D01*
X004220Y007456D02*
X002059Y007456D01*
X002018Y007554D02*
X004121Y007554D01*
X004090Y007653D02*
X001950Y007653D01*
X001816Y007751D02*
X004090Y007751D01*
X004090Y007850D02*
X000783Y007850D01*
X000783Y007948D02*
X004099Y007948D01*
X004197Y008047D02*
X000783Y008047D01*
X000783Y008146D02*
X002406Y008146D01*
X002408Y008144D02*
X002566Y008078D01*
X002737Y008078D01*
X002895Y008144D01*
X003016Y008265D01*
X003081Y008423D01*
X003081Y008594D01*
X003016Y008752D01*
X002895Y008873D01*
X002737Y008938D01*
X002566Y008938D01*
X002408Y008873D01*
X002287Y008752D01*
X002221Y008594D01*
X002221Y008423D01*
X002287Y008265D01*
X002408Y008144D01*
X002307Y008244D02*
X000783Y008244D01*
X000783Y008343D02*
X002254Y008343D01*
X002221Y008441D02*
X000783Y008441D01*
X000783Y008540D02*
X002221Y008540D01*
X002240Y008638D02*
X000783Y008638D01*
X000783Y008737D02*
X000810Y008737D01*
X001657Y008737D02*
X002280Y008737D01*
X002370Y008835D02*
X001828Y008835D01*
X001961Y008934D02*
X002555Y008934D01*
X002747Y008934D02*
X008496Y008934D01*
X008496Y008900D02*
X008769Y008627D01*
X008931Y008627D01*
X008931Y009062D01*
X008991Y009062D01*
X008991Y008627D01*
X009154Y008627D01*
X009426Y008900D01*
X009426Y009062D01*
X008991Y009062D01*
X008991Y009122D01*
X009426Y009122D01*
X009426Y009285D01*
X009154Y009557D01*
X008991Y009557D01*
X008991Y009122D01*
X008931Y009122D01*
X008931Y009062D01*
X008496Y009062D01*
X008496Y008900D01*
X008560Y008835D02*
X002932Y008835D01*
X003022Y008737D02*
X008659Y008737D01*
X008757Y008638D02*
X003063Y008638D01*
X003081Y008540D02*
X013333Y008540D01*
X013333Y008638D02*
X009165Y008638D01*
X009263Y008737D02*
X010687Y008737D01*
X010777Y008647D02*
X011145Y008647D01*
X011406Y008908D01*
X011406Y009276D01*
X011145Y009537D01*
X010777Y009537D01*
X010516Y009276D01*
X010516Y008908D01*
X010777Y008647D01*
X011235Y008737D02*
X013333Y008737D01*
X013333Y008835D02*
X011334Y008835D01*
X011406Y008934D02*
X013333Y008934D01*
X013333Y009032D02*
X012989Y009032D01*
X012987Y009031D02*
X013114Y009157D01*
X013183Y009323D01*
X013183Y009362D01*
X012783Y009362D01*
X012783Y009462D01*
X013183Y009462D01*
X013183Y009502D01*
X013114Y009667D01*
X012987Y009794D01*
X012822Y009862D01*
X012783Y009862D01*
X012783Y009462D01*
X012683Y009462D01*
X012683Y009862D01*
X012643Y009862D01*
X012478Y009794D01*
X012351Y009667D01*
X012283Y009502D01*
X012283Y009462D01*
X012682Y009462D01*
X012682Y009362D01*
X012283Y009362D01*
X012283Y009323D01*
X012351Y009157D01*
X012478Y009031D01*
X012643Y008962D01*
X012683Y008962D01*
X012683Y009362D01*
X012783Y009362D01*
X012783Y008962D01*
X012822Y008962D01*
X012987Y009031D01*
X013088Y009131D02*
X013333Y009131D01*
X013333Y009229D02*
X013144Y009229D01*
X013183Y009328D02*
X013303Y009328D01*
X013303Y009427D02*
X012783Y009427D01*
X012783Y009525D02*
X012683Y009525D01*
X012682Y009427D02*
X011256Y009427D01*
X011157Y009525D02*
X012292Y009525D01*
X012333Y009624D02*
X003090Y009624D01*
X003049Y009722D02*
X012406Y009722D01*
X012543Y009821D02*
X002975Y009821D01*
X002834Y009919D02*
X013333Y009919D01*
X013333Y009821D02*
X012922Y009821D01*
X012783Y009821D02*
X012683Y009821D01*
X012683Y009722D02*
X012783Y009722D01*
X012783Y009624D02*
X012683Y009624D01*
X013059Y009722D02*
X013333Y009722D01*
X013333Y009624D02*
X013132Y009624D01*
X013173Y009525D02*
X013314Y009525D01*
X012783Y009328D02*
X012683Y009328D01*
X012683Y009229D02*
X012783Y009229D01*
X012783Y009131D02*
X012683Y009131D01*
X012683Y009032D02*
X012783Y009032D01*
X012476Y009032D02*
X011406Y009032D01*
X011406Y009131D02*
X012377Y009131D01*
X012321Y009229D02*
X011406Y009229D01*
X011355Y009328D02*
X012283Y009328D01*
X010765Y009525D02*
X009186Y009525D01*
X009284Y009427D02*
X010666Y009427D01*
X010568Y009328D02*
X009383Y009328D01*
X009426Y009229D02*
X010516Y009229D01*
X010516Y009131D02*
X009426Y009131D01*
X009426Y009032D02*
X010516Y009032D01*
X010516Y008934D02*
X009426Y008934D01*
X009362Y008835D02*
X010589Y008835D01*
X008991Y008835D02*
X008931Y008835D01*
X008931Y008737D02*
X008991Y008737D01*
X008991Y008638D02*
X008931Y008638D01*
X008931Y008934D02*
X008991Y008934D01*
X008991Y009032D02*
X008931Y009032D01*
X008931Y009122D02*
X008496Y009122D01*
X008496Y009285D01*
X008769Y009557D01*
X008931Y009557D01*
X008931Y009122D01*
X008931Y009131D02*
X008991Y009131D01*
X008991Y009229D02*
X008931Y009229D01*
X008931Y009328D02*
X008991Y009328D01*
X008991Y009427D02*
X008931Y009427D01*
X008931Y009525D02*
X008991Y009525D01*
X008737Y009525D02*
X002701Y009525D01*
X002651Y009508D02*
X000833Y007690D01*
X000833Y005762D01*
X001233Y005362D01*
X001333Y005362D01*
X001196Y005485D02*
X000783Y005485D01*
X000783Y005583D02*
X001237Y005583D01*
X001316Y005682D02*
X000783Y005682D01*
X000783Y005780D02*
X001467Y005780D01*
X001583Y005780D02*
X001683Y005780D01*
X001683Y005682D02*
X001583Y005682D01*
X001583Y005583D02*
X001683Y005583D01*
X001683Y005485D02*
X001583Y005485D01*
X002028Y005583D02*
X005153Y005583D01*
X005153Y005485D02*
X002069Y005485D01*
X001949Y005682D02*
X005153Y005682D01*
X005153Y005780D02*
X001798Y005780D01*
X001718Y005932D02*
X001876Y005998D01*
X001997Y006118D01*
X002063Y006276D01*
X002063Y006448D01*
X001997Y006606D01*
X001876Y006727D01*
X001718Y006792D01*
X001547Y006792D01*
X001389Y006727D01*
X001268Y006606D01*
X001203Y006448D01*
X001203Y006276D01*
X001268Y006118D01*
X001389Y005998D01*
X001547Y005932D01*
X001718Y005932D01*
X001828Y005978D02*
X005153Y005978D01*
X005153Y006076D02*
X001955Y006076D01*
X002020Y006175D02*
X005153Y006175D01*
X005153Y006273D02*
X002061Y006273D01*
X002063Y006372D02*
X005153Y006372D01*
X005153Y006470D02*
X002053Y006470D01*
X002012Y006569D02*
X005090Y006569D01*
X005038Y006667D02*
X001935Y006667D01*
X001781Y006766D02*
X005024Y006766D01*
X005041Y006864D02*
X000783Y006864D01*
X000783Y006766D02*
X001484Y006766D01*
X001330Y006667D02*
X000783Y006667D01*
X000783Y006569D02*
X001253Y006569D01*
X001212Y006470D02*
X000783Y006470D01*
X000783Y006372D02*
X001203Y006372D01*
X001204Y006273D02*
X000783Y006273D01*
X000783Y006175D02*
X001245Y006175D01*
X001310Y006076D02*
X000783Y006076D01*
X000783Y005978D02*
X001437Y005978D01*
X000783Y005879D02*
X005153Y005879D01*
X005513Y006175D02*
X012053Y006175D01*
X012140Y006273D02*
X005513Y006273D01*
X005513Y006372D02*
X012179Y006372D01*
X012185Y006470D02*
X005513Y006470D01*
X005575Y006569D02*
X012226Y006569D01*
X012339Y006667D02*
X009492Y006667D01*
X009591Y006766D02*
X012951Y006766D01*
X012950Y006667D02*
X012636Y006667D01*
X012750Y006569D02*
X012948Y006569D01*
X012945Y006470D02*
X012790Y006470D01*
X012796Y006372D02*
X012943Y006372D01*
X013133Y006762D02*
X013083Y004762D01*
X013083Y003012D01*
X013533Y003062D02*
X013833Y002762D01*
X013833Y001262D01*
X012833Y001262D02*
X012833Y002762D01*
X012333Y003262D01*
X012333Y004512D01*
X012206Y004795D02*
X012127Y004795D01*
X011926Y004848D02*
X011926Y001356D01*
X011833Y001262D01*
X009833Y001262D02*
X009833Y002262D01*
X010633Y003063D01*
X010633Y004623D01*
X011926Y004848D02*
X012342Y005264D01*
X012342Y005264D01*
X013533Y005162D02*
X013533Y003062D01*
X009943Y002627D02*
X007722Y002627D01*
X007821Y002529D02*
X009845Y002529D01*
X009746Y002430D02*
X007919Y002430D01*
X008018Y002331D02*
X009653Y002331D01*
X009653Y002233D02*
X008116Y002233D01*
X008215Y002134D02*
X009653Y002134D01*
X009653Y002036D02*
X008313Y002036D01*
X008412Y001937D02*
X009653Y001937D01*
X009653Y001839D02*
X008510Y001839D01*
X008609Y001740D02*
X009653Y001740D01*
X009626Y001642D02*
X009040Y001642D01*
X009160Y001543D02*
X009506Y001543D01*
X009443Y001445D02*
X009222Y001445D01*
X009263Y001346D02*
X009403Y001346D01*
X009403Y001247D02*
X009263Y001247D01*
X009251Y001149D02*
X009414Y001149D01*
X009455Y001050D02*
X009299Y001050D01*
X009397Y000952D02*
X009535Y000952D01*
X009085Y000755D02*
X002210Y000755D01*
X002257Y000837D02*
X002332Y001117D01*
X002332Y001407D01*
X002257Y001687D01*
X002113Y001937D01*
X002014Y002036D02*
X007804Y002036D01*
X007706Y002134D02*
X001916Y002134D01*
X001751Y002233D02*
X007607Y002233D01*
X007509Y002331D02*
X001491Y002331D01*
X000974Y002331D02*
X000783Y002331D01*
X000783Y002430D02*
X007410Y002430D01*
X007130Y002529D02*
X000783Y002529D01*
X000783Y002627D02*
X007055Y002627D01*
X007024Y002726D02*
X000783Y002726D01*
X000783Y002824D02*
X007025Y002824D01*
X007065Y002923D02*
X000783Y002923D01*
X000783Y003021D02*
X001365Y003021D01*
X001267Y003120D02*
X000783Y003120D01*
X000783Y003218D02*
X001227Y003218D01*
X001203Y003317D02*
X000783Y003317D01*
X000783Y003415D02*
X001203Y003415D01*
X001230Y003514D02*
X000783Y003514D01*
X000783Y003613D02*
X001275Y003613D01*
X001374Y003711D02*
X000783Y003711D01*
X000783Y003810D02*
X005626Y003810D01*
X005724Y003908D02*
X000783Y003908D01*
X001892Y003711D02*
X005527Y003711D01*
X005429Y003613D02*
X001990Y003613D01*
X001633Y003362D02*
X005433Y003362D01*
X006333Y004262D01*
X006333Y004283D01*
X007076Y005026D01*
X006591Y004795D02*
X006120Y004795D01*
X006022Y004696D02*
X006492Y004696D01*
X006394Y004598D02*
X005923Y004598D01*
X005824Y004499D02*
X006295Y004499D01*
X006196Y004401D02*
X005726Y004401D01*
X005627Y004302D02*
X006118Y004302D01*
X006020Y004204D02*
X005529Y004204D01*
X005067Y004598D02*
X002000Y004598D01*
X001906Y004696D02*
X005026Y004696D01*
X005024Y004795D02*
X000783Y004795D01*
X000783Y006963D02*
X001472Y006963D01*
X001325Y007062D02*
X000783Y007062D01*
X000783Y007160D02*
X001251Y007160D01*
X001210Y007259D02*
X000783Y007259D01*
X000783Y007357D02*
X001203Y007357D01*
X001206Y007456D02*
X000783Y007456D01*
X000783Y007554D02*
X001247Y007554D01*
X001315Y007653D02*
X000783Y007653D01*
X000783Y007751D02*
X001449Y007751D01*
X002897Y008146D02*
X004296Y008146D01*
X004737Y008146D02*
X005005Y008146D01*
X004906Y008047D02*
X004836Y008047D01*
X006259Y007456D02*
X006346Y007456D01*
X006444Y007357D02*
X006160Y007357D01*
X006841Y007357D02*
X007153Y007357D01*
X007054Y007456D02*
X006939Y007456D01*
X007549Y007357D02*
X009538Y007357D01*
X009590Y007456D02*
X007648Y007456D01*
X009279Y006963D02*
X005568Y006963D01*
X005415Y007062D02*
X009378Y007062D01*
X009690Y006864D02*
X012969Y006864D01*
X013101Y006963D02*
X009917Y006963D01*
X010068Y007062D02*
X013223Y007062D01*
X013238Y007160D02*
X010124Y007160D01*
X013133Y006762D02*
X013533Y007062D01*
X013333Y008244D02*
X002995Y008244D01*
X003048Y008343D02*
X013333Y008343D01*
X013333Y008441D02*
X003081Y008441D01*
X002059Y009032D02*
X008496Y009032D01*
X008496Y009131D02*
X002910Y009131D01*
X003009Y009229D02*
X008496Y009229D01*
X008539Y009328D02*
X003064Y009328D01*
X003101Y009427D02*
X008638Y009427D01*
X013333Y010018D02*
X002304Y010018D01*
X002277Y010116D02*
X013333Y010116D01*
X013333Y010215D02*
X002242Y010215D01*
X002330Y009919D02*
X002468Y009919D01*
X002601Y009919D02*
X002701Y009919D01*
X002701Y009821D02*
X002601Y009821D01*
X002601Y009722D02*
X002701Y009722D01*
X002701Y009624D02*
X002601Y009624D01*
X002601Y009427D02*
X002701Y009427D01*
X002701Y009328D02*
X002601Y009328D01*
X002601Y009229D02*
X002701Y009229D01*
X002701Y009131D02*
X002601Y009131D01*
X002392Y009131D02*
X002139Y009131D01*
X002196Y009229D02*
X002293Y009229D01*
X001793Y006963D02*
X005097Y006963D01*
X007576Y001642D02*
X002269Y001642D01*
X002296Y001543D02*
X007477Y001543D01*
X007421Y001445D02*
X002322Y001445D01*
X002332Y001346D02*
X007383Y001346D01*
X007392Y001149D02*
X002332Y001149D01*
X002332Y001247D02*
X007782Y001247D01*
X007783Y001149D02*
X007883Y001149D01*
X007883Y001050D02*
X007783Y001050D01*
X007783Y000952D02*
X007883Y000952D01*
X007883Y000853D02*
X007783Y000853D01*
X007643Y000853D02*
X002262Y000853D01*
X002288Y000952D02*
X007506Y000952D01*
X007433Y001050D02*
X002314Y001050D01*
X007783Y001346D02*
X007883Y001346D01*
X007883Y001445D02*
X007783Y001445D01*
X007783Y001543D02*
X007883Y001543D01*
X007883Y001642D02*
X007783Y001642D01*
X008232Y001050D02*
X008455Y001050D01*
X008535Y000952D02*
X008159Y000952D01*
X008022Y000853D02*
X008696Y000853D01*
X008969Y000853D02*
X008987Y000853D01*
D17*
X007333Y002762D03*
X010633Y004623D03*
X012402Y005827D03*
X012488Y006395D03*
X009833Y007262D03*
X005333Y006762D03*
X005333Y004762D03*
D18*
X019357Y003972D03*
X020078Y003972D03*
X020865Y004453D03*
X020002Y004714D03*
X019471Y004714D03*
X019737Y005114D03*
X019718Y005856D03*
X019984Y006218D03*
X019452Y006218D03*
X020892Y006535D03*
X020097Y006922D03*
X019376Y006922D03*
X020865Y007412D03*
X020002Y007645D03*
X019452Y007645D03*
X019737Y008063D03*
X019699Y008805D03*
X019452Y009186D03*
X019984Y009167D03*
X021357Y009384D03*
X022333Y009262D03*
X022833Y008762D03*
X023333Y008262D03*
X024333Y008262D03*
X023833Y007762D03*
X024333Y007262D03*
X023333Y007262D03*
X022833Y007762D03*
X022333Y007262D03*
X021833Y007762D03*
X022333Y008262D03*
X021833Y008762D03*
X021193Y006974D03*
X021833Y006762D03*
X022833Y006762D03*
X023833Y006762D03*
X024333Y006262D03*
X023833Y005762D03*
X023333Y006262D03*
X022833Y005762D03*
X022333Y006262D03*
X021833Y005762D03*
X022333Y005262D03*
X022833Y004762D03*
X023333Y005262D03*
X023833Y004762D03*
X024333Y005262D03*
X024333Y004262D03*
X023833Y003762D03*
X023333Y004262D03*
X022833Y003762D03*
X022333Y004262D03*
X021833Y003762D03*
X021165Y003988D03*
X020837Y003467D03*
X019984Y003211D03*
X019452Y003211D03*
X019737Y002831D03*
X019756Y002070D03*
X020002Y001689D03*
X019471Y001708D03*
X021833Y001762D03*
X022333Y002262D03*
X022833Y001762D03*
X022833Y002762D03*
X023333Y003262D03*
X023833Y002762D03*
X024333Y003262D03*
X022333Y003262D03*
X021833Y002762D03*
X021833Y004762D03*
D19*
X017481Y005176D02*
X014733Y007862D01*
X014733Y009412D01*
X015733Y009412D02*
X015737Y009407D01*
X016187Y009407D01*
X017333Y008262D01*
X013733Y007862D02*
X017333Y004262D01*
X017333Y002762D01*
X005934Y007762D02*
X005934Y009407D01*
X005833Y009508D01*
X008079Y009508D01*
X008333Y009762D01*
X008833Y009762D01*
X008961Y009634D01*
X008961Y009092D01*
X008833Y009762D02*
X012383Y009762D01*
X012733Y009412D01*
X013733Y009412D02*
X013733Y007862D01*
X005833Y009508D02*
X002651Y009508D01*
M02*
