G75*
G70*
%OFA0B0*%
%FSLAX24Y24*%
%IPPOS*%
%LPD*%
%AMOC8*
5,1,8,0,0,1.08239X$1,22.5*
%
%ADD10C,0.0110*%
%ADD11C,0.0080*%
%ADD12C,0.0040*%
%ADD13C,0.0030*%
%ADD14C,0.0050*%
%ADD15C,0.0060*%
%ADD16C,0.0160*%
D10*
X002518Y003035D02*
X002419Y003133D01*
X002518Y003035D02*
X002715Y003035D01*
X002813Y003133D01*
X002813Y003330D01*
X002715Y003428D01*
X002616Y003428D01*
X002419Y003330D01*
X002419Y003625D01*
X002813Y003625D01*
X002715Y004035D02*
X002715Y004625D01*
X002419Y004330D01*
X002813Y004330D01*
X002715Y005035D02*
X002518Y005035D01*
X002419Y005133D01*
X002715Y005035D02*
X002813Y005133D01*
X002813Y005231D01*
X002715Y005330D01*
X002616Y005330D01*
X002715Y005330D02*
X002813Y005428D01*
X002813Y005527D01*
X002715Y005625D01*
X002518Y005625D01*
X002419Y005527D01*
X002419Y006085D02*
X002813Y006478D01*
X002813Y006577D01*
X002715Y006675D01*
X002518Y006675D01*
X002419Y006577D01*
X002419Y006085D02*
X002813Y006085D01*
X002813Y007085D02*
X002419Y007085D01*
X002616Y007085D02*
X002616Y007675D01*
X002419Y007478D01*
X008816Y009844D02*
X009210Y009844D01*
X010802Y009836D02*
X011196Y009836D01*
X010999Y010032D02*
X010999Y009639D01*
X008825Y002403D02*
X008825Y002010D01*
X008628Y002207D02*
X009022Y002207D01*
X007885Y002013D02*
X007885Y002407D01*
D11*
X001883Y002862D02*
X001383Y002862D01*
X001133Y003112D01*
X001133Y003612D01*
X001383Y003862D01*
X001133Y004112D01*
X001133Y004612D01*
X001383Y004862D01*
X001133Y005112D01*
X001133Y005612D01*
X001383Y005862D01*
X001133Y006112D01*
X001133Y006612D01*
X001383Y006862D01*
X001133Y007112D01*
X001133Y007612D01*
X001383Y007862D01*
X001883Y007862D01*
X002133Y007612D01*
X002133Y007112D01*
X001883Y006862D01*
X002133Y006612D01*
X002133Y006112D01*
X001883Y005862D01*
X002133Y005612D01*
X002133Y005112D01*
X001883Y004862D01*
X002133Y004612D01*
X002133Y004112D01*
X001883Y003862D01*
X002133Y003612D01*
X002133Y003112D01*
X001883Y002862D01*
X007333Y001512D02*
X007333Y001012D01*
X007583Y000762D01*
X008083Y000762D01*
X008333Y001012D01*
X008583Y000762D01*
X009083Y000762D01*
X009333Y001012D01*
X009583Y000762D01*
X010083Y000762D01*
X010333Y001012D01*
X010583Y000762D01*
X011083Y000762D01*
X011333Y001012D01*
X011583Y000762D01*
X012083Y000762D01*
X012333Y001012D01*
X012583Y000762D01*
X013083Y000762D01*
X013333Y001012D01*
X013583Y000762D01*
X014083Y000762D01*
X014333Y001012D01*
X014333Y001512D01*
X014083Y001762D01*
X013583Y001762D01*
X013333Y001512D01*
X013083Y001762D01*
X012583Y001762D01*
X012333Y001512D01*
X012083Y001762D01*
X011583Y001762D01*
X011333Y001512D01*
X011083Y001762D01*
X010583Y001762D01*
X010333Y001512D01*
X010083Y001762D01*
X009583Y001762D01*
X009333Y001512D01*
X009083Y001762D01*
X008583Y001762D01*
X008333Y001512D01*
X008083Y001762D01*
X007583Y001762D01*
X007333Y001512D01*
X016823Y000952D02*
X016903Y001032D01*
X017063Y001032D01*
X017143Y000952D01*
X017143Y000872D01*
X016823Y000552D01*
X017143Y000552D01*
X017338Y000792D02*
X017658Y000792D01*
X017854Y000632D02*
X017854Y000952D01*
X017934Y001032D01*
X018094Y001032D01*
X018174Y000952D01*
X017854Y000632D01*
X017934Y000552D01*
X018094Y000552D01*
X018174Y000632D01*
X018174Y000952D01*
X018369Y000952D02*
X018450Y001032D01*
X018610Y001032D01*
X018690Y000952D01*
X018690Y000872D01*
X018610Y000792D01*
X018690Y000712D01*
X018690Y000632D01*
X018610Y000552D01*
X018450Y000552D01*
X018369Y000632D01*
X018530Y000792D02*
X018610Y000792D01*
X018885Y000792D02*
X019205Y000792D01*
X019401Y000872D02*
X019561Y001032D01*
X019561Y000552D01*
X019401Y000552D02*
X019721Y000552D01*
X019916Y000632D02*
X020237Y000952D01*
X020237Y000632D01*
X020157Y000552D01*
X019996Y000552D01*
X019916Y000632D01*
X019916Y000952D01*
X019996Y001032D01*
X020157Y001032D01*
X020237Y000952D01*
X003151Y008258D02*
X002901Y008008D01*
X002401Y008008D01*
X002151Y008258D01*
X002151Y008758D01*
X002401Y009008D01*
X002151Y009258D01*
X002151Y009758D01*
X002401Y010008D01*
X002901Y010008D01*
X003151Y009758D01*
X003151Y009258D01*
X002901Y009008D01*
X003151Y008758D01*
X003151Y008258D01*
X012233Y009162D02*
X012233Y009662D01*
X012483Y009912D01*
X012983Y009912D01*
X013233Y009662D01*
X013483Y009912D01*
X013983Y009912D01*
X014233Y009662D01*
X014483Y009912D01*
X014983Y009912D01*
X015233Y009662D01*
X015483Y009912D01*
X015983Y009912D01*
X016233Y009662D01*
X016233Y009162D01*
X015983Y008912D01*
X015483Y008912D01*
X015233Y009162D01*
X014983Y008912D01*
X014483Y008912D01*
X014233Y009162D01*
X013983Y008912D01*
X013483Y008912D01*
X013233Y009162D01*
X012983Y008912D01*
X012483Y008912D01*
X012233Y009162D01*
X012682Y008732D02*
X012682Y008452D01*
X013472Y008502D02*
X013472Y008712D01*
X013542Y008782D01*
X013612Y008782D01*
X013682Y008712D01*
X013682Y008502D01*
X013472Y008502D02*
X013893Y008502D01*
X013893Y008712D01*
X013823Y008782D01*
X013752Y008782D01*
X013682Y008712D01*
X014522Y008662D02*
X014522Y008522D01*
X014592Y008452D01*
X014873Y008452D01*
X014943Y008522D01*
X014943Y008662D01*
X014873Y008732D01*
X014732Y008732D01*
X014732Y008592D01*
X014592Y008732D02*
X014522Y008662D01*
X015522Y008662D02*
X015522Y008452D01*
X015943Y008452D01*
X015802Y008452D02*
X015802Y008662D01*
X015732Y008732D01*
X015592Y008732D01*
X015522Y008662D01*
X015802Y008592D02*
X015943Y008732D01*
X017033Y010002D02*
X016953Y010082D01*
X016953Y010402D01*
X016873Y010322D02*
X017033Y010322D01*
X017216Y010322D02*
X017216Y010002D01*
X017216Y010162D02*
X017376Y010322D01*
X017457Y010322D01*
X017646Y010322D02*
X017726Y010322D01*
X017726Y010002D01*
X017646Y010002D02*
X017806Y010002D01*
X017990Y010082D02*
X018070Y010002D01*
X018310Y010002D01*
X018505Y010082D02*
X018585Y010002D01*
X018746Y010002D01*
X018826Y010082D01*
X018826Y010242D01*
X018746Y010322D01*
X018585Y010322D01*
X018505Y010242D01*
X018505Y010082D01*
X018310Y010322D02*
X018070Y010322D01*
X017990Y010242D01*
X017990Y010082D01*
X017726Y010482D02*
X017726Y010563D01*
X019021Y010482D02*
X019101Y010482D01*
X019101Y010002D01*
X019021Y010002D02*
X019181Y010002D01*
X019365Y010082D02*
X019445Y010002D01*
X019605Y010002D01*
X019685Y010082D01*
X019685Y010242D01*
X019605Y010322D01*
X019445Y010322D01*
X019365Y010242D01*
X019365Y010082D01*
X019880Y010002D02*
X019880Y010322D01*
X019880Y010162D02*
X020041Y010322D01*
X020121Y010322D01*
X020310Y009922D02*
X020630Y009922D01*
X020826Y010002D02*
X020826Y010322D01*
X020826Y010162D02*
X020986Y010322D01*
X021066Y010322D01*
X021255Y010242D02*
X021335Y010322D01*
X021496Y010322D01*
X021576Y010242D01*
X021576Y010162D01*
X021255Y010162D01*
X021255Y010082D02*
X021255Y010242D01*
X021255Y010082D02*
X021335Y010002D01*
X021496Y010002D01*
X021771Y010322D02*
X021931Y010002D01*
X022091Y010322D01*
X022287Y010242D02*
X022607Y010242D01*
X022527Y010482D02*
X022287Y010242D01*
X022527Y010002D02*
X022527Y010482D01*
D12*
X003480Y009982D02*
X003173Y009982D01*
X003347Y008182D02*
X003347Y007875D01*
X003194Y008029D02*
X003500Y008029D01*
D13*
X009698Y002655D02*
X009698Y002461D01*
X009698Y002558D02*
X009989Y002558D01*
X009940Y002360D02*
X009747Y002360D01*
X009698Y002312D01*
X009698Y002215D01*
X009747Y002167D01*
X009940Y002167D01*
X009989Y002215D01*
X009989Y002312D01*
X009940Y002360D01*
X009844Y002066D02*
X009892Y002017D01*
X009892Y001872D01*
X009989Y001872D02*
X009698Y001872D01*
X009698Y002017D01*
X009747Y002066D01*
X009844Y002066D01*
X010670Y002038D02*
X010670Y001893D01*
X010961Y001893D01*
X010864Y001893D02*
X010864Y002038D01*
X010816Y002086D01*
X010719Y002086D01*
X010670Y002038D01*
X010670Y002187D02*
X010670Y002333D01*
X010719Y002381D01*
X010767Y002381D01*
X010816Y002333D01*
X010816Y002187D01*
X010961Y002187D02*
X010961Y002333D01*
X010912Y002381D01*
X010864Y002381D01*
X010816Y002333D01*
X010912Y002482D02*
X010719Y002482D01*
X010670Y002530D01*
X010670Y002627D01*
X010719Y002676D01*
X010912Y002482D01*
X010961Y002530D01*
X010961Y002627D01*
X010912Y002676D01*
X010719Y002676D01*
X010670Y002187D02*
X010961Y002187D01*
X011705Y002059D02*
X011705Y001913D01*
X011995Y001913D01*
X011898Y001913D02*
X011898Y002059D01*
X011850Y002107D01*
X011753Y002107D01*
X011705Y002059D01*
X011898Y002010D02*
X011995Y002107D01*
X012656Y002038D02*
X012656Y001941D01*
X012705Y001893D01*
X012898Y001893D01*
X012947Y001941D01*
X012947Y002038D01*
X012898Y002086D01*
X012801Y002086D01*
X012801Y001990D01*
X012801Y002086D01*
X012898Y002086D01*
X012947Y002038D01*
X012947Y001941D01*
X012898Y001893D01*
X012705Y001893D01*
X012656Y001941D01*
X012656Y002038D01*
X012705Y002086D01*
X012656Y002038D01*
X013691Y002038D02*
X013691Y001893D01*
X013981Y001893D01*
X013981Y002038D01*
X013932Y002086D01*
X013884Y002086D01*
X013836Y002038D01*
X013836Y001893D01*
X013836Y002038D02*
X013787Y002086D01*
X013739Y002086D01*
X013691Y002038D01*
D14*
X019233Y001462D02*
X019233Y003462D01*
X020233Y003462D01*
X020233Y001462D01*
X019233Y001462D01*
X019233Y004462D02*
X019233Y006462D01*
X020233Y006462D01*
X020233Y004462D01*
X019233Y004462D01*
X019233Y007412D02*
X019233Y009412D01*
X020233Y009412D01*
X020233Y007412D01*
X019233Y007412D01*
X007764Y007566D02*
X007764Y007959D01*
X007548Y008176D01*
X007154Y008176D01*
X006997Y008018D01*
X006839Y008176D01*
X006446Y008176D01*
X006288Y008018D01*
X006131Y008176D01*
X005737Y008176D01*
X005579Y008018D01*
X005422Y008176D01*
X005028Y008176D01*
X004871Y008018D01*
X004713Y008176D01*
X004320Y008176D01*
X004103Y007959D01*
X004103Y007566D01*
X004320Y007349D01*
X004713Y007349D01*
X004871Y007507D01*
X005028Y007349D01*
X005422Y007349D01*
X005579Y007507D01*
X005737Y007349D01*
X006131Y007349D01*
X006288Y007507D01*
X006446Y007349D01*
X006839Y007349D01*
X006997Y007507D01*
X007154Y007349D01*
X007548Y007349D01*
X007764Y007566D01*
D15*
X008511Y007742D02*
X008511Y010442D01*
X008513Y010459D01*
X008517Y010476D01*
X008524Y010492D01*
X008534Y010506D01*
X008547Y010519D01*
X008561Y010529D01*
X008577Y010536D01*
X008594Y010540D01*
X008611Y010542D01*
X011311Y010542D01*
X011328Y010540D01*
X011345Y010536D01*
X011361Y010529D01*
X011375Y010519D01*
X011388Y010506D01*
X011398Y010492D01*
X011405Y010476D01*
X011409Y010459D01*
X011411Y010442D01*
X011411Y007742D01*
X011409Y007725D01*
X011405Y007708D01*
X011398Y007692D01*
X011388Y007678D01*
X011375Y007665D01*
X011361Y007655D01*
X011345Y007648D01*
X011328Y007644D01*
X011311Y007642D01*
X008611Y007642D01*
X008594Y007644D01*
X008577Y007648D01*
X008561Y007655D01*
X008547Y007665D01*
X008534Y007678D01*
X008524Y007692D01*
X008517Y007708D01*
X008513Y007725D01*
X008511Y007742D01*
X009361Y009092D02*
X009791Y009092D01*
X010141Y009092D02*
X010561Y009092D01*
X011996Y007930D02*
X011996Y007694D01*
X012469Y007694D02*
X012469Y007930D01*
X012846Y007930D02*
X012846Y007694D01*
X013319Y007694D02*
X013319Y007930D01*
X013746Y007930D02*
X013746Y007694D01*
X014219Y007694D02*
X014219Y007930D01*
X013984Y006809D02*
X011681Y006809D01*
X011681Y002715D01*
X013984Y002715D01*
X013984Y006809D01*
X011884Y006425D02*
X011886Y006451D01*
X011892Y006477D01*
X011901Y006502D01*
X011914Y006525D01*
X011930Y006546D01*
X011949Y006564D01*
X011971Y006580D01*
X011994Y006592D01*
X012019Y006600D01*
X012045Y006605D01*
X012072Y006606D01*
X012098Y006603D01*
X012123Y006596D01*
X012148Y006586D01*
X012170Y006572D01*
X012191Y006555D01*
X012208Y006536D01*
X012223Y006514D01*
X012234Y006490D01*
X012242Y006464D01*
X012246Y006438D01*
X012246Y006412D01*
X012242Y006386D01*
X012234Y006360D01*
X012223Y006336D01*
X012208Y006314D01*
X012191Y006295D01*
X012170Y006278D01*
X012148Y006264D01*
X012123Y006254D01*
X012098Y006247D01*
X012072Y006244D01*
X012045Y006245D01*
X012019Y006250D01*
X011994Y006258D01*
X011971Y006270D01*
X011949Y006286D01*
X011930Y006304D01*
X011914Y006325D01*
X011901Y006348D01*
X011892Y006373D01*
X011886Y006399D01*
X011884Y006425D01*
X015596Y003780D02*
X015596Y003544D01*
X016069Y003544D02*
X016069Y003780D01*
D16*
X010141Y008792D02*
X010141Y009092D01*
X010141Y009392D01*
X009791Y009392D02*
X009791Y009092D01*
X009791Y008792D01*
M02*
