G75*
G70*
%OFA0B0*%
%FSLAX24Y24*%
%IPPOS*%
%LPD*%
%AMOC8*
5,1,8,0,0,1.08239X$1,22.5*
%
%ADD10C,0.0080*%
%ADD11C,0.0050*%
D10*
X008901Y001301D02*
X008901Y003001D01*
X009708Y003351D02*
X010501Y003351D01*
X011301Y003001D02*
X011301Y001301D01*
X012103Y001122D02*
X012353Y001372D01*
X012853Y001372D01*
X013103Y001122D01*
X013353Y001372D01*
X013853Y001372D01*
X014103Y001122D01*
X014353Y001372D01*
X014853Y001372D01*
X015103Y001122D01*
X015353Y001372D01*
X015853Y001372D01*
X016103Y001122D01*
X016353Y001372D01*
X016853Y001372D01*
X017103Y001122D01*
X017353Y001372D01*
X017853Y001372D01*
X018103Y001122D01*
X018353Y001372D01*
X018853Y001372D01*
X019103Y001122D01*
X019103Y000622D01*
X018853Y000372D01*
X018353Y000372D01*
X018103Y000622D01*
X017853Y000372D01*
X017353Y000372D01*
X017103Y000622D01*
X016853Y000372D01*
X016353Y000372D01*
X016103Y000622D01*
X015853Y000372D01*
X015353Y000372D01*
X015103Y000622D01*
X014853Y000372D01*
X014353Y000372D01*
X014103Y000622D01*
X013853Y000372D01*
X013353Y000372D01*
X013103Y000622D01*
X012853Y000372D01*
X012353Y000372D01*
X012103Y000622D01*
X012103Y001122D01*
X010501Y000951D02*
X009696Y000951D01*
X013101Y001803D02*
X013351Y001553D01*
X013851Y001553D01*
X014101Y001803D01*
X014351Y001553D01*
X014851Y001553D01*
X015101Y001803D01*
X015351Y001553D01*
X015851Y001553D01*
X016101Y001803D01*
X016351Y001553D01*
X016851Y001553D01*
X017101Y001803D01*
X017101Y002303D01*
X016851Y002553D01*
X016351Y002553D01*
X016101Y002303D01*
X015851Y002553D01*
X015351Y002553D01*
X015101Y002303D01*
X014851Y002553D01*
X014351Y002553D01*
X014101Y002303D01*
X013851Y002553D01*
X013351Y002553D01*
X013101Y002303D01*
X013101Y001803D01*
X009401Y002151D02*
X009403Y002203D01*
X009409Y002255D01*
X009419Y002307D01*
X009432Y002357D01*
X009449Y002407D01*
X009470Y002455D01*
X009495Y002501D01*
X009523Y002545D01*
X009554Y002587D01*
X009588Y002627D01*
X009625Y002664D01*
X009665Y002698D01*
X009707Y002729D01*
X009751Y002757D01*
X009797Y002782D01*
X009845Y002803D01*
X009895Y002820D01*
X009945Y002833D01*
X009997Y002843D01*
X010049Y002849D01*
X010101Y002851D01*
X010153Y002849D01*
X010205Y002843D01*
X010257Y002833D01*
X010307Y002820D01*
X010357Y002803D01*
X010405Y002782D01*
X010451Y002757D01*
X010495Y002729D01*
X010537Y002698D01*
X010577Y002664D01*
X010614Y002627D01*
X010648Y002587D01*
X010679Y002545D01*
X010707Y002501D01*
X010732Y002455D01*
X010753Y002407D01*
X010770Y002357D01*
X010783Y002307D01*
X010793Y002255D01*
X010799Y002203D01*
X010801Y002151D01*
X010799Y002099D01*
X010793Y002047D01*
X010783Y001995D01*
X010770Y001945D01*
X010753Y001895D01*
X010732Y001847D01*
X010707Y001801D01*
X010679Y001757D01*
X010648Y001715D01*
X010614Y001675D01*
X010577Y001638D01*
X010537Y001604D01*
X010495Y001573D01*
X010451Y001545D01*
X010405Y001520D01*
X010357Y001499D01*
X010307Y001482D01*
X010257Y001469D01*
X010205Y001459D01*
X010153Y001453D01*
X010101Y001451D01*
X010049Y001453D01*
X009997Y001459D01*
X009945Y001469D01*
X009895Y001482D01*
X009845Y001499D01*
X009797Y001520D01*
X009751Y001545D01*
X009707Y001573D01*
X009665Y001604D01*
X009625Y001638D01*
X009588Y001675D01*
X009554Y001715D01*
X009523Y001757D01*
X009495Y001801D01*
X009470Y001847D01*
X009449Y001895D01*
X009432Y001945D01*
X009419Y001995D01*
X009409Y002047D01*
X009403Y002099D01*
X009401Y002151D01*
D11*
X003329Y003923D02*
X003329Y000380D01*
X006872Y000380D01*
X006872Y003923D01*
X003329Y003923D01*
M02*
