%
M48
M72
T01C0.0197
T02C0.0394
T03C0.0400
T04C0.1300
%
T01
X4589Y2817
X6552Y3844
X7522Y5094
X8552Y4874
X8542Y3894
X10017Y1137
X14111Y2786
X17592Y3714
X18092Y3714
X18592Y3714
X19092Y3714
X19592Y3714
X20092Y3714
X20592Y3714
X20592Y3214
X20092Y3214
X19592Y3214
X20092Y2714
X20592Y2714
X20092Y2214
X18194Y2443
X18194Y2895
X17724Y2901
X17724Y2443
X17724Y1979
X18194Y1979
X18221Y4982
X17782Y4997
X17773Y5506
X18227Y5502
X18230Y5980
X17782Y5989
X17592Y6714
X18092Y6714
X18592Y6714
X19092Y6714
X19592Y6714
X20092Y6714
X20592Y6714
X20592Y6214
X20092Y6214
X20092Y5714
X20592Y5714
X20592Y5214
X20092Y5214
X18206Y7943
X18206Y8402
X18206Y8402
X17724Y8396
X17737Y7943
X17726Y8860
X18206Y8860
X19592Y9214
X20092Y9214
X20592Y9214
X20592Y8714
X20092Y8714
X20092Y8214
X20592Y8214
X18194Y12729
X17724Y12729
X17724Y13193
X17724Y13651
X18194Y13645
X18194Y13193
X18092Y14464
X18592Y14464
X19092Y14464
X19592Y14464
X20092Y14464
X20592Y14464
X20592Y13964
X20092Y13964
X19592Y13964
X20092Y13464
X20592Y13464
X20092Y12964
X17592Y14464
X17782Y15747
X18221Y15732
X18227Y16252
X17773Y16256
X17782Y16739
X18230Y16730
X18092Y17464
X18592Y17464
X19092Y17464
X19592Y17464
X20092Y17464
X20592Y17464
X20592Y16964
X20092Y16964
X20092Y16464
X20592Y16464
X20592Y15964
X20092Y15964
X17592Y17464
X17737Y18693
X17724Y19146
X17726Y19610
X18206Y19610
X18206Y19152
X18206Y19152
X18206Y18693
X19592Y19964
X20092Y19964
X20592Y19964
X20592Y19464
X20092Y19464
X20092Y18964
X20592Y18964
X18194Y23479
X17724Y23479
X17724Y23943
X17724Y24401
X18194Y24395
X18194Y23943
X18092Y25214
X18592Y25214
X19092Y25214
X19592Y25214
X20092Y25214
X20592Y25214
X20592Y24714
X20092Y24714
X19592Y24714
X20092Y24214
X20592Y24214
X20092Y23714
X17592Y25214
X17782Y26497
X18221Y26482
X18227Y27002
X17773Y27006
X17782Y27489
X18230Y27480
X18092Y28214
X18592Y28214
X19092Y28214
X19592Y28214
X20092Y28214
X20592Y28214
X20592Y27714
X20092Y27714
X20092Y27214
X20592Y27214
X20592Y26714
X20092Y26714
X17592Y28214
X17737Y29443
X17724Y29896
X17726Y30360
X18206Y30360
X18206Y29902
X18206Y29902
X18206Y29443
X19592Y30714
X20092Y30714
X20592Y30714
X20592Y30214
X20092Y30214
X20092Y29714
X20592Y29714
X14111Y24286
X10017Y22637
X8542Y25394
X8552Y26374
X7522Y26594
X6552Y25344
X4883Y26286
X4589Y24317
X10476Y28938
X10862Y28134
X10476Y18188
X10862Y17384
X8552Y15624
X8542Y14644
X7522Y15844
X6552Y14594
X4883Y15536
X4589Y13567
X10017Y11887
X14111Y13536
X10476Y7438
X10862Y6634
X4883Y4786
X27646Y17898
X28110Y17895
X28563Y17908
X28563Y18377
X28104Y18377
X28104Y18377
X27646Y18377
X27292Y19763
X27292Y20263
X27792Y20263
X28292Y20263
X28292Y20763
X27792Y20763
X27292Y20763
X29792Y20763
X30292Y20763
X30792Y20763
X31292Y20763
X31292Y20263
X30792Y20263
X30292Y20263
X29792Y20263
X29792Y19763
X29792Y19263
X29792Y18763
X29792Y18263
X29792Y17763
X30517Y17953
X31000Y17945
X31509Y17953
X31524Y18393
X31004Y18398
X30526Y18401
X32792Y18263
X32792Y17763
X33605Y17895
X34063Y17895
X34527Y17895
X34527Y18365
X34063Y18365
X33611Y18365
X32792Y18763
X32792Y19263
X32792Y19763
X32792Y20263
X33292Y20263
X33292Y19763
X33792Y20263
X34292Y20263
X33792Y20763
X33292Y20763
X32792Y20763
X33719Y14283
X29872Y11033
X29068Y10647
X31632Y8723
X32612Y8713
X31412Y7693
X32662Y6723
X31719Y5054
X33689Y4761
X35369Y10188
T02
X28060Y7543
X28060Y6835
X28060Y6126
X28060Y5417
X28060Y4709
X7372Y8446
X6663Y8446
X5955Y8446
X5246Y8446
X4537Y8446
X4537Y19196
X5246Y19196
X5955Y19196
X6663Y19196
X7372Y19196
X7372Y29946
X6663Y29946
X5955Y29946
X5246Y29946
X4537Y29946
T03
X4605Y31566
X3605Y31566
X1531Y29082
X1531Y28082
X1531Y27082
X1531Y26082
X1531Y25082
X3605Y20816
X4605Y20816
X1531Y18332
X1531Y17332
X1531Y16332
X1531Y15332
X1531Y14332
X3605Y10066
X4605Y10066
X1531Y7582
X1531Y6582
X1531Y5582
X1531Y4582
X1531Y3582
X26440Y3777
X26440Y4777
X28924Y1702
X29924Y1702
X30924Y1702
X31924Y1702
X32924Y1702
T04
X1231Y1464
X1232Y9964
X1231Y12214
X1232Y20714
X1231Y22964
X1232Y31464
X24332Y31464
X26542Y24503
X24332Y22964
X24332Y20714
X24332Y12214
X24332Y9964
X24332Y1464
X26542Y1404
X35042Y1403
X35042Y24503
M30
