%
M48
M72
T01C0.0197
T02C0.0199
T03C0.0394
T04C0.0400
T05C0.1300
%
T01
X6553Y3612
X8543Y3662
X8553Y4642
X7523Y4862
X10863Y6402
X10477Y7206
X17593Y6482
X18093Y6482
X18593Y6482
X19093Y6482
X19593Y6482
X20093Y6482
X20593Y6482
X20593Y5982
X20093Y5982
X20093Y5482
X20593Y5482
X20593Y4982
X20093Y4982
X18222Y4750
X17783Y4765
X17774Y5274
X18228Y5270
X18231Y5748
X17783Y5757
X17738Y7712
X18207Y7711
X18207Y8170
X18207Y8170
X17725Y8164
X17727Y8628
X18207Y8628
X19593Y8982
X20093Y8982
X20593Y8982
X20593Y8482
X20093Y8482
X20093Y7982
X20593Y7982
X20593Y3482
X20093Y3482
X19593Y3482
X19093Y3482
X18593Y3482
X18093Y3482
X17593Y3482
X17725Y2669
X18195Y2663
X18195Y2211
X17725Y2212
X17725Y1748
X18195Y1747
X20093Y1982
X20093Y2482
X20593Y2482
X20593Y2982
X20093Y2982
X19593Y2982
X14112Y2555
T02
X10151Y980
X4903Y4559
T03
X5247Y8214
X5956Y8214
X6664Y8214
X7373Y8214
X4538Y8214
T04
X1533Y7432
X1533Y6432
X1533Y5432
X1533Y4432
X1533Y3432
X3606Y9834
X4606Y9834
T05
X1232Y1232
X1233Y9732
X24333Y9732
X24333Y1232
M30
