G75*
G70*
%OFA0B0*%
%FSLAX24Y24*%
%IPPOS*%
%LPD*%
%AMOC8*
5,1,8,0,0,1.08239X$1,22.5*
%
%ADD10R,0.0512X0.0630*%
%ADD11C,0.0600*%
%ADD12OC8,0.0594*%
%ADD13R,0.0630X0.0512*%
%ADD14OC8,0.0357*%
%ADD15C,0.0100*%
%ADD16C,0.0357*%
%ADD17C,0.0320*%
%ADD18C,0.0120*%
D10*
X005518Y002834D03*
X006266Y002834D03*
X006541Y004792D03*
X005793Y004792D03*
X006019Y006920D03*
X006767Y006920D03*
X006266Y013584D03*
X005518Y013584D03*
X005793Y015542D03*
X006541Y015542D03*
X006767Y017670D03*
X006019Y017670D03*
X006266Y024334D03*
X005518Y024334D03*
X005793Y026292D03*
X006541Y026292D03*
X006767Y028420D03*
X006019Y028420D03*
D11*
X004605Y031566D03*
X003605Y031566D03*
X001531Y029082D03*
X001531Y028082D03*
X001531Y027082D03*
X001531Y026082D03*
X001531Y025082D03*
X003605Y020816D03*
X004605Y020816D03*
X001531Y018332D03*
X001531Y017332D03*
X001531Y016332D03*
X001531Y015332D03*
X001531Y014332D03*
X003605Y010066D03*
X004605Y010066D03*
X001531Y007582D03*
X001531Y006582D03*
X001531Y005582D03*
X001531Y004582D03*
X001531Y003582D03*
X026440Y003777D03*
X026440Y004777D03*
X028924Y001702D03*
X029924Y001702D03*
X030924Y001702D03*
X031924Y001702D03*
X032924Y001702D03*
D12*
X028060Y004709D03*
X028060Y005417D03*
X028060Y006126D03*
X028060Y006835D03*
X028060Y007543D03*
X007372Y008446D03*
X006663Y008446D03*
X005955Y008446D03*
X005246Y008446D03*
X004537Y008446D03*
X004537Y019196D03*
X005246Y019196D03*
X005955Y019196D03*
X006663Y019196D03*
X007372Y019196D03*
X007372Y029946D03*
X006663Y029946D03*
X005955Y029946D03*
X005246Y029946D03*
X004537Y029946D03*
D13*
X029586Y006938D03*
X029586Y006190D03*
X031714Y005965D03*
X031714Y006713D03*
X033672Y006437D03*
X033672Y005689D03*
D14*
X020592Y005714D03*
X020092Y005714D03*
X020092Y006214D03*
X020092Y006714D03*
X020592Y006714D03*
X020592Y006214D03*
X019592Y006714D03*
X019092Y006714D03*
X018592Y006714D03*
X018092Y006714D03*
X017592Y006714D03*
X017782Y005989D03*
X018230Y005980D03*
X018227Y005502D03*
X017773Y005506D03*
X017782Y004997D03*
X018221Y004982D03*
X018092Y003714D03*
X018592Y003714D03*
X019092Y003714D03*
X019592Y003714D03*
X020092Y003714D03*
X020592Y003714D03*
X020592Y003214D03*
X020092Y003214D03*
X019592Y003214D03*
X020092Y002714D03*
X020592Y002714D03*
X020092Y002214D03*
X018194Y002443D03*
X018194Y002895D03*
X017724Y002901D03*
X017724Y002443D03*
X017724Y001979D03*
X018194Y001979D03*
X017592Y003714D03*
X020092Y005214D03*
X020592Y005214D03*
X018206Y007943D03*
X018206Y008402D03*
X018206Y008402D03*
X017724Y008396D03*
X017737Y007943D03*
X017726Y008860D03*
X018206Y008860D03*
X019592Y009214D03*
X020092Y009214D03*
X020592Y009214D03*
X020592Y008714D03*
X020092Y008714D03*
X020092Y008214D03*
X020592Y008214D03*
X018194Y012729D03*
X017724Y012729D03*
X017724Y013193D03*
X017724Y013651D03*
X018194Y013645D03*
X018194Y013193D03*
X018092Y014464D03*
X018592Y014464D03*
X019092Y014464D03*
X019592Y014464D03*
X020092Y014464D03*
X020592Y014464D03*
X020592Y013964D03*
X020092Y013964D03*
X019592Y013964D03*
X020092Y013464D03*
X020592Y013464D03*
X020092Y012964D03*
X017592Y014464D03*
X017782Y015747D03*
X018221Y015732D03*
X018227Y016252D03*
X017773Y016256D03*
X017782Y016739D03*
X018230Y016730D03*
X018092Y017464D03*
X018592Y017464D03*
X019092Y017464D03*
X019592Y017464D03*
X020092Y017464D03*
X020592Y017464D03*
X020592Y016964D03*
X020092Y016964D03*
X020092Y016464D03*
X020592Y016464D03*
X020592Y015964D03*
X020092Y015964D03*
X017592Y017464D03*
X017737Y018693D03*
X017724Y019146D03*
X017726Y019610D03*
X018206Y019610D03*
X018206Y019152D03*
X018206Y019152D03*
X018206Y018693D03*
X019592Y019964D03*
X020092Y019964D03*
X020592Y019964D03*
X020592Y019464D03*
X020092Y019464D03*
X020092Y018964D03*
X020592Y018964D03*
X018194Y023479D03*
X017724Y023479D03*
X017724Y023943D03*
X017724Y024401D03*
X018194Y024395D03*
X018194Y023943D03*
X018092Y025214D03*
X018592Y025214D03*
X019092Y025214D03*
X019592Y025214D03*
X020092Y025214D03*
X020592Y025214D03*
X020592Y024714D03*
X020092Y024714D03*
X019592Y024714D03*
X020092Y024214D03*
X020592Y024214D03*
X020092Y023714D03*
X017592Y025214D03*
X017782Y026497D03*
X018221Y026482D03*
X018227Y027002D03*
X017773Y027006D03*
X017782Y027489D03*
X018230Y027480D03*
X018092Y028214D03*
X018592Y028214D03*
X019092Y028214D03*
X019592Y028214D03*
X020092Y028214D03*
X020592Y028214D03*
X020592Y027714D03*
X020092Y027714D03*
X020092Y027214D03*
X020592Y027214D03*
X020592Y026714D03*
X020092Y026714D03*
X017592Y028214D03*
X017737Y029443D03*
X017724Y029896D03*
X017726Y030360D03*
X018206Y030360D03*
X018206Y029902D03*
X018206Y029902D03*
X018206Y029443D03*
X019592Y030714D03*
X020092Y030714D03*
X020592Y030714D03*
X020592Y030214D03*
X020092Y030214D03*
X020092Y029714D03*
X020592Y029714D03*
X027292Y020763D03*
X027792Y020763D03*
X028292Y020763D03*
X028292Y020263D03*
X027792Y020263D03*
X027292Y020263D03*
X027292Y019763D03*
X027646Y018377D03*
X028104Y018377D03*
X028104Y018377D03*
X028563Y018377D03*
X028563Y017908D03*
X028110Y017895D03*
X027646Y017898D03*
X029792Y017763D03*
X029792Y018263D03*
X029792Y018763D03*
X029792Y019263D03*
X029792Y019763D03*
X029792Y020263D03*
X030292Y020263D03*
X030792Y020263D03*
X031292Y020263D03*
X031292Y020763D03*
X030792Y020763D03*
X030292Y020763D03*
X029792Y020763D03*
X030526Y018401D03*
X031004Y018398D03*
X031524Y018393D03*
X031509Y017953D03*
X031000Y017945D03*
X030517Y017953D03*
X032792Y017763D03*
X032792Y018263D03*
X032792Y018763D03*
X032792Y019263D03*
X032792Y019763D03*
X032792Y020263D03*
X033292Y020263D03*
X033292Y019763D03*
X033792Y020263D03*
X034292Y020263D03*
X033792Y020763D03*
X033292Y020763D03*
X032792Y020763D03*
X033611Y018365D03*
X034063Y018365D03*
X034527Y018365D03*
X034527Y017895D03*
X034063Y017895D03*
X033605Y017895D03*
D15*
X002256Y001039D02*
X002230Y000994D01*
X009699Y000994D01*
X009668Y001068D01*
X009668Y001206D01*
X009721Y001335D01*
X009819Y001433D01*
X009948Y001486D01*
X010086Y001486D01*
X010214Y001433D01*
X010290Y001357D01*
X013330Y001357D01*
X013312Y010461D01*
X004873Y010462D01*
X004936Y010400D01*
X006224Y010400D01*
X006345Y010350D01*
X006438Y010257D01*
X006951Y009744D01*
X007002Y009622D01*
X007002Y009491D01*
X007002Y008768D01*
X007018Y008752D01*
X007179Y008913D01*
X007565Y008913D01*
X007839Y008639D01*
X007839Y008253D01*
X007565Y007979D01*
X007179Y007979D01*
X007018Y008140D01*
X006857Y007979D01*
X006470Y007979D01*
X006295Y008154D01*
X006140Y007999D01*
X006003Y007999D01*
X006003Y008397D01*
X005906Y008397D01*
X005906Y007999D01*
X005770Y007999D01*
X005614Y008154D01*
X005439Y007979D01*
X005053Y007979D01*
X004892Y008140D01*
X004756Y008005D01*
X004756Y007619D01*
X005235Y007140D01*
X005593Y007140D01*
X005593Y007305D01*
X005692Y007405D01*
X006345Y007405D01*
X006407Y007343D01*
X006419Y007355D01*
X006453Y007375D01*
X006491Y007385D01*
X006717Y007385D01*
X006717Y006970D01*
X006817Y006970D01*
X007173Y006970D01*
X007173Y007255D01*
X007162Y007293D01*
X007143Y007327D01*
X007115Y007355D01*
X007081Y007375D01*
X007042Y007385D01*
X006817Y007385D01*
X006817Y006970D01*
X006817Y006870D01*
X007173Y006870D01*
X007173Y006585D01*
X007162Y006547D01*
X007143Y006513D01*
X007115Y006485D01*
X007108Y006481D01*
X007427Y006487D01*
X007427Y006570D01*
X008372Y007515D01*
X008372Y007525D01*
X008375Y007529D01*
X008504Y007658D01*
X010203Y007658D01*
X010278Y007733D01*
X010407Y007786D01*
X010545Y007786D01*
X010673Y007733D01*
X010771Y007635D01*
X010824Y007507D01*
X010824Y007369D01*
X010771Y007240D01*
X010673Y007142D01*
X010545Y007089D01*
X010407Y007089D01*
X010278Y007142D01*
X010203Y007218D01*
X008697Y007218D01*
X008683Y007204D01*
X007867Y006388D01*
X007867Y006273D01*
X007867Y006254D01*
X010171Y006254D01*
X010513Y006596D01*
X010513Y006703D01*
X010566Y006831D01*
X010664Y006929D01*
X010792Y006982D01*
X010931Y006982D01*
X011059Y006929D01*
X011157Y006831D01*
X011210Y006703D01*
X011210Y006564D01*
X011157Y006436D01*
X011059Y006338D01*
X010931Y006285D01*
X010824Y006285D01*
X010353Y005814D01*
X010171Y005814D01*
X004743Y005814D01*
X002422Y003492D01*
X002293Y003364D01*
X001949Y003364D01*
X001929Y003316D01*
X001797Y003184D01*
X001624Y003112D01*
X001508Y003112D01*
X002426Y002194D01*
X005929Y002213D01*
X006034Y002318D01*
X006034Y002349D01*
X005939Y002349D01*
X005892Y002396D01*
X005844Y002349D01*
X005191Y002349D01*
X005092Y002448D01*
X005092Y002614D01*
X004879Y002614D01*
X004787Y002521D01*
X004659Y002468D01*
X004520Y002468D01*
X004392Y002521D01*
X004294Y002619D01*
X004241Y002747D01*
X004241Y002886D01*
X004294Y003014D01*
X004392Y003112D01*
X004520Y003165D01*
X004659Y003165D01*
X004787Y003112D01*
X004845Y003054D01*
X005092Y003054D01*
X005092Y003219D01*
X005191Y003319D01*
X005292Y003319D01*
X005292Y003492D01*
X005292Y003675D01*
X005572Y003955D01*
X005572Y004307D01*
X003236Y004307D01*
X003334Y004405D02*
X005369Y004405D01*
X005367Y004407D02*
X005467Y004307D01*
X005572Y004307D01*
X005572Y004208D02*
X003137Y004208D01*
X003039Y004110D02*
X005572Y004110D01*
X005572Y004011D02*
X002940Y004011D01*
X002842Y003913D02*
X005530Y003913D01*
X005431Y003814D02*
X002743Y003814D01*
X002645Y003716D02*
X005332Y003716D01*
X005292Y003617D02*
X002546Y003617D01*
X002448Y003518D02*
X005292Y003518D01*
X005292Y003420D02*
X002349Y003420D01*
X002202Y003584D02*
X001532Y003584D01*
X001531Y003582D01*
X001836Y003223D02*
X005096Y003223D01*
X005092Y003124D02*
X004757Y003124D01*
X004606Y002834D02*
X005502Y002834D01*
X005512Y002824D01*
X005512Y003584D01*
X005792Y003864D01*
X005792Y004791D01*
X005793Y004792D01*
X005787Y004786D01*
X004883Y004786D01*
X004534Y004800D02*
X003729Y004800D01*
X003827Y004898D02*
X004552Y004898D01*
X004534Y004856D02*
X004534Y004717D01*
X004587Y004589D01*
X004685Y004491D01*
X004814Y004438D01*
X004952Y004438D01*
X005080Y004491D01*
X005156Y004566D01*
X005367Y004566D01*
X005367Y004407D01*
X005367Y004504D02*
X005093Y004504D01*
X004673Y004504D02*
X003433Y004504D01*
X003532Y004602D02*
X004582Y004602D01*
X004541Y004701D02*
X003630Y004701D01*
X003926Y004997D02*
X004600Y004997D01*
X004587Y004984D02*
X004534Y004856D01*
X004587Y004984D02*
X004685Y005082D01*
X004814Y005135D01*
X004952Y005135D01*
X005080Y005082D01*
X005156Y005006D01*
X005367Y005006D01*
X005367Y005178D01*
X005467Y005277D01*
X006120Y005277D01*
X006167Y005229D01*
X006215Y005277D01*
X006868Y005277D01*
X006967Y005178D01*
X006967Y004407D01*
X006868Y004307D01*
X006761Y004307D01*
X007312Y004307D01*
X007312Y004405D02*
X006966Y004405D01*
X006967Y004504D02*
X007312Y004504D01*
X007312Y004602D02*
X006967Y004602D01*
X006967Y004701D02*
X007312Y004701D01*
X007312Y004800D02*
X006967Y004800D01*
X006967Y004898D02*
X007225Y004898D01*
X007226Y004896D02*
X007312Y004811D01*
X007312Y003535D01*
X006831Y003054D01*
X006692Y003054D01*
X006692Y003219D01*
X006592Y003319D01*
X005939Y003319D01*
X005892Y003271D01*
X005844Y003319D01*
X005732Y003319D01*
X005732Y003492D01*
X005883Y003644D01*
X006012Y003772D01*
X006012Y004307D01*
X006321Y004307D01*
X006321Y004106D01*
X006256Y004041D01*
X006203Y003913D01*
X006203Y003774D01*
X006256Y003646D01*
X006354Y003548D01*
X006482Y003495D01*
X006621Y003495D01*
X006749Y003548D01*
X006847Y003646D01*
X006900Y003774D01*
X006900Y003913D01*
X006847Y004041D01*
X006761Y004127D01*
X006761Y004307D01*
X006761Y004208D02*
X007312Y004208D01*
X007312Y004110D02*
X006778Y004110D01*
X006859Y004011D02*
X007312Y004011D01*
X007312Y003913D02*
X006900Y003913D01*
X006900Y003814D02*
X007312Y003814D01*
X007312Y003716D02*
X006876Y003716D01*
X006818Y003617D02*
X007312Y003617D01*
X007295Y003518D02*
X006677Y003518D01*
X006426Y003518D02*
X005758Y003518D01*
X005732Y003420D02*
X007197Y003420D01*
X007098Y003321D02*
X005732Y003321D01*
X005856Y003617D02*
X006285Y003617D01*
X006228Y003716D02*
X005955Y003716D01*
X006012Y003814D02*
X006203Y003814D01*
X006203Y003913D02*
X006012Y003913D01*
X006012Y004011D02*
X006244Y004011D01*
X006321Y004110D02*
X006012Y004110D01*
X006012Y004208D02*
X006321Y004208D01*
X006321Y004307D02*
X006215Y004307D01*
X006167Y004355D01*
X006120Y004307D01*
X006012Y004307D01*
X006541Y003854D02*
X006552Y003844D01*
X006541Y003854D02*
X006541Y004792D01*
X006967Y004997D02*
X007185Y004997D01*
X007173Y005024D02*
X007226Y004896D01*
X007173Y005024D02*
X007173Y005163D01*
X007226Y005291D01*
X007324Y005389D01*
X007452Y005442D01*
X007591Y005442D01*
X007719Y005389D01*
X007817Y005291D01*
X007870Y005163D01*
X007870Y005024D01*
X007817Y004896D01*
X007752Y004831D01*
X007752Y003352D01*
X007623Y003224D01*
X007013Y002614D01*
X006831Y002614D01*
X006692Y002614D01*
X006692Y002448D01*
X006592Y002349D01*
X006494Y002349D01*
X006494Y002128D01*
X006360Y001993D01*
X006316Y001950D01*
X006316Y001935D01*
X006205Y001824D01*
X006137Y001754D01*
X006136Y001754D01*
X006136Y001754D01*
X006042Y001754D01*
X002427Y001734D01*
X002427Y001734D01*
X002335Y001734D01*
X002298Y001733D01*
X002331Y001608D01*
X002331Y001319D01*
X002256Y001039D01*
X002261Y001055D02*
X009674Y001055D01*
X009668Y001153D02*
X002287Y001153D01*
X002314Y001252D02*
X009687Y001252D01*
X009737Y001351D02*
X002331Y001351D01*
X002331Y001449D02*
X009859Y001449D01*
X010174Y001449D02*
X013330Y001449D01*
X013330Y001548D02*
X002331Y001548D01*
X002321Y001646D02*
X013330Y001646D01*
X013330Y001745D02*
X004384Y001745D01*
X004380Y002533D02*
X002087Y002533D01*
X001989Y002632D02*
X004289Y002632D01*
X004248Y002730D02*
X001890Y002730D01*
X001792Y002829D02*
X004241Y002829D01*
X004258Y002927D02*
X001693Y002927D01*
X001595Y003026D02*
X004306Y003026D01*
X004421Y003124D02*
X001654Y003124D01*
X001931Y003321D02*
X005292Y003321D01*
X005502Y002834D02*
X005518Y002834D01*
X005092Y002533D02*
X004798Y002533D01*
X005105Y002434D02*
X002186Y002434D01*
X002284Y002336D02*
X006034Y002336D01*
X005953Y002237D02*
X002383Y002237D01*
X002202Y003584D02*
X004652Y006034D01*
X010262Y006034D01*
X010862Y006634D01*
X011182Y006770D02*
X013319Y006770D01*
X013320Y006672D02*
X011210Y006672D01*
X011210Y006573D02*
X013320Y006573D01*
X013320Y006475D02*
X011173Y006475D01*
X011097Y006376D02*
X013320Y006376D01*
X013320Y006278D02*
X010817Y006278D01*
X010718Y006179D02*
X013321Y006179D01*
X013321Y006081D02*
X010620Y006081D01*
X010521Y005982D02*
X013321Y005982D01*
X013321Y005884D02*
X010423Y005884D01*
X010195Y006278D02*
X007867Y006278D01*
X007867Y006376D02*
X010293Y006376D01*
X010392Y006475D02*
X007954Y006475D01*
X008052Y006573D02*
X010490Y006573D01*
X010513Y006672D02*
X008151Y006672D01*
X008250Y006770D02*
X010541Y006770D01*
X010604Y006869D02*
X008348Y006869D01*
X008447Y006967D02*
X010757Y006967D01*
X010695Y007165D02*
X013319Y007165D01*
X013318Y007263D02*
X010781Y007263D01*
X010821Y007362D02*
X013318Y007362D01*
X013318Y007460D02*
X010824Y007460D01*
X010803Y007559D02*
X013318Y007559D01*
X013318Y007657D02*
X010749Y007657D01*
X010619Y007756D02*
X013317Y007756D01*
X013317Y007854D02*
X004756Y007854D01*
X004756Y007756D02*
X010333Y007756D01*
X010476Y007438D02*
X008595Y007438D01*
X008592Y007434D01*
X008592Y007424D01*
X007647Y006479D01*
X007647Y006271D01*
X006552Y006251D01*
X004189Y006251D01*
X002522Y004584D01*
X001532Y004584D01*
X001531Y004582D01*
X001879Y004898D02*
X002525Y004898D01*
X002431Y004804D02*
X001948Y004804D01*
X001929Y004848D01*
X001797Y004981D01*
X001624Y005052D01*
X001437Y005052D01*
X001264Y004981D01*
X001132Y004848D01*
X001062Y004678D01*
X001062Y006486D01*
X001132Y006316D01*
X001264Y006184D01*
X001437Y006112D01*
X001624Y006112D01*
X001797Y006184D01*
X001929Y006316D01*
X002001Y006489D01*
X002001Y006676D01*
X001929Y006848D01*
X001797Y006981D01*
X001624Y007052D01*
X001437Y007052D01*
X001264Y006981D01*
X001132Y006848D01*
X001062Y006678D01*
X001062Y006868D01*
X001344Y007151D01*
X001437Y007112D01*
X001624Y007112D01*
X001797Y007184D01*
X001929Y007316D01*
X002001Y007489D01*
X002001Y007676D01*
X001929Y007848D01*
X001797Y007981D01*
X001624Y008052D01*
X001437Y008052D01*
X001264Y007981D01*
X001132Y007848D01*
X001061Y007676D01*
X001061Y007518D01*
X000925Y007382D01*
X000919Y008909D01*
X001088Y008864D01*
X001377Y008864D01*
X001657Y008939D01*
X001908Y009083D01*
X002113Y009288D01*
X002257Y009539D01*
X002332Y009819D01*
X002332Y010108D01*
X002257Y010388D01*
X002215Y010462D01*
X003393Y010462D01*
X003369Y010450D01*
X003312Y010409D01*
X003262Y010359D01*
X003220Y010301D01*
X003188Y010238D01*
X003166Y010171D01*
X003158Y010116D01*
X003555Y010116D01*
X003555Y010016D01*
X003158Y010016D01*
X003166Y009960D01*
X003188Y009893D01*
X003220Y009830D01*
X003262Y009772D01*
X003312Y009722D01*
X003369Y009681D01*
X003433Y009649D01*
X003500Y009627D01*
X003555Y009618D01*
X003555Y010015D01*
X003655Y010015D01*
X003655Y009618D01*
X003711Y009627D01*
X003778Y009649D01*
X003841Y009681D01*
X003898Y009722D01*
X003949Y009772D01*
X003990Y009830D01*
X004022Y009893D01*
X004044Y009960D01*
X004053Y010016D01*
X003655Y010016D01*
X003655Y010116D01*
X004053Y010116D01*
X004044Y010171D01*
X004022Y010238D01*
X003990Y010301D01*
X003949Y010359D01*
X003898Y010409D01*
X003841Y010450D01*
X003818Y010462D01*
X004337Y010462D01*
X004207Y010332D01*
X004135Y010159D01*
X004135Y009972D01*
X004207Y009799D01*
X004339Y009667D01*
X004512Y009596D01*
X004699Y009596D01*
X004871Y009667D01*
X004944Y009740D01*
X006022Y009740D01*
X006342Y009420D01*
X006342Y008785D01*
X006295Y008738D01*
X006140Y008893D01*
X006003Y008893D01*
X006003Y008495D01*
X005906Y008495D01*
X005906Y008893D01*
X005770Y008893D01*
X005614Y008738D01*
X005439Y008913D01*
X005053Y008913D01*
X004892Y008752D01*
X004731Y008913D01*
X004344Y008913D01*
X004071Y008639D01*
X004071Y008253D01*
X004316Y008007D01*
X004316Y007436D01*
X004445Y007308D01*
X005053Y006700D01*
X005235Y006700D01*
X005593Y006700D01*
X005593Y006535D01*
X005656Y006471D01*
X004280Y006471D01*
X004098Y006471D01*
X002431Y004804D01*
X002624Y004997D02*
X001758Y004997D01*
X001703Y005165D02*
X001766Y005197D01*
X001824Y005239D01*
X001874Y005289D01*
X001916Y005346D01*
X001948Y005409D01*
X001970Y005477D01*
X001978Y005532D01*
X001581Y005532D01*
X001581Y005632D01*
X001978Y005632D01*
X001970Y005687D01*
X001970Y005686D02*
X003313Y005686D01*
X003215Y005588D02*
X001581Y005588D01*
X001581Y005632D02*
X001481Y005632D01*
X001481Y006030D01*
X001425Y006021D01*
X001358Y005999D01*
X001295Y005967D01*
X001238Y005925D01*
X001187Y005875D01*
X001146Y005818D01*
X001114Y005755D01*
X001092Y005687D01*
X001083Y005632D01*
X001480Y005632D01*
X001480Y005532D01*
X001083Y005532D01*
X001092Y005477D01*
X001114Y005409D01*
X001146Y005346D01*
X001187Y005289D01*
X001238Y005239D01*
X001295Y005197D01*
X001358Y005165D01*
X001425Y005143D01*
X001481Y005134D01*
X001481Y005532D01*
X001581Y005532D01*
X001581Y005134D01*
X001636Y005143D01*
X001703Y005165D01*
X001760Y005194D02*
X002821Y005194D01*
X002919Y005292D02*
X001876Y005292D01*
X001938Y005391D02*
X003018Y005391D01*
X003116Y005489D02*
X001972Y005489D01*
X002060Y005562D02*
X001633Y005562D01*
X001531Y005582D01*
X001480Y005588D02*
X001062Y005588D01*
X001062Y005686D02*
X001092Y005686D01*
X001062Y005785D02*
X001129Y005785D01*
X001062Y005884D02*
X001196Y005884D01*
X001324Y005982D02*
X001062Y005982D01*
X001062Y006081D02*
X003708Y006081D01*
X003806Y006179D02*
X001786Y006179D01*
X001891Y006278D02*
X003905Y006278D01*
X004003Y006376D02*
X001954Y006376D01*
X001995Y006475D02*
X005653Y006475D01*
X005593Y006573D02*
X002001Y006573D01*
X002001Y006672D02*
X005593Y006672D01*
X005593Y007165D02*
X005210Y007165D01*
X005112Y007263D02*
X005593Y007263D01*
X005649Y007362D02*
X005013Y007362D01*
X004915Y007460D02*
X008317Y007460D01*
X008405Y007559D02*
X004816Y007559D01*
X004756Y007657D02*
X008504Y007657D01*
X008219Y007362D02*
X007103Y007362D01*
X007170Y007263D02*
X008120Y007263D01*
X008021Y007165D02*
X007173Y007165D01*
X007173Y007066D02*
X007923Y007066D01*
X007824Y006967D02*
X006817Y006967D01*
X006817Y007066D02*
X006717Y007066D01*
X006717Y007165D02*
X006817Y007165D01*
X006817Y007263D02*
X006717Y007263D01*
X006717Y007362D02*
X006817Y007362D01*
X006431Y007362D02*
X006388Y007362D01*
X006019Y006920D02*
X005144Y006920D01*
X004536Y007528D01*
X004536Y008445D01*
X004537Y008446D01*
X004071Y008446D02*
X000921Y008446D01*
X000920Y008544D02*
X004071Y008544D01*
X004074Y008643D02*
X000920Y008643D01*
X000919Y008741D02*
X004172Y008741D01*
X004271Y008840D02*
X000919Y008840D01*
X000921Y008347D02*
X004071Y008347D01*
X004075Y008249D02*
X000921Y008249D01*
X000922Y008150D02*
X004173Y008150D01*
X004272Y008051D02*
X001626Y008051D01*
X001436Y008051D02*
X000922Y008051D01*
X000923Y007953D02*
X001237Y007953D01*
X001138Y007854D02*
X000923Y007854D01*
X000923Y007756D02*
X001094Y007756D01*
X001061Y007657D02*
X000924Y007657D01*
X000924Y007559D02*
X001061Y007559D01*
X001003Y007460D02*
X000925Y007460D01*
X001259Y007066D02*
X004687Y007066D01*
X004785Y006967D02*
X001810Y006967D01*
X001909Y006869D02*
X004884Y006869D01*
X004982Y006770D02*
X001961Y006770D01*
X001751Y007165D02*
X004588Y007165D01*
X004490Y007263D02*
X001876Y007263D01*
X001948Y007362D02*
X004391Y007362D01*
X004316Y007460D02*
X001989Y007460D01*
X002001Y007559D02*
X004316Y007559D01*
X004316Y007657D02*
X002001Y007657D01*
X001967Y007756D02*
X004316Y007756D01*
X004316Y007854D02*
X001923Y007854D01*
X001825Y007953D02*
X004316Y007953D01*
X004756Y007953D02*
X013317Y007953D01*
X013317Y008051D02*
X007638Y008051D01*
X007736Y008150D02*
X013317Y008150D01*
X013316Y008249D02*
X007835Y008249D01*
X007839Y008347D02*
X013316Y008347D01*
X013316Y008446D02*
X007839Y008446D01*
X007839Y008544D02*
X013316Y008544D01*
X013316Y008643D02*
X007836Y008643D01*
X007737Y008741D02*
X013316Y008741D01*
X013315Y008840D02*
X007638Y008840D01*
X007106Y008840D02*
X007002Y008840D01*
X007002Y008938D02*
X013315Y008938D01*
X013315Y009037D02*
X007002Y009037D01*
X007002Y009135D02*
X013315Y009135D01*
X013315Y009234D02*
X007002Y009234D01*
X007002Y009333D02*
X013314Y009333D01*
X013314Y009431D02*
X007002Y009431D01*
X007002Y009530D02*
X013314Y009530D01*
X013314Y009628D02*
X006999Y009628D01*
X006958Y009727D02*
X013314Y009727D01*
X013313Y009825D02*
X006870Y009825D01*
X006771Y009924D02*
X013313Y009924D01*
X013313Y010022D02*
X006673Y010022D01*
X006574Y010121D02*
X013313Y010121D01*
X013313Y010219D02*
X006476Y010219D01*
X006377Y010318D02*
X013312Y010318D01*
X013312Y010416D02*
X004919Y010416D01*
X004292Y010416D02*
X003888Y010416D01*
X003978Y010318D02*
X004201Y010318D01*
X004160Y010219D02*
X004028Y010219D01*
X004052Y010121D02*
X004135Y010121D01*
X004135Y010022D02*
X003655Y010022D01*
X003605Y010066D02*
X002342Y008802D01*
X002342Y005844D01*
X002060Y005562D01*
X001970Y005687D02*
X001948Y005755D01*
X001916Y005818D01*
X001874Y005875D01*
X001824Y005925D01*
X001766Y005967D01*
X001703Y005999D01*
X001636Y006021D01*
X001581Y006030D01*
X001581Y005632D01*
X001581Y005686D02*
X001481Y005686D01*
X001481Y005785D02*
X001581Y005785D01*
X001581Y005884D02*
X001481Y005884D01*
X001481Y005982D02*
X001581Y005982D01*
X001737Y005982D02*
X003609Y005982D01*
X003510Y005884D02*
X001866Y005884D01*
X001932Y005785D02*
X003412Y005785D01*
X004024Y005095D02*
X004718Y005095D01*
X005048Y005095D02*
X005367Y005095D01*
X005383Y005194D02*
X004123Y005194D01*
X004221Y005292D02*
X007228Y005292D01*
X007186Y005194D02*
X006951Y005194D01*
X006967Y005095D02*
X007173Y005095D01*
X007329Y005391D02*
X004320Y005391D01*
X004418Y005489D02*
X013322Y005489D01*
X013322Y005391D02*
X007715Y005391D01*
X007816Y005292D02*
X013322Y005292D01*
X013323Y005194D02*
X008689Y005194D01*
X008749Y005169D02*
X008621Y005222D01*
X008482Y005222D01*
X008354Y005169D01*
X008256Y005071D01*
X008203Y004943D01*
X008203Y004804D01*
X008256Y004676D01*
X008322Y004611D01*
X008322Y004166D01*
X008246Y004091D01*
X008193Y003963D01*
X008193Y003824D01*
X008246Y003696D01*
X008344Y003598D01*
X008472Y003545D01*
X008611Y003545D01*
X008739Y003598D01*
X008837Y003696D01*
X008890Y003824D01*
X008890Y003963D01*
X008837Y004091D01*
X008762Y004166D01*
X008762Y004591D01*
X008847Y004676D01*
X008900Y004804D01*
X008900Y004943D01*
X008847Y005071D01*
X008749Y005169D01*
X008823Y005095D02*
X013323Y005095D01*
X013323Y004997D02*
X008878Y004997D01*
X008900Y004898D02*
X013323Y004898D01*
X013323Y004800D02*
X008898Y004800D01*
X008857Y004701D02*
X013324Y004701D01*
X013324Y004602D02*
X008773Y004602D01*
X008762Y004504D02*
X013324Y004504D01*
X013324Y004405D02*
X008762Y004405D01*
X008762Y004307D02*
X013324Y004307D01*
X013325Y004208D02*
X008762Y004208D01*
X008818Y004110D02*
X013325Y004110D01*
X013325Y004011D02*
X008870Y004011D01*
X008890Y003913D02*
X013325Y003913D01*
X013325Y003814D02*
X008886Y003814D01*
X008845Y003716D02*
X013326Y003716D01*
X013326Y003617D02*
X008758Y003617D01*
X008542Y003894D02*
X008542Y004864D01*
X008552Y004874D01*
X008414Y005194D02*
X007857Y005194D01*
X007870Y005095D02*
X008280Y005095D01*
X008225Y004997D02*
X007859Y004997D01*
X007818Y004898D02*
X008203Y004898D01*
X008205Y004800D02*
X007752Y004800D01*
X007752Y004701D02*
X008246Y004701D01*
X008322Y004602D02*
X007752Y004602D01*
X007752Y004504D02*
X008322Y004504D01*
X008322Y004405D02*
X007752Y004405D01*
X007752Y004307D02*
X008322Y004307D01*
X008322Y004208D02*
X007752Y004208D01*
X007752Y004110D02*
X008265Y004110D01*
X008213Y004011D02*
X007752Y004011D01*
X007752Y003913D02*
X008193Y003913D01*
X008197Y003814D02*
X007752Y003814D01*
X007752Y003716D02*
X008238Y003716D01*
X008325Y003617D02*
X007752Y003617D01*
X007752Y003518D02*
X013326Y003518D01*
X013326Y003420D02*
X007752Y003420D01*
X007721Y003321D02*
X013326Y003321D01*
X013327Y003223D02*
X007622Y003223D01*
X007523Y003124D02*
X013327Y003124D01*
X013327Y003026D02*
X007425Y003026D01*
X007326Y002927D02*
X013327Y002927D01*
X013327Y002829D02*
X007228Y002829D01*
X007129Y002730D02*
X013328Y002730D01*
X013328Y002632D02*
X007031Y002632D01*
X006922Y002834D02*
X007532Y003444D01*
X007532Y005084D01*
X007522Y005094D01*
X007430Y006573D02*
X007169Y006573D01*
X007173Y006672D02*
X007529Y006672D01*
X007627Y006770D02*
X007173Y006770D01*
X007173Y006869D02*
X007726Y006869D01*
X008545Y007066D02*
X013319Y007066D01*
X013319Y006967D02*
X010966Y006967D01*
X011119Y006869D02*
X013319Y006869D01*
X013321Y005785D02*
X004714Y005785D01*
X004616Y005686D02*
X013322Y005686D01*
X013322Y005588D02*
X004517Y005588D01*
X002722Y005095D02*
X001062Y005095D01*
X001062Y004997D02*
X001303Y004997D01*
X001182Y004898D02*
X001062Y004898D01*
X001062Y004800D02*
X001112Y004800D01*
X001071Y004701D02*
X001062Y004701D01*
X001062Y005194D02*
X001302Y005194D01*
X001185Y005292D02*
X001062Y005292D01*
X001062Y005391D02*
X001123Y005391D01*
X001090Y005489D02*
X001062Y005489D01*
X001481Y005489D02*
X001581Y005489D01*
X001581Y005391D02*
X001481Y005391D01*
X001481Y005292D02*
X001581Y005292D01*
X001581Y005194D02*
X001481Y005194D01*
X001275Y006179D02*
X001062Y006179D01*
X001062Y006278D02*
X001170Y006278D01*
X001107Y006376D02*
X001062Y006376D01*
X001062Y006475D02*
X001066Y006475D01*
X001062Y006770D02*
X001100Y006770D01*
X001062Y006869D02*
X001153Y006869D01*
X001161Y006967D02*
X001251Y006967D01*
X001656Y008938D02*
X006342Y008938D01*
X006342Y008840D02*
X006193Y008840D01*
X006291Y008741D02*
X006298Y008741D01*
X006003Y008741D02*
X005906Y008741D01*
X005906Y008643D02*
X006003Y008643D01*
X006003Y008544D02*
X005906Y008544D01*
X005906Y008347D02*
X006003Y008347D01*
X006003Y008249D02*
X005906Y008249D01*
X005906Y008150D02*
X006003Y008150D01*
X006003Y008051D02*
X005906Y008051D01*
X005717Y008051D02*
X005512Y008051D01*
X005610Y008150D02*
X005619Y008150D01*
X004980Y008051D02*
X004803Y008051D01*
X005611Y008741D02*
X005618Y008741D01*
X005717Y008840D02*
X005512Y008840D01*
X005906Y008840D02*
X006003Y008840D01*
X006342Y009037D02*
X001827Y009037D01*
X001960Y009135D02*
X006342Y009135D01*
X006342Y009234D02*
X002058Y009234D01*
X002138Y009333D02*
X006342Y009333D01*
X006331Y009431D02*
X002195Y009431D01*
X002252Y009530D02*
X006232Y009530D01*
X006134Y009628D02*
X004777Y009628D01*
X004931Y009727D02*
X006035Y009727D01*
X004980Y008840D02*
X004804Y008840D01*
X004433Y009628D02*
X003715Y009628D01*
X003655Y009628D02*
X003555Y009628D01*
X003495Y009628D02*
X002281Y009628D01*
X002308Y009727D02*
X003308Y009727D01*
X003224Y009825D02*
X002332Y009825D01*
X002332Y009924D02*
X003178Y009924D01*
X003158Y010121D02*
X002329Y010121D01*
X002332Y010022D02*
X003555Y010022D01*
X003555Y009924D02*
X003655Y009924D01*
X003655Y009825D02*
X003555Y009825D01*
X003555Y009727D02*
X003655Y009727D01*
X003903Y009727D02*
X004279Y009727D01*
X004196Y009825D02*
X003987Y009825D01*
X004032Y009924D02*
X004155Y009924D01*
X003323Y010416D02*
X002241Y010416D01*
X002276Y010318D02*
X003232Y010318D01*
X003182Y010219D02*
X002303Y010219D01*
X002213Y011713D02*
X002256Y011789D01*
X002331Y012069D01*
X002331Y012358D01*
X002298Y012483D01*
X002332Y012484D01*
X002427Y012484D01*
X006042Y012504D01*
X006136Y012504D01*
X006137Y012504D01*
X006205Y012574D01*
X006316Y012685D01*
X006316Y012700D01*
X006360Y012743D01*
X006494Y012878D01*
X006494Y013099D01*
X006592Y013099D01*
X006692Y013198D01*
X006692Y013364D01*
X006831Y013364D01*
X007013Y013364D01*
X007623Y013974D01*
X007752Y014102D01*
X007752Y015581D01*
X007817Y015646D01*
X007870Y015774D01*
X007870Y015913D01*
X007817Y016041D01*
X007719Y016139D01*
X007591Y016192D01*
X007452Y016192D01*
X007324Y016139D01*
X007226Y016041D01*
X007173Y015913D01*
X007173Y015774D01*
X007226Y015646D01*
X007312Y015561D01*
X007312Y014285D01*
X006831Y013804D01*
X006692Y013804D01*
X006692Y013969D01*
X006592Y014069D01*
X005939Y014069D01*
X005892Y014021D01*
X005844Y014069D01*
X005732Y014069D01*
X005732Y014242D01*
X005883Y014394D01*
X006012Y014522D01*
X006012Y015057D01*
X006120Y015057D01*
X006167Y015105D01*
X006215Y015057D01*
X006321Y015057D01*
X006321Y014856D01*
X006256Y014791D01*
X006203Y014663D01*
X006203Y014524D01*
X006256Y014396D01*
X006354Y014298D01*
X006482Y014245D01*
X006621Y014245D01*
X006749Y014298D01*
X006847Y014396D01*
X006900Y014524D01*
X006900Y014663D01*
X006847Y014791D01*
X006761Y014877D01*
X006761Y015057D01*
X006868Y015057D01*
X006967Y015157D01*
X006967Y015928D01*
X006868Y016027D01*
X006215Y016027D01*
X006167Y015979D01*
X006120Y016027D01*
X005467Y016027D01*
X005367Y015928D01*
X005367Y015756D01*
X005156Y015756D01*
X005080Y015832D01*
X004952Y015885D01*
X004814Y015885D01*
X004685Y015832D01*
X004587Y015734D01*
X004534Y015606D01*
X004534Y015467D01*
X004587Y015339D01*
X004685Y015241D01*
X004814Y015188D01*
X004952Y015188D01*
X005080Y015241D01*
X005156Y015316D01*
X005367Y015316D01*
X005367Y015157D01*
X005467Y015057D01*
X005572Y015057D01*
X005572Y014705D01*
X005292Y014425D01*
X005292Y014242D01*
X005292Y014069D01*
X005191Y014069D01*
X005092Y013969D01*
X005092Y013804D01*
X004845Y013804D01*
X004787Y013862D01*
X004659Y013915D01*
X004520Y013915D01*
X004392Y013862D01*
X004294Y013764D01*
X004241Y013636D01*
X004241Y013497D01*
X004294Y013369D01*
X004392Y013271D01*
X004520Y013218D01*
X004659Y013218D01*
X004787Y013271D01*
X004879Y013364D01*
X005092Y013364D01*
X005092Y013198D01*
X005191Y013099D01*
X005844Y013099D01*
X005892Y013146D01*
X005939Y013099D01*
X006034Y013099D01*
X006034Y013068D01*
X005929Y012963D01*
X002426Y012944D01*
X001508Y013862D01*
X001624Y013862D01*
X001797Y013934D01*
X001929Y014066D01*
X001949Y014114D01*
X002293Y014114D01*
X002422Y014242D01*
X004743Y016564D01*
X010171Y016564D01*
X010353Y016564D01*
X010824Y017035D01*
X010931Y017035D01*
X011059Y017088D01*
X011157Y017186D01*
X011210Y017314D01*
X011210Y017453D01*
X011157Y017581D01*
X011059Y017679D01*
X010931Y017732D01*
X010792Y017732D01*
X010664Y017679D01*
X010566Y017581D01*
X010513Y017453D01*
X010513Y017346D01*
X010171Y017004D01*
X007867Y017004D01*
X007867Y017023D01*
X007867Y017138D01*
X008683Y017954D01*
X008697Y017968D01*
X010203Y017968D01*
X010278Y017892D01*
X010407Y017839D01*
X010545Y017839D01*
X010673Y017892D01*
X010771Y017990D01*
X010824Y018119D01*
X010824Y018257D01*
X010771Y018385D01*
X010673Y018483D01*
X010545Y018536D01*
X010407Y018536D01*
X010278Y018483D01*
X010203Y018408D01*
X008504Y018408D01*
X008375Y018279D01*
X008372Y018275D01*
X008372Y018265D01*
X007427Y017320D01*
X007427Y017237D01*
X007108Y017231D01*
X007115Y017235D01*
X007143Y017263D01*
X007162Y017297D01*
X007173Y017335D01*
X007173Y017620D01*
X006817Y017620D01*
X006817Y017720D01*
X007173Y017720D01*
X007173Y018005D01*
X007162Y018043D01*
X007143Y018077D01*
X007115Y018105D01*
X007081Y018125D01*
X007042Y018135D01*
X006817Y018135D01*
X006817Y017720D01*
X006717Y017720D01*
X006717Y018135D01*
X006491Y018135D01*
X006453Y018125D01*
X006419Y018105D01*
X006407Y018093D01*
X006345Y018155D01*
X005692Y018155D01*
X005593Y018055D01*
X005593Y017890D01*
X005235Y017890D01*
X004756Y018369D01*
X004756Y018755D01*
X004892Y018890D01*
X005053Y018729D01*
X005439Y018729D01*
X005614Y018904D01*
X005770Y018749D01*
X005906Y018749D01*
X005906Y019147D01*
X006003Y019147D01*
X006003Y018749D01*
X006140Y018749D01*
X006295Y018904D01*
X006470Y018729D01*
X006857Y018729D01*
X007018Y018890D01*
X007179Y018729D01*
X007565Y018729D01*
X007839Y019003D01*
X007839Y019389D01*
X007565Y019663D01*
X007179Y019663D01*
X007018Y019502D01*
X007002Y019518D01*
X007002Y020241D01*
X007002Y020372D01*
X006951Y020494D01*
X006345Y021100D01*
X006224Y021150D01*
X006093Y021150D01*
X004936Y021150D01*
X004873Y021212D01*
X013312Y021211D01*
X013330Y012107D01*
X010290Y012107D01*
X010214Y012183D01*
X010086Y012236D01*
X009948Y012236D01*
X009819Y012183D01*
X009721Y012085D01*
X009668Y011956D01*
X009668Y011818D01*
X009712Y011713D01*
X002213Y011713D01*
X002258Y011796D02*
X009677Y011796D01*
X009668Y011895D02*
X002285Y011895D01*
X002311Y011993D02*
X009684Y011993D01*
X009729Y012092D02*
X002331Y012092D01*
X002331Y012190D02*
X009838Y012190D01*
X010017Y011887D02*
X016195Y011887D01*
X016232Y011924D01*
X016206Y012239D02*
X016233Y012267D01*
X015022Y012289D02*
X023232Y012289D01*
X023232Y012358D02*
X023232Y012069D01*
X023307Y011789D01*
X023350Y011714D01*
X015022Y011713D01*
X015022Y021211D01*
X023348Y021210D01*
X023307Y021138D01*
X023232Y020858D01*
X023232Y020569D01*
X023307Y020289D01*
X023451Y020038D01*
X023656Y019833D01*
X023907Y019689D01*
X024187Y019614D01*
X024476Y019614D01*
X024756Y019689D01*
X024852Y019744D01*
X024852Y013183D01*
X024756Y013239D01*
X024476Y013314D01*
X024187Y013314D01*
X023907Y013239D01*
X023656Y013094D01*
X023451Y012889D01*
X023307Y012638D01*
X023232Y012358D01*
X023239Y012387D02*
X015022Y012387D01*
X015022Y012486D02*
X023266Y012486D01*
X023292Y012584D02*
X015022Y012584D01*
X015022Y012683D02*
X023332Y012683D01*
X023389Y012782D02*
X015022Y012782D01*
X015022Y012880D02*
X023446Y012880D01*
X023541Y012979D02*
X015022Y012979D01*
X015022Y013077D02*
X023640Y013077D01*
X023798Y013176D02*
X015022Y013176D01*
X015022Y013274D02*
X024040Y013274D01*
X024623Y013274D02*
X024852Y013274D01*
X024852Y013373D02*
X015022Y013373D01*
X015022Y013471D02*
X024852Y013471D01*
X024852Y013570D02*
X015022Y013570D01*
X015022Y013668D02*
X024852Y013668D01*
X024852Y013767D02*
X015022Y013767D01*
X015022Y013866D02*
X024852Y013866D01*
X024852Y013964D02*
X015022Y013964D01*
X015022Y014063D02*
X024852Y014063D01*
X024852Y014161D02*
X015022Y014161D01*
X015022Y014260D02*
X024852Y014260D01*
X024852Y014358D02*
X015022Y014358D01*
X015022Y014457D02*
X024852Y014457D01*
X024852Y014555D02*
X015022Y014555D01*
X015022Y014654D02*
X024852Y014654D01*
X024852Y014752D02*
X015022Y014752D01*
X015022Y014851D02*
X024852Y014851D01*
X024852Y014949D02*
X015022Y014949D01*
X015022Y015048D02*
X024852Y015048D01*
X024852Y015147D02*
X015022Y015147D01*
X015022Y015245D02*
X024852Y015245D01*
X024852Y015344D02*
X015022Y015344D01*
X015022Y015442D02*
X024852Y015442D01*
X024852Y015541D02*
X015022Y015541D01*
X015022Y015639D02*
X024852Y015639D01*
X024852Y015738D02*
X015022Y015738D01*
X015022Y015836D02*
X024852Y015836D01*
X024852Y015935D02*
X015022Y015935D01*
X015022Y016033D02*
X024852Y016033D01*
X024852Y016132D02*
X015022Y016132D01*
X015022Y016231D02*
X024852Y016231D01*
X024852Y016329D02*
X015022Y016329D01*
X015022Y016428D02*
X024852Y016428D01*
X024852Y016526D02*
X015022Y016526D01*
X015022Y016625D02*
X024852Y016625D01*
X024852Y016723D02*
X015022Y016723D01*
X015022Y016822D02*
X024852Y016822D01*
X024852Y016920D02*
X015022Y016920D01*
X015022Y017019D02*
X024852Y017019D01*
X024852Y017117D02*
X015022Y017117D01*
X015022Y017216D02*
X024852Y017216D01*
X024852Y017315D02*
X015022Y017315D01*
X015022Y017413D02*
X024852Y017413D01*
X024852Y017512D02*
X015022Y017512D01*
X015022Y017610D02*
X024852Y017610D01*
X024852Y017709D02*
X015022Y017709D01*
X015022Y017807D02*
X024852Y017807D01*
X024852Y017906D02*
X015022Y017906D01*
X015022Y018004D02*
X024852Y018004D01*
X024852Y018103D02*
X015022Y018103D01*
X015022Y018201D02*
X024852Y018201D01*
X024852Y018300D02*
X015022Y018300D01*
X015022Y018399D02*
X024852Y018399D01*
X024852Y018497D02*
X015022Y018497D01*
X015022Y018596D02*
X024852Y018596D01*
X024852Y018694D02*
X015022Y018694D01*
X015022Y018793D02*
X024852Y018793D01*
X024852Y018891D02*
X015022Y018891D01*
X015022Y018990D02*
X024852Y018990D01*
X024852Y019088D02*
X015022Y019088D01*
X015022Y019187D02*
X024852Y019187D01*
X024852Y019285D02*
X015022Y019285D01*
X015022Y019384D02*
X024852Y019384D01*
X024852Y019482D02*
X015022Y019482D01*
X015022Y019581D02*
X024852Y019581D01*
X024852Y019680D02*
X024723Y019680D01*
X023941Y019680D02*
X015022Y019680D01*
X015022Y019778D02*
X023752Y019778D01*
X023613Y019877D02*
X015022Y019877D01*
X015022Y019975D02*
X023514Y019975D01*
X023431Y020074D02*
X015022Y020074D01*
X015022Y020172D02*
X023374Y020172D01*
X023317Y020271D02*
X015022Y020271D01*
X015022Y020369D02*
X023285Y020369D01*
X023259Y020468D02*
X015022Y020468D01*
X015022Y020566D02*
X023232Y020566D01*
X023232Y020665D02*
X015022Y020665D01*
X015022Y020764D02*
X023232Y020764D01*
X023233Y020862D02*
X015022Y020862D01*
X015022Y020961D02*
X023259Y020961D01*
X023285Y021059D02*
X015022Y021059D01*
X015022Y021158D02*
X023318Y021158D01*
X023350Y022464D02*
X015022Y022463D01*
X015022Y031934D01*
X023333Y031934D01*
X023307Y031888D01*
X023232Y031608D01*
X023232Y031319D01*
X023307Y031039D01*
X023451Y030788D01*
X023656Y030583D01*
X023907Y030439D01*
X024187Y030364D01*
X024476Y030364D01*
X024756Y030439D01*
X024852Y030494D01*
X024852Y023933D01*
X024756Y023989D01*
X024476Y024064D01*
X024187Y024064D01*
X023907Y023989D01*
X023656Y023844D01*
X023451Y023639D01*
X023307Y023388D01*
X023232Y023108D01*
X023232Y022819D01*
X023307Y022539D01*
X023350Y022464D01*
X023308Y022537D02*
X015022Y022537D01*
X015022Y022636D02*
X023281Y022636D01*
X023254Y022734D02*
X015022Y022734D01*
X015022Y022833D02*
X023232Y022833D01*
X023232Y022931D02*
X015022Y022931D01*
X015022Y023030D02*
X023232Y023030D01*
X023237Y023129D02*
X015022Y023129D01*
X015022Y023227D02*
X023263Y023227D01*
X023290Y023326D02*
X015022Y023326D01*
X015022Y023424D02*
X023327Y023424D01*
X023384Y023523D02*
X015022Y023523D01*
X015022Y023621D02*
X023441Y023621D01*
X023532Y023720D02*
X015022Y023720D01*
X015022Y023818D02*
X023631Y023818D01*
X023783Y023917D02*
X015022Y023917D01*
X015022Y024015D02*
X024007Y024015D01*
X024656Y024015D02*
X024852Y024015D01*
X024852Y024114D02*
X015022Y024114D01*
X015022Y024213D02*
X024852Y024213D01*
X024852Y024311D02*
X015022Y024311D01*
X015022Y024410D02*
X024852Y024410D01*
X024852Y024508D02*
X015022Y024508D01*
X015022Y024607D02*
X024852Y024607D01*
X024852Y024705D02*
X015022Y024705D01*
X015022Y024804D02*
X024852Y024804D01*
X024852Y024902D02*
X015022Y024902D01*
X015022Y025001D02*
X024852Y025001D01*
X024852Y025099D02*
X015022Y025099D01*
X015022Y025198D02*
X024852Y025198D01*
X024852Y025297D02*
X015022Y025297D01*
X015022Y025395D02*
X024852Y025395D01*
X024852Y025494D02*
X015022Y025494D01*
X015022Y025592D02*
X024852Y025592D01*
X024852Y025691D02*
X015022Y025691D01*
X015022Y025789D02*
X024852Y025789D01*
X024852Y025888D02*
X015022Y025888D01*
X015022Y025986D02*
X024852Y025986D01*
X024852Y026085D02*
X015022Y026085D01*
X015022Y026183D02*
X024852Y026183D01*
X024852Y026282D02*
X015022Y026282D01*
X015022Y026381D02*
X024852Y026381D01*
X024852Y026479D02*
X015022Y026479D01*
X015022Y026578D02*
X024852Y026578D01*
X024852Y026676D02*
X015022Y026676D01*
X015022Y026775D02*
X024852Y026775D01*
X024852Y026873D02*
X015022Y026873D01*
X015022Y026972D02*
X024852Y026972D01*
X024852Y027070D02*
X015022Y027070D01*
X015022Y027169D02*
X024852Y027169D01*
X024852Y027267D02*
X015022Y027267D01*
X015022Y027366D02*
X024852Y027366D01*
X024852Y027464D02*
X015022Y027464D01*
X015022Y027563D02*
X024852Y027563D01*
X024852Y027662D02*
X015022Y027662D01*
X015022Y027760D02*
X024852Y027760D01*
X024852Y027859D02*
X015022Y027859D01*
X015022Y027957D02*
X024852Y027957D01*
X024852Y028056D02*
X015022Y028056D01*
X015022Y028154D02*
X024852Y028154D01*
X024852Y028253D02*
X015022Y028253D01*
X015022Y028351D02*
X024852Y028351D01*
X024852Y028450D02*
X015022Y028450D01*
X015022Y028548D02*
X024852Y028548D01*
X024852Y028647D02*
X015022Y028647D01*
X015022Y028746D02*
X024852Y028746D01*
X024852Y028844D02*
X015022Y028844D01*
X015022Y028943D02*
X024852Y028943D01*
X024852Y029041D02*
X015022Y029041D01*
X015022Y029140D02*
X024852Y029140D01*
X024852Y029238D02*
X015022Y029238D01*
X015022Y029337D02*
X024852Y029337D01*
X024852Y029435D02*
X015022Y029435D01*
X015022Y029534D02*
X024852Y029534D01*
X024852Y029632D02*
X015022Y029632D01*
X015022Y029731D02*
X024852Y029731D01*
X024852Y029830D02*
X015022Y029830D01*
X015022Y029928D02*
X024852Y029928D01*
X024852Y030027D02*
X015022Y030027D01*
X015022Y030125D02*
X024852Y030125D01*
X024852Y030224D02*
X015022Y030224D01*
X015022Y030322D02*
X024852Y030322D01*
X024852Y030421D02*
X024690Y030421D01*
X023973Y030421D02*
X015022Y030421D01*
X015022Y030519D02*
X023767Y030519D01*
X023622Y030618D02*
X015022Y030618D01*
X015022Y030716D02*
X023523Y030716D01*
X023436Y030815D02*
X015022Y030815D01*
X015022Y030914D02*
X023379Y030914D01*
X023322Y031012D02*
X015022Y031012D01*
X015022Y031111D02*
X023287Y031111D01*
X023261Y031209D02*
X015022Y031209D01*
X015022Y031308D02*
X023235Y031308D01*
X023232Y031406D02*
X015022Y031406D01*
X015022Y031505D02*
X023232Y031505D01*
X023232Y031603D02*
X015022Y031603D01*
X015022Y031702D02*
X023257Y031702D01*
X023283Y031800D02*
X015022Y031800D01*
X015022Y031899D02*
X023313Y031899D01*
X027512Y025023D02*
X034072Y025023D01*
X034017Y024928D01*
X033942Y024648D01*
X033942Y024358D01*
X034017Y024078D01*
X034162Y023828D01*
X034367Y023623D01*
X034618Y023478D01*
X034897Y023403D01*
X035187Y023403D01*
X035467Y023478D01*
X035542Y023522D01*
X035542Y015193D01*
X026045Y015193D01*
X026046Y023519D01*
X026118Y023478D01*
X026397Y023403D01*
X026687Y023403D01*
X026967Y023478D01*
X027218Y023623D01*
X027422Y023828D01*
X027567Y024078D01*
X027642Y024358D01*
X027642Y024648D01*
X027567Y024928D01*
X027512Y025023D01*
X027525Y025001D02*
X034060Y025001D01*
X034011Y024902D02*
X027574Y024902D01*
X027600Y024804D02*
X033984Y024804D01*
X033958Y024705D02*
X027627Y024705D01*
X027642Y024607D02*
X033942Y024607D01*
X033942Y024508D02*
X027642Y024508D01*
X027642Y024410D02*
X033942Y024410D01*
X033955Y024311D02*
X027630Y024311D01*
X027603Y024213D02*
X033981Y024213D01*
X034008Y024114D02*
X027577Y024114D01*
X027531Y024015D02*
X034054Y024015D01*
X034110Y023917D02*
X027474Y023917D01*
X027413Y023818D02*
X034171Y023818D01*
X034270Y023720D02*
X027315Y023720D01*
X027215Y023621D02*
X034369Y023621D01*
X034540Y023523D02*
X027044Y023523D01*
X026766Y023424D02*
X034818Y023424D01*
X035266Y023424D02*
X035542Y023424D01*
X035542Y023326D02*
X026046Y023326D01*
X026046Y023424D02*
X026318Y023424D01*
X026046Y023227D02*
X035542Y023227D01*
X035542Y023129D02*
X026046Y023129D01*
X026046Y023030D02*
X035542Y023030D01*
X035542Y022931D02*
X026046Y022931D01*
X026046Y022833D02*
X035542Y022833D01*
X035542Y022734D02*
X026046Y022734D01*
X026046Y022636D02*
X035542Y022636D01*
X035542Y022537D02*
X026046Y022537D01*
X026046Y022439D02*
X035542Y022439D01*
X035542Y022340D02*
X026046Y022340D01*
X026046Y022242D02*
X035542Y022242D01*
X035542Y022143D02*
X026046Y022143D01*
X026046Y022045D02*
X035542Y022045D01*
X035542Y021946D02*
X026046Y021946D01*
X026046Y021848D02*
X035542Y021848D01*
X035542Y021749D02*
X026046Y021749D01*
X026046Y021650D02*
X035542Y021650D01*
X035542Y021552D02*
X026046Y021552D01*
X026046Y021453D02*
X035542Y021453D01*
X035542Y021355D02*
X026046Y021355D01*
X026046Y021256D02*
X035542Y021256D01*
X035542Y021158D02*
X026046Y021158D01*
X026046Y021059D02*
X035542Y021059D01*
X035542Y020961D02*
X026046Y020961D01*
X026046Y020862D02*
X035542Y020862D01*
X035542Y020764D02*
X026046Y020764D01*
X026046Y020665D02*
X035542Y020665D01*
X035542Y020566D02*
X026046Y020566D01*
X026046Y020468D02*
X035542Y020468D01*
X035542Y020369D02*
X026046Y020369D01*
X026046Y020271D02*
X035542Y020271D01*
X035542Y020172D02*
X026046Y020172D01*
X026046Y020074D02*
X035542Y020074D01*
X035542Y019975D02*
X026045Y019975D01*
X026045Y019877D02*
X035542Y019877D01*
X035542Y019778D02*
X026045Y019778D01*
X026045Y019680D02*
X035542Y019680D01*
X035542Y019581D02*
X026045Y019581D01*
X026045Y019482D02*
X035542Y019482D01*
X035542Y019384D02*
X026045Y019384D01*
X026045Y019285D02*
X035542Y019285D01*
X035542Y019187D02*
X026045Y019187D01*
X026045Y019088D02*
X035542Y019088D01*
X035542Y018990D02*
X026045Y018990D01*
X026045Y018891D02*
X035542Y018891D01*
X035542Y018793D02*
X026045Y018793D01*
X026045Y018694D02*
X035542Y018694D01*
X035542Y018596D02*
X026045Y018596D01*
X026045Y018497D02*
X035542Y018497D01*
X035542Y018399D02*
X026045Y018399D01*
X026045Y018300D02*
X035542Y018300D01*
X035542Y018201D02*
X026045Y018201D01*
X026045Y018103D02*
X035542Y018103D01*
X035542Y018004D02*
X026045Y018004D01*
X026045Y017906D02*
X035542Y017906D01*
X035542Y017807D02*
X026045Y017807D01*
X026045Y017709D02*
X035542Y017709D01*
X035542Y017610D02*
X026045Y017610D01*
X026045Y017512D02*
X035542Y017512D01*
X035542Y017413D02*
X026045Y017413D01*
X026045Y017315D02*
X035542Y017315D01*
X035542Y017216D02*
X026045Y017216D01*
X026045Y017117D02*
X035542Y017117D01*
X035542Y017019D02*
X026045Y017019D01*
X026045Y016920D02*
X035542Y016920D01*
X035542Y016822D02*
X026045Y016822D01*
X026045Y016723D02*
X035542Y016723D01*
X035542Y016625D02*
X026045Y016625D01*
X026045Y016526D02*
X035542Y016526D01*
X035542Y016428D02*
X026045Y016428D01*
X026045Y016329D02*
X035542Y016329D01*
X035542Y016231D02*
X026045Y016231D01*
X026045Y016132D02*
X035542Y016132D01*
X035542Y016033D02*
X026045Y016033D01*
X026045Y015935D02*
X035542Y015935D01*
X035542Y015836D02*
X026045Y015836D01*
X026045Y015738D02*
X035542Y015738D01*
X035542Y015639D02*
X026045Y015639D01*
X026045Y015541D02*
X035542Y015541D01*
X035542Y015442D02*
X026045Y015442D01*
X026045Y015344D02*
X035542Y015344D01*
X035542Y015245D02*
X026045Y015245D01*
X026045Y013483D02*
X035149Y013502D01*
X035149Y010461D01*
X035073Y010386D01*
X035020Y010257D01*
X035020Y010119D01*
X035073Y009991D01*
X035171Y009893D01*
X035299Y009840D01*
X035438Y009840D01*
X035543Y009883D01*
X035543Y002384D01*
X035467Y002428D01*
X035187Y002503D01*
X034897Y002503D01*
X034772Y002469D01*
X034772Y002503D01*
X034772Y002598D01*
X034772Y002599D01*
X034752Y006213D01*
X034752Y006307D01*
X034752Y006307D01*
X034752Y006308D01*
X034682Y006377D01*
X034571Y006488D01*
X034556Y006488D01*
X034513Y006531D01*
X034378Y006666D01*
X034157Y006666D01*
X034157Y006763D01*
X034058Y006863D01*
X033892Y006863D01*
X033892Y007002D01*
X033892Y007184D01*
X033282Y007794D01*
X033153Y007923D01*
X031675Y007923D01*
X031610Y007988D01*
X031482Y008041D01*
X031343Y008041D01*
X031215Y007988D01*
X031117Y007890D01*
X031064Y007762D01*
X031064Y007624D01*
X031117Y007496D01*
X031215Y007398D01*
X031343Y007345D01*
X031482Y007345D01*
X031610Y007398D01*
X031695Y007483D01*
X032971Y007483D01*
X033452Y007002D01*
X033452Y006863D01*
X033287Y006863D01*
X033187Y006763D01*
X033187Y006111D01*
X033235Y006063D01*
X033187Y006015D01*
X033187Y005903D01*
X033013Y005903D01*
X032862Y006054D01*
X032733Y006183D01*
X032199Y006183D01*
X032199Y006291D01*
X032151Y006339D01*
X032199Y006386D01*
X032199Y006493D01*
X032400Y006493D01*
X032465Y006428D01*
X032593Y006375D01*
X032732Y006375D01*
X032860Y006428D01*
X032958Y006526D01*
X033011Y006654D01*
X033011Y006792D01*
X032958Y006920D01*
X032860Y007018D01*
X032732Y007071D01*
X032593Y007071D01*
X032465Y007018D01*
X032379Y006933D01*
X032199Y006933D01*
X032199Y007039D01*
X032099Y007138D01*
X031328Y007138D01*
X031229Y007039D01*
X031229Y006386D01*
X031276Y006339D01*
X031229Y006291D01*
X031229Y005638D01*
X031328Y005539D01*
X031499Y005539D01*
X031499Y005327D01*
X031424Y005252D01*
X031371Y005123D01*
X031371Y004985D01*
X031424Y004857D01*
X031522Y004759D01*
X031650Y004706D01*
X031789Y004706D01*
X031917Y004759D01*
X032015Y004857D01*
X032068Y004985D01*
X032068Y005123D01*
X032015Y005252D01*
X031939Y005327D01*
X031939Y005539D01*
X032099Y005539D01*
X032199Y005638D01*
X032199Y005743D01*
X032551Y005743D01*
X032831Y005463D01*
X033013Y005463D01*
X033187Y005463D01*
X033187Y005363D01*
X033287Y005263D01*
X033452Y005263D01*
X033452Y005016D01*
X033394Y004958D01*
X033341Y004830D01*
X033341Y004691D01*
X033394Y004563D01*
X033492Y004465D01*
X033620Y004412D01*
X033759Y004412D01*
X033887Y004465D01*
X033985Y004563D01*
X034038Y004691D01*
X034038Y004830D01*
X033985Y004958D01*
X033892Y005050D01*
X033892Y005263D01*
X034058Y005263D01*
X034157Y005363D01*
X034157Y006015D01*
X034109Y006063D01*
X034157Y006111D01*
X034157Y006206D01*
X034187Y006206D01*
X034293Y006100D01*
X034312Y002598D01*
X033394Y001680D01*
X033394Y001795D01*
X033322Y001968D01*
X033190Y002100D01*
X033142Y002120D01*
X033142Y002464D01*
X033013Y002593D01*
X030692Y004914D01*
X030692Y010524D01*
X030563Y010653D01*
X030221Y010996D01*
X030221Y011102D01*
X030168Y011230D01*
X030070Y011328D01*
X029942Y011381D01*
X029803Y011381D01*
X029675Y011328D01*
X029577Y011230D01*
X029524Y011102D01*
X029524Y010964D01*
X029577Y010836D01*
X029675Y010738D01*
X029803Y010685D01*
X029910Y010685D01*
X030252Y010342D01*
X030252Y008038D01*
X030233Y008038D01*
X030118Y008038D01*
X029302Y008854D01*
X029288Y008868D01*
X029288Y010374D01*
X029363Y010450D01*
X029416Y010578D01*
X029416Y010716D01*
X029363Y010845D01*
X029265Y010943D01*
X029137Y010996D01*
X028999Y010996D01*
X028871Y010943D01*
X028773Y010845D01*
X028720Y010716D01*
X028720Y010578D01*
X028773Y010450D01*
X028848Y010374D01*
X028848Y008676D01*
X028977Y008547D01*
X028981Y008543D01*
X028991Y008543D01*
X029936Y007598D01*
X030019Y007598D01*
X030025Y007280D01*
X030021Y007286D01*
X029993Y007314D01*
X029959Y007334D01*
X029921Y007344D01*
X029636Y007344D01*
X029636Y006988D01*
X029536Y006988D01*
X029536Y006888D01*
X029121Y006888D01*
X029121Y006662D01*
X029131Y006624D01*
X029151Y006590D01*
X029163Y006578D01*
X029101Y006516D01*
X029101Y005864D01*
X029201Y005764D01*
X029366Y005764D01*
X029366Y005406D01*
X028887Y004927D01*
X028501Y004927D01*
X028366Y005063D01*
X028527Y005224D01*
X028527Y005611D01*
X028351Y005786D01*
X028507Y005941D01*
X028507Y006078D01*
X028108Y006078D01*
X028108Y006174D01*
X028507Y006174D01*
X028507Y006311D01*
X028351Y006466D01*
X028527Y006641D01*
X028527Y007028D01*
X028366Y007189D01*
X028527Y007350D01*
X028527Y007737D01*
X028253Y008010D01*
X027866Y008010D01*
X027593Y007737D01*
X027593Y007350D01*
X027754Y007189D01*
X027738Y007173D01*
X027015Y007173D01*
X026884Y007173D01*
X026762Y007123D01*
X026249Y006609D01*
X026156Y006517D01*
X026106Y006395D01*
X026106Y005107D01*
X026044Y005045D01*
X026045Y013483D01*
X026045Y013471D02*
X035149Y013471D01*
X035149Y013373D02*
X026045Y013373D01*
X026045Y013274D02*
X035149Y013274D01*
X035149Y013176D02*
X026045Y013176D01*
X026045Y013077D02*
X035149Y013077D01*
X035149Y012979D02*
X026045Y012979D01*
X026045Y012880D02*
X035149Y012880D01*
X035149Y012782D02*
X026045Y012782D01*
X026045Y012683D02*
X035149Y012683D01*
X035149Y012584D02*
X026045Y012584D01*
X026045Y012486D02*
X035149Y012486D01*
X035149Y012387D02*
X026045Y012387D01*
X026045Y012289D02*
X035149Y012289D01*
X035149Y012190D02*
X026045Y012190D01*
X026045Y012092D02*
X035149Y012092D01*
X035149Y011993D02*
X026045Y011993D01*
X026045Y011895D02*
X035149Y011895D01*
X035149Y011796D02*
X026045Y011796D01*
X026045Y011698D02*
X035149Y011698D01*
X035149Y011599D02*
X026045Y011599D01*
X026044Y011500D02*
X035149Y011500D01*
X035149Y011402D02*
X026044Y011402D01*
X026044Y011303D02*
X029650Y011303D01*
X029566Y011205D02*
X026044Y011205D01*
X026044Y011106D02*
X029526Y011106D01*
X029524Y011008D02*
X026044Y011008D01*
X026044Y010909D02*
X028837Y010909D01*
X028759Y010811D02*
X026044Y010811D01*
X026044Y010712D02*
X028720Y010712D01*
X028720Y010614D02*
X026044Y010614D01*
X026044Y010515D02*
X028746Y010515D01*
X028806Y010416D02*
X026044Y010416D01*
X026044Y010318D02*
X028848Y010318D01*
X028848Y010219D02*
X026044Y010219D01*
X026044Y010121D02*
X028848Y010121D01*
X028848Y010022D02*
X026044Y010022D01*
X026044Y009924D02*
X028848Y009924D01*
X028848Y009825D02*
X026044Y009825D01*
X026044Y009727D02*
X028848Y009727D01*
X028848Y009628D02*
X026044Y009628D01*
X026044Y009530D02*
X028848Y009530D01*
X028848Y009431D02*
X026044Y009431D01*
X026044Y009333D02*
X028848Y009333D01*
X028848Y009234D02*
X026044Y009234D01*
X026044Y009135D02*
X028848Y009135D01*
X028848Y009037D02*
X026044Y009037D01*
X026044Y008938D02*
X028848Y008938D01*
X028848Y008840D02*
X026044Y008840D01*
X026044Y008741D02*
X028848Y008741D01*
X028881Y008643D02*
X026044Y008643D01*
X026044Y008544D02*
X028980Y008544D01*
X029089Y008446D02*
X026044Y008446D01*
X026044Y008347D02*
X029187Y008347D01*
X029286Y008249D02*
X026044Y008249D01*
X026044Y008150D02*
X029384Y008150D01*
X029483Y008051D02*
X026044Y008051D01*
X026044Y007953D02*
X027809Y007953D01*
X027711Y007854D02*
X026044Y007854D01*
X026044Y007756D02*
X027612Y007756D01*
X027593Y007657D02*
X026044Y007657D01*
X026044Y007559D02*
X027593Y007559D01*
X027593Y007460D02*
X026044Y007460D01*
X026044Y007362D02*
X027593Y007362D01*
X027680Y007263D02*
X026044Y007263D01*
X026044Y007165D02*
X026863Y007165D01*
X026706Y007066D02*
X026044Y007066D01*
X026044Y006967D02*
X026607Y006967D01*
X026509Y006869D02*
X026044Y006869D01*
X026044Y006770D02*
X026410Y006770D01*
X026311Y006672D02*
X026044Y006672D01*
X026044Y006573D02*
X026213Y006573D01*
X026249Y006609D02*
X026249Y006609D01*
X026139Y006475D02*
X026044Y006475D01*
X026044Y006376D02*
X026106Y006376D01*
X026106Y006278D02*
X026044Y006278D01*
X026044Y006179D02*
X026106Y006179D01*
X026106Y006081D02*
X026044Y006081D01*
X026044Y005982D02*
X026106Y005982D01*
X026106Y005884D02*
X026044Y005884D01*
X026044Y005785D02*
X026106Y005785D01*
X026106Y005686D02*
X026044Y005686D01*
X026044Y005588D02*
X026106Y005588D01*
X026106Y005489D02*
X026044Y005489D01*
X026044Y005391D02*
X026106Y005391D01*
X026106Y005292D02*
X026044Y005292D01*
X026044Y005194D02*
X026106Y005194D01*
X026094Y005095D02*
X026044Y005095D01*
X026766Y005116D02*
X026766Y006193D01*
X027086Y006513D01*
X027721Y006513D01*
X027768Y006466D01*
X027613Y006311D01*
X027613Y006174D01*
X028011Y006174D01*
X028011Y006078D01*
X027613Y006078D01*
X027613Y005941D01*
X027768Y005786D01*
X027593Y005611D01*
X027593Y005224D01*
X027754Y005063D01*
X027593Y004902D01*
X027593Y004515D01*
X027866Y004242D01*
X028253Y004242D01*
X028499Y004488D01*
X029069Y004488D01*
X029198Y004616D01*
X029806Y005224D01*
X029806Y005406D01*
X029806Y005764D01*
X029971Y005764D01*
X030035Y005828D01*
X030035Y004451D01*
X030035Y004269D01*
X031702Y002602D01*
X031702Y002119D01*
X031658Y002100D01*
X031525Y001968D01*
X031454Y001795D01*
X031454Y001609D01*
X031525Y001436D01*
X031658Y001304D01*
X031828Y001233D01*
X030019Y001233D01*
X030190Y001304D01*
X030322Y001436D01*
X030394Y001609D01*
X030394Y001795D01*
X030322Y001968D01*
X030190Y002100D01*
X030017Y002172D01*
X029830Y002172D01*
X029658Y002100D01*
X029525Y001968D01*
X029454Y001795D01*
X029454Y001609D01*
X029525Y001436D01*
X029658Y001304D01*
X029828Y001233D01*
X029638Y001233D01*
X029355Y001515D01*
X029394Y001609D01*
X029394Y001795D01*
X029322Y001968D01*
X029190Y002100D01*
X029017Y002172D01*
X028830Y002172D01*
X028658Y002100D01*
X028525Y001968D01*
X028454Y001795D01*
X028454Y001609D01*
X028525Y001436D01*
X028658Y001304D01*
X028830Y001232D01*
X028988Y001232D01*
X029124Y001096D01*
X027597Y001090D01*
X027642Y001259D01*
X027642Y001549D01*
X027567Y001828D01*
X027422Y002079D01*
X027218Y002284D01*
X026967Y002429D01*
X026687Y002504D01*
X026397Y002504D01*
X026118Y002429D01*
X026043Y002386D01*
X026044Y003564D01*
X026055Y003541D01*
X026097Y003483D01*
X026147Y003433D01*
X026204Y003392D01*
X026268Y003360D01*
X026335Y003338D01*
X026390Y003329D01*
X026390Y003726D01*
X026490Y003726D01*
X026490Y003329D01*
X026546Y003338D01*
X026613Y003360D01*
X026676Y003392D01*
X026733Y003433D01*
X026784Y003483D01*
X026825Y003541D01*
X026857Y003604D01*
X026879Y003671D01*
X026888Y003727D01*
X026490Y003727D01*
X026490Y003827D01*
X026390Y003827D01*
X026390Y004224D01*
X026335Y004216D01*
X026268Y004194D01*
X026204Y004161D01*
X026147Y004120D01*
X026097Y004070D01*
X026055Y004012D01*
X026044Y003989D01*
X026044Y004509D01*
X026174Y004378D01*
X026347Y004307D01*
X026534Y004307D01*
X027801Y004307D01*
X027703Y004405D02*
X026734Y004405D01*
X026707Y004378D02*
X026839Y004510D01*
X026910Y004683D01*
X026910Y004870D01*
X026839Y005043D01*
X026766Y005116D01*
X026786Y005095D02*
X027722Y005095D01*
X027688Y004997D02*
X026858Y004997D01*
X026899Y004898D02*
X027593Y004898D01*
X027593Y004800D02*
X026910Y004800D01*
X026910Y004701D02*
X027593Y004701D01*
X027593Y004602D02*
X026877Y004602D01*
X026832Y004504D02*
X027604Y004504D01*
X026825Y004012D02*
X026857Y003949D01*
X026879Y003882D01*
X026888Y003827D01*
X026490Y003827D01*
X026490Y004224D01*
X026546Y004216D01*
X026613Y004194D01*
X026676Y004161D01*
X026733Y004120D01*
X026784Y004070D01*
X026825Y004012D01*
X026826Y004011D02*
X030293Y004011D01*
X030391Y003913D02*
X026869Y003913D01*
X026886Y003716D02*
X030589Y003716D01*
X030687Y003617D02*
X026862Y003617D01*
X026809Y003518D02*
X030786Y003518D01*
X030884Y003420D02*
X026715Y003420D01*
X026490Y003420D02*
X026390Y003420D01*
X026390Y003518D02*
X026490Y003518D01*
X026490Y003617D02*
X026390Y003617D01*
X026390Y003716D02*
X026490Y003716D01*
X026440Y003777D02*
X027704Y002513D01*
X030662Y002513D01*
X030944Y002232D01*
X030944Y001804D01*
X030924Y001702D01*
X030974Y001745D02*
X031454Y001745D01*
X031371Y001752D02*
X031363Y001807D01*
X031341Y001875D01*
X031309Y001938D01*
X031267Y001995D01*
X031217Y002045D01*
X031160Y002087D01*
X031096Y002119D01*
X031029Y002141D01*
X030974Y002150D01*
X030974Y001752D01*
X031371Y001752D01*
X031351Y001843D02*
X031474Y001843D01*
X031514Y001942D02*
X031306Y001942D01*
X031222Y002040D02*
X031597Y002040D01*
X031702Y002139D02*
X031035Y002139D01*
X030974Y002139D02*
X030874Y002139D01*
X030874Y002150D02*
X030818Y002141D01*
X030751Y002119D01*
X030688Y002087D01*
X030631Y002045D01*
X030581Y001995D01*
X030539Y001938D01*
X030507Y001875D01*
X030485Y001807D01*
X030476Y001752D01*
X030874Y001752D01*
X030874Y002150D01*
X030812Y002139D02*
X030097Y002139D01*
X030250Y002040D02*
X030626Y002040D01*
X030542Y001942D02*
X030333Y001942D01*
X030374Y001843D02*
X030497Y001843D01*
X030394Y001745D02*
X030874Y001745D01*
X030874Y001752D02*
X030874Y001652D01*
X030974Y001652D01*
X030974Y001752D01*
X030874Y001752D01*
X030874Y001843D02*
X030974Y001843D01*
X030974Y001942D02*
X030874Y001942D01*
X030874Y002040D02*
X030974Y002040D01*
X030974Y001652D02*
X031371Y001652D01*
X031363Y001597D01*
X031341Y001529D01*
X031309Y001466D01*
X031267Y001409D01*
X031217Y001359D01*
X031160Y001317D01*
X031096Y001285D01*
X031029Y001263D01*
X030974Y001254D01*
X030974Y001652D01*
X030974Y001646D02*
X030874Y001646D01*
X030874Y001652D02*
X030874Y001254D01*
X030818Y001263D01*
X030751Y001285D01*
X030688Y001317D01*
X030631Y001359D01*
X030581Y001409D01*
X030539Y001466D01*
X030507Y001529D01*
X030485Y001597D01*
X030476Y001652D01*
X030874Y001652D01*
X030874Y001548D02*
X030974Y001548D01*
X030974Y001449D02*
X030874Y001449D01*
X030874Y001351D02*
X030974Y001351D01*
X031206Y001351D02*
X031611Y001351D01*
X031520Y001449D02*
X031296Y001449D01*
X031347Y001548D02*
X031479Y001548D01*
X031454Y001646D02*
X031370Y001646D01*
X031922Y001704D02*
X031924Y001702D01*
X031922Y001704D02*
X031922Y002693D01*
X030255Y004360D01*
X030255Y006723D01*
X030235Y007818D01*
X030027Y007818D01*
X029082Y008763D01*
X029072Y008763D01*
X029068Y008767D01*
X029068Y010647D01*
X029390Y010515D02*
X030079Y010515D01*
X029981Y010614D02*
X029416Y010614D01*
X029416Y010712D02*
X029736Y010712D01*
X029602Y010811D02*
X029377Y010811D01*
X029299Y010909D02*
X029546Y010909D01*
X029872Y011033D02*
X030472Y010433D01*
X030472Y004823D01*
X032922Y002373D01*
X032922Y001704D01*
X032924Y001702D01*
X033250Y002040D02*
X033754Y002040D01*
X033656Y001942D02*
X033333Y001942D01*
X033374Y001843D02*
X033557Y001843D01*
X033459Y001745D02*
X033394Y001745D01*
X033142Y002139D02*
X033853Y002139D01*
X033951Y002237D02*
X033142Y002237D01*
X033142Y002336D02*
X034050Y002336D01*
X034149Y002434D02*
X033142Y002434D01*
X033073Y002533D02*
X034247Y002533D01*
X034312Y002632D02*
X032975Y002632D01*
X032876Y002730D02*
X034311Y002730D01*
X034311Y002829D02*
X032778Y002829D01*
X032679Y002927D02*
X034310Y002927D01*
X034309Y003026D02*
X032581Y003026D01*
X032482Y003124D02*
X034309Y003124D01*
X034308Y003223D02*
X032384Y003223D01*
X032285Y003321D02*
X034308Y003321D01*
X034307Y003420D02*
X032186Y003420D01*
X032088Y003518D02*
X034307Y003518D01*
X034306Y003617D02*
X031989Y003617D01*
X031891Y003716D02*
X034306Y003716D01*
X034305Y003814D02*
X031792Y003814D01*
X031694Y003913D02*
X034305Y003913D01*
X034304Y004011D02*
X031595Y004011D01*
X031497Y004110D02*
X034304Y004110D01*
X034303Y004208D02*
X031398Y004208D01*
X031300Y004307D02*
X034303Y004307D01*
X034302Y004405D02*
X031201Y004405D01*
X031102Y004504D02*
X033453Y004504D01*
X033378Y004602D02*
X031004Y004602D01*
X030905Y004701D02*
X033341Y004701D01*
X033341Y004800D02*
X031958Y004800D01*
X032032Y004898D02*
X033369Y004898D01*
X033432Y004997D02*
X032068Y004997D01*
X032068Y005095D02*
X033452Y005095D01*
X033452Y005194D02*
X032039Y005194D01*
X031974Y005292D02*
X033258Y005292D01*
X033187Y005391D02*
X031939Y005391D01*
X031939Y005489D02*
X032805Y005489D01*
X032706Y005588D02*
X032148Y005588D01*
X032199Y005686D02*
X032608Y005686D01*
X032642Y005963D02*
X032922Y005683D01*
X033682Y005683D01*
X033672Y005673D01*
X033672Y004778D01*
X033689Y004761D01*
X034009Y004898D02*
X034299Y004898D01*
X034300Y004800D02*
X034038Y004800D01*
X034038Y004701D02*
X034300Y004701D01*
X034301Y004602D02*
X034001Y004602D01*
X033925Y004504D02*
X034301Y004504D01*
X034761Y004504D02*
X035543Y004504D01*
X035543Y004602D02*
X034761Y004602D01*
X034760Y004701D02*
X035543Y004701D01*
X035543Y004800D02*
X034760Y004800D01*
X034759Y004898D02*
X035543Y004898D01*
X035543Y004997D02*
X034759Y004997D01*
X034758Y005095D02*
X035543Y005095D01*
X035543Y005194D02*
X034758Y005194D01*
X034757Y005292D02*
X035543Y005292D01*
X035543Y005391D02*
X034757Y005391D01*
X034756Y005489D02*
X035543Y005489D01*
X035543Y005588D02*
X034756Y005588D01*
X034755Y005686D02*
X035543Y005686D01*
X035543Y005785D02*
X034755Y005785D01*
X034754Y005884D02*
X035543Y005884D01*
X035543Y005982D02*
X034754Y005982D01*
X034753Y006081D02*
X035543Y006081D01*
X035543Y006179D02*
X034752Y006179D01*
X034752Y006278D02*
X035543Y006278D01*
X035543Y006376D02*
X034683Y006376D01*
X034584Y006475D02*
X035543Y006475D01*
X035543Y006573D02*
X034470Y006573D01*
X034157Y006672D02*
X035543Y006672D01*
X035543Y006770D02*
X034150Y006770D01*
X033892Y006869D02*
X035543Y006869D01*
X035543Y006967D02*
X033892Y006967D01*
X033892Y007066D02*
X035543Y007066D01*
X035543Y007165D02*
X033892Y007165D01*
X033813Y007263D02*
X035543Y007263D01*
X035543Y007362D02*
X033715Y007362D01*
X033616Y007460D02*
X035543Y007460D01*
X035543Y007559D02*
X033518Y007559D01*
X033419Y007657D02*
X035543Y007657D01*
X035543Y007756D02*
X033321Y007756D01*
X033222Y007854D02*
X035543Y007854D01*
X035543Y007953D02*
X031645Y007953D01*
X031422Y007703D02*
X031412Y007693D01*
X031422Y007703D02*
X033062Y007703D01*
X033672Y007093D01*
X033672Y006437D01*
X033187Y006475D02*
X032907Y006475D01*
X032977Y006573D02*
X033187Y006573D01*
X033187Y006672D02*
X033011Y006672D01*
X033011Y006770D02*
X033194Y006770D01*
X032979Y006869D02*
X033452Y006869D01*
X033452Y006967D02*
X032911Y006967D01*
X032745Y007066D02*
X033388Y007066D01*
X033290Y007165D02*
X030692Y007165D01*
X030692Y007263D02*
X033191Y007263D01*
X033092Y007362D02*
X031523Y007362D01*
X031672Y007460D02*
X032994Y007460D01*
X032580Y007066D02*
X032171Y007066D01*
X032199Y006967D02*
X032414Y006967D01*
X032662Y006723D02*
X032652Y006713D01*
X031714Y006713D01*
X032199Y006475D02*
X032418Y006475D01*
X032589Y006376D02*
X032189Y006376D01*
X032199Y006278D02*
X033187Y006278D01*
X033187Y006376D02*
X032736Y006376D01*
X032737Y006179D02*
X033187Y006179D01*
X033217Y006081D02*
X032836Y006081D01*
X032934Y005982D02*
X033187Y005982D01*
X032642Y005963D02*
X031715Y005963D01*
X031714Y005965D01*
X031719Y005959D01*
X031719Y005054D01*
X031400Y005194D02*
X030692Y005194D01*
X030692Y005292D02*
X031465Y005292D01*
X031499Y005391D02*
X030692Y005391D01*
X030692Y005489D02*
X031499Y005489D01*
X031279Y005588D02*
X030692Y005588D01*
X030692Y005686D02*
X031229Y005686D01*
X031229Y005785D02*
X030692Y005785D01*
X030692Y005884D02*
X031229Y005884D01*
X031229Y005982D02*
X030692Y005982D01*
X030692Y006081D02*
X031229Y006081D01*
X031229Y006179D02*
X030692Y006179D01*
X030692Y006278D02*
X031229Y006278D01*
X031239Y006376D02*
X030692Y006376D01*
X030692Y006475D02*
X031229Y006475D01*
X031229Y006573D02*
X030692Y006573D01*
X030692Y006672D02*
X031229Y006672D01*
X031229Y006770D02*
X030692Y006770D01*
X030692Y006869D02*
X031229Y006869D01*
X031229Y006967D02*
X030692Y006967D01*
X030692Y007066D02*
X031256Y007066D01*
X031302Y007362D02*
X030692Y007362D01*
X030692Y007460D02*
X031152Y007460D01*
X031091Y007559D02*
X030692Y007559D01*
X030692Y007657D02*
X031064Y007657D01*
X031064Y007756D02*
X030692Y007756D01*
X030692Y007854D02*
X031102Y007854D01*
X031179Y007953D02*
X030692Y007953D01*
X030692Y008051D02*
X035543Y008051D01*
X035543Y008150D02*
X030692Y008150D01*
X030692Y008249D02*
X035543Y008249D01*
X035543Y008347D02*
X030692Y008347D01*
X030692Y008446D02*
X031417Y008446D01*
X031435Y008428D02*
X031563Y008375D01*
X031702Y008375D01*
X031830Y008428D01*
X031895Y008493D01*
X032339Y008493D01*
X032415Y008418D01*
X032543Y008365D01*
X032682Y008365D01*
X032810Y008418D01*
X032908Y008516D01*
X032961Y008644D01*
X032961Y008782D01*
X032908Y008910D01*
X032810Y009008D01*
X032682Y009061D01*
X032543Y009061D01*
X032415Y009008D01*
X032339Y008933D01*
X031915Y008933D01*
X031830Y009018D01*
X031702Y009071D01*
X031563Y009071D01*
X031435Y009018D01*
X031337Y008920D01*
X031284Y008792D01*
X031284Y008654D01*
X031337Y008526D01*
X031435Y008428D01*
X031329Y008544D02*
X030692Y008544D01*
X030692Y008643D02*
X031288Y008643D01*
X031284Y008741D02*
X030692Y008741D01*
X030692Y008840D02*
X031304Y008840D01*
X031355Y008938D02*
X030692Y008938D01*
X030692Y009037D02*
X031480Y009037D01*
X031785Y009037D02*
X032484Y009037D01*
X032345Y008938D02*
X031910Y008938D01*
X031642Y008713D02*
X032612Y008713D01*
X032741Y009037D02*
X035543Y009037D01*
X035543Y009135D02*
X030692Y009135D01*
X030692Y009234D02*
X035543Y009234D01*
X035543Y009333D02*
X030692Y009333D01*
X030692Y009431D02*
X035543Y009431D01*
X035543Y009530D02*
X030692Y009530D01*
X030692Y009628D02*
X035543Y009628D01*
X035543Y009727D02*
X030692Y009727D01*
X030692Y009825D02*
X035543Y009825D01*
X035369Y010188D02*
X035369Y016367D01*
X035332Y016403D01*
X035017Y016377D02*
X034989Y016405D01*
X033719Y014283D02*
X033719Y013346D01*
X033715Y013342D01*
X035149Y011303D02*
X030095Y011303D01*
X030178Y011205D02*
X035149Y011205D01*
X035149Y011106D02*
X030219Y011106D01*
X030221Y011008D02*
X035149Y011008D01*
X035149Y010909D02*
X030307Y010909D01*
X030406Y010811D02*
X035149Y010811D01*
X035149Y010712D02*
X030504Y010712D01*
X030563Y010653D02*
X030563Y010653D01*
X030603Y010614D02*
X035149Y010614D01*
X035149Y010515D02*
X030692Y010515D01*
X030692Y010416D02*
X035104Y010416D01*
X035045Y010318D02*
X030692Y010318D01*
X030692Y010219D02*
X035020Y010219D01*
X035020Y010121D02*
X030692Y010121D01*
X030692Y010022D02*
X035060Y010022D01*
X035140Y009924D02*
X030692Y009924D01*
X030252Y009924D02*
X029288Y009924D01*
X029288Y010022D02*
X030252Y010022D01*
X030252Y010121D02*
X029288Y010121D01*
X029288Y010219D02*
X030252Y010219D01*
X030252Y010318D02*
X029288Y010318D01*
X029330Y010416D02*
X030178Y010416D01*
X030252Y009825D02*
X029288Y009825D01*
X029288Y009727D02*
X030252Y009727D01*
X030252Y009628D02*
X029288Y009628D01*
X029288Y009530D02*
X030252Y009530D01*
X030252Y009431D02*
X029288Y009431D01*
X029288Y009333D02*
X030252Y009333D01*
X030252Y009234D02*
X029288Y009234D01*
X029288Y009135D02*
X030252Y009135D01*
X030252Y009037D02*
X029288Y009037D01*
X029288Y008938D02*
X030252Y008938D01*
X030252Y008840D02*
X029317Y008840D01*
X029415Y008741D02*
X030252Y008741D01*
X030252Y008643D02*
X029514Y008643D01*
X029612Y008544D02*
X030252Y008544D01*
X030252Y008446D02*
X029711Y008446D01*
X029809Y008347D02*
X030252Y008347D01*
X030252Y008249D02*
X029908Y008249D01*
X030006Y008150D02*
X030252Y008150D01*
X030252Y008051D02*
X030105Y008051D01*
X029778Y007756D02*
X028507Y007756D01*
X028527Y007657D02*
X029877Y007657D01*
X030020Y007559D02*
X028527Y007559D01*
X028527Y007460D02*
X030021Y007460D01*
X030023Y007362D02*
X028527Y007362D01*
X028440Y007263D02*
X029138Y007263D01*
X029131Y007252D02*
X029121Y007214D01*
X029121Y006988D01*
X029536Y006988D01*
X029536Y007344D01*
X029251Y007344D01*
X029213Y007334D01*
X029179Y007314D01*
X029151Y007286D01*
X029131Y007252D01*
X029121Y007165D02*
X028390Y007165D01*
X028489Y007066D02*
X029121Y007066D01*
X029121Y006869D02*
X028527Y006869D01*
X028527Y006967D02*
X029536Y006967D01*
X029536Y007066D02*
X029636Y007066D01*
X029636Y007165D02*
X029536Y007165D01*
X029536Y007263D02*
X029636Y007263D01*
X029680Y007854D02*
X028409Y007854D01*
X028310Y007953D02*
X029581Y007953D01*
X029121Y006770D02*
X028527Y006770D01*
X028527Y006672D02*
X029121Y006672D01*
X029158Y006573D02*
X028459Y006573D01*
X028360Y006475D02*
X029101Y006475D01*
X029101Y006376D02*
X028441Y006376D01*
X028507Y006278D02*
X029101Y006278D01*
X029101Y006179D02*
X028507Y006179D01*
X028507Y005982D02*
X029101Y005982D01*
X029101Y005884D02*
X028449Y005884D01*
X028352Y005785D02*
X029180Y005785D01*
X029366Y005686D02*
X028451Y005686D01*
X028527Y005588D02*
X029366Y005588D01*
X029366Y005489D02*
X028527Y005489D01*
X028527Y005391D02*
X029350Y005391D01*
X029252Y005292D02*
X028527Y005292D01*
X028496Y005194D02*
X029153Y005194D01*
X029055Y005095D02*
X028398Y005095D01*
X028432Y004997D02*
X028956Y004997D01*
X028978Y004708D02*
X028061Y004708D01*
X028060Y004709D01*
X028417Y004405D02*
X030035Y004405D01*
X030035Y004307D02*
X028318Y004307D01*
X028978Y004708D02*
X029586Y005315D01*
X029586Y006190D01*
X029101Y006081D02*
X028108Y006081D01*
X028011Y006081D02*
X026766Y006081D01*
X026766Y006179D02*
X027613Y006179D01*
X027613Y006278D02*
X026851Y006278D01*
X026949Y006376D02*
X027678Y006376D01*
X027759Y006475D02*
X027048Y006475D01*
X026766Y005982D02*
X027613Y005982D01*
X027670Y005884D02*
X026766Y005884D01*
X026766Y005785D02*
X027767Y005785D01*
X027669Y005686D02*
X026766Y005686D01*
X026766Y005588D02*
X027593Y005588D01*
X027593Y005489D02*
X026766Y005489D01*
X026766Y005391D02*
X027593Y005391D01*
X027593Y005292D02*
X026766Y005292D01*
X026766Y005194D02*
X027623Y005194D01*
X026707Y004378D02*
X026534Y004307D01*
X026568Y004208D02*
X030096Y004208D01*
X030194Y004110D02*
X026744Y004110D01*
X026490Y004110D02*
X026390Y004110D01*
X026390Y004208D02*
X026490Y004208D01*
X026346Y004307D02*
X026044Y004307D01*
X026044Y004405D02*
X026147Y004405D01*
X026048Y004504D02*
X026044Y004504D01*
X026044Y004208D02*
X026313Y004208D01*
X026137Y004110D02*
X026044Y004110D01*
X026044Y004011D02*
X026055Y004011D01*
X026390Y004011D02*
X026490Y004011D01*
X026490Y003913D02*
X026390Y003913D01*
X026490Y003814D02*
X030490Y003814D01*
X030983Y003321D02*
X026044Y003321D01*
X026044Y003223D02*
X031081Y003223D01*
X031180Y003124D02*
X026044Y003124D01*
X026044Y003026D02*
X031278Y003026D01*
X031377Y002927D02*
X026044Y002927D01*
X026044Y002829D02*
X031475Y002829D01*
X031574Y002730D02*
X026043Y002730D01*
X026043Y002632D02*
X031673Y002632D01*
X031702Y002533D02*
X026043Y002533D01*
X026043Y002434D02*
X026139Y002434D01*
X026946Y002434D02*
X031702Y002434D01*
X031702Y002336D02*
X027128Y002336D01*
X027264Y002237D02*
X031702Y002237D01*
X030642Y001351D02*
X030237Y001351D01*
X030328Y001449D02*
X030551Y001449D01*
X030501Y001548D02*
X030369Y001548D01*
X030394Y001646D02*
X030477Y001646D01*
X029750Y002139D02*
X029097Y002139D01*
X029250Y002040D02*
X029597Y002040D01*
X029514Y001942D02*
X029333Y001942D01*
X029374Y001843D02*
X029474Y001843D01*
X029454Y001745D02*
X029394Y001745D01*
X029394Y001646D02*
X029454Y001646D01*
X029479Y001548D02*
X029368Y001548D01*
X029421Y001449D02*
X029520Y001449D01*
X029520Y001351D02*
X029611Y001351D01*
X029619Y001252D02*
X029782Y001252D01*
X030065Y001252D02*
X031782Y001252D01*
X029067Y001153D02*
X027614Y001153D01*
X027640Y001252D02*
X028782Y001252D01*
X028611Y001351D02*
X027642Y001351D01*
X027642Y001449D02*
X028520Y001449D01*
X028479Y001548D02*
X027642Y001548D01*
X027616Y001646D02*
X028454Y001646D01*
X028454Y001745D02*
X027590Y001745D01*
X027559Y001843D02*
X028474Y001843D01*
X028514Y001942D02*
X027502Y001942D01*
X027445Y002040D02*
X028597Y002040D01*
X028750Y002139D02*
X027363Y002139D01*
X026166Y003420D02*
X026044Y003420D01*
X026044Y003518D02*
X026072Y003518D01*
X024852Y003518D02*
X015022Y003518D01*
X015022Y003420D02*
X024852Y003420D01*
X024852Y003321D02*
X015022Y003321D01*
X015022Y003223D02*
X024852Y003223D01*
X024852Y003124D02*
X015022Y003124D01*
X015022Y003026D02*
X024852Y003026D01*
X024852Y002927D02*
X015022Y002927D01*
X015022Y002829D02*
X024852Y002829D01*
X024852Y002730D02*
X015022Y002730D01*
X015022Y002632D02*
X024852Y002632D01*
X024852Y002533D02*
X024591Y002533D01*
X024476Y002564D02*
X024187Y002564D01*
X023907Y002489D01*
X023656Y002344D01*
X023451Y002139D01*
X015022Y002139D01*
X015022Y002237D02*
X023550Y002237D01*
X023451Y002139D02*
X023307Y001888D01*
X023232Y001608D01*
X023232Y001319D01*
X023307Y001039D01*
X023333Y000994D01*
X015022Y000994D01*
X015022Y010461D01*
X023348Y010460D01*
X023307Y010388D01*
X023232Y010108D01*
X023232Y009819D01*
X023307Y009539D01*
X023451Y009288D01*
X023656Y009083D01*
X023907Y008939D01*
X024187Y008864D01*
X024476Y008864D01*
X024756Y008939D01*
X024852Y008994D01*
X024852Y002433D01*
X024756Y002489D01*
X024476Y002564D01*
X024850Y002434D02*
X024852Y002434D01*
X024073Y002533D02*
X015022Y002533D01*
X015022Y002434D02*
X023813Y002434D01*
X023648Y002336D02*
X015022Y002336D01*
X015022Y002040D02*
X023394Y002040D01*
X023338Y001942D02*
X015022Y001942D01*
X015022Y001843D02*
X023295Y001843D01*
X023268Y001745D02*
X015022Y001745D01*
X015022Y001646D02*
X023242Y001646D01*
X023232Y001548D02*
X015022Y001548D01*
X015022Y001449D02*
X023232Y001449D01*
X023232Y001351D02*
X015022Y001351D01*
X015022Y001252D02*
X023250Y001252D01*
X023276Y001153D02*
X015022Y001153D01*
X015022Y001055D02*
X023302Y001055D01*
X024852Y003617D02*
X015022Y003617D01*
X015022Y003716D02*
X024852Y003716D01*
X024852Y003814D02*
X015022Y003814D01*
X015022Y003913D02*
X024852Y003913D01*
X024852Y004011D02*
X015022Y004011D01*
X015022Y004110D02*
X024852Y004110D01*
X024852Y004208D02*
X015022Y004208D01*
X015022Y004307D02*
X024852Y004307D01*
X024852Y004405D02*
X015022Y004405D01*
X015022Y004504D02*
X024852Y004504D01*
X024852Y004602D02*
X015022Y004602D01*
X015022Y004701D02*
X024852Y004701D01*
X024852Y004800D02*
X015022Y004800D01*
X015022Y004898D02*
X024852Y004898D01*
X024852Y004997D02*
X015022Y004997D01*
X015022Y005095D02*
X024852Y005095D01*
X024852Y005194D02*
X015022Y005194D01*
X015022Y005292D02*
X024852Y005292D01*
X024852Y005391D02*
X015022Y005391D01*
X015022Y005489D02*
X024852Y005489D01*
X024852Y005588D02*
X015022Y005588D01*
X015022Y005686D02*
X024852Y005686D01*
X024852Y005785D02*
X015022Y005785D01*
X015022Y005884D02*
X024852Y005884D01*
X024852Y005982D02*
X015022Y005982D01*
X015022Y006081D02*
X024852Y006081D01*
X024852Y006179D02*
X015022Y006179D01*
X015022Y006278D02*
X024852Y006278D01*
X024852Y006376D02*
X015022Y006376D01*
X015022Y006475D02*
X024852Y006475D01*
X024852Y006573D02*
X015022Y006573D01*
X015022Y006672D02*
X024852Y006672D01*
X024852Y006770D02*
X015022Y006770D01*
X015022Y006869D02*
X024852Y006869D01*
X024852Y006967D02*
X015022Y006967D01*
X015022Y007066D02*
X024852Y007066D01*
X024852Y007165D02*
X015022Y007165D01*
X015022Y007263D02*
X024852Y007263D01*
X024852Y007362D02*
X015022Y007362D01*
X015022Y007460D02*
X024852Y007460D01*
X024852Y007559D02*
X015022Y007559D01*
X015022Y007657D02*
X024852Y007657D01*
X024852Y007756D02*
X015022Y007756D01*
X015022Y007854D02*
X024852Y007854D01*
X024852Y007953D02*
X015022Y007953D01*
X015022Y008051D02*
X024852Y008051D01*
X024852Y008150D02*
X015022Y008150D01*
X015022Y008249D02*
X024852Y008249D01*
X024852Y008347D02*
X015022Y008347D01*
X015022Y008446D02*
X024852Y008446D01*
X024852Y008544D02*
X015022Y008544D01*
X015022Y008643D02*
X024852Y008643D01*
X024852Y008741D02*
X015022Y008741D01*
X015022Y008840D02*
X024852Y008840D01*
X024852Y008938D02*
X024755Y008938D01*
X023908Y008938D02*
X015022Y008938D01*
X015022Y009037D02*
X023737Y009037D01*
X023604Y009135D02*
X015022Y009135D01*
X015022Y009234D02*
X023506Y009234D01*
X023426Y009333D02*
X015022Y009333D01*
X015022Y009431D02*
X023369Y009431D01*
X023312Y009530D02*
X015022Y009530D01*
X015022Y009628D02*
X023283Y009628D01*
X023256Y009727D02*
X015022Y009727D01*
X015022Y009825D02*
X023232Y009825D01*
X023232Y009924D02*
X015022Y009924D01*
X015022Y010022D02*
X023232Y010022D01*
X023235Y010121D02*
X015022Y010121D01*
X015022Y010219D02*
X023261Y010219D01*
X023288Y010318D02*
X015022Y010318D01*
X015022Y010416D02*
X023323Y010416D01*
X023305Y011796D02*
X015022Y011796D01*
X015022Y011895D02*
X023278Y011895D01*
X023252Y011993D02*
X015022Y011993D01*
X015022Y012092D02*
X023232Y012092D01*
X023232Y012190D02*
X015022Y012190D01*
X014111Y013536D02*
X013175Y013536D01*
X013171Y013541D01*
X013327Y013570D02*
X007219Y013570D01*
X007318Y013668D02*
X013327Y013668D01*
X013327Y013767D02*
X007416Y013767D01*
X007515Y013866D02*
X013327Y013866D01*
X013327Y013964D02*
X007613Y013964D01*
X007712Y014063D02*
X013326Y014063D01*
X013326Y014161D02*
X007752Y014161D01*
X007752Y014260D02*
X013326Y014260D01*
X013326Y014358D02*
X008749Y014358D01*
X008739Y014348D02*
X008837Y014446D01*
X008890Y014574D01*
X008890Y014713D01*
X008837Y014841D01*
X008762Y014916D01*
X008762Y015341D01*
X008847Y015426D01*
X008900Y015554D01*
X008900Y015693D01*
X008847Y015821D01*
X008749Y015919D01*
X008621Y015972D01*
X008482Y015972D01*
X008354Y015919D01*
X008256Y015821D01*
X008203Y015693D01*
X008203Y015554D01*
X008256Y015426D01*
X008322Y015361D01*
X008322Y014916D01*
X008246Y014841D01*
X008193Y014713D01*
X008193Y014574D01*
X008246Y014446D01*
X008344Y014348D01*
X008472Y014295D01*
X008611Y014295D01*
X008739Y014348D01*
X008841Y014457D02*
X013326Y014457D01*
X013325Y014555D02*
X008882Y014555D01*
X008890Y014654D02*
X013325Y014654D01*
X013325Y014752D02*
X008874Y014752D01*
X008827Y014851D02*
X013325Y014851D01*
X013325Y014949D02*
X008762Y014949D01*
X008762Y015048D02*
X013324Y015048D01*
X013324Y015147D02*
X008762Y015147D01*
X008762Y015245D02*
X013324Y015245D01*
X013324Y015344D02*
X008764Y015344D01*
X008854Y015442D02*
X013324Y015442D01*
X013323Y015541D02*
X008894Y015541D01*
X008900Y015639D02*
X013323Y015639D01*
X013323Y015738D02*
X008881Y015738D01*
X008832Y015836D02*
X013323Y015836D01*
X013323Y015935D02*
X008711Y015935D01*
X008393Y015935D02*
X007861Y015935D01*
X007870Y015836D02*
X008272Y015836D01*
X008222Y015738D02*
X007855Y015738D01*
X007810Y015639D02*
X008203Y015639D01*
X008209Y015541D02*
X007752Y015541D01*
X007752Y015442D02*
X008250Y015442D01*
X008322Y015344D02*
X007752Y015344D01*
X007752Y015245D02*
X008322Y015245D01*
X008322Y015147D02*
X007752Y015147D01*
X007752Y015048D02*
X008322Y015048D01*
X008322Y014949D02*
X007752Y014949D01*
X007752Y014851D02*
X008256Y014851D01*
X008210Y014752D02*
X007752Y014752D01*
X007752Y014654D02*
X008193Y014654D01*
X008201Y014555D02*
X007752Y014555D01*
X007752Y014457D02*
X008242Y014457D01*
X008334Y014358D02*
X007752Y014358D01*
X007532Y014194D02*
X007532Y015834D01*
X007522Y015844D01*
X007173Y015836D02*
X006967Y015836D01*
X006967Y015738D02*
X007188Y015738D01*
X007233Y015639D02*
X006967Y015639D01*
X006967Y015541D02*
X007312Y015541D01*
X007312Y015442D02*
X006967Y015442D01*
X006967Y015344D02*
X007312Y015344D01*
X007312Y015245D02*
X006967Y015245D01*
X006957Y015147D02*
X007312Y015147D01*
X007312Y015048D02*
X006761Y015048D01*
X006761Y014949D02*
X007312Y014949D01*
X007312Y014851D02*
X006787Y014851D01*
X006863Y014752D02*
X007312Y014752D01*
X007312Y014654D02*
X006900Y014654D01*
X006900Y014555D02*
X007312Y014555D01*
X007312Y014457D02*
X006872Y014457D01*
X006809Y014358D02*
X007312Y014358D01*
X007287Y014260D02*
X006656Y014260D01*
X006598Y014063D02*
X007090Y014063D01*
X007188Y014161D02*
X005732Y014161D01*
X005749Y014260D02*
X006447Y014260D01*
X006294Y014358D02*
X005847Y014358D01*
X005946Y014457D02*
X006231Y014457D01*
X006203Y014555D02*
X006012Y014555D01*
X006012Y014654D02*
X006203Y014654D01*
X006240Y014752D02*
X006012Y014752D01*
X006012Y014851D02*
X006316Y014851D01*
X006321Y014949D02*
X006012Y014949D01*
X006012Y015048D02*
X006321Y015048D01*
X006541Y014604D02*
X006541Y015542D01*
X006960Y015935D02*
X007182Y015935D01*
X007223Y016033D02*
X004213Y016033D01*
X004114Y015935D02*
X005375Y015935D01*
X005367Y015836D02*
X005069Y015836D01*
X004883Y015536D02*
X005787Y015536D01*
X005793Y015542D01*
X005792Y015541D01*
X005792Y014614D01*
X005512Y014334D01*
X005512Y013574D01*
X005502Y013584D01*
X004606Y013584D01*
X004589Y013567D01*
X004241Y013570D02*
X001801Y013570D01*
X001899Y013471D02*
X004252Y013471D01*
X004292Y013373D02*
X001998Y013373D01*
X002096Y013274D02*
X004389Y013274D01*
X004790Y013274D02*
X005092Y013274D01*
X005114Y013176D02*
X002195Y013176D01*
X002293Y013077D02*
X006034Y013077D01*
X005944Y012979D02*
X002392Y012979D01*
X002427Y012484D02*
X002427Y012484D01*
X002324Y012387D02*
X013330Y012387D01*
X013330Y012289D02*
X002331Y012289D01*
X002756Y012486D02*
X013330Y012486D01*
X013329Y012584D02*
X006216Y012584D01*
X006136Y012504D02*
X006136Y012504D01*
X006315Y012683D02*
X013329Y012683D01*
X013329Y012782D02*
X006398Y012782D01*
X006494Y012880D02*
X013329Y012880D01*
X013329Y012979D02*
X006494Y012979D01*
X006494Y013077D02*
X013328Y013077D01*
X013328Y013176D02*
X006669Y013176D01*
X006692Y013274D02*
X013328Y013274D01*
X013328Y013373D02*
X007022Y013373D01*
X007120Y013471D02*
X013328Y013471D01*
X013330Y012190D02*
X010196Y012190D01*
X008542Y014644D02*
X008542Y015614D01*
X008552Y015624D01*
X007820Y016033D02*
X013322Y016033D01*
X013322Y016132D02*
X007726Y016132D01*
X007317Y016132D02*
X004311Y016132D01*
X004410Y016231D02*
X013322Y016231D01*
X013322Y016329D02*
X004508Y016329D01*
X004607Y016428D02*
X013322Y016428D01*
X013321Y016526D02*
X004705Y016526D01*
X004652Y016784D02*
X010262Y016784D01*
X010862Y017384D01*
X011186Y017512D02*
X013319Y017512D01*
X013319Y017610D02*
X011128Y017610D01*
X010987Y017709D02*
X013319Y017709D01*
X013319Y017807D02*
X008536Y017807D01*
X008438Y017709D02*
X010736Y017709D01*
X010595Y017610D02*
X008339Y017610D01*
X008241Y017512D02*
X010538Y017512D01*
X010513Y017413D02*
X008142Y017413D01*
X008044Y017315D02*
X010481Y017315D01*
X010383Y017216D02*
X007945Y017216D01*
X007867Y017117D02*
X010284Y017117D01*
X010186Y017019D02*
X007867Y017019D01*
X007647Y017021D02*
X007647Y017229D01*
X008592Y018174D01*
X008592Y018184D01*
X008595Y018188D01*
X010476Y018188D01*
X010824Y018201D02*
X013318Y018201D01*
X013318Y018103D02*
X010818Y018103D01*
X010777Y018004D02*
X013319Y018004D01*
X013319Y017906D02*
X010687Y017906D01*
X010807Y018300D02*
X013318Y018300D01*
X013318Y018399D02*
X010758Y018399D01*
X010640Y018497D02*
X013318Y018497D01*
X013317Y018596D02*
X004756Y018596D01*
X004756Y018694D02*
X013317Y018694D01*
X013317Y018793D02*
X007629Y018793D01*
X007727Y018891D02*
X013317Y018891D01*
X013316Y018990D02*
X007826Y018990D01*
X007839Y019088D02*
X013316Y019088D01*
X013316Y019187D02*
X007839Y019187D01*
X007839Y019285D02*
X013316Y019285D01*
X013316Y019384D02*
X007839Y019384D01*
X007746Y019482D02*
X013316Y019482D01*
X013315Y019581D02*
X007647Y019581D01*
X007097Y019581D02*
X007002Y019581D01*
X007002Y019680D02*
X013315Y019680D01*
X013315Y019778D02*
X007002Y019778D01*
X007002Y019877D02*
X013315Y019877D01*
X013315Y019975D02*
X007002Y019975D01*
X007002Y020074D02*
X013314Y020074D01*
X013314Y020172D02*
X007002Y020172D01*
X007002Y020271D02*
X013314Y020271D01*
X013314Y020369D02*
X007002Y020369D01*
X006962Y020468D02*
X013314Y020468D01*
X013313Y020566D02*
X006879Y020566D01*
X006780Y020665D02*
X013313Y020665D01*
X013313Y020764D02*
X006681Y020764D01*
X006583Y020862D02*
X013313Y020862D01*
X013313Y020961D02*
X006484Y020961D01*
X006386Y021059D02*
X013312Y021059D01*
X013312Y021158D02*
X004928Y021158D01*
X004337Y021212D02*
X004207Y021082D01*
X004135Y020909D01*
X004135Y020722D01*
X004207Y020549D01*
X004339Y020417D01*
X004512Y020346D01*
X004699Y020346D01*
X004871Y020417D01*
X004944Y020490D01*
X006022Y020490D01*
X006342Y020170D01*
X006342Y019535D01*
X006295Y019488D01*
X006140Y019643D01*
X006003Y019643D01*
X006003Y019245D01*
X005906Y019245D01*
X005906Y019643D01*
X005770Y019643D01*
X005614Y019488D01*
X005439Y019663D01*
X005053Y019663D01*
X004892Y019502D01*
X004731Y019663D01*
X004344Y019663D01*
X004071Y019389D01*
X004071Y019003D01*
X004316Y018757D01*
X004316Y018186D01*
X004445Y018058D01*
X005053Y017450D01*
X005235Y017450D01*
X005593Y017450D01*
X005593Y017285D01*
X005656Y017221D01*
X004280Y017221D01*
X004098Y017221D01*
X002431Y015554D01*
X001948Y015554D01*
X001929Y015598D01*
X001797Y015731D01*
X001624Y015802D01*
X001437Y015802D01*
X001264Y015731D01*
X001132Y015598D01*
X001062Y015428D01*
X001062Y017236D01*
X001132Y017066D01*
X001264Y016934D01*
X001437Y016862D01*
X001624Y016862D01*
X001797Y016934D01*
X001929Y017066D01*
X002001Y017239D01*
X002001Y017426D01*
X001929Y017598D01*
X001797Y017731D01*
X001624Y017802D01*
X001437Y017802D01*
X001264Y017731D01*
X001132Y017598D01*
X001062Y017428D01*
X001062Y017618D01*
X001344Y017901D01*
X001437Y017862D01*
X001624Y017862D01*
X001797Y017934D01*
X001929Y018066D01*
X002001Y018239D01*
X002001Y018426D01*
X001929Y018598D01*
X001797Y018731D01*
X001624Y018802D01*
X001437Y018802D01*
X001264Y018731D01*
X001132Y018598D01*
X001061Y018426D01*
X001061Y018268D01*
X000925Y018132D01*
X000919Y019659D01*
X001088Y019614D01*
X001377Y019614D01*
X001657Y019689D01*
X001908Y019833D01*
X002113Y020038D01*
X002257Y020289D01*
X002332Y020569D01*
X002332Y020858D01*
X002257Y021138D01*
X002215Y021212D01*
X003393Y021212D01*
X003369Y021200D01*
X003312Y021159D01*
X003262Y021109D01*
X003220Y021051D01*
X003188Y020988D01*
X003166Y020921D01*
X003158Y020866D01*
X003555Y020866D01*
X003555Y020766D01*
X003158Y020766D01*
X003166Y020710D01*
X003188Y020643D01*
X003220Y020580D01*
X003262Y020522D01*
X003312Y020472D01*
X003369Y020431D01*
X003433Y020399D01*
X003500Y020377D01*
X003555Y020368D01*
X003555Y020765D01*
X003655Y020765D01*
X003655Y020368D01*
X003711Y020377D01*
X003778Y020399D01*
X003841Y020431D01*
X003898Y020472D01*
X003949Y020522D01*
X003990Y020580D01*
X004022Y020643D01*
X004044Y020710D01*
X004053Y020766D01*
X003655Y020766D01*
X003655Y020866D01*
X004053Y020866D01*
X004044Y020921D01*
X004022Y020988D01*
X003990Y021051D01*
X003949Y021109D01*
X003898Y021159D01*
X003841Y021200D01*
X003818Y021212D01*
X004337Y021212D01*
X004283Y021158D02*
X003899Y021158D01*
X003984Y021059D02*
X004197Y021059D01*
X004157Y020961D02*
X004031Y020961D01*
X004135Y020862D02*
X003655Y020862D01*
X003605Y020816D02*
X002342Y019552D01*
X002342Y016594D01*
X002060Y016312D01*
X001633Y016312D01*
X001531Y016332D01*
X001581Y016329D02*
X003206Y016329D01*
X003107Y016231D02*
X001970Y016231D01*
X001970Y016227D02*
X001978Y016282D01*
X001581Y016282D01*
X001581Y016382D01*
X001978Y016382D01*
X001970Y016437D01*
X001948Y016505D01*
X001916Y016568D01*
X001874Y016625D01*
X001824Y016675D01*
X001766Y016717D01*
X001703Y016749D01*
X001636Y016771D01*
X001581Y016780D01*
X001581Y016382D01*
X001481Y016382D01*
X001481Y016780D01*
X001425Y016771D01*
X001358Y016749D01*
X001295Y016717D01*
X001238Y016675D01*
X001187Y016625D01*
X001062Y016625D01*
X001062Y016723D02*
X001307Y016723D01*
X001187Y016625D02*
X001146Y016568D01*
X001114Y016505D01*
X001092Y016437D01*
X001083Y016382D01*
X001480Y016382D01*
X001480Y016282D01*
X001083Y016282D01*
X001092Y016227D01*
X001114Y016159D01*
X001146Y016096D01*
X001187Y016039D01*
X001238Y015989D01*
X001295Y015947D01*
X001358Y015915D01*
X001425Y015893D01*
X001481Y015884D01*
X001481Y016282D01*
X001581Y016282D01*
X001581Y015884D01*
X001636Y015893D01*
X001703Y015915D01*
X001766Y015947D01*
X001824Y015989D01*
X001874Y016039D01*
X001916Y016096D01*
X001948Y016159D01*
X001970Y016227D01*
X001934Y016132D02*
X003009Y016132D01*
X002910Y016033D02*
X001868Y016033D01*
X001742Y015935D02*
X002812Y015935D01*
X002713Y015836D02*
X001062Y015836D01*
X001062Y015738D02*
X001282Y015738D01*
X001173Y015639D02*
X001062Y015639D01*
X001062Y015541D02*
X001108Y015541D01*
X001068Y015442D02*
X001062Y015442D01*
X001531Y015332D02*
X001532Y015334D01*
X002522Y015334D01*
X004189Y017001D01*
X006552Y017001D01*
X007647Y017021D01*
X007427Y017315D02*
X007167Y017315D01*
X007173Y017413D02*
X007520Y017413D01*
X007619Y017512D02*
X007173Y017512D01*
X007173Y017610D02*
X007717Y017610D01*
X007816Y017709D02*
X006817Y017709D01*
X006817Y017807D02*
X006717Y017807D01*
X006717Y017906D02*
X006817Y017906D01*
X006817Y018004D02*
X006717Y018004D01*
X006717Y018103D02*
X006817Y018103D01*
X007117Y018103D02*
X008210Y018103D01*
X008308Y018201D02*
X004923Y018201D01*
X005022Y018103D02*
X005640Y018103D01*
X005593Y018004D02*
X005121Y018004D01*
X005219Y017906D02*
X005593Y017906D01*
X006019Y017670D02*
X005144Y017670D01*
X004536Y018278D01*
X004536Y019195D01*
X004537Y019196D01*
X004071Y019187D02*
X000921Y019187D01*
X000920Y019285D02*
X004071Y019285D01*
X004071Y019384D02*
X000920Y019384D01*
X000919Y019482D02*
X004164Y019482D01*
X004262Y019581D02*
X000919Y019581D01*
X000921Y019088D02*
X004071Y019088D01*
X004083Y018990D02*
X000921Y018990D01*
X000922Y018891D02*
X004182Y018891D01*
X004281Y018793D02*
X001647Y018793D01*
X001833Y018694D02*
X004316Y018694D01*
X004316Y018596D02*
X001930Y018596D01*
X001971Y018497D02*
X004316Y018497D01*
X004316Y018399D02*
X002001Y018399D01*
X002001Y018300D02*
X004316Y018300D01*
X004316Y018201D02*
X001985Y018201D01*
X001944Y018103D02*
X004400Y018103D01*
X004498Y018004D02*
X001868Y018004D01*
X001730Y017906D02*
X004597Y017906D01*
X004695Y017807D02*
X001250Y017807D01*
X001243Y017709D02*
X001152Y017709D01*
X001144Y017610D02*
X001062Y017610D01*
X001062Y017512D02*
X001096Y017512D01*
X001062Y017216D02*
X001070Y017216D01*
X001062Y017117D02*
X001111Y017117D01*
X001062Y017019D02*
X001179Y017019D01*
X001062Y016920D02*
X001297Y016920D01*
X001062Y016822D02*
X003699Y016822D01*
X003797Y016920D02*
X001765Y016920D01*
X001882Y017019D02*
X003896Y017019D01*
X003994Y017117D02*
X001950Y017117D01*
X001991Y017216D02*
X004093Y017216D01*
X004652Y016784D02*
X002202Y014334D01*
X001532Y014334D01*
X001531Y014332D01*
X001827Y013964D02*
X005092Y013964D01*
X005092Y013866D02*
X004778Y013866D01*
X004400Y013866D02*
X001632Y013866D01*
X001603Y013767D02*
X004297Y013767D01*
X004254Y013668D02*
X001702Y013668D01*
X001926Y014063D02*
X005185Y014063D01*
X005292Y014161D02*
X002340Y014161D01*
X002439Y014260D02*
X005292Y014260D01*
X005292Y014358D02*
X002537Y014358D01*
X002636Y014457D02*
X005324Y014457D01*
X005422Y014555D02*
X002734Y014555D01*
X002833Y014654D02*
X005521Y014654D01*
X005572Y014752D02*
X002932Y014752D01*
X003030Y014851D02*
X005572Y014851D01*
X005572Y014949D02*
X003129Y014949D01*
X003227Y015048D02*
X005572Y015048D01*
X005378Y015147D02*
X003326Y015147D01*
X003424Y015245D02*
X004681Y015245D01*
X004586Y015344D02*
X003523Y015344D01*
X003621Y015442D02*
X004545Y015442D01*
X004534Y015541D02*
X003720Y015541D01*
X003818Y015639D02*
X004548Y015639D01*
X004591Y015738D02*
X003917Y015738D01*
X004016Y015836D02*
X004696Y015836D01*
X005084Y015245D02*
X005367Y015245D01*
X005850Y014063D02*
X005933Y014063D01*
X006266Y013584D02*
X006922Y013584D01*
X007532Y014194D01*
X006991Y013964D02*
X006692Y013964D01*
X006692Y013866D02*
X006892Y013866D01*
X006552Y014594D02*
X006541Y014604D01*
X005518Y013584D02*
X005502Y013584D01*
X002615Y015738D02*
X001779Y015738D01*
X001888Y015639D02*
X002516Y015639D01*
X001971Y016428D02*
X003305Y016428D01*
X003403Y016526D02*
X001937Y016526D01*
X001874Y016625D02*
X003502Y016625D01*
X003600Y016723D02*
X001754Y016723D01*
X001581Y016723D02*
X001481Y016723D01*
X001481Y016625D02*
X001581Y016625D01*
X001581Y016526D02*
X001481Y016526D01*
X001481Y016428D02*
X001581Y016428D01*
X001480Y016329D02*
X001062Y016329D01*
X001062Y016231D02*
X001091Y016231D01*
X001062Y016132D02*
X001128Y016132D01*
X001062Y016033D02*
X001193Y016033D01*
X001319Y015935D02*
X001062Y015935D01*
X001481Y015935D02*
X001581Y015935D01*
X001581Y016033D02*
X001481Y016033D01*
X001481Y016132D02*
X001581Y016132D01*
X001581Y016231D02*
X001481Y016231D01*
X001090Y016428D02*
X001062Y016428D01*
X001062Y016526D02*
X001125Y016526D01*
X002001Y017315D02*
X005593Y017315D01*
X005593Y017413D02*
X002001Y017413D01*
X001965Y017512D02*
X004991Y017512D01*
X004892Y017610D02*
X001917Y017610D01*
X001819Y017709D02*
X004794Y017709D01*
X004825Y018300D02*
X008396Y018300D01*
X008495Y018399D02*
X004756Y018399D01*
X004756Y018497D02*
X010312Y018497D01*
X010832Y018572D02*
X010911Y018493D01*
X010265Y017906D02*
X008635Y017906D01*
X008111Y018004D02*
X007173Y018004D01*
X007173Y017906D02*
X008013Y017906D01*
X007914Y017807D02*
X007173Y017807D01*
X006417Y018103D02*
X006397Y018103D01*
X006407Y018793D02*
X006183Y018793D01*
X006282Y018891D02*
X006308Y018891D01*
X006003Y018891D02*
X005906Y018891D01*
X005906Y018793D02*
X006003Y018793D01*
X006003Y018990D02*
X005906Y018990D01*
X005906Y019088D02*
X006003Y019088D01*
X006003Y019285D02*
X005906Y019285D01*
X005906Y019384D02*
X006003Y019384D01*
X006003Y019482D02*
X005906Y019482D01*
X005906Y019581D02*
X006003Y019581D01*
X006202Y019581D02*
X006342Y019581D01*
X006342Y019680D02*
X001623Y019680D01*
X001812Y019778D02*
X006342Y019778D01*
X006342Y019877D02*
X001951Y019877D01*
X002050Y019975D02*
X006342Y019975D01*
X006342Y020074D02*
X002133Y020074D01*
X002190Y020172D02*
X006339Y020172D01*
X006241Y020271D02*
X002247Y020271D01*
X002279Y020369D02*
X003546Y020369D01*
X003555Y020369D02*
X003655Y020369D01*
X003665Y020369D02*
X004454Y020369D01*
X004288Y020468D02*
X003892Y020468D01*
X003980Y020566D02*
X004200Y020566D01*
X004159Y020665D02*
X004029Y020665D01*
X004053Y020764D02*
X004135Y020764D01*
X004756Y020369D02*
X006142Y020369D01*
X006044Y020468D02*
X004922Y020468D01*
X004971Y019581D02*
X004813Y019581D01*
X005521Y019581D02*
X005708Y019581D01*
X005628Y018891D02*
X005601Y018891D01*
X005503Y018793D02*
X005726Y018793D01*
X004989Y018793D02*
X004794Y018793D01*
X003655Y020468D02*
X003555Y020468D01*
X003555Y020566D02*
X003655Y020566D01*
X003655Y020665D02*
X003555Y020665D01*
X003555Y020764D02*
X003655Y020764D01*
X003555Y020862D02*
X002331Y020862D01*
X002332Y020764D02*
X003158Y020764D01*
X003181Y020665D02*
X002332Y020665D01*
X002332Y020566D02*
X003230Y020566D01*
X003318Y020468D02*
X002305Y020468D01*
X002305Y020961D02*
X003179Y020961D01*
X003226Y021059D02*
X002279Y021059D01*
X002246Y021158D02*
X003311Y021158D01*
X002213Y022463D02*
X002256Y022539D01*
X002331Y022819D01*
X002331Y023108D01*
X002298Y023233D01*
X002335Y023234D01*
X002427Y023234D01*
X006042Y023254D01*
X006136Y023254D01*
X006137Y023254D01*
X006205Y023324D01*
X006316Y023435D01*
X006316Y023450D01*
X006360Y023493D01*
X006494Y023628D01*
X006494Y023849D01*
X006592Y023849D01*
X006692Y023948D01*
X006692Y024114D01*
X006831Y024114D01*
X007013Y024114D01*
X013328Y024114D01*
X013328Y024015D02*
X006692Y024015D01*
X006660Y023917D02*
X013328Y023917D01*
X013328Y023818D02*
X006494Y023818D01*
X006494Y023720D02*
X013329Y023720D01*
X013329Y023621D02*
X006488Y023621D01*
X006389Y023523D02*
X013329Y023523D01*
X013329Y023424D02*
X006306Y023424D01*
X006208Y023326D02*
X013329Y023326D01*
X013330Y023227D02*
X002300Y023227D01*
X002326Y023129D02*
X013330Y023129D01*
X013330Y023030D02*
X002331Y023030D01*
X002331Y022931D02*
X009818Y022931D01*
X009819Y022933D02*
X009721Y022835D01*
X009668Y022706D01*
X009668Y022568D01*
X009712Y022463D01*
X002213Y022463D01*
X002255Y022537D02*
X009681Y022537D01*
X009668Y022636D02*
X002282Y022636D01*
X002309Y022734D02*
X009680Y022734D01*
X009721Y022833D02*
X002331Y022833D01*
X002427Y023234D02*
X002427Y023234D01*
X002426Y023694D02*
X001508Y024612D01*
X001624Y024612D01*
X001797Y024684D01*
X001929Y024816D01*
X001949Y024864D01*
X002293Y024864D01*
X002422Y024992D01*
X004743Y027314D01*
X010171Y027314D01*
X010353Y027314D01*
X010824Y027785D01*
X010931Y027785D01*
X011059Y027838D01*
X011157Y027936D01*
X011210Y028064D01*
X011210Y028203D01*
X011157Y028331D01*
X011059Y028429D01*
X010931Y028482D01*
X010792Y028482D01*
X010664Y028429D01*
X010566Y028331D01*
X010513Y028203D01*
X010513Y028096D01*
X010171Y027754D01*
X007867Y027754D01*
X007867Y027773D01*
X007867Y027888D01*
X008683Y028704D01*
X008697Y028718D01*
X010203Y028718D01*
X010278Y028642D01*
X010407Y028589D01*
X010545Y028589D01*
X010673Y028642D01*
X010771Y028740D01*
X010824Y028869D01*
X010824Y029007D01*
X010771Y029135D01*
X010673Y029233D01*
X010545Y029286D01*
X010407Y029286D01*
X010278Y029233D01*
X010203Y029158D01*
X008504Y029158D01*
X008375Y029029D01*
X008372Y029025D01*
X008372Y029015D01*
X007427Y028070D01*
X007427Y027987D01*
X007108Y027981D01*
X007115Y027985D01*
X007143Y028013D01*
X007162Y028047D01*
X007173Y028085D01*
X007173Y028370D01*
X006817Y028370D01*
X006817Y028470D01*
X007173Y028470D01*
X007173Y028755D01*
X007162Y028793D01*
X007143Y028827D01*
X007115Y028855D01*
X007081Y028875D01*
X007042Y028885D01*
X006817Y028885D01*
X006817Y028470D01*
X006717Y028470D01*
X006717Y028885D01*
X006491Y028885D01*
X006453Y028875D01*
X006419Y028855D01*
X006407Y028843D01*
X006345Y028905D01*
X005692Y028905D01*
X005593Y028805D01*
X005593Y028640D01*
X005235Y028640D01*
X004756Y029119D01*
X004756Y029505D01*
X004892Y029640D01*
X005053Y029479D01*
X005439Y029479D01*
X005614Y029654D01*
X005770Y029499D01*
X005906Y029499D01*
X005906Y029897D01*
X006003Y029897D01*
X006003Y029499D01*
X006140Y029499D01*
X006295Y029654D01*
X006470Y029479D01*
X006857Y029479D01*
X007018Y029640D01*
X007179Y029479D01*
X007565Y029479D01*
X007839Y029753D01*
X007839Y030139D01*
X007565Y030413D01*
X007179Y030413D01*
X007018Y030252D01*
X007002Y030268D01*
X007002Y030991D01*
X007002Y031122D01*
X006951Y031244D01*
X006438Y031757D01*
X006345Y031850D01*
X006224Y031900D01*
X004936Y031900D01*
X004902Y031934D01*
X013312Y031934D01*
X013330Y022857D01*
X010290Y022857D01*
X010214Y022933D01*
X010086Y022986D01*
X009948Y022986D01*
X009819Y022933D01*
X010017Y022637D02*
X016195Y022637D01*
X016232Y022674D01*
X016206Y022989D02*
X016233Y023017D01*
X014111Y024286D02*
X013175Y024286D01*
X013171Y024291D01*
X013327Y024311D02*
X007210Y024311D01*
X007112Y024213D02*
X013328Y024213D01*
X013327Y024410D02*
X007309Y024410D01*
X007407Y024508D02*
X013327Y024508D01*
X013327Y024607D02*
X007506Y024607D01*
X007604Y024705D02*
X013327Y024705D01*
X013326Y024804D02*
X007703Y024804D01*
X007752Y024852D02*
X007623Y024724D01*
X007013Y024114D01*
X006922Y024334D02*
X007532Y024944D01*
X007532Y026584D01*
X007522Y026594D01*
X007870Y026578D02*
X008263Y026578D01*
X008256Y026571D02*
X008203Y026443D01*
X008203Y026304D01*
X008256Y026176D01*
X008322Y026111D01*
X008322Y025666D01*
X008246Y025591D01*
X008193Y025463D01*
X008193Y025324D01*
X008246Y025196D01*
X008344Y025098D01*
X008472Y025045D01*
X008611Y025045D01*
X008739Y025098D01*
X008837Y025196D01*
X008890Y025324D01*
X008890Y025463D01*
X008837Y025591D01*
X008762Y025666D01*
X008762Y026091D01*
X008847Y026176D01*
X008900Y026304D01*
X008900Y026443D01*
X008847Y026571D01*
X008749Y026669D01*
X008621Y026722D01*
X008482Y026722D01*
X008354Y026669D01*
X008256Y026571D01*
X008218Y026479D02*
X007851Y026479D01*
X007870Y026524D02*
X007817Y026396D01*
X007752Y026331D01*
X007752Y024852D01*
X007752Y024902D02*
X013326Y024902D01*
X013326Y025001D02*
X007752Y025001D01*
X007752Y025099D02*
X008343Y025099D01*
X008246Y025198D02*
X007752Y025198D01*
X007752Y025297D02*
X008205Y025297D01*
X008193Y025395D02*
X007752Y025395D01*
X007752Y025494D02*
X008206Y025494D01*
X008247Y025592D02*
X007752Y025592D01*
X007752Y025691D02*
X008322Y025691D01*
X008322Y025789D02*
X007752Y025789D01*
X007752Y025888D02*
X008322Y025888D01*
X008322Y025986D02*
X007752Y025986D01*
X007752Y026085D02*
X008322Y026085D01*
X008253Y026183D02*
X007752Y026183D01*
X007752Y026282D02*
X008212Y026282D01*
X008203Y026381D02*
X007801Y026381D01*
X007870Y026524D02*
X007870Y026663D01*
X007817Y026791D01*
X007719Y026889D01*
X007591Y026942D01*
X007452Y026942D01*
X007324Y026889D01*
X007226Y026791D01*
X007173Y026663D01*
X007173Y026524D01*
X007226Y026396D01*
X007312Y026311D01*
X007312Y025035D01*
X006831Y024554D01*
X006692Y024554D01*
X006692Y024719D01*
X006592Y024819D01*
X005939Y024819D01*
X005892Y024771D01*
X005844Y024819D01*
X005732Y024819D01*
X005732Y024992D01*
X005883Y025144D01*
X006012Y025272D01*
X006012Y025807D01*
X006120Y025807D01*
X006167Y025855D01*
X006215Y025807D01*
X006321Y025807D01*
X006321Y025606D01*
X006256Y025541D01*
X006203Y025413D01*
X006203Y025274D01*
X006256Y025146D01*
X006354Y025048D01*
X006482Y024995D01*
X006621Y024995D01*
X006749Y025048D01*
X006847Y025146D01*
X006900Y025274D01*
X006900Y025413D01*
X006847Y025541D01*
X006761Y025627D01*
X006761Y025807D01*
X006868Y025807D01*
X006967Y025907D01*
X006967Y026678D01*
X006868Y026777D01*
X006215Y026777D01*
X006167Y026729D01*
X006120Y026777D01*
X005467Y026777D01*
X005367Y026678D01*
X005367Y026506D01*
X005156Y026506D01*
X005080Y026582D01*
X004952Y026635D01*
X004814Y026635D01*
X004685Y026582D01*
X004587Y026484D01*
X004534Y026356D01*
X004534Y026217D01*
X004587Y026089D01*
X004685Y025991D01*
X004814Y025938D01*
X004952Y025938D01*
X005080Y025991D01*
X005156Y026066D01*
X005367Y026066D01*
X005367Y025907D01*
X005467Y025807D01*
X005572Y025807D01*
X005572Y025455D01*
X005292Y025175D01*
X005292Y024992D01*
X005292Y024819D01*
X005191Y024819D01*
X005092Y024719D01*
X005092Y024554D01*
X004845Y024554D01*
X004787Y024612D01*
X004659Y024665D01*
X004520Y024665D01*
X004392Y024612D01*
X004294Y024514D01*
X004241Y024386D01*
X004241Y024247D01*
X004294Y024119D01*
X004392Y024021D01*
X004520Y023968D01*
X004659Y023968D01*
X004787Y024021D01*
X004879Y024114D01*
X005092Y024114D01*
X005092Y023948D01*
X005191Y023849D01*
X005844Y023849D01*
X005892Y023896D01*
X005939Y023849D01*
X006034Y023849D01*
X006034Y023818D01*
X002302Y023818D01*
X002401Y023720D02*
X005936Y023720D01*
X005929Y023713D02*
X002426Y023694D01*
X002204Y023917D02*
X005123Y023917D01*
X005092Y024015D02*
X004773Y024015D01*
X004589Y024317D02*
X004606Y024334D01*
X005502Y024334D01*
X005512Y024324D01*
X005512Y025084D01*
X005792Y025364D01*
X005792Y026291D01*
X005793Y026292D01*
X005787Y026286D01*
X004883Y026286D01*
X004534Y026282D02*
X003711Y026282D01*
X003613Y026183D02*
X004548Y026183D01*
X004592Y026085D02*
X003514Y026085D01*
X003415Y025986D02*
X004697Y025986D01*
X005069Y025986D02*
X005367Y025986D01*
X005386Y025888D02*
X003317Y025888D01*
X003218Y025789D02*
X005572Y025789D01*
X005572Y025691D02*
X003120Y025691D01*
X003021Y025592D02*
X005572Y025592D01*
X005572Y025494D02*
X002923Y025494D01*
X002824Y025395D02*
X005512Y025395D01*
X005413Y025297D02*
X002726Y025297D01*
X002627Y025198D02*
X005315Y025198D01*
X005292Y025099D02*
X002529Y025099D01*
X002430Y025001D02*
X005292Y025001D01*
X005292Y024902D02*
X002331Y024902D01*
X002202Y025084D02*
X001532Y025084D01*
X001531Y025082D01*
X001819Y024705D02*
X005092Y024705D01*
X005092Y024607D02*
X004792Y024607D01*
X004387Y024607D02*
X001514Y024607D01*
X001612Y024508D02*
X004291Y024508D01*
X004251Y024410D02*
X001711Y024410D01*
X001809Y024311D02*
X004241Y024311D01*
X004255Y024213D02*
X001908Y024213D01*
X002006Y024114D02*
X004299Y024114D01*
X004406Y024015D02*
X002105Y024015D01*
X001917Y024804D02*
X005177Y024804D01*
X005502Y024334D02*
X005518Y024334D01*
X005859Y024804D02*
X005925Y024804D01*
X005732Y024902D02*
X007179Y024902D01*
X007081Y024804D02*
X006607Y024804D01*
X006692Y024705D02*
X006982Y024705D01*
X006884Y024607D02*
X006692Y024607D01*
X006922Y024334D02*
X006266Y024334D01*
X006034Y023818D02*
X005929Y023713D01*
X006136Y023254D02*
X006136Y023254D01*
X006469Y025001D02*
X005740Y025001D01*
X005839Y025099D02*
X006303Y025099D01*
X006235Y025198D02*
X005937Y025198D01*
X006012Y025297D02*
X006203Y025297D01*
X006203Y025395D02*
X006012Y025395D01*
X006012Y025494D02*
X006237Y025494D01*
X006307Y025592D02*
X006012Y025592D01*
X006012Y025691D02*
X006321Y025691D01*
X006321Y025789D02*
X006012Y025789D01*
X006541Y025354D02*
X006541Y026292D01*
X006967Y026282D02*
X007312Y026282D01*
X007312Y026183D02*
X006967Y026183D01*
X006967Y026085D02*
X007312Y026085D01*
X007312Y025986D02*
X006967Y025986D01*
X006948Y025888D02*
X007312Y025888D01*
X007312Y025789D02*
X006761Y025789D01*
X006761Y025691D02*
X007312Y025691D01*
X007312Y025592D02*
X006796Y025592D01*
X006867Y025494D02*
X007312Y025494D01*
X007312Y025395D02*
X006900Y025395D01*
X006900Y025297D02*
X007312Y025297D01*
X007312Y025198D02*
X006868Y025198D01*
X006800Y025099D02*
X007312Y025099D01*
X007278Y025001D02*
X006635Y025001D01*
X006552Y025344D02*
X006541Y025354D01*
X006967Y026381D02*
X007242Y026381D01*
X007192Y026479D02*
X006967Y026479D01*
X006967Y026578D02*
X007173Y026578D01*
X007179Y026676D02*
X006967Y026676D01*
X006870Y026775D02*
X007220Y026775D01*
X007309Y026873D02*
X004302Y026873D01*
X004204Y026775D02*
X005464Y026775D01*
X005367Y026676D02*
X004105Y026676D01*
X004007Y026578D02*
X004681Y026578D01*
X004585Y026479D02*
X003908Y026479D01*
X003810Y026381D02*
X004545Y026381D01*
X005084Y026578D02*
X005367Y026578D01*
X006122Y026775D02*
X006212Y026775D01*
X006552Y027751D02*
X004189Y027751D01*
X002522Y026084D01*
X001532Y026084D01*
X001531Y026082D01*
X001105Y026282D02*
X001062Y026282D01*
X001132Y026348D02*
X001062Y026178D01*
X001062Y027986D01*
X001132Y027816D01*
X001264Y027684D01*
X001437Y027612D01*
X001624Y027612D01*
X001797Y027684D01*
X001929Y027816D01*
X002001Y027989D01*
X002001Y028176D01*
X001929Y028348D01*
X001797Y028481D01*
X001624Y028552D01*
X001437Y028552D01*
X001264Y028481D01*
X001132Y028348D01*
X001062Y028178D01*
X001062Y028368D01*
X001344Y028651D01*
X001437Y028612D01*
X001624Y028612D01*
X001797Y028684D01*
X001929Y028816D01*
X002001Y028989D01*
X002001Y029176D01*
X001929Y029348D01*
X001797Y029481D01*
X001624Y029552D01*
X001437Y029552D01*
X001264Y029481D01*
X001132Y029348D01*
X001061Y029176D01*
X001061Y029018D01*
X000925Y028882D01*
X000919Y030409D01*
X001088Y030364D01*
X001377Y030364D01*
X001657Y030439D01*
X001908Y030583D01*
X002113Y030788D01*
X002257Y031039D01*
X002332Y031319D01*
X002332Y031608D01*
X002257Y031888D01*
X002231Y031934D01*
X003346Y031934D01*
X003312Y031909D01*
X003262Y031859D01*
X003220Y031801D01*
X003188Y031738D01*
X003166Y031671D01*
X003158Y031616D01*
X003555Y031616D01*
X003555Y031516D01*
X003158Y031516D01*
X003166Y031460D01*
X003188Y031393D01*
X003220Y031330D01*
X003262Y031272D01*
X003312Y031222D01*
X003369Y031181D01*
X003433Y031149D01*
X003500Y031127D01*
X003555Y031118D01*
X003555Y031515D01*
X003655Y031515D01*
X003655Y031118D01*
X003711Y031127D01*
X003778Y031149D01*
X003841Y031181D01*
X003898Y031222D01*
X003949Y031272D01*
X003990Y031330D01*
X004022Y031393D01*
X004044Y031460D01*
X004053Y031516D01*
X003655Y031516D01*
X003655Y031616D01*
X004053Y031616D01*
X004044Y031671D01*
X004022Y031738D01*
X003990Y031801D01*
X003949Y031859D01*
X003898Y031909D01*
X003864Y031934D01*
X004309Y031934D01*
X004207Y031832D01*
X004135Y031659D01*
X004135Y031472D01*
X004207Y031299D01*
X004339Y031167D01*
X004512Y031096D01*
X004699Y031096D01*
X004871Y031167D01*
X004944Y031240D01*
X006022Y031240D01*
X006342Y030920D01*
X006342Y030285D01*
X006295Y030238D01*
X006140Y030393D01*
X006003Y030393D01*
X006003Y029995D01*
X005906Y029995D01*
X005906Y030393D01*
X005770Y030393D01*
X005614Y030238D01*
X005439Y030413D01*
X005053Y030413D01*
X004892Y030252D01*
X004731Y030413D01*
X004344Y030413D01*
X004071Y030139D01*
X004071Y029753D01*
X004316Y029507D01*
X004316Y028936D01*
X004445Y028808D01*
X005053Y028200D01*
X005235Y028200D01*
X005593Y028200D01*
X005593Y028035D01*
X005656Y027971D01*
X004280Y027971D01*
X004098Y027971D01*
X002431Y026304D01*
X001948Y026304D01*
X001929Y026348D01*
X001797Y026481D01*
X001624Y026552D01*
X001437Y026552D01*
X001264Y026481D01*
X001132Y026348D01*
X001164Y026381D02*
X001062Y026381D01*
X001062Y026479D02*
X001263Y026479D01*
X001358Y026665D02*
X001425Y026643D01*
X001481Y026634D01*
X001481Y027032D01*
X001581Y027032D01*
X001581Y027132D01*
X001978Y027132D01*
X001970Y027187D01*
X001948Y027255D01*
X001916Y027318D01*
X001874Y027375D01*
X001824Y027425D01*
X001766Y027467D01*
X001703Y027499D01*
X001636Y027521D01*
X001581Y027530D01*
X001581Y027132D01*
X001481Y027132D01*
X001481Y027530D01*
X001425Y027521D01*
X001358Y027499D01*
X001295Y027467D01*
X001238Y027425D01*
X001187Y027375D01*
X001146Y027318D01*
X001114Y027255D01*
X001092Y027187D01*
X001083Y027132D01*
X001480Y027132D01*
X001480Y027032D01*
X001083Y027032D01*
X001092Y026977D01*
X001114Y026909D01*
X001146Y026846D01*
X001187Y026789D01*
X001238Y026739D01*
X001295Y026697D01*
X001358Y026665D01*
X001336Y026676D02*
X001062Y026676D01*
X001062Y026578D02*
X002705Y026578D01*
X002803Y026676D02*
X001725Y026676D01*
X001703Y026665D02*
X001766Y026697D01*
X001824Y026739D01*
X001874Y026789D01*
X001916Y026846D01*
X001948Y026909D01*
X001970Y026977D01*
X001978Y027032D01*
X001581Y027032D01*
X001581Y026634D01*
X001636Y026643D01*
X001703Y026665D01*
X001581Y026676D02*
X001481Y026676D01*
X001481Y026775D02*
X001581Y026775D01*
X001581Y026873D02*
X001481Y026873D01*
X001481Y026972D02*
X001581Y026972D01*
X001581Y027070D02*
X003197Y027070D01*
X003099Y026972D02*
X001968Y026972D01*
X001929Y026873D02*
X003000Y026873D01*
X002902Y026775D02*
X001860Y026775D01*
X001798Y026479D02*
X002606Y026479D01*
X002507Y026381D02*
X001897Y026381D01*
X002060Y027062D02*
X001633Y027062D01*
X001531Y027082D01*
X001480Y027070D02*
X001062Y027070D01*
X001062Y026972D02*
X001093Y026972D01*
X001062Y026873D02*
X001132Y026873D01*
X001062Y026775D02*
X001202Y026775D01*
X001064Y026183D02*
X001062Y026183D01*
X001062Y027169D02*
X001089Y027169D01*
X001062Y027267D02*
X001120Y027267D01*
X001062Y027366D02*
X001181Y027366D01*
X001291Y027464D02*
X001062Y027464D01*
X001062Y027563D02*
X003690Y027563D01*
X003789Y027662D02*
X001744Y027662D01*
X001873Y027760D02*
X003887Y027760D01*
X003986Y027859D02*
X001947Y027859D01*
X001988Y027957D02*
X004084Y027957D01*
X004652Y027534D02*
X010262Y027534D01*
X010862Y028134D01*
X011008Y028450D02*
X013319Y028450D01*
X013319Y028548D02*
X008528Y028548D01*
X008429Y028450D02*
X010715Y028450D01*
X010587Y028351D02*
X008331Y028351D01*
X008232Y028253D02*
X010534Y028253D01*
X010513Y028154D02*
X008133Y028154D01*
X008035Y028056D02*
X010473Y028056D01*
X010374Y027957D02*
X007936Y027957D01*
X007867Y027859D02*
X010276Y027859D01*
X010177Y027760D02*
X007867Y027760D01*
X007647Y027771D02*
X007647Y027979D01*
X008592Y028924D01*
X008592Y028934D01*
X008595Y028938D01*
X010476Y028938D01*
X010824Y028943D02*
X013318Y028943D01*
X013318Y029041D02*
X010810Y029041D01*
X010767Y029140D02*
X013318Y029140D01*
X013318Y029238D02*
X010661Y029238D01*
X010832Y029322D02*
X010911Y029243D01*
X010814Y028844D02*
X013318Y028844D01*
X013319Y028746D02*
X010773Y028746D01*
X010678Y028647D02*
X013319Y028647D01*
X013319Y028351D02*
X011137Y028351D01*
X011189Y028253D02*
X013319Y028253D01*
X013320Y028154D02*
X011210Y028154D01*
X011206Y028056D02*
X013320Y028056D01*
X013320Y027957D02*
X011166Y027957D01*
X011079Y027859D02*
X013320Y027859D01*
X013320Y027760D02*
X010799Y027760D01*
X010701Y027662D02*
X013321Y027662D01*
X013321Y027563D02*
X010602Y027563D01*
X010504Y027464D02*
X013321Y027464D01*
X013321Y027366D02*
X010405Y027366D01*
X010274Y028647D02*
X008626Y028647D01*
X008300Y028943D02*
X004932Y028943D01*
X004834Y029041D02*
X008388Y029041D01*
X008486Y029140D02*
X004756Y029140D01*
X004756Y029238D02*
X010291Y029238D01*
X008201Y028844D02*
X007126Y028844D01*
X007173Y028746D02*
X008102Y028746D01*
X008004Y028647D02*
X007173Y028647D01*
X007173Y028548D02*
X007905Y028548D01*
X007807Y028450D02*
X006817Y028450D01*
X006817Y028548D02*
X006717Y028548D01*
X006717Y028647D02*
X006817Y028647D01*
X006817Y028746D02*
X006717Y028746D01*
X006717Y028844D02*
X006817Y028844D01*
X006408Y028844D02*
X006406Y028844D01*
X006019Y028420D02*
X005144Y028420D01*
X004536Y029028D01*
X004536Y029945D01*
X004537Y029946D01*
X004071Y029928D02*
X000921Y029928D01*
X000921Y029830D02*
X004071Y029830D01*
X004092Y029731D02*
X000921Y029731D01*
X000922Y029632D02*
X004191Y029632D01*
X004289Y029534D02*
X001668Y029534D01*
X001842Y029435D02*
X004316Y029435D01*
X004316Y029337D02*
X001934Y029337D01*
X001975Y029238D02*
X004316Y029238D01*
X004316Y029140D02*
X002001Y029140D01*
X002001Y029041D02*
X004316Y029041D01*
X004316Y028943D02*
X001982Y028943D01*
X001941Y028844D02*
X004409Y028844D01*
X004507Y028746D02*
X001859Y028746D01*
X001708Y028647D02*
X004606Y028647D01*
X004704Y028548D02*
X001633Y028548D01*
X001428Y028548D02*
X001242Y028548D01*
X001234Y028450D02*
X001143Y028450D01*
X001135Y028351D02*
X001062Y028351D01*
X001062Y028253D02*
X001093Y028253D01*
X001074Y027957D02*
X001062Y027957D01*
X001062Y027859D02*
X001114Y027859D01*
X001062Y027760D02*
X001188Y027760D01*
X001062Y027662D02*
X001318Y027662D01*
X001481Y027464D02*
X001581Y027464D01*
X001581Y027366D02*
X001481Y027366D01*
X001481Y027267D02*
X001581Y027267D01*
X001581Y027169D02*
X001481Y027169D01*
X001770Y027464D02*
X003591Y027464D01*
X003493Y027366D02*
X001881Y027366D01*
X001941Y027267D02*
X003394Y027267D01*
X003296Y027169D02*
X001973Y027169D01*
X002060Y027062D02*
X002342Y027344D01*
X002342Y030302D01*
X003605Y031566D01*
X003555Y031603D02*
X002332Y031603D01*
X002332Y031505D02*
X003159Y031505D01*
X003184Y031406D02*
X002332Y031406D01*
X002329Y031308D02*
X003236Y031308D01*
X003330Y031209D02*
X002303Y031209D01*
X002277Y031111D02*
X004476Y031111D01*
X004297Y031209D02*
X003880Y031209D01*
X003974Y031308D02*
X004203Y031308D01*
X004163Y031406D02*
X004027Y031406D01*
X004051Y031505D02*
X004135Y031505D01*
X004135Y031603D02*
X003655Y031603D01*
X003655Y031505D02*
X003555Y031505D01*
X003555Y031406D02*
X003655Y031406D01*
X003655Y031308D02*
X003555Y031308D01*
X003555Y031209D02*
X003655Y031209D01*
X004034Y031702D02*
X004153Y031702D01*
X004194Y031800D02*
X003991Y031800D01*
X003908Y031899D02*
X004274Y031899D01*
X004735Y031111D02*
X006151Y031111D01*
X006053Y031209D02*
X004913Y031209D01*
X004962Y030322D02*
X004821Y030322D01*
X004253Y030322D02*
X000919Y030322D01*
X000919Y030224D02*
X004155Y030224D01*
X004071Y030125D02*
X000920Y030125D01*
X000920Y030027D02*
X004071Y030027D01*
X004785Y029534D02*
X004998Y029534D01*
X004899Y029632D02*
X004884Y029632D01*
X004756Y029435D02*
X013317Y029435D01*
X013317Y029337D02*
X004756Y029337D01*
X005031Y028844D02*
X005632Y028844D01*
X005593Y028746D02*
X005129Y028746D01*
X005228Y028647D02*
X005593Y028647D01*
X005593Y028154D02*
X002001Y028154D01*
X002001Y028056D02*
X005593Y028056D01*
X005000Y028253D02*
X001969Y028253D01*
X001926Y028351D02*
X004901Y028351D01*
X004803Y028450D02*
X001828Y028450D01*
X001353Y028647D02*
X001340Y028647D01*
X000985Y028943D02*
X000925Y028943D01*
X000924Y029041D02*
X001061Y029041D01*
X001061Y029140D02*
X000924Y029140D01*
X000923Y029238D02*
X001087Y029238D01*
X001127Y029337D02*
X000923Y029337D01*
X000923Y029435D02*
X001219Y029435D01*
X001393Y029534D02*
X000922Y029534D01*
X001591Y030421D02*
X006342Y030421D01*
X006342Y030519D02*
X001797Y030519D01*
X001942Y030618D02*
X006342Y030618D01*
X006342Y030716D02*
X002041Y030716D01*
X002128Y030815D02*
X006342Y030815D01*
X006342Y030914D02*
X002185Y030914D01*
X002242Y031012D02*
X006250Y031012D01*
X006887Y031308D02*
X013313Y031308D01*
X013313Y031406D02*
X006789Y031406D01*
X006690Y031505D02*
X013313Y031505D01*
X013313Y031603D02*
X006592Y031603D01*
X006493Y031702D02*
X013313Y031702D01*
X013312Y031800D02*
X006395Y031800D01*
X006226Y031899D02*
X013312Y031899D01*
X013314Y031209D02*
X006966Y031209D01*
X007002Y031111D02*
X013314Y031111D01*
X013314Y031012D02*
X007002Y031012D01*
X007002Y030914D02*
X013314Y030914D01*
X013314Y030815D02*
X007002Y030815D01*
X007002Y030716D02*
X013315Y030716D01*
X013315Y030618D02*
X007002Y030618D01*
X007002Y030519D02*
X013315Y030519D01*
X013315Y030421D02*
X007002Y030421D01*
X007002Y030322D02*
X007088Y030322D01*
X007656Y030322D02*
X013315Y030322D01*
X013316Y030224D02*
X007755Y030224D01*
X007839Y030125D02*
X013316Y030125D01*
X013316Y030027D02*
X007839Y030027D01*
X007839Y029928D02*
X013316Y029928D01*
X013316Y029830D02*
X007839Y029830D01*
X007817Y029731D02*
X013317Y029731D01*
X013317Y029632D02*
X007719Y029632D01*
X007620Y029534D02*
X013317Y029534D01*
X013321Y027267D02*
X004697Y027267D01*
X004598Y027169D02*
X013322Y027169D01*
X013322Y027070D02*
X004499Y027070D01*
X004401Y026972D02*
X013322Y026972D01*
X013322Y026873D02*
X007735Y026873D01*
X007824Y026775D02*
X013322Y026775D01*
X013323Y026676D02*
X008732Y026676D01*
X008840Y026578D02*
X013323Y026578D01*
X013323Y026479D02*
X008885Y026479D01*
X008900Y026381D02*
X013323Y026381D01*
X013323Y026282D02*
X008891Y026282D01*
X008850Y026183D02*
X013324Y026183D01*
X013324Y026085D02*
X008762Y026085D01*
X008762Y025986D02*
X013324Y025986D01*
X013324Y025888D02*
X008762Y025888D01*
X008762Y025789D02*
X013324Y025789D01*
X013325Y025691D02*
X008762Y025691D01*
X008836Y025592D02*
X013325Y025592D01*
X013325Y025494D02*
X008877Y025494D01*
X008890Y025395D02*
X013325Y025395D01*
X013325Y025297D02*
X008879Y025297D01*
X008838Y025198D02*
X013326Y025198D01*
X013326Y025099D02*
X008740Y025099D01*
X008542Y025394D02*
X008542Y026364D01*
X008552Y026374D01*
X008372Y026676D02*
X007865Y026676D01*
X007647Y027771D02*
X006552Y027751D01*
X007165Y028056D02*
X007427Y028056D01*
X007511Y028154D02*
X007173Y028154D01*
X007173Y028253D02*
X007610Y028253D01*
X007708Y028351D02*
X007173Y028351D01*
X007124Y029534D02*
X006911Y029534D01*
X007010Y029632D02*
X007025Y029632D01*
X006415Y029534D02*
X006174Y029534D01*
X006273Y029632D02*
X006317Y029632D01*
X006003Y029632D02*
X005906Y029632D01*
X005906Y029534D02*
X006003Y029534D01*
X006003Y029731D02*
X005906Y029731D01*
X005906Y029830D02*
X006003Y029830D01*
X006003Y030027D02*
X005906Y030027D01*
X005906Y030125D02*
X006003Y030125D01*
X006003Y030224D02*
X005906Y030224D01*
X005906Y030322D02*
X006003Y030322D01*
X006210Y030322D02*
X006342Y030322D01*
X005699Y030322D02*
X005530Y030322D01*
X005593Y029632D02*
X005636Y029632D01*
X005735Y029534D02*
X005494Y029534D01*
X004652Y027534D02*
X002202Y025084D01*
X001414Y018793D02*
X000922Y018793D01*
X000923Y018694D02*
X001228Y018694D01*
X001131Y018596D02*
X000923Y018596D01*
X000923Y018497D02*
X001090Y018497D01*
X001061Y018399D02*
X000924Y018399D01*
X000924Y018300D02*
X001061Y018300D01*
X000994Y018201D02*
X000925Y018201D01*
X006920Y018793D02*
X007115Y018793D01*
X010414Y016625D02*
X013321Y016625D01*
X013321Y016723D02*
X010512Y016723D01*
X010611Y016822D02*
X013321Y016822D01*
X013321Y016920D02*
X010709Y016920D01*
X010808Y017019D02*
X013320Y017019D01*
X013320Y017117D02*
X011088Y017117D01*
X011169Y017216D02*
X013320Y017216D01*
X013320Y017315D02*
X011210Y017315D01*
X011210Y017413D02*
X013320Y017413D01*
X013330Y022931D02*
X010215Y022931D01*
X003176Y031702D02*
X002307Y031702D01*
X002281Y031800D02*
X003220Y031800D01*
X003302Y031899D02*
X002251Y031899D01*
X028684Y011003D02*
X028762Y011082D01*
X031632Y008723D02*
X031642Y008713D01*
X031848Y008446D02*
X032387Y008446D01*
X032838Y008446D02*
X035543Y008446D01*
X035543Y008544D02*
X032919Y008544D01*
X032960Y008643D02*
X035543Y008643D01*
X035543Y008741D02*
X032961Y008741D01*
X032937Y008840D02*
X035543Y008840D01*
X035543Y008938D02*
X032880Y008938D01*
X034157Y006179D02*
X034214Y006179D01*
X034293Y006081D02*
X034127Y006081D01*
X034157Y005982D02*
X034294Y005982D01*
X034294Y005884D02*
X034157Y005884D01*
X034157Y005785D02*
X034295Y005785D01*
X034295Y005686D02*
X034157Y005686D01*
X034157Y005588D02*
X034296Y005588D01*
X034296Y005489D02*
X034157Y005489D01*
X034157Y005391D02*
X034297Y005391D01*
X034297Y005292D02*
X034087Y005292D01*
X033892Y005194D02*
X034298Y005194D01*
X034298Y005095D02*
X033892Y005095D01*
X033946Y004997D02*
X034299Y004997D01*
X034762Y004405D02*
X035543Y004405D01*
X035543Y004307D02*
X034763Y004307D01*
X034763Y004208D02*
X035543Y004208D01*
X035543Y004110D02*
X034764Y004110D01*
X034764Y004011D02*
X035543Y004011D01*
X035543Y003913D02*
X034765Y003913D01*
X034765Y003814D02*
X035543Y003814D01*
X035543Y003716D02*
X034766Y003716D01*
X034766Y003617D02*
X035543Y003617D01*
X035543Y003518D02*
X034767Y003518D01*
X034767Y003420D02*
X035543Y003420D01*
X035543Y003321D02*
X034768Y003321D01*
X034768Y003223D02*
X035543Y003223D01*
X035543Y003124D02*
X034769Y003124D01*
X034769Y003026D02*
X035543Y003026D01*
X035543Y002927D02*
X034770Y002927D01*
X034771Y002829D02*
X035543Y002829D01*
X035543Y002730D02*
X034771Y002730D01*
X034772Y002632D02*
X035543Y002632D01*
X035543Y002533D02*
X034772Y002533D01*
X035442Y002434D02*
X035543Y002434D01*
X033672Y005673D02*
X033672Y005689D01*
X031481Y004800D02*
X030807Y004800D01*
X030708Y004898D02*
X031407Y004898D01*
X031371Y004997D02*
X030692Y004997D01*
X030692Y005095D02*
X031371Y005095D01*
X030035Y005095D02*
X029677Y005095D01*
X029579Y004997D02*
X030035Y004997D01*
X030035Y004898D02*
X029480Y004898D01*
X029381Y004800D02*
X030035Y004800D01*
X030035Y004701D02*
X029283Y004701D01*
X029184Y004602D02*
X030035Y004602D01*
X030035Y004504D02*
X029086Y004504D01*
X029776Y005194D02*
X030035Y005194D01*
X030035Y005292D02*
X029806Y005292D01*
X029806Y005391D02*
X030035Y005391D01*
X030035Y005489D02*
X029806Y005489D01*
X029806Y005588D02*
X030035Y005588D01*
X030035Y005686D02*
X029806Y005686D01*
X029992Y005785D02*
X030035Y005785D01*
X016233Y001517D02*
X016206Y001489D01*
X016232Y001174D02*
X016195Y001137D01*
X010017Y001137D01*
X006922Y002834D02*
X006266Y002834D01*
X006692Y003124D02*
X006901Y003124D01*
X007000Y003223D02*
X006688Y003223D01*
X006692Y002533D02*
X013328Y002533D01*
X013328Y002434D02*
X006678Y002434D01*
X006494Y002336D02*
X013328Y002336D01*
X013329Y002237D02*
X006494Y002237D01*
X006494Y002139D02*
X013329Y002139D01*
X013329Y002040D02*
X006407Y002040D01*
X006316Y001942D02*
X013329Y001942D01*
X013329Y001843D02*
X006225Y001843D01*
X004606Y002834D02*
X004589Y002817D01*
X008644Y007165D02*
X010256Y007165D01*
X010911Y007743D02*
X010832Y007822D01*
X007106Y008051D02*
X006929Y008051D01*
X006398Y008051D02*
X006192Y008051D01*
X006290Y008150D02*
X006299Y008150D01*
X013171Y002791D02*
X013175Y002786D01*
X014111Y002786D01*
D16*
X014111Y002786D03*
X010017Y001137D03*
X008542Y003894D03*
X008552Y004874D03*
X007522Y005094D03*
X006552Y003844D03*
X004883Y004786D03*
X004589Y002817D03*
X010476Y007438D03*
X010862Y006634D03*
X010017Y011887D03*
X008542Y014644D03*
X008552Y015624D03*
X007522Y015844D03*
X006552Y014594D03*
X004883Y015536D03*
X004589Y013567D03*
X010476Y018188D03*
X010862Y017384D03*
X014111Y013536D03*
X010017Y022637D03*
X008542Y025394D03*
X008552Y026374D03*
X007522Y026594D03*
X006552Y025344D03*
X004883Y026286D03*
X004589Y024317D03*
X010476Y028938D03*
X010862Y028134D03*
X014111Y024286D03*
X029872Y011033D03*
X029068Y010647D03*
X031632Y008723D03*
X032612Y008713D03*
X031412Y007693D03*
X032662Y006723D03*
X031719Y005054D03*
X033689Y004761D03*
X035369Y010188D03*
X033719Y014283D03*
D17*
X033715Y013342D02*
X033759Y013298D01*
X028051Y006843D02*
X026949Y006843D01*
X026436Y006330D01*
X026436Y004781D01*
X026440Y004777D01*
X028058Y006128D02*
X028060Y006126D01*
X028060Y006835D02*
X028051Y006843D01*
X013171Y002791D02*
X013127Y002747D01*
X006672Y008454D02*
X006672Y009557D01*
X006158Y010070D01*
X004610Y010070D01*
X004605Y010066D01*
X005955Y008446D02*
X005957Y008448D01*
X006663Y008446D02*
X006672Y008454D01*
X013127Y013497D02*
X013171Y013541D01*
X006672Y019204D02*
X006672Y020307D01*
X006158Y020820D01*
X004610Y020820D01*
X004605Y020816D01*
X005955Y019196D02*
X005957Y019198D01*
X006663Y019196D02*
X006672Y019204D01*
X013127Y024247D02*
X013171Y024291D01*
X006672Y029954D02*
X006672Y031057D01*
X006158Y031570D01*
X004610Y031570D01*
X004605Y031566D01*
X005955Y029946D02*
X005957Y029948D01*
X006663Y029946D02*
X006672Y029954D01*
D18*
X001531Y029082D02*
X001432Y029064D01*
X000832Y028464D01*
X000832Y024964D01*
X002332Y023464D01*
X006040Y023484D01*
X006087Y023530D01*
X006087Y023545D01*
X006264Y023723D01*
X006264Y024332D01*
X006266Y024334D01*
X001531Y018332D02*
X001432Y018314D01*
X000832Y017714D01*
X000832Y014214D01*
X002332Y012714D01*
X006040Y012734D01*
X006087Y012780D01*
X006087Y012795D01*
X006264Y012973D01*
X006264Y013582D01*
X006266Y013584D01*
X001531Y007582D02*
X001432Y007564D01*
X000832Y006964D01*
X000832Y003464D01*
X002332Y001964D01*
X006040Y001984D01*
X006087Y002030D01*
X006087Y002045D01*
X006264Y002223D01*
X006264Y002832D01*
X006266Y002834D01*
X028924Y001702D02*
X028942Y001603D01*
X029542Y001003D01*
X033042Y001003D01*
X034542Y002503D01*
X034522Y006212D01*
X034476Y006258D01*
X034460Y006258D01*
X034283Y006436D01*
X033674Y006436D01*
X033672Y006437D01*
M02*
