G75*
G70*
%OFA0B0*%
%FSLAX24Y24*%
%IPPOS*%
%LPD*%
%AMOC8*
5,1,8,0,0,1.08239X$1,22.5*
%
%ADD10R,0.0592X0.0710*%
%ADD11C,0.0680*%
%ADD12C,0.1380*%
%ADD13OC8,0.0674*%
%ADD14R,0.0710X0.0592*%
%ADD15OC8,0.0437*%
%ADD16C,0.0437*%
D10*
X005518Y002834D03*
X006266Y002834D03*
X006541Y004792D03*
X005793Y004792D03*
X006019Y006920D03*
X006767Y006920D03*
X006266Y013584D03*
X005518Y013584D03*
X005793Y015542D03*
X006541Y015542D03*
X006767Y017670D03*
X006019Y017670D03*
X006266Y024334D03*
X005518Y024334D03*
X005793Y026292D03*
X006541Y026292D03*
X006767Y028420D03*
X006019Y028420D03*
D11*
X004605Y031566D03*
X003605Y031566D03*
X001531Y029082D03*
X001531Y028082D03*
X001531Y027082D03*
X001531Y026082D03*
X001531Y025082D03*
X003605Y020816D03*
X004605Y020816D03*
X001531Y018332D03*
X001531Y017332D03*
X001531Y016332D03*
X001531Y015332D03*
X001531Y014332D03*
X003605Y010066D03*
X004605Y010066D03*
X001531Y007582D03*
X001531Y006582D03*
X001531Y005582D03*
X001531Y004582D03*
X001531Y003582D03*
X026440Y003777D03*
X026440Y004777D03*
X028924Y001702D03*
X029924Y001702D03*
X030924Y001702D03*
X031924Y001702D03*
X032924Y001702D03*
D12*
X001231Y001464D03*
X001232Y009964D03*
X001231Y012214D03*
X001232Y020714D03*
X001231Y022964D03*
X001232Y031464D03*
X024332Y031464D03*
X026542Y024503D03*
X024332Y022964D03*
X024332Y020714D03*
X024332Y012214D03*
X024332Y009964D03*
X024332Y001464D03*
X026542Y001404D03*
X035042Y001403D03*
X035042Y024503D03*
D13*
X028060Y007543D03*
X028060Y006835D03*
X028060Y006126D03*
X028060Y005417D03*
X028060Y004709D03*
X007372Y008446D03*
X006663Y008446D03*
X005955Y008446D03*
X005246Y008446D03*
X004537Y008446D03*
X004537Y019196D03*
X005246Y019196D03*
X005955Y019196D03*
X006663Y019196D03*
X007372Y019196D03*
X007372Y029946D03*
X006663Y029946D03*
X005955Y029946D03*
X005246Y029946D03*
X004537Y029946D03*
D14*
X029586Y006938D03*
X029586Y006190D03*
X031714Y005965D03*
X031714Y006713D03*
X033672Y006437D03*
X033672Y005689D03*
D15*
X020592Y005714D03*
X020092Y005714D03*
X020092Y006214D03*
X020092Y006714D03*
X020592Y006714D03*
X020592Y006214D03*
X019592Y006714D03*
X019092Y006714D03*
X018592Y006714D03*
X018092Y006714D03*
X017592Y006714D03*
X017782Y005989D03*
X018230Y005980D03*
X018227Y005502D03*
X017773Y005506D03*
X017782Y004997D03*
X018221Y004982D03*
X018092Y003714D03*
X018592Y003714D03*
X019092Y003714D03*
X019592Y003714D03*
X020092Y003714D03*
X020592Y003714D03*
X020592Y003214D03*
X020092Y003214D03*
X019592Y003214D03*
X020092Y002714D03*
X020592Y002714D03*
X020092Y002214D03*
X018194Y002443D03*
X018194Y002895D03*
X017724Y002901D03*
X017724Y002443D03*
X017724Y001979D03*
X018194Y001979D03*
X017592Y003714D03*
X020092Y005214D03*
X020592Y005214D03*
X018206Y007943D03*
X018206Y008402D03*
X018206Y008402D03*
X017724Y008396D03*
X017737Y007943D03*
X017726Y008860D03*
X018206Y008860D03*
X019592Y009214D03*
X020092Y009214D03*
X020592Y009214D03*
X020592Y008714D03*
X020092Y008714D03*
X020092Y008214D03*
X020592Y008214D03*
X018194Y012729D03*
X017724Y012729D03*
X017724Y013193D03*
X017724Y013651D03*
X018194Y013645D03*
X018194Y013193D03*
X018092Y014464D03*
X018592Y014464D03*
X019092Y014464D03*
X019592Y014464D03*
X020092Y014464D03*
X020592Y014464D03*
X020592Y013964D03*
X020092Y013964D03*
X019592Y013964D03*
X020092Y013464D03*
X020592Y013464D03*
X020092Y012964D03*
X017592Y014464D03*
X017782Y015747D03*
X018221Y015732D03*
X018227Y016252D03*
X017773Y016256D03*
X017782Y016739D03*
X018230Y016730D03*
X018092Y017464D03*
X018592Y017464D03*
X019092Y017464D03*
X019592Y017464D03*
X020092Y017464D03*
X020592Y017464D03*
X020592Y016964D03*
X020092Y016964D03*
X020092Y016464D03*
X020592Y016464D03*
X020592Y015964D03*
X020092Y015964D03*
X017592Y017464D03*
X017737Y018693D03*
X017724Y019146D03*
X017726Y019610D03*
X018206Y019610D03*
X018206Y019152D03*
X018206Y019152D03*
X018206Y018693D03*
X019592Y019964D03*
X020092Y019964D03*
X020592Y019964D03*
X020592Y019464D03*
X020092Y019464D03*
X020092Y018964D03*
X020592Y018964D03*
X018194Y023479D03*
X017724Y023479D03*
X017724Y023943D03*
X017724Y024401D03*
X018194Y024395D03*
X018194Y023943D03*
X018092Y025214D03*
X018592Y025214D03*
X019092Y025214D03*
X019592Y025214D03*
X020092Y025214D03*
X020592Y025214D03*
X020592Y024714D03*
X020092Y024714D03*
X019592Y024714D03*
X020092Y024214D03*
X020592Y024214D03*
X020092Y023714D03*
X017592Y025214D03*
X017782Y026497D03*
X018221Y026482D03*
X018227Y027002D03*
X017773Y027006D03*
X017782Y027489D03*
X018230Y027480D03*
X018092Y028214D03*
X018592Y028214D03*
X019092Y028214D03*
X019592Y028214D03*
X020092Y028214D03*
X020592Y028214D03*
X020592Y027714D03*
X020092Y027714D03*
X020092Y027214D03*
X020592Y027214D03*
X020592Y026714D03*
X020092Y026714D03*
X017592Y028214D03*
X017737Y029443D03*
X017724Y029896D03*
X017726Y030360D03*
X018206Y030360D03*
X018206Y029902D03*
X018206Y029902D03*
X018206Y029443D03*
X019592Y030714D03*
X020092Y030714D03*
X020592Y030714D03*
X020592Y030214D03*
X020092Y030214D03*
X020092Y029714D03*
X020592Y029714D03*
X027292Y020763D03*
X027792Y020763D03*
X028292Y020763D03*
X028292Y020263D03*
X027792Y020263D03*
X027292Y020263D03*
X027292Y019763D03*
X027646Y018377D03*
X028104Y018377D03*
X028104Y018377D03*
X028563Y018377D03*
X028563Y017908D03*
X028110Y017895D03*
X027646Y017898D03*
X029792Y017763D03*
X029792Y018263D03*
X029792Y018763D03*
X029792Y019263D03*
X029792Y019763D03*
X029792Y020263D03*
X030292Y020263D03*
X030792Y020263D03*
X031292Y020263D03*
X031292Y020763D03*
X030792Y020763D03*
X030292Y020763D03*
X029792Y020763D03*
X030526Y018401D03*
X031004Y018398D03*
X031524Y018393D03*
X031509Y017953D03*
X031000Y017945D03*
X030517Y017953D03*
X032792Y017763D03*
X032792Y018263D03*
X032792Y018763D03*
X032792Y019263D03*
X032792Y019763D03*
X032792Y020263D03*
X033292Y020263D03*
X033292Y019763D03*
X033792Y020263D03*
X034292Y020263D03*
X033792Y020763D03*
X033292Y020763D03*
X032792Y020763D03*
X033611Y018365D03*
X034063Y018365D03*
X034527Y018365D03*
X034527Y017895D03*
X034063Y017895D03*
X033605Y017895D03*
D16*
X033719Y014283D03*
X029872Y011033D03*
X029068Y010647D03*
X031632Y008723D03*
X032612Y008713D03*
X031412Y007693D03*
X032662Y006723D03*
X031719Y005054D03*
X033689Y004761D03*
X035369Y010188D03*
X014111Y013536D03*
X010017Y011887D03*
X008542Y014644D03*
X008552Y015624D03*
X007522Y015844D03*
X006552Y014594D03*
X004883Y015536D03*
X004589Y013567D03*
X010476Y018188D03*
X010862Y017384D03*
X010017Y022637D03*
X008542Y025394D03*
X008552Y026374D03*
X007522Y026594D03*
X006552Y025344D03*
X004883Y026286D03*
X004589Y024317D03*
X010476Y028938D03*
X010862Y028134D03*
X014111Y024286D03*
X010476Y007438D03*
X010862Y006634D03*
X008552Y004874D03*
X008542Y003894D03*
X007522Y005094D03*
X006552Y003844D03*
X004883Y004786D03*
X004589Y002817D03*
X010017Y001137D03*
X014111Y002786D03*
M02*
