G75*
G70*
%OFA0B0*%
%FSLAX24Y24*%
%IPPOS*%
%LPD*%
%AMOC8*
5,1,8,0,0,1.08239X$1,22.5*
%
%ADD10R,0.0789X0.0395*%
%ADD11R,0.0808X0.1261*%
%ADD12R,0.0592X0.0710*%
%ADD13C,0.0720*%
%ADD14C,0.1380*%
%ADD15R,0.0552X0.0395*%
%ADD16R,0.0630X0.0217*%
%ADD17OC8,0.0714*%
%ADD18R,0.0395X0.1064*%
%ADD19R,0.0671X0.0986*%
%ADD20R,0.0867X0.0395*%
%ADD21R,0.0828X0.0671*%
%ADD22R,0.1458X0.0710*%
D10*
X016989Y001276D03*
X016993Y002182D03*
X016989Y003087D03*
X016989Y004276D03*
X016993Y005182D03*
X016989Y006087D03*
X016989Y007226D03*
X016993Y008132D03*
X016989Y009037D03*
D11*
X018993Y008132D03*
X018993Y005182D03*
X018993Y002182D03*
D12*
X014797Y005332D03*
X014049Y005332D03*
X014059Y006522D03*
X014807Y006522D03*
X014817Y007802D03*
X014069Y007802D03*
D13*
X004606Y009834D03*
X003606Y009834D03*
X001532Y007350D03*
X001532Y006350D03*
X001532Y005350D03*
X001532Y004350D03*
X001532Y003350D03*
D14*
X001232Y001232D03*
X001233Y009732D03*
X024333Y009732D03*
X024333Y001232D03*
D15*
X014093Y003297D03*
X014093Y004006D03*
D16*
X012522Y003878D03*
X012522Y004134D03*
X012522Y004390D03*
X012522Y004646D03*
X012522Y004902D03*
X012522Y005158D03*
X012522Y005414D03*
X012522Y005670D03*
X012522Y005926D03*
X012522Y006182D03*
X012522Y006437D03*
X012522Y006693D03*
X012522Y006949D03*
X012522Y007205D03*
X009643Y007205D03*
X009643Y006949D03*
X009643Y006693D03*
X009643Y006437D03*
X009643Y006182D03*
X009643Y005926D03*
X009643Y005670D03*
X009643Y005414D03*
X009643Y005158D03*
X009643Y004902D03*
X009643Y004646D03*
X009643Y004390D03*
X009643Y004134D03*
X009643Y003878D03*
D17*
X007373Y008214D03*
X006664Y008214D03*
X005956Y008214D03*
X005247Y008214D03*
X004538Y008214D03*
D18*
X009429Y002505D03*
X010019Y002505D03*
X010610Y002505D03*
X011200Y002505D03*
X011791Y002505D03*
X012382Y002505D03*
X012972Y002505D03*
D19*
X013779Y001225D03*
X008622Y001225D03*
D20*
X023052Y004846D03*
X023052Y005437D03*
X023052Y006027D03*
X023052Y006618D03*
D21*
X024568Y007503D03*
X024568Y003960D03*
D22*
X010876Y009122D03*
X008750Y009122D03*
M02*
