G75*
G70*
%OFA0B0*%
%FSLAX24Y24*%
%IPPOS*%
%LPD*%
%AMOC8*
5,1,8,0,0,1.08239X$1,22.5*
%
%ADD10R,0.0512X0.0630*%
%ADD11C,0.0600*%
%ADD12OC8,0.0594*%
%ADD13OC8,0.0357*%
%ADD14C,0.0100*%
%ADD15C,0.0357*%
%ADD16C,0.0320*%
%ADD17C,0.0120*%
D10*
X005519Y002602D03*
X006267Y002602D03*
X006542Y004560D03*
X005794Y004560D03*
X006020Y006688D03*
X006768Y006688D03*
D11*
X001532Y006350D03*
X001532Y005350D03*
X001532Y004350D03*
X001532Y003350D03*
X001532Y007350D03*
X003606Y009834D03*
X004606Y009834D03*
D12*
X004538Y008214D03*
X005247Y008214D03*
X005956Y008214D03*
X006664Y008214D03*
X007373Y008214D03*
D13*
X017593Y006482D03*
X018093Y006482D03*
X018593Y006482D03*
X019093Y006482D03*
X019593Y006482D03*
X020093Y006482D03*
X020593Y006482D03*
X020593Y005982D03*
X020093Y005982D03*
X020093Y005482D03*
X020593Y005482D03*
X020593Y004982D03*
X020093Y004982D03*
X018222Y004750D03*
X017783Y004765D03*
X017774Y005274D03*
X018228Y005270D03*
X018231Y005748D03*
X017783Y005757D03*
X017738Y007712D03*
X018207Y007711D03*
X018207Y008170D03*
X018207Y008170D03*
X017725Y008164D03*
X017727Y008628D03*
X018207Y008628D03*
X019593Y008982D03*
X020093Y008982D03*
X020593Y008982D03*
X020593Y008482D03*
X020093Y008482D03*
X020093Y007982D03*
X020593Y007982D03*
X020593Y003482D03*
X020093Y003482D03*
X019593Y003482D03*
X019093Y003482D03*
X018593Y003482D03*
X018093Y003482D03*
X017593Y003482D03*
X017725Y002669D03*
X018195Y002663D03*
X018195Y002211D03*
X017725Y002212D03*
X017725Y001748D03*
X018195Y001747D03*
X020093Y001982D03*
X020093Y002482D03*
X020593Y002482D03*
X020593Y002982D03*
X020093Y002982D03*
X019593Y002982D03*
D14*
X002257Y000807D02*
X002214Y000731D01*
X009713Y000731D01*
X009669Y000836D01*
X009669Y000975D01*
X009722Y001103D01*
X009820Y001201D01*
X009948Y001254D01*
X010087Y001254D01*
X010215Y001201D01*
X010291Y001125D01*
X013331Y001125D01*
X013313Y010229D01*
X004874Y010230D01*
X004937Y010168D01*
X006225Y010168D01*
X006346Y010118D01*
X006439Y010025D01*
X006952Y009512D01*
X007003Y009391D01*
X007003Y009259D01*
X007003Y008536D01*
X007019Y008520D01*
X007180Y008681D01*
X007566Y008681D01*
X007840Y008408D01*
X007840Y008021D01*
X007566Y007747D01*
X007180Y007747D01*
X007019Y007908D01*
X006858Y007747D01*
X006471Y007747D01*
X006296Y007923D01*
X006141Y007767D01*
X006004Y007767D01*
X006004Y008166D01*
X005907Y008166D01*
X005907Y007767D01*
X005771Y007767D01*
X005615Y007923D01*
X005440Y007747D01*
X005054Y007747D01*
X004893Y007908D01*
X004757Y007773D01*
X004757Y007387D01*
X005236Y006908D01*
X005594Y006908D01*
X005594Y007073D01*
X005693Y007173D01*
X006346Y007173D01*
X006408Y007111D01*
X006420Y007123D01*
X006454Y007143D01*
X006492Y007153D01*
X006718Y007153D01*
X006718Y006738D01*
X006818Y006738D01*
X007174Y006738D01*
X007174Y007023D01*
X007163Y007061D01*
X007144Y007095D01*
X007116Y007123D01*
X007081Y007143D01*
X007043Y007153D01*
X006818Y007153D01*
X006818Y006738D01*
X006818Y006638D01*
X007174Y006638D01*
X007174Y006353D01*
X007163Y006315D01*
X007144Y006281D01*
X007116Y006253D01*
X007109Y006249D01*
X007428Y006255D01*
X007428Y006338D01*
X008373Y007283D01*
X008373Y007293D01*
X008376Y007297D01*
X008505Y007426D01*
X010204Y007426D01*
X010279Y007501D01*
X010407Y007554D01*
X010546Y007554D01*
X010674Y007501D01*
X010772Y007403D01*
X010825Y007275D01*
X010825Y007137D01*
X010772Y007009D01*
X010674Y006911D01*
X010546Y006858D01*
X010407Y006858D01*
X010279Y006911D01*
X010204Y006986D01*
X008698Y006986D01*
X008684Y006972D01*
X007868Y006156D01*
X007868Y006041D01*
X007868Y006022D01*
X010171Y006022D01*
X010514Y006364D01*
X010514Y006471D01*
X010567Y006599D01*
X010665Y006697D01*
X010793Y006750D01*
X010932Y006750D01*
X011060Y006697D01*
X011158Y006599D01*
X011211Y006471D01*
X011211Y006332D01*
X011158Y006204D01*
X011060Y006106D01*
X010932Y006053D01*
X010825Y006053D01*
X010354Y005582D01*
X010171Y005582D01*
X004744Y005582D01*
X002423Y003261D01*
X002423Y003261D01*
X002294Y003132D01*
X001950Y003132D01*
X001930Y003084D01*
X001798Y002952D01*
X001625Y002880D01*
X001509Y002880D01*
X002427Y001962D01*
X005930Y001981D01*
X006035Y002087D01*
X006035Y002117D01*
X005940Y002117D01*
X005893Y002165D01*
X005845Y002117D01*
X005192Y002117D01*
X005093Y002216D01*
X005093Y002382D01*
X004880Y002382D01*
X004788Y002289D01*
X004660Y002236D01*
X004521Y002236D01*
X004393Y002289D01*
X004295Y002387D01*
X004242Y002516D01*
X004242Y002654D01*
X004295Y002782D01*
X004393Y002880D01*
X004521Y002933D01*
X004660Y002933D01*
X004788Y002880D01*
X004846Y002822D01*
X005093Y002822D01*
X005093Y002987D01*
X005192Y003087D01*
X005293Y003087D01*
X005293Y003261D01*
X005293Y003443D01*
X005573Y003723D01*
X005573Y004076D01*
X005468Y004076D01*
X005368Y004175D01*
X005368Y004335D01*
X005157Y004335D01*
X005081Y004259D01*
X004953Y004206D01*
X004814Y004206D01*
X004686Y004259D01*
X004588Y004357D01*
X004535Y004485D01*
X004535Y004624D01*
X004588Y004752D01*
X004686Y004850D01*
X004814Y004903D01*
X004953Y004903D01*
X005081Y004850D01*
X005157Y004775D01*
X005368Y004775D01*
X005368Y004946D01*
X005468Y005045D01*
X006120Y005045D01*
X006168Y004998D01*
X006216Y005045D01*
X006869Y005045D01*
X006968Y004946D01*
X006968Y004175D01*
X006869Y004076D01*
X006762Y004076D01*
X006762Y003895D01*
X006848Y003809D01*
X006901Y003681D01*
X006901Y003542D01*
X006848Y003414D01*
X006750Y003316D01*
X006622Y003263D01*
X006483Y003263D01*
X006355Y003316D01*
X006257Y003414D01*
X006204Y003542D01*
X006204Y003681D01*
X006013Y003681D01*
X006013Y003779D02*
X006245Y003779D01*
X006257Y003809D02*
X006204Y003681D01*
X006204Y003582D02*
X006013Y003582D01*
X006013Y003541D02*
X006013Y004076D01*
X006120Y004076D01*
X006168Y004123D01*
X006216Y004076D01*
X006322Y004076D01*
X006322Y003874D01*
X006257Y003809D01*
X006322Y003878D02*
X006013Y003878D01*
X006013Y003976D02*
X006322Y003976D01*
X006322Y004075D02*
X006013Y004075D01*
X005573Y004075D02*
X003237Y004075D01*
X003335Y004174D02*
X005370Y004174D01*
X005368Y004272D02*
X005094Y004272D01*
X004674Y004272D02*
X003434Y004272D01*
X003532Y004371D02*
X004583Y004371D01*
X004542Y004469D02*
X003631Y004469D01*
X003730Y004568D02*
X004535Y004568D01*
X004553Y004666D02*
X003828Y004666D01*
X003927Y004765D02*
X004601Y004765D01*
X004719Y004863D02*
X004025Y004863D01*
X004124Y004962D02*
X005384Y004962D01*
X005368Y004863D02*
X005049Y004863D01*
X004884Y004555D02*
X005788Y004555D01*
X005794Y004560D01*
X005793Y004559D01*
X005793Y003632D01*
X005513Y003352D01*
X005513Y002592D01*
X005503Y002602D01*
X004607Y002602D01*
X004590Y002585D01*
X004242Y002597D02*
X001793Y002597D01*
X001891Y002498D02*
X004249Y002498D01*
X004290Y002400D02*
X001990Y002400D01*
X002088Y002301D02*
X004381Y002301D01*
X004799Y002301D02*
X005093Y002301D01*
X005106Y002203D02*
X002187Y002203D01*
X002285Y002104D02*
X006035Y002104D01*
X005954Y002006D02*
X002384Y002006D01*
X002428Y001502D02*
X006043Y001522D01*
X006136Y001522D01*
X006137Y001522D01*
X006138Y001522D01*
X006206Y001592D01*
X006317Y001703D01*
X006317Y001718D01*
X006360Y001761D01*
X006495Y001896D01*
X006495Y002117D01*
X006593Y002117D01*
X006692Y002216D01*
X006692Y002382D01*
X006831Y002382D01*
X007014Y002382D01*
X007624Y002992D01*
X007753Y003121D01*
X007753Y004599D01*
X007818Y004664D01*
X007871Y004792D01*
X007871Y004931D01*
X007818Y005059D01*
X007720Y005157D01*
X007592Y005210D01*
X007453Y005210D01*
X007325Y005157D01*
X007227Y005059D01*
X007174Y004931D01*
X007174Y004792D01*
X007227Y004664D01*
X007313Y004579D01*
X007313Y003303D01*
X006831Y002822D01*
X006692Y002822D01*
X006692Y002987D01*
X006593Y003087D01*
X005940Y003087D01*
X005893Y003039D01*
X005845Y003087D01*
X005733Y003087D01*
X005733Y003261D01*
X005884Y003412D01*
X006013Y003541D01*
X005956Y003484D02*
X006228Y003484D01*
X006286Y003385D02*
X005857Y003385D01*
X005759Y003287D02*
X006427Y003287D01*
X006678Y003287D02*
X007296Y003287D01*
X007313Y003385D02*
X006819Y003385D01*
X006877Y003484D02*
X007313Y003484D01*
X007313Y003582D02*
X006901Y003582D01*
X006901Y003681D02*
X007313Y003681D01*
X007313Y003779D02*
X006860Y003779D01*
X006779Y003878D02*
X007313Y003878D01*
X007313Y003976D02*
X006762Y003976D01*
X006762Y004075D02*
X007313Y004075D01*
X007313Y004174D02*
X006967Y004174D01*
X006968Y004272D02*
X007313Y004272D01*
X007313Y004371D02*
X006968Y004371D01*
X006968Y004469D02*
X007313Y004469D01*
X007313Y004568D02*
X006968Y004568D01*
X006968Y004666D02*
X007226Y004666D01*
X007186Y004765D02*
X006968Y004765D01*
X006968Y004863D02*
X007174Y004863D01*
X007187Y004962D02*
X006952Y004962D01*
X007228Y005060D02*
X004222Y005060D01*
X004321Y005159D02*
X007330Y005159D01*
X007716Y005159D02*
X013323Y005159D01*
X013323Y005258D02*
X004419Y005258D01*
X004518Y005356D02*
X013323Y005356D01*
X013323Y005455D02*
X004616Y005455D01*
X004715Y005553D02*
X013322Y005553D01*
X013322Y005652D02*
X010424Y005652D01*
X010522Y005750D02*
X013322Y005750D01*
X013322Y005849D02*
X010621Y005849D01*
X010719Y005947D02*
X013322Y005947D01*
X013321Y006046D02*
X010818Y006046D01*
X011098Y006144D02*
X013321Y006144D01*
X013321Y006243D02*
X011174Y006243D01*
X011211Y006341D02*
X013321Y006341D01*
X013321Y006440D02*
X011211Y006440D01*
X011183Y006539D02*
X013320Y006539D01*
X013320Y006637D02*
X011120Y006637D01*
X010967Y006736D02*
X013320Y006736D01*
X013320Y006834D02*
X008546Y006834D01*
X008448Y006736D02*
X010758Y006736D01*
X010605Y006637D02*
X008349Y006637D01*
X008250Y006539D02*
X010542Y006539D01*
X010514Y006440D02*
X008152Y006440D01*
X008053Y006341D02*
X010491Y006341D01*
X010393Y006243D02*
X007955Y006243D01*
X007868Y006144D02*
X010294Y006144D01*
X010196Y006046D02*
X007868Y006046D01*
X007648Y006039D02*
X007648Y006247D01*
X008593Y007192D01*
X008593Y007202D01*
X008596Y007206D01*
X010477Y007206D01*
X010804Y007327D02*
X013319Y007327D01*
X013319Y007425D02*
X010750Y007425D01*
X010620Y007524D02*
X013318Y007524D01*
X013318Y007623D02*
X004757Y007623D01*
X004757Y007721D02*
X013318Y007721D01*
X013318Y007820D02*
X007639Y007820D01*
X007737Y007918D02*
X013318Y007918D01*
X013317Y008017D02*
X007836Y008017D01*
X007840Y008115D02*
X013317Y008115D01*
X013317Y008214D02*
X007840Y008214D01*
X007840Y008312D02*
X013317Y008312D01*
X013317Y008411D02*
X007836Y008411D01*
X007738Y008509D02*
X013316Y008509D01*
X013316Y008608D02*
X007639Y008608D01*
X007106Y008608D02*
X007003Y008608D01*
X007003Y008707D02*
X013316Y008707D01*
X013316Y008805D02*
X007003Y008805D01*
X007003Y008904D02*
X013316Y008904D01*
X013315Y009002D02*
X007003Y009002D01*
X007003Y009101D02*
X013315Y009101D01*
X013315Y009199D02*
X007003Y009199D01*
X007003Y009298D02*
X013315Y009298D01*
X013315Y009396D02*
X007000Y009396D01*
X006959Y009495D02*
X013314Y009495D01*
X013314Y009593D02*
X006871Y009593D01*
X006772Y009692D02*
X013314Y009692D01*
X013314Y009791D02*
X006674Y009791D01*
X006575Y009889D02*
X013314Y009889D01*
X013314Y009988D02*
X006476Y009988D01*
X006378Y010086D02*
X013313Y010086D01*
X013313Y010185D02*
X004920Y010185D01*
X004338Y010230D02*
X004208Y010100D01*
X004136Y009927D01*
X004136Y009740D01*
X004208Y009568D01*
X004340Y009435D01*
X004513Y009364D01*
X004700Y009364D01*
X004872Y009435D01*
X004945Y009508D01*
X006023Y009508D01*
X006343Y009188D01*
X006343Y008553D01*
X006296Y008506D01*
X006141Y008661D01*
X006004Y008661D01*
X006004Y008263D01*
X005907Y008263D01*
X005907Y008661D01*
X005771Y008661D01*
X005615Y008506D01*
X005440Y008681D01*
X005054Y008681D01*
X004893Y008520D01*
X004732Y008681D01*
X004345Y008681D01*
X004071Y008408D01*
X004071Y008021D01*
X004317Y007775D01*
X004317Y007205D01*
X004446Y007076D01*
X005054Y006468D01*
X005236Y006468D01*
X005594Y006468D01*
X005594Y006303D01*
X005657Y006239D01*
X004281Y006239D01*
X004099Y006239D01*
X002431Y004572D01*
X001949Y004572D01*
X001930Y004617D01*
X001798Y004749D01*
X001625Y004820D01*
X001438Y004820D01*
X001265Y004749D01*
X001133Y004617D01*
X001063Y004446D01*
X001063Y006255D01*
X001133Y006084D01*
X001265Y005952D01*
X001438Y005880D01*
X001625Y005880D01*
X001798Y005952D01*
X001930Y006084D01*
X002002Y006257D01*
X002002Y006444D01*
X001930Y006617D01*
X001798Y006749D01*
X001625Y006820D01*
X001438Y006820D01*
X001265Y006749D01*
X001133Y006617D01*
X001063Y006446D01*
X001063Y006637D01*
X001154Y006637D01*
X001063Y006637D02*
X001345Y006919D01*
X001438Y006880D01*
X001625Y006880D01*
X001798Y006952D01*
X001930Y007084D01*
X002002Y007257D01*
X002002Y007444D01*
X001930Y007617D01*
X001798Y007749D01*
X001625Y007820D01*
X001438Y007820D01*
X001265Y007749D01*
X001133Y007617D01*
X001062Y007444D01*
X001062Y007286D01*
X000926Y007150D01*
X000920Y008677D01*
X001089Y008632D01*
X001378Y008632D01*
X001658Y008707D01*
X001909Y008852D01*
X002114Y009056D01*
X002258Y009307D01*
X002333Y009587D01*
X002333Y009877D01*
X002258Y010156D01*
X002216Y010231D01*
X003394Y010230D01*
X003370Y010219D01*
X003313Y010177D01*
X003263Y010127D01*
X003221Y010070D01*
X003189Y010006D01*
X003167Y009939D01*
X003159Y009884D01*
X003556Y009884D01*
X003556Y009784D01*
X003159Y009784D01*
X003167Y009728D01*
X003189Y009661D01*
X003221Y009598D01*
X003263Y009541D01*
X003313Y009491D01*
X003370Y009449D01*
X003433Y009417D01*
X003501Y009395D01*
X003556Y009386D01*
X003556Y009784D01*
X003656Y009784D01*
X003656Y009884D01*
X004054Y009884D01*
X004045Y009939D01*
X004023Y010006D01*
X003991Y010070D01*
X003949Y010127D01*
X003899Y010177D01*
X003842Y010219D01*
X003819Y010230D01*
X004338Y010230D01*
X004292Y010185D02*
X003889Y010185D01*
X003979Y010086D02*
X004202Y010086D01*
X004161Y009988D02*
X004029Y009988D01*
X004053Y009889D02*
X004136Y009889D01*
X004136Y009791D02*
X003656Y009791D01*
X003656Y009784D02*
X004054Y009784D01*
X004045Y009728D01*
X004023Y009661D01*
X003991Y009598D01*
X003949Y009541D01*
X003899Y009491D01*
X003842Y009449D01*
X003779Y009417D01*
X003712Y009395D01*
X003656Y009386D01*
X003656Y009784D01*
X003606Y009834D02*
X002343Y008570D01*
X002343Y005612D01*
X002061Y005330D01*
X001634Y005330D01*
X001532Y005350D01*
X001582Y005356D02*
X003216Y005356D01*
X003314Y005455D02*
X001971Y005455D01*
X001971Y005456D02*
X001949Y005523D01*
X001916Y005586D01*
X001875Y005643D01*
X001825Y005694D01*
X001767Y005735D01*
X001704Y005767D01*
X001637Y005789D01*
X001582Y005798D01*
X001582Y005400D01*
X001979Y005400D01*
X001971Y005456D01*
X001933Y005553D02*
X003413Y005553D01*
X003511Y005652D02*
X001867Y005652D01*
X001738Y005750D02*
X003610Y005750D01*
X003708Y005849D02*
X001063Y005849D01*
X001063Y005947D02*
X001276Y005947D01*
X001171Y006046D02*
X001063Y006046D01*
X001063Y006144D02*
X001108Y006144D01*
X001067Y006243D02*
X001063Y006243D01*
X001787Y005947D02*
X003807Y005947D01*
X003906Y006046D02*
X001892Y006046D01*
X001955Y006144D02*
X004004Y006144D01*
X004190Y006019D02*
X002523Y004352D01*
X001533Y004352D01*
X001532Y004350D01*
X001072Y004469D02*
X001063Y004469D01*
X001063Y004568D02*
X001113Y004568D01*
X001063Y004666D02*
X001183Y004666D01*
X001063Y004765D02*
X001304Y004765D01*
X001359Y004933D02*
X001426Y004911D01*
X001482Y004903D01*
X001482Y005300D01*
X001582Y005300D01*
X001582Y005400D01*
X001482Y005400D01*
X001482Y005798D01*
X001426Y005789D01*
X001359Y005767D01*
X001296Y005735D01*
X001238Y005694D01*
X001188Y005643D01*
X001147Y005586D01*
X001115Y005523D01*
X001093Y005456D01*
X001084Y005400D01*
X001481Y005400D01*
X001481Y005300D01*
X001084Y005300D01*
X001093Y005245D01*
X001115Y005178D01*
X001147Y005114D01*
X001188Y005057D01*
X001238Y005007D01*
X001296Y004965D01*
X001359Y004933D01*
X001303Y004962D02*
X001063Y004962D01*
X001063Y005060D02*
X001186Y005060D01*
X001124Y005159D02*
X001063Y005159D01*
X001063Y005258D02*
X001091Y005258D01*
X001063Y005356D02*
X001481Y005356D01*
X001482Y005258D02*
X001582Y005258D01*
X001582Y005300D02*
X001582Y004903D01*
X001637Y004911D01*
X001704Y004933D01*
X001767Y004965D01*
X001825Y005007D01*
X001875Y005057D01*
X001916Y005114D01*
X001949Y005178D01*
X001971Y005245D01*
X001979Y005300D01*
X001582Y005300D01*
X001582Y005159D02*
X001482Y005159D01*
X001482Y005060D02*
X001582Y005060D01*
X001582Y004962D02*
X001482Y004962D01*
X001760Y004962D02*
X002822Y004962D01*
X002920Y005060D02*
X001877Y005060D01*
X001939Y005159D02*
X003019Y005159D01*
X003117Y005258D02*
X001972Y005258D01*
X001582Y005455D02*
X001482Y005455D01*
X001482Y005553D02*
X001582Y005553D01*
X001582Y005652D02*
X001482Y005652D01*
X001482Y005750D02*
X001582Y005750D01*
X001325Y005750D02*
X001063Y005750D01*
X001063Y005652D02*
X001197Y005652D01*
X001130Y005553D02*
X001063Y005553D01*
X001063Y005455D02*
X001093Y005455D01*
X001063Y004863D02*
X002723Y004863D01*
X002624Y004765D02*
X001759Y004765D01*
X001880Y004666D02*
X002526Y004666D01*
X003138Y003976D02*
X005573Y003976D01*
X005573Y003878D02*
X003040Y003878D01*
X002941Y003779D02*
X005573Y003779D01*
X005531Y003681D02*
X002843Y003681D01*
X002744Y003582D02*
X005432Y003582D01*
X005333Y003484D02*
X002646Y003484D01*
X002547Y003385D02*
X005293Y003385D01*
X005293Y003287D02*
X002449Y003287D01*
X002350Y003188D02*
X005293Y003188D01*
X005293Y003090D02*
X001932Y003090D01*
X001837Y002991D02*
X005097Y002991D01*
X005093Y002892D02*
X004758Y002892D01*
X004422Y002892D02*
X001654Y002892D01*
X001596Y002794D02*
X004307Y002794D01*
X004259Y002695D02*
X001694Y002695D01*
X001532Y003350D02*
X001533Y003352D01*
X002203Y003352D01*
X004653Y005802D01*
X010263Y005802D01*
X010863Y006402D01*
X010696Y006933D02*
X013320Y006933D01*
X013319Y007031D02*
X010782Y007031D01*
X010822Y007130D02*
X013319Y007130D01*
X013319Y007228D02*
X010825Y007228D01*
X010257Y006933D02*
X008645Y006933D01*
X008318Y007228D02*
X004916Y007228D01*
X005014Y007130D02*
X005650Y007130D01*
X005594Y007031D02*
X005113Y007031D01*
X005211Y006933D02*
X005594Y006933D01*
X006020Y006688D02*
X005145Y006688D01*
X004537Y007296D01*
X004537Y008213D01*
X004538Y008214D01*
X004071Y008214D02*
X000922Y008214D01*
X000921Y008312D02*
X004071Y008312D01*
X004075Y008411D02*
X000921Y008411D01*
X000920Y008509D02*
X004173Y008509D01*
X004272Y008608D02*
X000920Y008608D01*
X001657Y008707D02*
X006343Y008707D01*
X006343Y008805D02*
X001828Y008805D01*
X001961Y008904D02*
X006343Y008904D01*
X006343Y009002D02*
X002059Y009002D01*
X002139Y009101D02*
X006343Y009101D01*
X006332Y009199D02*
X002196Y009199D01*
X002253Y009298D02*
X006233Y009298D01*
X006134Y009396D02*
X004778Y009396D01*
X004932Y009495D02*
X006036Y009495D01*
X004434Y009396D02*
X003716Y009396D01*
X003656Y009396D02*
X003556Y009396D01*
X003496Y009396D02*
X002282Y009396D01*
X002309Y009495D02*
X003309Y009495D01*
X003225Y009593D02*
X002333Y009593D01*
X002333Y009692D02*
X003179Y009692D01*
X003556Y009692D02*
X003656Y009692D01*
X003656Y009593D02*
X003556Y009593D01*
X003556Y009495D02*
X003656Y009495D01*
X003904Y009495D02*
X004280Y009495D01*
X004197Y009593D02*
X003988Y009593D01*
X004033Y009692D02*
X004156Y009692D01*
X003556Y009791D02*
X002333Y009791D01*
X002330Y009889D02*
X003159Y009889D01*
X003183Y009988D02*
X002304Y009988D01*
X002277Y010086D02*
X003233Y010086D01*
X003324Y010185D02*
X002242Y010185D01*
X004805Y008608D02*
X004980Y008608D01*
X005513Y008608D02*
X005717Y008608D01*
X005619Y008509D02*
X005612Y008509D01*
X005907Y008509D02*
X006004Y008509D01*
X006004Y008411D02*
X005907Y008411D01*
X005907Y008312D02*
X006004Y008312D01*
X006004Y008115D02*
X005907Y008115D01*
X005907Y008017D02*
X006004Y008017D01*
X006004Y007918D02*
X005907Y007918D01*
X005907Y007820D02*
X006004Y007820D01*
X006193Y007820D02*
X006399Y007820D01*
X006300Y007918D02*
X006291Y007918D01*
X005718Y007820D02*
X005512Y007820D01*
X005611Y007918D02*
X005620Y007918D01*
X004981Y007820D02*
X004804Y007820D01*
X004317Y007721D02*
X001825Y007721D01*
X001924Y007623D02*
X004317Y007623D01*
X004317Y007524D02*
X001968Y007524D01*
X002002Y007425D02*
X004317Y007425D01*
X004317Y007327D02*
X002002Y007327D01*
X001990Y007228D02*
X004317Y007228D01*
X004392Y007130D02*
X001949Y007130D01*
X001877Y007031D02*
X004490Y007031D01*
X004589Y006933D02*
X001752Y006933D01*
X001811Y006736D02*
X004786Y006736D01*
X004688Y006834D02*
X001260Y006834D01*
X001252Y006736D02*
X001162Y006736D01*
X001101Y006539D02*
X001063Y006539D01*
X001909Y006637D02*
X004885Y006637D01*
X004983Y006539D02*
X001962Y006539D01*
X002002Y006440D02*
X005594Y006440D01*
X005594Y006341D02*
X002002Y006341D01*
X001996Y006243D02*
X005654Y006243D01*
X006553Y006019D02*
X004190Y006019D01*
X006553Y006019D02*
X007648Y006039D01*
X007431Y006341D02*
X007170Y006341D01*
X007174Y006440D02*
X007530Y006440D01*
X007628Y006539D02*
X007174Y006539D01*
X007174Y006637D02*
X007727Y006637D01*
X007825Y006736D02*
X006818Y006736D01*
X006818Y006834D02*
X006718Y006834D01*
X006718Y006933D02*
X006818Y006933D01*
X006818Y007031D02*
X006718Y007031D01*
X006718Y007130D02*
X006818Y007130D01*
X007104Y007130D02*
X008220Y007130D01*
X008121Y007031D02*
X007171Y007031D01*
X007174Y006933D02*
X008022Y006933D01*
X007924Y006834D02*
X007174Y006834D01*
X006431Y007130D02*
X006389Y007130D01*
X006930Y007820D02*
X007107Y007820D01*
X008406Y007327D02*
X004817Y007327D01*
X004757Y007425D02*
X008505Y007425D01*
X010334Y007524D02*
X004757Y007524D01*
X004273Y007820D02*
X001627Y007820D01*
X001437Y007820D02*
X000923Y007820D01*
X000923Y007918D02*
X004174Y007918D01*
X004076Y008017D02*
X000922Y008017D01*
X000922Y008115D02*
X004071Y008115D01*
X005907Y008608D02*
X006004Y008608D01*
X006194Y008608D02*
X006343Y008608D01*
X006299Y008509D02*
X006292Y008509D01*
X010833Y007590D02*
X010911Y007512D01*
X015023Y007524D02*
X024853Y007524D01*
X024853Y007425D02*
X015023Y007425D01*
X015023Y007327D02*
X024853Y007327D01*
X024853Y007228D02*
X015023Y007228D01*
X015023Y007130D02*
X024853Y007130D01*
X024853Y007031D02*
X015023Y007031D01*
X015023Y006933D02*
X024853Y006933D01*
X024853Y006834D02*
X015023Y006834D01*
X015023Y006736D02*
X024853Y006736D01*
X024853Y006637D02*
X015023Y006637D01*
X015023Y006539D02*
X024853Y006539D01*
X024853Y006440D02*
X015023Y006440D01*
X015023Y006341D02*
X024853Y006341D01*
X024853Y006243D02*
X015023Y006243D01*
X015023Y006144D02*
X024853Y006144D01*
X024853Y006046D02*
X015023Y006046D01*
X015023Y005947D02*
X024853Y005947D01*
X024853Y005849D02*
X015023Y005849D01*
X015023Y005750D02*
X024853Y005750D01*
X024853Y005652D02*
X015023Y005652D01*
X015023Y005553D02*
X024853Y005553D01*
X024853Y005455D02*
X015023Y005455D01*
X015023Y005356D02*
X024853Y005356D01*
X024853Y005258D02*
X015023Y005258D01*
X015023Y005159D02*
X024853Y005159D01*
X024853Y005060D02*
X015023Y005060D01*
X015023Y004962D02*
X024853Y004962D01*
X024853Y004863D02*
X015023Y004863D01*
X015023Y004765D02*
X024853Y004765D01*
X024853Y004666D02*
X015023Y004666D01*
X015023Y004568D02*
X024853Y004568D01*
X024853Y004469D02*
X015023Y004469D01*
X015023Y004371D02*
X024853Y004371D01*
X024853Y004272D02*
X015023Y004272D01*
X015023Y004174D02*
X024853Y004174D01*
X024853Y004075D02*
X015023Y004075D01*
X015023Y003976D02*
X024853Y003976D01*
X024853Y003878D02*
X015023Y003878D01*
X015023Y003779D02*
X024853Y003779D01*
X024853Y003681D02*
X015023Y003681D01*
X015023Y003582D02*
X024853Y003582D01*
X024853Y003484D02*
X015023Y003484D01*
X015023Y003385D02*
X024853Y003385D01*
X024853Y003287D02*
X015023Y003287D01*
X015023Y003188D02*
X024853Y003188D01*
X024853Y003090D02*
X015023Y003090D01*
X015023Y002991D02*
X024853Y002991D01*
X024853Y002892D02*
X015023Y002892D01*
X015023Y002794D02*
X024853Y002794D01*
X024853Y002695D02*
X015023Y002695D01*
X015023Y002597D02*
X024853Y002597D01*
X024853Y002498D02*
X015023Y002498D01*
X015023Y002400D02*
X024853Y002400D01*
X024853Y002301D02*
X024591Y002301D01*
X024477Y002332D02*
X024757Y002257D01*
X024853Y002202D01*
X024853Y008762D01*
X024757Y008707D01*
X024477Y008632D01*
X024188Y008632D01*
X023908Y008707D01*
X023657Y008852D01*
X023452Y009056D01*
X023308Y009307D01*
X023233Y009587D01*
X023233Y009877D01*
X023308Y010156D01*
X023349Y010228D01*
X015023Y010229D01*
X015023Y000732D01*
X023351Y000732D01*
X023308Y000807D01*
X023233Y001087D01*
X023233Y001377D01*
X023308Y001656D01*
X023452Y001907D01*
X015023Y001907D01*
X015023Y001809D02*
X023395Y001809D01*
X023452Y001907D02*
X023657Y002112D01*
X023908Y002257D01*
X024188Y002332D01*
X024477Y002332D01*
X024074Y002301D02*
X015023Y002301D01*
X015023Y002203D02*
X023814Y002203D01*
X023649Y002104D02*
X015023Y002104D01*
X015023Y002006D02*
X023551Y002006D01*
X023339Y001710D02*
X015023Y001710D01*
X015023Y001611D02*
X023296Y001611D01*
X023269Y001513D02*
X015023Y001513D01*
X015023Y001414D02*
X023243Y001414D01*
X023233Y001316D02*
X015023Y001316D01*
X015023Y001217D02*
X023233Y001217D01*
X023233Y001119D02*
X015023Y001119D01*
X015023Y001020D02*
X023250Y001020D01*
X023277Y000922D02*
X015023Y000922D01*
X015023Y000823D02*
X023303Y000823D01*
X024851Y002203D02*
X024853Y002203D01*
X016234Y001285D02*
X016207Y001257D01*
X016233Y000942D02*
X016196Y000905D01*
X010018Y000905D01*
X009669Y000922D02*
X002288Y000922D01*
X002314Y001020D02*
X009688Y001020D01*
X009738Y001119D02*
X002332Y001119D01*
X002332Y001087D02*
X002332Y001377D01*
X002299Y001502D01*
X002333Y001502D01*
X002428Y001502D01*
X002428Y001502D01*
X002322Y001414D02*
X013331Y001414D01*
X013331Y001316D02*
X002332Y001316D01*
X002332Y001217D02*
X009860Y001217D01*
X010175Y001217D02*
X013331Y001217D01*
X013330Y001513D02*
X004385Y001513D01*
X006226Y001611D02*
X013330Y001611D01*
X013330Y001710D02*
X006317Y001710D01*
X006408Y001809D02*
X013330Y001809D01*
X013330Y001907D02*
X006495Y001907D01*
X006495Y002006D02*
X013329Y002006D01*
X013329Y002104D02*
X006495Y002104D01*
X006679Y002203D02*
X013329Y002203D01*
X013329Y002301D02*
X006692Y002301D01*
X007032Y002400D02*
X013329Y002400D01*
X013329Y002498D02*
X007130Y002498D01*
X007229Y002597D02*
X013328Y002597D01*
X013328Y002695D02*
X007327Y002695D01*
X007426Y002794D02*
X013328Y002794D01*
X013328Y002892D02*
X007524Y002892D01*
X007623Y002991D02*
X013328Y002991D01*
X013327Y003090D02*
X007721Y003090D01*
X007753Y003188D02*
X013327Y003188D01*
X013327Y003287D02*
X007753Y003287D01*
X007753Y003385D02*
X008326Y003385D01*
X008345Y003366D02*
X008473Y003313D01*
X008612Y003313D01*
X008740Y003366D01*
X008838Y003464D01*
X008891Y003592D01*
X008891Y003731D01*
X008838Y003859D01*
X008763Y003935D01*
X008763Y004359D01*
X008848Y004444D01*
X008901Y004572D01*
X008901Y004711D01*
X008848Y004839D01*
X008750Y004937D01*
X008622Y004990D01*
X008483Y004990D01*
X008355Y004937D01*
X008257Y004839D01*
X008204Y004711D01*
X008204Y004572D01*
X008257Y004444D01*
X008323Y004379D01*
X008323Y003935D01*
X008247Y003859D01*
X008194Y003731D01*
X008194Y003592D01*
X008247Y003464D01*
X008345Y003366D01*
X008239Y003484D02*
X007753Y003484D01*
X007753Y003582D02*
X008198Y003582D01*
X008194Y003681D02*
X007753Y003681D01*
X007753Y003779D02*
X008214Y003779D01*
X008266Y003878D02*
X007753Y003878D01*
X007753Y003976D02*
X008323Y003976D01*
X008323Y004075D02*
X007753Y004075D01*
X007753Y004174D02*
X008323Y004174D01*
X008323Y004272D02*
X007753Y004272D01*
X007753Y004371D02*
X008323Y004371D01*
X008247Y004469D02*
X007753Y004469D01*
X007753Y004568D02*
X008206Y004568D01*
X008204Y004666D02*
X007819Y004666D01*
X007859Y004765D02*
X008226Y004765D01*
X008281Y004863D02*
X007871Y004863D01*
X007858Y004962D02*
X008415Y004962D01*
X008690Y004962D02*
X013324Y004962D01*
X013323Y005060D02*
X007817Y005060D01*
X007533Y004852D02*
X007523Y004862D01*
X007533Y004852D02*
X007533Y003212D01*
X006923Y002602D01*
X006267Y002602D01*
X006692Y002892D02*
X006902Y002892D01*
X007001Y002991D02*
X006689Y002991D01*
X007099Y003090D02*
X005733Y003090D01*
X005733Y003188D02*
X007198Y003188D01*
X006553Y003612D02*
X006542Y003622D01*
X006542Y004560D01*
X008543Y004632D02*
X008543Y003662D01*
X008871Y003779D02*
X013326Y003779D01*
X013326Y003681D02*
X008891Y003681D01*
X008887Y003582D02*
X013326Y003582D01*
X013327Y003484D02*
X008846Y003484D01*
X008759Y003385D02*
X013327Y003385D01*
X013326Y003878D02*
X008819Y003878D01*
X008763Y003976D02*
X013326Y003976D01*
X013325Y004075D02*
X008763Y004075D01*
X008763Y004174D02*
X013325Y004174D01*
X013325Y004272D02*
X008763Y004272D01*
X008774Y004371D02*
X013325Y004371D01*
X013325Y004469D02*
X008858Y004469D01*
X008899Y004568D02*
X013324Y004568D01*
X013324Y004666D02*
X008901Y004666D01*
X008879Y004765D02*
X013324Y004765D01*
X013324Y004863D02*
X008824Y004863D01*
X008553Y004642D02*
X008543Y004632D01*
X005519Y002602D02*
X005503Y002602D01*
X002332Y001087D02*
X002257Y000807D01*
X002262Y000823D02*
X009675Y000823D01*
X013171Y002559D02*
X013176Y002555D01*
X014112Y002555D01*
X015023Y007623D02*
X024853Y007623D01*
X024853Y007721D02*
X015023Y007721D01*
X015023Y007820D02*
X024853Y007820D01*
X024853Y007918D02*
X015023Y007918D01*
X015023Y008017D02*
X024853Y008017D01*
X024853Y008115D02*
X015023Y008115D01*
X015023Y008214D02*
X024853Y008214D01*
X024853Y008312D02*
X015023Y008312D01*
X015023Y008411D02*
X024853Y008411D01*
X024853Y008509D02*
X015023Y008509D01*
X015023Y008608D02*
X024853Y008608D01*
X024853Y008707D02*
X024756Y008707D01*
X023909Y008707D02*
X015023Y008707D01*
X015023Y008805D02*
X023738Y008805D01*
X023605Y008904D02*
X015023Y008904D01*
X015023Y009002D02*
X023507Y009002D01*
X023427Y009101D02*
X015023Y009101D01*
X015023Y009199D02*
X023370Y009199D01*
X023313Y009298D02*
X015023Y009298D01*
X015023Y009396D02*
X023284Y009396D01*
X023257Y009495D02*
X015023Y009495D01*
X015023Y009593D02*
X023233Y009593D01*
X023233Y009692D02*
X015023Y009692D01*
X015023Y009791D02*
X023233Y009791D01*
X023236Y009889D02*
X015023Y009889D01*
X015023Y009988D02*
X023262Y009988D01*
X023289Y010086D02*
X015023Y010086D01*
X015023Y010185D02*
X023324Y010185D01*
X001238Y007721D02*
X000924Y007721D01*
X000924Y007623D02*
X001139Y007623D01*
X001095Y007524D02*
X000924Y007524D01*
X000925Y007425D02*
X001062Y007425D01*
X001062Y007327D02*
X000925Y007327D01*
X000926Y007228D02*
X001004Y007228D01*
D15*
X004884Y004555D03*
X006553Y003612D03*
X008543Y003662D03*
X008553Y004642D03*
X007523Y004862D03*
X010863Y006402D03*
X010477Y007206D03*
X014112Y002555D03*
X010018Y000905D03*
X004590Y002585D03*
D16*
X013128Y002515D02*
X013171Y002559D01*
X006673Y008223D02*
X006673Y009325D01*
X006159Y009838D01*
X004611Y009838D01*
X004606Y009834D01*
X005956Y008214D02*
X005958Y008216D01*
X006664Y008214D02*
X006673Y008223D01*
D17*
X001532Y007350D02*
X001433Y007332D01*
X000833Y006732D01*
X000833Y003232D01*
X002333Y001732D01*
X006041Y001752D01*
X006087Y001798D01*
X006087Y001814D01*
X006265Y001991D01*
X006265Y002600D01*
X006267Y002602D01*
M02*
