G75*
G70*
%OFA0B0*%
%FSLAX24Y24*%
%IPPOS*%
%LPD*%
%AMOC8*
5,1,8,0,0,1.08239X$1,22.5*
%
%ADD10C,0.0020*%
D10*
X005252Y002146D02*
X005439Y002146D01*
X005299Y002286D01*
X005299Y002006D01*
X005528Y002006D02*
X005622Y002099D01*
X005575Y002099D02*
X005715Y002099D01*
X005715Y002006D02*
X005715Y002286D01*
X005575Y002286D01*
X005528Y002240D01*
X005528Y002146D01*
X005575Y002099D01*
X005544Y004031D02*
X005637Y004031D01*
X005684Y004077D01*
X005684Y004171D02*
X005590Y004217D01*
X005544Y004217D01*
X005497Y004171D01*
X005497Y004077D01*
X005544Y004031D01*
X005684Y004171D02*
X005684Y004311D01*
X005497Y004311D01*
X005773Y004264D02*
X005773Y004171D01*
X005820Y004124D01*
X005960Y004124D01*
X005960Y004031D02*
X005960Y004311D01*
X005820Y004311D01*
X005773Y004264D01*
X005867Y004124D02*
X005773Y004031D01*
X005794Y006175D02*
X005748Y006221D01*
X005748Y006268D01*
X005794Y006315D01*
X005934Y006315D01*
X005934Y006221D01*
X005888Y006175D01*
X005794Y006175D01*
X005934Y006315D02*
X005841Y006408D01*
X005748Y006455D01*
X006024Y006408D02*
X006024Y006315D01*
X006071Y006268D01*
X006211Y006268D01*
X006211Y006175D02*
X006211Y006455D01*
X006071Y006455D01*
X006024Y006408D01*
X006117Y006268D02*
X006024Y006175D01*
X005991Y012756D02*
X005991Y013036D01*
X005851Y013036D01*
X005804Y012990D01*
X005804Y012896D01*
X005851Y012849D01*
X005991Y012849D01*
X005898Y012849D02*
X005804Y012756D01*
X005715Y012756D02*
X005528Y012756D01*
X005622Y012756D02*
X005622Y013036D01*
X005715Y012943D01*
X005439Y012990D02*
X005392Y013036D01*
X005299Y013036D01*
X005252Y012990D01*
X005439Y012803D01*
X005392Y012756D01*
X005299Y012756D01*
X005252Y012803D01*
X005252Y012990D01*
X005439Y012990D02*
X005439Y012803D01*
X005497Y014781D02*
X005684Y014781D01*
X005773Y014781D02*
X005960Y014781D01*
X006049Y014781D02*
X006143Y014874D01*
X006096Y014874D02*
X006236Y014874D01*
X006236Y014781D02*
X006236Y015061D01*
X006096Y015061D01*
X006049Y015014D01*
X006049Y014921D01*
X006096Y014874D01*
X005960Y014967D02*
X005867Y015061D01*
X005867Y014781D01*
X005684Y014967D02*
X005590Y015061D01*
X005590Y014781D01*
X005748Y016925D02*
X005934Y016925D01*
X005748Y017112D01*
X005748Y017158D01*
X005794Y017205D01*
X005888Y017205D01*
X005934Y017158D01*
X006117Y017205D02*
X006117Y016925D01*
X006024Y016925D02*
X006211Y016925D01*
X006300Y016925D02*
X006394Y017018D01*
X006347Y017018D02*
X006487Y017018D01*
X006487Y016925D02*
X006487Y017205D01*
X006347Y017205D01*
X006300Y017158D01*
X006300Y017065D01*
X006347Y017018D01*
X006211Y017112D02*
X006117Y017205D01*
X005991Y023506D02*
X005991Y023786D01*
X005851Y023786D01*
X005804Y023740D01*
X005804Y023646D01*
X005851Y023599D01*
X005991Y023599D01*
X005898Y023599D02*
X005804Y023506D01*
X005715Y023506D02*
X005528Y023506D01*
X005622Y023506D02*
X005622Y023786D01*
X005715Y023693D01*
X005439Y023646D02*
X005299Y023646D01*
X005252Y023599D01*
X005252Y023553D01*
X005299Y023506D01*
X005392Y023506D01*
X005439Y023553D01*
X005439Y023646D01*
X005345Y023740D01*
X005252Y023786D01*
X005684Y025531D02*
X005684Y025577D01*
X005497Y025764D01*
X005497Y025811D01*
X005684Y025811D01*
X005867Y025811D02*
X005867Y025531D01*
X005960Y025531D02*
X005773Y025531D01*
X005960Y025717D02*
X005867Y025811D01*
X006049Y025764D02*
X006049Y025671D01*
X006096Y025624D01*
X006236Y025624D01*
X006143Y025624D02*
X006049Y025531D01*
X006236Y025531D02*
X006236Y025811D01*
X006096Y025811D01*
X006049Y025764D01*
X006024Y027675D02*
X006211Y027675D01*
X006300Y027675D02*
X006394Y027768D01*
X006347Y027768D02*
X006487Y027768D01*
X006487Y027675D02*
X006487Y027955D01*
X006347Y027955D01*
X006300Y027908D01*
X006300Y027815D01*
X006347Y027768D01*
X006211Y027862D02*
X006117Y027955D01*
X006117Y027675D01*
X005934Y027721D02*
X005934Y027768D01*
X005888Y027815D01*
X005794Y027815D01*
X005748Y027768D01*
X005748Y027721D01*
X005794Y027675D01*
X005888Y027675D01*
X005934Y027721D01*
X005888Y027815D02*
X005934Y027862D01*
X005934Y027908D01*
X005888Y027955D01*
X005794Y027955D01*
X005748Y027908D01*
X005748Y027862D01*
X005794Y027815D01*
X030051Y006542D02*
X030331Y006542D01*
X030191Y006402D01*
X030191Y006589D01*
X030238Y006313D02*
X030285Y006313D01*
X030331Y006266D01*
X030331Y006172D01*
X030285Y006126D01*
X030285Y006036D02*
X030191Y006036D01*
X030145Y005990D01*
X030145Y005850D01*
X030145Y005943D02*
X030051Y006036D01*
X030051Y006126D02*
X030238Y006313D01*
X030051Y006313D02*
X030051Y006126D01*
X030285Y006036D02*
X030331Y005990D01*
X030331Y005850D01*
X030051Y005850D01*
X032195Y005875D02*
X032382Y006062D01*
X032429Y006062D01*
X032475Y006015D01*
X032475Y005922D01*
X032429Y005875D01*
X032429Y005786D02*
X032335Y005786D01*
X032289Y005739D01*
X032289Y005599D01*
X032289Y005692D02*
X032195Y005786D01*
X032195Y005875D02*
X032195Y006062D01*
X032242Y006151D02*
X032195Y006198D01*
X032195Y006291D01*
X032242Y006338D01*
X032289Y006338D01*
X032335Y006291D01*
X032335Y006245D01*
X032335Y006291D02*
X032382Y006338D01*
X032429Y006338D01*
X032475Y006291D01*
X032475Y006198D01*
X032429Y006151D01*
X032429Y005786D02*
X032475Y005739D01*
X032475Y005599D01*
X032195Y005599D01*
X034220Y005630D02*
X034407Y005817D01*
X034453Y005817D01*
X034500Y005770D01*
X034500Y005677D01*
X034453Y005630D01*
X034453Y005541D02*
X034360Y005541D01*
X034313Y005494D01*
X034313Y005354D01*
X034220Y005354D02*
X034500Y005354D01*
X034500Y005494D01*
X034453Y005541D01*
X034313Y005447D02*
X034220Y005541D01*
X034220Y005630D02*
X034220Y005817D01*
X034220Y005906D02*
X034407Y006093D01*
X034453Y006093D01*
X034500Y006046D01*
X034500Y005953D01*
X034453Y005906D01*
X034220Y005906D02*
X034220Y006093D01*
M02*
