G75*
G70*
%OFA0B0*%
%FSLAX24Y24*%
%IPPOS*%
%LPD*%
%AMOC8*
5,1,8,0,0,1.08239X$1,22.5*
%
%ADD10C,0.0110*%
%ADD11C,0.0080*%
%ADD12C,0.0060*%
%ADD13C,0.0040*%
%ADD14C,0.0050*%
%ADD15C,0.0030*%
%ADD16C,0.0020*%
%ADD17C,0.0010*%
%ADD18R,0.0390X0.0003*%
%ADD19R,0.0012X0.0003*%
%ADD20R,0.0545X0.0002*%
%ADD21R,0.0550X0.0003*%
%ADD22R,0.0555X0.0002*%
%ADD23R,0.0555X0.0003*%
%ADD24R,0.0065X0.0003*%
%ADD25R,0.0030X0.0003*%
%ADD26R,0.0057X0.0002*%
%ADD27R,0.0023X0.0002*%
%ADD28R,0.0057X0.0003*%
%ADD29R,0.0020X0.0003*%
%ADD30R,0.0020X0.0002*%
%ADD31R,0.0018X0.0002*%
%ADD32R,0.0018X0.0003*%
%ADD33R,0.0120X0.0002*%
%ADD34R,0.0120X0.0003*%
%ADD35R,0.0023X0.0003*%
%ADD36R,0.0022X0.0003*%
%ADD37R,0.0022X0.0002*%
%ADD38R,0.1920X0.0003*%
%ADD39R,0.1905X0.0003*%
%ADD40R,0.1935X0.0002*%
%ADD41R,0.1920X0.0002*%
%ADD42R,0.1942X0.0003*%
%ADD43R,0.1928X0.0003*%
%ADD44R,0.2040X0.0002*%
%ADD45R,0.2023X0.0002*%
%ADD46R,0.2052X0.0003*%
%ADD47R,0.2035X0.0003*%
%ADD48R,0.2057X0.0002*%
%ADD49R,0.2043X0.0002*%
%ADD50R,0.2060X0.0003*%
%ADD51R,0.2045X0.0003*%
%ADD52R,0.2062X0.0002*%
%ADD53R,0.2048X0.0002*%
%ADD54R,0.2065X0.0003*%
%ADD55R,0.2050X0.0003*%
%ADD56R,0.2067X0.0002*%
%ADD57R,0.2053X0.0002*%
%ADD58R,0.2070X0.0003*%
%ADD59R,0.2055X0.0003*%
%ADD60R,0.2072X0.0002*%
%ADD61R,0.2058X0.0002*%
%ADD62R,0.2075X0.0003*%
%ADD63R,0.1977X0.0002*%
%ADD64R,0.1963X0.0002*%
%ADD65R,0.1977X0.0003*%
%ADD66R,0.1963X0.0003*%
%ADD67R,0.1980X0.0002*%
%ADD68R,0.1965X0.0002*%
%ADD69R,0.1980X0.0003*%
%ADD70R,0.1965X0.0003*%
%ADD71R,0.1982X0.0002*%
%ADD72R,0.1968X0.0002*%
%ADD73R,0.0105X0.0003*%
%ADD74R,0.0095X0.0003*%
%ADD75R,0.0098X0.0002*%
%ADD76R,0.0087X0.0002*%
%ADD77R,0.0093X0.0003*%
%ADD78R,0.0082X0.0003*%
%ADD79R,0.0088X0.0002*%
%ADD80R,0.0077X0.0002*%
%ADD81R,0.0085X0.0003*%
%ADD82R,0.0075X0.0003*%
%ADD83R,0.0082X0.0002*%
%ADD84R,0.0073X0.0002*%
%ADD85R,0.0080X0.0003*%
%ADD86R,0.0070X0.0003*%
%ADD87R,0.0068X0.0002*%
%ADD88R,0.0072X0.0003*%
%ADD89R,0.0025X0.0003*%
%ADD90R,0.0063X0.0003*%
%ADD91R,0.0072X0.0002*%
%ADD92R,0.0122X0.0002*%
%ADD93R,0.0063X0.0002*%
%ADD94R,0.0073X0.0003*%
%ADD95R,0.0122X0.0003*%
%ADD96R,0.0060X0.0003*%
%ADD97R,0.0070X0.0002*%
%ADD98R,0.0060X0.0002*%
%ADD99R,0.0068X0.0003*%
%ADD100R,0.0065X0.0002*%
%ADD101R,0.0025X0.0002*%
%ADD102R,0.0055X0.0002*%
%ADD103R,0.0055X0.0003*%
%ADD104R,0.0052X0.0002*%
%ADD105R,0.0130X0.0003*%
%ADD106R,0.0052X0.0003*%
%ADD107R,0.0128X0.0002*%
%ADD108R,0.0050X0.0002*%
%ADD109R,0.0128X0.0003*%
%ADD110R,0.0050X0.0003*%
%ADD111R,0.0058X0.0002*%
%ADD112R,0.0123X0.0002*%
%ADD113R,0.0047X0.0002*%
%ADD114R,0.0058X0.0003*%
%ADD115R,0.0123X0.0003*%
%ADD116R,0.0047X0.0003*%
%ADD117R,0.0045X0.0002*%
%ADD118R,0.0045X0.0003*%
%ADD119R,0.0062X0.0003*%
%ADD120R,0.0553X0.0003*%
%ADD121R,0.0550X0.0002*%
%ADD122R,0.0543X0.0003*%
%ADD123R,0.0027X0.0002*%
%ADD124R,0.0048X0.0003*%
%ADD125R,0.0242X0.0003*%
%ADD126R,0.0170X0.0003*%
%ADD127R,0.0172X0.0003*%
%ADD128R,0.0243X0.0003*%
%ADD129R,0.0210X0.0003*%
%ADD130R,0.0262X0.0002*%
%ADD131R,0.0188X0.0002*%
%ADD132R,0.0190X0.0002*%
%ADD133R,0.0225X0.0002*%
%ADD134R,0.0270X0.0003*%
%ADD135R,0.0198X0.0003*%
%ADD136R,0.0200X0.0003*%
%ADD137R,0.0235X0.0003*%
%ADD138R,0.0067X0.0003*%
%ADD139R,0.0280X0.0002*%
%ADD140R,0.0205X0.0002*%
%ADD141R,0.0277X0.0002*%
%ADD142R,0.0243X0.0002*%
%ADD143R,0.0285X0.0003*%
%ADD144R,0.0283X0.0003*%
%ADD145R,0.0247X0.0003*%
%ADD146R,0.0078X0.0002*%
%ADD147R,0.0290X0.0002*%
%ADD148R,0.0215X0.0002*%
%ADD149R,0.0287X0.0002*%
%ADD150R,0.0253X0.0002*%
%ADD151R,0.0080X0.0002*%
%ADD152R,0.0290X0.0003*%
%ADD153R,0.0218X0.0003*%
%ADD154R,0.0083X0.0003*%
%ADD155R,0.0220X0.0003*%
%ADD156R,0.0255X0.0003*%
%ADD157R,0.0085X0.0002*%
%ADD158R,0.0295X0.0002*%
%ADD159R,0.0222X0.0002*%
%ADD160R,0.0083X0.0002*%
%ADD161R,0.0220X0.0002*%
%ADD162R,0.0260X0.0002*%
%ADD163R,0.0298X0.0003*%
%ADD164R,0.0222X0.0003*%
%ADD165R,0.0087X0.0003*%
%ADD166R,0.0225X0.0003*%
%ADD167R,0.0295X0.0003*%
%ADD168R,0.0260X0.0003*%
%ADD169R,0.0300X0.0002*%
%ADD170R,0.0228X0.0002*%
%ADD171R,0.0265X0.0002*%
%ADD172R,0.0088X0.0003*%
%ADD173R,0.0300X0.0003*%
%ADD174R,0.0228X0.0003*%
%ADD175R,0.0230X0.0003*%
%ADD176R,0.0265X0.0003*%
%ADD177R,0.0230X0.0002*%
%ADD178R,0.0090X0.0002*%
%ADD179R,0.0090X0.0003*%
%ADD180R,0.0302X0.0003*%
%ADD181R,0.0302X0.0002*%
%ADD182R,0.0227X0.0003*%
%ADD183R,0.0262X0.0003*%
%ADD184R,0.0298X0.0002*%
%ADD185R,0.0075X0.0002*%
%ADD186R,0.0292X0.0002*%
%ADD187R,0.0223X0.0002*%
%ADD188R,0.0255X0.0002*%
%ADD189R,0.0292X0.0003*%
%ADD190R,0.0217X0.0003*%
%ADD191R,0.0288X0.0003*%
%ADD192R,0.0252X0.0003*%
%ADD193R,0.0067X0.0002*%
%ADD194R,0.0288X0.0002*%
%ADD195R,0.0213X0.0002*%
%ADD196R,0.0248X0.0002*%
%ADD197R,0.0282X0.0003*%
%ADD198R,0.0207X0.0003*%
%ADD199R,0.0280X0.0003*%
%ADD200R,0.0272X0.0002*%
%ADD201R,0.0053X0.0002*%
%ADD202R,0.0203X0.0002*%
%ADD203R,0.0238X0.0002*%
%ADD204R,0.0195X0.0003*%
%ADD205R,0.0043X0.0003*%
%ADD206R,0.0040X0.0003*%
%ADD207R,0.0193X0.0003*%
%ADD208R,0.0035X0.0003*%
%ADD209R,0.0043X0.0002*%
%ADD210R,0.0042X0.0002*%
%ADD211R,0.0250X0.0002*%
%ADD212R,0.0180X0.0002*%
%ADD213R,0.0012X0.0002*%
%ADD214R,0.0173X0.0002*%
%ADD215R,0.0095X0.0002*%
%ADD216R,0.0053X0.0003*%
%ADD217R,0.0038X0.0002*%
%ADD218R,0.0030X0.0002*%
%ADD219R,0.0035X0.0002*%
%ADD220R,0.0032X0.0002*%
%ADD221R,0.0062X0.0002*%
%ADD222R,0.0078X0.0003*%
%ADD223R,0.0077X0.0003*%
%ADD224R,0.0048X0.0002*%
%ADD225R,0.0042X0.0003*%
%ADD226R,0.0032X0.0003*%
%ADD227R,0.0138X0.0002*%
%ADD228R,0.0108X0.0003*%
%ADD229R,0.0258X0.0003*%
%ADD230R,0.0215X0.0003*%
%ADD231R,0.0155X0.0003*%
%ADD232R,0.0267X0.0002*%
%ADD233R,0.0165X0.0002*%
%ADD234R,0.0277X0.0003*%
%ADD235R,0.0140X0.0002*%
%ADD236R,0.0283X0.0002*%
%ADD237R,0.0245X0.0002*%
%ADD238R,0.0175X0.0002*%
%ADD239R,0.0145X0.0003*%
%ADD240R,0.0287X0.0003*%
%ADD241R,0.0250X0.0003*%
%ADD242R,0.0180X0.0003*%
%ADD243R,0.0150X0.0002*%
%ADD244R,0.0185X0.0002*%
%ADD245R,0.0150X0.0003*%
%ADD246R,0.0257X0.0003*%
%ADD247R,0.0187X0.0003*%
%ADD248R,0.0155X0.0002*%
%ADD249R,0.0263X0.0003*%
%ADD250R,0.0157X0.0002*%
%ADD251R,0.0263X0.0002*%
%ADD252R,0.0193X0.0002*%
%ADD253R,0.0160X0.0003*%
%ADD254R,0.0160X0.0002*%
%ADD255R,0.0195X0.0002*%
%ADD256R,0.0267X0.0003*%
%ADD257R,0.0190X0.0003*%
%ADD258R,0.0187X0.0002*%
%ADD259R,0.0152X0.0003*%
%ADD260R,0.0185X0.0003*%
%ADD261R,0.0257X0.0002*%
%ADD262R,0.0183X0.0002*%
%ADD263R,0.0148X0.0003*%
%ADD264R,0.0177X0.0003*%
%ADD265R,0.0142X0.0002*%
%ADD266R,0.0285X0.0002*%
%ADD267R,0.0138X0.0003*%
%ADD268R,0.0245X0.0003*%
%ADD269R,0.0167X0.0003*%
%ADD270R,0.0130X0.0002*%
%ADD271R,0.0270X0.0002*%
%ADD272R,0.0240X0.0002*%
%ADD273R,0.0140X0.0003*%
%ADD274R,0.0112X0.0002*%
%ADD275R,0.0218X0.0002*%
%ADD276R,0.0040X0.0002*%
%ADD277R,0.0105X0.0002*%
%ADD278R,0.0117X0.0003*%
%ADD279R,0.0127X0.0002*%
%ADD280R,0.0133X0.0003*%
%ADD281R,0.0143X0.0002*%
%ADD282R,0.0147X0.0002*%
%ADD283R,0.0153X0.0003*%
%ADD284R,0.0157X0.0003*%
%ADD285R,0.0163X0.0002*%
%ADD286R,0.0163X0.0003*%
%ADD287R,0.0135X0.0003*%
%ADD288R,0.0125X0.0002*%
%ADD289R,0.0115X0.0003*%
%ADD290R,0.0173X0.0003*%
%ADD291R,0.0315X0.0003*%
%ADD292R,0.0162X0.0003*%
%ADD293R,0.0253X0.0003*%
%ADD294R,0.0208X0.0003*%
%ADD295R,0.0333X0.0002*%
%ADD296R,0.0237X0.0003*%
%ADD297R,0.0343X0.0003*%
%ADD298R,0.0203X0.0003*%
%ADD299R,0.0272X0.0003*%
%ADD300R,0.0273X0.0003*%
%ADD301R,0.0208X0.0002*%
%ADD302R,0.0353X0.0002*%
%ADD303R,0.0207X0.0002*%
%ADD304R,0.0212X0.0003*%
%ADD305R,0.0357X0.0003*%
%ADD306R,0.0363X0.0002*%
%ADD307R,0.0217X0.0002*%
%ADD308R,0.0367X0.0003*%
%ADD309R,0.0223X0.0003*%
%ADD310R,0.0293X0.0003*%
%ADD311R,0.0367X0.0002*%
%ADD312R,0.0297X0.0002*%
%ADD313R,0.0370X0.0003*%
%ADD314R,0.0373X0.0002*%
%ADD315R,0.0227X0.0002*%
%ADD316R,0.0373X0.0003*%
%ADD317R,0.0375X0.0002*%
%ADD318R,0.0303X0.0002*%
%ADD319R,0.0375X0.0003*%
%ADD320R,0.0305X0.0003*%
%ADD321R,0.0305X0.0002*%
%ADD322R,0.0370X0.0002*%
%ADD323R,0.0365X0.0002*%
%ADD324R,0.0363X0.0003*%
%ADD325R,0.0247X0.0002*%
%ADD326R,0.0212X0.0002*%
%ADD327R,0.0357X0.0002*%
%ADD328R,0.0350X0.0003*%
%ADD329R,0.0278X0.0003*%
%ADD330R,0.0240X0.0003*%
%ADD331R,0.0235X0.0002*%
%ADD332R,0.0200X0.0002*%
%ADD333R,0.0343X0.0002*%
%ADD334R,0.0273X0.0002*%
%ADD335R,0.0333X0.0003*%
%ADD336R,0.0167X0.0002*%
%ADD337R,0.0313X0.0002*%
%ADD338R,0.0178X0.0002*%
%ADD339R,0.0242X0.0002*%
%ADD340R,0.0210X0.0002*%
%ADD341R,0.0093X0.0002*%
%ADD342R,0.0100X0.0003*%
%ADD343R,0.4430X0.0003*%
%ADD344R,0.4425X0.0002*%
%ADD345R,0.4425X0.0003*%
%ADD346R,0.4420X0.0002*%
%ADD347R,0.4420X0.0003*%
%ADD348R,0.4415X0.0002*%
%ADD349R,0.4410X0.0003*%
%ADD350R,0.4405X0.0002*%
%ADD351R,0.4400X0.0003*%
%ADD352R,0.4395X0.0002*%
%ADD353R,0.4390X0.0003*%
%ADD354R,0.4385X0.0002*%
%ADD355R,0.4380X0.0003*%
%ADD356R,0.4370X0.0002*%
%ADD357R,0.4360X0.0003*%
%ADD358R,0.4350X0.0002*%
%ADD359R,0.4330X0.0003*%
%ADD360R,0.4305X0.0002*%
D10*
X009269Y009588D02*
X009269Y009982D01*
X009072Y009785D02*
X009466Y009785D01*
X010176Y009814D02*
X010570Y009814D01*
D11*
X001783Y002932D02*
X001283Y002932D01*
X001033Y003182D01*
X001033Y003682D01*
X001283Y003932D01*
X001033Y004182D01*
X001033Y004682D01*
X001283Y004932D01*
X001033Y005182D01*
X001033Y005682D01*
X001283Y005932D01*
X001033Y006182D01*
X001033Y006682D01*
X001283Y006932D01*
X001033Y007182D01*
X001033Y007682D01*
X001283Y007932D01*
X001783Y007932D01*
X002033Y007682D01*
X002033Y007182D01*
X001783Y006932D01*
X002033Y006682D01*
X002033Y006182D01*
X001783Y005932D01*
X002033Y005682D01*
X002033Y005182D01*
X001783Y004932D01*
X002033Y004682D01*
X002033Y004182D01*
X001783Y003932D01*
X002033Y003682D01*
X002033Y003182D01*
X001783Y002932D01*
X008513Y008177D02*
X008868Y007823D01*
X011112Y007823D01*
X011112Y008689D01*
X012022Y008665D02*
X012302Y008665D01*
X012482Y008665D02*
X012763Y008665D01*
X012943Y008805D02*
X013013Y008875D01*
X013153Y008875D01*
X013223Y008805D01*
X012943Y008525D01*
X013013Y008455D01*
X013153Y008455D01*
X013223Y008525D01*
X013223Y008805D01*
X013403Y008805D02*
X013473Y008875D01*
X013613Y008875D01*
X013683Y008805D01*
X013683Y008735D01*
X013403Y008455D01*
X013683Y008455D01*
X013864Y008665D02*
X014144Y008665D01*
X014324Y008735D02*
X014464Y008875D01*
X014464Y008455D01*
X014324Y008455D02*
X014604Y008455D01*
X014784Y008525D02*
X015064Y008805D01*
X015064Y008525D01*
X014994Y008455D01*
X014854Y008455D01*
X014784Y008525D01*
X014784Y008805D01*
X014854Y008875D01*
X014994Y008875D01*
X015064Y008805D01*
X015017Y009199D02*
X014947Y009269D01*
X014947Y009409D01*
X015017Y009479D01*
X015227Y009479D01*
X015227Y009619D02*
X015227Y009199D01*
X015017Y009199D01*
X014767Y009199D02*
X014767Y009409D01*
X014697Y009479D01*
X014487Y009479D01*
X014487Y009199D01*
X014307Y009269D02*
X014307Y009409D01*
X014236Y009479D01*
X014096Y009479D01*
X014026Y009409D01*
X014026Y009269D01*
X014096Y009199D01*
X014236Y009199D01*
X014307Y009269D01*
X013846Y009199D02*
X013846Y009619D01*
X013566Y009619D02*
X013566Y009199D01*
X013706Y009339D01*
X013846Y009199D01*
X013399Y009199D02*
X013329Y009269D01*
X013329Y009549D01*
X013259Y009479D02*
X013399Y009479D01*
X013022Y009479D02*
X013022Y009199D01*
X012952Y009199D02*
X013092Y009199D01*
X012772Y009269D02*
X012772Y009339D01*
X012702Y009409D01*
X012492Y009409D01*
X012702Y009409D02*
X012772Y009479D01*
X012772Y009549D01*
X012702Y009619D01*
X012492Y009619D01*
X012492Y009199D01*
X012702Y009199D01*
X012772Y009269D01*
X012312Y009199D02*
X012312Y009619D01*
X012031Y009619D02*
X012312Y009199D01*
X012031Y009199D02*
X012031Y009619D01*
X012045Y009917D02*
X012045Y010337D01*
X012255Y010337D01*
X012325Y010267D01*
X012325Y010127D01*
X012255Y010057D01*
X012045Y010057D01*
X012185Y010057D02*
X012325Y009917D01*
X012506Y009987D02*
X012576Y009917D01*
X012716Y009917D01*
X012786Y009987D01*
X012786Y010127D01*
X012646Y010127D01*
X012786Y010267D02*
X012716Y010337D01*
X012576Y010337D01*
X012506Y010267D01*
X012506Y009987D01*
X012966Y009917D02*
X013176Y009917D01*
X013246Y009987D01*
X013246Y010057D01*
X013176Y010127D01*
X012966Y010127D01*
X013176Y010127D02*
X013246Y010197D01*
X013246Y010267D01*
X013176Y010337D01*
X012966Y010337D01*
X012966Y009917D01*
X013022Y009689D02*
X013022Y009619D01*
X013022Y009479D02*
X012952Y009479D01*
X013426Y009987D02*
X013496Y009917D01*
X013636Y009917D01*
X013706Y009987D01*
X013706Y010057D01*
X013636Y010127D01*
X013496Y010127D01*
X013426Y010197D01*
X013426Y010267D01*
X013496Y010337D01*
X013636Y010337D01*
X013706Y010267D01*
X013957Y010197D02*
X014097Y010197D01*
X014167Y010127D01*
X014167Y009917D01*
X013957Y009917D01*
X013887Y009987D01*
X013957Y010057D01*
X014167Y010057D01*
X014347Y009917D02*
X014557Y009917D01*
X014627Y009987D01*
X014627Y010127D01*
X014557Y010197D01*
X014347Y010197D01*
X014807Y010127D02*
X014807Y009987D01*
X014877Y009917D01*
X015017Y009917D01*
X015088Y010057D02*
X014807Y010057D01*
X014807Y010127D02*
X014877Y010197D01*
X015017Y010197D01*
X015088Y010127D01*
X015088Y010057D01*
X015268Y010057D02*
X015408Y010197D01*
X015478Y010197D01*
X015268Y010197D02*
X015268Y009917D01*
X015651Y009847D02*
X015932Y009847D01*
X016112Y009987D02*
X016182Y009917D01*
X016322Y009917D01*
X016392Y009987D01*
X016572Y009987D02*
X016642Y009917D01*
X016782Y009917D01*
X016852Y009987D01*
X016852Y010127D01*
X016782Y010197D01*
X016642Y010197D01*
X016572Y010127D01*
X016572Y009987D01*
X016112Y009987D02*
X016112Y010267D01*
X016182Y010337D01*
X016322Y010337D01*
X016392Y010267D01*
X017032Y010197D02*
X017243Y010197D01*
X017313Y010127D01*
X017313Y009917D01*
X017563Y009987D02*
X017633Y009917D01*
X017563Y009987D02*
X017563Y010267D01*
X017493Y010197D02*
X017633Y010197D01*
X017800Y010197D02*
X017800Y009917D01*
X017800Y010057D02*
X017940Y010197D01*
X018010Y010197D01*
X018183Y010127D02*
X018183Y009987D01*
X018253Y009917D01*
X018393Y009917D01*
X018463Y009987D01*
X018463Y010127D01*
X018393Y010197D01*
X018253Y010197D01*
X018183Y010127D01*
X018644Y009917D02*
X018784Y009917D01*
X018714Y009917D02*
X018714Y010337D01*
X018644Y010337D01*
X019411Y010197D02*
X019551Y009917D01*
X019691Y010197D01*
X019871Y010197D02*
X020011Y010337D01*
X020011Y009917D01*
X019871Y009917D02*
X020151Y009917D01*
X020332Y009917D02*
X020332Y009987D01*
X020402Y009987D01*
X020402Y009917D01*
X020332Y009917D01*
X020562Y009987D02*
X020632Y009917D01*
X020772Y009917D01*
X020842Y009987D01*
X020842Y010057D01*
X020772Y010127D01*
X020562Y010127D01*
X020562Y009987D01*
X020562Y010127D02*
X020702Y010267D01*
X020842Y010337D01*
X020246Y008664D02*
X019965Y008664D01*
X019895Y008594D01*
X019895Y008384D01*
X020316Y008384D01*
X020316Y008594D01*
X020246Y008664D01*
X020316Y008204D02*
X020316Y007923D01*
X019895Y007923D01*
X019895Y008204D01*
X020105Y008063D02*
X020105Y007923D01*
X020105Y007743D02*
X020175Y007673D01*
X020175Y007463D01*
X020175Y007603D02*
X020316Y007743D01*
X020105Y007743D02*
X019965Y007743D01*
X019895Y007673D01*
X019895Y007463D01*
X020316Y007463D01*
X020300Y006222D02*
X019880Y006222D01*
X019880Y005941D02*
X020300Y006222D01*
X020300Y005941D02*
X019880Y005941D01*
X019880Y005761D02*
X019880Y005481D01*
X020300Y005481D01*
X020300Y005761D01*
X020090Y005621D02*
X020090Y005481D01*
X019880Y005301D02*
X019880Y005021D01*
X020300Y005021D01*
X020300Y005301D01*
X020090Y005161D02*
X020090Y005021D01*
X020090Y004841D02*
X020160Y004770D01*
X020160Y004560D01*
X020300Y004560D02*
X019880Y004560D01*
X019880Y004770D01*
X019950Y004841D01*
X020090Y004841D01*
X020160Y004700D02*
X020300Y004841D01*
X020230Y004380D02*
X020090Y004380D01*
X020090Y004240D01*
X019950Y004100D02*
X020230Y004100D01*
X020300Y004170D01*
X020300Y004310D01*
X020230Y004380D01*
X019950Y004380D02*
X019880Y004310D01*
X019880Y004170D01*
X019950Y004100D01*
X019865Y003083D02*
X019865Y002803D01*
X020285Y002803D01*
X020285Y003083D01*
X020075Y002943D02*
X020075Y002803D01*
X020215Y002623D02*
X019865Y002623D01*
X019865Y002343D02*
X020215Y002343D01*
X020285Y002413D01*
X020285Y002553D01*
X020215Y002623D01*
X020285Y002162D02*
X020285Y001882D01*
X019865Y001882D01*
X019935Y001702D02*
X020005Y001702D01*
X020075Y001632D01*
X020075Y001422D01*
X020285Y001422D02*
X019865Y001422D01*
X019865Y001632D01*
X019935Y001702D01*
X020075Y001632D02*
X020145Y001702D01*
X020215Y001702D01*
X020285Y001632D01*
X020285Y001422D01*
X008513Y008177D02*
X008513Y008689D01*
X008652Y009496D02*
X008675Y009561D01*
X008701Y009624D01*
X008731Y009685D01*
X008765Y009745D01*
X008801Y009803D01*
X008841Y009859D01*
X008884Y009912D01*
X008930Y009963D01*
X008979Y010011D01*
X009030Y010056D01*
X009084Y010099D01*
X009140Y010138D01*
X009198Y010174D01*
X009259Y010207D01*
X009321Y010236D01*
X009384Y010262D01*
X009449Y010284D01*
X009515Y010303D01*
X009582Y010317D01*
X009649Y010328D01*
X009718Y010335D01*
X009786Y010339D01*
X009855Y010338D01*
X009923Y010334D01*
X009991Y010325D01*
X010058Y010313D01*
X010125Y010298D01*
X010191Y010278D01*
X010255Y010255D01*
X010318Y010228D01*
X010380Y010197D01*
X010439Y010164D01*
X010497Y010127D01*
X010552Y010086D01*
X010605Y010043D01*
X010656Y009997D01*
X010704Y009948D01*
X010749Y009896D01*
X010791Y009842D01*
X010830Y009786D01*
X010866Y009727D01*
X010898Y009667D01*
X010927Y009605D01*
X010953Y009541D01*
X010974Y009476D01*
X011112Y009555D02*
X011112Y010421D01*
X008868Y010421D01*
X008513Y010067D01*
X008513Y009555D01*
X008652Y008768D02*
X008673Y008703D01*
X008699Y008639D01*
X008728Y008577D01*
X008760Y008517D01*
X008796Y008458D01*
X008835Y008402D01*
X008877Y008348D01*
X008922Y008296D01*
X008970Y008247D01*
X009021Y008201D01*
X009074Y008158D01*
X009129Y008117D01*
X009187Y008080D01*
X009246Y008047D01*
X009308Y008016D01*
X009371Y007989D01*
X009435Y007966D01*
X009501Y007946D01*
X009568Y007931D01*
X009635Y007919D01*
X009703Y007910D01*
X009771Y007906D01*
X009840Y007905D01*
X009908Y007909D01*
X009977Y007916D01*
X010044Y007927D01*
X010111Y007941D01*
X010177Y007960D01*
X010242Y007982D01*
X010305Y008008D01*
X010367Y008037D01*
X010428Y008070D01*
X010486Y008106D01*
X010542Y008145D01*
X010596Y008188D01*
X010647Y008233D01*
X010696Y008281D01*
X010742Y008332D01*
X010785Y008385D01*
X010825Y008441D01*
X010861Y008499D01*
X010895Y008559D01*
X010925Y008620D01*
X010951Y008683D01*
X010974Y008748D01*
X012022Y008665D02*
X012232Y008875D01*
X012232Y008455D01*
X012943Y008525D02*
X012943Y008805D01*
X014347Y009917D02*
X014347Y010337D01*
X015407Y009409D02*
X015477Y009479D01*
X015618Y009479D01*
X015688Y009409D01*
X015688Y009339D01*
X015407Y009339D01*
X015407Y009269D02*
X015407Y009409D01*
X015407Y009269D02*
X015477Y009199D01*
X015618Y009199D01*
X015868Y009199D02*
X015868Y009479D01*
X016008Y009479D02*
X016078Y009479D01*
X016008Y009479D02*
X015868Y009339D01*
X017032Y009917D02*
X017032Y010197D01*
X005106Y010084D02*
X005106Y009584D01*
X004856Y009334D01*
X004356Y009334D01*
X004106Y009584D01*
X003856Y009334D01*
X003356Y009334D01*
X003106Y009584D01*
X003106Y010084D01*
X003356Y010334D01*
X003856Y010334D01*
X004106Y010084D01*
X004356Y010334D01*
X004856Y010334D01*
X005106Y010084D01*
X004565Y009190D02*
X004565Y008910D01*
X004425Y009050D02*
X004706Y009050D01*
X003644Y009097D02*
X003364Y009097D01*
D12*
X005816Y007635D02*
X005873Y007691D01*
X005986Y007691D01*
X006043Y007635D01*
X006043Y007578D01*
X005986Y007521D01*
X006043Y007465D01*
X006043Y007408D01*
X005986Y007351D01*
X005873Y007351D01*
X005816Y007408D01*
X005929Y007521D02*
X005986Y007521D01*
X006555Y007625D02*
X006612Y007681D01*
X006725Y007681D01*
X006782Y007625D01*
X006782Y007568D01*
X006555Y007341D01*
X006782Y007341D01*
X007266Y007340D02*
X007493Y007340D01*
X007379Y007340D02*
X007379Y007681D01*
X007266Y007567D01*
X005343Y007501D02*
X005117Y007501D01*
X005287Y007671D01*
X005287Y007331D01*
X004651Y007388D02*
X004651Y007501D01*
X004595Y007558D01*
X004538Y007558D01*
X004424Y007501D01*
X004424Y007671D01*
X004651Y007671D01*
X004651Y007388D02*
X004595Y007331D01*
X004481Y007331D01*
X004424Y007388D01*
X003619Y007355D02*
X003562Y007299D01*
X003392Y007299D01*
X003506Y007299D02*
X003619Y007185D01*
X003392Y007185D02*
X003392Y007526D01*
X003562Y007526D01*
X003619Y007469D01*
X003619Y007355D01*
X003251Y007185D02*
X003024Y007185D01*
X003024Y007526D01*
X002883Y007469D02*
X002826Y007526D01*
X002712Y007526D01*
X002656Y007469D01*
X002656Y007242D01*
X002712Y007185D01*
X002826Y007185D01*
X002883Y007242D01*
X002514Y007185D02*
X002514Y007526D01*
X002401Y007412D01*
X002287Y007526D01*
X002287Y007185D01*
X002287Y006477D02*
X002287Y006250D01*
X002401Y006136D01*
X002514Y006250D01*
X002514Y006477D01*
X002656Y006477D02*
X002826Y006477D01*
X002883Y006420D01*
X002883Y006193D01*
X002826Y006136D01*
X002656Y006136D01*
X002656Y006477D01*
X003024Y006477D02*
X003194Y006477D01*
X003251Y006420D01*
X003251Y006193D01*
X003194Y006136D01*
X003024Y006136D01*
X003024Y006477D01*
X003081Y005485D02*
X003024Y005428D01*
X003024Y005372D01*
X003081Y005315D01*
X003194Y005315D01*
X003251Y005258D01*
X003251Y005202D01*
X003194Y005145D01*
X003081Y005145D01*
X003024Y005202D01*
X002883Y005202D02*
X002826Y005145D01*
X002712Y005145D01*
X002656Y005202D01*
X002712Y005315D02*
X002826Y005315D01*
X002883Y005258D01*
X002883Y005202D01*
X002712Y005315D02*
X002656Y005372D01*
X002656Y005428D01*
X002712Y005485D01*
X002826Y005485D01*
X002883Y005428D01*
X003081Y005485D02*
X003194Y005485D01*
X003251Y005428D01*
X002514Y005485D02*
X002514Y005258D01*
X002401Y005145D01*
X002287Y005258D01*
X002287Y005485D01*
X002288Y004534D02*
X002458Y004534D01*
X002514Y004477D01*
X002514Y004364D01*
X002458Y004307D01*
X002288Y004307D01*
X002288Y004194D02*
X002288Y004534D01*
X002656Y004477D02*
X002656Y004250D01*
X002713Y004194D01*
X002826Y004194D01*
X002883Y004250D01*
X002883Y004364D01*
X002769Y004364D01*
X002656Y004477D02*
X002713Y004534D01*
X002826Y004534D01*
X002883Y004477D01*
X003024Y004534D02*
X003194Y004534D01*
X003251Y004477D01*
X003251Y004250D01*
X003194Y004194D01*
X003024Y004194D01*
X003024Y004534D01*
X003081Y003544D02*
X003024Y003487D01*
X003024Y003260D01*
X003081Y003203D01*
X003194Y003203D01*
X003251Y003260D01*
X002883Y003260D02*
X002883Y003373D01*
X002769Y003373D01*
X002656Y003260D02*
X002713Y003203D01*
X002826Y003203D01*
X002883Y003260D01*
X002656Y003260D02*
X002656Y003487D01*
X002713Y003544D01*
X002826Y003544D01*
X002883Y003487D01*
X003081Y003544D02*
X003194Y003544D01*
X003251Y003487D01*
X002514Y003487D02*
X002514Y003373D01*
X002458Y003317D01*
X002288Y003317D01*
X002288Y003203D02*
X002288Y003544D01*
X002458Y003544D01*
X002514Y003487D01*
X009931Y003495D02*
X009931Y007589D01*
X012234Y007589D01*
X012234Y003495D01*
X009931Y003495D01*
X013856Y003534D02*
X013856Y003770D01*
X014329Y003770D02*
X014329Y003534D01*
X022284Y004415D02*
X022454Y004415D01*
X022510Y004472D01*
X022510Y004528D01*
X022454Y004585D01*
X022284Y004585D01*
X022454Y004585D02*
X022510Y004642D01*
X022510Y004699D01*
X022454Y004755D01*
X022284Y004755D01*
X022284Y004415D01*
X022330Y005016D02*
X022443Y005016D01*
X022500Y005072D01*
X022500Y005186D01*
X022387Y005186D01*
X022500Y005299D02*
X022443Y005356D01*
X022330Y005356D01*
X022273Y005299D01*
X022273Y005072D01*
X022330Y005016D01*
X022273Y005615D02*
X022273Y005955D01*
X022443Y005955D01*
X022500Y005898D01*
X022500Y005785D01*
X022443Y005728D01*
X022273Y005728D01*
X022386Y005728D02*
X022500Y005615D01*
X022497Y006359D02*
X022270Y006359D01*
X010134Y007205D02*
X010136Y007231D01*
X010142Y007257D01*
X010151Y007282D01*
X010164Y007305D01*
X010180Y007326D01*
X010199Y007344D01*
X010221Y007360D01*
X010244Y007372D01*
X010269Y007380D01*
X010295Y007385D01*
X010322Y007386D01*
X010348Y007383D01*
X010373Y007376D01*
X010398Y007366D01*
X010420Y007352D01*
X010441Y007335D01*
X010458Y007316D01*
X010473Y007294D01*
X010484Y007270D01*
X010492Y007244D01*
X010496Y007218D01*
X010496Y007192D01*
X010492Y007166D01*
X010484Y007140D01*
X010473Y007116D01*
X010458Y007094D01*
X010441Y007075D01*
X010420Y007058D01*
X010398Y007044D01*
X010373Y007034D01*
X010348Y007027D01*
X010322Y007024D01*
X010295Y007025D01*
X010269Y007030D01*
X010244Y007038D01*
X010221Y007050D01*
X010199Y007066D01*
X010180Y007084D01*
X010164Y007105D01*
X010151Y007128D01*
X010142Y007153D01*
X010136Y007179D01*
X010134Y007205D01*
D13*
X010070Y008153D02*
X010070Y008613D01*
X009917Y008460D01*
X009763Y008536D02*
X009687Y008613D01*
X009533Y008613D01*
X009456Y008536D01*
X009456Y008229D01*
X009533Y008153D01*
X009687Y008153D01*
X009763Y008229D01*
X009917Y008153D02*
X010224Y008153D01*
X011123Y003438D02*
X011156Y003438D01*
X011190Y003405D01*
X011190Y003305D01*
X011190Y003217D02*
X011223Y003184D01*
X011223Y003084D01*
X011290Y003084D02*
X011090Y003084D01*
X011090Y003184D01*
X011123Y003217D01*
X011190Y003217D01*
X011290Y003305D02*
X011090Y003305D01*
X011090Y003405D01*
X011123Y003438D01*
X011190Y003405D02*
X011223Y003438D01*
X011256Y003438D01*
X011290Y003405D01*
X011290Y003305D01*
X011670Y003186D02*
X011703Y003219D01*
X011770Y003219D01*
X011803Y003186D01*
X011803Y003086D01*
X011803Y003153D02*
X011870Y003219D01*
X011870Y003086D02*
X011670Y003086D01*
X011670Y003186D01*
X012252Y003186D02*
X012252Y003120D01*
X012285Y003086D01*
X012419Y003086D01*
X012452Y003120D01*
X012452Y003186D01*
X012419Y003220D01*
X012352Y003220D01*
X012352Y003153D01*
X012285Y003220D02*
X012252Y003186D01*
X012864Y003195D02*
X012864Y003095D01*
X013064Y003095D01*
X013064Y003195D01*
X013031Y003229D01*
X012998Y003229D01*
X012964Y003195D01*
X012964Y003095D01*
X012964Y003195D02*
X012931Y003229D01*
X012898Y003229D01*
X012864Y003195D01*
X010695Y003095D02*
X010495Y003095D01*
X010495Y003195D01*
X010528Y003229D01*
X010595Y003229D01*
X010629Y003195D01*
X010629Y003095D01*
X010098Y003155D02*
X009965Y003155D01*
X010031Y003089D02*
X010031Y003222D01*
X009436Y003214D02*
X009436Y003081D01*
D14*
X017493Y003182D02*
X017493Y001182D01*
X018493Y001182D01*
X018493Y003182D01*
X017493Y003182D01*
X017493Y004182D02*
X017493Y006182D01*
X018493Y006182D01*
X018493Y004182D01*
X017493Y004182D01*
X017493Y007132D02*
X017493Y009132D01*
X018493Y009132D01*
X018493Y007132D01*
X017493Y007132D01*
X007786Y008017D02*
X007570Y007801D01*
X007176Y007801D01*
X007019Y007958D01*
X006861Y007801D01*
X006467Y007801D01*
X006310Y007958D01*
X006152Y007801D01*
X005759Y007801D01*
X005601Y007958D01*
X005444Y007801D01*
X005050Y007801D01*
X004893Y007958D01*
X004735Y007801D01*
X004341Y007801D01*
X004125Y008017D01*
X004125Y008411D01*
X004341Y008628D01*
X004735Y008628D01*
X004893Y008470D01*
X005050Y008628D01*
X005444Y008628D01*
X005601Y008470D01*
X005759Y008628D01*
X006152Y008628D01*
X006310Y008470D01*
X006467Y008628D01*
X006861Y008628D01*
X007019Y008470D01*
X007176Y008628D01*
X007570Y008628D01*
X007786Y008411D01*
X007786Y008017D01*
D15*
X015883Y007401D02*
X016076Y007401D01*
X015980Y007401D02*
X015980Y007111D01*
X016177Y007111D02*
X016371Y007111D01*
X016274Y007111D02*
X016274Y007401D01*
X016177Y007304D01*
X016105Y004415D02*
X015911Y004415D01*
X016008Y004415D02*
X016008Y004124D01*
X016206Y004124D02*
X016400Y004318D01*
X016400Y004366D01*
X016351Y004415D01*
X016254Y004415D01*
X016206Y004366D01*
X016206Y004124D02*
X016400Y004124D01*
X016341Y001427D02*
X016390Y001379D01*
X016390Y001330D01*
X016341Y001282D01*
X016390Y001234D01*
X016390Y001185D01*
X016341Y001137D01*
X016245Y001137D01*
X016196Y001185D01*
X016293Y001282D02*
X016341Y001282D01*
X016245Y001427D02*
X016196Y001379D01*
X016245Y001427D02*
X016341Y001427D01*
X016095Y001427D02*
X015902Y001427D01*
X015998Y001427D02*
X015998Y001137D01*
D16*
X013680Y003419D02*
X013493Y003419D01*
X013446Y003465D01*
X013446Y003559D01*
X013493Y003606D01*
X013446Y003695D02*
X013586Y003695D01*
X013540Y003788D01*
X013540Y003835D01*
X013586Y003882D01*
X013680Y003882D01*
X013726Y003835D01*
X013726Y003742D01*
X013680Y003695D01*
X013680Y003606D02*
X013726Y003559D01*
X013726Y003465D01*
X013680Y003419D01*
X013446Y003695D02*
X013446Y003882D01*
X014724Y004610D02*
X014724Y004890D01*
X014864Y004890D01*
X014911Y004844D01*
X014911Y004750D01*
X014864Y004704D01*
X014724Y004704D01*
X014817Y004704D02*
X014911Y004610D01*
X015000Y004657D02*
X015047Y004610D01*
X015140Y004610D01*
X015187Y004657D01*
X015187Y004704D01*
X015140Y004750D01*
X015093Y004750D01*
X015140Y004750D02*
X015187Y004797D01*
X015187Y004844D01*
X015140Y004890D01*
X015047Y004890D01*
X015000Y004844D01*
X015013Y005812D02*
X015200Y005999D01*
X015200Y006045D01*
X015154Y006092D01*
X015060Y006092D01*
X015013Y006045D01*
X014924Y006045D02*
X014924Y005952D01*
X014877Y005905D01*
X014737Y005905D01*
X014737Y005812D02*
X014737Y006092D01*
X014877Y006092D01*
X014924Y006045D01*
X014831Y005905D02*
X014924Y005812D01*
X015013Y005812D02*
X015200Y005812D01*
X015183Y007074D02*
X015183Y007354D01*
X015090Y007261D01*
X015000Y007307D02*
X015000Y007214D01*
X014954Y007167D01*
X014813Y007167D01*
X014813Y007074D02*
X014813Y007354D01*
X014954Y007354D01*
X015000Y007307D01*
X014907Y007167D02*
X015000Y007074D01*
X015090Y007074D02*
X015276Y007074D01*
D17*
X012158Y007767D02*
X012058Y007767D01*
X012108Y007767D02*
X012108Y007917D01*
X012058Y007867D01*
X012011Y007892D02*
X011985Y007917D01*
X011935Y007917D01*
X011910Y007892D01*
X011910Y007792D01*
X011935Y007767D01*
X011985Y007767D01*
X012011Y007792D01*
X011862Y007767D02*
X011812Y007767D01*
X011837Y007767D02*
X011837Y007917D01*
X011812Y007917D02*
X011862Y007917D01*
X011765Y007892D02*
X011740Y007917D01*
X011690Y007917D01*
X011665Y007892D01*
X011665Y007792D01*
X011690Y007767D01*
X011740Y007767D01*
X011765Y007792D01*
X011765Y007892D01*
X011618Y007892D02*
X011593Y007917D01*
X011543Y007917D01*
X011518Y007892D01*
X011518Y007867D01*
X011543Y007842D01*
X011593Y007842D01*
X011618Y007817D01*
X011618Y007792D01*
X011593Y007767D01*
X011543Y007767D01*
X011518Y007792D01*
D18*
X005882Y005686D03*
D19*
X006211Y005686D03*
D20*
X005952Y005688D03*
D21*
X005952Y005691D03*
D22*
X005952Y005693D03*
X005952Y005698D03*
X005952Y005703D03*
X005952Y005908D03*
X005952Y005913D03*
X005952Y005918D03*
D23*
X005952Y005916D03*
X005952Y005911D03*
X005952Y005701D03*
X005952Y005696D03*
D24*
X005707Y005706D03*
X005697Y005991D03*
X005554Y005991D03*
X005482Y006136D03*
X005189Y005991D03*
X004649Y006136D03*
X004649Y006191D03*
X004364Y006351D03*
X004174Y006406D03*
X003887Y006261D03*
X003887Y006136D03*
X003887Y006116D03*
X003887Y005991D03*
X003774Y005861D03*
X004174Y005991D03*
X005189Y006261D03*
X005189Y006351D03*
X005482Y006406D03*
X005772Y006406D03*
X005769Y006261D03*
X005944Y006281D03*
X005944Y006351D03*
X006229Y006351D03*
X006229Y006261D03*
X006412Y006136D03*
X006412Y006116D03*
X006412Y005991D03*
X006699Y005991D03*
X006889Y006281D03*
X006699Y006406D03*
X007174Y006331D03*
X007344Y006351D03*
X007757Y006206D03*
X007757Y006116D03*
X007972Y006116D03*
X008044Y005991D03*
X008044Y006331D03*
X005944Y006136D03*
X003774Y006611D03*
D25*
X005484Y006056D03*
X005622Y006056D03*
X006214Y005706D03*
X007972Y006056D03*
X008044Y006271D03*
D26*
X007973Y006118D03*
X007758Y005988D03*
X007343Y006348D03*
X006888Y006278D03*
X005943Y006063D03*
X005703Y005893D03*
X005703Y005888D03*
X005703Y005883D03*
X005703Y005878D03*
X005703Y005873D03*
X005703Y005868D03*
X005703Y005863D03*
X005703Y005858D03*
X005703Y005853D03*
X005703Y005848D03*
X005703Y005843D03*
X005703Y005838D03*
X005703Y005833D03*
X005703Y005828D03*
X005703Y005778D03*
X005703Y005773D03*
X005703Y005768D03*
X005703Y005763D03*
X005703Y005758D03*
X005703Y005753D03*
X005703Y005748D03*
X005703Y005743D03*
X005703Y005738D03*
X005703Y005733D03*
X005703Y005728D03*
X005703Y005723D03*
X005703Y005718D03*
X005703Y005713D03*
X005703Y005708D03*
X005553Y005988D03*
X005188Y005988D03*
X005188Y006263D03*
X005188Y006348D03*
X005188Y006413D03*
X005483Y006408D03*
X004363Y006348D03*
X008158Y006613D03*
D27*
X006218Y005903D03*
X006218Y005708D03*
X005928Y005768D03*
X005928Y005773D03*
X005928Y005778D03*
X005928Y005783D03*
X005928Y005788D03*
X005928Y005793D03*
X005928Y005798D03*
X005928Y005803D03*
X005928Y005808D03*
X005928Y005813D03*
X005928Y005818D03*
X005928Y005823D03*
X005928Y005828D03*
X005928Y005833D03*
X005928Y005838D03*
X005928Y005843D03*
X005928Y005848D03*
X005928Y005853D03*
X005553Y005983D03*
X005188Y005983D03*
X004648Y006198D03*
D28*
X004363Y006121D03*
X005188Y006061D03*
X005483Y006061D03*
X005483Y006336D03*
X005483Y006421D03*
X005943Y006121D03*
X005703Y005896D03*
X005703Y005891D03*
X005703Y005886D03*
X005703Y005881D03*
X005703Y005876D03*
X005703Y005871D03*
X005703Y005866D03*
X005703Y005861D03*
X005703Y005856D03*
X005703Y005851D03*
X005703Y005846D03*
X005703Y005841D03*
X005703Y005836D03*
X005703Y005831D03*
X005703Y005826D03*
X005703Y005776D03*
X005703Y005771D03*
X005703Y005766D03*
X005703Y005761D03*
X005703Y005756D03*
X005703Y005751D03*
X005703Y005746D03*
X005703Y005741D03*
X005703Y005736D03*
X005703Y005731D03*
X005703Y005726D03*
X005703Y005721D03*
X005703Y005716D03*
X005703Y005711D03*
X006888Y006121D03*
X007758Y006191D03*
X008043Y006276D03*
X008158Y005856D03*
D29*
X008044Y006411D03*
X006219Y005901D03*
X006219Y005716D03*
X006219Y005711D03*
D30*
X006219Y005713D03*
X006222Y005778D03*
X006219Y005898D03*
D31*
X006221Y005893D03*
X006221Y005888D03*
X006221Y005883D03*
X006221Y005878D03*
X006221Y005873D03*
X006221Y005868D03*
X006221Y005863D03*
X006221Y005858D03*
X006221Y005853D03*
X006221Y005848D03*
X006221Y005843D03*
X006221Y005838D03*
X006221Y005833D03*
X006221Y005828D03*
X006221Y005773D03*
X006221Y005768D03*
X006221Y005763D03*
X006221Y005758D03*
X006221Y005753D03*
X006221Y005748D03*
X006221Y005743D03*
X006221Y005738D03*
X006221Y005733D03*
X006221Y005728D03*
X006221Y005723D03*
X006221Y005718D03*
D32*
X006221Y005721D03*
X006221Y005726D03*
X006221Y005731D03*
X006221Y005736D03*
X006221Y005741D03*
X006221Y005746D03*
X006221Y005751D03*
X006221Y005756D03*
X006221Y005761D03*
X006221Y005766D03*
X006221Y005771D03*
X006221Y005776D03*
X006221Y005826D03*
X006221Y005831D03*
X006221Y005836D03*
X006221Y005841D03*
X006221Y005846D03*
X006221Y005851D03*
X006221Y005856D03*
X006221Y005861D03*
X006221Y005866D03*
X006221Y005871D03*
X006221Y005876D03*
X006221Y005881D03*
X006221Y005886D03*
X006221Y005891D03*
X006221Y005896D03*
D33*
X005977Y005763D03*
X005977Y005758D03*
X005977Y005753D03*
X005977Y005748D03*
X005977Y005743D03*
D34*
X005977Y005746D03*
X005977Y005751D03*
X005977Y005756D03*
X005977Y005761D03*
D35*
X005928Y005766D03*
X005928Y005771D03*
X005928Y005776D03*
X005928Y005781D03*
X005928Y005786D03*
X005928Y005791D03*
X005928Y005796D03*
X005928Y005801D03*
X005928Y005806D03*
X005928Y005811D03*
X005928Y005816D03*
X005928Y005821D03*
X005928Y005826D03*
X005928Y005831D03*
X005928Y005836D03*
X005928Y005841D03*
X005928Y005846D03*
X005928Y005851D03*
X005928Y005856D03*
X005928Y005861D03*
X006553Y006341D03*
X006408Y006486D03*
X007173Y006411D03*
X005483Y006486D03*
X004028Y006341D03*
X003883Y006486D03*
D36*
X004176Y006486D03*
X005771Y006486D03*
X006701Y006486D03*
X007176Y006056D03*
X006126Y005841D03*
X006126Y005836D03*
X006126Y005831D03*
X006126Y005826D03*
X006126Y005821D03*
X006126Y005816D03*
X006026Y005816D03*
X006026Y005821D03*
X006026Y005826D03*
X006026Y005831D03*
X006026Y005836D03*
X006026Y005841D03*
X006026Y005811D03*
X006026Y005806D03*
X006026Y005801D03*
X006026Y005796D03*
X006026Y005791D03*
X006026Y005786D03*
X006026Y005781D03*
X006026Y005776D03*
X006026Y005771D03*
X006026Y005766D03*
X005821Y005816D03*
X005821Y005821D03*
X005821Y005826D03*
X005821Y005831D03*
X005821Y005836D03*
X005821Y005841D03*
X005821Y005846D03*
X005821Y005851D03*
X005821Y005861D03*
D37*
X005821Y005863D03*
X005821Y005853D03*
X005821Y005848D03*
X005821Y005843D03*
X005821Y005838D03*
X005821Y005833D03*
X005821Y005828D03*
X005821Y005823D03*
X005821Y005818D03*
X005821Y005813D03*
X006026Y005813D03*
X006026Y005808D03*
X006026Y005803D03*
X006026Y005798D03*
X006026Y005793D03*
X006026Y005788D03*
X006026Y005783D03*
X006026Y005778D03*
X006026Y005773D03*
X006026Y005768D03*
X006026Y005818D03*
X006026Y005823D03*
X006026Y005828D03*
X006026Y005833D03*
X006026Y005838D03*
X006026Y005843D03*
X006126Y005843D03*
X006126Y005838D03*
X006126Y005833D03*
X006126Y005828D03*
X006126Y005823D03*
X006126Y005818D03*
X006126Y005813D03*
X005696Y005983D03*
X006411Y005983D03*
X006701Y005983D03*
X008046Y005983D03*
X004176Y005983D03*
X003886Y005983D03*
D38*
X004772Y005781D03*
D39*
X007164Y005781D03*
D40*
X004764Y005783D03*
D41*
X007172Y005783D03*
D42*
X004761Y005786D03*
D43*
X007176Y005786D03*
D44*
X004804Y005788D03*
D45*
X007133Y005788D03*
D46*
X004806Y005791D03*
D47*
X007132Y005791D03*
D48*
X004803Y005793D03*
D49*
X007133Y005793D03*
D50*
X007142Y005811D03*
X004802Y005796D03*
D51*
X007134Y005796D03*
D52*
X004801Y005798D03*
D53*
X007136Y005798D03*
D54*
X004799Y005801D03*
D55*
X007137Y005801D03*
D56*
X004798Y005803D03*
D57*
X007138Y005803D03*
D58*
X004797Y005806D03*
D59*
X007139Y005806D03*
D60*
X004796Y005808D03*
D61*
X007141Y005808D03*
D62*
X004794Y005811D03*
D63*
X004743Y005813D03*
D64*
X007193Y005813D03*
D65*
X004743Y005816D03*
D66*
X007193Y005816D03*
D67*
X004742Y005818D03*
D68*
X007194Y005818D03*
D69*
X004742Y005821D03*
D70*
X007194Y005821D03*
D71*
X004741Y005823D03*
D72*
X007196Y005823D03*
D73*
X003802Y005826D03*
D74*
X008132Y005826D03*
D75*
X003796Y005828D03*
D76*
X003888Y006243D03*
X003888Y006298D03*
X003888Y006443D03*
X004363Y006383D03*
X004363Y006373D03*
X004613Y006378D03*
X004613Y006383D03*
X004613Y006388D03*
X004613Y006318D03*
X004613Y006313D03*
X004613Y006308D03*
X004363Y006168D03*
X004363Y006158D03*
X004363Y006088D03*
X005188Y006093D03*
X005188Y006088D03*
X005188Y006083D03*
X005188Y006078D03*
X005188Y006098D03*
X005188Y006148D03*
X005188Y006153D03*
X005188Y006158D03*
X005188Y006163D03*
X005188Y006168D03*
X005188Y006173D03*
X005188Y006223D03*
X005188Y006228D03*
X005188Y006233D03*
X005188Y006238D03*
X005188Y006243D03*
X005188Y006293D03*
X005188Y006298D03*
X005188Y006303D03*
X005188Y006308D03*
X005188Y006313D03*
X005188Y006368D03*
X005188Y006373D03*
X005188Y006378D03*
X005188Y006383D03*
X005188Y006388D03*
X005483Y006388D03*
X005483Y006368D03*
X005483Y006318D03*
X005483Y006298D03*
X005483Y006243D03*
X005483Y006223D03*
X005483Y006173D03*
X005483Y006153D03*
X005483Y006098D03*
X005553Y006028D03*
X005553Y006023D03*
X005553Y006018D03*
X005553Y006013D03*
X005553Y006008D03*
X005698Y006013D03*
X005698Y006018D03*
X005698Y006023D03*
X005943Y006083D03*
X005943Y006088D03*
X005943Y006093D03*
X005943Y006098D03*
X005943Y006158D03*
X005943Y006163D03*
X005943Y006168D03*
X005943Y006228D03*
X005943Y006233D03*
X005943Y006238D03*
X005943Y006243D03*
X005943Y006298D03*
X005943Y006303D03*
X005943Y006308D03*
X005943Y006313D03*
X005943Y006373D03*
X005943Y006378D03*
X005943Y006383D03*
X006413Y006443D03*
X006413Y006298D03*
X006413Y006243D03*
X006413Y006223D03*
X007343Y006168D03*
X007343Y006163D03*
X007343Y006158D03*
X007343Y006098D03*
X007343Y006093D03*
X007343Y006088D03*
X007343Y006083D03*
X007343Y006298D03*
X007343Y006303D03*
X007343Y006308D03*
X007343Y006313D03*
X007343Y006368D03*
X007343Y006373D03*
X007343Y006378D03*
X007343Y006383D03*
X007758Y006313D03*
X007758Y006168D03*
X007973Y006093D03*
X008043Y006023D03*
X008043Y006018D03*
X008043Y006013D03*
X008138Y005828D03*
X008043Y006303D03*
X008043Y006308D03*
X008043Y006368D03*
X008043Y006373D03*
X008043Y006378D03*
X005188Y006028D03*
X005188Y006023D03*
X005188Y006018D03*
X005188Y006013D03*
X005188Y006008D03*
D77*
X003793Y005831D03*
D78*
X004176Y006076D03*
X004176Y006106D03*
X004176Y006146D03*
X004176Y006291D03*
X004176Y006396D03*
X004176Y006436D03*
X004176Y006466D03*
X004031Y006321D03*
X004031Y006291D03*
X003786Y006631D03*
X004856Y006391D03*
X004856Y006321D03*
X004856Y006291D03*
X004856Y006251D03*
X004856Y006221D03*
X004856Y006176D03*
X004856Y006106D03*
X004856Y006076D03*
X004651Y006106D03*
X005626Y006106D03*
X005626Y006076D03*
X005626Y006146D03*
X005626Y006176D03*
X005771Y006146D03*
X005771Y006106D03*
X005771Y006216D03*
X005771Y006251D03*
X005771Y006291D03*
X005771Y006321D03*
X005771Y006366D03*
X005771Y006396D03*
X005771Y006436D03*
X005771Y006466D03*
X006231Y006391D03*
X006231Y006361D03*
X006231Y006321D03*
X006231Y006291D03*
X006231Y006251D03*
X006231Y006146D03*
X006231Y006106D03*
X006231Y006076D03*
X006556Y006291D03*
X006556Y006321D03*
X006701Y006291D03*
X006701Y006396D03*
X006701Y006436D03*
X006701Y006466D03*
X006891Y006321D03*
X006891Y006251D03*
X006701Y006146D03*
X006701Y006106D03*
X006701Y006076D03*
X007176Y006076D03*
X007176Y006106D03*
X007176Y006146D03*
X007176Y006176D03*
X007176Y006221D03*
X007176Y006291D03*
X007176Y006361D03*
X007176Y006391D03*
X007756Y006361D03*
X007756Y006146D03*
X007901Y006146D03*
X007901Y006176D03*
X008141Y005831D03*
D79*
X007901Y006153D03*
X007901Y006158D03*
X007901Y006163D03*
X007901Y006168D03*
X007176Y006168D03*
X007176Y006163D03*
X007176Y006158D03*
X007176Y006153D03*
X007176Y006098D03*
X007176Y006093D03*
X007176Y006088D03*
X007176Y006083D03*
X007176Y006228D03*
X007176Y006233D03*
X007176Y006238D03*
X007176Y006298D03*
X007176Y006303D03*
X007176Y006308D03*
X007176Y006368D03*
X007176Y006373D03*
X007176Y006378D03*
X007176Y006383D03*
X006891Y006313D03*
X006891Y006243D03*
X006891Y006098D03*
X006891Y006083D03*
X006701Y006083D03*
X006701Y006088D03*
X006701Y006093D03*
X006701Y006098D03*
X006701Y006153D03*
X006701Y006158D03*
X006701Y006163D03*
X006701Y006168D03*
X006701Y006298D03*
X006701Y006303D03*
X006701Y006308D03*
X006701Y006313D03*
X006701Y006373D03*
X006701Y006378D03*
X006701Y006383D03*
X006701Y006388D03*
X006701Y006443D03*
X006701Y006448D03*
X006701Y006453D03*
X006701Y006458D03*
X006556Y006318D03*
X006556Y006313D03*
X006556Y006308D03*
X006556Y006303D03*
X006556Y006298D03*
X006411Y006168D03*
X006411Y006083D03*
X006411Y006023D03*
X006411Y006013D03*
X006231Y006083D03*
X006231Y006088D03*
X006231Y006093D03*
X006231Y006098D03*
X006231Y006153D03*
X006231Y006158D03*
X006231Y006163D03*
X006231Y006168D03*
X006231Y006173D03*
X006231Y006223D03*
X006231Y006228D03*
X006231Y006233D03*
X006231Y006238D03*
X006231Y006243D03*
X006231Y006298D03*
X006231Y006303D03*
X006231Y006308D03*
X006231Y006313D03*
X006231Y006368D03*
X006231Y006373D03*
X006231Y006378D03*
X006231Y006383D03*
X005771Y006388D03*
X005771Y006383D03*
X005771Y006378D03*
X005771Y006373D03*
X005771Y006368D03*
X005771Y006318D03*
X005771Y006313D03*
X005771Y006298D03*
X005771Y006243D03*
X005771Y006223D03*
X005771Y006173D03*
X005771Y006168D03*
X005771Y006153D03*
X005771Y006098D03*
X005771Y006083D03*
X005771Y006078D03*
X005626Y006078D03*
X005626Y006083D03*
X005626Y006088D03*
X005626Y006093D03*
X005626Y006098D03*
X005626Y006153D03*
X005626Y006158D03*
X005626Y006163D03*
X005626Y006168D03*
X005626Y006173D03*
X005771Y006443D03*
X005771Y006448D03*
X005771Y006453D03*
X005771Y006458D03*
X004856Y006383D03*
X004856Y006378D03*
X004856Y006373D03*
X004856Y006313D03*
X004856Y006308D03*
X004856Y006303D03*
X004856Y006298D03*
X004856Y006243D03*
X004856Y006238D03*
X004856Y006233D03*
X004856Y006228D03*
X004856Y006173D03*
X004856Y006168D03*
X004856Y006163D03*
X004856Y006158D03*
X004856Y006098D03*
X004856Y006093D03*
X004856Y006088D03*
X004856Y006083D03*
X004651Y006093D03*
X004651Y006163D03*
X004176Y006168D03*
X004176Y006163D03*
X004176Y006158D03*
X004176Y006153D03*
X004176Y006098D03*
X004176Y006093D03*
X004176Y006088D03*
X004176Y006083D03*
X004176Y006023D03*
X004176Y006018D03*
X004176Y006013D03*
X004176Y006008D03*
X003886Y006013D03*
X003886Y006023D03*
X003886Y006083D03*
X003886Y006158D03*
X003886Y006168D03*
X004031Y006298D03*
X004031Y006303D03*
X004031Y006308D03*
X004031Y006313D03*
X004031Y006318D03*
X004176Y006313D03*
X004176Y006308D03*
X004176Y006303D03*
X004176Y006298D03*
X004176Y006373D03*
X004176Y006378D03*
X004176Y006383D03*
X004176Y006388D03*
X004176Y006443D03*
X004176Y006448D03*
X004176Y006453D03*
X004176Y006458D03*
X003791Y005833D03*
X006701Y006008D03*
X006701Y006013D03*
X006701Y006018D03*
X006701Y006023D03*
D80*
X006413Y005998D03*
X006413Y006213D03*
X005943Y006183D03*
X005943Y006143D03*
X005943Y006073D03*
X005698Y006038D03*
X005698Y005998D03*
X005553Y005998D03*
X005553Y006038D03*
X005483Y006068D03*
X005483Y006183D03*
X005483Y006213D03*
X005483Y006328D03*
X005188Y006283D03*
X005188Y006253D03*
X005188Y006213D03*
X005188Y006183D03*
X005188Y006068D03*
X005188Y006038D03*
X005188Y005998D03*
X004613Y006333D03*
X004363Y006398D03*
X004363Y006143D03*
X003888Y006213D03*
X003888Y005998D03*
X003783Y005843D03*
X005188Y006398D03*
X007343Y006398D03*
X007343Y006183D03*
X007343Y006143D03*
X007758Y006253D03*
X007973Y006108D03*
X008043Y006038D03*
X008043Y005998D03*
X008143Y005833D03*
D81*
X008044Y006026D03*
X007972Y006076D03*
X007972Y006081D03*
X007972Y006101D03*
X007899Y006151D03*
X007899Y006171D03*
X007757Y006171D03*
X007757Y006176D03*
X007757Y006151D03*
X007757Y006101D03*
X007757Y006081D03*
X007757Y006076D03*
X007757Y006031D03*
X007757Y006026D03*
X007757Y006006D03*
X007757Y006221D03*
X007757Y006246D03*
X007757Y006291D03*
X007757Y006296D03*
X007757Y006316D03*
X007757Y006321D03*
X007757Y006366D03*
X007757Y006391D03*
X008044Y006386D03*
X008044Y006366D03*
X008044Y006316D03*
X008044Y006296D03*
X007344Y006296D03*
X007344Y006316D03*
X007344Y006366D03*
X007344Y006391D03*
X007174Y006386D03*
X007174Y006366D03*
X007174Y006316D03*
X007174Y006246D03*
X007174Y006171D03*
X007174Y006151D03*
X007174Y006101D03*
X007174Y006081D03*
X007344Y006081D03*
X007344Y006101D03*
X007344Y006151D03*
X006889Y006151D03*
X006889Y006176D03*
X006889Y006221D03*
X006889Y006226D03*
X006889Y006246D03*
X006889Y006291D03*
X006889Y006296D03*
X006889Y006316D03*
X006889Y006366D03*
X006889Y006391D03*
X006699Y006391D03*
X006699Y006366D03*
X006699Y006321D03*
X006557Y006296D03*
X006412Y006291D03*
X006412Y006321D03*
X006412Y006221D03*
X006412Y006176D03*
X006412Y006171D03*
X006412Y006151D03*
X006412Y006101D03*
X006412Y006081D03*
X006412Y006076D03*
X006412Y006031D03*
X006412Y006026D03*
X006412Y006011D03*
X006412Y006006D03*
X006699Y006006D03*
X006699Y006031D03*
X006699Y006151D03*
X006699Y006176D03*
X006889Y006106D03*
X006889Y006101D03*
X006889Y006081D03*
X006229Y006151D03*
X006229Y006176D03*
X006229Y006221D03*
X006229Y006246D03*
X005944Y006246D03*
X005944Y006226D03*
X005944Y006176D03*
X005944Y006151D03*
X005944Y006101D03*
X005944Y006081D03*
X005769Y006076D03*
X005697Y006031D03*
X005697Y006006D03*
X005554Y006006D03*
X005554Y006031D03*
X005482Y006076D03*
X005482Y006106D03*
X005482Y006151D03*
X005482Y006176D03*
X005482Y006221D03*
X005482Y006321D03*
X005482Y006366D03*
X005482Y006391D03*
X005482Y006436D03*
X005482Y006466D03*
X005772Y006391D03*
X005944Y006391D03*
X005944Y006386D03*
X005944Y006366D03*
X005944Y006316D03*
X005944Y006296D03*
X005769Y006221D03*
X005769Y006176D03*
X006229Y006366D03*
X006412Y006436D03*
X006412Y006461D03*
X006412Y006466D03*
X005189Y006391D03*
X004854Y006366D03*
X004854Y006296D03*
X004854Y006246D03*
X004854Y006151D03*
X004854Y006081D03*
X004649Y006081D03*
X004649Y006086D03*
X004649Y006096D03*
X004649Y006101D03*
X004649Y006151D03*
X004649Y006156D03*
X004649Y006161D03*
X004649Y006166D03*
X004649Y006171D03*
X004649Y006176D03*
X004614Y006301D03*
X004614Y006306D03*
X004614Y006326D03*
X004614Y006371D03*
X004614Y006391D03*
X004614Y006396D03*
X004364Y006391D03*
X004364Y006386D03*
X004364Y006366D03*
X004364Y006321D03*
X004364Y006316D03*
X004364Y006296D03*
X004364Y006176D03*
X004364Y006171D03*
X004364Y006156D03*
X004364Y006151D03*
X004364Y006106D03*
X004364Y006101D03*
X004364Y006081D03*
X004174Y006031D03*
X004174Y006006D03*
X003887Y006006D03*
X003887Y006011D03*
X003887Y006026D03*
X003887Y006031D03*
X003887Y006076D03*
X003887Y006081D03*
X003887Y006101D03*
X003887Y006151D03*
X003887Y006171D03*
X003887Y006176D03*
X003887Y006221D03*
X003887Y006291D03*
X003887Y006321D03*
X003887Y006436D03*
X003887Y006461D03*
X003887Y006466D03*
X004032Y006296D03*
X004174Y006321D03*
X004174Y006366D03*
X004174Y006391D03*
X004174Y006176D03*
X004174Y006151D03*
X003787Y005836D03*
X005189Y006031D03*
D82*
X005189Y005996D03*
X005554Y005996D03*
X005554Y006041D03*
X005482Y006141D03*
X005482Y006186D03*
X005482Y006356D03*
X005482Y006401D03*
X005772Y006401D03*
X005769Y006256D03*
X005769Y006211D03*
X005944Y006186D03*
X005944Y006141D03*
X005944Y006286D03*
X005944Y006356D03*
X006229Y006256D03*
X006229Y006141D03*
X006412Y006141D03*
X006412Y006111D03*
X006412Y006041D03*
X006412Y005996D03*
X006699Y005996D03*
X006889Y006071D03*
X006889Y006141D03*
X006889Y006186D03*
X006889Y006286D03*
X006699Y006401D03*
X006557Y006286D03*
X006412Y006211D03*
X005697Y006041D03*
X005697Y005996D03*
X005189Y006256D03*
X005189Y006356D03*
X004854Y006141D03*
X004649Y006186D03*
X004649Y006071D03*
X004364Y006141D03*
X004364Y006286D03*
X004364Y006356D03*
X004364Y006401D03*
X004174Y006401D03*
X004032Y006286D03*
X003887Y006211D03*
X003887Y006141D03*
X003887Y006111D03*
X003887Y005996D03*
X004174Y005996D03*
X004614Y006336D03*
X004614Y006406D03*
X007174Y006356D03*
X007174Y006326D03*
X007344Y006356D03*
X007344Y006141D03*
X007344Y006111D03*
X007344Y006071D03*
X007757Y006111D03*
X007757Y006211D03*
X007757Y006256D03*
X007757Y006356D03*
X008044Y006326D03*
X007972Y006111D03*
X008044Y005996D03*
X008147Y005836D03*
X007757Y005996D03*
D83*
X007756Y006033D03*
X007176Y006173D03*
X007176Y006218D03*
X007176Y006248D03*
X007176Y006288D03*
X006891Y006363D03*
X006891Y006393D03*
X006701Y006393D03*
X006701Y006433D03*
X006701Y006468D03*
X006701Y006323D03*
X006701Y006178D03*
X006701Y006148D03*
X006701Y006073D03*
X006701Y006033D03*
X006701Y006003D03*
X006411Y006033D03*
X006231Y006078D03*
X006231Y006108D03*
X006231Y006148D03*
X006231Y006178D03*
X006231Y006218D03*
X006231Y006248D03*
X006231Y006288D03*
X006231Y006363D03*
X006231Y006393D03*
X006556Y006323D03*
X006891Y006178D03*
X005771Y006178D03*
X005771Y006108D03*
X005771Y006073D03*
X005626Y006073D03*
X005626Y006103D03*
X005626Y006143D03*
X005626Y006178D03*
X005771Y006323D03*
X005771Y006363D03*
X005771Y006393D03*
X005771Y006433D03*
X005771Y006463D03*
X005771Y006468D03*
X004856Y006393D03*
X004856Y006323D03*
X004856Y006293D03*
X004856Y006248D03*
X004856Y006178D03*
X004856Y006148D03*
X004856Y006108D03*
X004856Y006103D03*
X004856Y006078D03*
X004651Y006078D03*
X004176Y006073D03*
X004176Y006033D03*
X004176Y006003D03*
X003886Y006033D03*
X003886Y006178D03*
X004031Y006323D03*
X004176Y006323D03*
X004176Y006393D03*
X004176Y006433D03*
X004176Y006468D03*
X004176Y006178D03*
X004176Y006148D03*
X003786Y005838D03*
X008141Y006638D03*
D84*
X008043Y006353D03*
X008043Y006328D03*
X008043Y006283D03*
X007758Y005993D03*
X008148Y005838D03*
X007343Y006068D03*
X007343Y006283D03*
X006888Y006283D03*
X006558Y006283D03*
X006888Y006068D03*
X005943Y006068D03*
X005943Y006258D03*
X005943Y006283D03*
X005483Y006283D03*
X005483Y006258D03*
X005188Y006328D03*
X005188Y006113D03*
X004363Y006068D03*
X004363Y006283D03*
X004033Y006283D03*
X003778Y006618D03*
D85*
X003887Y006431D03*
X003887Y006326D03*
X003887Y006216D03*
X003887Y006181D03*
X003887Y006146D03*
X003887Y006106D03*
X003887Y006071D03*
X003887Y006036D03*
X003887Y006001D03*
X003784Y005841D03*
X004174Y006001D03*
X004174Y006036D03*
X004174Y006181D03*
X004174Y006326D03*
X004174Y006361D03*
X004364Y006361D03*
X004364Y006396D03*
X004364Y006326D03*
X004364Y006291D03*
X004364Y006181D03*
X004364Y006146D03*
X004364Y006111D03*
X004649Y006146D03*
X004649Y006181D03*
X004649Y006076D03*
X004854Y006146D03*
X004857Y006181D03*
X004614Y006296D03*
X004614Y006331D03*
X004614Y006401D03*
X004854Y006361D03*
X005189Y006396D03*
X005482Y006431D03*
X005482Y006471D03*
X005482Y006361D03*
X005482Y006326D03*
X005482Y006216D03*
X005482Y006181D03*
X005482Y006111D03*
X005482Y006071D03*
X005554Y006036D03*
X005624Y006071D03*
X005697Y006036D03*
X005697Y006001D03*
X005769Y006071D03*
X005769Y006181D03*
X005627Y006181D03*
X005944Y006181D03*
X005944Y006216D03*
X005944Y006146D03*
X006229Y006181D03*
X006229Y006216D03*
X006412Y006216D03*
X006412Y006181D03*
X006412Y006146D03*
X006412Y006106D03*
X006412Y006071D03*
X006412Y006036D03*
X006412Y006001D03*
X006699Y006001D03*
X006699Y006036D03*
X006699Y006181D03*
X006699Y006326D03*
X006699Y006361D03*
X006889Y006361D03*
X006889Y006396D03*
X006412Y006431D03*
X006412Y006326D03*
X006229Y006396D03*
X005944Y006396D03*
X005944Y006361D03*
X005772Y006361D03*
X005187Y006216D03*
X006889Y006216D03*
X006889Y006181D03*
X006889Y006146D03*
X006889Y006111D03*
X007174Y006216D03*
X007174Y006251D03*
X007174Y006321D03*
X007344Y006396D03*
X007344Y006181D03*
X007757Y006181D03*
X007757Y006216D03*
X007757Y006251D03*
X007757Y006286D03*
X007757Y006396D03*
X008044Y006396D03*
X007972Y006106D03*
X007972Y006071D03*
X008044Y006036D03*
X008044Y006001D03*
X007757Y006036D03*
X007757Y006071D03*
X007757Y006106D03*
D86*
X007757Y006186D03*
X007757Y006281D03*
X007757Y006331D03*
X007757Y006401D03*
X008044Y006401D03*
X007972Y006066D03*
X008149Y005841D03*
X007344Y006066D03*
X007344Y006116D03*
X007174Y006116D03*
X007174Y006066D03*
X007174Y006186D03*
X007174Y006281D03*
X007174Y006401D03*
X007344Y006331D03*
X006889Y006331D03*
X006889Y006211D03*
X006889Y006116D03*
X006699Y006356D03*
X006412Y006331D03*
X006229Y006401D03*
X005944Y006331D03*
X005944Y006211D03*
X005944Y006116D03*
X006229Y006116D03*
X005624Y006066D03*
X005482Y006116D03*
X005189Y006136D03*
X004857Y006116D03*
X004854Y006211D03*
X004649Y006116D03*
X004364Y006116D03*
X004364Y006331D03*
X004174Y006356D03*
X003887Y006331D03*
X003777Y006616D03*
X004614Y006361D03*
X005482Y006426D03*
X005482Y006476D03*
X005772Y006476D03*
D87*
X005771Y006353D03*
X005771Y006333D03*
X005771Y006208D03*
X005771Y006063D03*
X006231Y006188D03*
X006231Y006208D03*
X006411Y006043D03*
X006701Y006063D03*
X006556Y006333D03*
X006891Y006403D03*
X007176Y006258D03*
X007176Y006208D03*
X007756Y006043D03*
X008151Y005843D03*
X004856Y006068D03*
X004856Y006138D03*
X004856Y006188D03*
X004616Y006288D03*
X004856Y006403D03*
X004176Y006063D03*
X003886Y006043D03*
X003776Y006613D03*
D88*
X003781Y006621D03*
X003886Y006476D03*
X004176Y006476D03*
X004176Y006331D03*
X004176Y006186D03*
X004176Y006066D03*
X003886Y006066D03*
X003886Y006041D03*
X003886Y006186D03*
X004031Y006331D03*
X004616Y006291D03*
X004856Y006331D03*
X004856Y006401D03*
X004856Y006186D03*
X004856Y006071D03*
X005626Y006186D03*
X005771Y006186D03*
X005771Y006066D03*
X005771Y006331D03*
X005771Y006356D03*
X005771Y006426D03*
X006231Y006211D03*
X006231Y006186D03*
X006411Y006186D03*
X006411Y006066D03*
X006701Y006066D03*
X006701Y006186D03*
X006701Y006331D03*
X006556Y006331D03*
X006891Y006356D03*
X006891Y006401D03*
X006701Y006476D03*
X006411Y006476D03*
X007176Y006256D03*
X007176Y006211D03*
X007756Y006066D03*
X007756Y006041D03*
X003781Y005846D03*
D89*
X005822Y005856D03*
X006027Y005846D03*
X006124Y005846D03*
X006124Y005871D03*
X006217Y005906D03*
D90*
X005698Y006046D03*
X005553Y006046D03*
X005188Y006046D03*
X005188Y006206D03*
X005188Y006406D03*
X005943Y006406D03*
X005943Y006191D03*
X007343Y006191D03*
X007343Y006136D03*
X007758Y006261D03*
X008043Y006046D03*
X008153Y005846D03*
X008153Y006621D03*
X004363Y006136D03*
X003773Y005866D03*
X003773Y006606D03*
D91*
X003781Y006623D03*
X004176Y006428D03*
X004176Y006283D03*
X004176Y006138D03*
X004176Y006113D03*
X003886Y006113D03*
X003781Y005848D03*
X004651Y006068D03*
X004856Y006113D03*
X004856Y006258D03*
X004856Y006283D03*
X004616Y006408D03*
X005626Y006138D03*
X005626Y006113D03*
X005771Y006113D03*
X005771Y006138D03*
X005771Y006258D03*
X005771Y006403D03*
X005771Y006473D03*
X006231Y006353D03*
X006231Y006328D03*
X006231Y006283D03*
X006231Y006068D03*
X006701Y006113D03*
X006701Y006138D03*
X006701Y006283D03*
X006701Y006428D03*
X006891Y006258D03*
X007176Y006183D03*
X007176Y006138D03*
X007176Y006113D03*
X007176Y006353D03*
X007756Y006353D03*
X007901Y006183D03*
X007901Y006138D03*
X007756Y006138D03*
D92*
X006666Y006203D03*
X006076Y005868D03*
X006076Y005863D03*
X006076Y005858D03*
X006076Y005853D03*
X006076Y005848D03*
X004141Y006203D03*
D93*
X004363Y006063D03*
X004613Y006358D03*
X005188Y006278D03*
X005483Y006278D03*
X005943Y006333D03*
X007343Y006333D03*
X008043Y006278D03*
X008153Y006623D03*
X008153Y005848D03*
X003773Y005863D03*
X003773Y006603D03*
D94*
X003888Y006426D03*
X004363Y006186D03*
X004173Y006041D03*
X003778Y005851D03*
X004648Y006141D03*
X004853Y006356D03*
X005188Y006401D03*
X005188Y006281D03*
X005188Y006211D03*
X005188Y006186D03*
X005188Y006066D03*
X005188Y006041D03*
X005483Y006066D03*
X005483Y006211D03*
X005483Y006331D03*
X005943Y006401D03*
X006413Y006426D03*
X006698Y006041D03*
X007343Y006186D03*
X007343Y006401D03*
X008043Y006041D03*
X008148Y006631D03*
D95*
X006666Y006266D03*
X006076Y005866D03*
X006076Y005861D03*
X006076Y005856D03*
X006076Y005851D03*
X004141Y006266D03*
D96*
X004174Y006191D03*
X004174Y006046D03*
X004364Y006191D03*
X004174Y006351D03*
X003887Y006336D03*
X003889Y006421D03*
X003772Y006601D03*
X003887Y006206D03*
X003887Y006191D03*
X003887Y006046D03*
X003772Y005871D03*
X004614Y006286D03*
X004614Y006341D03*
X004854Y006351D03*
X005482Y006351D03*
X005482Y006206D03*
X005482Y006191D03*
X005627Y006191D03*
X005624Y006061D03*
X005769Y006061D03*
X005769Y006191D03*
X006229Y006191D03*
X006229Y006206D03*
X006412Y006206D03*
X006412Y006191D03*
X006412Y006336D03*
X006414Y006421D03*
X006229Y006406D03*
X006699Y006351D03*
X006699Y006191D03*
X006699Y006046D03*
X006889Y006206D03*
X006889Y006351D03*
X007344Y006406D03*
X007757Y006406D03*
X008157Y006616D03*
X007972Y006061D03*
X007757Y006061D03*
X007754Y006046D03*
X008154Y005851D03*
X006412Y006046D03*
X005704Y005901D03*
D97*
X005697Y005993D03*
X005697Y006043D03*
X005554Y006043D03*
X005554Y005993D03*
X005482Y006138D03*
X005482Y006188D03*
X005482Y006353D03*
X005482Y006403D03*
X005189Y006353D03*
X005189Y006258D03*
X005189Y006043D03*
X005189Y005993D03*
X004649Y006138D03*
X004649Y006188D03*
X004614Y006338D03*
X004364Y006353D03*
X004364Y006403D03*
X004174Y006403D03*
X003887Y006208D03*
X003887Y006138D03*
X003887Y005993D03*
X003777Y005853D03*
X004174Y005993D03*
X004364Y006138D03*
X005944Y006138D03*
X005944Y006188D03*
X005944Y006353D03*
X006229Y006258D03*
X006229Y006138D03*
X006412Y006138D03*
X006412Y006113D03*
X006412Y005993D03*
X006699Y005993D03*
X006889Y006138D03*
X006889Y006188D03*
X006889Y006353D03*
X006699Y006403D03*
X007174Y006328D03*
X007344Y006353D03*
X007344Y006138D03*
X007757Y006113D03*
X007757Y006208D03*
X007757Y006258D03*
X007972Y006113D03*
X008044Y005993D03*
X008149Y006628D03*
D98*
X008044Y006348D03*
X008044Y006333D03*
X007757Y006333D03*
X007757Y006133D03*
X007344Y006063D03*
X007174Y006118D03*
X007174Y006133D03*
X007174Y006333D03*
X007174Y006348D03*
X007344Y006278D03*
X006892Y006263D03*
X006557Y006278D03*
X006412Y006278D03*
X006412Y006263D03*
X006229Y006333D03*
X005944Y006278D03*
X005944Y006263D03*
X005772Y006118D03*
X005482Y006118D03*
X005482Y006133D03*
X005189Y006133D03*
X005189Y006118D03*
X005187Y006333D03*
X005482Y006263D03*
X004854Y006263D03*
X004854Y006278D03*
X004614Y006413D03*
X004364Y006278D03*
X004174Y006118D03*
X003887Y006118D03*
X003887Y006133D03*
X003887Y006263D03*
X003887Y006278D03*
X004032Y006278D03*
X003772Y006598D03*
X003772Y005868D03*
X005704Y005898D03*
X005704Y005903D03*
X006412Y006118D03*
X006412Y006133D03*
X006699Y006118D03*
X006889Y006063D03*
X008157Y005853D03*
D99*
X007901Y006136D03*
X007901Y006186D03*
X007756Y006136D03*
X007756Y006351D03*
X007176Y006351D03*
X007176Y006136D03*
X006891Y006261D03*
X006701Y006281D03*
X006701Y006426D03*
X006231Y006331D03*
X006231Y006281D03*
X006231Y006066D03*
X005771Y006116D03*
X005771Y006136D03*
X005626Y006136D03*
X005626Y006116D03*
X005771Y006281D03*
X004856Y006281D03*
X004856Y006261D03*
X004616Y006411D03*
X004176Y006426D03*
X004176Y006281D03*
X004176Y006136D03*
X004176Y006116D03*
X004651Y006066D03*
X003776Y005856D03*
X006701Y006116D03*
X006701Y006136D03*
X008151Y006626D03*
D100*
X008044Y006403D03*
X007757Y006403D03*
X007757Y006188D03*
X007757Y006063D03*
X007972Y006063D03*
X007174Y006188D03*
X007174Y006278D03*
X007174Y006403D03*
X006889Y006208D03*
X006889Y006118D03*
X006699Y006188D03*
X006699Y006333D03*
X006699Y006353D03*
X006412Y006333D03*
X006412Y006188D03*
X006412Y006063D03*
X005944Y006118D03*
X005944Y006208D03*
X005769Y006188D03*
X005627Y006188D03*
X005624Y006063D03*
X005189Y006188D03*
X004854Y006208D03*
X004857Y006118D03*
X004649Y006118D03*
X004364Y006118D03*
X004174Y006188D03*
X004174Y006333D03*
X004174Y006353D03*
X004029Y006333D03*
X003887Y006333D03*
X003887Y006188D03*
X003887Y006063D03*
X003774Y005858D03*
X004364Y006333D03*
X004857Y006333D03*
X004174Y006478D03*
X003887Y006478D03*
X003774Y006608D03*
X005482Y006478D03*
X005482Y006423D03*
X006229Y006403D03*
X006412Y006478D03*
X006699Y006478D03*
D101*
X005927Y005863D03*
X005927Y005858D03*
X005822Y005858D03*
D102*
X005697Y005988D03*
X005697Y006048D03*
X005554Y006048D03*
X005482Y006348D03*
X005189Y006408D03*
X004854Y006348D03*
X004614Y006343D03*
X004649Y006193D03*
X004649Y006133D03*
X004364Y006133D03*
X004364Y006193D03*
X004174Y006048D03*
X003887Y006048D03*
X003887Y005988D03*
X003769Y005988D03*
X003769Y005983D03*
X003769Y005978D03*
X003769Y005973D03*
X003769Y005968D03*
X003769Y005963D03*
X003769Y005958D03*
X003769Y005953D03*
X003769Y005948D03*
X003769Y005943D03*
X003769Y005938D03*
X003769Y005933D03*
X003769Y005928D03*
X003769Y005923D03*
X003769Y005918D03*
X003769Y005913D03*
X003769Y005908D03*
X003769Y005903D03*
X003769Y005898D03*
X003769Y005893D03*
X003769Y005888D03*
X003769Y005883D03*
X003769Y005993D03*
X003769Y005998D03*
X003769Y006003D03*
X003769Y006008D03*
X003769Y006013D03*
X003769Y006018D03*
X003769Y006023D03*
X003769Y006028D03*
X003769Y006033D03*
X003769Y006038D03*
X003769Y006043D03*
X003769Y006048D03*
X003769Y006053D03*
X003769Y006058D03*
X003769Y006063D03*
X003769Y006068D03*
X003769Y006073D03*
X003769Y006078D03*
X003769Y006083D03*
X003769Y006088D03*
X003769Y006093D03*
X003769Y006098D03*
X003769Y006103D03*
X003769Y006108D03*
X003769Y006113D03*
X003769Y006118D03*
X003769Y006123D03*
X003769Y006128D03*
X003769Y006133D03*
X003769Y006138D03*
X003769Y006143D03*
X003769Y006148D03*
X003769Y006153D03*
X003769Y006158D03*
X003769Y006163D03*
X003769Y006168D03*
X003769Y006173D03*
X003769Y006178D03*
X003769Y006183D03*
X003769Y006188D03*
X003769Y006193D03*
X003769Y006198D03*
X003769Y006203D03*
X003769Y006208D03*
X003769Y006213D03*
X003769Y006218D03*
X003769Y006223D03*
X003769Y006228D03*
X003769Y006233D03*
X003769Y006238D03*
X003769Y006243D03*
X003769Y006248D03*
X003769Y006253D03*
X003769Y006258D03*
X003769Y006263D03*
X003769Y006268D03*
X003769Y006273D03*
X003769Y006278D03*
X003769Y006283D03*
X003769Y006288D03*
X003769Y006293D03*
X003769Y006298D03*
X003769Y006303D03*
X003769Y006308D03*
X003769Y006313D03*
X003769Y006318D03*
X003769Y006323D03*
X003769Y006328D03*
X003769Y006333D03*
X003769Y006338D03*
X003769Y006343D03*
X003769Y006348D03*
X003769Y006353D03*
X003769Y006358D03*
X003769Y006363D03*
X003769Y006368D03*
X003769Y006373D03*
X003769Y006378D03*
X003769Y006383D03*
X003769Y006388D03*
X003769Y006393D03*
X003769Y006398D03*
X003769Y006403D03*
X003769Y006408D03*
X003769Y006413D03*
X003769Y006418D03*
X003769Y006423D03*
X003769Y006428D03*
X003769Y006433D03*
X003769Y006438D03*
X003769Y006443D03*
X003769Y006448D03*
X003769Y006453D03*
X003769Y006458D03*
X003769Y006463D03*
X003769Y006468D03*
X003769Y006473D03*
X003769Y006478D03*
X003769Y006483D03*
X003769Y006488D03*
X003769Y006493D03*
X003769Y006498D03*
X003769Y006503D03*
X003769Y006508D03*
X003769Y006513D03*
X003769Y006518D03*
X003769Y006523D03*
X003769Y006528D03*
X003769Y006533D03*
X003769Y006538D03*
X003769Y006543D03*
X003769Y006548D03*
X003769Y006553D03*
X003769Y006558D03*
X003769Y006563D03*
X003769Y006568D03*
X003769Y006573D03*
X003769Y006578D03*
X003769Y006583D03*
X005944Y006348D03*
X005944Y006193D03*
X005944Y006133D03*
X006229Y006133D03*
X006412Y006048D03*
X006412Y005988D03*
X006699Y006048D03*
X006889Y006133D03*
X006889Y006193D03*
X006892Y006408D03*
X007174Y006263D03*
X007174Y006203D03*
X007344Y006133D03*
X007757Y006263D03*
X007759Y006408D03*
X008159Y006608D03*
X008044Y005988D03*
X008159Y005858D03*
D103*
X008159Y005861D03*
X007757Y006131D03*
X007902Y006196D03*
X008044Y006406D03*
X008159Y006611D03*
X007344Y006276D03*
X007344Y006121D03*
X007174Y006121D03*
X006889Y006061D03*
X006412Y006121D03*
X006229Y006121D03*
X005944Y006206D03*
X005944Y006336D03*
X005482Y006276D03*
X005187Y006276D03*
X005189Y006191D03*
X005482Y006121D03*
X004614Y006356D03*
X004364Y006276D03*
X004174Y006276D03*
X004364Y006061D03*
X003887Y006121D03*
X003769Y006121D03*
X003769Y006126D03*
X003769Y006131D03*
X003769Y006136D03*
X003769Y006141D03*
X003769Y006146D03*
X003769Y006151D03*
X003769Y006156D03*
X003769Y006161D03*
X003769Y006166D03*
X003769Y006171D03*
X003769Y006176D03*
X003769Y006181D03*
X003769Y006186D03*
X003769Y006191D03*
X003769Y006196D03*
X003769Y006201D03*
X003769Y006206D03*
X003769Y006211D03*
X003769Y006216D03*
X003769Y006221D03*
X003769Y006226D03*
X003769Y006231D03*
X003769Y006236D03*
X003769Y006241D03*
X003769Y006246D03*
X003769Y006251D03*
X003769Y006256D03*
X003769Y006261D03*
X003769Y006266D03*
X003769Y006271D03*
X003769Y006276D03*
X003769Y006281D03*
X003769Y006286D03*
X003769Y006291D03*
X003769Y006296D03*
X003769Y006301D03*
X003769Y006306D03*
X003769Y006311D03*
X003769Y006316D03*
X003769Y006321D03*
X003769Y006326D03*
X003769Y006331D03*
X003769Y006336D03*
X003769Y006341D03*
X003769Y006346D03*
X003769Y006351D03*
X003769Y006356D03*
X003769Y006361D03*
X003769Y006366D03*
X003769Y006371D03*
X003769Y006376D03*
X003769Y006381D03*
X003769Y006386D03*
X003769Y006391D03*
X003769Y006396D03*
X003769Y006401D03*
X003769Y006406D03*
X003769Y006411D03*
X003769Y006416D03*
X003769Y006421D03*
X003769Y006426D03*
X003769Y006431D03*
X003769Y006436D03*
X003769Y006441D03*
X003769Y006446D03*
X003769Y006451D03*
X003769Y006456D03*
X003769Y006461D03*
X003769Y006466D03*
X003769Y006471D03*
X003769Y006476D03*
X003769Y006481D03*
X003769Y006486D03*
X003769Y006491D03*
X003769Y006496D03*
X003769Y006501D03*
X003769Y006506D03*
X003769Y006511D03*
X003769Y006516D03*
X003769Y006521D03*
X003769Y006526D03*
X003769Y006531D03*
X003769Y006536D03*
X003769Y006541D03*
X003769Y006546D03*
X003769Y006551D03*
X003769Y006556D03*
X003769Y006561D03*
X003769Y006566D03*
X003769Y006571D03*
X003769Y006576D03*
X003769Y006581D03*
X003769Y006586D03*
X003769Y006116D03*
X003769Y006111D03*
X003769Y006106D03*
X003769Y006101D03*
X003769Y006096D03*
X003769Y006091D03*
X003769Y006086D03*
X003769Y006081D03*
X003769Y006076D03*
X003769Y006071D03*
X003769Y006066D03*
X003769Y006061D03*
X003769Y006056D03*
X003769Y006051D03*
X003769Y006046D03*
X003769Y006041D03*
X003769Y006036D03*
X003769Y006031D03*
X003769Y006026D03*
X003769Y006021D03*
X003769Y006016D03*
X003769Y006011D03*
X003769Y006006D03*
X003769Y006001D03*
X003769Y005996D03*
X003769Y005991D03*
X003769Y005986D03*
X003769Y005981D03*
X003769Y005976D03*
X003769Y005971D03*
X003769Y005966D03*
X003769Y005961D03*
X003769Y005956D03*
X003769Y005951D03*
X003769Y005946D03*
X003769Y005941D03*
X003769Y005936D03*
X003769Y005931D03*
X003769Y005926D03*
X003769Y005921D03*
X003769Y005916D03*
X003769Y005911D03*
X003769Y005906D03*
X003769Y005901D03*
X003769Y005896D03*
X003769Y005891D03*
X003769Y005886D03*
X005482Y006481D03*
X006699Y006276D03*
D104*
X006701Y006348D03*
X006416Y006418D03*
X006231Y006203D03*
X005771Y006203D03*
X005771Y006193D03*
X005771Y006348D03*
X004856Y006413D03*
X004366Y006408D03*
X004176Y006348D03*
X003891Y006418D03*
X003886Y006203D03*
X004176Y006058D03*
X004856Y006058D03*
X004856Y006133D03*
X004856Y006193D03*
X006701Y006058D03*
X007346Y006193D03*
X007346Y006273D03*
X007756Y006048D03*
X007901Y006193D03*
X008161Y005863D03*
X008161Y006603D03*
D105*
X006664Y006206D03*
X005874Y005866D03*
X004139Y006206D03*
D106*
X004176Y006131D03*
X004176Y006121D03*
X004651Y006061D03*
X004856Y006061D03*
X004856Y006266D03*
X004856Y006276D03*
X004856Y006411D03*
X004616Y006416D03*
X004176Y006421D03*
X005626Y006131D03*
X005626Y006121D03*
X005771Y006121D03*
X005771Y006131D03*
X005771Y006276D03*
X006231Y006276D03*
X006231Y006336D03*
X006701Y006421D03*
X006891Y006266D03*
X006701Y006131D03*
X006701Y006121D03*
X007176Y006131D03*
X007176Y006346D03*
X007901Y006131D03*
X008161Y005866D03*
X008161Y006606D03*
D107*
X005876Y005868D03*
D108*
X005769Y006058D03*
X005624Y006058D03*
X005627Y006193D03*
X005769Y006338D03*
X005944Y006203D03*
X005944Y006123D03*
X006229Y006193D03*
X006412Y006193D03*
X006412Y006203D03*
X006412Y006058D03*
X006697Y006198D03*
X006699Y006338D03*
X006889Y006203D03*
X006889Y006123D03*
X006892Y006058D03*
X007174Y006193D03*
X007174Y006273D03*
X007344Y006408D03*
X007759Y006413D03*
X008162Y006598D03*
X007972Y006058D03*
X007757Y006058D03*
X007344Y006123D03*
X008162Y005868D03*
X006414Y006413D03*
X006229Y006408D03*
X005482Y006338D03*
X005189Y006058D03*
X004854Y006203D03*
X004649Y006123D03*
X004364Y006123D03*
X004367Y006058D03*
X004172Y006198D03*
X004174Y006338D03*
X004367Y006273D03*
X004614Y006283D03*
X003887Y006193D03*
X003887Y006058D03*
X003889Y006413D03*
D109*
X005876Y005871D03*
D110*
X005944Y006131D03*
X006232Y006061D03*
X006412Y006131D03*
X006697Y006196D03*
X006697Y006271D03*
X006892Y006411D03*
X006414Y006341D03*
X006412Y006266D03*
X006229Y006266D03*
X006229Y006346D03*
X005944Y006346D03*
X005944Y006266D03*
X005769Y006266D03*
X005482Y006266D03*
X005482Y006411D03*
X005482Y006131D03*
X004367Y006196D03*
X004172Y006196D03*
X004172Y006271D03*
X004367Y006411D03*
X003889Y006341D03*
X003887Y006266D03*
X003887Y006131D03*
X007174Y006336D03*
X007344Y006346D03*
X007347Y006271D03*
X007347Y006196D03*
X007344Y006061D03*
X007757Y006121D03*
X007757Y006201D03*
X007757Y006346D03*
X007759Y006411D03*
X008044Y006346D03*
X008044Y006336D03*
X008162Y006601D03*
X007757Y005986D03*
X008162Y005871D03*
D111*
X007756Y006118D03*
X007756Y006203D03*
X007756Y006348D03*
X006701Y006408D03*
X006231Y006348D03*
X006231Y006263D03*
X005771Y006263D03*
X005771Y006408D03*
X005771Y006133D03*
X005626Y006118D03*
X004856Y006063D03*
X004176Y006133D03*
X004176Y005988D03*
X003771Y005878D03*
X003771Y005873D03*
X004176Y006408D03*
X003771Y006588D03*
X003771Y006593D03*
X004856Y006408D03*
X006701Y006133D03*
X006701Y005988D03*
D112*
X005873Y005883D03*
X005873Y005878D03*
X005873Y005873D03*
D113*
X005483Y006058D03*
X005188Y006193D03*
X005188Y006273D03*
X005188Y006338D03*
X005483Y006418D03*
X005943Y006338D03*
X006888Y006273D03*
X006893Y006413D03*
X007348Y006198D03*
X007758Y006193D03*
X007758Y006338D03*
X008163Y006588D03*
X008163Y006593D03*
X008163Y005878D03*
X008163Y005873D03*
X004368Y006198D03*
X004368Y006413D03*
D114*
X004366Y006336D03*
X004176Y006336D03*
X004031Y006336D03*
X004176Y006481D03*
X003886Y006481D03*
X003771Y006591D03*
X003771Y006596D03*
X004856Y006336D03*
X004856Y006206D03*
X004856Y006121D03*
X004856Y006056D03*
X004651Y006121D03*
X004176Y006061D03*
X003886Y006061D03*
X003771Y005881D03*
X003771Y005876D03*
X005771Y006336D03*
X005771Y006421D03*
X005771Y006481D03*
X006411Y006481D03*
X006701Y006481D03*
X006701Y006336D03*
X006556Y006336D03*
X006891Y006336D03*
X007176Y006276D03*
X007176Y006191D03*
X007176Y006061D03*
X006701Y006061D03*
X006411Y006061D03*
X007176Y006406D03*
X007756Y006276D03*
X007901Y006191D03*
D115*
X005873Y005886D03*
X005873Y005881D03*
X005873Y005876D03*
D116*
X005943Y006061D03*
X005188Y005986D03*
X005188Y006201D03*
X005188Y006266D03*
X005188Y006346D03*
X004613Y006346D03*
X004363Y006346D03*
X004368Y006271D03*
X004363Y006131D03*
X006888Y006131D03*
X006888Y006346D03*
X007343Y006131D03*
X007758Y006266D03*
X007973Y006121D03*
X008163Y005881D03*
X008163Y005876D03*
X008163Y006591D03*
X008163Y006596D03*
D117*
X008164Y006583D03*
X008164Y006578D03*
X008164Y006573D03*
X008164Y006568D03*
X008164Y006563D03*
X008164Y006558D03*
X008164Y006553D03*
X008164Y006548D03*
X008164Y006543D03*
X008164Y006538D03*
X008164Y006533D03*
X008164Y006528D03*
X008164Y006523D03*
X008164Y006518D03*
X008164Y006513D03*
X008164Y006508D03*
X008164Y006503D03*
X008164Y006498D03*
X008164Y006493D03*
X008164Y006488D03*
X008164Y006483D03*
X008164Y006478D03*
X008164Y006473D03*
X008164Y006468D03*
X008164Y006463D03*
X008164Y006458D03*
X008164Y006453D03*
X008164Y006448D03*
X008164Y006443D03*
X008164Y006438D03*
X008164Y006433D03*
X008164Y006428D03*
X008164Y006423D03*
X008164Y006418D03*
X008164Y006413D03*
X008164Y006408D03*
X008164Y006403D03*
X008164Y006398D03*
X008164Y006393D03*
X008164Y006388D03*
X008164Y006383D03*
X008164Y006378D03*
X008164Y006373D03*
X008164Y006368D03*
X008164Y006363D03*
X008164Y006358D03*
X008164Y006353D03*
X008164Y006348D03*
X008164Y006343D03*
X008164Y006338D03*
X008164Y006333D03*
X008164Y006328D03*
X008164Y006323D03*
X008164Y006318D03*
X008164Y006313D03*
X008164Y006308D03*
X008164Y006303D03*
X008164Y006298D03*
X008164Y006293D03*
X008164Y006288D03*
X008164Y006283D03*
X008164Y006278D03*
X008164Y006273D03*
X008164Y006268D03*
X008164Y006263D03*
X008164Y006258D03*
X008164Y006253D03*
X008164Y006248D03*
X008164Y006243D03*
X008164Y006238D03*
X008164Y006233D03*
X008164Y006228D03*
X008164Y006223D03*
X008164Y006218D03*
X008164Y006213D03*
X008164Y006208D03*
X008164Y006203D03*
X008164Y006198D03*
X008164Y006193D03*
X008164Y006188D03*
X008164Y006183D03*
X008164Y006178D03*
X008164Y006173D03*
X008164Y006168D03*
X008164Y006163D03*
X008164Y006158D03*
X008164Y006153D03*
X008164Y006148D03*
X008164Y006143D03*
X008164Y006138D03*
X008164Y006133D03*
X008164Y006128D03*
X008164Y006123D03*
X008164Y006118D03*
X008164Y006113D03*
X008164Y006108D03*
X008164Y006103D03*
X008164Y006098D03*
X008164Y006093D03*
X008164Y006088D03*
X008164Y006083D03*
X008164Y006078D03*
X008164Y006073D03*
X008164Y006068D03*
X008164Y006063D03*
X008164Y006058D03*
X008164Y006053D03*
X008164Y006048D03*
X008164Y006043D03*
X008164Y006038D03*
X008164Y006033D03*
X008164Y006028D03*
X008164Y006023D03*
X008164Y006018D03*
X008164Y006013D03*
X008164Y006008D03*
X008164Y006003D03*
X008164Y005998D03*
X008164Y005993D03*
X008164Y005988D03*
X008164Y005983D03*
X008164Y005978D03*
X008164Y005973D03*
X008164Y005968D03*
X008164Y005963D03*
X008164Y005958D03*
X008164Y005953D03*
X008164Y005948D03*
X008164Y005943D03*
X008164Y005938D03*
X008164Y005933D03*
X008164Y005928D03*
X008164Y005923D03*
X008164Y005918D03*
X008164Y005913D03*
X008164Y005908D03*
X008164Y005903D03*
X008164Y005898D03*
X008164Y005893D03*
X008164Y005888D03*
X008164Y005883D03*
X007757Y006123D03*
X007757Y006128D03*
X007757Y006198D03*
X007757Y006343D03*
X008044Y006343D03*
X008044Y006338D03*
X008044Y006273D03*
X008044Y006408D03*
X007344Y006338D03*
X007174Y006338D03*
X007174Y006128D03*
X007174Y006123D03*
X006889Y006268D03*
X006554Y006338D03*
X006412Y006273D03*
X006412Y006268D03*
X006412Y006198D03*
X006412Y006128D03*
X006412Y006123D03*
X006229Y006128D03*
X005944Y006128D03*
X005944Y006198D03*
X005944Y006268D03*
X005944Y006273D03*
X005944Y006343D03*
X005769Y006268D03*
X005482Y006268D03*
X005482Y006273D03*
X005482Y006198D03*
X005482Y006128D03*
X005482Y006123D03*
X005769Y006123D03*
X005769Y006128D03*
X006229Y006268D03*
X006229Y006338D03*
X006409Y006483D03*
X006702Y006483D03*
X006699Y006123D03*
X005482Y006413D03*
X005482Y006483D03*
X004857Y006268D03*
X004854Y006273D03*
X005189Y006128D03*
X004364Y006128D03*
X004174Y006123D03*
X003887Y006123D03*
X003887Y006128D03*
X003887Y006198D03*
X003887Y006268D03*
X003887Y006273D03*
X004029Y006338D03*
X003884Y006483D03*
X004177Y006483D03*
D118*
X004614Y006351D03*
X004854Y006201D03*
X004854Y006196D03*
X005189Y006056D03*
X005189Y006051D03*
X005482Y006196D03*
X005482Y006201D03*
X005482Y006341D03*
X005482Y006346D03*
X005772Y006201D03*
X005944Y006201D03*
X005944Y006196D03*
X005944Y006126D03*
X005697Y005986D03*
X005554Y005986D03*
X005944Y006341D03*
X006229Y006201D03*
X006229Y006196D03*
X006412Y006196D03*
X006412Y006201D03*
X006412Y006126D03*
X006412Y006056D03*
X006412Y006051D03*
X006412Y005986D03*
X006699Y006051D03*
X006699Y006056D03*
X006889Y006126D03*
X006889Y006196D03*
X006889Y006341D03*
X007174Y006126D03*
X007757Y006126D03*
X007757Y006196D03*
X007757Y006056D03*
X007757Y006051D03*
X008044Y005986D03*
X008164Y005986D03*
X008164Y005991D03*
X008164Y005996D03*
X008164Y006001D03*
X008164Y006006D03*
X008164Y006011D03*
X008164Y006016D03*
X008164Y006021D03*
X008164Y006026D03*
X008164Y006031D03*
X008164Y006036D03*
X008164Y006041D03*
X008164Y006046D03*
X008164Y006051D03*
X008164Y006056D03*
X008164Y006061D03*
X008164Y006066D03*
X008164Y006071D03*
X008164Y006076D03*
X008164Y006081D03*
X008164Y006086D03*
X008164Y006091D03*
X008164Y006096D03*
X008164Y006101D03*
X008164Y006106D03*
X008164Y006111D03*
X008164Y006116D03*
X008164Y006121D03*
X008164Y006126D03*
X008164Y006131D03*
X008164Y006136D03*
X008164Y006141D03*
X008164Y006146D03*
X008164Y006151D03*
X008164Y006156D03*
X008164Y006161D03*
X008164Y006166D03*
X008164Y006171D03*
X008164Y006176D03*
X008164Y006181D03*
X008164Y006186D03*
X008164Y006191D03*
X008164Y006196D03*
X008164Y006201D03*
X008164Y006206D03*
X008164Y006211D03*
X008164Y006216D03*
X008164Y006221D03*
X008164Y006226D03*
X008164Y006231D03*
X008164Y006236D03*
X008164Y006241D03*
X008164Y006246D03*
X008164Y006251D03*
X008164Y006256D03*
X008164Y006261D03*
X008164Y006266D03*
X008164Y006271D03*
X008164Y006276D03*
X008164Y006281D03*
X008164Y006286D03*
X008164Y006291D03*
X008164Y006296D03*
X008164Y006301D03*
X008164Y006306D03*
X008164Y006311D03*
X008164Y006316D03*
X008164Y006321D03*
X008164Y006326D03*
X008164Y006331D03*
X008164Y006336D03*
X008164Y006341D03*
X008164Y006346D03*
X008164Y006351D03*
X008164Y006356D03*
X008164Y006361D03*
X008164Y006366D03*
X008164Y006371D03*
X008164Y006376D03*
X008164Y006381D03*
X008164Y006386D03*
X008164Y006391D03*
X008164Y006396D03*
X008164Y006401D03*
X008164Y006406D03*
X008164Y006411D03*
X008164Y006416D03*
X008164Y006421D03*
X008164Y006426D03*
X008164Y006431D03*
X008164Y006436D03*
X008164Y006441D03*
X008164Y006446D03*
X008164Y006451D03*
X008164Y006456D03*
X008164Y006461D03*
X008164Y006466D03*
X008164Y006471D03*
X008164Y006476D03*
X008164Y006481D03*
X008164Y006486D03*
X008164Y006491D03*
X008164Y006496D03*
X008164Y006501D03*
X008164Y006506D03*
X008164Y006511D03*
X008164Y006516D03*
X008164Y006521D03*
X008164Y006526D03*
X008164Y006531D03*
X008164Y006536D03*
X008164Y006541D03*
X008164Y006546D03*
X008164Y006551D03*
X008164Y006556D03*
X008164Y006561D03*
X008164Y006566D03*
X008164Y006571D03*
X008164Y006576D03*
X008164Y006581D03*
X008164Y006586D03*
X008164Y005981D03*
X008164Y005976D03*
X008164Y005971D03*
X008164Y005966D03*
X008164Y005961D03*
X008164Y005956D03*
X008164Y005951D03*
X008164Y005946D03*
X008164Y005941D03*
X008164Y005936D03*
X008164Y005931D03*
X008164Y005926D03*
X008164Y005921D03*
X008164Y005916D03*
X008164Y005911D03*
X008164Y005906D03*
X008164Y005901D03*
X008164Y005896D03*
X008164Y005891D03*
X008164Y005886D03*
X004174Y006051D03*
X004174Y006056D03*
X003887Y006056D03*
X003887Y006051D03*
X003887Y005986D03*
X003887Y006126D03*
X003887Y006196D03*
X003887Y006201D03*
D119*
X004366Y006406D03*
X004856Y006406D03*
X004856Y006191D03*
X004856Y006136D03*
X004856Y006066D03*
X005706Y005906D03*
X006231Y006136D03*
X005771Y006206D03*
X005771Y006351D03*
X006891Y006406D03*
X006891Y006191D03*
X006891Y006136D03*
X007176Y006206D03*
X007176Y006261D03*
D120*
X005953Y005921D03*
D121*
X005952Y005923D03*
D122*
X005953Y005926D03*
D123*
X007758Y005983D03*
D124*
X007176Y006201D03*
X007176Y006266D03*
X006701Y006346D03*
X006701Y006411D03*
X006416Y006416D03*
X006231Y006131D03*
X005771Y006196D03*
X005771Y006346D03*
X005771Y006411D03*
X004856Y006346D03*
X004856Y006131D03*
X004651Y006131D03*
X004176Y005986D03*
X004176Y006346D03*
X004176Y006411D03*
X003891Y006416D03*
X006701Y005986D03*
D125*
X007506Y006046D03*
X004471Y005986D03*
D126*
X004854Y005986D03*
X007919Y006206D03*
D127*
X006086Y005986D03*
D128*
X006993Y005986D03*
X004453Y006476D03*
D129*
X004857Y006046D03*
X004854Y005996D03*
X006087Y005996D03*
X007507Y005986D03*
D130*
X006996Y005988D03*
X006996Y006418D03*
X004471Y005988D03*
D131*
X004856Y005988D03*
D132*
X004854Y006418D03*
X006087Y005988D03*
X007919Y006218D03*
D133*
X007504Y006418D03*
X007504Y005988D03*
X006087Y006008D03*
X006087Y006033D03*
X006087Y006433D03*
X006087Y006463D03*
X004854Y006463D03*
X004857Y006033D03*
D134*
X004472Y005991D03*
X006997Y005991D03*
D135*
X004856Y005991D03*
D136*
X004854Y006421D03*
X006087Y005991D03*
D137*
X007432Y006206D03*
X007504Y006421D03*
X007504Y005991D03*
D138*
X007758Y005991D03*
X008043Y006281D03*
X008043Y006351D03*
X007343Y006281D03*
X006888Y006066D03*
X006558Y006281D03*
X006413Y006281D03*
X006413Y006261D03*
X005943Y006261D03*
X005943Y006066D03*
X005483Y006261D03*
X005483Y006281D03*
X005188Y006331D03*
X005188Y006116D03*
X004363Y006066D03*
X004363Y006281D03*
X004033Y006281D03*
X003888Y006281D03*
D139*
X004472Y005993D03*
X006994Y006423D03*
X007864Y006423D03*
D140*
X006087Y005993D03*
X004857Y006048D03*
X004854Y005993D03*
D141*
X006998Y005993D03*
D142*
X007503Y005993D03*
D143*
X004472Y005996D03*
D144*
X006998Y005996D03*
D145*
X007503Y005996D03*
D146*
X007756Y006038D03*
X007176Y006253D03*
X006891Y006183D03*
X006701Y006183D03*
X006701Y006143D03*
X006701Y006068D03*
X006701Y005998D03*
X006411Y006038D03*
X006231Y006143D03*
X006231Y006183D03*
X006231Y006213D03*
X006231Y006253D03*
X006556Y006328D03*
X006701Y006328D03*
X006701Y006398D03*
X006891Y006398D03*
X005771Y006398D03*
X005771Y006358D03*
X005771Y006328D03*
X005771Y006213D03*
X005771Y006183D03*
X005771Y006068D03*
X005626Y006183D03*
X004856Y006183D03*
X004856Y006143D03*
X004856Y006073D03*
X004651Y006073D03*
X004856Y006253D03*
X004856Y006328D03*
X004856Y006398D03*
X004176Y006398D03*
X004031Y006328D03*
X004176Y006183D03*
X004176Y006143D03*
X004176Y006068D03*
X004176Y005998D03*
X003886Y006038D03*
D147*
X004472Y005998D03*
X004472Y006213D03*
X006997Y006468D03*
X007864Y006428D03*
D148*
X006087Y005998D03*
X004857Y006043D03*
X004854Y005998D03*
D149*
X006998Y005998D03*
D150*
X006993Y006053D03*
X007433Y006258D03*
X007503Y005998D03*
X004453Y006428D03*
D151*
X004364Y006358D03*
X004364Y006323D03*
X004364Y006288D03*
X004174Y006288D03*
X004174Y006363D03*
X004032Y006288D03*
X003887Y006288D03*
X003887Y006253D03*
X003887Y006143D03*
X003887Y006108D03*
X003887Y006073D03*
X004174Y006108D03*
X004364Y006108D03*
X004364Y006073D03*
X004649Y006108D03*
X004649Y006148D03*
X004649Y006178D03*
X004614Y006298D03*
X004614Y006403D03*
X004854Y006363D03*
X004854Y006288D03*
X004854Y006218D03*
X005189Y006108D03*
X005482Y006108D03*
X005482Y006143D03*
X005482Y006253D03*
X005482Y006288D03*
X005482Y006358D03*
X005482Y006398D03*
X005482Y006433D03*
X005482Y006468D03*
X005189Y006358D03*
X005624Y006108D03*
X005769Y006143D03*
X005769Y006253D03*
X005769Y006288D03*
X005944Y006288D03*
X005944Y006253D03*
X005944Y006218D03*
X005944Y006323D03*
X005944Y006358D03*
X005944Y006393D03*
X006229Y006358D03*
X006229Y006323D03*
X006412Y006253D03*
X006412Y006178D03*
X006412Y006143D03*
X006412Y006108D03*
X006412Y006073D03*
X006229Y006073D03*
X005944Y006108D03*
X006557Y006288D03*
X006699Y006288D03*
X006699Y006363D03*
X006889Y006323D03*
X006889Y006288D03*
X006889Y006253D03*
X006889Y006218D03*
X006889Y006143D03*
X006889Y006108D03*
X006889Y006073D03*
X006699Y006108D03*
X007174Y006108D03*
X007174Y006073D03*
X007174Y006143D03*
X007174Y006178D03*
X007174Y006323D03*
X007174Y006358D03*
X007174Y006393D03*
X007344Y006358D03*
X007344Y006323D03*
X007344Y006288D03*
X007344Y006108D03*
X007344Y006073D03*
X007757Y006108D03*
X007757Y006143D03*
X007757Y006213D03*
X007757Y006288D03*
X007757Y006323D03*
X007757Y006358D03*
X007757Y006393D03*
X008044Y006393D03*
X008044Y006358D03*
X008044Y006323D03*
X008044Y006288D03*
X007899Y006178D03*
X007899Y006143D03*
X007972Y006073D03*
X007757Y005998D03*
X006412Y006468D03*
X003887Y006468D03*
X003784Y006628D03*
D152*
X004472Y006256D03*
X004472Y006001D03*
X006997Y006001D03*
X007864Y006471D03*
D153*
X004856Y006471D03*
X004451Y006416D03*
X004856Y006001D03*
D154*
X004363Y006076D03*
X003888Y006251D03*
X005188Y006251D03*
X005188Y006221D03*
X005188Y006176D03*
X005188Y006146D03*
X005188Y006106D03*
X005188Y006076D03*
X005188Y006036D03*
X005188Y006001D03*
X005553Y006001D03*
X005483Y006146D03*
X005483Y006251D03*
X005483Y006291D03*
X005483Y006396D03*
X005188Y006361D03*
X005188Y006321D03*
X005188Y006291D03*
X005943Y006291D03*
X005943Y006321D03*
X005943Y006251D03*
X005943Y006221D03*
X005943Y006106D03*
X005943Y006076D03*
X006413Y006251D03*
X006888Y006076D03*
X007343Y006076D03*
X007343Y006106D03*
X007343Y006146D03*
X007343Y006176D03*
X007343Y006291D03*
X007343Y006321D03*
X007343Y006361D03*
X008043Y006361D03*
X008043Y006391D03*
X008043Y006321D03*
X008043Y006291D03*
X008043Y006031D03*
X008043Y006006D03*
X007758Y006001D03*
D155*
X006087Y006001D03*
X004857Y006041D03*
X004854Y006431D03*
D156*
X007434Y006256D03*
X007504Y006431D03*
X007504Y006001D03*
D157*
X007344Y006078D03*
X007344Y006103D03*
X007344Y006153D03*
X007344Y006173D03*
X007344Y006293D03*
X007344Y006318D03*
X007344Y006388D03*
X007174Y006388D03*
X007174Y006363D03*
X007174Y006318D03*
X007174Y006313D03*
X007174Y006293D03*
X007174Y006243D03*
X007174Y006223D03*
X007174Y006148D03*
X007174Y006103D03*
X007174Y006078D03*
X006889Y006078D03*
X006889Y006103D03*
X006889Y006148D03*
X006889Y006153D03*
X006889Y006173D03*
X006889Y006223D03*
X006889Y006248D03*
X006889Y006293D03*
X006889Y006298D03*
X006889Y006318D03*
X006889Y006368D03*
X006889Y006388D03*
X006699Y006368D03*
X006699Y006318D03*
X006699Y006293D03*
X006699Y006173D03*
X006699Y006103D03*
X006699Y006078D03*
X006699Y006028D03*
X006412Y006028D03*
X006412Y006008D03*
X006412Y006003D03*
X006412Y006078D03*
X006412Y006098D03*
X006412Y006103D03*
X006412Y006148D03*
X006412Y006153D03*
X006412Y006173D03*
X006412Y006248D03*
X006412Y006293D03*
X006412Y006318D03*
X006412Y006438D03*
X006412Y006463D03*
X006229Y006388D03*
X006229Y006318D03*
X006229Y006293D03*
X005944Y006293D03*
X005944Y006318D03*
X005944Y006363D03*
X005944Y006368D03*
X005944Y006388D03*
X005772Y006438D03*
X005769Y006293D03*
X005769Y006248D03*
X005769Y006218D03*
X005769Y006148D03*
X005769Y006103D03*
X005697Y006028D03*
X005697Y006008D03*
X005482Y006078D03*
X005482Y006103D03*
X005482Y006148D03*
X005482Y006248D03*
X005482Y006293D03*
X005482Y006363D03*
X005482Y006393D03*
X005482Y006438D03*
X005482Y006463D03*
X005189Y006318D03*
X004854Y006318D03*
X004854Y006368D03*
X004854Y006388D03*
X004614Y006393D03*
X004614Y006398D03*
X004614Y006373D03*
X004614Y006323D03*
X004614Y006303D03*
X004649Y006173D03*
X004649Y006168D03*
X004649Y006158D03*
X004649Y006153D03*
X004649Y006103D03*
X004649Y006098D03*
X004649Y006088D03*
X004649Y006083D03*
X004854Y006153D03*
X004854Y006223D03*
X004364Y006173D03*
X004364Y006153D03*
X004364Y006103D03*
X004364Y006098D03*
X004364Y006083D03*
X004364Y006078D03*
X004174Y006078D03*
X004174Y006103D03*
X004174Y006173D03*
X004174Y006293D03*
X004174Y006318D03*
X004174Y006368D03*
X004174Y006438D03*
X004174Y006463D03*
X004364Y006388D03*
X004364Y006368D03*
X004364Y006363D03*
X004364Y006318D03*
X004364Y006313D03*
X004364Y006298D03*
X004364Y006293D03*
X004032Y006293D03*
X003887Y006293D03*
X003887Y006318D03*
X003887Y006248D03*
X003887Y006223D03*
X003887Y006173D03*
X003887Y006153D03*
X003887Y006148D03*
X003887Y006103D03*
X003887Y006098D03*
X003887Y006078D03*
X003887Y006028D03*
X003887Y006008D03*
X003887Y006003D03*
X004174Y006028D03*
X003887Y006438D03*
X003887Y006463D03*
X003787Y006633D03*
X005627Y006148D03*
X005944Y006153D03*
X005944Y006173D03*
X005944Y006223D03*
X005944Y006248D03*
X005944Y006103D03*
X006229Y006103D03*
X006557Y006293D03*
X006699Y006438D03*
X006699Y006463D03*
X007757Y006388D03*
X007757Y006368D03*
X007757Y006363D03*
X007757Y006318D03*
X007757Y006293D03*
X007757Y006248D03*
X007757Y006243D03*
X007757Y006223D03*
X007757Y006218D03*
X007757Y006173D03*
X007757Y006153D03*
X007757Y006148D03*
X007757Y006103D03*
X007757Y006098D03*
X007757Y006078D03*
X007757Y006073D03*
X007757Y006028D03*
X007757Y006008D03*
X007757Y006003D03*
X007972Y006078D03*
X007972Y006083D03*
X007972Y006098D03*
X007899Y006148D03*
X007899Y006173D03*
X008044Y006293D03*
X008044Y006298D03*
X008044Y006313D03*
X008044Y006318D03*
X008044Y006363D03*
X008044Y006383D03*
X008044Y006388D03*
X008044Y006028D03*
X008044Y006008D03*
D158*
X007864Y006468D03*
X006997Y006003D03*
X004472Y006003D03*
X004472Y006218D03*
D159*
X004856Y006003D03*
X004856Y006433D03*
D160*
X004613Y006368D03*
X004613Y006328D03*
X004363Y006393D03*
X004363Y006178D03*
X004363Y006148D03*
X003888Y006218D03*
X003888Y006323D03*
X003888Y006433D03*
X005188Y006393D03*
X005188Y006363D03*
X005188Y006323D03*
X005188Y006288D03*
X005188Y006248D03*
X005188Y006218D03*
X005188Y006178D03*
X005188Y006143D03*
X005188Y006103D03*
X005188Y006073D03*
X005188Y006033D03*
X005188Y006003D03*
X005483Y006073D03*
X005553Y006033D03*
X005553Y006003D03*
X005698Y006003D03*
X005698Y006033D03*
X005943Y006078D03*
X005943Y006148D03*
X005943Y006178D03*
X005483Y006178D03*
X005483Y006218D03*
X005483Y006323D03*
X006413Y006323D03*
X006413Y006288D03*
X006413Y006218D03*
X006413Y006433D03*
X007343Y006393D03*
X007343Y006363D03*
X007343Y006178D03*
X007343Y006148D03*
X007758Y006178D03*
X007973Y006103D03*
X008043Y006033D03*
X008043Y006003D03*
D161*
X006087Y006003D03*
X006087Y006468D03*
X004854Y006468D03*
X004857Y006038D03*
D162*
X004452Y006433D03*
X007432Y006218D03*
X007504Y006033D03*
X007504Y006003D03*
X007504Y006438D03*
X007504Y006463D03*
D163*
X006996Y006436D03*
X006996Y006036D03*
X004471Y006036D03*
X004471Y006006D03*
X004471Y006221D03*
D164*
X004856Y006006D03*
X004856Y006466D03*
D165*
X004613Y006386D03*
X004613Y006381D03*
X004613Y006376D03*
X004613Y006321D03*
X004613Y006316D03*
X004613Y006311D03*
X004363Y006311D03*
X004363Y006301D03*
X004363Y006371D03*
X003888Y006316D03*
X003888Y006296D03*
X003888Y006246D03*
X003888Y006226D03*
X003888Y006441D03*
X004363Y006096D03*
X004363Y006086D03*
X005188Y006091D03*
X005188Y006096D03*
X005188Y006101D03*
X005188Y006086D03*
X005188Y006081D03*
X005188Y006026D03*
X005188Y006021D03*
X005188Y006016D03*
X005188Y006011D03*
X005188Y006006D03*
X005483Y006081D03*
X005483Y006101D03*
X005483Y006171D03*
X005483Y006226D03*
X005483Y006246D03*
X005483Y006296D03*
X005483Y006316D03*
X005483Y006441D03*
X005483Y006461D03*
X005188Y006386D03*
X005188Y006381D03*
X005188Y006376D03*
X005188Y006371D03*
X005188Y006366D03*
X005188Y006316D03*
X005188Y006311D03*
X005188Y006306D03*
X005188Y006301D03*
X005188Y006296D03*
X005188Y006246D03*
X005188Y006241D03*
X005188Y006236D03*
X005188Y006231D03*
X005188Y006226D03*
X005188Y006171D03*
X005188Y006166D03*
X005188Y006161D03*
X005188Y006156D03*
X005188Y006151D03*
X005553Y006026D03*
X005553Y006021D03*
X005553Y006016D03*
X005553Y006011D03*
X005698Y006011D03*
X005698Y006016D03*
X005698Y006021D03*
X005698Y006026D03*
X005943Y006086D03*
X005943Y006091D03*
X005943Y006096D03*
X005943Y006156D03*
X005943Y006161D03*
X005943Y006166D03*
X005943Y006171D03*
X005943Y006231D03*
X005943Y006236D03*
X005943Y006241D03*
X005943Y006301D03*
X005943Y006306D03*
X005943Y006311D03*
X005943Y006371D03*
X005943Y006376D03*
X005943Y006381D03*
X006413Y006441D03*
X006413Y006316D03*
X006413Y006296D03*
X006413Y006246D03*
X006413Y006226D03*
X007343Y006171D03*
X007343Y006166D03*
X007343Y006161D03*
X007343Y006156D03*
X007343Y006096D03*
X007343Y006091D03*
X007343Y006086D03*
X007343Y006301D03*
X007343Y006306D03*
X007343Y006311D03*
X007343Y006371D03*
X007343Y006376D03*
X007343Y006381D03*
X007343Y006386D03*
X007758Y006386D03*
X008043Y006381D03*
X008043Y006376D03*
X008043Y006371D03*
X008043Y006311D03*
X008043Y006306D03*
X008043Y006301D03*
X007758Y006241D03*
X007758Y006226D03*
X007973Y006096D03*
X008043Y006021D03*
X008043Y006016D03*
X008043Y006011D03*
X007758Y006011D03*
D166*
X007504Y006481D03*
X006087Y006036D03*
X006087Y006006D03*
X004857Y006036D03*
X004854Y006436D03*
D167*
X004472Y006251D03*
X004472Y006216D03*
X006997Y006006D03*
X006997Y006466D03*
X007864Y006466D03*
D168*
X007504Y006436D03*
X006997Y006481D03*
X007504Y006036D03*
X007504Y006006D03*
X004454Y006466D03*
D169*
X004472Y006243D03*
X004472Y006223D03*
X004472Y006028D03*
X004472Y006013D03*
X004472Y006008D03*
X006997Y006013D03*
X006997Y006008D03*
X006997Y006028D03*
X006997Y006438D03*
X006997Y006458D03*
X007864Y006463D03*
X007864Y006458D03*
X007864Y006438D03*
D170*
X007431Y006203D03*
X004856Y006028D03*
X004856Y006023D03*
X004856Y006018D03*
X004856Y006013D03*
X004856Y006008D03*
X004856Y006438D03*
X004856Y006458D03*
D171*
X004454Y006458D03*
X007504Y006458D03*
X007504Y006453D03*
X007504Y006448D03*
X007504Y006443D03*
X007504Y006028D03*
X007504Y006023D03*
X007504Y006018D03*
X007504Y006013D03*
X007504Y006008D03*
D172*
X007176Y006086D03*
X007176Y006091D03*
X007176Y006096D03*
X007176Y006156D03*
X007176Y006161D03*
X007176Y006166D03*
X007176Y006226D03*
X007176Y006231D03*
X007176Y006236D03*
X007176Y006241D03*
X007176Y006296D03*
X007176Y006301D03*
X007176Y006306D03*
X007176Y006311D03*
X007176Y006371D03*
X007176Y006376D03*
X007176Y006381D03*
X006891Y006386D03*
X006891Y006371D03*
X006701Y006371D03*
X006701Y006376D03*
X006701Y006381D03*
X006701Y006386D03*
X006701Y006441D03*
X006701Y006446D03*
X006701Y006451D03*
X006701Y006456D03*
X006701Y006461D03*
X006701Y006316D03*
X006701Y006311D03*
X006701Y006306D03*
X006701Y006301D03*
X006701Y006296D03*
X006701Y006171D03*
X006701Y006166D03*
X006701Y006161D03*
X006701Y006156D03*
X006701Y006101D03*
X006701Y006096D03*
X006701Y006091D03*
X006701Y006086D03*
X006701Y006081D03*
X006701Y006026D03*
X006701Y006021D03*
X006701Y006016D03*
X006701Y006011D03*
X006411Y006086D03*
X006411Y006096D03*
X006411Y006156D03*
X006231Y006156D03*
X006231Y006161D03*
X006231Y006166D03*
X006231Y006171D03*
X006231Y006226D03*
X006231Y006231D03*
X006231Y006236D03*
X006231Y006241D03*
X006231Y006296D03*
X006231Y006301D03*
X006231Y006306D03*
X006231Y006311D03*
X006231Y006316D03*
X006231Y006371D03*
X006231Y006376D03*
X006231Y006381D03*
X006231Y006386D03*
X006556Y006316D03*
X006556Y006311D03*
X006556Y006306D03*
X006556Y006301D03*
X006891Y006171D03*
X006891Y006156D03*
X006231Y006101D03*
X006231Y006096D03*
X006231Y006091D03*
X006231Y006086D03*
X006231Y006081D03*
X005771Y006081D03*
X005771Y006096D03*
X005771Y006101D03*
X005771Y006151D03*
X005771Y006156D03*
X005771Y006171D03*
X005771Y006226D03*
X005771Y006241D03*
X005771Y006246D03*
X005771Y006296D03*
X005771Y006301D03*
X005771Y006316D03*
X005771Y006371D03*
X005771Y006376D03*
X005771Y006381D03*
X005771Y006386D03*
X005771Y006441D03*
X005771Y006446D03*
X005771Y006451D03*
X005771Y006456D03*
X005771Y006461D03*
X005626Y006171D03*
X005626Y006166D03*
X005626Y006161D03*
X005626Y006156D03*
X005626Y006151D03*
X005626Y006101D03*
X005626Y006096D03*
X005626Y006091D03*
X005626Y006086D03*
X005626Y006081D03*
X004856Y006086D03*
X004856Y006091D03*
X004856Y006096D03*
X004856Y006101D03*
X004856Y006156D03*
X004856Y006161D03*
X004856Y006166D03*
X004856Y006171D03*
X004856Y006226D03*
X004856Y006231D03*
X004856Y006236D03*
X004856Y006241D03*
X004856Y006301D03*
X004856Y006306D03*
X004856Y006311D03*
X004856Y006316D03*
X004856Y006371D03*
X004856Y006376D03*
X004856Y006381D03*
X004856Y006386D03*
X004176Y006386D03*
X004176Y006381D03*
X004176Y006376D03*
X004176Y006371D03*
X004176Y006316D03*
X004176Y006311D03*
X004176Y006306D03*
X004176Y006301D03*
X004176Y006296D03*
X004176Y006171D03*
X004176Y006166D03*
X004176Y006161D03*
X004176Y006156D03*
X004176Y006101D03*
X004176Y006096D03*
X004176Y006091D03*
X004176Y006086D03*
X004176Y006081D03*
X004176Y006026D03*
X004176Y006021D03*
X004176Y006016D03*
X004176Y006011D03*
X003886Y006086D03*
X003886Y006096D03*
X003886Y006156D03*
X003886Y006166D03*
X004031Y006301D03*
X004031Y006306D03*
X004031Y006311D03*
X004031Y006316D03*
X004176Y006441D03*
X004176Y006446D03*
X004176Y006451D03*
X004176Y006456D03*
X004176Y006461D03*
X003791Y006636D03*
X004651Y006091D03*
X007901Y006156D03*
X007901Y006161D03*
X007901Y006166D03*
D173*
X007864Y006436D03*
X007864Y006441D03*
X007864Y006461D03*
X006997Y006461D03*
X006997Y006456D03*
X006997Y006441D03*
X006997Y006031D03*
X006997Y006011D03*
X004472Y006011D03*
X004472Y006031D03*
X004472Y006226D03*
X004472Y006246D03*
D174*
X004856Y006031D03*
X004856Y006026D03*
X004856Y006021D03*
X004856Y006016D03*
X004856Y006011D03*
X004856Y006441D03*
X004856Y006461D03*
D175*
X004854Y006456D03*
X004854Y006451D03*
X004854Y006446D03*
X006087Y006456D03*
X006087Y006451D03*
X006087Y006446D03*
X006087Y006026D03*
X006087Y006021D03*
X006087Y006016D03*
X006087Y006011D03*
X007434Y006266D03*
X007504Y006051D03*
D176*
X007504Y006026D03*
X007504Y006021D03*
X007504Y006016D03*
X007504Y006011D03*
X007432Y006226D03*
X007504Y006441D03*
X007504Y006446D03*
X007504Y006451D03*
X007504Y006456D03*
X007864Y006481D03*
X006994Y006051D03*
X004469Y006051D03*
X004454Y006456D03*
D177*
X004452Y006418D03*
X004854Y006443D03*
X004854Y006448D03*
X004854Y006453D03*
X006087Y006453D03*
X006087Y006448D03*
X006087Y006443D03*
X006087Y006028D03*
X006087Y006023D03*
X006087Y006018D03*
X006087Y006013D03*
D178*
X005769Y006088D03*
X005769Y006093D03*
X005769Y006158D03*
X005769Y006163D03*
X005769Y006228D03*
X005769Y006233D03*
X005769Y006238D03*
X005769Y006303D03*
X005769Y006308D03*
X005482Y006308D03*
X005482Y006303D03*
X005482Y006313D03*
X005482Y006373D03*
X005482Y006378D03*
X005482Y006383D03*
X005482Y006443D03*
X005482Y006448D03*
X005482Y006453D03*
X005482Y006458D03*
X005482Y006238D03*
X005482Y006233D03*
X005482Y006228D03*
X005482Y006168D03*
X005482Y006163D03*
X005482Y006158D03*
X005482Y006093D03*
X005482Y006088D03*
X005482Y006083D03*
X006412Y006088D03*
X006412Y006093D03*
X006412Y006158D03*
X006412Y006163D03*
X006412Y006228D03*
X006412Y006233D03*
X006412Y006238D03*
X006412Y006303D03*
X006412Y006308D03*
X006412Y006313D03*
X006412Y006448D03*
X006412Y006453D03*
X006412Y006458D03*
X006889Y006383D03*
X006889Y006378D03*
X006889Y006373D03*
X006889Y006308D03*
X006889Y006303D03*
X006889Y006238D03*
X006889Y006233D03*
X006889Y006228D03*
X006889Y006168D03*
X006889Y006163D03*
X006889Y006158D03*
X006889Y006093D03*
X006889Y006088D03*
X006412Y006018D03*
X007757Y006023D03*
X007757Y006018D03*
X007757Y006013D03*
X007757Y006083D03*
X007757Y006088D03*
X007757Y006093D03*
X007757Y006158D03*
X007757Y006163D03*
X007757Y006228D03*
X007757Y006233D03*
X007757Y006238D03*
X007757Y006298D03*
X007757Y006303D03*
X007757Y006308D03*
X007757Y006373D03*
X007757Y006378D03*
X007757Y006383D03*
X007972Y006088D03*
X004364Y006093D03*
X004364Y006163D03*
X004364Y006303D03*
X004364Y006308D03*
X004364Y006378D03*
X003887Y006313D03*
X003887Y006308D03*
X003887Y006303D03*
X003887Y006238D03*
X003887Y006233D03*
X003887Y006228D03*
X003887Y006163D03*
X003887Y006093D03*
X003887Y006088D03*
X003887Y006018D03*
X003887Y006448D03*
X003887Y006453D03*
X003887Y006458D03*
D179*
X003887Y006456D03*
X003887Y006451D03*
X003887Y006446D03*
X003887Y006311D03*
X003887Y006306D03*
X003887Y006301D03*
X003887Y006241D03*
X003887Y006236D03*
X003887Y006231D03*
X003887Y006161D03*
X003887Y006091D03*
X003887Y006021D03*
X003887Y006016D03*
X004364Y006091D03*
X004364Y006161D03*
X004364Y006166D03*
X004364Y006306D03*
X004364Y006376D03*
X004364Y006381D03*
X005482Y006386D03*
X005482Y006381D03*
X005482Y006376D03*
X005482Y006371D03*
X005482Y006311D03*
X005482Y006306D03*
X005482Y006301D03*
X005482Y006241D03*
X005482Y006236D03*
X005482Y006231D03*
X005482Y006166D03*
X005482Y006161D03*
X005482Y006156D03*
X005482Y006096D03*
X005482Y006091D03*
X005482Y006086D03*
X005769Y006086D03*
X005769Y006091D03*
X005769Y006161D03*
X005769Y006166D03*
X005769Y006231D03*
X005769Y006236D03*
X005769Y006306D03*
X005769Y006311D03*
X005482Y006446D03*
X005482Y006451D03*
X005482Y006456D03*
X006412Y006456D03*
X006412Y006451D03*
X006412Y006446D03*
X006412Y006311D03*
X006412Y006306D03*
X006412Y006301D03*
X006412Y006241D03*
X006412Y006236D03*
X006412Y006231D03*
X006412Y006166D03*
X006412Y006161D03*
X006412Y006091D03*
X006412Y006021D03*
X006412Y006016D03*
X006889Y006086D03*
X006889Y006091D03*
X006889Y006096D03*
X006889Y006161D03*
X006889Y006166D03*
X006889Y006231D03*
X006889Y006236D03*
X006889Y006241D03*
X006889Y006301D03*
X006889Y006306D03*
X006889Y006311D03*
X006889Y006376D03*
X006889Y006381D03*
X007757Y006381D03*
X007757Y006376D03*
X007757Y006371D03*
X007757Y006311D03*
X007757Y006306D03*
X007757Y006301D03*
X007757Y006236D03*
X007757Y006231D03*
X007757Y006166D03*
X007757Y006161D03*
X007757Y006156D03*
X007757Y006096D03*
X007757Y006091D03*
X007757Y006086D03*
X007757Y006021D03*
X007757Y006016D03*
X007972Y006086D03*
X007972Y006091D03*
X008137Y006641D03*
D180*
X007866Y006456D03*
X006996Y006451D03*
X006996Y006446D03*
X006996Y006026D03*
X006996Y006021D03*
X006996Y006016D03*
X004471Y006026D03*
X004471Y006021D03*
X004471Y006016D03*
X004471Y006231D03*
X004471Y006236D03*
X004471Y006241D03*
D181*
X004471Y006238D03*
X004471Y006233D03*
X004471Y006228D03*
X004471Y006023D03*
X004471Y006018D03*
X006996Y006023D03*
X006996Y006018D03*
X006996Y006443D03*
X006996Y006448D03*
X006996Y006453D03*
D182*
X006088Y006461D03*
X006088Y006441D03*
X006088Y006436D03*
X006088Y006031D03*
D183*
X007506Y006031D03*
X007506Y006461D03*
X004471Y006266D03*
D184*
X004471Y006248D03*
X004471Y006033D03*
X006996Y006033D03*
X006996Y006433D03*
X006996Y006463D03*
D185*
X006889Y006358D03*
X006889Y006328D03*
X006889Y006213D03*
X006889Y006113D03*
X006699Y006038D03*
X006412Y006068D03*
X006412Y006183D03*
X006412Y006258D03*
X006412Y006283D03*
X006412Y006328D03*
X006412Y006428D03*
X006412Y006473D03*
X006229Y006398D03*
X005944Y006398D03*
X005944Y006328D03*
X005944Y006213D03*
X005944Y006113D03*
X006229Y006113D03*
X005769Y006283D03*
X005772Y006428D03*
X005482Y006428D03*
X005482Y006473D03*
X004854Y006358D03*
X004854Y006213D03*
X004649Y006183D03*
X004649Y006143D03*
X004649Y006113D03*
X004364Y006113D03*
X004364Y006183D03*
X004364Y006328D03*
X004174Y006328D03*
X004174Y006358D03*
X003887Y006328D03*
X003887Y006283D03*
X003887Y006258D03*
X003887Y006183D03*
X003887Y006068D03*
X004174Y006038D03*
X004614Y006293D03*
X004614Y006363D03*
X004174Y006473D03*
X003887Y006473D03*
X003887Y006428D03*
X005189Y006138D03*
X005482Y006113D03*
X005624Y006068D03*
X006699Y006358D03*
X006699Y006473D03*
X007174Y006398D03*
X007174Y006283D03*
X007174Y006213D03*
X007174Y006068D03*
X007344Y006113D03*
X007344Y006328D03*
X007757Y006328D03*
X007757Y006283D03*
X007757Y006183D03*
X007757Y006068D03*
X007972Y006068D03*
X008044Y006398D03*
X007757Y006398D03*
X008147Y006633D03*
D186*
X006996Y006428D03*
X006996Y006038D03*
X004471Y006038D03*
X004471Y006253D03*
D187*
X006088Y006038D03*
D188*
X007432Y006213D03*
X007504Y006038D03*
X007504Y006468D03*
X004454Y006468D03*
D189*
X004471Y006041D03*
X006996Y006431D03*
D190*
X006088Y006471D03*
X006088Y006041D03*
D191*
X006996Y006041D03*
X006996Y006426D03*
X006996Y006471D03*
D192*
X007861Y006416D03*
X007506Y006041D03*
D193*
X007343Y006188D03*
X007343Y006403D03*
X006698Y006043D03*
X006413Y006208D03*
X006413Y006423D03*
X005943Y006403D03*
X005483Y006333D03*
X005483Y006208D03*
X005483Y006063D03*
X005188Y006063D03*
X005188Y006208D03*
X005188Y006403D03*
X004853Y006353D03*
X004363Y006188D03*
X004173Y006043D03*
X003888Y006423D03*
X008043Y006043D03*
D194*
X006996Y006043D03*
X004471Y006043D03*
D195*
X006088Y006043D03*
X006088Y006473D03*
D196*
X007506Y006043D03*
D197*
X004471Y006046D03*
D198*
X006088Y006046D03*
X006088Y006476D03*
D199*
X006994Y006046D03*
X007864Y006476D03*
X004472Y006261D03*
D200*
X004471Y006048D03*
X006996Y006048D03*
D201*
X006698Y006193D03*
X006698Y006273D03*
X006888Y006348D03*
X006413Y006338D03*
X005943Y006408D03*
X005483Y006203D03*
X005483Y006193D03*
X005188Y006203D03*
X005188Y006048D03*
X004173Y006193D03*
X004173Y006273D03*
X003888Y006338D03*
X008043Y006048D03*
D202*
X006088Y006048D03*
D203*
X007506Y006048D03*
X007871Y006483D03*
D204*
X007919Y006236D03*
X007919Y006231D03*
X004857Y006051D03*
D205*
X004648Y006196D03*
X004363Y006126D03*
X003888Y006271D03*
X005188Y006271D03*
X005188Y006341D03*
X005188Y006196D03*
X005188Y006126D03*
X005553Y006051D03*
X005943Y006271D03*
X006413Y006271D03*
X006888Y006271D03*
X006888Y006201D03*
X007343Y006126D03*
X007343Y006341D03*
X007758Y006341D03*
X008043Y006341D03*
X005483Y006416D03*
D206*
X005939Y006411D03*
X005697Y006051D03*
D207*
X006088Y006051D03*
X007918Y006221D03*
X007918Y006226D03*
X007918Y006241D03*
D208*
X008042Y006051D03*
X007344Y006411D03*
X005769Y006056D03*
X004614Y006281D03*
D209*
X004613Y006348D03*
X004363Y006343D03*
X003888Y006053D03*
X005188Y006053D03*
X005188Y006123D03*
X005188Y006198D03*
X005188Y006268D03*
X005188Y006343D03*
X005483Y006343D03*
X006413Y006053D03*
X006888Y006128D03*
X006888Y006198D03*
X006888Y006343D03*
X007343Y006343D03*
X007343Y006128D03*
X007758Y006268D03*
D210*
X007901Y006128D03*
X007756Y006053D03*
X007176Y006058D03*
X007176Y006198D03*
X007176Y006268D03*
X006701Y006343D03*
X006701Y006413D03*
X006231Y006343D03*
X006231Y006198D03*
X005771Y006198D03*
X005771Y006343D03*
X005771Y006413D03*
X005626Y006128D03*
X005626Y006123D03*
X004856Y006128D03*
X004856Y006198D03*
X004856Y006343D03*
X004651Y006128D03*
X004176Y006053D03*
X004176Y006343D03*
X004176Y006413D03*
X006701Y006053D03*
D211*
X007504Y006428D03*
X004467Y006268D03*
X004467Y006053D03*
D212*
X004854Y006053D03*
D213*
X005556Y006053D03*
X005936Y006413D03*
D214*
X006088Y006053D03*
X007918Y006258D03*
D215*
X007444Y006053D03*
X008132Y006643D03*
D216*
X007758Y006336D03*
X007343Y006336D03*
X006888Y006276D03*
X006558Y006276D03*
X006413Y006276D03*
X005943Y006276D03*
X005188Y006336D03*
X005188Y006411D03*
X005188Y006131D03*
X005188Y006121D03*
X004368Y006056D03*
X004033Y006276D03*
X003888Y006276D03*
X006893Y006056D03*
D217*
X004651Y006058D03*
X004616Y006418D03*
D218*
X005944Y006058D03*
X007972Y006123D03*
D219*
X006232Y006058D03*
D220*
X007346Y006058D03*
D221*
X007346Y006118D03*
X007176Y006063D03*
X006891Y006333D03*
X006701Y006278D03*
X006701Y006423D03*
X006231Y006278D03*
X006231Y006118D03*
X006231Y006063D03*
X005771Y006278D03*
X005771Y006423D03*
X005771Y006478D03*
X005626Y006133D03*
X004651Y006063D03*
X004176Y006278D03*
X004176Y006423D03*
X007756Y006278D03*
X007901Y006188D03*
X007901Y006133D03*
X008156Y006618D03*
D222*
X007176Y006396D03*
X007176Y006286D03*
X007176Y006181D03*
X007176Y006141D03*
X007176Y006111D03*
X007176Y006071D03*
X006891Y006256D03*
X006891Y006326D03*
X006701Y006286D03*
X006701Y006431D03*
X006701Y006471D03*
X006411Y006471D03*
X006556Y006326D03*
X006701Y006141D03*
X006701Y006111D03*
X006701Y006071D03*
X006231Y006071D03*
X006231Y006111D03*
X006231Y006286D03*
X006231Y006326D03*
X006231Y006356D03*
X005771Y006326D03*
X005771Y006286D03*
X005771Y006431D03*
X005771Y006471D03*
X005771Y006141D03*
X005771Y006111D03*
X005626Y006111D03*
X005626Y006141D03*
X004856Y006111D03*
X004856Y006216D03*
X004856Y006256D03*
X004856Y006286D03*
X004856Y006326D03*
X004856Y006396D03*
X004176Y006431D03*
X004176Y006471D03*
X003886Y006471D03*
X004031Y006326D03*
X004176Y006286D03*
X004176Y006141D03*
X004176Y006111D03*
X004176Y006071D03*
X004651Y006111D03*
X007756Y006141D03*
X007901Y006141D03*
X007901Y006181D03*
D223*
X008043Y006286D03*
X008043Y006356D03*
X007758Y006326D03*
X007343Y006326D03*
X007343Y006286D03*
X008143Y006636D03*
X006413Y006286D03*
X006413Y006256D03*
X005943Y006256D03*
X005943Y006326D03*
X005943Y006111D03*
X005943Y006071D03*
X005483Y006256D03*
X005483Y006286D03*
X005188Y006286D03*
X005188Y006326D03*
X005188Y006181D03*
X005188Y006141D03*
X005188Y006111D03*
X005188Y006071D03*
X004613Y006366D03*
X004363Y006071D03*
X003888Y006256D03*
X003888Y006286D03*
X003783Y006626D03*
D224*
X004176Y006418D03*
X004366Y006338D03*
X004616Y006353D03*
X004856Y006338D03*
X004856Y006123D03*
X004176Y006128D03*
X005771Y006273D03*
X005771Y006418D03*
X005771Y006483D03*
X006231Y006273D03*
X006231Y006123D03*
X006701Y006128D03*
X006891Y006338D03*
X006701Y006418D03*
X007176Y006408D03*
X007176Y006343D03*
X007756Y006273D03*
D225*
X007756Y006271D03*
X007176Y006271D03*
X007176Y006341D03*
X007176Y006196D03*
X006701Y006126D03*
X006701Y006341D03*
X006701Y006416D03*
X006231Y006341D03*
X006231Y006271D03*
X006231Y006126D03*
X005771Y006126D03*
X005626Y006126D03*
X005481Y006126D03*
X005481Y006271D03*
X005771Y006271D03*
X005771Y006341D03*
X005771Y006416D03*
X004856Y006341D03*
X004856Y006271D03*
X004366Y006341D03*
X004176Y006341D03*
X004176Y006416D03*
X004176Y006126D03*
X004651Y006126D03*
X004856Y006126D03*
D226*
X005626Y006196D03*
X006231Y006411D03*
D227*
X007916Y006198D03*
D228*
X006671Y006201D03*
X004146Y006201D03*
D229*
X004471Y006201D03*
X007506Y006466D03*
D230*
X007429Y006201D03*
X006087Y006426D03*
D231*
X006664Y006246D03*
X006664Y006221D03*
X007919Y006201D03*
X004139Y006221D03*
X004139Y006246D03*
D232*
X004473Y006203D03*
X004453Y006443D03*
X004453Y006448D03*
X004453Y006453D03*
X007433Y006243D03*
X007433Y006238D03*
X007433Y006233D03*
X007433Y006228D03*
D233*
X007919Y006203D03*
D234*
X004473Y006206D03*
D235*
X004139Y006208D03*
X003922Y006403D03*
X006447Y006403D03*
X006664Y006208D03*
D236*
X004473Y006208D03*
D237*
X004452Y006423D03*
X007432Y006208D03*
X007504Y006473D03*
D238*
X007919Y006208D03*
D239*
X006664Y006211D03*
X006447Y006356D03*
X006447Y006401D03*
X004139Y006211D03*
X003922Y006356D03*
X003922Y006401D03*
D240*
X004473Y006211D03*
X007863Y006426D03*
D241*
X007504Y006471D03*
X007432Y006211D03*
X004452Y006426D03*
D242*
X007919Y006211D03*
D243*
X006664Y006213D03*
X006664Y006253D03*
X006447Y006398D03*
X004139Y006253D03*
X004139Y006213D03*
X003922Y006358D03*
X003922Y006398D03*
D244*
X007919Y006213D03*
D245*
X006664Y006216D03*
X004139Y006216D03*
D246*
X004453Y006431D03*
X007433Y006216D03*
D247*
X007918Y006216D03*
D248*
X006664Y006218D03*
X006664Y006248D03*
X006447Y006363D03*
X006447Y006393D03*
X004139Y006248D03*
X004139Y006218D03*
X003922Y006363D03*
X003922Y006393D03*
D249*
X004453Y006436D03*
X004453Y006441D03*
X004453Y006461D03*
X007433Y006251D03*
X007433Y006246D03*
X007433Y006221D03*
D250*
X007918Y006263D03*
X006663Y006223D03*
X006448Y006368D03*
X006448Y006388D03*
X004138Y006223D03*
X003923Y006368D03*
X003923Y006388D03*
D251*
X004453Y006438D03*
X004453Y006463D03*
X007433Y006248D03*
X007433Y006223D03*
X007863Y006418D03*
D252*
X007918Y006243D03*
X007918Y006223D03*
X006088Y006418D03*
D253*
X006664Y006241D03*
X006664Y006236D03*
X006664Y006231D03*
X006664Y006226D03*
X004139Y006236D03*
X004139Y006241D03*
X004139Y006231D03*
X004139Y006226D03*
X003922Y006386D03*
D254*
X004139Y006243D03*
X004139Y006238D03*
X004139Y006233D03*
X004139Y006228D03*
X006664Y006238D03*
X006664Y006233D03*
X006664Y006228D03*
X006664Y006243D03*
D255*
X007919Y006238D03*
X007919Y006233D03*
X007919Y006228D03*
D256*
X007433Y006231D03*
X007433Y006236D03*
X007433Y006241D03*
X004453Y006446D03*
X004453Y006451D03*
D257*
X004854Y006481D03*
X006087Y006481D03*
X007919Y006246D03*
D258*
X007918Y006248D03*
D259*
X006666Y006251D03*
X004141Y006251D03*
D260*
X007919Y006251D03*
D261*
X007503Y006433D03*
X007433Y006253D03*
D262*
X007918Y006253D03*
D263*
X006666Y006256D03*
X004141Y006256D03*
D264*
X007918Y006256D03*
D265*
X006666Y006258D03*
X004141Y006258D03*
D266*
X004472Y006258D03*
X006997Y006473D03*
X007864Y006473D03*
D267*
X006666Y006261D03*
X004141Y006261D03*
D268*
X007434Y006261D03*
X007504Y006426D03*
D269*
X007918Y006261D03*
D270*
X006664Y006263D03*
X004139Y006263D03*
D271*
X004472Y006263D03*
X006997Y006478D03*
D272*
X007434Y006263D03*
X007504Y006423D03*
D273*
X007917Y006266D03*
D274*
X006666Y006268D03*
X004141Y006268D03*
D275*
X004856Y006428D03*
X007431Y006268D03*
D276*
X006557Y006273D03*
X004032Y006273D03*
D277*
X003919Y006343D03*
X003802Y006643D03*
X006444Y006343D03*
D278*
X006448Y006346D03*
X003923Y006346D03*
D279*
X003923Y006348D03*
X006448Y006348D03*
D280*
X006448Y006351D03*
X003923Y006351D03*
D281*
X003923Y006353D03*
X006448Y006353D03*
D282*
X006448Y006358D03*
D283*
X006448Y006361D03*
X006448Y006396D03*
X003923Y006396D03*
X003923Y006361D03*
D284*
X003923Y006366D03*
X003923Y006371D03*
X003923Y006391D03*
X006448Y006391D03*
X006448Y006386D03*
X006448Y006371D03*
X006448Y006366D03*
D285*
X006448Y006373D03*
X006448Y006378D03*
X006448Y006383D03*
X003923Y006383D03*
X003923Y006378D03*
X003923Y006373D03*
D286*
X003923Y006376D03*
X003923Y006381D03*
X006448Y006381D03*
X006448Y006376D03*
D287*
X006447Y006406D03*
X003922Y006406D03*
D288*
X003922Y006408D03*
X006447Y006408D03*
D289*
X006444Y006411D03*
X003919Y006411D03*
D290*
X004853Y006416D03*
D291*
X005187Y006416D03*
D292*
X006091Y006416D03*
D293*
X006993Y006416D03*
X004453Y006471D03*
D294*
X004856Y006476D03*
X007506Y006416D03*
D295*
X005188Y006418D03*
D296*
X004453Y006421D03*
D297*
X005188Y006421D03*
D298*
X006088Y006421D03*
D299*
X006996Y006421D03*
D300*
X007863Y006421D03*
D301*
X004856Y006423D03*
D302*
X005188Y006423D03*
D303*
X006088Y006423D03*
D304*
X004856Y006426D03*
D305*
X005188Y006426D03*
D306*
X005188Y006428D03*
D307*
X006088Y006428D03*
D308*
X005188Y006431D03*
X005188Y006466D03*
D309*
X004453Y006481D03*
X006088Y006466D03*
X006088Y006431D03*
D310*
X007863Y006431D03*
D311*
X005188Y006433D03*
D312*
X007863Y006433D03*
D313*
X005187Y006436D03*
D314*
X005188Y006438D03*
X005188Y006458D03*
D315*
X006088Y006458D03*
X006088Y006438D03*
D316*
X005188Y006441D03*
X005188Y006461D03*
D317*
X005187Y006453D03*
X005187Y006448D03*
X005187Y006443D03*
D318*
X007863Y006443D03*
D319*
X005187Y006456D03*
X005187Y006451D03*
X005187Y006446D03*
D320*
X007864Y006451D03*
X007864Y006446D03*
D321*
X007864Y006448D03*
X007864Y006453D03*
D322*
X005187Y006463D03*
D323*
X005187Y006468D03*
D324*
X005188Y006471D03*
D325*
X004453Y006473D03*
D326*
X004856Y006473D03*
D327*
X005188Y006473D03*
D328*
X005187Y006476D03*
D329*
X006996Y006476D03*
D330*
X007504Y006476D03*
D331*
X007504Y006478D03*
X004454Y006478D03*
D332*
X004452Y006483D03*
X004854Y006478D03*
X006087Y006478D03*
D333*
X005188Y006478D03*
D334*
X007863Y006478D03*
D335*
X005188Y006481D03*
D336*
X004853Y006483D03*
D337*
X005188Y006483D03*
D338*
X006086Y006483D03*
D339*
X006996Y006483D03*
D340*
X007504Y006483D03*
D341*
X003793Y006638D03*
D342*
X003797Y006641D03*
D343*
X005964Y006646D03*
D344*
X005964Y006648D03*
D345*
X005964Y006651D03*
D346*
X005964Y006653D03*
D347*
X005964Y006656D03*
D348*
X005964Y006658D03*
D349*
X005964Y006661D03*
D350*
X005964Y006663D03*
D351*
X005964Y006666D03*
D352*
X005964Y006668D03*
D353*
X005964Y006671D03*
D354*
X005964Y006673D03*
D355*
X005964Y006676D03*
D356*
X005964Y006678D03*
D357*
X005964Y006681D03*
D358*
X005964Y006683D03*
D359*
X005964Y006686D03*
D360*
X005964Y006688D03*
M02*
