G75*
G70*
%OFA0B0*%
%FSLAX24Y24*%
%IPPOS*%
%LPD*%
%AMOC8*
5,1,8,0,0,1.08239X$1,22.5*
%
%ADD10C,0.0080*%
%ADD11C,0.0040*%
%ADD12C,0.0010*%
D10*
X005213Y003493D02*
X005493Y003493D01*
X005353Y003493D02*
X005353Y003913D01*
X005213Y003773D01*
X005674Y003493D02*
X005954Y003913D01*
X006134Y003843D02*
X006204Y003913D01*
X006344Y003913D01*
X006414Y003843D01*
X006414Y003773D01*
X006134Y003493D01*
X006414Y003493D01*
X006594Y003493D02*
X006874Y003493D01*
X006734Y003493D02*
X006734Y003913D01*
X006594Y003773D01*
X007055Y003493D02*
X007335Y003913D01*
X007515Y003773D02*
X007655Y003913D01*
X007655Y003493D01*
X007515Y003493D02*
X007795Y003493D01*
X007975Y003563D02*
X008256Y003843D01*
X008256Y003563D01*
X008185Y003493D01*
X008045Y003493D01*
X007975Y003563D01*
X007975Y003843D01*
X008045Y003913D01*
X008185Y003913D01*
X008256Y003843D01*
X012221Y003790D02*
X012362Y003790D01*
X012291Y003860D02*
X012291Y003580D01*
X012362Y003510D01*
X012528Y003510D02*
X012528Y003790D01*
X012528Y003650D02*
X012668Y003790D01*
X012738Y003790D01*
X012912Y003790D02*
X012982Y003790D01*
X012982Y003510D01*
X012912Y003510D02*
X013052Y003510D01*
X013219Y003580D02*
X013289Y003510D01*
X013499Y003510D01*
X013679Y003580D02*
X013749Y003510D01*
X013889Y003510D01*
X013959Y003580D01*
X013959Y003720D01*
X013889Y003790D01*
X013749Y003790D01*
X013679Y003720D01*
X013679Y003580D01*
X013499Y003790D02*
X013289Y003790D01*
X013219Y003720D01*
X013219Y003580D01*
X012982Y003930D02*
X012982Y004000D01*
X014140Y003930D02*
X014210Y003930D01*
X014210Y003510D01*
X014140Y003510D02*
X014280Y003510D01*
X014446Y003580D02*
X014516Y003510D01*
X014657Y003510D01*
X014727Y003580D01*
X014727Y003720D01*
X014657Y003790D01*
X014516Y003790D01*
X014446Y003720D01*
X014446Y003580D01*
X014907Y003510D02*
X014907Y003790D01*
X014907Y003650D02*
X015047Y003790D01*
X015117Y003790D01*
X015290Y003440D02*
X015571Y003440D01*
X015751Y003510D02*
X015961Y003510D01*
X016031Y003580D01*
X016031Y003720D01*
X015961Y003790D01*
X015751Y003790D01*
X015751Y003930D02*
X015751Y003510D01*
X016211Y003580D02*
X016281Y003510D01*
X016421Y003510D01*
X016491Y003580D01*
X016491Y003720D01*
X016421Y003790D01*
X016281Y003790D01*
X016211Y003720D01*
X016211Y003580D01*
X016671Y003580D02*
X016741Y003650D01*
X016952Y003650D01*
X016952Y003720D02*
X016952Y003510D01*
X016741Y003510D01*
X016671Y003580D01*
X016741Y003790D02*
X016882Y003790D01*
X016952Y003720D01*
X017132Y003650D02*
X017272Y003790D01*
X017342Y003790D01*
X017515Y003720D02*
X017585Y003790D01*
X017796Y003790D01*
X017796Y003930D02*
X017796Y003510D01*
X017585Y003510D01*
X017515Y003580D01*
X017515Y003720D01*
X017132Y003790D02*
X017132Y003510D01*
X017976Y003440D02*
X018256Y003440D01*
X018436Y003510D02*
X018436Y003790D01*
X018436Y003650D02*
X018576Y003790D01*
X018646Y003790D01*
X018820Y003720D02*
X018890Y003790D01*
X019030Y003790D01*
X019100Y003720D01*
X019100Y003650D01*
X018820Y003650D01*
X018820Y003580D02*
X018820Y003720D01*
X018820Y003580D02*
X018890Y003510D01*
X019030Y003510D01*
X019280Y003790D02*
X019420Y003510D01*
X019560Y003790D01*
X019740Y003720D02*
X020021Y003720D01*
X019951Y003510D02*
X019951Y003930D01*
X019740Y003720D01*
X022949Y005353D02*
X023370Y005353D01*
X023370Y005213D02*
X023370Y005493D01*
X023370Y005674D02*
X022949Y005954D01*
X023019Y006134D02*
X022949Y006204D01*
X022949Y006344D01*
X023019Y006414D01*
X023090Y006414D01*
X023370Y006134D01*
X023370Y006414D01*
X023370Y006594D02*
X023370Y006874D01*
X023370Y006734D02*
X022949Y006734D01*
X023090Y006594D01*
X023370Y007055D02*
X022949Y007335D01*
X023090Y007515D02*
X022949Y007655D01*
X023370Y007655D01*
X023370Y007515D02*
X023370Y007795D01*
X023300Y007975D02*
X023019Y008256D01*
X023300Y008256D01*
X023370Y008185D01*
X023370Y008045D01*
X023300Y007975D01*
X023019Y007975D01*
X022949Y008045D01*
X022949Y008185D01*
X023019Y008256D01*
X020021Y008220D02*
X019740Y008220D01*
X019951Y008430D01*
X019951Y008010D01*
X019560Y008290D02*
X019420Y008010D01*
X019280Y008290D01*
X019100Y008220D02*
X019100Y008150D01*
X018820Y008150D01*
X018820Y008080D02*
X018820Y008220D01*
X018890Y008290D01*
X019030Y008290D01*
X019100Y008220D01*
X019030Y008010D02*
X018890Y008010D01*
X018820Y008080D01*
X018646Y008290D02*
X018576Y008290D01*
X018436Y008150D01*
X018436Y008010D02*
X018436Y008290D01*
X018256Y007940D02*
X017976Y007940D01*
X017796Y008010D02*
X017585Y008010D01*
X017515Y008080D01*
X017515Y008220D01*
X017585Y008290D01*
X017796Y008290D01*
X017796Y008430D02*
X017796Y008010D01*
X017342Y008290D02*
X017272Y008290D01*
X017132Y008150D01*
X017132Y008010D02*
X017132Y008290D01*
X016952Y008220D02*
X016952Y008010D01*
X016741Y008010D01*
X016671Y008080D01*
X016741Y008150D01*
X016952Y008150D01*
X016952Y008220D02*
X016882Y008290D01*
X016741Y008290D01*
X016491Y008220D02*
X016491Y008080D01*
X016421Y008010D01*
X016281Y008010D01*
X016211Y008080D01*
X016211Y008220D01*
X016281Y008290D01*
X016421Y008290D01*
X016491Y008220D01*
X016031Y008220D02*
X016031Y008080D01*
X015961Y008010D01*
X015751Y008010D01*
X015751Y008430D01*
X015751Y008290D02*
X015961Y008290D01*
X016031Y008220D01*
X015571Y007940D02*
X015290Y007940D01*
X014907Y008010D02*
X014907Y008290D01*
X014907Y008150D02*
X015047Y008290D01*
X015117Y008290D01*
X014727Y008220D02*
X014727Y008080D01*
X014657Y008010D01*
X014516Y008010D01*
X014446Y008080D01*
X014446Y008220D01*
X014516Y008290D01*
X014657Y008290D01*
X014727Y008220D01*
X014280Y008010D02*
X014140Y008010D01*
X014210Y008010D02*
X014210Y008430D01*
X014140Y008430D01*
X013959Y008220D02*
X013959Y008080D01*
X013889Y008010D01*
X013749Y008010D01*
X013679Y008080D01*
X013679Y008220D01*
X013749Y008290D01*
X013889Y008290D01*
X013959Y008220D01*
X013499Y008290D02*
X013289Y008290D01*
X013219Y008220D01*
X013219Y008080D01*
X013289Y008010D01*
X013499Y008010D01*
X013052Y008010D02*
X012912Y008010D01*
X012982Y008010D02*
X012982Y008290D01*
X012912Y008290D01*
X012982Y008430D02*
X012982Y008500D01*
X012738Y008290D02*
X012668Y008290D01*
X012528Y008150D01*
X012528Y008010D02*
X012528Y008290D01*
X012362Y008290D02*
X012221Y008290D01*
X012291Y008360D02*
X012291Y008080D01*
X012362Y008010D01*
X008256Y008063D02*
X008185Y007993D01*
X008045Y007993D01*
X007975Y008063D01*
X008256Y008343D01*
X008256Y008063D01*
X008256Y008343D02*
X008185Y008413D01*
X008045Y008413D01*
X007975Y008343D01*
X007975Y008063D01*
X007795Y007993D02*
X007515Y007993D01*
X007655Y007993D02*
X007655Y008413D01*
X007515Y008273D01*
X007335Y008413D02*
X007055Y007993D01*
X006874Y007993D02*
X006594Y007993D01*
X006734Y007993D02*
X006734Y008413D01*
X006594Y008273D01*
X006414Y008273D02*
X006134Y007993D01*
X006414Y007993D01*
X006414Y008273D02*
X006414Y008343D01*
X006344Y008413D01*
X006204Y008413D01*
X006134Y008343D01*
X005954Y008413D02*
X005674Y007993D01*
X005493Y007993D02*
X005213Y007993D01*
X005353Y007993D02*
X005353Y008413D01*
X005213Y008273D01*
X005213Y012493D02*
X005493Y012493D01*
X005353Y012493D02*
X005353Y012913D01*
X005213Y012773D01*
X005674Y012493D02*
X005954Y012913D01*
X006134Y012843D02*
X006204Y012913D01*
X006344Y012913D01*
X006414Y012843D01*
X006414Y012773D01*
X006134Y012493D01*
X006414Y012493D01*
X006594Y012493D02*
X006874Y012493D01*
X006734Y012493D02*
X006734Y012913D01*
X006594Y012773D01*
X007055Y012493D02*
X007335Y012913D01*
X007515Y012773D02*
X007655Y012913D01*
X007655Y012493D01*
X007515Y012493D02*
X007795Y012493D01*
X007975Y012563D02*
X008045Y012493D01*
X008185Y012493D01*
X008256Y012563D01*
X008256Y012843D01*
X007975Y012563D01*
X007975Y012843D01*
X008045Y012913D01*
X008185Y012913D01*
X008256Y012843D01*
X012221Y012790D02*
X012362Y012790D01*
X012291Y012860D02*
X012291Y012580D01*
X012362Y012510D01*
X012528Y012510D02*
X012528Y012790D01*
X012528Y012650D02*
X012668Y012790D01*
X012738Y012790D01*
X012912Y012790D02*
X012982Y012790D01*
X012982Y012510D01*
X012912Y012510D02*
X013052Y012510D01*
X013219Y012580D02*
X013289Y012510D01*
X013499Y012510D01*
X013679Y012580D02*
X013749Y012510D01*
X013889Y012510D01*
X013959Y012580D01*
X013959Y012720D01*
X013889Y012790D01*
X013749Y012790D01*
X013679Y012720D01*
X013679Y012580D01*
X013499Y012790D02*
X013289Y012790D01*
X013219Y012720D01*
X013219Y012580D01*
X012982Y012930D02*
X012982Y013000D01*
X014140Y012930D02*
X014210Y012930D01*
X014210Y012510D01*
X014140Y012510D02*
X014280Y012510D01*
X014446Y012580D02*
X014516Y012510D01*
X014657Y012510D01*
X014727Y012580D01*
X014727Y012720D01*
X014657Y012790D01*
X014516Y012790D01*
X014446Y012720D01*
X014446Y012580D01*
X014907Y012510D02*
X014907Y012790D01*
X014907Y012650D02*
X015047Y012790D01*
X015117Y012790D01*
X015290Y012440D02*
X015571Y012440D01*
X015751Y012510D02*
X015961Y012510D01*
X016031Y012580D01*
X016031Y012720D01*
X015961Y012790D01*
X015751Y012790D01*
X015751Y012930D02*
X015751Y012510D01*
X016211Y012580D02*
X016281Y012510D01*
X016421Y012510D01*
X016491Y012580D01*
X016491Y012720D01*
X016421Y012790D01*
X016281Y012790D01*
X016211Y012720D01*
X016211Y012580D01*
X016671Y012580D02*
X016741Y012510D01*
X016952Y012510D01*
X016952Y012720D01*
X016882Y012790D01*
X016741Y012790D01*
X016741Y012650D02*
X016952Y012650D01*
X017132Y012650D02*
X017272Y012790D01*
X017342Y012790D01*
X017515Y012720D02*
X017585Y012790D01*
X017796Y012790D01*
X017796Y012930D02*
X017796Y012510D01*
X017585Y012510D01*
X017515Y012580D01*
X017515Y012720D01*
X017132Y012790D02*
X017132Y012510D01*
X016741Y012650D02*
X016671Y012580D01*
X017976Y012440D02*
X018256Y012440D01*
X018436Y012510D02*
X018436Y012790D01*
X018436Y012650D02*
X018576Y012790D01*
X018646Y012790D01*
X018820Y012720D02*
X018890Y012790D01*
X019030Y012790D01*
X019100Y012720D01*
X019100Y012650D01*
X018820Y012650D01*
X018820Y012580D02*
X018820Y012720D01*
X018820Y012580D02*
X018890Y012510D01*
X019030Y012510D01*
X019280Y012790D02*
X019420Y012510D01*
X019560Y012790D01*
X019740Y012720D02*
X020021Y012720D01*
X019951Y012510D02*
X019951Y012930D01*
X019740Y012720D01*
X022862Y012982D02*
X022932Y012982D01*
X023073Y012982D02*
X023353Y012982D01*
X023353Y012912D02*
X023353Y013052D01*
X023283Y013219D02*
X023353Y013289D01*
X023353Y013499D01*
X023283Y013679D02*
X023353Y013749D01*
X023353Y013889D01*
X023283Y013959D01*
X023143Y013959D01*
X023073Y013889D01*
X023073Y013749D01*
X023143Y013679D01*
X023283Y013679D01*
X023073Y013499D02*
X023073Y013289D01*
X023143Y013219D01*
X023283Y013219D01*
X023073Y012982D02*
X023073Y012912D01*
X023073Y012738D02*
X023073Y012668D01*
X023213Y012528D01*
X023353Y012528D02*
X023073Y012528D01*
X023073Y012362D02*
X023073Y012221D01*
X023003Y012291D02*
X023283Y012291D01*
X023353Y012362D01*
X023353Y014140D02*
X023353Y014280D01*
X023353Y014210D02*
X022932Y014210D01*
X022932Y014140D01*
X023143Y014446D02*
X023283Y014446D01*
X023353Y014516D01*
X023353Y014657D01*
X023283Y014727D01*
X023143Y014727D01*
X023073Y014657D01*
X023073Y014516D01*
X023143Y014446D01*
X023213Y014907D02*
X023073Y015047D01*
X023073Y015117D01*
X023073Y014907D02*
X023353Y014907D01*
X023423Y015290D02*
X023423Y015571D01*
X023353Y015751D02*
X023353Y015961D01*
X023283Y016031D01*
X023143Y016031D01*
X023073Y015961D01*
X023073Y015751D01*
X022932Y015751D02*
X023353Y015751D01*
X023283Y016211D02*
X023353Y016281D01*
X023353Y016421D01*
X023283Y016491D01*
X023143Y016491D01*
X023073Y016421D01*
X023073Y016281D01*
X023143Y016211D01*
X023283Y016211D01*
X023283Y016671D02*
X023213Y016741D01*
X023213Y016952D01*
X023143Y016952D02*
X023353Y016952D01*
X023353Y016741D01*
X023283Y016671D01*
X023073Y016741D02*
X023073Y016882D01*
X023143Y016952D01*
X023213Y017132D02*
X023073Y017272D01*
X023073Y017342D01*
X023143Y017515D02*
X023073Y017585D01*
X023073Y017796D01*
X022932Y017796D02*
X023353Y017796D01*
X023353Y017585D01*
X023283Y017515D01*
X023143Y017515D01*
X023073Y017132D02*
X023353Y017132D01*
X023423Y017976D02*
X023423Y018256D01*
X023353Y018436D02*
X023073Y018436D01*
X023213Y018436D02*
X023073Y018576D01*
X023073Y018646D01*
X023143Y018820D02*
X023073Y018890D01*
X023073Y019030D01*
X023143Y019100D01*
X023213Y019100D01*
X023213Y018820D01*
X023283Y018820D02*
X023143Y018820D01*
X023283Y018820D02*
X023353Y018890D01*
X023353Y019030D01*
X023073Y019280D02*
X023353Y019420D01*
X023073Y019560D01*
X023143Y019740D02*
X023143Y020021D01*
X023353Y019951D02*
X022932Y019951D01*
X023143Y019740D01*
X019951Y021510D02*
X019951Y021930D01*
X019740Y021720D01*
X020021Y021720D01*
X019560Y021790D02*
X019420Y021510D01*
X019280Y021790D01*
X019100Y021720D02*
X019100Y021650D01*
X018820Y021650D01*
X018820Y021580D02*
X018820Y021720D01*
X018890Y021790D01*
X019030Y021790D01*
X019100Y021720D01*
X019030Y021510D02*
X018890Y021510D01*
X018820Y021580D01*
X018646Y021790D02*
X018576Y021790D01*
X018436Y021650D01*
X018436Y021510D02*
X018436Y021790D01*
X018256Y021440D02*
X017976Y021440D01*
X017796Y021510D02*
X017585Y021510D01*
X017515Y021580D01*
X017515Y021720D01*
X017585Y021790D01*
X017796Y021790D01*
X017796Y021930D02*
X017796Y021510D01*
X017342Y021790D02*
X017272Y021790D01*
X017132Y021650D01*
X017132Y021510D02*
X017132Y021790D01*
X016952Y021720D02*
X016952Y021510D01*
X016741Y021510D01*
X016671Y021580D01*
X016741Y021650D01*
X016952Y021650D01*
X016952Y021720D02*
X016882Y021790D01*
X016741Y021790D01*
X016491Y021720D02*
X016491Y021580D01*
X016421Y021510D01*
X016281Y021510D01*
X016211Y021580D01*
X016211Y021720D01*
X016281Y021790D01*
X016421Y021790D01*
X016491Y021720D01*
X016031Y021720D02*
X016031Y021580D01*
X015961Y021510D01*
X015751Y021510D01*
X015751Y021930D01*
X015751Y021790D02*
X015961Y021790D01*
X016031Y021720D01*
X015571Y021440D02*
X015290Y021440D01*
X014907Y021510D02*
X014907Y021790D01*
X014907Y021650D02*
X015047Y021790D01*
X015117Y021790D01*
X014727Y021720D02*
X014727Y021580D01*
X014657Y021510D01*
X014516Y021510D01*
X014446Y021580D01*
X014446Y021720D01*
X014516Y021790D01*
X014657Y021790D01*
X014727Y021720D01*
X014280Y021510D02*
X014140Y021510D01*
X014210Y021510D02*
X014210Y021930D01*
X014140Y021930D01*
X013959Y021720D02*
X013959Y021580D01*
X013889Y021510D01*
X013749Y021510D01*
X013679Y021580D01*
X013679Y021720D01*
X013749Y021790D01*
X013889Y021790D01*
X013959Y021720D01*
X013499Y021790D02*
X013289Y021790D01*
X013219Y021720D01*
X013219Y021580D01*
X013289Y021510D01*
X013499Y021510D01*
X013052Y021510D02*
X012912Y021510D01*
X012982Y021510D02*
X012982Y021790D01*
X012912Y021790D01*
X012982Y021930D02*
X012982Y022000D01*
X012738Y021790D02*
X012668Y021790D01*
X012528Y021650D01*
X012528Y021510D02*
X012528Y021790D01*
X012362Y021790D02*
X012221Y021790D01*
X012291Y021860D02*
X012291Y021580D01*
X012362Y021510D01*
X008256Y021563D02*
X008185Y021493D01*
X008045Y021493D01*
X007975Y021563D01*
X008256Y021843D01*
X008256Y021563D01*
X008256Y021843D02*
X008185Y021913D01*
X008045Y021913D01*
X007975Y021843D01*
X007975Y021563D01*
X007795Y021493D02*
X007515Y021493D01*
X007655Y021493D02*
X007655Y021913D01*
X007515Y021773D01*
X007335Y021913D02*
X007055Y021493D01*
X006874Y021493D02*
X006594Y021493D01*
X006734Y021493D02*
X006734Y021913D01*
X006594Y021773D01*
X006414Y021773D02*
X006134Y021493D01*
X006414Y021493D01*
X006414Y021773D02*
X006414Y021843D01*
X006344Y021913D01*
X006204Y021913D01*
X006134Y021843D01*
X005954Y021913D02*
X005674Y021493D01*
X005493Y021493D02*
X005213Y021493D01*
X005353Y021493D02*
X005353Y021913D01*
X005213Y021773D01*
X005213Y025993D02*
X005493Y025993D01*
X005353Y025993D02*
X005353Y026413D01*
X005213Y026273D01*
X005674Y025993D02*
X005954Y026413D01*
X006134Y026343D02*
X006204Y026413D01*
X006344Y026413D01*
X006414Y026343D01*
X006414Y026273D01*
X006134Y025993D01*
X006414Y025993D01*
X006594Y025993D02*
X006874Y025993D01*
X006734Y025993D02*
X006734Y026413D01*
X006594Y026273D01*
X007055Y025993D02*
X007335Y026413D01*
X007515Y026273D02*
X007655Y026413D01*
X007655Y025993D01*
X007515Y025993D02*
X007795Y025993D01*
X007975Y026063D02*
X008045Y025993D01*
X008185Y025993D01*
X008256Y026063D01*
X008256Y026343D01*
X007975Y026063D01*
X007975Y026343D01*
X008045Y026413D01*
X008185Y026413D01*
X008256Y026343D01*
X012221Y026290D02*
X012362Y026290D01*
X012291Y026360D02*
X012291Y026080D01*
X012362Y026010D01*
X012528Y026010D02*
X012528Y026290D01*
X012528Y026150D02*
X012668Y026290D01*
X012738Y026290D01*
X012912Y026290D02*
X012982Y026290D01*
X012982Y026010D01*
X012912Y026010D02*
X013052Y026010D01*
X013219Y026080D02*
X013289Y026010D01*
X013499Y026010D01*
X013679Y026080D02*
X013749Y026010D01*
X013889Y026010D01*
X013959Y026080D01*
X013959Y026220D01*
X013889Y026290D01*
X013749Y026290D01*
X013679Y026220D01*
X013679Y026080D01*
X013499Y026290D02*
X013289Y026290D01*
X013219Y026220D01*
X013219Y026080D01*
X012982Y026430D02*
X012982Y026500D01*
X014140Y026430D02*
X014210Y026430D01*
X014210Y026010D01*
X014140Y026010D02*
X014280Y026010D01*
X014446Y026080D02*
X014516Y026010D01*
X014657Y026010D01*
X014727Y026080D01*
X014727Y026220D01*
X014657Y026290D01*
X014516Y026290D01*
X014446Y026220D01*
X014446Y026080D01*
X014907Y026010D02*
X014907Y026290D01*
X014907Y026150D02*
X015047Y026290D01*
X015117Y026290D01*
X015290Y025940D02*
X015571Y025940D01*
X015751Y026010D02*
X015961Y026010D01*
X016031Y026080D01*
X016031Y026220D01*
X015961Y026290D01*
X015751Y026290D01*
X015751Y026430D02*
X015751Y026010D01*
X016211Y026080D02*
X016281Y026010D01*
X016421Y026010D01*
X016491Y026080D01*
X016491Y026220D01*
X016421Y026290D01*
X016281Y026290D01*
X016211Y026220D01*
X016211Y026080D01*
X016671Y026080D02*
X016741Y026010D01*
X016952Y026010D01*
X016952Y026220D01*
X016882Y026290D01*
X016741Y026290D01*
X016741Y026150D02*
X016952Y026150D01*
X017132Y026150D02*
X017272Y026290D01*
X017342Y026290D01*
X017515Y026220D02*
X017585Y026290D01*
X017796Y026290D01*
X017796Y026430D02*
X017796Y026010D01*
X017585Y026010D01*
X017515Y026080D01*
X017515Y026220D01*
X017132Y026290D02*
X017132Y026010D01*
X016741Y026150D02*
X016671Y026080D01*
X017976Y025940D02*
X018256Y025940D01*
X018436Y026010D02*
X018436Y026290D01*
X018436Y026150D02*
X018576Y026290D01*
X018646Y026290D01*
X018820Y026220D02*
X018890Y026290D01*
X019030Y026290D01*
X019100Y026220D01*
X019100Y026150D01*
X018820Y026150D01*
X018820Y026080D02*
X018820Y026220D01*
X018820Y026080D02*
X018890Y026010D01*
X019030Y026010D01*
X019280Y026290D02*
X019420Y026010D01*
X019560Y026290D01*
X019740Y026220D02*
X020021Y026220D01*
X019951Y026010D02*
X019951Y026430D01*
X019740Y026220D01*
X019951Y030510D02*
X019951Y030930D01*
X019740Y030720D01*
X020021Y030720D01*
X019560Y030790D02*
X019420Y030510D01*
X019280Y030790D01*
X019100Y030720D02*
X019030Y030790D01*
X018890Y030790D01*
X018820Y030720D01*
X018820Y030580D01*
X018890Y030510D01*
X019030Y030510D01*
X019100Y030650D02*
X018820Y030650D01*
X018646Y030790D02*
X018576Y030790D01*
X018436Y030650D01*
X018436Y030510D02*
X018436Y030790D01*
X018256Y030440D02*
X017976Y030440D01*
X017796Y030510D02*
X017585Y030510D01*
X017515Y030580D01*
X017515Y030720D01*
X017585Y030790D01*
X017796Y030790D01*
X017796Y030930D02*
X017796Y030510D01*
X017342Y030790D02*
X017272Y030790D01*
X017132Y030650D01*
X017132Y030510D02*
X017132Y030790D01*
X016952Y030720D02*
X016952Y030510D01*
X016741Y030510D01*
X016671Y030580D01*
X016741Y030650D01*
X016952Y030650D01*
X016952Y030720D02*
X016882Y030790D01*
X016741Y030790D01*
X016491Y030720D02*
X016421Y030790D01*
X016281Y030790D01*
X016211Y030720D01*
X016211Y030580D01*
X016281Y030510D01*
X016421Y030510D01*
X016491Y030580D01*
X016491Y030720D01*
X016031Y030720D02*
X015961Y030790D01*
X015751Y030790D01*
X015751Y030930D02*
X015751Y030510D01*
X015961Y030510D01*
X016031Y030580D01*
X016031Y030720D01*
X015571Y030440D02*
X015290Y030440D01*
X014907Y030510D02*
X014907Y030790D01*
X014907Y030650D02*
X015047Y030790D01*
X015117Y030790D01*
X014727Y030720D02*
X014657Y030790D01*
X014516Y030790D01*
X014446Y030720D01*
X014446Y030580D01*
X014516Y030510D01*
X014657Y030510D01*
X014727Y030580D01*
X014727Y030720D01*
X014280Y030510D02*
X014140Y030510D01*
X014210Y030510D02*
X014210Y030930D01*
X014140Y030930D01*
X013959Y030720D02*
X013889Y030790D01*
X013749Y030790D01*
X013679Y030720D01*
X013679Y030580D01*
X013749Y030510D01*
X013889Y030510D01*
X013959Y030580D01*
X013959Y030720D01*
X013499Y030790D02*
X013289Y030790D01*
X013219Y030720D01*
X013219Y030580D01*
X013289Y030510D01*
X013499Y030510D01*
X013052Y030510D02*
X012912Y030510D01*
X012982Y030510D02*
X012982Y030790D01*
X012912Y030790D01*
X012982Y030930D02*
X012982Y031000D01*
X012738Y030790D02*
X012668Y030790D01*
X012528Y030650D01*
X012528Y030510D02*
X012528Y030790D01*
X012362Y030790D02*
X012221Y030790D01*
X012291Y030860D02*
X012291Y030580D01*
X012362Y030510D01*
X008256Y030563D02*
X008185Y030493D01*
X008045Y030493D01*
X007975Y030563D01*
X008256Y030843D01*
X008256Y030563D01*
X008256Y030843D02*
X008185Y030913D01*
X008045Y030913D01*
X007975Y030843D01*
X007975Y030563D01*
X007795Y030493D02*
X007515Y030493D01*
X007655Y030493D02*
X007655Y030913D01*
X007515Y030773D01*
X007335Y030913D02*
X007055Y030493D01*
X006874Y030493D02*
X006594Y030493D01*
X006734Y030493D02*
X006734Y030913D01*
X006594Y030773D01*
X006414Y030773D02*
X006134Y030493D01*
X006414Y030493D01*
X006414Y030773D02*
X006414Y030843D01*
X006344Y030913D01*
X006204Y030913D01*
X006134Y030843D01*
X005954Y030913D02*
X005674Y030493D01*
X005493Y030493D02*
X005213Y030493D01*
X005353Y030493D02*
X005353Y030913D01*
X005213Y030773D01*
X019100Y030720D02*
X019100Y030650D01*
X027432Y019951D02*
X027643Y019740D01*
X027643Y020021D01*
X027853Y019951D02*
X027432Y019951D01*
X027573Y019560D02*
X027853Y019420D01*
X027573Y019280D01*
X027643Y019100D02*
X027713Y019100D01*
X027713Y018820D01*
X027783Y018820D02*
X027643Y018820D01*
X027573Y018890D01*
X027573Y019030D01*
X027643Y019100D01*
X027853Y019030D02*
X027853Y018890D01*
X027783Y018820D01*
X027573Y018646D02*
X027573Y018576D01*
X027713Y018436D01*
X027853Y018436D02*
X027573Y018436D01*
X027923Y018256D02*
X027923Y017976D01*
X027853Y017796D02*
X027853Y017585D01*
X027783Y017515D01*
X027643Y017515D01*
X027573Y017585D01*
X027573Y017796D01*
X027432Y017796D02*
X027853Y017796D01*
X027573Y017342D02*
X027573Y017272D01*
X027713Y017132D01*
X027853Y017132D02*
X027573Y017132D01*
X027643Y016952D02*
X027853Y016952D01*
X027853Y016741D01*
X027783Y016671D01*
X027713Y016741D01*
X027713Y016952D01*
X027643Y016952D02*
X027573Y016882D01*
X027573Y016741D01*
X027643Y016491D02*
X027573Y016421D01*
X027573Y016281D01*
X027643Y016211D01*
X027783Y016211D01*
X027853Y016281D01*
X027853Y016421D01*
X027783Y016491D01*
X027643Y016491D01*
X027643Y016031D02*
X027573Y015961D01*
X027573Y015751D01*
X027432Y015751D02*
X027853Y015751D01*
X027853Y015961D01*
X027783Y016031D01*
X027643Y016031D01*
X027923Y015571D02*
X027923Y015290D01*
X027853Y014907D02*
X027573Y014907D01*
X027713Y014907D02*
X027573Y015047D01*
X027573Y015117D01*
X027643Y014727D02*
X027573Y014657D01*
X027573Y014516D01*
X027643Y014446D01*
X027783Y014446D01*
X027853Y014516D01*
X027853Y014657D01*
X027783Y014727D01*
X027643Y014727D01*
X027853Y014280D02*
X027853Y014140D01*
X027853Y014210D02*
X027432Y014210D01*
X027432Y014140D01*
X027643Y013959D02*
X027573Y013889D01*
X027573Y013749D01*
X027643Y013679D01*
X027783Y013679D01*
X027853Y013749D01*
X027853Y013889D01*
X027783Y013959D01*
X027643Y013959D01*
X027573Y013499D02*
X027573Y013289D01*
X027643Y013219D01*
X027783Y013219D01*
X027853Y013289D01*
X027853Y013499D01*
X027853Y013052D02*
X027853Y012912D01*
X027853Y012982D02*
X027573Y012982D01*
X027573Y012912D01*
X027432Y012982D02*
X027362Y012982D01*
X027573Y012738D02*
X027573Y012668D01*
X027713Y012528D01*
X027853Y012528D02*
X027573Y012528D01*
X027573Y012362D02*
X027573Y012221D01*
X027503Y012291D02*
X027783Y012291D01*
X027853Y012362D01*
X031862Y012982D02*
X031932Y012982D01*
X032073Y012982D02*
X032353Y012982D01*
X032353Y012912D02*
X032353Y013052D01*
X032283Y013219D02*
X032353Y013289D01*
X032353Y013499D01*
X032283Y013679D02*
X032353Y013749D01*
X032353Y013889D01*
X032283Y013959D01*
X032143Y013959D01*
X032073Y013889D01*
X032073Y013749D01*
X032143Y013679D01*
X032283Y013679D01*
X032073Y013499D02*
X032073Y013289D01*
X032143Y013219D01*
X032283Y013219D01*
X032073Y012982D02*
X032073Y012912D01*
X032073Y012738D02*
X032073Y012668D01*
X032213Y012528D01*
X032353Y012528D02*
X032073Y012528D01*
X032073Y012362D02*
X032073Y012221D01*
X032003Y012291D02*
X032283Y012291D01*
X032353Y012362D01*
X032353Y014140D02*
X032353Y014280D01*
X032353Y014210D02*
X031932Y014210D01*
X031932Y014140D01*
X032143Y014446D02*
X032283Y014446D01*
X032353Y014516D01*
X032353Y014657D01*
X032283Y014727D01*
X032143Y014727D01*
X032073Y014657D01*
X032073Y014516D01*
X032143Y014446D01*
X032213Y014907D02*
X032073Y015047D01*
X032073Y015117D01*
X032073Y014907D02*
X032353Y014907D01*
X032423Y015290D02*
X032423Y015571D01*
X032353Y015751D02*
X031932Y015751D01*
X032073Y015751D02*
X032073Y015961D01*
X032143Y016031D01*
X032283Y016031D01*
X032353Y015961D01*
X032353Y015751D01*
X032283Y016211D02*
X032353Y016281D01*
X032353Y016421D01*
X032283Y016491D01*
X032143Y016491D01*
X032073Y016421D01*
X032073Y016281D01*
X032143Y016211D01*
X032283Y016211D01*
X032283Y016671D02*
X032213Y016741D01*
X032213Y016952D01*
X032143Y016952D02*
X032353Y016952D01*
X032353Y016741D01*
X032283Y016671D01*
X032073Y016741D02*
X032073Y016882D01*
X032143Y016952D01*
X032213Y017132D02*
X032073Y017272D01*
X032073Y017342D01*
X032143Y017515D02*
X032073Y017585D01*
X032073Y017796D01*
X031932Y017796D02*
X032353Y017796D01*
X032353Y017585D01*
X032283Y017515D01*
X032143Y017515D01*
X032073Y017132D02*
X032353Y017132D01*
X032423Y017976D02*
X032423Y018256D01*
X032353Y018436D02*
X032073Y018436D01*
X032213Y018436D02*
X032073Y018576D01*
X032073Y018646D01*
X032143Y018820D02*
X032073Y018890D01*
X032073Y019030D01*
X032143Y019100D01*
X032213Y019100D01*
X032213Y018820D01*
X032283Y018820D02*
X032143Y018820D01*
X032283Y018820D02*
X032353Y018890D01*
X032353Y019030D01*
X032073Y019280D02*
X032353Y019420D01*
X032073Y019560D01*
X032143Y019740D02*
X032143Y020021D01*
X032353Y019951D02*
X031932Y019951D01*
X032143Y019740D01*
X036432Y019951D02*
X036643Y019740D01*
X036643Y020021D01*
X036853Y019951D02*
X036432Y019951D01*
X036573Y019560D02*
X036853Y019420D01*
X036573Y019280D01*
X036643Y019100D02*
X036713Y019100D01*
X036713Y018820D01*
X036783Y018820D02*
X036643Y018820D01*
X036573Y018890D01*
X036573Y019030D01*
X036643Y019100D01*
X036853Y019030D02*
X036853Y018890D01*
X036783Y018820D01*
X036573Y018646D02*
X036573Y018576D01*
X036713Y018436D01*
X036853Y018436D02*
X036573Y018436D01*
X036923Y018256D02*
X036923Y017976D01*
X036853Y017796D02*
X036432Y017796D01*
X036573Y017796D02*
X036573Y017585D01*
X036643Y017515D01*
X036783Y017515D01*
X036853Y017585D01*
X036853Y017796D01*
X036573Y017342D02*
X036573Y017272D01*
X036713Y017132D01*
X036853Y017132D02*
X036573Y017132D01*
X036643Y016952D02*
X036853Y016952D01*
X036853Y016741D01*
X036783Y016671D01*
X036713Y016741D01*
X036713Y016952D01*
X036643Y016952D02*
X036573Y016882D01*
X036573Y016741D01*
X036643Y016491D02*
X036573Y016421D01*
X036573Y016281D01*
X036643Y016211D01*
X036783Y016211D01*
X036853Y016281D01*
X036853Y016421D01*
X036783Y016491D01*
X036643Y016491D01*
X036643Y016031D02*
X036573Y015961D01*
X036573Y015751D01*
X036432Y015751D02*
X036853Y015751D01*
X036853Y015961D01*
X036783Y016031D01*
X036643Y016031D01*
X036923Y015571D02*
X036923Y015290D01*
X036853Y014907D02*
X036573Y014907D01*
X036713Y014907D02*
X036573Y015047D01*
X036573Y015117D01*
X036643Y014727D02*
X036573Y014657D01*
X036573Y014516D01*
X036643Y014446D01*
X036783Y014446D01*
X036853Y014516D01*
X036853Y014657D01*
X036783Y014727D01*
X036643Y014727D01*
X036853Y014280D02*
X036853Y014140D01*
X036853Y014210D02*
X036432Y014210D01*
X036432Y014140D01*
X036643Y013959D02*
X036573Y013889D01*
X036573Y013749D01*
X036643Y013679D01*
X036783Y013679D01*
X036853Y013749D01*
X036853Y013889D01*
X036783Y013959D01*
X036643Y013959D01*
X036573Y013499D02*
X036573Y013289D01*
X036643Y013219D01*
X036783Y013219D01*
X036853Y013289D01*
X036853Y013499D01*
X036853Y013052D02*
X036853Y012912D01*
X036853Y012982D02*
X036573Y012982D01*
X036573Y012912D01*
X036432Y012982D02*
X036362Y012982D01*
X036573Y012738D02*
X036573Y012668D01*
X036713Y012528D01*
X036853Y012528D02*
X036573Y012528D01*
X036573Y012362D02*
X036573Y012221D01*
X036503Y012291D02*
X036783Y012291D01*
X036853Y012362D01*
X036800Y008256D02*
X036519Y008256D01*
X036800Y007975D01*
X036870Y008045D01*
X036870Y008185D01*
X036800Y008256D01*
X036519Y008256D02*
X036449Y008185D01*
X036449Y008045D01*
X036519Y007975D01*
X036800Y007975D01*
X036870Y007795D02*
X036870Y007515D01*
X036870Y007655D02*
X036449Y007655D01*
X036590Y007515D01*
X036449Y007335D02*
X036870Y007055D01*
X036870Y006874D02*
X036870Y006594D01*
X036870Y006734D02*
X036449Y006734D01*
X036590Y006594D01*
X036590Y006414D02*
X036519Y006414D01*
X036449Y006344D01*
X036449Y006204D01*
X036519Y006134D01*
X036449Y005954D02*
X036870Y005674D01*
X036870Y005493D02*
X036870Y005213D01*
X036870Y005353D02*
X036449Y005353D01*
X036590Y005213D01*
X036870Y006134D02*
X036590Y006414D01*
X036870Y006414D02*
X036870Y006134D01*
X032370Y006134D02*
X032090Y006414D01*
X032019Y006414D01*
X031949Y006344D01*
X031949Y006204D01*
X032019Y006134D01*
X031949Y005954D02*
X032370Y005674D01*
X032370Y005493D02*
X032370Y005213D01*
X032370Y005353D02*
X031949Y005353D01*
X032090Y005213D01*
X032370Y006134D02*
X032370Y006414D01*
X032370Y006594D02*
X032370Y006874D01*
X032370Y006734D02*
X031949Y006734D01*
X032090Y006594D01*
X032370Y007055D02*
X031949Y007335D01*
X032090Y007515D02*
X031949Y007655D01*
X032370Y007655D01*
X032370Y007515D02*
X032370Y007795D01*
X032300Y007975D02*
X032019Y007975D01*
X031949Y008045D01*
X031949Y008185D01*
X032019Y008256D01*
X032300Y007975D01*
X032370Y008045D01*
X032370Y008185D01*
X032300Y008256D01*
X032019Y008256D01*
X027870Y008185D02*
X027870Y008045D01*
X027800Y007975D01*
X027519Y008256D01*
X027800Y008256D01*
X027870Y008185D01*
X027800Y007975D02*
X027519Y007975D01*
X027449Y008045D01*
X027449Y008185D01*
X027519Y008256D01*
X027870Y007795D02*
X027870Y007515D01*
X027870Y007655D02*
X027449Y007655D01*
X027590Y007515D01*
X027449Y007335D02*
X027870Y007055D01*
X027870Y006874D02*
X027870Y006594D01*
X027870Y006734D02*
X027449Y006734D01*
X027590Y006594D01*
X027590Y006414D02*
X027519Y006414D01*
X027449Y006344D01*
X027449Y006204D01*
X027519Y006134D01*
X027449Y005954D02*
X027870Y005674D01*
X027870Y005493D02*
X027870Y005213D01*
X027870Y005353D02*
X027449Y005353D01*
X027590Y005213D01*
X027870Y006134D02*
X027590Y006414D01*
X027870Y006414D02*
X027870Y006134D01*
X023090Y005213D02*
X022949Y005353D01*
X019951Y017010D02*
X019951Y017430D01*
X019740Y017220D01*
X020021Y017220D01*
X019560Y017290D02*
X019420Y017010D01*
X019280Y017290D01*
X019100Y017220D02*
X019030Y017290D01*
X018890Y017290D01*
X018820Y017220D01*
X018820Y017080D01*
X018890Y017010D01*
X019030Y017010D01*
X019100Y017150D02*
X018820Y017150D01*
X018646Y017290D02*
X018576Y017290D01*
X018436Y017150D01*
X018436Y017010D02*
X018436Y017290D01*
X018256Y016940D02*
X017976Y016940D01*
X017796Y017010D02*
X017585Y017010D01*
X017515Y017080D01*
X017515Y017220D01*
X017585Y017290D01*
X017796Y017290D01*
X017796Y017430D02*
X017796Y017010D01*
X017342Y017290D02*
X017272Y017290D01*
X017132Y017150D01*
X017132Y017010D02*
X017132Y017290D01*
X016952Y017220D02*
X016952Y017010D01*
X016741Y017010D01*
X016671Y017080D01*
X016741Y017150D01*
X016952Y017150D01*
X016952Y017220D02*
X016882Y017290D01*
X016741Y017290D01*
X016491Y017220D02*
X016421Y017290D01*
X016281Y017290D01*
X016211Y017220D01*
X016211Y017080D01*
X016281Y017010D01*
X016421Y017010D01*
X016491Y017080D01*
X016491Y017220D01*
X016031Y017220D02*
X015961Y017290D01*
X015751Y017290D01*
X015751Y017430D02*
X015751Y017010D01*
X015961Y017010D01*
X016031Y017080D01*
X016031Y017220D01*
X015571Y016940D02*
X015290Y016940D01*
X014907Y017010D02*
X014907Y017290D01*
X014907Y017150D02*
X015047Y017290D01*
X015117Y017290D01*
X014727Y017220D02*
X014657Y017290D01*
X014516Y017290D01*
X014446Y017220D01*
X014446Y017080D01*
X014516Y017010D01*
X014657Y017010D01*
X014727Y017080D01*
X014727Y017220D01*
X014280Y017010D02*
X014140Y017010D01*
X014210Y017010D02*
X014210Y017430D01*
X014140Y017430D01*
X013959Y017220D02*
X013889Y017290D01*
X013749Y017290D01*
X013679Y017220D01*
X013679Y017080D01*
X013749Y017010D01*
X013889Y017010D01*
X013959Y017080D01*
X013959Y017220D01*
X013499Y017290D02*
X013289Y017290D01*
X013219Y017220D01*
X013219Y017080D01*
X013289Y017010D01*
X013499Y017010D01*
X013052Y017010D02*
X012912Y017010D01*
X012982Y017010D02*
X012982Y017290D01*
X012912Y017290D01*
X012982Y017430D02*
X012982Y017500D01*
X012738Y017290D02*
X012668Y017290D01*
X012528Y017150D01*
X012528Y017010D02*
X012528Y017290D01*
X012362Y017290D02*
X012221Y017290D01*
X012291Y017360D02*
X012291Y017080D01*
X012362Y017010D01*
X008256Y017063D02*
X008185Y016993D01*
X008045Y016993D01*
X007975Y017063D01*
X008256Y017343D01*
X008256Y017063D01*
X008256Y017343D02*
X008185Y017413D01*
X008045Y017413D01*
X007975Y017343D01*
X007975Y017063D01*
X007795Y016993D02*
X007515Y016993D01*
X007655Y016993D02*
X007655Y017413D01*
X007515Y017273D01*
X007335Y017413D02*
X007055Y016993D01*
X006874Y016993D02*
X006594Y016993D01*
X006734Y016993D02*
X006734Y017413D01*
X006594Y017273D01*
X006414Y017273D02*
X006134Y016993D01*
X006414Y016993D01*
X006414Y017273D02*
X006414Y017343D01*
X006344Y017413D01*
X006204Y017413D01*
X006134Y017343D01*
X005954Y017413D02*
X005674Y016993D01*
X005493Y016993D02*
X005213Y016993D01*
X005353Y016993D02*
X005353Y017413D01*
X005213Y017273D01*
X019100Y017220D02*
X019100Y017150D01*
D11*
X016888Y016640D02*
X016888Y016563D01*
X016811Y016487D01*
X016581Y016487D01*
X016581Y016257D02*
X016581Y016717D01*
X016811Y016717D01*
X016888Y016640D01*
X016811Y016487D02*
X016888Y016410D01*
X016888Y016333D01*
X016811Y016257D01*
X016581Y016257D01*
X015837Y016333D02*
X015760Y016257D01*
X015607Y016257D01*
X015530Y016333D01*
X015530Y016640D01*
X015607Y016717D01*
X015760Y016717D01*
X015837Y016640D01*
X015837Y016487D02*
X015684Y016487D01*
X015837Y016487D02*
X015837Y016333D01*
X014833Y016463D02*
X014526Y016463D01*
X014680Y016617D02*
X014680Y016310D01*
X013829Y016257D02*
X013676Y016410D01*
X013752Y016410D02*
X013522Y016410D01*
X013522Y016257D02*
X013522Y016717D01*
X013752Y016717D01*
X013829Y016640D01*
X013829Y016487D01*
X013752Y016410D01*
X013752Y012217D02*
X013522Y012217D01*
X013522Y011757D01*
X013522Y011910D02*
X013752Y011910D01*
X013829Y011987D01*
X013829Y012140D01*
X013752Y012217D01*
X013676Y011910D02*
X013829Y011757D01*
X014526Y011963D02*
X014833Y011963D01*
X014680Y011810D02*
X014680Y012117D01*
X015530Y012140D02*
X015530Y011833D01*
X015607Y011757D01*
X015760Y011757D01*
X015837Y011833D01*
X015837Y011987D01*
X015684Y011987D01*
X015837Y012140D02*
X015760Y012217D01*
X015607Y012217D01*
X015530Y012140D01*
X016581Y012217D02*
X016581Y011757D01*
X016811Y011757D01*
X016888Y011833D01*
X016888Y011910D01*
X016811Y011987D01*
X016581Y011987D01*
X016581Y012217D02*
X016811Y012217D01*
X016888Y012140D01*
X016888Y012063D01*
X016811Y011987D01*
X016811Y007717D02*
X016888Y007640D01*
X016888Y007563D01*
X016811Y007487D01*
X016581Y007487D01*
X016581Y007257D02*
X016581Y007717D01*
X016811Y007717D01*
X016811Y007487D02*
X016888Y007410D01*
X016888Y007333D01*
X016811Y007257D01*
X016581Y007257D01*
X015837Y007333D02*
X015837Y007487D01*
X015684Y007487D01*
X015837Y007640D02*
X015760Y007717D01*
X015607Y007717D01*
X015530Y007640D01*
X015530Y007333D01*
X015607Y007257D01*
X015760Y007257D01*
X015837Y007333D01*
X014833Y007463D02*
X014526Y007463D01*
X014680Y007617D02*
X014680Y007310D01*
X013829Y007257D02*
X013676Y007410D01*
X013752Y007410D02*
X013522Y007410D01*
X013522Y007257D02*
X013522Y007717D01*
X013752Y007717D01*
X013829Y007640D01*
X013829Y007487D01*
X013752Y007410D01*
X013752Y003217D02*
X013522Y003217D01*
X013522Y002757D01*
X013522Y002910D02*
X013752Y002910D01*
X013829Y002987D01*
X013829Y003140D01*
X013752Y003217D01*
X013676Y002910D02*
X013829Y002757D01*
X014526Y002963D02*
X014833Y002963D01*
X014680Y002810D02*
X014680Y003117D01*
X015530Y003140D02*
X015530Y002833D01*
X015607Y002757D01*
X015760Y002757D01*
X015837Y002833D01*
X015837Y002987D01*
X015684Y002987D01*
X015837Y003140D02*
X015760Y003217D01*
X015607Y003217D01*
X015530Y003140D01*
X016581Y003217D02*
X016581Y002757D01*
X016811Y002757D01*
X016888Y002833D01*
X016888Y002910D01*
X016811Y002987D01*
X016581Y002987D01*
X016581Y003217D02*
X016811Y003217D01*
X016888Y003140D01*
X016888Y003063D01*
X016811Y002987D01*
X023646Y013522D02*
X023646Y013752D01*
X023723Y013829D01*
X023876Y013829D01*
X023953Y013752D01*
X023953Y013522D01*
X024106Y013522D02*
X023646Y013522D01*
X023953Y013676D02*
X024106Y013829D01*
X023900Y014526D02*
X023900Y014833D01*
X024053Y014680D02*
X023746Y014680D01*
X023723Y015530D02*
X024030Y015530D01*
X024106Y015607D01*
X024106Y015760D01*
X024030Y015837D01*
X023876Y015837D01*
X023876Y015684D01*
X023723Y015837D02*
X023646Y015760D01*
X023646Y015607D01*
X023723Y015530D01*
X023646Y016581D02*
X023646Y016811D01*
X023723Y016888D01*
X023799Y016888D01*
X023876Y016811D01*
X023876Y016581D01*
X024106Y016581D02*
X023646Y016581D01*
X023876Y016811D02*
X023953Y016888D01*
X024030Y016888D01*
X024106Y016811D01*
X024106Y016581D01*
X028146Y016581D02*
X028146Y016811D01*
X028223Y016888D01*
X028299Y016888D01*
X028376Y016811D01*
X028376Y016581D01*
X028606Y016581D02*
X028146Y016581D01*
X028376Y016811D02*
X028453Y016888D01*
X028530Y016888D01*
X028606Y016811D01*
X028606Y016581D01*
X028530Y015837D02*
X028376Y015837D01*
X028376Y015684D01*
X028223Y015837D02*
X028146Y015760D01*
X028146Y015607D01*
X028223Y015530D01*
X028530Y015530D01*
X028606Y015607D01*
X028606Y015760D01*
X028530Y015837D01*
X028400Y014833D02*
X028400Y014526D01*
X028246Y014680D02*
X028553Y014680D01*
X028606Y013829D02*
X028453Y013676D01*
X028453Y013752D02*
X028453Y013522D01*
X028606Y013522D02*
X028146Y013522D01*
X028146Y013752D01*
X028223Y013829D01*
X028376Y013829D01*
X028453Y013752D01*
X032646Y013752D02*
X032723Y013829D01*
X032876Y013829D01*
X032953Y013752D01*
X032953Y013522D01*
X033106Y013522D02*
X032646Y013522D01*
X032646Y013752D01*
X032953Y013676D02*
X033106Y013829D01*
X032900Y014526D02*
X032900Y014833D01*
X033053Y014680D02*
X032746Y014680D01*
X032723Y015530D02*
X032646Y015607D01*
X032646Y015760D01*
X032723Y015837D01*
X032876Y015837D02*
X032876Y015684D01*
X032876Y015837D02*
X033030Y015837D01*
X033106Y015760D01*
X033106Y015607D01*
X033030Y015530D01*
X032723Y015530D01*
X032646Y016581D02*
X032646Y016811D01*
X032723Y016888D01*
X032799Y016888D01*
X032876Y016811D01*
X032876Y016581D01*
X033106Y016581D02*
X032646Y016581D01*
X032876Y016811D02*
X032953Y016888D01*
X033030Y016888D01*
X033106Y016811D01*
X033106Y016581D01*
X037146Y016581D02*
X037146Y016811D01*
X037223Y016888D01*
X037299Y016888D01*
X037376Y016811D01*
X037376Y016581D01*
X037606Y016581D02*
X037146Y016581D01*
X037376Y016811D02*
X037453Y016888D01*
X037530Y016888D01*
X037606Y016811D01*
X037606Y016581D01*
X037530Y015837D02*
X037376Y015837D01*
X037376Y015684D01*
X037223Y015837D02*
X037146Y015760D01*
X037146Y015607D01*
X037223Y015530D01*
X037530Y015530D01*
X037606Y015607D01*
X037606Y015760D01*
X037530Y015837D01*
X037400Y014833D02*
X037400Y014526D01*
X037246Y014680D02*
X037553Y014680D01*
X037606Y013829D02*
X037453Y013676D01*
X037453Y013752D02*
X037453Y013522D01*
X037606Y013522D02*
X037146Y013522D01*
X037146Y013752D01*
X037223Y013829D01*
X037376Y013829D01*
X037453Y013752D01*
X016888Y020833D02*
X016811Y020757D01*
X016581Y020757D01*
X016581Y021217D01*
X016811Y021217D01*
X016888Y021140D01*
X016888Y021063D01*
X016811Y020987D01*
X016581Y020987D01*
X016811Y020987D02*
X016888Y020910D01*
X016888Y020833D01*
X015837Y020833D02*
X015837Y020987D01*
X015684Y020987D01*
X015837Y021140D02*
X015760Y021217D01*
X015607Y021217D01*
X015530Y021140D01*
X015530Y020833D01*
X015607Y020757D01*
X015760Y020757D01*
X015837Y020833D01*
X014833Y020963D02*
X014526Y020963D01*
X014680Y021117D02*
X014680Y020810D01*
X013829Y020757D02*
X013676Y020910D01*
X013752Y020910D02*
X013522Y020910D01*
X013522Y020757D02*
X013522Y021217D01*
X013752Y021217D01*
X013829Y021140D01*
X013829Y020987D01*
X013752Y020910D01*
X013829Y025257D02*
X013676Y025410D01*
X013752Y025410D02*
X013522Y025410D01*
X013522Y025257D02*
X013522Y025717D01*
X013752Y025717D01*
X013829Y025640D01*
X013829Y025487D01*
X013752Y025410D01*
X014526Y025463D02*
X014833Y025463D01*
X014680Y025310D02*
X014680Y025617D01*
X015530Y025640D02*
X015530Y025333D01*
X015607Y025257D01*
X015760Y025257D01*
X015837Y025333D01*
X015837Y025487D01*
X015684Y025487D01*
X015837Y025640D02*
X015760Y025717D01*
X015607Y025717D01*
X015530Y025640D01*
X016581Y025717D02*
X016581Y025257D01*
X016811Y025257D01*
X016888Y025333D01*
X016888Y025410D01*
X016811Y025487D01*
X016581Y025487D01*
X016581Y025717D02*
X016811Y025717D01*
X016888Y025640D01*
X016888Y025563D01*
X016811Y025487D01*
X016811Y029757D02*
X016581Y029757D01*
X016581Y030217D01*
X016811Y030217D01*
X016888Y030140D01*
X016888Y030063D01*
X016811Y029987D01*
X016581Y029987D01*
X016811Y029987D02*
X016888Y029910D01*
X016888Y029833D01*
X016811Y029757D01*
X015837Y029833D02*
X015760Y029757D01*
X015607Y029757D01*
X015530Y029833D01*
X015530Y030140D01*
X015607Y030217D01*
X015760Y030217D01*
X015837Y030140D01*
X015837Y029987D02*
X015684Y029987D01*
X015837Y029987D02*
X015837Y029833D01*
X014833Y029963D02*
X014526Y029963D01*
X014680Y030117D02*
X014680Y029810D01*
X013829Y029757D02*
X013676Y029910D01*
X013752Y029910D02*
X013522Y029910D01*
X013522Y029757D02*
X013522Y030217D01*
X013752Y030217D01*
X013829Y030140D01*
X013829Y029987D01*
X013752Y029910D01*
D12*
X014241Y028703D02*
X014241Y028603D01*
X014241Y028653D02*
X014391Y028653D01*
X014366Y028556D02*
X014266Y028556D01*
X014241Y028531D01*
X014241Y028481D01*
X014266Y028456D01*
X014366Y028456D01*
X014391Y028481D01*
X014391Y028531D01*
X014366Y028556D01*
X014316Y028409D02*
X014341Y028384D01*
X014341Y028308D01*
X014391Y028308D02*
X014241Y028308D01*
X014241Y028384D01*
X014266Y028409D01*
X014316Y028409D01*
X015213Y028430D02*
X015213Y028505D01*
X015238Y028530D01*
X015263Y028530D01*
X015288Y028505D01*
X015288Y028430D01*
X015288Y028383D02*
X015313Y028358D01*
X015313Y028283D01*
X015363Y028283D02*
X015213Y028283D01*
X015213Y028358D01*
X015238Y028383D01*
X015288Y028383D01*
X015363Y028430D02*
X015213Y028430D01*
X015288Y028505D02*
X015313Y028530D01*
X015338Y028530D01*
X015363Y028505D01*
X015363Y028430D01*
X015338Y028578D02*
X015238Y028678D01*
X015338Y028678D01*
X015363Y028653D01*
X015363Y028603D01*
X015338Y028578D01*
X015238Y028578D01*
X015213Y028603D01*
X015213Y028653D01*
X015238Y028678D01*
X016377Y028366D02*
X016402Y028391D01*
X016452Y028391D01*
X016477Y028366D01*
X016477Y028291D01*
X016477Y028341D02*
X016527Y028391D01*
X016527Y028291D02*
X016377Y028291D01*
X016377Y028366D01*
X017284Y028368D02*
X017284Y028318D01*
X017309Y028293D01*
X017409Y028293D01*
X017434Y028318D01*
X017434Y028368D01*
X017409Y028393D01*
X017359Y028393D01*
X017359Y028343D01*
X017309Y028393D02*
X017284Y028368D01*
X018243Y028344D02*
X018268Y028369D01*
X018293Y028369D01*
X018318Y028344D01*
X018318Y028269D01*
X018393Y028269D02*
X018393Y028344D01*
X018368Y028369D01*
X018343Y028369D01*
X018318Y028344D01*
X018243Y028344D02*
X018243Y028269D01*
X018393Y028269D01*
X015338Y024178D02*
X015238Y024178D01*
X015338Y024078D01*
X015363Y024103D01*
X015363Y024153D01*
X015338Y024178D01*
X015238Y024178D02*
X015213Y024153D01*
X015213Y024103D01*
X015238Y024078D01*
X015338Y024078D01*
X015338Y024030D02*
X015363Y024005D01*
X015363Y023930D01*
X015213Y023930D01*
X015213Y024005D01*
X015238Y024030D01*
X015263Y024030D01*
X015288Y024005D01*
X015288Y023930D01*
X015288Y023883D02*
X015313Y023858D01*
X015313Y023783D01*
X015363Y023783D02*
X015213Y023783D01*
X015213Y023858D01*
X015238Y023883D01*
X015288Y023883D01*
X015288Y024005D02*
X015313Y024030D01*
X015338Y024030D01*
X016377Y023866D02*
X016377Y023791D01*
X016527Y023791D01*
X016477Y023791D02*
X016477Y023866D01*
X016452Y023891D01*
X016402Y023891D01*
X016377Y023866D01*
X016477Y023841D02*
X016527Y023891D01*
X017284Y023868D02*
X017284Y023818D01*
X017309Y023793D01*
X017409Y023793D01*
X017434Y023818D01*
X017434Y023868D01*
X017409Y023893D01*
X017359Y023893D01*
X017359Y023843D01*
X017309Y023893D02*
X017284Y023868D01*
X018243Y023844D02*
X018243Y023769D01*
X018393Y023769D01*
X018393Y023844D01*
X018368Y023869D01*
X018343Y023869D01*
X018318Y023844D01*
X018318Y023769D01*
X018318Y023844D02*
X018293Y023869D01*
X018268Y023869D01*
X018243Y023844D01*
X014391Y023808D02*
X014241Y023808D01*
X014241Y023884D01*
X014266Y023909D01*
X014316Y023909D01*
X014341Y023884D01*
X014341Y023808D01*
X014366Y023956D02*
X014391Y023981D01*
X014391Y024031D01*
X014366Y024056D01*
X014266Y024056D01*
X014241Y024031D01*
X014241Y023981D01*
X014266Y023956D01*
X014366Y023956D01*
X014241Y024103D02*
X014241Y024203D01*
X014241Y024153D02*
X014391Y024153D01*
X013238Y023898D02*
X013138Y023898D01*
X013188Y023848D02*
X013188Y023948D01*
X012172Y023944D02*
X012172Y023844D01*
X012172Y028344D02*
X012172Y028444D01*
X013138Y028398D02*
X013238Y028398D01*
X013188Y028348D02*
X013188Y028448D01*
X014241Y019703D02*
X014241Y019603D01*
X014241Y019653D02*
X014391Y019653D01*
X014366Y019556D02*
X014266Y019556D01*
X014241Y019531D01*
X014241Y019481D01*
X014266Y019456D01*
X014366Y019456D01*
X014391Y019481D01*
X014391Y019531D01*
X014366Y019556D01*
X014316Y019409D02*
X014341Y019384D01*
X014341Y019308D01*
X014391Y019308D02*
X014241Y019308D01*
X014241Y019384D01*
X014266Y019409D01*
X014316Y019409D01*
X015213Y019430D02*
X015213Y019505D01*
X015238Y019530D01*
X015263Y019530D01*
X015288Y019505D01*
X015288Y019430D01*
X015288Y019383D02*
X015313Y019358D01*
X015313Y019283D01*
X015363Y019283D02*
X015213Y019283D01*
X015213Y019358D01*
X015238Y019383D01*
X015288Y019383D01*
X015363Y019430D02*
X015213Y019430D01*
X015288Y019505D02*
X015313Y019530D01*
X015338Y019530D01*
X015363Y019505D01*
X015363Y019430D01*
X015338Y019578D02*
X015238Y019678D01*
X015338Y019678D01*
X015363Y019653D01*
X015363Y019603D01*
X015338Y019578D01*
X015238Y019578D01*
X015213Y019603D01*
X015213Y019653D01*
X015238Y019678D01*
X016377Y019366D02*
X016402Y019391D01*
X016452Y019391D01*
X016477Y019366D01*
X016477Y019291D01*
X016477Y019341D02*
X016527Y019391D01*
X016527Y019291D02*
X016377Y019291D01*
X016377Y019366D01*
X017284Y019368D02*
X017284Y019318D01*
X017309Y019293D01*
X017409Y019293D01*
X017434Y019318D01*
X017434Y019368D01*
X017409Y019393D01*
X017359Y019393D01*
X017359Y019343D01*
X017309Y019393D02*
X017284Y019368D01*
X018243Y019344D02*
X018268Y019369D01*
X018293Y019369D01*
X018318Y019344D01*
X018318Y019269D01*
X018393Y019269D02*
X018393Y019344D01*
X018368Y019369D01*
X018343Y019369D01*
X018318Y019344D01*
X018243Y019344D02*
X018243Y019269D01*
X018393Y019269D01*
X015338Y015178D02*
X015238Y015178D01*
X015338Y015078D01*
X015363Y015103D01*
X015363Y015153D01*
X015338Y015178D01*
X015238Y015178D02*
X015213Y015153D01*
X015213Y015103D01*
X015238Y015078D01*
X015338Y015078D01*
X015338Y015030D02*
X015313Y015030D01*
X015288Y015005D01*
X015288Y014930D01*
X015288Y014883D02*
X015313Y014858D01*
X015313Y014783D01*
X015363Y014783D02*
X015213Y014783D01*
X015213Y014858D01*
X015238Y014883D01*
X015288Y014883D01*
X015213Y014930D02*
X015213Y015005D01*
X015238Y015030D01*
X015263Y015030D01*
X015288Y015005D01*
X015338Y015030D02*
X015363Y015005D01*
X015363Y014930D01*
X015213Y014930D01*
X014391Y014981D02*
X014391Y015031D01*
X014366Y015056D01*
X014266Y015056D01*
X014241Y015031D01*
X014241Y014981D01*
X014266Y014956D01*
X014366Y014956D01*
X014391Y014981D01*
X014316Y014909D02*
X014341Y014884D01*
X014341Y014808D01*
X014391Y014808D02*
X014241Y014808D01*
X014241Y014884D01*
X014266Y014909D01*
X014316Y014909D01*
X014241Y015103D02*
X014241Y015203D01*
X014241Y015153D02*
X014391Y015153D01*
X013238Y014898D02*
X013138Y014898D01*
X013188Y014848D02*
X013188Y014948D01*
X012172Y014944D02*
X012172Y014844D01*
X016377Y014866D02*
X016402Y014891D01*
X016452Y014891D01*
X016477Y014866D01*
X016477Y014791D01*
X016477Y014841D02*
X016527Y014891D01*
X016527Y014791D02*
X016377Y014791D01*
X016377Y014866D01*
X017284Y014868D02*
X017284Y014818D01*
X017309Y014793D01*
X017409Y014793D01*
X017434Y014818D01*
X017434Y014868D01*
X017409Y014893D01*
X017359Y014893D01*
X017359Y014843D01*
X017309Y014893D02*
X017284Y014868D01*
X018243Y014844D02*
X018268Y014869D01*
X018293Y014869D01*
X018318Y014844D01*
X018318Y014769D01*
X018393Y014769D02*
X018393Y014844D01*
X018368Y014869D01*
X018343Y014869D01*
X018318Y014844D01*
X018243Y014844D02*
X018243Y014769D01*
X018393Y014769D01*
X015338Y010678D02*
X015238Y010678D01*
X015338Y010578D01*
X015363Y010603D01*
X015363Y010653D01*
X015338Y010678D01*
X015238Y010678D02*
X015213Y010653D01*
X015213Y010603D01*
X015238Y010578D01*
X015338Y010578D01*
X015338Y010530D02*
X015363Y010505D01*
X015363Y010430D01*
X015213Y010430D01*
X015213Y010505D01*
X015238Y010530D01*
X015263Y010530D01*
X015288Y010505D01*
X015288Y010430D01*
X015288Y010383D02*
X015313Y010358D01*
X015313Y010283D01*
X015363Y010283D02*
X015213Y010283D01*
X015213Y010358D01*
X015238Y010383D01*
X015288Y010383D01*
X015288Y010505D02*
X015313Y010530D01*
X015338Y010530D01*
X016377Y010366D02*
X016377Y010291D01*
X016527Y010291D01*
X016477Y010291D02*
X016477Y010366D01*
X016452Y010391D01*
X016402Y010391D01*
X016377Y010366D01*
X016477Y010341D02*
X016527Y010391D01*
X017284Y010368D02*
X017284Y010318D01*
X017309Y010293D01*
X017409Y010293D01*
X017434Y010318D01*
X017434Y010368D01*
X017409Y010393D01*
X017359Y010393D01*
X017359Y010343D01*
X017309Y010393D02*
X017284Y010368D01*
X018243Y010344D02*
X018268Y010369D01*
X018293Y010369D01*
X018318Y010344D01*
X018318Y010269D01*
X018393Y010269D02*
X018393Y010344D01*
X018368Y010369D01*
X018343Y010369D01*
X018318Y010344D01*
X018243Y010344D02*
X018243Y010269D01*
X018393Y010269D01*
X014391Y010308D02*
X014241Y010308D01*
X014241Y010384D01*
X014266Y010409D01*
X014316Y010409D01*
X014341Y010384D01*
X014341Y010308D01*
X014366Y010456D02*
X014391Y010481D01*
X014391Y010531D01*
X014366Y010556D01*
X014266Y010556D01*
X014241Y010531D01*
X014241Y010481D01*
X014266Y010456D01*
X014366Y010456D01*
X014241Y010603D02*
X014241Y010703D01*
X014241Y010653D02*
X014391Y010653D01*
X013238Y010398D02*
X013138Y010398D01*
X013188Y010348D02*
X013188Y010448D01*
X012172Y010444D02*
X012172Y010344D01*
X014241Y006203D02*
X014241Y006103D01*
X014241Y006153D02*
X014391Y006153D01*
X014366Y006056D02*
X014266Y006056D01*
X014241Y006031D01*
X014241Y005981D01*
X014266Y005956D01*
X014366Y005956D01*
X014391Y005981D01*
X014391Y006031D01*
X014366Y006056D01*
X014316Y005909D02*
X014341Y005884D01*
X014341Y005808D01*
X014391Y005808D02*
X014241Y005808D01*
X014241Y005884D01*
X014266Y005909D01*
X014316Y005909D01*
X015213Y005930D02*
X015213Y006005D01*
X015238Y006030D01*
X015263Y006030D01*
X015288Y006005D01*
X015288Y005930D01*
X015288Y005883D02*
X015313Y005858D01*
X015313Y005783D01*
X015363Y005783D02*
X015213Y005783D01*
X015213Y005858D01*
X015238Y005883D01*
X015288Y005883D01*
X015363Y005930D02*
X015213Y005930D01*
X015288Y006005D02*
X015313Y006030D01*
X015338Y006030D01*
X015363Y006005D01*
X015363Y005930D01*
X015338Y006078D02*
X015238Y006178D01*
X015338Y006178D01*
X015363Y006153D01*
X015363Y006103D01*
X015338Y006078D01*
X015238Y006078D01*
X015213Y006103D01*
X015213Y006153D01*
X015238Y006178D01*
X016377Y005866D02*
X016402Y005891D01*
X016452Y005891D01*
X016477Y005866D01*
X016477Y005791D01*
X016477Y005841D02*
X016527Y005891D01*
X016527Y005791D02*
X016377Y005791D01*
X016377Y005866D01*
X017284Y005868D02*
X017284Y005818D01*
X017309Y005793D01*
X017409Y005793D01*
X017434Y005818D01*
X017434Y005868D01*
X017409Y005893D01*
X017359Y005893D01*
X017359Y005843D01*
X017309Y005893D02*
X017284Y005868D01*
X018243Y005844D02*
X018268Y005869D01*
X018293Y005869D01*
X018318Y005844D01*
X018318Y005769D01*
X018393Y005769D02*
X018393Y005844D01*
X018368Y005869D01*
X018343Y005869D01*
X018318Y005844D01*
X018243Y005844D02*
X018243Y005769D01*
X018393Y005769D01*
X015338Y001678D02*
X015238Y001678D01*
X015338Y001578D01*
X015363Y001603D01*
X015363Y001653D01*
X015338Y001678D01*
X015238Y001678D02*
X015213Y001653D01*
X015213Y001603D01*
X015238Y001578D01*
X015338Y001578D01*
X015338Y001530D02*
X015313Y001530D01*
X015288Y001505D01*
X015288Y001430D01*
X015288Y001383D02*
X015313Y001358D01*
X015313Y001283D01*
X015363Y001283D02*
X015213Y001283D01*
X015213Y001358D01*
X015238Y001383D01*
X015288Y001383D01*
X015213Y001430D02*
X015213Y001505D01*
X015238Y001530D01*
X015263Y001530D01*
X015288Y001505D01*
X015338Y001530D02*
X015363Y001505D01*
X015363Y001430D01*
X015213Y001430D01*
X014391Y001481D02*
X014391Y001531D01*
X014366Y001556D01*
X014266Y001556D01*
X014241Y001531D01*
X014241Y001481D01*
X014266Y001456D01*
X014366Y001456D01*
X014391Y001481D01*
X014316Y001409D02*
X014341Y001384D01*
X014341Y001308D01*
X014391Y001308D02*
X014241Y001308D01*
X014241Y001384D01*
X014266Y001409D01*
X014316Y001409D01*
X014241Y001603D02*
X014241Y001703D01*
X014241Y001653D02*
X014391Y001653D01*
X013238Y001398D02*
X013138Y001398D01*
X013188Y001348D02*
X013188Y001448D01*
X012172Y001444D02*
X012172Y001344D01*
X016377Y001366D02*
X016402Y001391D01*
X016452Y001391D01*
X016477Y001366D01*
X016477Y001291D01*
X016477Y001341D02*
X016527Y001391D01*
X016527Y001291D02*
X016377Y001291D01*
X016377Y001366D01*
X017284Y001368D02*
X017284Y001318D01*
X017309Y001293D01*
X017409Y001293D01*
X017434Y001318D01*
X017434Y001368D01*
X017409Y001393D01*
X017359Y001393D01*
X017359Y001343D01*
X017309Y001393D02*
X017284Y001368D01*
X018243Y001344D02*
X018268Y001369D01*
X018293Y001369D01*
X018318Y001344D01*
X018318Y001269D01*
X018393Y001269D02*
X018393Y001344D01*
X018368Y001369D01*
X018343Y001369D01*
X018318Y001344D01*
X018243Y001344D02*
X018243Y001269D01*
X018393Y001269D01*
X013238Y005898D02*
X013138Y005898D01*
X013188Y005848D02*
X013188Y005948D01*
X012172Y005944D02*
X012172Y005844D01*
X025382Y012172D02*
X025482Y012172D01*
X025428Y013138D02*
X025428Y013238D01*
X025378Y013188D02*
X025478Y013188D01*
X025467Y014241D02*
X025467Y014391D01*
X025417Y014391D02*
X025517Y014391D01*
X025370Y014366D02*
X025345Y014391D01*
X025295Y014391D01*
X025270Y014366D01*
X025270Y014266D01*
X025295Y014241D01*
X025345Y014241D01*
X025370Y014266D01*
X025370Y014366D01*
X025222Y014366D02*
X025222Y014316D01*
X025197Y014291D01*
X025122Y014291D01*
X025122Y014241D02*
X025122Y014391D01*
X025197Y014391D01*
X025222Y014366D01*
X025295Y015213D02*
X025370Y015213D01*
X025395Y015238D01*
X025395Y015263D01*
X025370Y015288D01*
X025295Y015288D01*
X025248Y015288D02*
X025223Y015263D01*
X025148Y015263D01*
X025148Y015213D02*
X025148Y015364D01*
X025223Y015364D01*
X025248Y015339D01*
X025248Y015288D01*
X025295Y015213D02*
X025295Y015364D01*
X025370Y015364D01*
X025395Y015339D01*
X025395Y015314D01*
X025370Y015288D01*
X025443Y015238D02*
X025543Y015339D01*
X025543Y015238D01*
X025518Y015213D01*
X025468Y015213D01*
X025443Y015238D01*
X025443Y015339D01*
X025468Y015364D01*
X025518Y015364D01*
X025543Y015339D01*
X025535Y016377D02*
X025485Y016427D01*
X025510Y016427D02*
X025435Y016427D01*
X025435Y016377D02*
X025435Y016527D01*
X025510Y016527D01*
X025535Y016502D01*
X025535Y016452D01*
X025510Y016427D01*
X025508Y017284D02*
X025533Y017309D01*
X025533Y017359D01*
X025483Y017359D01*
X025433Y017309D02*
X025458Y017284D01*
X025508Y017284D01*
X025433Y017309D02*
X025433Y017409D01*
X025458Y017434D01*
X025508Y017434D01*
X025533Y017409D01*
X025531Y018243D02*
X025456Y018243D01*
X025456Y018393D01*
X025531Y018393D01*
X025556Y018368D01*
X025556Y018343D01*
X025531Y018318D01*
X025456Y018318D01*
X025531Y018318D02*
X025556Y018293D01*
X025556Y018268D01*
X025531Y018243D01*
X029648Y015364D02*
X029723Y015364D01*
X029748Y015339D01*
X029748Y015288D01*
X029723Y015263D01*
X029648Y015263D01*
X029648Y015213D02*
X029648Y015364D01*
X029795Y015364D02*
X029870Y015364D01*
X029895Y015339D01*
X029895Y015314D01*
X029870Y015288D01*
X029795Y015288D01*
X029795Y015213D02*
X029870Y015213D01*
X029895Y015238D01*
X029895Y015263D01*
X029870Y015288D01*
X029943Y015238D02*
X030043Y015339D01*
X030043Y015238D01*
X030018Y015213D01*
X029968Y015213D01*
X029943Y015238D01*
X029943Y015339D01*
X029968Y015364D01*
X030018Y015364D01*
X030043Y015339D01*
X029795Y015364D02*
X029795Y015213D01*
X029795Y014391D02*
X029770Y014366D01*
X029770Y014266D01*
X029795Y014241D01*
X029845Y014241D01*
X029870Y014266D01*
X029870Y014366D01*
X029845Y014391D01*
X029795Y014391D01*
X029722Y014366D02*
X029722Y014316D01*
X029697Y014291D01*
X029622Y014291D01*
X029622Y014241D02*
X029622Y014391D01*
X029697Y014391D01*
X029722Y014366D01*
X029917Y014391D02*
X030017Y014391D01*
X029967Y014391D02*
X029967Y014241D01*
X029928Y013238D02*
X029928Y013138D01*
X029878Y013188D02*
X029978Y013188D01*
X029982Y012172D02*
X029882Y012172D01*
X034122Y014241D02*
X034122Y014391D01*
X034197Y014391D01*
X034222Y014366D01*
X034222Y014316D01*
X034197Y014291D01*
X034122Y014291D01*
X034270Y014266D02*
X034295Y014241D01*
X034345Y014241D01*
X034370Y014266D01*
X034370Y014366D01*
X034345Y014391D01*
X034295Y014391D01*
X034270Y014366D01*
X034270Y014266D01*
X034417Y014391D02*
X034517Y014391D01*
X034467Y014391D02*
X034467Y014241D01*
X034468Y015213D02*
X034443Y015238D01*
X034543Y015339D01*
X034543Y015238D01*
X034518Y015213D01*
X034468Y015213D01*
X034443Y015238D02*
X034443Y015339D01*
X034468Y015364D01*
X034518Y015364D01*
X034543Y015339D01*
X034395Y015339D02*
X034395Y015314D01*
X034370Y015288D01*
X034295Y015288D01*
X034248Y015288D02*
X034223Y015263D01*
X034148Y015263D01*
X034148Y015213D02*
X034148Y015364D01*
X034223Y015364D01*
X034248Y015339D01*
X034248Y015288D01*
X034295Y015213D02*
X034370Y015213D01*
X034395Y015238D01*
X034395Y015263D01*
X034370Y015288D01*
X034395Y015339D02*
X034370Y015364D01*
X034295Y015364D01*
X034295Y015213D01*
X034435Y016377D02*
X034435Y016527D01*
X034510Y016527D01*
X034535Y016502D01*
X034535Y016452D01*
X034510Y016427D01*
X034435Y016427D01*
X034485Y016427D02*
X034535Y016377D01*
X034508Y017284D02*
X034533Y017309D01*
X034533Y017359D01*
X034483Y017359D01*
X034433Y017309D02*
X034458Y017284D01*
X034508Y017284D01*
X034433Y017309D02*
X034433Y017409D01*
X034458Y017434D01*
X034508Y017434D01*
X034533Y017409D01*
X034531Y018243D02*
X034456Y018243D01*
X034456Y018393D01*
X034531Y018393D01*
X034556Y018368D01*
X034556Y018343D01*
X034531Y018318D01*
X034456Y018318D01*
X034531Y018318D02*
X034556Y018293D01*
X034556Y018268D01*
X034531Y018243D01*
X038648Y015364D02*
X038723Y015364D01*
X038748Y015339D01*
X038748Y015288D01*
X038723Y015263D01*
X038648Y015263D01*
X038648Y015213D02*
X038648Y015364D01*
X038795Y015364D02*
X038870Y015364D01*
X038895Y015339D01*
X038895Y015314D01*
X038870Y015288D01*
X038795Y015288D01*
X038795Y015213D02*
X038870Y015213D01*
X038895Y015238D01*
X038895Y015263D01*
X038870Y015288D01*
X038943Y015238D02*
X039043Y015339D01*
X039043Y015238D01*
X039018Y015213D01*
X038968Y015213D01*
X038943Y015238D01*
X038943Y015339D01*
X038968Y015364D01*
X039018Y015364D01*
X039043Y015339D01*
X038795Y015364D02*
X038795Y015213D01*
X038795Y014391D02*
X038770Y014366D01*
X038770Y014266D01*
X038795Y014241D01*
X038845Y014241D01*
X038870Y014266D01*
X038870Y014366D01*
X038845Y014391D01*
X038795Y014391D01*
X038722Y014366D02*
X038722Y014316D01*
X038697Y014291D01*
X038622Y014291D01*
X038622Y014241D02*
X038622Y014391D01*
X038697Y014391D01*
X038722Y014366D01*
X038917Y014391D02*
X039017Y014391D01*
X038967Y014391D02*
X038967Y014241D01*
X038928Y013238D02*
X038928Y013138D01*
X038878Y013188D02*
X038978Y013188D01*
X038982Y012172D02*
X038882Y012172D01*
X034482Y012172D02*
X034382Y012172D01*
X034428Y013138D02*
X034428Y013238D01*
X034378Y013188D02*
X034478Y013188D01*
X030035Y016377D02*
X029985Y016427D01*
X030010Y016427D02*
X029935Y016427D01*
X029935Y016377D02*
X029935Y016527D01*
X030010Y016527D01*
X030035Y016502D01*
X030035Y016452D01*
X030010Y016427D01*
X030008Y017284D02*
X030033Y017309D01*
X030033Y017359D01*
X029983Y017359D01*
X029933Y017309D02*
X029958Y017284D01*
X030008Y017284D01*
X029933Y017309D02*
X029933Y017409D01*
X029958Y017434D01*
X030008Y017434D01*
X030033Y017409D01*
X030031Y018243D02*
X029956Y018243D01*
X029956Y018393D01*
X030031Y018393D01*
X030056Y018368D01*
X030056Y018343D01*
X030031Y018318D01*
X029956Y018318D01*
X030031Y018318D02*
X030056Y018293D01*
X030056Y018268D01*
X030031Y018243D01*
X038956Y018243D02*
X039031Y018243D01*
X039056Y018268D01*
X039056Y018293D01*
X039031Y018318D01*
X038956Y018318D01*
X038956Y018243D02*
X038956Y018393D01*
X039031Y018393D01*
X039056Y018368D01*
X039056Y018343D01*
X039031Y018318D01*
X039008Y017434D02*
X038958Y017434D01*
X038933Y017409D01*
X038933Y017309D01*
X038958Y017284D01*
X039008Y017284D01*
X039033Y017309D01*
X039033Y017359D01*
X038983Y017359D01*
X039033Y017409D02*
X039008Y017434D01*
X039010Y016527D02*
X039035Y016502D01*
X039035Y016452D01*
X039010Y016427D01*
X038935Y016427D01*
X038985Y016427D02*
X039035Y016377D01*
X038935Y016377D02*
X038935Y016527D01*
X039010Y016527D01*
X013238Y019398D02*
X013138Y019398D01*
X013188Y019348D02*
X013188Y019448D01*
X012172Y019444D02*
X012172Y019344D01*
M02*
