G75*
G70*
%OFA0B0*%
%FSLAX24Y24*%
%IPPOS*%
%LPD*%
%AMOC8*
5,1,8,0,0,1.08239X$1,22.5*
%
%ADD10C,0.0080*%
%ADD11C,0.0040*%
%ADD12C,0.0010*%
D10*
X015210Y003410D02*
X015490Y003410D01*
X015670Y003480D02*
X015880Y003480D01*
X015950Y003550D01*
X015950Y003690D01*
X015880Y003760D01*
X015670Y003760D01*
X016130Y003690D02*
X016130Y003550D01*
X016201Y003480D01*
X016341Y003480D01*
X016411Y003550D01*
X016411Y003690D01*
X016341Y003760D01*
X016201Y003760D01*
X016130Y003690D01*
X016591Y003550D02*
X016661Y003620D01*
X016871Y003620D01*
X016871Y003690D02*
X016871Y003480D01*
X016661Y003480D01*
X016591Y003550D01*
X017051Y003620D02*
X017191Y003760D01*
X017261Y003760D01*
X017435Y003690D02*
X017505Y003760D01*
X017715Y003760D01*
X017435Y003690D02*
X017435Y003550D01*
X017505Y003480D01*
X017715Y003480D01*
X017715Y003900D01*
X018356Y003760D02*
X018356Y003480D01*
X018175Y003410D02*
X017895Y003410D01*
X017051Y003480D02*
X017051Y003760D01*
X016871Y003690D02*
X016801Y003760D01*
X016661Y003760D01*
X015670Y003900D02*
X015670Y003480D01*
X014966Y003760D02*
X014826Y003620D01*
X014646Y003690D02*
X014576Y003760D01*
X014436Y003760D01*
X014366Y003690D01*
X014366Y003550D01*
X014436Y003480D01*
X014576Y003480D01*
X014646Y003550D01*
X014646Y003690D01*
X014826Y003760D02*
X014826Y003480D01*
X014199Y003480D02*
X014059Y003480D01*
X014129Y003480D02*
X014129Y003900D01*
X014059Y003900D01*
X013879Y003690D02*
X013809Y003760D01*
X013669Y003760D01*
X013599Y003690D01*
X013599Y003550D01*
X013669Y003480D01*
X013809Y003480D01*
X013879Y003550D01*
X013879Y003690D01*
X013418Y003760D02*
X013208Y003760D01*
X013138Y003690D01*
X013138Y003550D01*
X013208Y003480D01*
X013418Y003480D01*
X012971Y003480D02*
X012831Y003480D01*
X012901Y003480D02*
X012901Y003760D01*
X012831Y003760D01*
X012658Y003760D02*
X012588Y003760D01*
X012448Y003620D01*
X012281Y003480D02*
X012211Y003550D01*
X012211Y003830D01*
X012141Y003760D02*
X012281Y003760D01*
X012448Y003760D02*
X012448Y003480D01*
X012901Y003900D02*
X012901Y003970D01*
X014966Y003760D02*
X015036Y003760D01*
X018356Y003620D02*
X018496Y003760D01*
X018566Y003760D01*
X018739Y003690D02*
X018809Y003760D01*
X018949Y003760D01*
X019019Y003690D01*
X019019Y003620D01*
X018739Y003620D01*
X018739Y003550D02*
X018739Y003690D01*
X019199Y003760D02*
X019340Y003480D01*
X019480Y003760D01*
X019660Y003690D02*
X019940Y003690D01*
X019870Y003900D02*
X019660Y003690D01*
X018809Y003480D02*
X018739Y003550D01*
X018809Y003480D02*
X018949Y003480D01*
X019870Y003480D02*
X019870Y003900D01*
X008175Y003813D02*
X008175Y003533D01*
X008105Y003463D01*
X007965Y003463D01*
X007895Y003533D01*
X008175Y003813D01*
X008105Y003883D01*
X007965Y003883D01*
X007895Y003813D01*
X007895Y003533D01*
X007715Y003463D02*
X007434Y003463D01*
X007574Y003463D02*
X007574Y003883D01*
X007434Y003743D01*
X007254Y003883D02*
X006974Y003463D01*
X006794Y003463D02*
X006514Y003463D01*
X006654Y003463D02*
X006654Y003883D01*
X006514Y003743D01*
X006333Y003743D02*
X006333Y003813D01*
X006263Y003883D01*
X006123Y003883D01*
X006053Y003813D01*
X005873Y003883D02*
X005593Y003463D01*
X005413Y003463D02*
X005133Y003463D01*
X005273Y003463D02*
X005273Y003883D01*
X005133Y003743D01*
X006053Y003463D02*
X006333Y003743D01*
X006333Y003463D02*
X006053Y003463D01*
D11*
X013442Y003187D02*
X013442Y002726D01*
X013595Y002880D02*
X013749Y002726D01*
X013672Y002880D02*
X013442Y002880D01*
X013672Y002880D02*
X013749Y002956D01*
X013749Y003110D01*
X013672Y003187D01*
X013442Y003187D01*
X014599Y003086D02*
X014599Y002779D01*
X014446Y002933D02*
X014752Y002933D01*
X015450Y002803D02*
X015526Y002726D01*
X015680Y002726D01*
X015756Y002803D01*
X015756Y002956D01*
X015603Y002956D01*
X015450Y002803D02*
X015450Y003110D01*
X015526Y003187D01*
X015680Y003187D01*
X015756Y003110D01*
X016501Y003187D02*
X016731Y003187D01*
X016808Y003110D01*
X016808Y003033D01*
X016731Y002956D01*
X016501Y002956D01*
X016731Y002956D02*
X016808Y002880D01*
X016808Y002803D01*
X016731Y002726D01*
X016501Y002726D01*
X016501Y003187D01*
D12*
X012092Y001414D02*
X012092Y001314D01*
X013057Y001368D02*
X013157Y001368D01*
X013107Y001318D02*
X013107Y001418D01*
X014160Y001451D02*
X014185Y001426D01*
X014285Y001426D01*
X014310Y001451D01*
X014310Y001501D01*
X014285Y001526D01*
X014185Y001526D01*
X014160Y001501D01*
X014160Y001451D01*
X014185Y001378D02*
X014235Y001378D01*
X014260Y001353D01*
X014260Y001278D01*
X014310Y001278D02*
X014160Y001278D01*
X014160Y001353D01*
X014185Y001378D01*
X014160Y001573D02*
X014160Y001673D01*
X014160Y001623D02*
X014310Y001623D01*
X015133Y001622D02*
X015133Y001572D01*
X015158Y001547D01*
X015258Y001547D01*
X015158Y001647D01*
X015258Y001647D01*
X015283Y001622D01*
X015283Y001572D01*
X015258Y001547D01*
X015258Y001500D02*
X015283Y001475D01*
X015283Y001400D01*
X015133Y001400D01*
X015133Y001475D01*
X015158Y001500D01*
X015183Y001500D01*
X015208Y001475D01*
X015208Y001400D01*
X015208Y001353D02*
X015233Y001328D01*
X015233Y001253D01*
X015283Y001253D02*
X015133Y001253D01*
X015133Y001328D01*
X015158Y001353D01*
X015208Y001353D01*
X015208Y001475D02*
X015233Y001500D01*
X015258Y001500D01*
X015133Y001622D02*
X015158Y001647D01*
X016296Y001336D02*
X016321Y001361D01*
X016371Y001361D01*
X016396Y001336D01*
X016396Y001261D01*
X016396Y001311D02*
X016446Y001361D01*
X016296Y001336D02*
X016296Y001261D01*
X016446Y001261D01*
X017204Y001287D02*
X017229Y001262D01*
X017329Y001262D01*
X017354Y001287D01*
X017354Y001338D01*
X017329Y001363D01*
X017279Y001363D01*
X017279Y001313D01*
X017229Y001363D02*
X017204Y001338D01*
X017204Y001287D01*
X018162Y001314D02*
X018162Y001239D01*
X018312Y001239D01*
X018312Y001314D01*
X018287Y001339D01*
X018262Y001339D01*
X018237Y001314D01*
X018237Y001239D01*
X018237Y001314D02*
X018212Y001339D01*
X018187Y001339D01*
X018162Y001314D01*
M02*
