%
M48
M72
T01C0.0200
T02C0.0320
T03C0.0400
T04C0.1300
%
T01
X5440Y2562
X4940Y3612
X5690Y4562
X5240Y5262
X7440Y5212
X8190Y4762
X8640Y5162
X7440Y4512
X7440Y5812
X7840Y6362
X8640Y7062
X5140Y7012
X12940Y7762
X17140Y8512
X18190Y8512
X18190Y7562
X17190Y7562
X17190Y6562
X18190Y6512
X18190Y5512
X17190Y5512
X17190Y4512
X18190Y4512
X18190Y3562
X17190Y3562
X17190Y2512
X18190Y2512
X12940Y4762
X12440Y2762
T02
X5290Y7812
X5290Y9812
T03
X2758Y9508
X2758Y8508
X1240Y7362
X1240Y6362
X1240Y5362
X1240Y4362
X1240Y3362
X3290Y1512
X4290Y1512
X5290Y1512
X6290Y1512
X7290Y1512
X8290Y1512
X9290Y1512
X10290Y1512
X9840Y9412
X10840Y9412
X8840Y9412
X7840Y9412
T04
X1240Y1262
X1240Y9762
X19440Y9762
X19440Y1262
M30
