G75*
G70*
%OFA0B0*%
%FSLAX24Y24*%
%IPPOS*%
%LPD*%
%AMOC8*
5,1,8,0,0,1.08239X$1,22.5*
%
%ADD10R,0.0789X0.0395*%
%ADD11R,0.0808X0.1261*%
%ADD12R,0.0710X0.0867*%
%ADD13OC8,0.0710*%
%ADD14R,0.0552X0.0395*%
%ADD15C,0.0680*%
%ADD16R,0.0680X0.0680*%
%ADD17C,0.1380*%
%ADD18R,0.0630X0.0217*%
%ADD19C,0.0440*%
D10*
X013836Y001557D03*
X013840Y002462D03*
X013836Y003368D03*
X013836Y004557D03*
X013840Y005462D03*
X013836Y006368D03*
X013836Y007507D03*
X013840Y008412D03*
X013836Y009318D03*
D11*
X015840Y008412D03*
X015840Y005462D03*
X015840Y002462D03*
D12*
X011841Y005212D03*
X010738Y005212D03*
X010738Y006312D03*
X011841Y006312D03*
X011841Y007412D03*
X010738Y007412D03*
X004291Y006362D03*
X003188Y006362D03*
X003188Y004862D03*
X004291Y004862D03*
X004291Y003612D03*
X003188Y003612D03*
D13*
X005290Y007812D03*
X005290Y009812D03*
D14*
X007340Y008166D03*
X008190Y008166D03*
X009090Y008166D03*
X009090Y007458D03*
X008190Y007458D03*
X007340Y007458D03*
X010940Y004016D03*
X010940Y003308D03*
D15*
X010290Y001512D03*
X009290Y001512D03*
X008290Y001512D03*
X007290Y001512D03*
X006290Y001512D03*
X005290Y001512D03*
X004290Y001512D03*
X001240Y003362D03*
X001240Y004362D03*
X001240Y005362D03*
X001240Y006362D03*
X001240Y007362D03*
X002758Y008508D03*
X002758Y009508D03*
X007840Y009412D03*
X008840Y009412D03*
X009840Y009412D03*
D16*
X010840Y009412D03*
X003290Y001512D03*
D17*
X001240Y001262D03*
X001240Y009762D03*
X019440Y009762D03*
X019440Y001262D03*
D18*
X009379Y003099D03*
X009379Y003355D03*
X009379Y003610D03*
X009379Y003866D03*
X009379Y004122D03*
X009379Y004378D03*
X009379Y004634D03*
X009379Y004890D03*
X009379Y005146D03*
X009379Y005402D03*
X009379Y005658D03*
X009379Y005914D03*
X009379Y006170D03*
X009379Y006425D03*
X006500Y006425D03*
X006500Y006170D03*
X006500Y005914D03*
X006500Y005658D03*
X006500Y005402D03*
X006500Y005146D03*
X006500Y004890D03*
X006500Y004634D03*
X006500Y004378D03*
X006500Y004122D03*
X006500Y003866D03*
X006500Y003610D03*
X006500Y003355D03*
X006500Y003099D03*
D19*
X005440Y002562D03*
X004940Y003612D03*
X005690Y004562D03*
X005240Y005262D03*
X007440Y005212D03*
X008190Y004762D03*
X008640Y005162D03*
X007440Y004512D03*
X007440Y005812D03*
X007840Y006362D03*
X008640Y007062D03*
X005140Y007012D03*
X012940Y007762D03*
X017140Y008512D03*
X018190Y008512D03*
X018190Y007562D03*
X017190Y007562D03*
X017190Y006562D03*
X018190Y006512D03*
X018190Y005512D03*
X017190Y005512D03*
X017190Y004512D03*
X018190Y004512D03*
X018190Y003562D03*
X017190Y003562D03*
X017190Y002512D03*
X018190Y002512D03*
X012940Y004762D03*
X012440Y002762D03*
M02*
