G75*
G70*
%OFA0B0*%
%FSLAX24Y24*%
%IPPOS*%
%LPD*%
%AMOC8*
5,1,8,0,0,1.08239X$1,22.5*
%
%ADD10OC8,0.0710*%
%ADD11C,0.0680*%
%ADD12R,0.0680X0.0680*%
%ADD13C,0.1380*%
%ADD14OC8,0.0730*%
%ADD15C,0.0390*%
%ADD16C,0.0440*%
%ADD17C,0.0490*%
D10*
X005451Y008151D03*
X005451Y010151D03*
D11*
X002919Y009847D03*
X002919Y008847D03*
X001751Y007501D03*
X001751Y006501D03*
X001751Y005501D03*
X001751Y004501D03*
X001751Y003501D03*
X004451Y001351D03*
X005451Y001351D03*
X006451Y001351D03*
X007451Y001351D03*
X008451Y001351D03*
X009451Y001351D03*
X010451Y001351D03*
X011001Y010251D03*
X012001Y010251D03*
X013001Y010251D03*
X006601Y012601D03*
X006601Y013601D03*
X006601Y014601D03*
X007101Y016101D03*
X008101Y016101D03*
X009101Y016101D03*
X006101Y016101D03*
X005101Y016101D03*
X004101Y016101D03*
X003101Y016101D03*
X003601Y014601D03*
X003601Y013601D03*
X003601Y012601D03*
X001101Y012601D03*
X001101Y013601D03*
X001101Y014601D03*
D12*
X001101Y015601D03*
X010101Y016101D03*
X014001Y010251D03*
X003451Y001351D03*
D13*
X001401Y001351D03*
X001401Y010201D03*
X022151Y010201D03*
X022201Y001351D03*
D14*
X021522Y012931D03*
X011660Y012912D03*
X011660Y014290D03*
D15*
X011101Y008501D03*
X009651Y008051D03*
X009601Y005001D03*
X011501Y004501D03*
X008051Y002651D03*
X007601Y003501D03*
X006601Y004001D03*
X007601Y004501D03*
X006601Y005001D03*
X003601Y003501D03*
X004101Y007501D03*
D16*
X019601Y007601D03*
X020601Y007601D03*
X020601Y008601D03*
X020601Y009601D03*
X019601Y009601D03*
X019601Y008601D03*
X019601Y006601D03*
X020601Y006601D03*
X020601Y005601D03*
X019601Y005601D03*
X019601Y004601D03*
X020601Y004601D03*
X020601Y003601D03*
X020601Y002601D03*
X019601Y002601D03*
X019601Y003601D03*
D17*
X015601Y002401D03*
X015601Y005401D03*
X015701Y008351D03*
M02*
