G75*
G70*
%OFA0B0*%
%FSLAX24Y24*%
%IPPOS*%
%LPD*%
%AMOC8*
5,1,8,0,0,1.08239X$1,22.5*
%
%ADD10C,0.0050*%
D10*
X018145Y004145D02*
X018145Y004280D01*
X018190Y004325D01*
X018235Y004325D01*
X018280Y004280D01*
X018280Y004145D01*
X018145Y004145D02*
X018416Y004145D01*
X018416Y004280D01*
X018371Y004325D01*
X018326Y004325D01*
X018280Y004280D01*
X018732Y004280D02*
X018732Y004190D01*
X018777Y004145D01*
X018957Y004145D01*
X019002Y004190D01*
X019002Y004280D01*
X018957Y004325D01*
X018867Y004325D01*
X018867Y004235D01*
X018777Y004325D02*
X018732Y004280D01*
X019332Y004236D02*
X019332Y004101D01*
X019603Y004101D01*
X019513Y004101D02*
X019513Y004236D01*
X019467Y004281D01*
X019377Y004281D01*
X019332Y004236D01*
X019513Y004191D02*
X019603Y004281D01*
X019944Y004246D02*
X019944Y004111D01*
X020214Y004111D01*
X020124Y004111D02*
X020124Y004246D01*
X020079Y004291D01*
X019989Y004291D01*
X019944Y004246D01*
X019944Y004406D02*
X019944Y004541D01*
X019989Y004586D01*
X020034Y004586D01*
X020079Y004541D01*
X020079Y004406D01*
X020079Y004541D02*
X020124Y004586D01*
X020169Y004586D01*
X020214Y004541D01*
X020214Y004406D01*
X019944Y004406D01*
X020513Y004258D02*
X020513Y004123D01*
X020784Y004123D01*
X020694Y004123D02*
X020694Y004258D01*
X020649Y004303D01*
X020559Y004303D01*
X020513Y004258D01*
X021153Y004224D02*
X021333Y004224D01*
X021243Y004314D02*
X021243Y004134D01*
X021737Y004180D02*
X021917Y004180D01*
X021243Y009134D02*
X021243Y009314D01*
X021153Y009224D02*
X021333Y009224D01*
X021737Y009180D02*
X021917Y009180D01*
X020784Y009123D02*
X020513Y009123D01*
X020513Y009258D01*
X020559Y009303D01*
X020649Y009303D01*
X020694Y009258D01*
X020694Y009123D01*
X020214Y009111D02*
X019944Y009111D01*
X019944Y009246D01*
X019989Y009291D01*
X020079Y009291D01*
X020124Y009246D01*
X020124Y009111D01*
X020079Y009406D02*
X020079Y009541D01*
X020124Y009586D01*
X020169Y009586D01*
X020214Y009541D01*
X020214Y009406D01*
X019944Y009406D01*
X019944Y009541D01*
X019989Y009586D01*
X020034Y009586D01*
X020079Y009541D01*
X019603Y009281D02*
X019513Y009191D01*
X019513Y009236D02*
X019513Y009101D01*
X019603Y009101D02*
X019332Y009101D01*
X019332Y009236D01*
X019377Y009281D01*
X019467Y009281D01*
X019513Y009236D01*
X019002Y009280D02*
X018957Y009325D01*
X018867Y009325D01*
X018867Y009235D01*
X018777Y009325D02*
X018732Y009280D01*
X018732Y009190D01*
X018777Y009145D01*
X018957Y009145D01*
X019002Y009190D01*
X019002Y009280D01*
X018416Y009280D02*
X018416Y009145D01*
X018145Y009145D01*
X018145Y009280D01*
X018190Y009325D01*
X018235Y009325D01*
X018280Y009280D01*
X018280Y009145D01*
X018280Y009280D02*
X018326Y009325D01*
X018371Y009325D01*
X018416Y009280D01*
X018416Y014145D02*
X018145Y014145D01*
X018145Y014280D01*
X018190Y014325D01*
X018235Y014325D01*
X018280Y014280D01*
X018280Y014145D01*
X018280Y014280D02*
X018326Y014325D01*
X018371Y014325D01*
X018416Y014280D01*
X018416Y014145D01*
X018732Y014190D02*
X018732Y014280D01*
X018777Y014325D01*
X018867Y014325D02*
X018867Y014235D01*
X018867Y014325D02*
X018957Y014325D01*
X019002Y014280D01*
X019002Y014190D01*
X018957Y014145D01*
X018777Y014145D01*
X018732Y014190D01*
X019332Y014236D02*
X019377Y014281D01*
X019467Y014281D01*
X019513Y014236D01*
X019513Y014101D01*
X019603Y014101D02*
X019332Y014101D01*
X019332Y014236D01*
X019513Y014191D02*
X019603Y014281D01*
X019944Y014246D02*
X019944Y014111D01*
X020214Y014111D01*
X020124Y014111D02*
X020124Y014246D01*
X020079Y014291D01*
X019989Y014291D01*
X019944Y014246D01*
X019944Y014406D02*
X019944Y014541D01*
X019989Y014586D01*
X020034Y014586D01*
X020079Y014541D01*
X020079Y014406D01*
X020079Y014541D02*
X020124Y014586D01*
X020169Y014586D01*
X020214Y014541D01*
X020214Y014406D01*
X019944Y014406D01*
X020513Y014258D02*
X020513Y014123D01*
X020784Y014123D01*
X020694Y014123D02*
X020694Y014258D01*
X020649Y014303D01*
X020559Y014303D01*
X020513Y014258D01*
X021153Y014224D02*
X021333Y014224D01*
X021243Y014314D02*
X021243Y014134D01*
X021737Y014180D02*
X021917Y014180D01*
X021243Y019134D02*
X021243Y019314D01*
X021153Y019224D02*
X021333Y019224D01*
X021737Y019180D02*
X021917Y019180D01*
X020784Y019123D02*
X020513Y019123D01*
X020513Y019258D01*
X020559Y019303D01*
X020649Y019303D01*
X020694Y019258D01*
X020694Y019123D01*
X020214Y019111D02*
X019944Y019111D01*
X019944Y019246D01*
X019989Y019291D01*
X020079Y019291D01*
X020124Y019246D01*
X020124Y019111D01*
X020079Y019406D02*
X020079Y019541D01*
X020124Y019586D01*
X020169Y019586D01*
X020214Y019541D01*
X020214Y019406D01*
X019944Y019406D01*
X019944Y019541D01*
X019989Y019586D01*
X020034Y019586D01*
X020079Y019541D01*
X019603Y019281D02*
X019513Y019191D01*
X019513Y019236D02*
X019513Y019101D01*
X019603Y019101D02*
X019332Y019101D01*
X019332Y019236D01*
X019377Y019281D01*
X019467Y019281D01*
X019513Y019236D01*
X019002Y019280D02*
X018957Y019325D01*
X018867Y019325D01*
X018867Y019235D01*
X018777Y019325D02*
X018732Y019280D01*
X018732Y019190D01*
X018777Y019145D01*
X018957Y019145D01*
X019002Y019190D01*
X019002Y019280D01*
X018416Y019280D02*
X018416Y019145D01*
X018145Y019145D01*
X018145Y019280D01*
X018190Y019325D01*
X018235Y019325D01*
X018280Y019280D01*
X018280Y019145D01*
X018280Y019280D02*
X018326Y019325D01*
X018371Y019325D01*
X018416Y019280D01*
X018416Y024145D02*
X018145Y024145D01*
X018145Y024280D01*
X018190Y024325D01*
X018235Y024325D01*
X018280Y024280D01*
X018280Y024145D01*
X018280Y024280D02*
X018326Y024325D01*
X018371Y024325D01*
X018416Y024280D01*
X018416Y024145D01*
X018732Y024190D02*
X018732Y024280D01*
X018777Y024325D01*
X018867Y024325D02*
X018867Y024235D01*
X018867Y024325D02*
X018957Y024325D01*
X019002Y024280D01*
X019002Y024190D01*
X018957Y024145D01*
X018777Y024145D01*
X018732Y024190D01*
X019332Y024236D02*
X019377Y024281D01*
X019467Y024281D01*
X019513Y024236D01*
X019513Y024101D01*
X019603Y024101D02*
X019332Y024101D01*
X019332Y024236D01*
X019513Y024191D02*
X019603Y024281D01*
X019944Y024246D02*
X019989Y024291D01*
X020079Y024291D01*
X020124Y024246D01*
X020124Y024111D01*
X020214Y024111D02*
X019944Y024111D01*
X019944Y024246D01*
X019944Y024406D02*
X019944Y024541D01*
X019989Y024586D01*
X020034Y024586D01*
X020079Y024541D01*
X020079Y024406D01*
X020079Y024541D02*
X020124Y024586D01*
X020169Y024586D01*
X020214Y024541D01*
X020214Y024406D01*
X019944Y024406D01*
X020513Y024258D02*
X020513Y024123D01*
X020784Y024123D01*
X020694Y024123D02*
X020694Y024258D01*
X020649Y024303D01*
X020559Y024303D01*
X020513Y024258D01*
X021153Y024224D02*
X021333Y024224D01*
X021243Y024314D02*
X021243Y024134D01*
X021737Y024180D02*
X021917Y024180D01*
X021243Y029134D02*
X021243Y029314D01*
X021153Y029224D02*
X021333Y029224D01*
X021737Y029180D02*
X021917Y029180D01*
X020784Y029123D02*
X020513Y029123D01*
X020513Y029258D01*
X020559Y029303D01*
X020649Y029303D01*
X020694Y029258D01*
X020694Y029123D01*
X020214Y029111D02*
X019944Y029111D01*
X019944Y029246D01*
X019989Y029291D01*
X020079Y029291D01*
X020124Y029246D01*
X020124Y029111D01*
X020079Y029406D02*
X020079Y029541D01*
X020124Y029586D01*
X020169Y029586D01*
X020214Y029541D01*
X020214Y029406D01*
X019944Y029406D01*
X019944Y029541D01*
X019989Y029586D01*
X020034Y029586D01*
X020079Y029541D01*
X019603Y029281D02*
X019513Y029191D01*
X019513Y029236D02*
X019513Y029101D01*
X019603Y029101D02*
X019332Y029101D01*
X019332Y029236D01*
X019377Y029281D01*
X019467Y029281D01*
X019513Y029236D01*
X019002Y029280D02*
X018957Y029325D01*
X018867Y029325D01*
X018867Y029235D01*
X018777Y029325D02*
X018732Y029280D01*
X018732Y029190D01*
X018777Y029145D01*
X018957Y029145D01*
X019002Y029190D01*
X019002Y029280D01*
X018416Y029280D02*
X018416Y029145D01*
X018145Y029145D01*
X018145Y029280D01*
X018190Y029325D01*
X018235Y029325D01*
X018280Y029280D01*
X018280Y029145D01*
X018280Y029280D02*
X018326Y029325D01*
X018371Y029325D01*
X018416Y029280D01*
X031019Y021273D02*
X031199Y021273D01*
X031109Y021183D02*
X031109Y021363D01*
X031152Y021767D02*
X031152Y021948D01*
X031100Y020814D02*
X030965Y020814D01*
X030965Y020544D01*
X030965Y020634D02*
X031100Y020634D01*
X031145Y020679D01*
X031145Y020769D01*
X031100Y020814D01*
X031112Y020244D02*
X030977Y020244D01*
X030977Y019974D01*
X031112Y019974D01*
X031157Y020019D01*
X031157Y020064D01*
X031112Y020109D01*
X030977Y020109D01*
X030862Y020109D02*
X030817Y020064D01*
X030682Y020064D01*
X030682Y019974D02*
X030682Y020244D01*
X030817Y020244D01*
X030862Y020199D01*
X030862Y020109D01*
X031112Y020109D02*
X031157Y020154D01*
X031157Y020199D01*
X031112Y020244D01*
X031122Y019633D02*
X030987Y019633D01*
X030987Y019363D01*
X030987Y019453D02*
X031122Y019453D01*
X031167Y019498D01*
X031167Y019588D01*
X031122Y019633D01*
X031077Y019453D02*
X031167Y019363D01*
X031078Y019033D02*
X030988Y019033D01*
X030943Y018988D01*
X030943Y018807D01*
X030988Y018762D01*
X031078Y018762D01*
X031123Y018807D01*
X031123Y018897D01*
X031033Y018897D01*
X031123Y018988D02*
X031078Y019033D01*
X031078Y018446D02*
X030943Y018446D01*
X030943Y018176D01*
X031078Y018176D01*
X031123Y018221D01*
X031123Y018266D01*
X031078Y018311D01*
X030943Y018311D01*
X031078Y018311D02*
X031123Y018356D01*
X031123Y018401D01*
X031078Y018446D01*
X035682Y019974D02*
X035682Y020244D01*
X035817Y020244D01*
X035862Y020199D01*
X035862Y020109D01*
X035817Y020064D01*
X035682Y020064D01*
X035977Y020109D02*
X036112Y020109D01*
X036157Y020064D01*
X036157Y020019D01*
X036112Y019974D01*
X035977Y019974D01*
X035977Y020244D01*
X036112Y020244D01*
X036157Y020199D01*
X036157Y020154D01*
X036112Y020109D01*
X035965Y020544D02*
X035965Y020814D01*
X036100Y020814D01*
X036145Y020769D01*
X036145Y020679D01*
X036100Y020634D01*
X035965Y020634D01*
X036109Y021183D02*
X036109Y021363D01*
X036019Y021273D02*
X036199Y021273D01*
X036152Y021767D02*
X036152Y021948D01*
X036122Y019633D02*
X036167Y019588D01*
X036167Y019498D01*
X036122Y019453D01*
X035987Y019453D01*
X036077Y019453D02*
X036167Y019363D01*
X035987Y019363D02*
X035987Y019633D01*
X036122Y019633D01*
X036078Y019033D02*
X035988Y019033D01*
X035943Y018988D01*
X035943Y018807D01*
X035988Y018762D01*
X036078Y018762D01*
X036123Y018807D01*
X036123Y018897D01*
X036033Y018897D01*
X036123Y018988D02*
X036078Y019033D01*
X036078Y018446D02*
X036123Y018401D01*
X036123Y018356D01*
X036078Y018311D01*
X035943Y018311D01*
X035943Y018176D02*
X035943Y018446D01*
X036078Y018446D01*
X036078Y018311D02*
X036123Y018266D01*
X036123Y018221D01*
X036078Y018176D01*
X035943Y018176D01*
M02*
