%
M48
M72
T01C0.0197
T02C0.0433
T03C0.0470
T04C0.0710
T05C0.1300
%
T01
X3385Y1158
X4917Y1176
X4915Y4181
X3385Y4195
X3385Y6158
X4917Y6176
X4915Y9181
X3385Y9195
X3385Y11158
X4917Y11176
X4915Y14181
X3385Y14195
X3385Y16158
X4917Y16176
X4915Y19181
X3385Y19195
X3385Y21158
X4917Y21176
X4915Y24181
X3385Y24195
X3385Y26158
X4917Y26176
X4915Y29181
X3385Y29195
X20070Y29548
X20653Y26953
X20070Y24548
X20653Y21953
X20070Y19548
X20653Y16953
X20070Y14548
X20653Y11953
X20070Y9548
X20653Y6953
X20070Y4548
X20653Y1953
X31137Y3416
X31151Y4945
X34157Y4947
X34175Y3416
X36137Y3416
X36151Y4945
X39157Y4947
X39175Y3416
X35785Y20101
X33380Y20683
X30785Y20101
X38380Y20683
T02
X38320Y25103
X33320Y25103
X25072Y27012
X25072Y22012
X25072Y17012
X25072Y12012
X25072Y7012
X25072Y2012
X15210Y1992
X15210Y3370
X15210Y6992
X15210Y8370
X15210Y11992
X15210Y13370
X15210Y16992
X15210Y18370
X15210Y21992
X15210Y23370
X15210Y26992
X15210Y28370
X31962Y15240
X33340Y15240
X36962Y15240
X38340Y15240
T03
X38631Y11641
X36671Y11641
X33631Y11641
X31671Y11641
X31671Y6721
X33631Y6721
X36671Y6721
X38631Y6721
X11611Y6701
X11611Y8661
X11611Y11701
X11611Y13661
X11611Y16701
X11611Y18661
X11611Y21701
X11611Y23661
X11611Y26701
X11611Y28661
X6691Y28661
X6691Y26701
X6691Y23661
X6691Y21701
X6691Y18661
X6691Y16701
X6691Y13661
X6691Y11701
X6691Y8661
X6691Y6701
X6691Y3661
X6691Y1701
X11611Y1701
X11611Y3661
T04
X9151Y4451
X9151Y5911
X9151Y9451
X9151Y10911
X9151Y14451
X9151Y15911
X9151Y19451
X9151Y20911
X9151Y24451
X9151Y25911
X9151Y29451
X30881Y9181
X34421Y9181
X35881Y9181
X39421Y9181
X9151Y911
T05
X1651Y2681
X1651Y7681
X1651Y12681
X1651Y17681
X1651Y22681
X1651Y27681
X28651Y27681
X32651Y28681
X37651Y28681
X28651Y22681
X28651Y17681
X28651Y12681
X28651Y7681
X28651Y2681
X32651Y1681
X37651Y1681
M30
