G75*
G70*
%OFA0B0*%
%FSLAX24Y24*%
%IPPOS*%
%LPD*%
%AMOC8*
5,1,8,0,0,1.08239X$1,22.5*
%
%ADD10OC8,0.0630*%
%ADD11C,0.0600*%
%ADD12R,0.0600X0.0600*%
%ADD13OC8,0.0650*%
%ADD14C,0.0100*%
%ADD15C,0.0310*%
%ADD16C,0.0360*%
%ADD17C,0.0250*%
%ADD18C,0.0410*%
D10*
X005451Y008151D03*
X005451Y010151D03*
D11*
X002919Y009847D03*
X002919Y008847D03*
X001751Y007501D03*
X001751Y006501D03*
X001751Y005501D03*
X001751Y004501D03*
X001751Y003501D03*
X004451Y001351D03*
X005451Y001351D03*
X006451Y001351D03*
X007451Y001351D03*
X008451Y001351D03*
X009451Y001351D03*
X010451Y001351D03*
X011001Y010251D03*
X012001Y010251D03*
X013001Y010251D03*
X006601Y012601D03*
X006601Y013601D03*
X006601Y014601D03*
X007101Y016101D03*
X008101Y016101D03*
X009101Y016101D03*
X006101Y016101D03*
X005101Y016101D03*
X004101Y016101D03*
X003101Y016101D03*
X003601Y014601D03*
X003601Y013601D03*
X003601Y012601D03*
X001101Y012601D03*
X001101Y013601D03*
X001101Y014601D03*
D12*
X001101Y015601D03*
X010101Y016101D03*
X014001Y010251D03*
X003451Y001351D03*
D13*
X011660Y012912D03*
X011660Y014290D03*
X021522Y012931D03*
D14*
X003451Y001351D02*
X002601Y002201D01*
X002601Y005001D01*
X002101Y005501D01*
X001751Y005501D01*
X001751Y006501D02*
X008101Y006501D01*
X009651Y008051D01*
X011101Y008001D02*
X011101Y005001D01*
X011501Y004501D01*
X011101Y005001D02*
X009601Y005001D01*
X008051Y004501D02*
X007751Y005001D01*
X006601Y005001D01*
X007101Y004001D02*
X007601Y004501D01*
X008051Y004501D02*
X008051Y002651D01*
X007601Y003501D02*
X005451Y001351D01*
X004451Y001351D02*
X004451Y002151D01*
X003601Y003001D01*
X003601Y003501D01*
X006601Y004001D02*
X007101Y004001D01*
X006601Y007501D02*
X004101Y007501D01*
X006601Y007501D02*
X007601Y008501D01*
X011101Y008501D01*
X011601Y008501D02*
X011101Y008001D01*
X011601Y008501D02*
X011601Y009651D01*
X011001Y010251D01*
X008101Y012601D02*
X010101Y014601D01*
X010101Y016101D01*
X010601Y016601D02*
X011601Y015601D01*
X011601Y014349D01*
X011660Y014290D01*
X011660Y012912D02*
X010101Y014471D01*
X010101Y014601D01*
X008101Y016101D02*
X008601Y016601D01*
X010601Y016601D01*
X007101Y016101D02*
X007101Y014101D01*
X006601Y013601D01*
X006601Y012601D02*
X008101Y012601D01*
X006601Y012601D02*
X003601Y012601D01*
X003601Y013601D02*
X006101Y015601D01*
X006101Y016101D01*
X005101Y016101D02*
X004601Y016601D01*
X001101Y016601D01*
X000601Y016101D01*
X000601Y013101D01*
X001101Y012601D01*
X001101Y014601D02*
X001601Y014601D01*
X002601Y015601D01*
X003601Y015601D01*
X004101Y016101D01*
X003101Y016101D02*
X001601Y016101D01*
X001101Y015601D01*
X017601Y010501D02*
X020701Y010501D01*
X021051Y010151D01*
X021051Y010056D01*
X021126Y009776D01*
X021271Y009525D01*
X021475Y009321D01*
X021601Y009248D01*
X021601Y002451D01*
X021151Y002001D01*
X017601Y002001D01*
X017601Y010501D01*
X017601Y010448D02*
X020754Y010448D01*
X020852Y010349D02*
X017601Y010349D01*
X017601Y010251D02*
X020951Y010251D01*
X021049Y010152D02*
X017601Y010152D01*
X017601Y010054D02*
X021051Y010054D01*
X021078Y009955D02*
X017601Y009955D01*
X017601Y009857D02*
X021104Y009857D01*
X021136Y009758D02*
X017601Y009758D01*
X017601Y009659D02*
X021193Y009659D01*
X021250Y009561D02*
X017601Y009561D01*
X017601Y009462D02*
X021334Y009462D01*
X021432Y009364D02*
X017601Y009364D01*
X017601Y009265D02*
X021571Y009265D01*
X021601Y009167D02*
X017601Y009167D01*
X017601Y009068D02*
X021601Y009068D01*
X021601Y008970D02*
X017601Y008970D01*
X017601Y008871D02*
X021601Y008871D01*
X021601Y008773D02*
X017601Y008773D01*
X017601Y008674D02*
X021601Y008674D01*
X021601Y008576D02*
X017601Y008576D01*
X017601Y008477D02*
X021601Y008477D01*
X021601Y008378D02*
X017601Y008378D01*
X017601Y008280D02*
X021601Y008280D01*
X021601Y008181D02*
X017601Y008181D01*
X017601Y008083D02*
X021601Y008083D01*
X021601Y007984D02*
X017601Y007984D01*
X017601Y007886D02*
X021601Y007886D01*
X021601Y007787D02*
X017601Y007787D01*
X017601Y007689D02*
X021601Y007689D01*
X021601Y007590D02*
X017601Y007590D01*
X017601Y007492D02*
X021601Y007492D01*
X021601Y007393D02*
X017601Y007393D01*
X017601Y007294D02*
X021601Y007294D01*
X021601Y007196D02*
X017601Y007196D01*
X017601Y007097D02*
X021601Y007097D01*
X021601Y006999D02*
X017601Y006999D01*
X017601Y006900D02*
X021601Y006900D01*
X021601Y006802D02*
X017601Y006802D01*
X017601Y006703D02*
X021601Y006703D01*
X021601Y006605D02*
X017601Y006605D01*
X017601Y006506D02*
X021601Y006506D01*
X021601Y006408D02*
X017601Y006408D01*
X017601Y006309D02*
X021601Y006309D01*
X021601Y006210D02*
X017601Y006210D01*
X017601Y006112D02*
X021601Y006112D01*
X021601Y006013D02*
X017601Y006013D01*
X017601Y005915D02*
X021601Y005915D01*
X021601Y005816D02*
X017601Y005816D01*
X017601Y005718D02*
X021601Y005718D01*
X021601Y005619D02*
X017601Y005619D01*
X017601Y005521D02*
X021601Y005521D01*
X021601Y005422D02*
X017601Y005422D01*
X017601Y005324D02*
X021601Y005324D01*
X021601Y005225D02*
X017601Y005225D01*
X017601Y005126D02*
X021601Y005126D01*
X021601Y005028D02*
X017601Y005028D01*
X017601Y004929D02*
X021601Y004929D01*
X021601Y004831D02*
X017601Y004831D01*
X017601Y004732D02*
X021601Y004732D01*
X021601Y004634D02*
X017601Y004634D01*
X017601Y004535D02*
X021601Y004535D01*
X021601Y004437D02*
X017601Y004437D01*
X017601Y004338D02*
X021601Y004338D01*
X021601Y004240D02*
X017601Y004240D01*
X017601Y004141D02*
X021601Y004141D01*
X021601Y004043D02*
X017601Y004043D01*
X017601Y003944D02*
X021601Y003944D01*
X021601Y003845D02*
X017601Y003845D01*
X017601Y003747D02*
X021601Y003747D01*
X021601Y003648D02*
X017601Y003648D01*
X017601Y003550D02*
X021601Y003550D01*
X021601Y003451D02*
X017601Y003451D01*
X017601Y003353D02*
X021601Y003353D01*
X021601Y003254D02*
X017601Y003254D01*
X017601Y003156D02*
X021601Y003156D01*
X021601Y003057D02*
X017601Y003057D01*
X017601Y002959D02*
X021601Y002959D01*
X021601Y002860D02*
X017601Y002860D01*
X017601Y002761D02*
X021601Y002761D01*
X021601Y002663D02*
X017601Y002663D01*
X017601Y002564D02*
X021601Y002564D01*
X021601Y002466D02*
X017601Y002466D01*
X017601Y002367D02*
X021517Y002367D01*
X021419Y002269D02*
X017601Y002269D01*
X017601Y002170D02*
X021320Y002170D01*
X021222Y002072D02*
X017601Y002072D01*
D15*
X011501Y004501D03*
X009601Y005001D03*
X007601Y004501D03*
X006601Y005001D03*
X006601Y004001D03*
X007601Y003501D03*
X008051Y002651D03*
X003601Y003501D03*
X004101Y007501D03*
X009651Y008051D03*
X011101Y008501D03*
D16*
X019601Y008601D03*
X019601Y009601D03*
X020601Y009601D03*
X020601Y008601D03*
X020601Y007601D03*
X019601Y007601D03*
X019601Y006601D03*
X020601Y006601D03*
X020601Y005601D03*
X019601Y005601D03*
X019601Y004601D03*
X020601Y004601D03*
X020601Y003601D03*
X020601Y002601D03*
X019601Y002601D03*
X019601Y003601D03*
D17*
X015601Y002401D02*
X013601Y002401D01*
X012001Y004101D01*
X012001Y010251D01*
X013001Y010251D02*
X013001Y006601D01*
X014101Y005401D01*
X015601Y005401D01*
X015701Y008351D02*
X014001Y010101D01*
X014001Y010251D01*
D18*
X015701Y008351D03*
X015601Y005401D03*
X015601Y002401D03*
M02*
