G75*
G70*
%OFA0B0*%
%FSLAX24Y24*%
%IPPOS*%
%LPD*%
%AMOC8*
5,1,8,0,0,1.08239X$1,22.5*
%
%ADD10C,0.0000*%
%ADD11R,0.0709X0.0315*%
%ADD12R,0.0728X0.1181*%
%ADD13R,0.0630X0.0787*%
%ADD14OC8,0.0630*%
%ADD15R,0.0472X0.0315*%
%ADD16C,0.0600*%
%ADD17R,0.0600X0.0600*%
%ADD18R,0.0550X0.0137*%
%ADD19OC8,0.0594*%
%ADD20C,0.0100*%
%ADD21C,0.0360*%
%ADD22C,0.0500*%
%ADD23C,0.0357*%
%ADD24C,0.0396*%
%ADD25C,0.0320*%
D10*
X000333Y000262D02*
X000333Y010761D01*
X025353Y010758D01*
X025353Y000262D01*
X000333Y000262D01*
X000582Y001262D02*
X000584Y001312D01*
X000590Y001362D01*
X000600Y001412D01*
X000613Y001460D01*
X000630Y001508D01*
X000651Y001554D01*
X000675Y001598D01*
X000703Y001640D01*
X000734Y001680D01*
X000768Y001717D01*
X000805Y001752D01*
X000844Y001783D01*
X000885Y001812D01*
X000929Y001837D01*
X000975Y001859D01*
X001022Y001877D01*
X001070Y001891D01*
X001119Y001902D01*
X001169Y001909D01*
X001219Y001912D01*
X001270Y001911D01*
X001320Y001906D01*
X001370Y001897D01*
X001418Y001885D01*
X001466Y001868D01*
X001512Y001848D01*
X001557Y001825D01*
X001600Y001798D01*
X001640Y001768D01*
X001678Y001735D01*
X001713Y001699D01*
X001746Y001660D01*
X001775Y001619D01*
X001801Y001576D01*
X001824Y001531D01*
X001843Y001484D01*
X001858Y001436D01*
X001870Y001387D01*
X001878Y001337D01*
X001882Y001287D01*
X001882Y001237D01*
X001878Y001187D01*
X001870Y001137D01*
X001858Y001088D01*
X001843Y001040D01*
X001824Y000993D01*
X001801Y000948D01*
X001775Y000905D01*
X001746Y000864D01*
X001713Y000825D01*
X001678Y000789D01*
X001640Y000756D01*
X001600Y000726D01*
X001557Y000699D01*
X001512Y000676D01*
X001466Y000656D01*
X001418Y000639D01*
X001370Y000627D01*
X001320Y000618D01*
X001270Y000613D01*
X001219Y000612D01*
X001169Y000615D01*
X001119Y000622D01*
X001070Y000633D01*
X001022Y000647D01*
X000975Y000665D01*
X000929Y000687D01*
X000885Y000712D01*
X000844Y000741D01*
X000805Y000772D01*
X000768Y000807D01*
X000734Y000844D01*
X000703Y000884D01*
X000675Y000926D01*
X000651Y000970D01*
X000630Y001016D01*
X000613Y001064D01*
X000600Y001112D01*
X000590Y001162D01*
X000584Y001212D01*
X000582Y001262D01*
X000583Y009762D02*
X000585Y009812D01*
X000591Y009862D01*
X000601Y009912D01*
X000614Y009960D01*
X000631Y010008D01*
X000652Y010054D01*
X000676Y010098D01*
X000704Y010140D01*
X000735Y010180D01*
X000769Y010217D01*
X000806Y010252D01*
X000845Y010283D01*
X000886Y010312D01*
X000930Y010337D01*
X000976Y010359D01*
X001023Y010377D01*
X001071Y010391D01*
X001120Y010402D01*
X001170Y010409D01*
X001220Y010412D01*
X001271Y010411D01*
X001321Y010406D01*
X001371Y010397D01*
X001419Y010385D01*
X001467Y010368D01*
X001513Y010348D01*
X001558Y010325D01*
X001601Y010298D01*
X001641Y010268D01*
X001679Y010235D01*
X001714Y010199D01*
X001747Y010160D01*
X001776Y010119D01*
X001802Y010076D01*
X001825Y010031D01*
X001844Y009984D01*
X001859Y009936D01*
X001871Y009887D01*
X001879Y009837D01*
X001883Y009787D01*
X001883Y009737D01*
X001879Y009687D01*
X001871Y009637D01*
X001859Y009588D01*
X001844Y009540D01*
X001825Y009493D01*
X001802Y009448D01*
X001776Y009405D01*
X001747Y009364D01*
X001714Y009325D01*
X001679Y009289D01*
X001641Y009256D01*
X001601Y009226D01*
X001558Y009199D01*
X001513Y009176D01*
X001467Y009156D01*
X001419Y009139D01*
X001371Y009127D01*
X001321Y009118D01*
X001271Y009113D01*
X001220Y009112D01*
X001170Y009115D01*
X001120Y009122D01*
X001071Y009133D01*
X001023Y009147D01*
X000976Y009165D01*
X000930Y009187D01*
X000886Y009212D01*
X000845Y009241D01*
X000806Y009272D01*
X000769Y009307D01*
X000735Y009344D01*
X000704Y009384D01*
X000676Y009426D01*
X000652Y009470D01*
X000631Y009516D01*
X000614Y009564D01*
X000601Y009612D01*
X000591Y009662D01*
X000585Y009712D01*
X000583Y009762D01*
X023683Y009762D02*
X023685Y009812D01*
X023691Y009862D01*
X023701Y009912D01*
X023714Y009960D01*
X023731Y010008D01*
X023752Y010054D01*
X023776Y010098D01*
X023804Y010140D01*
X023835Y010180D01*
X023869Y010217D01*
X023906Y010252D01*
X023945Y010283D01*
X023986Y010312D01*
X024030Y010337D01*
X024076Y010359D01*
X024123Y010377D01*
X024171Y010391D01*
X024220Y010402D01*
X024270Y010409D01*
X024320Y010412D01*
X024371Y010411D01*
X024421Y010406D01*
X024471Y010397D01*
X024519Y010385D01*
X024567Y010368D01*
X024613Y010348D01*
X024658Y010325D01*
X024701Y010298D01*
X024741Y010268D01*
X024779Y010235D01*
X024814Y010199D01*
X024847Y010160D01*
X024876Y010119D01*
X024902Y010076D01*
X024925Y010031D01*
X024944Y009984D01*
X024959Y009936D01*
X024971Y009887D01*
X024979Y009837D01*
X024983Y009787D01*
X024983Y009737D01*
X024979Y009687D01*
X024971Y009637D01*
X024959Y009588D01*
X024944Y009540D01*
X024925Y009493D01*
X024902Y009448D01*
X024876Y009405D01*
X024847Y009364D01*
X024814Y009325D01*
X024779Y009289D01*
X024741Y009256D01*
X024701Y009226D01*
X024658Y009199D01*
X024613Y009176D01*
X024567Y009156D01*
X024519Y009139D01*
X024471Y009127D01*
X024421Y009118D01*
X024371Y009113D01*
X024320Y009112D01*
X024270Y009115D01*
X024220Y009122D01*
X024171Y009133D01*
X024123Y009147D01*
X024076Y009165D01*
X024030Y009187D01*
X023986Y009212D01*
X023945Y009241D01*
X023906Y009272D01*
X023869Y009307D01*
X023835Y009344D01*
X023804Y009384D01*
X023776Y009426D01*
X023752Y009470D01*
X023731Y009516D01*
X023714Y009564D01*
X023701Y009612D01*
X023691Y009662D01*
X023685Y009712D01*
X023683Y009762D01*
X023683Y001262D02*
X023685Y001312D01*
X023691Y001362D01*
X023701Y001412D01*
X023714Y001460D01*
X023731Y001508D01*
X023752Y001554D01*
X023776Y001598D01*
X023804Y001640D01*
X023835Y001680D01*
X023869Y001717D01*
X023906Y001752D01*
X023945Y001783D01*
X023986Y001812D01*
X024030Y001837D01*
X024076Y001859D01*
X024123Y001877D01*
X024171Y001891D01*
X024220Y001902D01*
X024270Y001909D01*
X024320Y001912D01*
X024371Y001911D01*
X024421Y001906D01*
X024471Y001897D01*
X024519Y001885D01*
X024567Y001868D01*
X024613Y001848D01*
X024658Y001825D01*
X024701Y001798D01*
X024741Y001768D01*
X024779Y001735D01*
X024814Y001699D01*
X024847Y001660D01*
X024876Y001619D01*
X024902Y001576D01*
X024925Y001531D01*
X024944Y001484D01*
X024959Y001436D01*
X024971Y001387D01*
X024979Y001337D01*
X024983Y001287D01*
X024983Y001237D01*
X024979Y001187D01*
X024971Y001137D01*
X024959Y001088D01*
X024944Y001040D01*
X024925Y000993D01*
X024902Y000948D01*
X024876Y000905D01*
X024847Y000864D01*
X024814Y000825D01*
X024779Y000789D01*
X024741Y000756D01*
X024701Y000726D01*
X024658Y000699D01*
X024613Y000676D01*
X024567Y000656D01*
X024519Y000639D01*
X024471Y000627D01*
X024421Y000618D01*
X024371Y000613D01*
X024320Y000612D01*
X024270Y000615D01*
X024220Y000622D01*
X024171Y000633D01*
X024123Y000647D01*
X024076Y000665D01*
X024030Y000687D01*
X023986Y000712D01*
X023945Y000741D01*
X023906Y000772D01*
X023869Y000807D01*
X023835Y000844D01*
X023804Y000884D01*
X023776Y000926D01*
X023752Y000970D01*
X023731Y001016D01*
X023714Y001064D01*
X023701Y001112D01*
X023691Y001162D01*
X023685Y001212D01*
X023683Y001262D01*
D11*
X018729Y001557D03*
X018733Y002462D03*
X018729Y003368D03*
X018729Y004557D03*
X018733Y005462D03*
X018729Y006368D03*
X018729Y007507D03*
X018733Y008412D03*
X018729Y009318D03*
D12*
X020733Y008412D03*
X020733Y005462D03*
X020733Y002462D03*
D13*
X016734Y005212D03*
X015631Y005212D03*
X015631Y006312D03*
X016734Y006312D03*
X016734Y007412D03*
X015631Y007412D03*
X008184Y004862D03*
X007081Y004862D03*
X007081Y003612D03*
X008184Y003612D03*
X008165Y006167D03*
X007063Y006167D03*
D14*
X008961Y009092D03*
X010961Y009092D03*
D15*
X012233Y008166D03*
X013083Y008166D03*
X013983Y008166D03*
X013983Y007458D03*
X013083Y007458D03*
X012233Y007458D03*
X015833Y004016D03*
X015833Y003308D03*
D16*
X013833Y001262D03*
X012833Y001262D03*
X011833Y001262D03*
X010833Y001262D03*
X009833Y001262D03*
X008833Y001262D03*
X007833Y001262D03*
X001633Y003362D03*
X001633Y004362D03*
X001633Y005362D03*
X001633Y006362D03*
X001633Y007362D03*
X002651Y008508D03*
X002651Y009508D03*
X012733Y009412D03*
X013733Y009412D03*
X014733Y009412D03*
D17*
X015733Y009412D03*
D18*
X014272Y006425D03*
X014272Y006170D03*
X014272Y005914D03*
X014272Y005658D03*
X014272Y005402D03*
X014272Y005146D03*
X014272Y004890D03*
X014272Y004634D03*
X014272Y004378D03*
X014272Y004122D03*
X014272Y003866D03*
X014272Y003610D03*
X014272Y003355D03*
X014272Y003099D03*
X011393Y003099D03*
X011393Y003355D03*
X011393Y003610D03*
X011393Y003866D03*
X011393Y004122D03*
X011393Y004378D03*
X011393Y004634D03*
X011393Y004890D03*
X011393Y005146D03*
X011393Y005402D03*
X011393Y005658D03*
X011393Y005914D03*
X011393Y006170D03*
X011393Y006425D03*
D19*
X007351Y007762D03*
X006642Y007762D03*
X005934Y007762D03*
X005225Y007762D03*
X004516Y007762D03*
D20*
X004090Y007751D02*
X001816Y007751D01*
X001876Y007727D02*
X001718Y007792D01*
X001547Y007792D01*
X001389Y007727D01*
X001268Y007606D01*
X001203Y007448D01*
X001203Y007276D01*
X001268Y007118D01*
X001389Y006998D01*
X001547Y006932D01*
X001718Y006932D01*
X001876Y006998D01*
X001997Y007118D01*
X002023Y007182D01*
X003658Y007182D01*
X003758Y007082D01*
X004758Y007082D01*
X005024Y006816D01*
X005024Y006701D01*
X005071Y006587D01*
X005116Y006542D01*
X002023Y006542D01*
X001997Y006606D01*
X001876Y006727D01*
X001718Y006792D01*
X001547Y006792D01*
X001389Y006727D01*
X001268Y006606D01*
X001203Y006448D01*
X001203Y006276D01*
X001268Y006118D01*
X001389Y005998D01*
X001547Y005932D01*
X001718Y005932D01*
X001876Y005998D01*
X001997Y006118D01*
X002023Y006182D01*
X005507Y006182D01*
X006636Y005052D01*
X006636Y004414D01*
X006713Y004338D01*
X006901Y004338D01*
X006901Y004136D01*
X006713Y004136D01*
X006636Y004060D01*
X006636Y003164D01*
X006713Y003088D01*
X006901Y003088D01*
X006901Y002939D01*
X007024Y002816D01*
X007024Y002701D01*
X007071Y002587D01*
X007158Y002501D01*
X007271Y002454D01*
X007394Y002454D01*
X007507Y002501D01*
X007594Y002587D01*
X007641Y002701D01*
X007641Y002823D01*
X007594Y002937D01*
X007507Y003023D01*
X007394Y003070D01*
X007279Y003070D01*
X007261Y003088D01*
X007261Y003088D01*
X007450Y003088D01*
X007526Y003164D01*
X007526Y004060D01*
X007450Y004136D01*
X007261Y004136D01*
X007261Y004338D01*
X007450Y004338D01*
X007526Y004414D01*
X007526Y005310D01*
X007450Y005386D01*
X006812Y005386D01*
X005656Y006542D01*
X005549Y006542D01*
X005594Y006587D01*
X005641Y006701D01*
X005641Y006823D01*
X005594Y006937D01*
X005507Y007023D01*
X005394Y007070D01*
X005279Y007070D01*
X004907Y007442D01*
X004800Y007442D01*
X004871Y007513D01*
X005048Y007336D01*
X005402Y007336D01*
X005565Y007499D01*
X005749Y007316D01*
X005885Y007316D01*
X005885Y007714D01*
X005982Y007714D01*
X005982Y007316D01*
X006119Y007316D01*
X006302Y007499D01*
X006466Y007336D01*
X006819Y007336D01*
X006997Y007513D01*
X007174Y007336D01*
X007528Y007336D01*
X007681Y007489D01*
X007978Y007191D01*
X007978Y006691D01*
X007796Y006691D01*
X007720Y006615D01*
X007720Y005720D01*
X007796Y005643D01*
X008534Y005643D01*
X008610Y005720D01*
X008610Y006615D01*
X008534Y006691D01*
X008338Y006691D01*
X008338Y007341D01*
X008233Y007446D01*
X007778Y007901D01*
X007778Y007939D01*
X007539Y008178D01*
X010333Y008178D01*
X010333Y007442D01*
X010089Y007442D01*
X010007Y007523D01*
X009894Y007570D01*
X009771Y007570D01*
X009658Y007523D01*
X009571Y007437D01*
X009524Y007323D01*
X009524Y007201D01*
X009571Y007087D01*
X009658Y007001D01*
X009771Y006954D01*
X009894Y006954D01*
X010007Y007001D01*
X010089Y007082D01*
X010333Y007082D01*
X010333Y004703D01*
X010325Y004684D01*
X010325Y004562D01*
X010333Y004543D01*
X010333Y004241D01*
X009532Y005042D01*
X009382Y005042D01*
X008629Y005042D01*
X008629Y005310D01*
X008553Y005386D01*
X007815Y005386D01*
X007739Y005310D01*
X007739Y004414D01*
X007815Y004338D01*
X008553Y004338D01*
X008629Y004414D01*
X008629Y004682D01*
X009382Y004682D01*
X010333Y003732D01*
X010333Y000712D01*
X002185Y000712D01*
X002257Y000837D01*
X002332Y001117D01*
X002332Y001407D01*
X002257Y001687D01*
X002113Y001937D01*
X010333Y001937D01*
X010333Y001839D02*
X002170Y001839D01*
X002226Y001740D02*
X010333Y001740D01*
X010333Y001642D02*
X010040Y001642D01*
X010076Y001627D02*
X009918Y001692D01*
X009747Y001692D01*
X009589Y001627D01*
X009468Y001506D01*
X009403Y001348D01*
X009403Y001176D01*
X009468Y001018D01*
X009589Y000898D01*
X009747Y000832D01*
X009918Y000832D01*
X010076Y000898D01*
X010197Y001018D01*
X010263Y001176D01*
X010263Y001348D01*
X010197Y001506D01*
X010076Y001627D01*
X010160Y001543D02*
X010333Y001543D01*
X010333Y001445D02*
X010222Y001445D01*
X010263Y001346D02*
X010333Y001346D01*
X010333Y001247D02*
X010263Y001247D01*
X010251Y001149D02*
X010333Y001149D01*
X010333Y001050D02*
X010210Y001050D01*
X010130Y000952D02*
X010333Y000952D01*
X010333Y000853D02*
X009969Y000853D01*
X009696Y000853D02*
X008969Y000853D01*
X008918Y000832D02*
X009076Y000898D01*
X009197Y001018D01*
X009263Y001176D01*
X009263Y001348D01*
X009197Y001506D01*
X009076Y001627D01*
X008918Y001692D01*
X008747Y001692D01*
X008589Y001627D01*
X008468Y001506D01*
X008403Y001348D01*
X008403Y001176D01*
X008468Y001018D01*
X008589Y000898D01*
X008747Y000832D01*
X008918Y000832D01*
X008696Y000853D02*
X008022Y000853D01*
X008087Y000881D02*
X008214Y001007D01*
X008283Y001173D01*
X008283Y001212D01*
X007883Y001212D01*
X007883Y001312D01*
X008283Y001312D01*
X008283Y001352D01*
X008214Y001517D01*
X008087Y001644D01*
X007922Y001712D01*
X007883Y001712D01*
X007883Y001312D01*
X007783Y001312D01*
X007783Y001712D01*
X007743Y001712D01*
X007578Y001644D01*
X007451Y001517D01*
X007383Y001352D01*
X007383Y001312D01*
X007782Y001312D01*
X007782Y001212D01*
X007383Y001212D01*
X007383Y001173D01*
X007451Y001007D01*
X007578Y000881D01*
X007743Y000812D01*
X007783Y000812D01*
X007783Y001212D01*
X007883Y001212D01*
X007883Y000812D01*
X007922Y000812D01*
X008087Y000881D01*
X008159Y000952D02*
X008535Y000952D01*
X008455Y001050D02*
X008232Y001050D01*
X008273Y001149D02*
X008414Y001149D01*
X008403Y001247D02*
X007883Y001247D01*
X007883Y001149D02*
X007783Y001149D01*
X007782Y001247D02*
X002332Y001247D01*
X002332Y001149D02*
X007392Y001149D01*
X007433Y001050D02*
X002314Y001050D01*
X002288Y000952D02*
X007506Y000952D01*
X007643Y000853D02*
X002262Y000853D01*
X002210Y000755D02*
X010333Y000755D01*
X009535Y000952D02*
X009130Y000952D01*
X009210Y001050D02*
X009455Y001050D01*
X009414Y001149D02*
X009251Y001149D01*
X009263Y001247D02*
X009403Y001247D01*
X009403Y001346D02*
X009263Y001346D01*
X009222Y001445D02*
X009443Y001445D01*
X009506Y001543D02*
X009160Y001543D01*
X009040Y001642D02*
X009626Y001642D01*
X010333Y002036D02*
X002014Y002036D01*
X001916Y002134D02*
X006206Y002134D01*
X006258Y002082D02*
X006153Y002187D01*
X005153Y003187D01*
X005153Y003337D01*
X005153Y004506D01*
X005071Y004587D01*
X005024Y004701D01*
X005024Y004823D01*
X005071Y004937D01*
X005158Y005023D01*
X005271Y005070D01*
X005394Y005070D01*
X005507Y005023D01*
X005594Y004937D01*
X005641Y004823D01*
X005641Y004701D01*
X005594Y004587D01*
X005513Y004506D01*
X005513Y003337D01*
X006407Y002442D01*
X007605Y002442D01*
X008002Y002839D01*
X008002Y003088D01*
X007815Y003088D01*
X007739Y003164D01*
X007739Y004060D01*
X007815Y004136D01*
X008553Y004136D01*
X008629Y004060D01*
X008629Y003164D01*
X008553Y003088D01*
X008362Y003088D01*
X008362Y002690D01*
X008257Y002584D01*
X007754Y002082D01*
X007605Y002082D01*
X006258Y002082D01*
X006333Y002262D02*
X007680Y002262D01*
X008182Y002764D01*
X008182Y003610D01*
X008184Y003612D01*
X008629Y003613D02*
X010333Y003613D01*
X010333Y003711D02*
X008629Y003711D01*
X008629Y003810D02*
X010255Y003810D01*
X010156Y003908D02*
X008629Y003908D01*
X008629Y004007D02*
X010058Y004007D01*
X009959Y004105D02*
X008583Y004105D01*
X008615Y004401D02*
X009664Y004401D01*
X009762Y004302D02*
X007261Y004302D01*
X007261Y004204D02*
X009861Y004204D01*
X010074Y004499D02*
X010333Y004499D01*
X010333Y004401D02*
X010173Y004401D01*
X010271Y004302D02*
X010333Y004302D01*
X010325Y004598D02*
X009976Y004598D01*
X009877Y004696D02*
X010330Y004696D01*
X010333Y004795D02*
X009779Y004795D01*
X009680Y004894D02*
X010333Y004894D01*
X010333Y004992D02*
X009581Y004992D01*
X009457Y004862D02*
X010945Y003374D01*
X010833Y003262D01*
X010833Y001262D01*
X010333Y002134D02*
X007807Y002134D01*
X007905Y002233D02*
X010333Y002233D01*
X010333Y002331D02*
X008004Y002331D01*
X008102Y002430D02*
X010333Y002430D01*
X010333Y002529D02*
X008201Y002529D01*
X008299Y002627D02*
X010333Y002627D01*
X010333Y002726D02*
X008362Y002726D01*
X008362Y002824D02*
X010333Y002824D01*
X010333Y002923D02*
X008362Y002923D01*
X008362Y003021D02*
X010333Y003021D01*
X010333Y003120D02*
X008584Y003120D01*
X008629Y003218D02*
X010333Y003218D01*
X010333Y003317D02*
X008629Y003317D01*
X008629Y003415D02*
X010333Y003415D01*
X010333Y003514D02*
X008629Y003514D01*
X007739Y003514D02*
X007526Y003514D01*
X007526Y003613D02*
X007739Y003613D01*
X007739Y003711D02*
X007526Y003711D01*
X007526Y003810D02*
X007739Y003810D01*
X007739Y003908D02*
X007526Y003908D01*
X007526Y004007D02*
X007739Y004007D01*
X007784Y004105D02*
X007481Y004105D01*
X007513Y004401D02*
X007752Y004401D01*
X007739Y004499D02*
X007526Y004499D01*
X007526Y004598D02*
X007739Y004598D01*
X007739Y004696D02*
X007526Y004696D01*
X007526Y004795D02*
X007739Y004795D01*
X007739Y004894D02*
X007526Y004894D01*
X007526Y004992D02*
X007739Y004992D01*
X007739Y005091D02*
X007526Y005091D01*
X007526Y005189D02*
X007739Y005189D01*
X007739Y005288D02*
X007526Y005288D01*
X007440Y005623D02*
X007112Y005623D01*
X007112Y006117D01*
X007013Y006117D01*
X007013Y005623D01*
X006685Y005623D01*
X006598Y005711D01*
X006598Y006117D01*
X007012Y006117D01*
X007012Y006217D01*
X006598Y006217D01*
X006598Y006623D01*
X006685Y006711D01*
X007013Y006711D01*
X007013Y006217D01*
X007112Y006217D01*
X007112Y006711D01*
X007440Y006711D01*
X007527Y006623D01*
X007527Y006217D01*
X007113Y006217D01*
X007113Y006117D01*
X007527Y006117D01*
X007527Y005711D01*
X007440Y005623D01*
X007498Y005682D02*
X007758Y005682D01*
X007720Y005780D02*
X007527Y005780D01*
X007527Y005879D02*
X007720Y005879D01*
X007720Y005978D02*
X007527Y005978D01*
X007527Y006076D02*
X007720Y006076D01*
X007720Y006175D02*
X007113Y006175D01*
X007063Y006167D02*
X006427Y006167D01*
X005833Y006762D01*
X005833Y007706D01*
X005934Y007762D01*
X005982Y007811D02*
X005885Y007811D01*
X005885Y008209D01*
X005749Y008209D01*
X005565Y008026D01*
X005402Y008189D01*
X005295Y008189D01*
X005001Y008643D01*
X004989Y008672D01*
X004970Y008691D01*
X004955Y008714D01*
X004930Y008732D01*
X004907Y008754D01*
X004883Y008764D01*
X004861Y008779D01*
X004830Y008786D01*
X004801Y008798D01*
X004774Y008798D01*
X004748Y008804D01*
X004717Y008798D01*
X002969Y008798D01*
X002895Y008873D01*
X002737Y008938D01*
X002566Y008938D01*
X002408Y008873D01*
X002287Y008752D01*
X002221Y008594D01*
X002221Y008423D01*
X002287Y008265D01*
X002408Y008144D01*
X002566Y008078D01*
X002737Y008078D01*
X002895Y008144D01*
X002969Y008218D01*
X004585Y008218D01*
X004604Y008189D01*
X004340Y008189D01*
X004090Y007939D01*
X004090Y007586D01*
X004233Y007442D01*
X003907Y007442D01*
X003807Y007542D01*
X003658Y007542D01*
X002023Y007542D01*
X001997Y007606D01*
X001876Y007727D01*
X001950Y007653D02*
X004090Y007653D01*
X004121Y007554D02*
X002018Y007554D01*
X001633Y007362D02*
X003733Y007362D01*
X003833Y007262D01*
X004833Y007262D01*
X005333Y006762D01*
X005624Y006864D02*
X007978Y006864D01*
X007978Y006766D02*
X005641Y006766D01*
X005627Y006667D02*
X006642Y006667D01*
X006598Y006569D02*
X005575Y006569D01*
X005728Y006470D02*
X006598Y006470D01*
X006598Y006372D02*
X005826Y006372D01*
X005925Y006273D02*
X006598Y006273D01*
X006598Y006076D02*
X006122Y006076D01*
X006220Y005978D02*
X006598Y005978D01*
X006598Y005879D02*
X006319Y005879D01*
X006417Y005780D02*
X006598Y005780D01*
X006627Y005682D02*
X006516Y005682D01*
X006615Y005583D02*
X010333Y005583D01*
X010333Y005485D02*
X006713Y005485D01*
X006812Y005386D02*
X010333Y005386D01*
X010333Y005288D02*
X008629Y005288D01*
X008629Y005189D02*
X010333Y005189D01*
X010333Y005091D02*
X008629Y005091D01*
X008184Y004862D02*
X009457Y004862D01*
X009467Y004598D02*
X008629Y004598D01*
X008629Y004499D02*
X009565Y004499D01*
X010633Y004623D02*
X010731Y004721D01*
X010731Y005957D01*
X010944Y006170D01*
X011393Y006170D01*
X011393Y006425D02*
X010557Y007262D01*
X009833Y007262D01*
X009524Y007259D02*
X008338Y007259D01*
X008338Y007160D02*
X009541Y007160D01*
X009597Y007062D02*
X008338Y007062D01*
X008338Y006963D02*
X009749Y006963D01*
X009917Y006963D02*
X010333Y006963D01*
X010333Y007062D02*
X010068Y007062D01*
X010333Y006864D02*
X008338Y006864D01*
X008338Y006766D02*
X010333Y006766D01*
X010333Y006667D02*
X008557Y006667D01*
X008610Y006569D02*
X010333Y006569D01*
X010333Y006470D02*
X008610Y006470D01*
X008610Y006372D02*
X010333Y006372D01*
X010333Y006273D02*
X008610Y006273D01*
X008610Y006175D02*
X010333Y006175D01*
X010333Y006076D02*
X008610Y006076D01*
X008610Y005978D02*
X010333Y005978D01*
X010333Y005879D02*
X008610Y005879D01*
X008610Y005780D02*
X010333Y005780D01*
X010333Y005682D02*
X008572Y005682D01*
X008165Y006167D02*
X008158Y006174D01*
X008158Y007266D01*
X007662Y007762D01*
X007351Y007762D01*
X007769Y007948D02*
X010333Y007948D01*
X010333Y007850D02*
X007829Y007850D01*
X007928Y007751D02*
X010333Y007751D01*
X010333Y007653D02*
X008026Y007653D01*
X008125Y007554D02*
X009732Y007554D01*
X009590Y007456D02*
X008223Y007456D01*
X008322Y007357D02*
X009538Y007357D01*
X009933Y007554D02*
X010333Y007554D01*
X010333Y007456D02*
X010075Y007456D01*
X010333Y008047D02*
X007670Y008047D01*
X007572Y008146D02*
X010333Y008146D01*
X010333Y008758D02*
X009284Y008758D01*
X009426Y008900D01*
X009426Y009062D01*
X008991Y009062D01*
X008991Y009122D01*
X008931Y009122D01*
X008931Y009062D01*
X008496Y009062D01*
X008496Y008900D01*
X008638Y008758D01*
X006873Y008758D01*
X006766Y008714D01*
X006685Y008632D01*
X006397Y008344D01*
X006352Y008238D01*
X006352Y008122D01*
X006352Y008076D01*
X006302Y008026D01*
X006119Y008209D01*
X005982Y008209D01*
X005982Y007811D01*
X005982Y007850D02*
X005885Y007850D01*
X005885Y007948D02*
X005982Y007948D01*
X005982Y008047D02*
X005885Y008047D01*
X005885Y008146D02*
X005982Y008146D01*
X006183Y008146D02*
X006352Y008146D01*
X006355Y008244D02*
X005259Y008244D01*
X005195Y008343D02*
X006396Y008343D01*
X006494Y008441D02*
X005132Y008441D01*
X005068Y008540D02*
X006592Y008540D01*
X006691Y008638D02*
X005004Y008638D01*
X004925Y008737D02*
X006822Y008737D01*
X005685Y008146D02*
X005446Y008146D01*
X005544Y008047D02*
X005586Y008047D01*
X006281Y008047D02*
X006323Y008047D01*
X005982Y007653D02*
X005885Y007653D01*
X005885Y007554D02*
X005982Y007554D01*
X005982Y007456D02*
X005885Y007456D01*
X005885Y007357D02*
X005982Y007357D01*
X006160Y007357D02*
X006444Y007357D01*
X006346Y007456D02*
X006259Y007456D01*
X005707Y007357D02*
X005423Y007357D01*
X005522Y007456D02*
X005609Y007456D01*
X005189Y007160D02*
X007978Y007160D01*
X007978Y007062D02*
X005415Y007062D01*
X005568Y006963D02*
X007978Y006963D01*
X007911Y007259D02*
X005091Y007259D01*
X005027Y007357D02*
X004992Y007357D01*
X004928Y007456D02*
X004813Y007456D01*
X004220Y007456D02*
X003893Y007456D01*
X003680Y007160D02*
X002014Y007160D01*
X001940Y007062D02*
X004779Y007062D01*
X004877Y006963D02*
X001793Y006963D01*
X001781Y006766D02*
X005024Y006766D01*
X005038Y006667D02*
X001935Y006667D01*
X002012Y006569D02*
X005090Y006569D01*
X005581Y006362D02*
X007081Y004862D01*
X007081Y003612D01*
X007081Y003013D01*
X007333Y002762D01*
X007641Y002726D02*
X007889Y002726D01*
X007987Y002824D02*
X007641Y002824D01*
X007600Y002923D02*
X008002Y002923D01*
X008002Y003021D02*
X007509Y003021D01*
X007482Y003120D02*
X007784Y003120D01*
X007739Y003218D02*
X007526Y003218D01*
X007526Y003317D02*
X007739Y003317D01*
X007739Y003415D02*
X007526Y003415D01*
X006901Y003088D02*
X006901Y003088D01*
X006901Y003021D02*
X005828Y003021D01*
X005926Y002923D02*
X006917Y002923D01*
X007016Y002824D02*
X006025Y002824D01*
X006124Y002726D02*
X007024Y002726D01*
X007055Y002627D02*
X006222Y002627D01*
X006321Y002529D02*
X007130Y002529D01*
X007535Y002529D02*
X007692Y002529D01*
X007610Y002627D02*
X007790Y002627D01*
X006681Y003120D02*
X005729Y003120D01*
X005631Y003218D02*
X006636Y003218D01*
X006636Y003317D02*
X005532Y003317D01*
X005513Y003415D02*
X006636Y003415D01*
X006636Y003514D02*
X005513Y003514D01*
X005513Y003613D02*
X006636Y003613D01*
X006636Y003711D02*
X005513Y003711D01*
X005513Y003810D02*
X006636Y003810D01*
X006636Y003908D02*
X005513Y003908D01*
X005513Y004007D02*
X006636Y004007D01*
X006682Y004105D02*
X005513Y004105D01*
X005513Y004204D02*
X006901Y004204D01*
X006901Y004302D02*
X005513Y004302D01*
X005513Y004401D02*
X006650Y004401D01*
X006636Y004499D02*
X005513Y004499D01*
X005598Y004598D02*
X006636Y004598D01*
X006636Y004696D02*
X005639Y004696D01*
X005641Y004795D02*
X006636Y004795D01*
X006636Y004894D02*
X005612Y004894D01*
X005539Y004992D02*
X006636Y004992D01*
X006598Y005091D02*
X001998Y005091D01*
X002014Y005107D02*
X002083Y005273D01*
X002083Y005312D01*
X001683Y005312D01*
X001683Y005412D01*
X002083Y005412D01*
X002083Y005452D01*
X002014Y005617D01*
X001887Y005744D01*
X001722Y005812D01*
X001683Y005812D01*
X001683Y005412D01*
X001583Y005412D01*
X001583Y005812D01*
X001543Y005812D01*
X001378Y005744D01*
X001251Y005617D01*
X001183Y005452D01*
X001183Y005412D01*
X001582Y005412D01*
X001582Y005312D01*
X001183Y005312D01*
X001183Y005273D01*
X001251Y005107D01*
X001378Y004981D01*
X001543Y004912D01*
X001583Y004912D01*
X001583Y005312D01*
X001683Y005312D01*
X001683Y004912D01*
X001722Y004912D01*
X001887Y004981D01*
X002014Y005107D01*
X002048Y005189D02*
X006500Y005189D01*
X006401Y005288D02*
X002083Y005288D01*
X002069Y005485D02*
X006204Y005485D01*
X006106Y005583D02*
X002028Y005583D01*
X001949Y005682D02*
X006007Y005682D01*
X005908Y005780D02*
X001798Y005780D01*
X001683Y005780D02*
X001583Y005780D01*
X001583Y005682D02*
X001683Y005682D01*
X001683Y005583D02*
X001583Y005583D01*
X001583Y005485D02*
X001683Y005485D01*
X001683Y005386D02*
X006303Y005386D01*
X007013Y005682D02*
X007112Y005682D01*
X007112Y005780D02*
X007013Y005780D01*
X007013Y005879D02*
X007112Y005879D01*
X007112Y005978D02*
X007013Y005978D01*
X007013Y006076D02*
X007112Y006076D01*
X007012Y006175D02*
X006023Y006175D01*
X005711Y005978D02*
X001828Y005978D01*
X001955Y006076D02*
X005613Y006076D01*
X005514Y006175D02*
X002020Y006175D01*
X001633Y006362D02*
X005581Y006362D01*
X005810Y005879D02*
X000783Y005879D01*
X000783Y005780D02*
X001467Y005780D01*
X001316Y005682D02*
X000783Y005682D01*
X000783Y005583D02*
X001237Y005583D01*
X001196Y005485D02*
X000783Y005485D01*
X000783Y005386D02*
X001582Y005386D01*
X001583Y005288D02*
X001683Y005288D01*
X001683Y005189D02*
X001583Y005189D01*
X001583Y005091D02*
X001683Y005091D01*
X001683Y004992D02*
X001583Y004992D01*
X001366Y004992D02*
X000783Y004992D01*
X000783Y004894D02*
X005053Y004894D01*
X005024Y004795D02*
X000783Y004795D01*
X000783Y004696D02*
X001359Y004696D01*
X001389Y004727D02*
X001268Y004606D01*
X001203Y004448D01*
X001203Y004276D01*
X001268Y004118D01*
X001389Y003998D01*
X001547Y003932D01*
X001718Y003932D01*
X001876Y003998D01*
X001997Y004118D01*
X002063Y004276D01*
X002063Y004448D01*
X001997Y004606D01*
X001876Y004727D01*
X001718Y004792D01*
X001547Y004792D01*
X001389Y004727D01*
X001265Y004598D02*
X000783Y004598D01*
X000783Y004499D02*
X001224Y004499D01*
X001203Y004401D02*
X000783Y004401D01*
X000783Y004302D02*
X001203Y004302D01*
X001233Y004204D02*
X000783Y004204D01*
X000783Y004105D02*
X001281Y004105D01*
X001380Y004007D02*
X000783Y004007D01*
X000783Y003908D02*
X005153Y003908D01*
X005153Y003810D02*
X000783Y003810D01*
X000783Y003711D02*
X001374Y003711D01*
X001389Y003727D02*
X001268Y003606D01*
X001203Y003448D01*
X001203Y003276D01*
X001268Y003118D01*
X001389Y002998D01*
X001547Y002932D01*
X001718Y002932D01*
X001876Y002998D01*
X001997Y003118D01*
X002063Y003276D01*
X002063Y003448D01*
X001997Y003606D01*
X001876Y003727D01*
X001718Y003792D01*
X001547Y003792D01*
X001389Y003727D01*
X001275Y003613D02*
X000783Y003613D01*
X000783Y003514D02*
X001230Y003514D01*
X001203Y003415D02*
X000783Y003415D01*
X000783Y003317D02*
X001203Y003317D01*
X001227Y003218D02*
X000783Y003218D01*
X000783Y003120D02*
X001267Y003120D01*
X001365Y003021D02*
X000783Y003021D01*
X000783Y002923D02*
X005417Y002923D01*
X005319Y003021D02*
X001900Y003021D01*
X001998Y003120D02*
X005220Y003120D01*
X005153Y003218D02*
X002038Y003218D01*
X002063Y003317D02*
X005153Y003317D01*
X005153Y003415D02*
X002063Y003415D01*
X002035Y003514D02*
X005153Y003514D01*
X005153Y003613D02*
X001990Y003613D01*
X001892Y003711D02*
X005153Y003711D01*
X005153Y004007D02*
X001885Y004007D01*
X001984Y004105D02*
X005153Y004105D01*
X005153Y004204D02*
X002032Y004204D01*
X002063Y004302D02*
X005153Y004302D01*
X005153Y004401D02*
X002063Y004401D01*
X002041Y004499D02*
X005153Y004499D01*
X005067Y004598D02*
X002000Y004598D01*
X001906Y004696D02*
X005026Y004696D01*
X005333Y004762D02*
X005333Y003262D01*
X006333Y002262D01*
X006107Y002233D02*
X001751Y002233D01*
X001657Y002287D02*
X001377Y002362D01*
X001088Y002362D01*
X000808Y002287D01*
X000783Y002272D01*
X000783Y008752D01*
X000809Y008737D01*
X001089Y008662D01*
X001378Y008662D01*
X001658Y008737D01*
X001909Y008882D01*
X002114Y009087D01*
X002245Y009314D01*
X002270Y009253D01*
X002396Y009127D01*
X002562Y009058D01*
X002601Y009058D01*
X002601Y009458D01*
X002701Y009458D01*
X002701Y009058D01*
X002741Y009058D01*
X002906Y009127D01*
X003033Y009253D01*
X003101Y009419D01*
X003101Y009458D01*
X002701Y009458D01*
X002701Y009558D01*
X002601Y009558D01*
X002601Y009958D01*
X002562Y009958D01*
X002396Y009890D01*
X002333Y009827D01*
X002333Y009907D01*
X002258Y010187D01*
X002187Y010311D01*
X010333Y010310D01*
X010333Y008758D01*
X010333Y008835D02*
X009362Y008835D01*
X009426Y008934D02*
X010333Y008934D01*
X010333Y009032D02*
X009426Y009032D01*
X009426Y009122D02*
X009426Y009285D01*
X009154Y009557D01*
X008991Y009557D01*
X008991Y009122D01*
X009426Y009122D01*
X009426Y009131D02*
X010333Y009131D01*
X010333Y009229D02*
X009426Y009229D01*
X009383Y009328D02*
X010333Y009328D01*
X010333Y009427D02*
X009284Y009427D01*
X009186Y009525D02*
X010333Y009525D01*
X010333Y009624D02*
X003090Y009624D01*
X003101Y009598D02*
X003033Y009763D01*
X002906Y009890D01*
X002741Y009958D01*
X002701Y009958D01*
X002701Y009558D01*
X003101Y009558D01*
X003101Y009598D01*
X003049Y009722D02*
X010333Y009722D01*
X010333Y009821D02*
X002975Y009821D01*
X002834Y009919D02*
X010333Y009919D01*
X010333Y010018D02*
X002304Y010018D01*
X002277Y010116D02*
X010333Y010116D01*
X010333Y010215D02*
X002242Y010215D01*
X002330Y009919D02*
X002468Y009919D01*
X002601Y009919D02*
X002701Y009919D01*
X002701Y009821D02*
X002601Y009821D01*
X002601Y009722D02*
X002701Y009722D01*
X002701Y009624D02*
X002601Y009624D01*
X002701Y009525D02*
X008737Y009525D01*
X008769Y009557D02*
X008496Y009285D01*
X008496Y009122D01*
X008931Y009122D01*
X008931Y009557D01*
X008769Y009557D01*
X008931Y009525D02*
X008991Y009525D01*
X008991Y009427D02*
X008931Y009427D01*
X008931Y009328D02*
X008991Y009328D01*
X008991Y009229D02*
X008931Y009229D01*
X008931Y009131D02*
X008991Y009131D01*
X008638Y009427D02*
X003101Y009427D01*
X003064Y009328D02*
X008539Y009328D01*
X008496Y009229D02*
X003009Y009229D01*
X002910Y009131D02*
X008496Y009131D01*
X008496Y009032D02*
X002059Y009032D01*
X002139Y009131D02*
X002392Y009131D01*
X002293Y009229D02*
X002196Y009229D01*
X001961Y008934D02*
X002555Y008934D01*
X002747Y008934D02*
X008496Y008934D01*
X008560Y008835D02*
X002932Y008835D01*
X002370Y008835D02*
X001828Y008835D01*
X001657Y008737D02*
X002280Y008737D01*
X002240Y008638D02*
X000783Y008638D01*
X000783Y008540D02*
X002221Y008540D01*
X002221Y008441D02*
X000783Y008441D01*
X000783Y008343D02*
X002254Y008343D01*
X002307Y008244D02*
X000783Y008244D01*
X000783Y008146D02*
X002406Y008146D01*
X002897Y008146D02*
X004296Y008146D01*
X004197Y008047D02*
X000783Y008047D01*
X000783Y007948D02*
X004099Y007948D01*
X004090Y007850D02*
X000783Y007850D01*
X000783Y007751D02*
X001449Y007751D01*
X001315Y007653D02*
X000783Y007653D01*
X000783Y007554D02*
X001247Y007554D01*
X001206Y007456D02*
X000783Y007456D01*
X000783Y007357D02*
X001203Y007357D01*
X001210Y007259D02*
X000783Y007259D01*
X000783Y007160D02*
X001251Y007160D01*
X001325Y007062D02*
X000783Y007062D01*
X000783Y006963D02*
X001472Y006963D01*
X001484Y006766D02*
X000783Y006766D01*
X000783Y006864D02*
X004976Y006864D01*
X006841Y007357D02*
X007153Y007357D01*
X007054Y007456D02*
X006939Y007456D01*
X007549Y007357D02*
X007813Y007357D01*
X007714Y007456D02*
X007648Y007456D01*
X007773Y006667D02*
X007483Y006667D01*
X007527Y006569D02*
X007720Y006569D01*
X007720Y006470D02*
X007527Y006470D01*
X007527Y006372D02*
X007720Y006372D01*
X007720Y006273D02*
X007527Y006273D01*
X007112Y006273D02*
X007013Y006273D01*
X007013Y006372D02*
X007112Y006372D01*
X007112Y006470D02*
X007013Y006470D01*
X007013Y006569D02*
X007112Y006569D01*
X007112Y006667D02*
X007013Y006667D01*
X005127Y004992D02*
X001899Y004992D01*
X001268Y005091D02*
X000783Y005091D01*
X000783Y005189D02*
X001217Y005189D01*
X001183Y005288D02*
X000783Y005288D01*
X000783Y005978D02*
X001437Y005978D01*
X001310Y006076D02*
X000783Y006076D01*
X000783Y006175D02*
X001245Y006175D01*
X001204Y006273D02*
X000783Y006273D01*
X000783Y006372D02*
X001203Y006372D01*
X001212Y006470D02*
X000783Y006470D01*
X000783Y006569D02*
X001253Y006569D01*
X001330Y006667D02*
X000783Y006667D01*
X000783Y008737D02*
X000810Y008737D01*
X002601Y009131D02*
X002701Y009131D01*
X002701Y009229D02*
X002601Y009229D01*
X002601Y009328D02*
X002701Y009328D01*
X002701Y009427D02*
X002601Y009427D01*
X011332Y006429D02*
X011335Y006425D01*
X011393Y006425D01*
X011388Y006429D02*
X011332Y006429D01*
X011933Y006317D02*
X012328Y006712D01*
X012582Y006712D01*
X012583Y006712D01*
X014283Y006712D01*
X014483Y006912D01*
X014483Y007912D01*
X014233Y008162D01*
X013987Y008162D01*
X013983Y008166D01*
X013083Y008166D01*
X012233Y008166D01*
X012233Y008912D01*
X012733Y009412D01*
X016734Y008663D02*
X017333Y009262D01*
X018673Y009262D01*
X018729Y009318D01*
X019213Y009328D02*
X023313Y009328D01*
X023308Y009337D02*
X023452Y009087D01*
X023657Y008882D01*
X023908Y008737D01*
X024188Y008662D01*
X024477Y008662D01*
X024757Y008737D01*
X024808Y008766D01*
X024833Y008755D01*
X024833Y002244D01*
X024757Y002287D01*
X024477Y002362D01*
X024188Y002362D01*
X023908Y002287D01*
X023657Y002142D01*
X023452Y001937D01*
X021247Y001937D01*
X021247Y001839D02*
X023395Y001839D01*
X023339Y001740D02*
X021178Y001740D01*
X021159Y001721D02*
X021247Y001809D01*
X021247Y002412D01*
X020783Y002412D01*
X020783Y002512D01*
X021247Y002512D01*
X021247Y003115D01*
X021159Y003203D01*
X020782Y003203D01*
X020782Y002512D01*
X020683Y002512D01*
X020683Y003203D01*
X020306Y003203D01*
X020218Y003115D01*
X020218Y002512D01*
X020682Y002512D01*
X020682Y002412D01*
X020218Y002412D01*
X020218Y001809D01*
X020306Y001721D01*
X020683Y001721D01*
X020683Y002412D01*
X020782Y002412D01*
X020782Y001721D01*
X021159Y001721D01*
X020782Y001740D02*
X020683Y001740D01*
X020683Y001839D02*
X020782Y001839D01*
X020782Y001937D02*
X020683Y001937D01*
X020683Y002036D02*
X020782Y002036D01*
X020782Y002134D02*
X020683Y002134D01*
X020683Y002233D02*
X020782Y002233D01*
X020782Y002331D02*
X020683Y002331D01*
X020682Y002430D02*
X019237Y002430D01*
X019237Y002433D02*
X018762Y002433D01*
X018762Y002491D01*
X019237Y002491D01*
X019237Y002682D01*
X019149Y002769D01*
X018761Y002769D01*
X018761Y002491D01*
X018704Y002491D01*
X018704Y002769D01*
X018316Y002769D01*
X018228Y002682D01*
X018228Y002491D01*
X018704Y002491D01*
X018704Y002433D01*
X018761Y002433D01*
X018761Y002155D01*
X019149Y002155D01*
X019237Y002242D01*
X019237Y002433D01*
X019237Y002529D02*
X020218Y002529D01*
X020218Y002627D02*
X019237Y002627D01*
X019193Y002726D02*
X020218Y002726D01*
X020218Y002824D02*
X017833Y002824D01*
X017833Y002726D02*
X018272Y002726D01*
X018228Y002627D02*
X017833Y002627D01*
X017833Y002529D02*
X018228Y002529D01*
X018228Y002433D02*
X018228Y002242D01*
X018316Y002155D01*
X018704Y002155D01*
X018704Y002433D01*
X018228Y002433D01*
X018228Y002430D02*
X017833Y002430D01*
X017833Y002331D02*
X018228Y002331D01*
X018238Y002233D02*
X017833Y002233D01*
X017833Y002134D02*
X020218Y002134D01*
X020218Y002036D02*
X017919Y002036D01*
X017833Y002122D02*
X017833Y003859D01*
X018244Y003447D01*
X018244Y003156D01*
X018320Y003080D01*
X019137Y003080D01*
X019213Y003156D01*
X019213Y003579D01*
X019137Y003655D01*
X018545Y003655D01*
X017833Y004368D01*
X017833Y004402D01*
X017865Y004369D01*
X017867Y004368D01*
X017924Y004311D01*
X018030Y004267D01*
X018146Y004267D01*
X018786Y004267D01*
X018792Y004269D01*
X019137Y004269D01*
X019213Y004345D01*
X019213Y004768D01*
X019137Y004844D01*
X018792Y004844D01*
X018786Y004846D01*
X018209Y004846D01*
X017878Y005188D01*
X017877Y005190D01*
X017838Y005229D01*
X017833Y005235D01*
X017833Y006132D01*
X018269Y006132D01*
X018320Y006080D01*
X019137Y006080D01*
X019213Y006156D01*
X019213Y006579D01*
X019137Y006655D01*
X018320Y006655D01*
X018244Y006579D01*
X018244Y006492D01*
X017833Y006492D01*
X017833Y007352D01*
X017924Y007261D01*
X018030Y007217D01*
X018146Y007217D01*
X018786Y007217D01*
X018792Y007219D01*
X019137Y007219D01*
X019213Y007295D01*
X019213Y007718D01*
X019137Y007794D01*
X018792Y007794D01*
X018786Y007796D01*
X018208Y007796D01*
X017833Y008172D01*
X017833Y009082D01*
X018269Y009082D01*
X018320Y009030D01*
X019137Y009030D01*
X019213Y009106D01*
X019213Y009529D01*
X019137Y009605D01*
X018320Y009605D01*
X018244Y009529D01*
X018244Y009442D01*
X017833Y009442D01*
X017833Y009662D01*
X022937Y009662D01*
X023262Y009506D01*
X023308Y009337D01*
X023284Y009427D02*
X019213Y009427D01*
X019213Y009525D02*
X023223Y009525D01*
X023017Y009624D02*
X017833Y009624D01*
X017833Y009525D02*
X018244Y009525D01*
X018318Y009032D02*
X017833Y009032D01*
X017833Y008934D02*
X020218Y008934D01*
X020218Y009032D02*
X019139Y009032D01*
X019213Y009131D02*
X020285Y009131D01*
X020306Y009153D02*
X020218Y009065D01*
X020218Y008462D01*
X020682Y008462D01*
X020682Y008362D01*
X020218Y008362D01*
X020218Y007759D01*
X020306Y007671D01*
X020683Y007671D01*
X020683Y008362D01*
X020782Y008362D01*
X020782Y007671D01*
X021159Y007671D01*
X021247Y007759D01*
X021247Y008362D01*
X020783Y008362D01*
X020783Y008462D01*
X021247Y008462D01*
X021247Y009065D01*
X021159Y009153D01*
X020782Y009153D01*
X020782Y008462D01*
X020683Y008462D01*
X020683Y009153D01*
X020306Y009153D01*
X020683Y009131D02*
X020782Y009131D01*
X020782Y009032D02*
X020683Y009032D01*
X020683Y008934D02*
X020782Y008934D01*
X020782Y008835D02*
X020683Y008835D01*
X020683Y008737D02*
X020782Y008737D01*
X020782Y008638D02*
X020683Y008638D01*
X020683Y008540D02*
X020782Y008540D01*
X020783Y008441D02*
X024833Y008441D01*
X024833Y008343D02*
X021247Y008343D01*
X021247Y008244D02*
X024833Y008244D01*
X024833Y008146D02*
X021247Y008146D01*
X021247Y008047D02*
X024833Y008047D01*
X024833Y007948D02*
X021247Y007948D01*
X021247Y007850D02*
X024833Y007850D01*
X024833Y007751D02*
X021239Y007751D01*
X020782Y007751D02*
X020683Y007751D01*
X020683Y007850D02*
X020782Y007850D01*
X020782Y007948D02*
X020683Y007948D01*
X020683Y008047D02*
X020782Y008047D01*
X020782Y008146D02*
X020683Y008146D01*
X020683Y008244D02*
X020782Y008244D01*
X020782Y008343D02*
X020683Y008343D01*
X020733Y008412D02*
X018733Y008412D01*
X018761Y008383D02*
X018761Y008105D01*
X019149Y008105D01*
X019237Y008192D01*
X019237Y008383D01*
X018762Y008383D01*
X018762Y008441D01*
X019237Y008441D01*
X020682Y008441D01*
X020218Y008343D02*
X019237Y008343D01*
X019237Y008441D02*
X019237Y008632D01*
X019149Y008719D01*
X018761Y008719D01*
X018761Y008441D01*
X018704Y008441D01*
X018704Y008719D01*
X018316Y008719D01*
X018228Y008632D01*
X018228Y008441D01*
X017833Y008441D01*
X017833Y008343D02*
X018228Y008343D01*
X018228Y008383D02*
X018228Y008192D01*
X018316Y008105D01*
X018704Y008105D01*
X018704Y008383D01*
X018761Y008383D01*
X018761Y008343D02*
X018704Y008343D01*
X018704Y008383D02*
X018228Y008383D01*
X018228Y008441D02*
X018704Y008441D01*
X018761Y008441D01*
X018704Y008441D02*
X018704Y008383D01*
X018704Y008540D02*
X018761Y008540D01*
X018761Y008638D02*
X018704Y008638D01*
X018235Y008638D02*
X017833Y008638D01*
X017833Y008540D02*
X018228Y008540D01*
X017833Y008737D02*
X020218Y008737D01*
X020218Y008835D02*
X017833Y008835D01*
X016734Y008663D02*
X016734Y007412D01*
X015631Y007412D02*
X015483Y007412D01*
X014833Y006762D01*
X014833Y005262D01*
X014683Y005112D01*
X014306Y005112D01*
X014272Y005146D01*
X014272Y004890D02*
X014300Y004862D01*
X014783Y004862D01*
X015033Y005112D01*
X015033Y005612D01*
X015631Y006211D01*
X015631Y006312D01*
X016734Y006312D02*
X018673Y006312D01*
X018729Y006368D01*
X019213Y006372D02*
X024833Y006372D01*
X024833Y006470D02*
X019213Y006470D01*
X019213Y006569D02*
X024833Y006569D01*
X024833Y006667D02*
X017833Y006667D01*
X017833Y006569D02*
X018244Y006569D01*
X017833Y006766D02*
X024833Y006766D01*
X024833Y006864D02*
X017833Y006864D01*
X017833Y006963D02*
X024833Y006963D01*
X024833Y007062D02*
X017833Y007062D01*
X017833Y007160D02*
X024833Y007160D01*
X024833Y007259D02*
X019176Y007259D01*
X019213Y007357D02*
X024833Y007357D01*
X024833Y007456D02*
X019213Y007456D01*
X019213Y007554D02*
X024833Y007554D01*
X024833Y007653D02*
X019213Y007653D01*
X019179Y007751D02*
X020226Y007751D01*
X020218Y007850D02*
X018155Y007850D01*
X018056Y007948D02*
X020218Y007948D01*
X020218Y008047D02*
X017958Y008047D01*
X017859Y008146D02*
X018275Y008146D01*
X018228Y008244D02*
X017833Y008244D01*
X018704Y008244D02*
X018761Y008244D01*
X018761Y008146D02*
X018704Y008146D01*
X019190Y008146D02*
X020218Y008146D01*
X020218Y008244D02*
X019237Y008244D01*
X019237Y008540D02*
X020218Y008540D01*
X020218Y008638D02*
X019230Y008638D01*
X019213Y009229D02*
X023370Y009229D01*
X023427Y009131D02*
X021181Y009131D01*
X021247Y009032D02*
X023507Y009032D01*
X023605Y008934D02*
X021247Y008934D01*
X021247Y008835D02*
X023738Y008835D01*
X023909Y008737D02*
X021247Y008737D01*
X021247Y008638D02*
X024833Y008638D01*
X024833Y008540D02*
X021247Y008540D01*
X021833Y008762D02*
X021357Y009238D01*
X021357Y009384D01*
X024756Y008737D02*
X024833Y008737D01*
X024833Y006273D02*
X019213Y006273D01*
X019213Y006175D02*
X020278Y006175D01*
X020306Y006203D02*
X020218Y006115D01*
X020218Y005512D01*
X020682Y005512D01*
X020682Y005412D01*
X020218Y005412D01*
X020218Y004809D01*
X020306Y004721D01*
X020683Y004721D01*
X020683Y005412D01*
X020782Y005412D01*
X020782Y004721D01*
X021159Y004721D01*
X021247Y004809D01*
X021247Y005412D01*
X020783Y005412D01*
X020783Y005512D01*
X021247Y005512D01*
X021247Y006115D01*
X021159Y006203D01*
X020782Y006203D01*
X020782Y005512D01*
X020683Y005512D01*
X020683Y006203D01*
X020306Y006203D01*
X020218Y006076D02*
X017833Y006076D01*
X017833Y005978D02*
X020218Y005978D01*
X020218Y005879D02*
X017833Y005879D01*
X017833Y005780D02*
X020218Y005780D01*
X020218Y005682D02*
X019237Y005682D01*
X019149Y005769D01*
X018761Y005769D01*
X018761Y005491D01*
X018704Y005491D01*
X018704Y005769D01*
X018316Y005769D01*
X018228Y005682D01*
X018228Y005491D01*
X018704Y005491D01*
X018704Y005433D01*
X018761Y005433D01*
X018761Y005155D01*
X019149Y005155D01*
X019237Y005242D01*
X019237Y005433D01*
X018762Y005433D01*
X018762Y005491D01*
X019237Y005491D01*
X019237Y005682D01*
X019237Y005583D02*
X020218Y005583D01*
X020218Y005386D02*
X019237Y005386D01*
X019237Y005288D02*
X020218Y005288D01*
X020218Y005189D02*
X019184Y005189D01*
X018761Y005189D02*
X018704Y005189D01*
X018704Y005155D02*
X018704Y005433D01*
X018228Y005433D01*
X018228Y005242D01*
X018316Y005155D01*
X018704Y005155D01*
X018704Y005288D02*
X018761Y005288D01*
X018761Y005386D02*
X018704Y005386D01*
X018733Y005462D02*
X019533Y005462D01*
X019833Y005762D01*
X020683Y005780D02*
X020782Y005780D01*
X020782Y005682D02*
X020683Y005682D01*
X020683Y005583D02*
X020782Y005583D01*
X020783Y005485D02*
X024833Y005485D01*
X024833Y005583D02*
X021247Y005583D01*
X021247Y005682D02*
X024833Y005682D01*
X024833Y005780D02*
X021247Y005780D01*
X021247Y005879D02*
X024833Y005879D01*
X024833Y005978D02*
X021247Y005978D01*
X021247Y006076D02*
X024833Y006076D01*
X024833Y006175D02*
X021187Y006175D01*
X020782Y006175D02*
X020683Y006175D01*
X020683Y006076D02*
X020782Y006076D01*
X020782Y005978D02*
X020683Y005978D01*
X020683Y005879D02*
X020782Y005879D01*
X020682Y005485D02*
X018762Y005485D01*
X018733Y005462D02*
X021790Y005462D01*
X021247Y005386D02*
X024833Y005386D01*
X024833Y005288D02*
X021247Y005288D01*
X021247Y005189D02*
X024833Y005189D01*
X024833Y005091D02*
X021247Y005091D01*
X021247Y004992D02*
X024833Y004992D01*
X024833Y004894D02*
X021247Y004894D01*
X021232Y004795D02*
X024833Y004795D01*
X024833Y004696D02*
X019213Y004696D01*
X019213Y004598D02*
X024833Y004598D01*
X024833Y004499D02*
X019213Y004499D01*
X019213Y004401D02*
X024833Y004401D01*
X024833Y004302D02*
X019170Y004302D01*
X018194Y004007D02*
X024833Y004007D01*
X024833Y004105D02*
X018095Y004105D01*
X017997Y004204D02*
X024833Y004204D01*
X024833Y003908D02*
X018292Y003908D01*
X018391Y003810D02*
X024833Y003810D01*
X024833Y003711D02*
X018489Y003711D01*
X018177Y003514D02*
X017833Y003514D01*
X017833Y003613D02*
X018079Y003613D01*
X017980Y003711D02*
X017833Y003711D01*
X017833Y003810D02*
X017882Y003810D01*
X017833Y003415D02*
X018244Y003415D01*
X018244Y003317D02*
X017833Y003317D01*
X017833Y003218D02*
X018244Y003218D01*
X018281Y003120D02*
X017833Y003120D01*
X017833Y003021D02*
X020218Y003021D01*
X020218Y002923D02*
X017833Y002923D01*
X018578Y003368D02*
X016734Y005212D01*
X017833Y005288D02*
X018228Y005288D01*
X018228Y005386D02*
X017833Y005386D01*
X017833Y005485D02*
X018704Y005485D01*
X018733Y005462D02*
X020733Y005462D01*
X020683Y005386D02*
X020782Y005386D01*
X020782Y005288D02*
X020683Y005288D01*
X020683Y005189D02*
X020782Y005189D01*
X020782Y005091D02*
X020683Y005091D01*
X020683Y004992D02*
X020782Y004992D01*
X020782Y004894D02*
X020683Y004894D01*
X020683Y004795D02*
X020782Y004795D01*
X020233Y004795D02*
X019186Y004795D01*
X018281Y005189D02*
X017877Y005189D01*
X017972Y005091D02*
X020218Y005091D01*
X020218Y004992D02*
X018068Y004992D01*
X018164Y004894D02*
X020218Y004894D01*
X018761Y005583D02*
X018704Y005583D01*
X018704Y005682D02*
X018761Y005682D01*
X018229Y005682D02*
X017833Y005682D01*
X017833Y005583D02*
X018228Y005583D01*
X017833Y004401D02*
X017833Y004401D01*
X017898Y004302D02*
X017944Y004302D01*
X019179Y003613D02*
X024833Y003613D01*
X024833Y003514D02*
X019213Y003514D01*
X019213Y003415D02*
X024833Y003415D01*
X024833Y003317D02*
X019213Y003317D01*
X019213Y003218D02*
X024833Y003218D01*
X024833Y003120D02*
X021242Y003120D01*
X021247Y003021D02*
X024833Y003021D01*
X024833Y002923D02*
X021247Y002923D01*
X021247Y002824D02*
X024833Y002824D01*
X024833Y002726D02*
X021247Y002726D01*
X021247Y002627D02*
X024833Y002627D01*
X024833Y002529D02*
X021247Y002529D01*
X021247Y002331D02*
X024074Y002331D01*
X023814Y002233D02*
X021247Y002233D01*
X021247Y002134D02*
X023649Y002134D01*
X023551Y002036D02*
X021247Y002036D01*
X020783Y002430D02*
X024833Y002430D01*
X024833Y002331D02*
X024591Y002331D01*
X023452Y001937D02*
X023308Y001687D01*
X023233Y001407D01*
X023233Y001362D01*
X022833Y001162D01*
X017833Y001162D01*
X017833Y001310D01*
X017925Y001272D01*
X018317Y001272D01*
X018320Y001269D01*
X018665Y001269D01*
X018671Y001267D01*
X018786Y001267D01*
X018792Y001269D01*
X019137Y001269D01*
X019213Y001345D01*
X019213Y001768D01*
X019137Y001844D01*
X018800Y001844D01*
X018781Y001852D01*
X018665Y001852D01*
X018103Y001852D01*
X017833Y002122D01*
X018017Y001937D02*
X020218Y001937D01*
X020218Y001839D02*
X019142Y001839D01*
X019213Y001740D02*
X020288Y001740D01*
X019213Y001642D02*
X023296Y001642D01*
X023269Y001543D02*
X019213Y001543D01*
X019213Y001445D02*
X023243Y001445D01*
X023201Y001346D02*
X019213Y001346D01*
X017833Y001247D02*
X023003Y001247D01*
X020218Y002233D02*
X019227Y002233D01*
X019237Y002331D02*
X020218Y002331D01*
X020683Y002529D02*
X020782Y002529D01*
X020733Y002462D02*
X018733Y002462D01*
X018761Y002430D02*
X018704Y002430D01*
X018704Y002331D02*
X018761Y002331D01*
X018761Y002233D02*
X018704Y002233D01*
X018704Y002529D02*
X018761Y002529D01*
X018761Y002627D02*
X018704Y002627D01*
X018704Y002726D02*
X018761Y002726D01*
X019177Y003120D02*
X020224Y003120D01*
X020683Y003120D02*
X020782Y003120D01*
X020782Y003021D02*
X020683Y003021D01*
X020683Y002923D02*
X020782Y002923D01*
X020782Y002824D02*
X020683Y002824D01*
X020683Y002726D02*
X020782Y002726D01*
X020782Y002627D02*
X020683Y002627D01*
X018729Y003368D02*
X018578Y003368D01*
X015833Y003308D02*
X015737Y003308D01*
X014933Y004112D01*
X014282Y004112D01*
X014272Y004122D01*
X014271Y004123D01*
X013709Y004123D01*
X013533Y003947D01*
X013533Y003762D01*
X013283Y003562D01*
X012733Y003562D01*
X011933Y004362D01*
X011933Y004612D01*
X011933Y005262D01*
X011933Y006317D01*
X012488Y006395D02*
X014258Y006439D01*
X014272Y006425D01*
X014272Y006170D02*
X014266Y006164D01*
X012866Y006164D01*
X012529Y005827D01*
X012402Y005827D01*
X012535Y005259D02*
X013190Y005914D01*
X014272Y005914D01*
X014272Y005658D02*
X013883Y005662D01*
X013427Y005656D01*
X012333Y004512D01*
X011933Y004612D02*
X011847Y004616D01*
X011393Y004634D01*
X011933Y005262D02*
X011933Y005362D01*
X012342Y005264D02*
X012348Y005259D01*
X012535Y005259D01*
X013533Y005162D02*
X013772Y005402D01*
X014272Y005402D01*
X014883Y004612D02*
X015483Y005212D01*
X015631Y005212D01*
X014883Y004612D02*
X014294Y004612D01*
X014272Y004634D01*
X014272Y004378D02*
X013442Y004385D01*
X013083Y004762D01*
X014272Y004378D02*
X014288Y004362D01*
X015033Y004362D01*
X015378Y004016D01*
X015833Y004016D01*
X011393Y003355D02*
X011385Y003346D01*
X010973Y003346D01*
X010945Y003374D01*
X008626Y001642D02*
X008089Y001642D01*
X008188Y001543D02*
X008506Y001543D01*
X008443Y001445D02*
X008244Y001445D01*
X008283Y001346D02*
X008403Y001346D01*
X007883Y001346D02*
X007783Y001346D01*
X007783Y001445D02*
X007883Y001445D01*
X007883Y001543D02*
X007783Y001543D01*
X007783Y001642D02*
X007883Y001642D01*
X007576Y001642D02*
X002269Y001642D01*
X002296Y001543D02*
X007477Y001543D01*
X007421Y001445D02*
X002322Y001445D01*
X002332Y001346D02*
X007383Y001346D01*
X007783Y001050D02*
X007883Y001050D01*
X007883Y000952D02*
X007783Y000952D01*
X007783Y000853D02*
X007883Y000853D01*
X006009Y002331D02*
X001491Y002331D01*
X001657Y002287D02*
X001908Y002142D01*
X002113Y001937D01*
X000974Y002331D02*
X000783Y002331D01*
X000783Y002430D02*
X005910Y002430D01*
X005812Y002529D02*
X000783Y002529D01*
X000783Y002627D02*
X005713Y002627D01*
X005614Y002726D02*
X000783Y002726D01*
X000783Y002824D02*
X005516Y002824D01*
X013533Y007062D02*
X013587Y007062D01*
X013983Y007458D01*
X013083Y007458D01*
X012233Y007458D01*
X017833Y007259D02*
X017929Y007259D01*
D21*
X017333Y008262D03*
X013533Y007062D03*
X012342Y005264D03*
X013083Y004762D03*
X013533Y005162D03*
X012333Y004512D03*
X017333Y002762D03*
X017481Y005176D03*
D22*
X021790Y005462D02*
X021833Y005504D01*
X021833Y005762D01*
X021833Y006762D01*
X021833Y007762D01*
X021833Y008262D01*
X021683Y008412D01*
X020733Y008412D01*
X021833Y005504D02*
X021833Y004762D01*
X021833Y003762D01*
X021833Y002762D01*
X021833Y002588D01*
X021700Y002455D01*
X020740Y002455D01*
X020733Y002462D01*
D23*
X012402Y005827D03*
X012488Y006395D03*
X009833Y007262D03*
X005333Y006762D03*
X005333Y004762D03*
X007333Y002762D03*
X010633Y004623D03*
D24*
X019357Y003972D03*
X020078Y003972D03*
X020865Y004453D03*
X020002Y004714D03*
X019471Y004714D03*
X019737Y005114D03*
X019718Y005856D03*
X019984Y006218D03*
X019452Y006218D03*
X020892Y006535D03*
X020097Y006922D03*
X019376Y006922D03*
X020865Y007412D03*
X020002Y007645D03*
X019452Y007645D03*
X019737Y008063D03*
X019699Y008805D03*
X019452Y009186D03*
X019984Y009167D03*
X021357Y009384D03*
X022333Y009262D03*
X022833Y008762D03*
X023333Y008262D03*
X024333Y008262D03*
X023833Y007762D03*
X024333Y007262D03*
X023333Y007262D03*
X022833Y007762D03*
X022333Y007262D03*
X021833Y007762D03*
X022333Y008262D03*
X021833Y008762D03*
X021193Y006974D03*
X021833Y006762D03*
X022833Y006762D03*
X023833Y006762D03*
X024333Y006262D03*
X023833Y005762D03*
X023333Y006262D03*
X022833Y005762D03*
X022333Y006262D03*
X021833Y005762D03*
X022333Y005262D03*
X022833Y004762D03*
X023333Y005262D03*
X023833Y004762D03*
X024333Y005262D03*
X024333Y004262D03*
X023833Y003762D03*
X023333Y004262D03*
X022833Y003762D03*
X022333Y004262D03*
X021833Y003762D03*
X021165Y003988D03*
X020837Y003467D03*
X019984Y003211D03*
X019452Y003211D03*
X019737Y002831D03*
X019756Y002070D03*
X020002Y001689D03*
X019471Y001708D03*
X021833Y001762D03*
X022333Y002262D03*
X022833Y001762D03*
X022833Y002762D03*
X023333Y003262D03*
X023833Y002762D03*
X024333Y003262D03*
X022333Y003262D03*
X021833Y002762D03*
X021833Y004762D03*
D25*
X019833Y005762D02*
X019833Y009762D01*
X019299Y010123D01*
X012098Y010123D01*
X010961Y009092D01*
X010961Y008460D01*
X010953Y008468D01*
X006930Y008468D01*
X006642Y008180D01*
X006642Y007762D01*
X005225Y007762D02*
X004743Y008508D01*
X002651Y008508D01*
X010961Y008460D02*
X010961Y007900D01*
X011409Y007453D01*
X012228Y007453D01*
X012233Y007458D01*
X017333Y008262D02*
X018088Y007507D01*
X018729Y007507D01*
X017481Y005176D02*
X017631Y005026D01*
X018033Y004612D01*
X018088Y004557D01*
X018729Y004557D01*
X017333Y002762D02*
X017333Y002212D01*
X017983Y001562D01*
X018723Y001562D01*
X018729Y001557D01*
M02*
