G75*
G70*
%OFA0B0*%
%FSLAX24Y24*%
%IPPOS*%
%LPD*%
%AMOC8*
5,1,8,0,0,1.08239X$1,22.5*
%
%ADD10OC8,0.0630*%
%ADD11C,0.0600*%
%ADD12R,0.0600X0.0600*%
%ADD13OC8,0.0594*%
%ADD14C,0.0240*%
%ADD15C,0.0360*%
%ADD16C,0.0100*%
%ADD17C,0.0357*%
%ADD18C,0.0320*%
%ADD19OC8,0.0357*%
D10*
X008961Y009092D03*
X010961Y009092D03*
D11*
X002651Y009508D03*
X002651Y008508D03*
X001633Y007362D03*
X001633Y006362D03*
X001633Y005362D03*
X001633Y004362D03*
X001633Y003362D03*
X007833Y001262D03*
X008833Y001262D03*
X009833Y001262D03*
X010833Y001262D03*
X011833Y001262D03*
X012833Y001262D03*
X013833Y001262D03*
X024420Y004033D03*
X024420Y005033D03*
X024420Y006033D03*
D12*
X024420Y007033D03*
D13*
X007373Y008245D03*
X006664Y008245D03*
X005956Y008245D03*
X005247Y008245D03*
X004538Y008245D03*
D14*
X017833Y008134D02*
X022836Y008134D01*
X022836Y007895D02*
X017833Y007895D01*
X017833Y007657D02*
X022836Y007657D01*
X022835Y007418D02*
X017833Y007418D01*
X017833Y007180D02*
X022835Y007180D01*
X022835Y006941D02*
X017833Y006941D01*
X017833Y006703D02*
X022834Y006703D01*
X022834Y006464D02*
X017833Y006464D01*
X017833Y006226D02*
X022834Y006226D01*
X022833Y005987D02*
X017833Y005987D01*
X017833Y005749D02*
X022833Y005749D01*
X022833Y005510D02*
X017833Y005510D01*
X017833Y005271D02*
X022832Y005271D01*
X022832Y005033D02*
X017833Y005033D01*
X017833Y004794D02*
X022832Y004794D01*
X022831Y004556D02*
X017833Y004556D01*
X017833Y004317D02*
X022831Y004317D01*
X022831Y004079D02*
X017833Y004079D01*
X017833Y003840D02*
X022830Y003840D01*
X022830Y003602D02*
X017833Y003602D01*
X017833Y003363D02*
X022830Y003363D01*
X022829Y003125D02*
X017833Y003125D01*
X017833Y002886D02*
X022829Y002886D01*
X022829Y002647D02*
X017833Y002647D01*
X017833Y002409D02*
X022828Y002409D01*
X022828Y002170D02*
X017833Y002170D01*
X017833Y001932D02*
X022828Y001932D01*
X022827Y001693D02*
X017833Y001693D01*
X017833Y001455D02*
X022827Y001455D01*
X022827Y001216D02*
X017833Y001216D01*
X017833Y001162D02*
X017833Y009662D01*
X022838Y009667D01*
X022827Y001134D01*
X017833Y001162D01*
X017833Y008373D02*
X022837Y008373D01*
X022837Y008611D02*
X017833Y008611D01*
X017833Y008850D02*
X022837Y008850D01*
X022838Y009088D02*
X017833Y009088D01*
X017833Y009327D02*
X022838Y009327D01*
X022838Y009565D02*
X017833Y009565D01*
D15*
X013533Y007062D03*
X012342Y005264D03*
X013083Y004762D03*
X013533Y005162D03*
X012333Y004512D03*
D16*
X002257Y000837D02*
X002185Y000712D01*
X009072Y000712D01*
X008972Y000811D01*
X008926Y000792D01*
X008739Y000792D01*
X008566Y000864D01*
X008434Y000996D01*
X008363Y001169D01*
X008363Y001356D01*
X008382Y001402D01*
X007370Y002414D01*
X007263Y002414D01*
X007135Y002467D01*
X007037Y002565D01*
X006984Y002693D01*
X006984Y002831D01*
X007037Y002959D01*
X007135Y003057D01*
X007263Y003110D01*
X007402Y003110D01*
X007530Y003057D01*
X007628Y002959D01*
X007681Y002831D01*
X007681Y002725D01*
X008693Y001713D01*
X008739Y001732D01*
X008926Y001732D01*
X009099Y001660D01*
X009231Y001528D01*
X009303Y001356D01*
X009303Y001169D01*
X009283Y001122D01*
X009445Y000960D01*
X009470Y000960D01*
X009434Y000996D01*
X009363Y001169D01*
X009363Y001356D01*
X009434Y001528D01*
X009566Y001660D01*
X009613Y001680D01*
X009613Y002353D01*
X009741Y002482D01*
X010413Y003154D01*
X010413Y004350D01*
X010338Y004426D01*
X010285Y004554D01*
X010285Y004692D01*
X010332Y004806D01*
X007167Y004806D01*
X006553Y004191D01*
X006553Y004171D01*
X006424Y004042D01*
X005524Y003142D01*
X005341Y003142D01*
X002050Y003142D01*
X002031Y003096D01*
X001899Y002964D01*
X001726Y002892D01*
X001539Y002892D01*
X001366Y002964D01*
X001234Y003096D01*
X001163Y003269D01*
X001163Y003456D01*
X001234Y003628D01*
X001366Y003760D01*
X001539Y003832D01*
X001726Y003832D01*
X001899Y003760D01*
X002031Y003628D01*
X002050Y003582D01*
X005341Y003582D01*
X006113Y004353D01*
X006113Y004374D01*
X006781Y005042D01*
X006424Y005042D01*
X005524Y004142D01*
X005341Y004142D01*
X002050Y004142D01*
X002031Y004096D01*
X001899Y003964D01*
X001726Y003892D01*
X001539Y003892D01*
X001366Y003964D01*
X001234Y004096D01*
X001163Y004269D01*
X001163Y004456D01*
X001234Y004628D01*
X001366Y004760D01*
X001539Y004832D01*
X001726Y004832D01*
X001899Y004760D01*
X002031Y004628D01*
X002050Y004582D01*
X005030Y004582D01*
X004984Y004693D01*
X004984Y004831D01*
X005037Y004959D01*
X005113Y005035D01*
X005113Y006489D01*
X005037Y006565D01*
X004984Y006693D01*
X004984Y006831D01*
X005037Y006959D01*
X005135Y007057D01*
X005263Y007110D01*
X005402Y007110D01*
X005530Y007057D01*
X005605Y006982D01*
X005646Y006982D01*
X005646Y006982D01*
X005553Y007075D01*
X005169Y007459D01*
X003852Y006142D01*
X003670Y006142D01*
X002050Y006142D01*
X002031Y006096D01*
X001899Y005964D01*
X001726Y005892D01*
X001539Y005892D01*
X001366Y005964D01*
X001234Y006096D01*
X001163Y006269D01*
X001163Y006456D01*
X001234Y006628D01*
X001366Y006760D01*
X001539Y006832D01*
X001726Y006832D01*
X001899Y006760D01*
X002031Y006628D01*
X002050Y006582D01*
X003670Y006582D01*
X004917Y007829D01*
X004917Y007913D01*
X004917Y007914D01*
X004893Y007939D01*
X004732Y007778D01*
X004345Y007778D01*
X004071Y008051D01*
X004071Y008438D01*
X004345Y008711D01*
X004732Y008711D01*
X004893Y008550D01*
X005054Y008711D01*
X005440Y008711D01*
X005615Y008536D01*
X005771Y008691D01*
X005907Y008691D01*
X005907Y008293D01*
X006004Y008293D01*
X006004Y008691D01*
X006141Y008691D01*
X006296Y008536D01*
X006471Y008711D01*
X006858Y008711D01*
X007019Y008550D01*
X007180Y008711D01*
X007566Y008711D01*
X007840Y008438D01*
X007840Y008051D01*
X007566Y007778D01*
X007180Y007778D01*
X007019Y007939D01*
X006858Y007778D01*
X006471Y007778D01*
X006296Y007953D01*
X006141Y007798D01*
X006004Y007798D01*
X006004Y008196D01*
X005907Y008196D01*
X005907Y007798D01*
X005771Y007798D01*
X005615Y007953D01*
X005612Y007949D01*
X005969Y007592D01*
X008196Y007592D01*
X009146Y008542D01*
X009267Y008592D01*
X009398Y008592D01*
X009994Y008592D01*
X010476Y009074D01*
X010476Y009293D01*
X010760Y009577D01*
X011162Y009577D01*
X011446Y009293D01*
X011446Y008891D01*
X011162Y008607D01*
X010943Y008607D01*
X010318Y007982D01*
X010197Y007932D01*
X010065Y007932D01*
X009469Y007932D01*
X008519Y006982D01*
X008519Y006982D01*
X009241Y006982D01*
X009484Y007225D01*
X009484Y007331D01*
X009537Y007459D01*
X009635Y007557D01*
X009763Y007610D01*
X009902Y007610D01*
X010030Y007557D01*
X010128Y007459D01*
X010181Y007331D01*
X010181Y007193D01*
X010128Y007065D01*
X010030Y006967D01*
X009902Y006914D01*
X009795Y006914D01*
X009424Y006542D01*
X009241Y006542D01*
X005605Y006542D01*
X005553Y006489D01*
X005553Y005035D01*
X005628Y004959D01*
X005655Y004895D01*
X006113Y005353D01*
X006241Y005482D01*
X011390Y005482D01*
X012211Y006382D01*
X012211Y006507D01*
X012264Y006635D01*
X012362Y006733D01*
X012490Y006786D01*
X012629Y006786D01*
X012757Y006733D01*
X012855Y006635D01*
X012856Y006633D01*
X012859Y006673D01*
X012858Y006756D01*
X012865Y006763D01*
X012865Y006772D01*
X012928Y006826D01*
X012987Y006886D01*
X012996Y006886D01*
X013183Y007049D01*
X013183Y007132D01*
X013236Y007260D01*
X013333Y007357D01*
X013333Y010310D01*
X002187Y010311D01*
X002258Y010187D01*
X002333Y009907D01*
X002333Y009827D01*
X002358Y009851D01*
X002415Y009893D01*
X002478Y009925D01*
X002546Y009947D01*
X002601Y009956D01*
X002601Y009558D01*
X002701Y009558D01*
X002701Y009956D01*
X002756Y009947D01*
X002824Y009925D01*
X002887Y009893D01*
X002944Y009851D01*
X002994Y009801D01*
X003036Y009744D01*
X003068Y009681D01*
X003090Y009613D01*
X003099Y009558D01*
X002701Y009558D01*
X002701Y009458D01*
X002701Y009060D01*
X002756Y009069D01*
X002824Y009091D01*
X002887Y009123D01*
X002944Y009165D01*
X002994Y009215D01*
X003036Y009272D01*
X003068Y009335D01*
X003090Y009403D01*
X003099Y009458D01*
X002701Y009458D01*
X002601Y009458D01*
X002601Y009060D01*
X002546Y009069D01*
X002478Y009091D01*
X002415Y009123D01*
X002358Y009165D01*
X002308Y009215D01*
X002266Y009272D01*
X002245Y009314D01*
X002114Y009087D01*
X001909Y008882D01*
X001658Y008737D01*
X001378Y008662D01*
X001089Y008662D01*
X000809Y008737D01*
X000783Y008752D01*
X000783Y002272D01*
X000808Y002287D01*
X001088Y002362D01*
X001377Y002362D01*
X001657Y002287D01*
X001908Y002142D01*
X002113Y001937D01*
X007846Y001937D01*
X007945Y001839D02*
X002170Y001839D01*
X002226Y001740D02*
X008043Y001740D01*
X008005Y001679D02*
X008068Y001647D01*
X008126Y001605D01*
X008176Y001555D01*
X008217Y001498D01*
X008250Y001435D01*
X008271Y001367D01*
X008280Y001312D01*
X007883Y001312D01*
X007883Y001212D01*
X008280Y001212D01*
X008271Y001157D01*
X008250Y001089D01*
X008217Y001026D01*
X008176Y000969D01*
X008126Y000919D01*
X008068Y000877D01*
X008005Y000845D01*
X007938Y000823D01*
X007883Y000814D01*
X007883Y001212D01*
X007783Y001212D01*
X007783Y000814D01*
X007727Y000823D01*
X007660Y000845D01*
X007597Y000877D01*
X007539Y000919D01*
X007489Y000969D01*
X007448Y001026D01*
X007416Y001089D01*
X007394Y001157D01*
X007385Y001212D01*
X007782Y001212D01*
X007782Y001312D01*
X007385Y001312D01*
X007394Y001367D01*
X007416Y001435D01*
X007448Y001498D01*
X007489Y001555D01*
X007539Y001605D01*
X007597Y001647D01*
X007660Y001679D01*
X007727Y001701D01*
X007783Y001710D01*
X007783Y001312D01*
X007883Y001312D01*
X007883Y001710D01*
X007938Y001701D01*
X008005Y001679D01*
X008076Y001642D02*
X008142Y001642D01*
X008185Y001543D02*
X008240Y001543D01*
X008245Y001445D02*
X008339Y001445D01*
X008363Y001346D02*
X008275Y001346D01*
X008363Y001247D02*
X007883Y001247D01*
X007833Y001262D02*
X002833Y001262D01*
X000833Y003262D01*
X000833Y004862D01*
X001333Y005362D01*
X001633Y005362D01*
X001683Y005386D02*
X005113Y005386D01*
X005113Y005288D02*
X002076Y005288D01*
X002080Y005312D02*
X001683Y005312D01*
X001683Y005412D01*
X002080Y005412D01*
X002071Y005467D01*
X002050Y005535D01*
X002017Y005598D01*
X001976Y005655D01*
X001926Y005705D01*
X001868Y005747D01*
X001805Y005779D01*
X001738Y005801D01*
X001683Y005810D01*
X001683Y005412D01*
X001583Y005412D01*
X001583Y005810D01*
X001527Y005801D01*
X001460Y005779D01*
X001397Y005747D01*
X001339Y005705D01*
X001289Y005655D01*
X001248Y005598D01*
X001216Y005535D01*
X001194Y005467D01*
X001185Y005412D01*
X001582Y005412D01*
X001582Y005312D01*
X001185Y005312D01*
X001194Y005257D01*
X001216Y005189D01*
X000783Y005189D01*
X000783Y005091D02*
X001274Y005091D01*
X001289Y005069D02*
X001339Y005019D01*
X001397Y004977D01*
X001460Y004945D01*
X001527Y004923D01*
X001583Y004914D01*
X001583Y005312D01*
X001683Y005312D01*
X001683Y004914D01*
X001738Y004923D01*
X001805Y004945D01*
X001868Y004977D01*
X001926Y005019D01*
X001976Y005069D01*
X002017Y005126D01*
X002050Y005189D01*
X002071Y005257D01*
X002080Y005312D01*
X002050Y005189D02*
X005113Y005189D01*
X005113Y005091D02*
X001992Y005091D01*
X001889Y004992D02*
X005070Y004992D01*
X005010Y004894D02*
X000783Y004894D01*
X000783Y004992D02*
X001376Y004992D01*
X001289Y005069D02*
X001248Y005126D01*
X001216Y005189D01*
X001189Y005288D02*
X000783Y005288D01*
X000783Y005386D02*
X001582Y005386D01*
X001583Y005288D02*
X001683Y005288D01*
X001683Y005189D02*
X001583Y005189D01*
X001583Y005091D02*
X001683Y005091D01*
X001683Y004992D02*
X001583Y004992D01*
X001450Y004795D02*
X000783Y004795D01*
X000783Y004696D02*
X001302Y004696D01*
X001222Y004598D02*
X000783Y004598D01*
X000783Y004499D02*
X001181Y004499D01*
X001163Y004401D02*
X000783Y004401D01*
X000783Y004302D02*
X001163Y004302D01*
X001189Y004204D02*
X000783Y004204D01*
X000783Y004105D02*
X001230Y004105D01*
X001323Y004007D02*
X000783Y004007D01*
X000783Y003908D02*
X001500Y003908D01*
X001485Y003810D02*
X000783Y003810D01*
X000783Y003711D02*
X001317Y003711D01*
X001228Y003613D02*
X000783Y003613D01*
X000783Y003514D02*
X001187Y003514D01*
X001163Y003415D02*
X000783Y003415D01*
X000783Y003317D02*
X001163Y003317D01*
X001183Y003218D02*
X000783Y003218D01*
X000783Y003120D02*
X001224Y003120D01*
X001309Y003021D02*
X000783Y003021D01*
X000783Y002923D02*
X001465Y002923D01*
X001800Y002923D02*
X007022Y002923D01*
X006984Y002824D02*
X000783Y002824D01*
X000783Y002726D02*
X006984Y002726D01*
X007011Y002627D02*
X000783Y002627D01*
X000783Y002529D02*
X007073Y002529D01*
X007224Y002430D02*
X000783Y002430D01*
X000783Y002331D02*
X000974Y002331D01*
X001491Y002331D02*
X007452Y002331D01*
X007551Y002233D02*
X001751Y002233D01*
X001916Y002134D02*
X007649Y002134D01*
X007748Y002036D02*
X002014Y002036D01*
X002113Y001937D02*
X002257Y001687D01*
X002332Y001407D01*
X002332Y001117D01*
X002257Y000837D01*
X002262Y000853D02*
X007644Y000853D01*
X007783Y000853D02*
X007883Y000853D01*
X007883Y000952D02*
X007783Y000952D01*
X007783Y001050D02*
X007883Y001050D01*
X007883Y001149D02*
X007783Y001149D01*
X007782Y001247D02*
X002332Y001247D01*
X002332Y001149D02*
X007396Y001149D01*
X007435Y001050D02*
X002314Y001050D01*
X002288Y000952D02*
X007506Y000952D01*
X008022Y000853D02*
X008591Y000853D01*
X008478Y000952D02*
X008159Y000952D01*
X008230Y001050D02*
X008411Y001050D01*
X008371Y001149D02*
X008269Y001149D01*
X007883Y001346D02*
X007783Y001346D01*
X007783Y001445D02*
X007883Y001445D01*
X007883Y001543D02*
X007783Y001543D01*
X007783Y001642D02*
X007883Y001642D01*
X007590Y001642D02*
X002269Y001642D01*
X002296Y001543D02*
X007481Y001543D01*
X007421Y001445D02*
X002322Y001445D01*
X002332Y001346D02*
X007390Y001346D01*
X008468Y001937D02*
X009613Y001937D01*
X009613Y001839D02*
X008567Y001839D01*
X008666Y001740D02*
X009613Y001740D01*
X009548Y001642D02*
X009118Y001642D01*
X009216Y001543D02*
X009449Y001543D01*
X009399Y001445D02*
X009266Y001445D01*
X009303Y001346D02*
X009363Y001346D01*
X009363Y001247D02*
X009303Y001247D01*
X009294Y001149D02*
X009371Y001149D01*
X009355Y001050D02*
X009411Y001050D01*
X009354Y000740D02*
X008833Y001262D01*
X007333Y002762D01*
X007643Y002923D02*
X010182Y002923D01*
X010281Y003021D02*
X007566Y003021D01*
X007681Y002824D02*
X010084Y002824D01*
X009985Y002726D02*
X007681Y002726D01*
X007779Y002627D02*
X009887Y002627D01*
X009788Y002529D02*
X007877Y002529D01*
X007976Y002430D02*
X009689Y002430D01*
X009613Y002331D02*
X008074Y002331D01*
X008173Y002233D02*
X009613Y002233D01*
X009613Y002134D02*
X008271Y002134D01*
X008370Y002036D02*
X009613Y002036D01*
X009833Y002262D02*
X009833Y001262D01*
X009354Y000740D02*
X013061Y000740D01*
X013333Y001012D01*
X013333Y002762D01*
X013083Y003012D01*
X013083Y004762D01*
X013079Y006666D01*
X013533Y007062D01*
X013183Y007062D02*
X010125Y007062D01*
X010167Y007160D02*
X013194Y007160D01*
X013235Y007259D02*
X010181Y007259D01*
X010170Y007357D02*
X013333Y007357D01*
X013333Y007456D02*
X010129Y007456D01*
X010033Y007554D02*
X013333Y007554D01*
X013333Y007653D02*
X009190Y007653D01*
X009289Y007751D02*
X013333Y007751D01*
X013333Y007850D02*
X009387Y007850D01*
X009632Y007554D02*
X009091Y007554D01*
X008993Y007456D02*
X009536Y007456D01*
X009495Y007357D02*
X008894Y007357D01*
X008796Y007259D02*
X009484Y007259D01*
X009420Y007160D02*
X008697Y007160D01*
X008599Y007062D02*
X009321Y007062D01*
X009333Y006762D02*
X009833Y007262D01*
X010021Y006963D02*
X013085Y006963D01*
X012966Y006864D02*
X009746Y006864D01*
X009648Y006766D02*
X012443Y006766D01*
X012297Y006667D02*
X009549Y006667D01*
X009450Y006569D02*
X012237Y006569D01*
X012211Y006470D02*
X005553Y006470D01*
X005553Y006372D02*
X012202Y006372D01*
X012112Y006273D02*
X005553Y006273D01*
X005553Y006175D02*
X012022Y006175D01*
X011932Y006076D02*
X005553Y006076D01*
X005553Y005978D02*
X011842Y005978D01*
X011752Y005879D02*
X005553Y005879D01*
X005553Y005780D02*
X011662Y005780D01*
X011572Y005682D02*
X005553Y005682D01*
X005553Y005583D02*
X011482Y005583D01*
X011392Y005485D02*
X005553Y005485D01*
X005553Y005386D02*
X006146Y005386D01*
X006047Y005288D02*
X005553Y005288D01*
X005553Y005189D02*
X005949Y005189D01*
X005850Y005091D02*
X005553Y005091D01*
X005595Y004992D02*
X005752Y004992D01*
X006177Y004795D02*
X006534Y004795D01*
X006436Y004696D02*
X006078Y004696D01*
X005980Y004598D02*
X006337Y004598D01*
X006238Y004499D02*
X005881Y004499D01*
X005783Y004401D02*
X006140Y004401D01*
X006062Y004302D02*
X005684Y004302D01*
X005585Y004204D02*
X005963Y004204D01*
X005865Y004105D02*
X002035Y004105D01*
X001942Y004007D02*
X005766Y004007D01*
X005668Y003908D02*
X001765Y003908D01*
X001780Y003810D02*
X005569Y003810D01*
X005471Y003711D02*
X001948Y003711D01*
X002038Y003613D02*
X005372Y003613D01*
X005433Y003362D02*
X006333Y004262D01*
X006333Y004283D01*
X007076Y005026D01*
X011600Y005026D01*
X012406Y005831D01*
X012498Y005831D01*
X012560Y006437D02*
X011487Y005262D01*
X006333Y005262D01*
X005433Y004362D01*
X001633Y004362D01*
X002044Y004598D02*
X005023Y004598D01*
X004984Y004696D02*
X001963Y004696D01*
X001815Y004795D02*
X004984Y004795D01*
X005333Y004762D02*
X005333Y006762D01*
X009333Y006762D01*
X008257Y007653D02*
X005908Y007653D01*
X005810Y007751D02*
X008355Y007751D01*
X008454Y007850D02*
X007639Y007850D01*
X007737Y007948D02*
X008552Y007948D01*
X008651Y008047D02*
X007836Y008047D01*
X007840Y008146D02*
X008749Y008146D01*
X008848Y008244D02*
X007840Y008244D01*
X007840Y008343D02*
X008946Y008343D01*
X009045Y008441D02*
X007836Y008441D01*
X007738Y008540D02*
X009144Y008540D01*
X009154Y008627D02*
X008991Y008627D01*
X008991Y009062D01*
X008931Y009062D01*
X008931Y008627D01*
X008769Y008627D01*
X008496Y008900D01*
X008496Y009062D01*
X008931Y009062D01*
X008931Y009122D01*
X008496Y009122D01*
X008496Y009285D01*
X008769Y009557D01*
X008931Y009557D01*
X008931Y009122D01*
X008991Y009122D01*
X009426Y009122D01*
X009426Y009285D01*
X009154Y009557D01*
X008991Y009557D01*
X008991Y009122D01*
X008991Y009062D01*
X009426Y009062D01*
X009426Y008900D01*
X009154Y008627D01*
X009165Y008638D02*
X010041Y008638D01*
X010139Y008737D02*
X009263Y008737D01*
X009362Y008835D02*
X010238Y008835D01*
X010336Y008934D02*
X009426Y008934D01*
X009426Y009032D02*
X010435Y009032D01*
X010476Y009131D02*
X009426Y009131D01*
X009426Y009229D02*
X010476Y009229D01*
X010511Y009328D02*
X009383Y009328D01*
X009284Y009427D02*
X010610Y009427D01*
X010708Y009525D02*
X009186Y009525D01*
X008991Y009525D02*
X008931Y009525D01*
X008931Y009427D02*
X008991Y009427D01*
X008991Y009328D02*
X008931Y009328D01*
X008931Y009229D02*
X008991Y009229D01*
X008991Y009131D02*
X008931Y009131D01*
X008931Y009032D02*
X008991Y009032D01*
X008991Y008934D02*
X008931Y008934D01*
X008931Y008835D02*
X008991Y008835D01*
X008991Y008737D02*
X008931Y008737D01*
X008931Y008638D02*
X008991Y008638D01*
X008757Y008638D02*
X007639Y008638D01*
X007106Y008638D02*
X006931Y008638D01*
X006398Y008638D02*
X006194Y008638D01*
X006292Y008540D02*
X006299Y008540D01*
X006004Y008540D02*
X005907Y008540D01*
X005907Y008638D02*
X006004Y008638D01*
X005717Y008638D02*
X005513Y008638D01*
X005612Y008540D02*
X005619Y008540D01*
X005907Y008441D02*
X006004Y008441D01*
X006004Y008343D02*
X005907Y008343D01*
X005907Y008146D02*
X006004Y008146D01*
X006004Y008047D02*
X005907Y008047D01*
X005907Y007948D02*
X006004Y007948D01*
X006004Y007850D02*
X005907Y007850D01*
X005718Y007850D02*
X005711Y007850D01*
X005620Y007948D02*
X005613Y007948D01*
X005247Y007848D02*
X003761Y006362D01*
X001633Y006362D01*
X001201Y006175D02*
X000783Y006175D01*
X000783Y006273D02*
X001163Y006273D01*
X001163Y006372D02*
X000783Y006372D01*
X000783Y006470D02*
X001169Y006470D01*
X001210Y006569D02*
X000783Y006569D01*
X000783Y006667D02*
X001273Y006667D01*
X001379Y006766D02*
X000783Y006766D01*
X000783Y006864D02*
X003953Y006864D01*
X003854Y006766D02*
X001886Y006766D01*
X001992Y006667D02*
X003756Y006667D01*
X004181Y006470D02*
X005113Y006470D01*
X005113Y006372D02*
X004082Y006372D01*
X003984Y006273D02*
X005113Y006273D01*
X005113Y006175D02*
X003885Y006175D01*
X004279Y006569D02*
X005035Y006569D01*
X004995Y006667D02*
X004378Y006667D01*
X004476Y006766D02*
X004984Y006766D01*
X004998Y006864D02*
X004575Y006864D01*
X004673Y006963D02*
X005041Y006963D01*
X005145Y007062D02*
X004772Y007062D01*
X004870Y007160D02*
X005468Y007160D01*
X005520Y007062D02*
X005566Y007062D01*
X005369Y007259D02*
X004969Y007259D01*
X005068Y007357D02*
X005271Y007357D01*
X005172Y007456D02*
X005166Y007456D01*
X004741Y007653D02*
X002006Y007653D01*
X002031Y007628D02*
X001899Y007760D01*
X001726Y007832D01*
X001539Y007832D01*
X001366Y007760D01*
X001234Y007628D01*
X001163Y007456D01*
X000783Y007456D01*
X000783Y007554D02*
X001204Y007554D01*
X001163Y007456D02*
X001163Y007269D01*
X001234Y007096D01*
X001366Y006964D01*
X001539Y006892D01*
X001726Y006892D01*
X001899Y006964D01*
X002031Y007096D01*
X002103Y007269D01*
X002103Y007456D01*
X002102Y007456D02*
X004544Y007456D01*
X004642Y007554D02*
X002062Y007554D01*
X002031Y007628D02*
X002103Y007456D01*
X002103Y007357D02*
X004445Y007357D01*
X004347Y007259D02*
X002098Y007259D01*
X002058Y007160D02*
X004248Y007160D01*
X004150Y007062D02*
X001997Y007062D01*
X001897Y006963D02*
X004051Y006963D01*
X004840Y007751D02*
X001908Y007751D01*
X001357Y007751D02*
X000783Y007751D01*
X000833Y007690D02*
X002651Y009508D01*
X002701Y009525D02*
X008737Y009525D01*
X008638Y009427D02*
X003094Y009427D01*
X003064Y009328D02*
X008539Y009328D01*
X008496Y009229D02*
X003005Y009229D01*
X002898Y009131D02*
X008496Y009131D01*
X008496Y009032D02*
X002059Y009032D01*
X002139Y009131D02*
X002405Y009131D01*
X002297Y009229D02*
X002196Y009229D01*
X002385Y008907D02*
X002253Y008774D01*
X002181Y008602D01*
X002181Y008415D01*
X002253Y008242D01*
X002385Y008110D01*
X002558Y008038D01*
X002745Y008038D01*
X002917Y008110D01*
X003050Y008242D01*
X003121Y008415D01*
X003121Y008602D01*
X003050Y008774D01*
X002917Y008907D01*
X002745Y008978D01*
X002558Y008978D01*
X002385Y008907D01*
X002451Y008934D02*
X001961Y008934D01*
X001828Y008835D02*
X002314Y008835D01*
X002237Y008737D02*
X001657Y008737D01*
X002196Y008638D02*
X000783Y008638D01*
X000783Y008540D02*
X002181Y008540D01*
X002181Y008441D02*
X000783Y008441D01*
X000783Y008343D02*
X002211Y008343D01*
X002252Y008244D02*
X000783Y008244D01*
X000783Y008146D02*
X002349Y008146D01*
X002536Y008047D02*
X000783Y008047D01*
X000783Y007948D02*
X004174Y007948D01*
X004273Y007850D02*
X000783Y007850D01*
X000833Y007690D02*
X000833Y005762D01*
X001233Y005362D01*
X001333Y005362D01*
X001199Y005485D02*
X000783Y005485D01*
X000783Y005583D02*
X001240Y005583D01*
X001316Y005682D02*
X000783Y005682D01*
X000783Y005780D02*
X001464Y005780D01*
X001583Y005780D02*
X001683Y005780D01*
X001683Y005682D02*
X001583Y005682D01*
X001583Y005583D02*
X001683Y005583D01*
X001683Y005485D02*
X001583Y005485D01*
X002025Y005583D02*
X005113Y005583D01*
X005113Y005485D02*
X002066Y005485D01*
X001949Y005682D02*
X005113Y005682D01*
X005113Y005780D02*
X001801Y005780D01*
X001913Y005978D02*
X005113Y005978D01*
X005113Y006076D02*
X002011Y006076D01*
X001352Y005978D02*
X000783Y005978D01*
X000783Y006076D02*
X001254Y006076D01*
X000783Y005879D02*
X005113Y005879D01*
X006374Y004992D02*
X006731Y004992D01*
X006633Y004894D02*
X006275Y004894D01*
X006959Y004598D02*
X010285Y004598D01*
X010286Y004696D02*
X007058Y004696D01*
X007156Y004795D02*
X010327Y004795D01*
X010633Y004623D02*
X010633Y003063D01*
X009833Y002262D01*
X010379Y003120D02*
X002041Y003120D01*
X001956Y003021D02*
X007099Y003021D01*
X005994Y003613D02*
X010413Y003613D01*
X010413Y003711D02*
X006093Y003711D01*
X006191Y003810D02*
X010413Y003810D01*
X010413Y003908D02*
X006290Y003908D01*
X006388Y004007D02*
X010413Y004007D01*
X010413Y004105D02*
X006487Y004105D01*
X006565Y004204D02*
X010413Y004204D01*
X010413Y004302D02*
X006664Y004302D01*
X006762Y004401D02*
X010363Y004401D01*
X010307Y004499D02*
X006861Y004499D01*
X005896Y003514D02*
X010413Y003514D01*
X010413Y003415D02*
X005797Y003415D01*
X005699Y003317D02*
X010413Y003317D01*
X010413Y003218D02*
X005600Y003218D01*
X005433Y003362D02*
X001633Y003362D01*
X002210Y000755D02*
X009029Y000755D01*
X011833Y001262D02*
X011926Y001356D01*
X011926Y004848D01*
X012342Y005264D01*
X012342Y005264D01*
X013533Y005162D02*
X013533Y003062D01*
X013833Y002762D01*
X013833Y001262D01*
X012833Y001262D02*
X012833Y002762D01*
X012333Y003262D01*
X012333Y004512D01*
X012822Y006667D02*
X012858Y006667D01*
X012865Y006766D02*
X012677Y006766D01*
X013333Y007948D02*
X010236Y007948D01*
X010383Y008047D02*
X013333Y008047D01*
X013333Y008146D02*
X010481Y008146D01*
X010580Y008244D02*
X013333Y008244D01*
X013333Y008343D02*
X010678Y008343D01*
X010777Y008441D02*
X013333Y008441D01*
X013333Y008540D02*
X010875Y008540D01*
X011193Y008638D02*
X013333Y008638D01*
X013333Y008737D02*
X011292Y008737D01*
X011390Y008835D02*
X013333Y008835D01*
X013333Y008934D02*
X011446Y008934D01*
X011446Y009032D02*
X013333Y009032D01*
X013333Y009131D02*
X011446Y009131D01*
X011446Y009229D02*
X013333Y009229D01*
X013333Y009328D02*
X011411Y009328D01*
X011313Y009427D02*
X013333Y009427D01*
X013333Y009525D02*
X011214Y009525D01*
X013333Y009624D02*
X003087Y009624D01*
X003047Y009722D02*
X013333Y009722D01*
X013333Y009821D02*
X002975Y009821D01*
X002835Y009919D02*
X013333Y009919D01*
X013333Y010018D02*
X002304Y010018D01*
X002277Y010116D02*
X013333Y010116D01*
X013333Y010215D02*
X002242Y010215D01*
X002330Y009919D02*
X002467Y009919D01*
X002601Y009919D02*
X002701Y009919D01*
X002701Y009821D02*
X002601Y009821D01*
X002601Y009722D02*
X002701Y009722D01*
X002701Y009624D02*
X002601Y009624D01*
X002601Y009427D02*
X002701Y009427D01*
X002701Y009328D02*
X002601Y009328D01*
X002601Y009229D02*
X002701Y009229D01*
X002701Y009131D02*
X002601Y009131D01*
X002851Y008934D02*
X008496Y008934D01*
X008560Y008835D02*
X002989Y008835D01*
X003065Y008737D02*
X008659Y008737D01*
X007107Y007850D02*
X006930Y007850D01*
X006399Y007850D02*
X006193Y007850D01*
X006291Y007948D02*
X006300Y007948D01*
X004917Y007850D02*
X004804Y007850D01*
X004076Y008047D02*
X002766Y008047D01*
X002953Y008146D02*
X004071Y008146D01*
X004071Y008244D02*
X003050Y008244D01*
X003091Y008343D02*
X004071Y008343D01*
X004075Y008441D02*
X003121Y008441D01*
X003121Y008540D02*
X004173Y008540D01*
X004272Y008638D02*
X003106Y008638D01*
X004805Y008638D02*
X004980Y008638D01*
X001259Y007653D02*
X000783Y007653D01*
X000783Y007357D02*
X001163Y007357D01*
X001167Y007259D02*
X000783Y007259D01*
X000783Y007160D02*
X001207Y007160D01*
X001268Y007062D02*
X000783Y007062D01*
X000783Y006963D02*
X001368Y006963D01*
X000810Y008737D02*
X000783Y008737D01*
D17*
X005333Y006762D03*
X009833Y007262D03*
X012560Y006437D03*
X012498Y005831D03*
X010633Y004623D03*
X007333Y002762D03*
X005333Y004762D03*
D18*
X005833Y007262D02*
X008333Y007262D01*
X009333Y008262D01*
X010131Y008262D01*
X010961Y009092D01*
X010131Y010262D02*
X008961Y009092D01*
X010131Y010262D02*
X022833Y010262D01*
X023333Y009762D01*
X023333Y009262D01*
X024420Y008174D01*
X024420Y007033D01*
X005956Y008245D02*
X005833Y008368D01*
X005833Y008762D01*
X005087Y009508D01*
X002651Y009508D01*
X005247Y008245D02*
X005247Y007848D01*
X005833Y007262D01*
D19*
X019333Y006762D03*
X019833Y006762D03*
X020333Y006762D03*
X020833Y006762D03*
X021333Y006762D03*
X021833Y006762D03*
X022333Y006762D03*
X022333Y006262D03*
X021833Y006262D03*
X021833Y005762D03*
X022333Y005762D03*
X022333Y005262D03*
X021833Y005262D03*
X019962Y005030D03*
X019523Y005046D03*
X019514Y005554D03*
X019968Y005551D03*
X019971Y006028D03*
X019523Y006037D03*
X019478Y007992D03*
X019947Y007992D03*
X019947Y008450D03*
X019478Y008450D03*
X019467Y008909D03*
X019947Y008909D03*
X021333Y009262D03*
X021833Y009262D03*
X022333Y009262D03*
X022333Y008762D03*
X021833Y008762D03*
X021833Y008262D03*
X022333Y008262D03*
X022333Y003762D03*
X021833Y003762D03*
X021333Y003762D03*
X020833Y003762D03*
X020333Y003762D03*
X019833Y003762D03*
X019333Y003762D03*
X019465Y002950D03*
X019935Y002944D03*
X019935Y002492D03*
X019465Y002492D03*
X019465Y002028D03*
X019935Y002028D03*
X021833Y002262D03*
X021833Y002762D03*
X022333Y002762D03*
X022333Y003262D03*
X021833Y003262D03*
X021333Y003262D03*
M02*
