G75*
G70*
%OFA0B0*%
%FSLAX24Y24*%
%IPPOS*%
%LPD*%
%AMOC8*
5,1,8,0,0,1.08239X$1,22.5*
%
%ADD10C,0.0110*%
%ADD11C,0.0080*%
%ADD12C,0.0040*%
%ADD13C,0.0030*%
%ADD14C,0.0050*%
%ADD15C,0.0060*%
%ADD16C,0.0160*%
D10*
X007885Y002013D02*
X007885Y002407D01*
X008628Y002207D02*
X009022Y002207D01*
X008825Y002403D02*
X008825Y002010D01*
X010999Y009639D02*
X010999Y010032D01*
X010802Y009836D02*
X011196Y009836D01*
X009210Y009844D02*
X008816Y009844D01*
D11*
X012235Y009479D02*
X012375Y009479D01*
X012305Y009549D02*
X012305Y009269D01*
X012375Y009199D01*
X012541Y009199D02*
X012541Y009479D01*
X012541Y009339D02*
X012682Y009479D01*
X012752Y009479D01*
X012925Y009479D02*
X012995Y009479D01*
X012995Y009199D01*
X012925Y009199D02*
X013065Y009199D01*
X013232Y009269D02*
X013302Y009199D01*
X013512Y009199D01*
X013692Y009269D02*
X013762Y009199D01*
X013903Y009199D01*
X013973Y009269D01*
X013973Y009409D01*
X013903Y009479D01*
X013762Y009479D01*
X013692Y009409D01*
X013692Y009269D01*
X013302Y009479D02*
X013232Y009409D01*
X013232Y009269D01*
X013302Y009479D02*
X013512Y009479D01*
X012995Y009619D02*
X012995Y009689D01*
X014153Y009619D02*
X014223Y009619D01*
X014223Y009199D01*
X014153Y009199D02*
X014293Y009199D01*
X014460Y009269D02*
X014530Y009199D01*
X014670Y009199D01*
X014740Y009269D01*
X014740Y009409D01*
X014670Y009479D01*
X014530Y009479D01*
X014460Y009409D01*
X014460Y009269D01*
X014920Y009199D02*
X014920Y009479D01*
X014920Y009339D02*
X015060Y009479D01*
X015130Y009479D01*
X015764Y009479D02*
X015764Y009199D01*
X015764Y009339D02*
X015904Y009479D01*
X015974Y009479D01*
X016148Y009409D02*
X016218Y009479D01*
X016358Y009479D01*
X016428Y009409D01*
X016428Y009339D01*
X016148Y009339D01*
X016148Y009269D02*
X016148Y009409D01*
X016148Y009269D02*
X016218Y009199D01*
X016358Y009199D01*
X016608Y009479D02*
X016748Y009199D01*
X016888Y009479D01*
X017068Y009409D02*
X017208Y009479D01*
X017278Y009479D01*
X017349Y009409D01*
X017349Y009269D01*
X017278Y009199D01*
X017138Y009199D01*
X017068Y009269D01*
X017068Y009409D02*
X017068Y009619D01*
X017349Y009619D01*
X016302Y008900D02*
X016232Y008970D01*
X016092Y008970D01*
X016022Y008900D01*
X016022Y008620D01*
X016302Y008900D01*
X016302Y008620D01*
X016232Y008550D01*
X016092Y008550D01*
X016022Y008620D01*
X015842Y008550D02*
X015561Y008550D01*
X015701Y008550D02*
X015701Y008970D01*
X015561Y008830D01*
X015381Y008760D02*
X015101Y008760D01*
X014921Y008830D02*
X014851Y008760D01*
X014921Y008690D01*
X014921Y008620D01*
X014851Y008550D01*
X014711Y008550D01*
X014641Y008620D01*
X014461Y008620D02*
X014390Y008550D01*
X014250Y008550D01*
X014180Y008620D01*
X014461Y008900D01*
X014461Y008620D01*
X014180Y008620D02*
X014180Y008900D01*
X014250Y008970D01*
X014390Y008970D01*
X014461Y008900D01*
X014641Y008900D02*
X014711Y008970D01*
X014851Y008970D01*
X014921Y008900D01*
X014921Y008830D01*
X014851Y008760D02*
X014781Y008760D01*
X014000Y008760D02*
X013720Y008760D01*
X013540Y008760D02*
X013330Y008760D01*
X013260Y008830D01*
X013260Y008900D01*
X013330Y008970D01*
X013470Y008970D01*
X013540Y008900D01*
X013540Y008620D01*
X013470Y008550D01*
X013330Y008550D01*
X013260Y008620D01*
X015304Y009129D02*
X015584Y009129D01*
X023440Y006955D02*
X023720Y006955D01*
X023920Y006783D02*
X023920Y007283D01*
X024170Y007533D01*
X024670Y007533D01*
X024920Y007283D01*
X024920Y006783D01*
X024670Y006533D01*
X024920Y006283D01*
X024920Y005783D01*
X024670Y005533D01*
X024920Y005283D01*
X024920Y004783D01*
X024670Y004533D01*
X024920Y004283D01*
X024920Y003783D01*
X024670Y003533D01*
X024170Y003533D01*
X023920Y003783D01*
X023920Y004283D01*
X024170Y004533D01*
X023920Y004783D01*
X023920Y005283D01*
X024170Y005533D01*
X023920Y005783D01*
X023920Y006283D01*
X024170Y006533D01*
X023920Y006783D01*
X023621Y006244D02*
X023411Y006244D01*
X023411Y005823D01*
X023551Y005963D02*
X023691Y005823D01*
X023621Y005963D02*
X023411Y005963D01*
X023621Y005963D02*
X023691Y006033D01*
X023691Y006174D01*
X023621Y006244D01*
X023621Y005215D02*
X023481Y005215D01*
X023411Y005145D01*
X023411Y004864D01*
X023481Y004794D01*
X023621Y004794D01*
X023691Y004864D01*
X023691Y005005D01*
X023551Y005005D01*
X023691Y005145D02*
X023621Y005215D01*
X023657Y004252D02*
X023447Y004252D01*
X023447Y003831D01*
X023657Y003831D01*
X023728Y003901D01*
X023728Y003971D01*
X023657Y004041D01*
X023447Y004041D01*
X023657Y004041D02*
X023728Y004111D01*
X023728Y004181D01*
X023657Y004252D01*
X014333Y001512D02*
X014333Y001012D01*
X014083Y000762D01*
X013583Y000762D01*
X013333Y001012D01*
X013083Y000762D01*
X012583Y000762D01*
X012333Y001012D01*
X012083Y000762D01*
X011583Y000762D01*
X011333Y001012D01*
X011083Y000762D01*
X010583Y000762D01*
X010333Y001012D01*
X010083Y000762D01*
X009583Y000762D01*
X009333Y001012D01*
X009083Y000762D01*
X008583Y000762D01*
X008333Y001012D01*
X008083Y000762D01*
X007583Y000762D01*
X007333Y001012D01*
X007333Y001512D01*
X007583Y001762D01*
X008083Y001762D01*
X008333Y001512D01*
X008583Y001762D01*
X009083Y001762D01*
X009333Y001512D01*
X009583Y001762D01*
X010083Y001762D01*
X010333Y001512D01*
X010583Y001762D01*
X011083Y001762D01*
X011333Y001512D01*
X011583Y001762D01*
X012083Y001762D01*
X012333Y001512D01*
X012583Y001762D01*
X013083Y001762D01*
X013333Y001512D01*
X013583Y001762D01*
X014083Y001762D01*
X014333Y001512D01*
X002685Y003090D02*
X002615Y003020D01*
X002475Y003020D01*
X002404Y003090D01*
X002404Y003230D02*
X002545Y003300D01*
X002615Y003300D01*
X002685Y003230D01*
X002685Y003090D01*
X002404Y003230D02*
X002404Y003440D01*
X002685Y003440D01*
X002133Y003612D02*
X002133Y003112D01*
X001883Y002862D01*
X001383Y002862D01*
X001133Y003112D01*
X001133Y003612D01*
X001383Y003862D01*
X001133Y004112D01*
X001133Y004612D01*
X001383Y004862D01*
X001133Y005112D01*
X001133Y005612D01*
X001383Y005862D01*
X001133Y006112D01*
X001133Y006612D01*
X001383Y006862D01*
X001133Y007112D01*
X001133Y007612D01*
X001383Y007862D01*
X001883Y007862D01*
X002133Y007612D01*
X002133Y007112D01*
X001883Y006862D01*
X002133Y006612D01*
X002133Y006112D01*
X001883Y005862D01*
X002133Y005612D01*
X002133Y005112D01*
X001883Y004862D01*
X002133Y004612D01*
X002133Y004112D01*
X001883Y003862D01*
X002133Y003612D01*
X002615Y004020D02*
X002615Y004440D01*
X002404Y004230D01*
X002685Y004230D01*
X002615Y005020D02*
X002475Y005020D01*
X002404Y005090D01*
X002545Y005230D02*
X002615Y005230D01*
X002685Y005160D01*
X002685Y005090D01*
X002615Y005020D01*
X002615Y005230D02*
X002685Y005300D01*
X002685Y005370D01*
X002615Y005440D01*
X002475Y005440D01*
X002404Y005370D01*
X002404Y006070D02*
X002685Y006350D01*
X002685Y006420D01*
X002615Y006490D01*
X002475Y006490D01*
X002404Y006420D01*
X002404Y006070D02*
X002685Y006070D01*
X002685Y007070D02*
X002404Y007070D01*
X002545Y007070D02*
X002545Y007490D01*
X002404Y007350D01*
X002401Y008008D02*
X002901Y008008D01*
X003151Y008258D01*
X003151Y008758D01*
X002901Y009008D01*
X003151Y009258D01*
X003151Y009758D01*
X002901Y010008D01*
X002401Y010008D01*
X002151Y009758D01*
X002151Y009258D01*
X002401Y009008D01*
X002151Y008758D01*
X002151Y008258D01*
X002401Y008008D01*
D12*
X004532Y001228D02*
X004532Y000767D01*
X004532Y000921D02*
X004762Y000921D01*
X004838Y000998D01*
X004838Y001151D01*
X004762Y001228D01*
X004532Y001228D01*
X004992Y001228D02*
X004992Y000767D01*
X005299Y000767D01*
X005452Y000767D02*
X005452Y001228D01*
X005682Y001228D01*
X005759Y001151D01*
X005759Y000998D01*
X005682Y000921D01*
X005452Y000921D01*
X005606Y000921D02*
X005759Y000767D01*
X005913Y000767D02*
X006066Y000767D01*
X005989Y000767D02*
X005989Y001228D01*
X005913Y001228D02*
X006066Y001228D01*
X006219Y001228D02*
X006450Y001228D01*
X006526Y001151D01*
X006526Y000998D01*
X006450Y000921D01*
X006219Y000921D01*
X006680Y000998D02*
X006987Y000998D01*
X006987Y001228D02*
X006987Y000767D01*
X006680Y000767D02*
X006680Y001228D01*
X006219Y001228D02*
X006219Y000767D01*
X005299Y001228D02*
X004992Y001228D01*
X004992Y000998D02*
X005145Y000998D01*
X002541Y002359D02*
X002464Y002282D01*
X002310Y002282D01*
X002234Y002359D01*
X002234Y002666D01*
X002310Y002742D01*
X002464Y002742D01*
X002541Y002666D01*
X002080Y002666D02*
X002003Y002742D01*
X001850Y002742D01*
X001773Y002666D01*
X001773Y002359D01*
X001850Y002282D01*
X002003Y002282D01*
X002080Y002359D01*
X002080Y002666D01*
X002387Y002512D02*
X002541Y002512D01*
X002541Y002359D01*
X001620Y002282D02*
X001466Y002435D01*
X001543Y002435D02*
X001313Y002435D01*
X001159Y002512D02*
X001083Y002435D01*
X000853Y002435D01*
X001159Y002512D02*
X001159Y002666D01*
X001083Y002742D01*
X000853Y002742D01*
X000853Y002282D01*
X001313Y002282D02*
X001313Y002742D01*
X001543Y002742D01*
X001620Y002666D01*
X001620Y002512D01*
X001543Y002435D01*
X009853Y006859D02*
X009929Y006782D01*
X010083Y006782D01*
X010159Y006859D01*
X010159Y007012D01*
X010083Y007089D01*
X010006Y007089D01*
X009853Y007012D01*
X009853Y007242D01*
X010159Y007242D01*
X008080Y007359D02*
X008080Y007512D01*
X007927Y007512D01*
X008080Y007666D02*
X008003Y007742D01*
X007850Y007742D01*
X007773Y007666D01*
X007773Y007359D01*
X007850Y007282D01*
X008003Y007282D01*
X008080Y007359D01*
X007620Y007282D02*
X007313Y007282D01*
X007313Y007742D01*
X007620Y007742D01*
X007466Y007512D02*
X007313Y007512D01*
X007159Y007512D02*
X007083Y007435D01*
X006853Y007435D01*
X006853Y007282D02*
X006853Y007742D01*
X007083Y007742D01*
X007159Y007666D01*
X007159Y007512D01*
X007006Y007435D02*
X007159Y007282D01*
X007256Y008791D02*
X007563Y008791D01*
X007409Y008791D02*
X007409Y009251D01*
X007256Y009097D01*
X006852Y009088D02*
X006852Y009165D01*
X006775Y009242D01*
X006622Y009242D01*
X006545Y009165D01*
X006852Y009088D02*
X006545Y008781D01*
X006852Y008781D01*
X006133Y008858D02*
X006056Y008781D01*
X005903Y008781D01*
X005826Y008858D01*
X005979Y009012D02*
X006056Y009012D01*
X006133Y008935D01*
X006133Y008858D01*
X006056Y009012D02*
X006133Y009088D01*
X006133Y009165D01*
X006056Y009242D01*
X005903Y009242D01*
X005826Y009165D01*
X005413Y009012D02*
X005107Y009012D01*
X005337Y009242D01*
X005337Y008781D01*
X005337Y009242D01*
X005107Y009012D01*
X005413Y009012D01*
X004721Y009012D02*
X004721Y008858D01*
X004645Y008781D01*
X004491Y008781D01*
X004414Y008858D01*
X004414Y009012D02*
X004568Y009088D01*
X004645Y009088D01*
X004721Y009012D01*
X004414Y009012D02*
X004414Y009242D01*
X004721Y009242D01*
X004620Y009782D02*
X004620Y010089D01*
X004466Y010242D01*
X004313Y010089D01*
X004313Y009782D01*
X004159Y009859D02*
X004083Y009782D01*
X003853Y009782D01*
X003853Y010242D01*
X004083Y010242D01*
X004159Y010166D01*
X004159Y010089D01*
X004083Y010012D01*
X003853Y010012D01*
X004083Y010012D02*
X004159Y009935D01*
X004159Y009859D01*
X004313Y010012D02*
X004620Y010012D01*
X004773Y010242D02*
X005080Y010242D01*
X004927Y010242D02*
X004927Y009782D01*
X005387Y009782D02*
X005387Y010242D01*
X005234Y010242D02*
X005541Y010242D01*
X003480Y009982D02*
X003173Y009982D01*
X003347Y008182D02*
X003347Y007875D01*
X003194Y008029D02*
X003500Y008029D01*
X012810Y009852D02*
X012810Y010312D01*
X013117Y009852D01*
X013117Y010312D01*
X013271Y010312D02*
X013501Y010312D01*
X013578Y010235D01*
X013578Y010158D01*
X013501Y010082D01*
X013271Y010082D01*
X013501Y010082D02*
X013578Y010005D01*
X013578Y009928D01*
X013501Y009852D01*
X013271Y009852D01*
X013271Y010312D01*
X013731Y010158D02*
X013808Y010158D01*
X013808Y009852D01*
X013884Y009852D02*
X013731Y009852D01*
X014115Y009928D02*
X014191Y009852D01*
X014115Y009928D02*
X014115Y010235D01*
X014038Y010158D02*
X014191Y010158D01*
X014345Y010312D02*
X014345Y009852D01*
X014498Y010005D01*
X014652Y009852D01*
X014652Y010312D01*
X014882Y010158D02*
X014805Y010082D01*
X014805Y009928D01*
X014882Y009852D01*
X015035Y009852D01*
X015112Y009928D01*
X015112Y010082D01*
X015035Y010158D01*
X014882Y010158D01*
X015265Y010158D02*
X015496Y010158D01*
X015572Y010082D01*
X015572Y009852D01*
X015726Y009928D02*
X015803Y009852D01*
X016033Y009852D01*
X016033Y010312D01*
X016033Y010158D02*
X015803Y010158D01*
X015726Y010082D01*
X015726Y009928D01*
X016186Y009928D02*
X016263Y009852D01*
X016416Y009852D01*
X016647Y009852D02*
X016647Y010158D01*
X016800Y010158D02*
X016877Y010158D01*
X016800Y010158D02*
X016647Y010005D01*
X016493Y010005D02*
X016186Y010005D01*
X016186Y010082D02*
X016263Y010158D01*
X016416Y010158D01*
X016493Y010082D01*
X016493Y010005D01*
X016186Y009928D02*
X016186Y010082D01*
X015265Y010158D02*
X015265Y009852D01*
X013808Y010312D02*
X013808Y010389D01*
X023919Y008211D02*
X023919Y007751D01*
X024226Y007751D01*
X024379Y007751D02*
X024686Y007751D01*
X024840Y007751D02*
X025070Y007751D01*
X025146Y007828D01*
X025146Y008135D01*
X025070Y008211D01*
X024840Y008211D01*
X024840Y007751D01*
X024379Y007751D02*
X024379Y008211D01*
X024686Y008211D01*
X024533Y007981D02*
X024379Y007981D01*
D13*
X010961Y002627D02*
X010961Y002530D01*
X010912Y002482D01*
X010719Y002676D01*
X010912Y002676D01*
X010961Y002627D01*
X010912Y002482D02*
X010719Y002482D01*
X010670Y002530D01*
X010670Y002627D01*
X010719Y002676D01*
X010719Y002381D02*
X010767Y002381D01*
X010816Y002333D01*
X010816Y002187D01*
X010816Y002086D02*
X010864Y002038D01*
X010864Y001893D01*
X010961Y001893D02*
X010670Y001893D01*
X010670Y002038D01*
X010719Y002086D01*
X010816Y002086D01*
X010961Y002187D02*
X010670Y002187D01*
X010670Y002333D01*
X010719Y002381D01*
X010816Y002333D02*
X010864Y002381D01*
X010912Y002381D01*
X010961Y002333D01*
X010961Y002187D01*
X011705Y002059D02*
X011705Y001913D01*
X011995Y001913D01*
X011898Y001913D02*
X011898Y002059D01*
X011850Y002107D01*
X011753Y002107D01*
X011705Y002059D01*
X011898Y002010D02*
X011995Y002107D01*
X012656Y002038D02*
X012656Y001941D01*
X012705Y001893D01*
X012898Y001893D01*
X012947Y001941D01*
X012947Y002038D01*
X012898Y002086D01*
X012801Y002086D01*
X012801Y001990D01*
X012801Y002086D01*
X012898Y002086D01*
X012947Y002038D01*
X012947Y001941D01*
X012898Y001893D01*
X012705Y001893D01*
X012656Y001941D01*
X012656Y002038D01*
X012705Y002086D01*
X012656Y002038D01*
X013691Y002038D02*
X013691Y001893D01*
X013981Y001893D01*
X013981Y002038D01*
X013932Y002086D01*
X013884Y002086D01*
X013836Y002038D01*
X013836Y001893D01*
X013836Y002038D02*
X013787Y002086D01*
X013739Y002086D01*
X013691Y002038D01*
X009989Y001872D02*
X009698Y001872D01*
X009698Y002017D01*
X009747Y002066D01*
X009844Y002066D01*
X009892Y002017D01*
X009892Y001872D01*
X009940Y002167D02*
X009747Y002167D01*
X009698Y002215D01*
X009698Y002312D01*
X009747Y002360D01*
X009940Y002360D01*
X009989Y002312D01*
X009989Y002215D01*
X009940Y002167D01*
X009698Y002461D02*
X009698Y002655D01*
X009698Y002558D02*
X009989Y002558D01*
D14*
X019233Y003462D02*
X019233Y001462D01*
X020233Y001462D01*
X020233Y003462D01*
X019233Y003462D01*
X019233Y004462D02*
X019233Y006462D01*
X020233Y006462D01*
X020233Y004462D01*
X019233Y004462D01*
X019233Y007412D02*
X019233Y009412D01*
X020233Y009412D01*
X020233Y007412D01*
X019233Y007412D01*
X007786Y008048D02*
X007570Y007831D01*
X007176Y007831D01*
X007019Y007989D01*
X006861Y007831D01*
X006467Y007831D01*
X006310Y007989D01*
X006152Y007831D01*
X005759Y007831D01*
X005601Y007989D01*
X005444Y007831D01*
X005050Y007831D01*
X004893Y007989D01*
X004735Y007831D01*
X004341Y007831D01*
X004125Y008048D01*
X004125Y008441D01*
X004341Y008658D01*
X004735Y008658D01*
X004893Y008500D01*
X005050Y008658D01*
X005444Y008658D01*
X005601Y008500D01*
X005759Y008658D01*
X006152Y008658D01*
X006310Y008500D01*
X006467Y008658D01*
X006861Y008658D01*
X007019Y008500D01*
X007176Y008658D01*
X007570Y008658D01*
X007786Y008441D01*
X007786Y008048D01*
D15*
X008511Y007742D02*
X008511Y010442D01*
X008513Y010459D01*
X008517Y010476D01*
X008524Y010492D01*
X008534Y010506D01*
X008547Y010519D01*
X008561Y010529D01*
X008577Y010536D01*
X008594Y010540D01*
X008611Y010542D01*
X011311Y010542D01*
X011328Y010540D01*
X011345Y010536D01*
X011361Y010529D01*
X011375Y010519D01*
X011388Y010506D01*
X011398Y010492D01*
X011405Y010476D01*
X011409Y010459D01*
X011411Y010442D01*
X011411Y007742D01*
X011409Y007725D01*
X011405Y007708D01*
X011398Y007692D01*
X011388Y007678D01*
X011375Y007665D01*
X011361Y007655D01*
X011345Y007648D01*
X011328Y007644D01*
X011311Y007642D01*
X008611Y007642D01*
X008594Y007644D01*
X008577Y007648D01*
X008561Y007655D01*
X008547Y007665D01*
X008534Y007678D01*
X008524Y007692D01*
X008517Y007708D01*
X008513Y007725D01*
X008511Y007742D01*
X009361Y009092D02*
X009791Y009092D01*
X010141Y009092D02*
X010561Y009092D01*
X011996Y007930D02*
X011996Y007694D01*
X012469Y007694D02*
X012469Y007930D01*
X012846Y007930D02*
X012846Y007694D01*
X013319Y007694D02*
X013319Y007930D01*
X013746Y007930D02*
X013746Y007694D01*
X014219Y007694D02*
X014219Y007930D01*
X013984Y006809D02*
X011681Y006809D01*
X011681Y002715D01*
X013984Y002715D01*
X013984Y006809D01*
X011884Y006425D02*
X011886Y006451D01*
X011892Y006477D01*
X011901Y006502D01*
X011914Y006525D01*
X011930Y006546D01*
X011949Y006564D01*
X011971Y006580D01*
X011994Y006592D01*
X012019Y006600D01*
X012045Y006605D01*
X012072Y006606D01*
X012098Y006603D01*
X012123Y006596D01*
X012148Y006586D01*
X012170Y006572D01*
X012191Y006555D01*
X012208Y006536D01*
X012223Y006514D01*
X012234Y006490D01*
X012242Y006464D01*
X012246Y006438D01*
X012246Y006412D01*
X012242Y006386D01*
X012234Y006360D01*
X012223Y006336D01*
X012208Y006314D01*
X012191Y006295D01*
X012170Y006278D01*
X012148Y006264D01*
X012123Y006254D01*
X012098Y006247D01*
X012072Y006244D01*
X012045Y006245D01*
X012019Y006250D01*
X011994Y006258D01*
X011971Y006270D01*
X011949Y006286D01*
X011930Y006304D01*
X011914Y006325D01*
X011901Y006348D01*
X011892Y006373D01*
X011886Y006399D01*
X011884Y006425D01*
X015596Y003780D02*
X015596Y003544D01*
X016069Y003544D02*
X016069Y003780D01*
D16*
X010141Y008792D02*
X010141Y009092D01*
X010141Y009392D01*
X009791Y009392D02*
X009791Y009092D01*
X009791Y008792D01*
M02*
