G75*
G70*
%OFA0B0*%
%FSLAX24Y24*%
%IPPOS*%
%LPD*%
%AMOC8*
5,1,8,0,0,1.08239X$1,22.5*
%
%ADD10C,0.0000*%
%ADD11R,0.0600X0.0600*%
%ADD12C,0.0600*%
%ADD13C,0.0515*%
%ADD14C,0.0100*%
D10*
X000101Y000151D02*
X000101Y004171D01*
X022121Y004171D01*
X022121Y000151D01*
X000101Y000151D01*
X000951Y002151D02*
X000953Y002201D01*
X000959Y002251D01*
X000969Y002301D01*
X000982Y002349D01*
X000999Y002397D01*
X001020Y002443D01*
X001044Y002487D01*
X001072Y002529D01*
X001103Y002569D01*
X001137Y002606D01*
X001174Y002641D01*
X001213Y002672D01*
X001254Y002701D01*
X001298Y002726D01*
X001344Y002748D01*
X001391Y002766D01*
X001439Y002780D01*
X001488Y002791D01*
X001538Y002798D01*
X001588Y002801D01*
X001639Y002800D01*
X001689Y002795D01*
X001739Y002786D01*
X001787Y002774D01*
X001835Y002757D01*
X001881Y002737D01*
X001926Y002714D01*
X001969Y002687D01*
X002009Y002657D01*
X002047Y002624D01*
X002082Y002588D01*
X002115Y002549D01*
X002144Y002508D01*
X002170Y002465D01*
X002193Y002420D01*
X002212Y002373D01*
X002227Y002325D01*
X002239Y002276D01*
X002247Y002226D01*
X002251Y002176D01*
X002251Y002126D01*
X002247Y002076D01*
X002239Y002026D01*
X002227Y001977D01*
X002212Y001929D01*
X002193Y001882D01*
X002170Y001837D01*
X002144Y001794D01*
X002115Y001753D01*
X002082Y001714D01*
X002047Y001678D01*
X002009Y001645D01*
X001969Y001615D01*
X001926Y001588D01*
X001881Y001565D01*
X001835Y001545D01*
X001787Y001528D01*
X001739Y001516D01*
X001689Y001507D01*
X001639Y001502D01*
X001588Y001501D01*
X001538Y001504D01*
X001488Y001511D01*
X001439Y001522D01*
X001391Y001536D01*
X001344Y001554D01*
X001298Y001576D01*
X001254Y001601D01*
X001213Y001630D01*
X001174Y001661D01*
X001137Y001696D01*
X001103Y001733D01*
X001072Y001773D01*
X001044Y001815D01*
X001020Y001859D01*
X000999Y001905D01*
X000982Y001953D01*
X000969Y002001D01*
X000959Y002051D01*
X000953Y002101D01*
X000951Y002151D01*
X019951Y002151D02*
X019953Y002201D01*
X019959Y002251D01*
X019969Y002301D01*
X019982Y002349D01*
X019999Y002397D01*
X020020Y002443D01*
X020044Y002487D01*
X020072Y002529D01*
X020103Y002569D01*
X020137Y002606D01*
X020174Y002641D01*
X020213Y002672D01*
X020254Y002701D01*
X020298Y002726D01*
X020344Y002748D01*
X020391Y002766D01*
X020439Y002780D01*
X020488Y002791D01*
X020538Y002798D01*
X020588Y002801D01*
X020639Y002800D01*
X020689Y002795D01*
X020739Y002786D01*
X020787Y002774D01*
X020835Y002757D01*
X020881Y002737D01*
X020926Y002714D01*
X020969Y002687D01*
X021009Y002657D01*
X021047Y002624D01*
X021082Y002588D01*
X021115Y002549D01*
X021144Y002508D01*
X021170Y002465D01*
X021193Y002420D01*
X021212Y002373D01*
X021227Y002325D01*
X021239Y002276D01*
X021247Y002226D01*
X021251Y002176D01*
X021251Y002126D01*
X021247Y002076D01*
X021239Y002026D01*
X021227Y001977D01*
X021212Y001929D01*
X021193Y001882D01*
X021170Y001837D01*
X021144Y001794D01*
X021115Y001753D01*
X021082Y001714D01*
X021047Y001678D01*
X021009Y001645D01*
X020969Y001615D01*
X020926Y001588D01*
X020881Y001565D01*
X020835Y001545D01*
X020787Y001528D01*
X020739Y001516D01*
X020689Y001507D01*
X020639Y001502D01*
X020588Y001501D01*
X020538Y001504D01*
X020488Y001511D01*
X020439Y001522D01*
X020391Y001536D01*
X020344Y001554D01*
X020298Y001576D01*
X020254Y001601D01*
X020213Y001630D01*
X020174Y001661D01*
X020137Y001696D01*
X020103Y001733D01*
X020072Y001773D01*
X020044Y001815D01*
X020020Y001859D01*
X019999Y001905D01*
X019982Y001953D01*
X019969Y002001D01*
X019959Y002051D01*
X019953Y002101D01*
X019951Y002151D01*
D11*
X016601Y002053D03*
D12*
X015601Y002053D03*
X014601Y002053D03*
X013601Y002053D03*
X013603Y000872D03*
X014603Y000872D03*
X015603Y000872D03*
X016603Y000872D03*
X017603Y000872D03*
X018603Y000872D03*
X012603Y000872D03*
X010991Y000871D03*
X009211Y000871D03*
X009211Y003431D03*
X010991Y003431D03*
D13*
X006085Y002151D03*
X004117Y001167D03*
X004117Y003135D03*
D14*
X004504Y003107D02*
X008898Y003107D01*
X008956Y003050D02*
X008829Y003176D01*
X008761Y003342D01*
X008761Y003381D01*
X009161Y003381D01*
X009261Y003381D01*
X009261Y003481D01*
X009661Y003481D01*
X009661Y003521D01*
X009592Y003686D01*
X009557Y003721D01*
X010672Y003721D01*
X010626Y003675D01*
X010561Y003517D01*
X010561Y003346D01*
X010626Y003188D01*
X010747Y003067D01*
X010811Y003040D01*
X010811Y001262D01*
X010747Y001236D01*
X010626Y001115D01*
X010561Y000957D01*
X010561Y000786D01*
X010626Y000628D01*
X010653Y000601D01*
X009577Y000601D01*
X009592Y000616D01*
X009661Y000782D01*
X009661Y000821D01*
X009261Y000821D01*
X009261Y000921D01*
X009661Y000921D01*
X009661Y000961D01*
X009592Y001126D01*
X009466Y001253D01*
X009300Y001321D01*
X009261Y001321D01*
X009261Y000921D01*
X009161Y000921D01*
X009161Y000821D01*
X008761Y000821D01*
X008761Y000782D01*
X008829Y000616D01*
X008844Y000601D01*
X003101Y000601D01*
X003101Y003721D01*
X008864Y003721D01*
X008829Y003686D01*
X008761Y003521D01*
X008761Y003481D01*
X009161Y003481D01*
X009161Y003381D01*
X009161Y002981D01*
X009121Y002981D01*
X008956Y003050D01*
X009054Y003009D02*
X004484Y003009D01*
X004504Y003058D02*
X004445Y002916D01*
X004336Y002807D01*
X004194Y002748D01*
X004039Y002748D01*
X003897Y002807D01*
X003788Y002916D01*
X003729Y003058D01*
X003729Y003212D01*
X003788Y003355D01*
X003897Y003464D01*
X004039Y003523D01*
X004194Y003523D01*
X004336Y003464D01*
X004445Y003355D01*
X004504Y003212D01*
X004504Y003058D01*
X004504Y003206D02*
X008817Y003206D01*
X008776Y003305D02*
X004466Y003305D01*
X004397Y003403D02*
X009161Y003403D01*
X009211Y003431D02*
X009211Y000871D01*
X009712Y000401D01*
X012136Y000401D01*
X012603Y000844D01*
X012603Y000872D01*
X012653Y000841D02*
X013173Y000841D01*
X013173Y000786D02*
X013238Y000628D01*
X013265Y000601D01*
X012969Y000601D01*
X012984Y000617D01*
X013053Y000782D01*
X013053Y000822D01*
X012653Y000822D01*
X012653Y000922D01*
X012553Y000922D01*
X012553Y001322D01*
X012513Y001322D01*
X012348Y001253D01*
X012221Y001127D01*
X012153Y000961D01*
X012153Y000922D01*
X012553Y000922D01*
X012553Y000822D01*
X012153Y000822D01*
X012153Y000782D01*
X012221Y000617D01*
X012237Y000601D01*
X011329Y000601D01*
X011355Y000628D01*
X011421Y000786D01*
X011421Y000957D01*
X011355Y001115D01*
X011234Y001236D01*
X011171Y001262D01*
X011171Y003040D01*
X011234Y003067D01*
X011355Y003188D01*
X011421Y003346D01*
X011421Y003517D01*
X011355Y003675D01*
X011309Y003721D01*
X019101Y003721D01*
X019101Y000601D01*
X018940Y000601D01*
X018967Y000628D01*
X019033Y000786D01*
X019033Y000957D01*
X018967Y001115D01*
X018846Y001236D01*
X018688Y001302D01*
X018517Y001302D01*
X018359Y001236D01*
X018238Y001115D01*
X018173Y000957D01*
X018173Y000786D01*
X018238Y000628D01*
X018265Y000601D01*
X017940Y000601D01*
X017967Y000628D01*
X018033Y000786D01*
X018033Y000957D01*
X017967Y001115D01*
X017846Y001236D01*
X017688Y001302D01*
X017517Y001302D01*
X017359Y001236D01*
X017238Y001115D01*
X017173Y000957D01*
X017173Y000786D01*
X017238Y000628D01*
X017265Y000601D01*
X016940Y000601D01*
X016967Y000628D01*
X017033Y000786D01*
X017033Y000957D01*
X016967Y001115D01*
X016846Y001236D01*
X016688Y001302D01*
X016517Y001302D01*
X016359Y001236D01*
X016327Y001204D01*
X015989Y001541D01*
X015884Y001646D01*
X015743Y001646D01*
X015844Y001688D01*
X015965Y001809D01*
X016031Y001967D01*
X016031Y002138D01*
X015965Y002296D01*
X015844Y002417D01*
X015686Y002483D01*
X015515Y002483D01*
X015357Y002417D01*
X015285Y002345D01*
X015285Y002350D01*
X015285Y002499D01*
X015090Y002694D01*
X014984Y002800D01*
X014242Y002800D01*
X014093Y002800D01*
X013750Y002456D01*
X013686Y002483D01*
X013515Y002483D01*
X013357Y002417D01*
X013236Y002296D01*
X013171Y002138D01*
X013171Y001967D01*
X013236Y001809D01*
X013357Y001688D01*
X013515Y001623D01*
X013686Y001623D01*
X013844Y001688D01*
X013965Y001809D01*
X014031Y001967D01*
X014031Y002138D01*
X014004Y002202D01*
X014242Y002440D01*
X014411Y002440D01*
X014357Y002417D01*
X014236Y002296D01*
X014171Y002138D01*
X014171Y001967D01*
X014197Y001904D01*
X013595Y001302D01*
X013517Y001302D01*
X013359Y001236D01*
X013238Y001115D01*
X013173Y000957D01*
X013173Y000786D01*
X013191Y000742D02*
X013036Y000742D01*
X012553Y000841D02*
X011421Y000841D01*
X011421Y000940D02*
X012153Y000940D01*
X012553Y000940D02*
X012653Y000940D01*
X012653Y000922D02*
X012653Y001322D01*
X012692Y001322D01*
X012858Y001253D01*
X012984Y001127D01*
X013053Y000961D01*
X013053Y000922D01*
X012653Y000922D01*
X013053Y000940D02*
X013173Y000940D01*
X013603Y000872D02*
X013603Y001055D01*
X014601Y002053D01*
X014171Y002024D02*
X014031Y002024D01*
X014031Y002122D02*
X014171Y002122D01*
X014205Y002221D02*
X014023Y002221D01*
X014122Y002319D02*
X014259Y002319D01*
X014220Y002418D02*
X014358Y002418D01*
X013810Y002516D02*
X011171Y002516D01*
X011171Y002418D02*
X013358Y002418D01*
X013259Y002319D02*
X011171Y002319D01*
X011171Y002221D02*
X013205Y002221D01*
X013171Y002122D02*
X011171Y002122D01*
X011171Y002024D02*
X013171Y002024D01*
X013601Y002053D02*
X014168Y002620D01*
X014910Y002620D01*
X015105Y002425D01*
X015105Y001679D01*
X015317Y001466D01*
X015809Y001466D01*
X016404Y000872D01*
X016603Y000872D01*
X017033Y000841D02*
X017173Y000841D01*
X017173Y000940D02*
X017033Y000940D01*
X016999Y001038D02*
X017206Y001038D01*
X017260Y001137D02*
X016946Y001137D01*
X016847Y001235D02*
X017358Y001235D01*
X017847Y001235D02*
X018358Y001235D01*
X018260Y001137D02*
X017946Y001137D01*
X017999Y001038D02*
X018206Y001038D01*
X018173Y000940D02*
X018033Y000940D01*
X018033Y000841D02*
X018173Y000841D01*
X018191Y000742D02*
X018015Y000742D01*
X017974Y000644D02*
X018232Y000644D01*
X018974Y000644D02*
X019101Y000644D01*
X019101Y000742D02*
X019015Y000742D01*
X019033Y000841D02*
X019101Y000841D01*
X019101Y000940D02*
X019033Y000940D01*
X018999Y001038D02*
X019101Y001038D01*
X019101Y001137D02*
X018946Y001137D01*
X018847Y001235D02*
X019101Y001235D01*
X019101Y001334D02*
X016196Y001334D01*
X016098Y001432D02*
X019101Y001432D01*
X019101Y001531D02*
X015999Y001531D01*
X015901Y001629D02*
X016240Y001629D01*
X016247Y001623D02*
X016171Y001699D01*
X016171Y002407D01*
X016247Y002483D01*
X016955Y002483D01*
X017031Y002407D01*
X017031Y001699D01*
X016955Y001623D01*
X016247Y001623D01*
X016171Y001728D02*
X015884Y001728D01*
X015972Y001826D02*
X016171Y001826D01*
X016171Y001925D02*
X016013Y001925D01*
X016031Y002024D02*
X016171Y002024D01*
X016171Y002122D02*
X016031Y002122D01*
X015997Y002221D02*
X016171Y002221D01*
X016171Y002319D02*
X015942Y002319D01*
X015843Y002418D02*
X016182Y002418D01*
X015358Y002418D02*
X015285Y002418D01*
X015268Y002516D02*
X019101Y002516D01*
X019101Y002418D02*
X017020Y002418D01*
X017031Y002319D02*
X019101Y002319D01*
X019101Y002221D02*
X017031Y002221D01*
X017031Y002122D02*
X019101Y002122D01*
X019101Y002024D02*
X017031Y002024D01*
X017031Y001925D02*
X019101Y001925D01*
X019101Y001826D02*
X017031Y001826D01*
X017031Y001728D02*
X019101Y001728D01*
X019101Y001629D02*
X016961Y001629D01*
X016358Y001235D02*
X016295Y001235D01*
X017015Y000742D02*
X017191Y000742D01*
X017232Y000644D02*
X016974Y000644D01*
X013627Y001334D02*
X011171Y001334D01*
X011171Y001432D02*
X013726Y001432D01*
X013824Y001531D02*
X011171Y001531D01*
X011171Y001629D02*
X013499Y001629D01*
X013702Y001629D02*
X013923Y001629D01*
X013884Y001728D02*
X014021Y001728D01*
X013972Y001826D02*
X014120Y001826D01*
X014188Y001925D02*
X014013Y001925D01*
X013318Y001728D02*
X011171Y001728D01*
X011171Y001826D02*
X013229Y001826D01*
X013188Y001925D02*
X011171Y001925D01*
X010811Y001925D02*
X006407Y001925D01*
X006414Y001932D02*
X006472Y002074D01*
X006472Y002228D01*
X006414Y002371D01*
X006304Y002480D01*
X006162Y002539D01*
X006008Y002539D01*
X005866Y002480D01*
X005757Y002371D01*
X005698Y002228D01*
X005698Y002074D01*
X005757Y001932D01*
X005866Y001823D01*
X006008Y001764D01*
X006162Y001764D01*
X006304Y001823D01*
X006414Y001932D01*
X006308Y001826D02*
X010811Y001826D01*
X010811Y001728D02*
X003101Y001728D01*
X003101Y001826D02*
X005862Y001826D01*
X005763Y001925D02*
X003101Y001925D01*
X003101Y002024D02*
X005719Y002024D01*
X005698Y002122D02*
X003101Y002122D01*
X003101Y002221D02*
X005698Y002221D01*
X005735Y002319D02*
X003101Y002319D01*
X003101Y002418D02*
X005804Y002418D01*
X005954Y002516D02*
X003101Y002516D01*
X003101Y002615D02*
X010811Y002615D01*
X010811Y002516D02*
X006216Y002516D01*
X006366Y002418D02*
X010811Y002418D01*
X010811Y002319D02*
X006435Y002319D01*
X006472Y002221D02*
X010811Y002221D01*
X010811Y002122D02*
X006472Y002122D01*
X006451Y002024D02*
X010811Y002024D01*
X010811Y001629D02*
X003101Y001629D01*
X003101Y001531D02*
X003930Y001531D01*
X003886Y001512D02*
X003771Y001398D01*
X003709Y001248D01*
X003709Y001196D01*
X004088Y001196D01*
X004088Y001574D01*
X004035Y001574D01*
X003886Y001512D01*
X004088Y001531D02*
X004145Y001531D01*
X004145Y001574D02*
X004198Y001574D01*
X004347Y001512D01*
X004462Y001398D01*
X004524Y001248D01*
X004524Y001196D01*
X004146Y001196D01*
X004146Y001138D01*
X004524Y001138D01*
X004524Y001086D01*
X004462Y000936D01*
X004347Y000821D01*
X004198Y000759D01*
X004145Y000759D01*
X004145Y001138D01*
X004088Y001138D01*
X004088Y000759D01*
X004035Y000759D01*
X003886Y000821D01*
X003771Y000936D01*
X003709Y001086D01*
X003709Y001138D01*
X004088Y001138D01*
X004088Y001196D01*
X004145Y001196D01*
X004145Y001574D01*
X004303Y001531D02*
X010811Y001531D01*
X010811Y001432D02*
X004427Y001432D01*
X004145Y001432D02*
X004088Y001432D01*
X003806Y001432D02*
X003101Y001432D01*
X003101Y001334D02*
X003745Y001334D01*
X004088Y001334D02*
X004145Y001334D01*
X004488Y001334D02*
X010811Y001334D01*
X010747Y001235D02*
X009483Y001235D01*
X009261Y001235D02*
X009161Y001235D01*
X009121Y001321D02*
X008956Y001253D01*
X008829Y001126D01*
X008761Y000961D01*
X008761Y000921D01*
X009161Y000921D01*
X009161Y001321D01*
X009121Y001321D01*
X008938Y001235D02*
X004524Y001235D01*
X004524Y001137D02*
X008840Y001137D01*
X008793Y001038D02*
X004504Y001038D01*
X004145Y001038D02*
X004088Y001038D01*
X004088Y001137D02*
X004145Y001137D01*
X004145Y001235D02*
X004088Y001235D01*
X003709Y001235D02*
X003101Y001235D01*
X003101Y001137D02*
X003709Y001137D01*
X003729Y001038D02*
X003101Y001038D01*
X003101Y000940D02*
X003770Y000940D01*
X003866Y000841D02*
X003101Y000841D01*
X003101Y000742D02*
X008777Y000742D01*
X009161Y000841D02*
X004367Y000841D01*
X004145Y000841D02*
X004088Y000841D01*
X004088Y000940D02*
X004145Y000940D01*
X004463Y000940D02*
X008761Y000940D01*
X009161Y000940D02*
X009261Y000940D01*
X009261Y000841D02*
X010561Y000841D01*
X010561Y000940D02*
X009661Y000940D01*
X009629Y001038D02*
X010595Y001038D01*
X010648Y001137D02*
X009582Y001137D01*
X009261Y001137D02*
X009161Y001137D01*
X009161Y001038D02*
X009261Y001038D01*
X009644Y000742D02*
X010579Y000742D01*
X010619Y000644D02*
X009604Y000644D01*
X008818Y000644D02*
X003101Y000644D01*
X010991Y000871D02*
X010991Y003431D01*
X011421Y003403D02*
X019101Y003403D01*
X019101Y003502D02*
X011421Y003502D01*
X011386Y003600D02*
X019101Y003600D01*
X019101Y003699D02*
X011331Y003699D01*
X010650Y003699D02*
X009580Y003699D01*
X009628Y003600D02*
X010595Y003600D01*
X010561Y003502D02*
X009661Y003502D01*
X009261Y003403D02*
X010561Y003403D01*
X010578Y003305D02*
X009645Y003305D01*
X009661Y003342D02*
X009661Y003381D01*
X009261Y003381D01*
X009261Y002981D01*
X009300Y002981D01*
X009466Y003050D01*
X009592Y003176D01*
X009661Y003342D01*
X009261Y003305D02*
X009161Y003305D01*
X009161Y003206D02*
X009261Y003206D01*
X009261Y003107D02*
X009161Y003107D01*
X009523Y003107D02*
X010706Y003107D01*
X010619Y003206D02*
X009605Y003206D01*
X009367Y003009D02*
X010811Y003009D01*
X010811Y002910D02*
X004439Y002910D01*
X004341Y002812D02*
X010811Y002812D01*
X010811Y002713D02*
X003101Y002713D01*
X003101Y002812D02*
X003892Y002812D01*
X003794Y002910D02*
X003101Y002910D01*
X003101Y003009D02*
X003749Y003009D01*
X003729Y003107D02*
X003101Y003107D01*
X003101Y003206D02*
X003729Y003206D01*
X003767Y003305D02*
X003101Y003305D01*
X003101Y003403D02*
X003836Y003403D01*
X003988Y003502D02*
X003101Y003502D01*
X003101Y003600D02*
X008794Y003600D01*
X008761Y003502D02*
X004245Y003502D01*
X003101Y003699D02*
X008842Y003699D01*
X011363Y003206D02*
X019101Y003206D01*
X019101Y003107D02*
X011275Y003107D01*
X011171Y003009D02*
X019101Y003009D01*
X019101Y002910D02*
X011171Y002910D01*
X011171Y002812D02*
X019101Y002812D01*
X019101Y002713D02*
X015071Y002713D01*
X015169Y002615D02*
X019101Y002615D01*
X019101Y003305D02*
X011404Y003305D01*
X009261Y003009D02*
X009161Y003009D01*
X011171Y002713D02*
X014007Y002713D01*
X013908Y002615D02*
X011171Y002615D01*
X011235Y001235D02*
X012330Y001235D01*
X012553Y001235D02*
X012653Y001235D01*
X012876Y001235D02*
X013358Y001235D01*
X013260Y001137D02*
X012974Y001137D01*
X013021Y001038D02*
X013206Y001038D01*
X012653Y001038D02*
X012553Y001038D01*
X012553Y001137D02*
X012653Y001137D01*
X012231Y001137D02*
X011333Y001137D01*
X011387Y001038D02*
X012185Y001038D01*
X012169Y000742D02*
X011403Y000742D01*
X011362Y000644D02*
X012210Y000644D01*
X012995Y000644D02*
X013232Y000644D01*
M02*
