G75*
G70*
%OFA0B0*%
%FSLAX24Y24*%
%IPPOS*%
%LPD*%
%AMOC8*
5,1,8,0,0,1.08239X$1,22.5*
%
%ADD10C,0.0000*%
%ADD11R,0.0709X0.0315*%
%ADD12R,0.0728X0.1181*%
%ADD13R,0.0630X0.0787*%
%ADD14OC8,0.0630*%
%ADD15R,0.0472X0.0315*%
%ADD16C,0.0640*%
%ADD17R,0.0640X0.0640*%
%ADD18R,0.0550X0.0137*%
%ADD19OC8,0.0634*%
%ADD20C,0.0100*%
%ADD21C,0.0360*%
%ADD22C,0.0357*%
%ADD23C,0.0320*%
%ADD24OC8,0.0357*%
%ADD25C,0.0120*%
D10*
X000333Y000262D02*
X000333Y010761D01*
X025353Y010758D01*
X025353Y000262D01*
X000333Y000262D01*
X000582Y001262D02*
X000584Y001312D01*
X000590Y001362D01*
X000600Y001412D01*
X000613Y001460D01*
X000630Y001508D01*
X000651Y001554D01*
X000675Y001598D01*
X000703Y001640D01*
X000734Y001680D01*
X000768Y001717D01*
X000805Y001752D01*
X000844Y001783D01*
X000885Y001812D01*
X000929Y001837D01*
X000975Y001859D01*
X001022Y001877D01*
X001070Y001891D01*
X001119Y001902D01*
X001169Y001909D01*
X001219Y001912D01*
X001270Y001911D01*
X001320Y001906D01*
X001370Y001897D01*
X001418Y001885D01*
X001466Y001868D01*
X001512Y001848D01*
X001557Y001825D01*
X001600Y001798D01*
X001640Y001768D01*
X001678Y001735D01*
X001713Y001699D01*
X001746Y001660D01*
X001775Y001619D01*
X001801Y001576D01*
X001824Y001531D01*
X001843Y001484D01*
X001858Y001436D01*
X001870Y001387D01*
X001878Y001337D01*
X001882Y001287D01*
X001882Y001237D01*
X001878Y001187D01*
X001870Y001137D01*
X001858Y001088D01*
X001843Y001040D01*
X001824Y000993D01*
X001801Y000948D01*
X001775Y000905D01*
X001746Y000864D01*
X001713Y000825D01*
X001678Y000789D01*
X001640Y000756D01*
X001600Y000726D01*
X001557Y000699D01*
X001512Y000676D01*
X001466Y000656D01*
X001418Y000639D01*
X001370Y000627D01*
X001320Y000618D01*
X001270Y000613D01*
X001219Y000612D01*
X001169Y000615D01*
X001119Y000622D01*
X001070Y000633D01*
X001022Y000647D01*
X000975Y000665D01*
X000929Y000687D01*
X000885Y000712D01*
X000844Y000741D01*
X000805Y000772D01*
X000768Y000807D01*
X000734Y000844D01*
X000703Y000884D01*
X000675Y000926D01*
X000651Y000970D01*
X000630Y001016D01*
X000613Y001064D01*
X000600Y001112D01*
X000590Y001162D01*
X000584Y001212D01*
X000582Y001262D01*
X000583Y009762D02*
X000585Y009812D01*
X000591Y009862D01*
X000601Y009912D01*
X000614Y009960D01*
X000631Y010008D01*
X000652Y010054D01*
X000676Y010098D01*
X000704Y010140D01*
X000735Y010180D01*
X000769Y010217D01*
X000806Y010252D01*
X000845Y010283D01*
X000886Y010312D01*
X000930Y010337D01*
X000976Y010359D01*
X001023Y010377D01*
X001071Y010391D01*
X001120Y010402D01*
X001170Y010409D01*
X001220Y010412D01*
X001271Y010411D01*
X001321Y010406D01*
X001371Y010397D01*
X001419Y010385D01*
X001467Y010368D01*
X001513Y010348D01*
X001558Y010325D01*
X001601Y010298D01*
X001641Y010268D01*
X001679Y010235D01*
X001714Y010199D01*
X001747Y010160D01*
X001776Y010119D01*
X001802Y010076D01*
X001825Y010031D01*
X001844Y009984D01*
X001859Y009936D01*
X001871Y009887D01*
X001879Y009837D01*
X001883Y009787D01*
X001883Y009737D01*
X001879Y009687D01*
X001871Y009637D01*
X001859Y009588D01*
X001844Y009540D01*
X001825Y009493D01*
X001802Y009448D01*
X001776Y009405D01*
X001747Y009364D01*
X001714Y009325D01*
X001679Y009289D01*
X001641Y009256D01*
X001601Y009226D01*
X001558Y009199D01*
X001513Y009176D01*
X001467Y009156D01*
X001419Y009139D01*
X001371Y009127D01*
X001321Y009118D01*
X001271Y009113D01*
X001220Y009112D01*
X001170Y009115D01*
X001120Y009122D01*
X001071Y009133D01*
X001023Y009147D01*
X000976Y009165D01*
X000930Y009187D01*
X000886Y009212D01*
X000845Y009241D01*
X000806Y009272D01*
X000769Y009307D01*
X000735Y009344D01*
X000704Y009384D01*
X000676Y009426D01*
X000652Y009470D01*
X000631Y009516D01*
X000614Y009564D01*
X000601Y009612D01*
X000591Y009662D01*
X000585Y009712D01*
X000583Y009762D01*
X023683Y009762D02*
X023685Y009812D01*
X023691Y009862D01*
X023701Y009912D01*
X023714Y009960D01*
X023731Y010008D01*
X023752Y010054D01*
X023776Y010098D01*
X023804Y010140D01*
X023835Y010180D01*
X023869Y010217D01*
X023906Y010252D01*
X023945Y010283D01*
X023986Y010312D01*
X024030Y010337D01*
X024076Y010359D01*
X024123Y010377D01*
X024171Y010391D01*
X024220Y010402D01*
X024270Y010409D01*
X024320Y010412D01*
X024371Y010411D01*
X024421Y010406D01*
X024471Y010397D01*
X024519Y010385D01*
X024567Y010368D01*
X024613Y010348D01*
X024658Y010325D01*
X024701Y010298D01*
X024741Y010268D01*
X024779Y010235D01*
X024814Y010199D01*
X024847Y010160D01*
X024876Y010119D01*
X024902Y010076D01*
X024925Y010031D01*
X024944Y009984D01*
X024959Y009936D01*
X024971Y009887D01*
X024979Y009837D01*
X024983Y009787D01*
X024983Y009737D01*
X024979Y009687D01*
X024971Y009637D01*
X024959Y009588D01*
X024944Y009540D01*
X024925Y009493D01*
X024902Y009448D01*
X024876Y009405D01*
X024847Y009364D01*
X024814Y009325D01*
X024779Y009289D01*
X024741Y009256D01*
X024701Y009226D01*
X024658Y009199D01*
X024613Y009176D01*
X024567Y009156D01*
X024519Y009139D01*
X024471Y009127D01*
X024421Y009118D01*
X024371Y009113D01*
X024320Y009112D01*
X024270Y009115D01*
X024220Y009122D01*
X024171Y009133D01*
X024123Y009147D01*
X024076Y009165D01*
X024030Y009187D01*
X023986Y009212D01*
X023945Y009241D01*
X023906Y009272D01*
X023869Y009307D01*
X023835Y009344D01*
X023804Y009384D01*
X023776Y009426D01*
X023752Y009470D01*
X023731Y009516D01*
X023714Y009564D01*
X023701Y009612D01*
X023691Y009662D01*
X023685Y009712D01*
X023683Y009762D01*
X023683Y001262D02*
X023685Y001312D01*
X023691Y001362D01*
X023701Y001412D01*
X023714Y001460D01*
X023731Y001508D01*
X023752Y001554D01*
X023776Y001598D01*
X023804Y001640D01*
X023835Y001680D01*
X023869Y001717D01*
X023906Y001752D01*
X023945Y001783D01*
X023986Y001812D01*
X024030Y001837D01*
X024076Y001859D01*
X024123Y001877D01*
X024171Y001891D01*
X024220Y001902D01*
X024270Y001909D01*
X024320Y001912D01*
X024371Y001911D01*
X024421Y001906D01*
X024471Y001897D01*
X024519Y001885D01*
X024567Y001868D01*
X024613Y001848D01*
X024658Y001825D01*
X024701Y001798D01*
X024741Y001768D01*
X024779Y001735D01*
X024814Y001699D01*
X024847Y001660D01*
X024876Y001619D01*
X024902Y001576D01*
X024925Y001531D01*
X024944Y001484D01*
X024959Y001436D01*
X024971Y001387D01*
X024979Y001337D01*
X024983Y001287D01*
X024983Y001237D01*
X024979Y001187D01*
X024971Y001137D01*
X024959Y001088D01*
X024944Y001040D01*
X024925Y000993D01*
X024902Y000948D01*
X024876Y000905D01*
X024847Y000864D01*
X024814Y000825D01*
X024779Y000789D01*
X024741Y000756D01*
X024701Y000726D01*
X024658Y000699D01*
X024613Y000676D01*
X024567Y000656D01*
X024519Y000639D01*
X024471Y000627D01*
X024421Y000618D01*
X024371Y000613D01*
X024320Y000612D01*
X024270Y000615D01*
X024220Y000622D01*
X024171Y000633D01*
X024123Y000647D01*
X024076Y000665D01*
X024030Y000687D01*
X023986Y000712D01*
X023945Y000741D01*
X023906Y000772D01*
X023869Y000807D01*
X023835Y000844D01*
X023804Y000884D01*
X023776Y000926D01*
X023752Y000970D01*
X023731Y001016D01*
X023714Y001064D01*
X023701Y001112D01*
X023691Y001162D01*
X023685Y001212D01*
X023683Y001262D01*
D11*
X018729Y001557D03*
X018733Y002462D03*
X018729Y003368D03*
X018729Y004557D03*
X018733Y005462D03*
X018729Y006368D03*
X018729Y007507D03*
X018733Y008412D03*
X018729Y009318D03*
D12*
X020733Y008412D03*
X020733Y005462D03*
X020733Y002462D03*
D13*
X016734Y005212D03*
X015631Y005212D03*
X015631Y006312D03*
X016734Y006312D03*
X016734Y007412D03*
X015631Y007412D03*
X008165Y006167D03*
X007063Y006167D03*
X007081Y004862D03*
X008184Y004862D03*
X008184Y003612D03*
X007081Y003612D03*
D14*
X008961Y009092D03*
X010961Y009092D03*
D15*
X012233Y008166D03*
X013083Y008166D03*
X013983Y008166D03*
X013983Y007458D03*
X013083Y007458D03*
X012233Y007458D03*
X015833Y004016D03*
X015833Y003308D03*
D16*
X013833Y001262D03*
X012833Y001262D03*
X011833Y001262D03*
X010833Y001262D03*
X009833Y001262D03*
X008833Y001262D03*
X007833Y001262D03*
X001633Y003362D03*
X001633Y004362D03*
X001633Y005362D03*
X001633Y006362D03*
X001633Y007362D03*
X002651Y008508D03*
X002651Y009508D03*
X024420Y006033D03*
X024420Y005033D03*
X024420Y004033D03*
D17*
X024420Y007033D03*
D18*
X014272Y006425D03*
X014272Y006170D03*
X014272Y005914D03*
X014272Y005658D03*
X014272Y005402D03*
X014272Y005146D03*
X014272Y004890D03*
X014272Y004634D03*
X014272Y004378D03*
X014272Y004122D03*
X014272Y003866D03*
X014272Y003610D03*
X014272Y003355D03*
X014272Y003099D03*
X011393Y003099D03*
X011393Y003355D03*
X011393Y003610D03*
X011393Y003866D03*
X011393Y004122D03*
X011393Y004378D03*
X011393Y004634D03*
X011393Y004890D03*
X011393Y005146D03*
X011393Y005402D03*
X011393Y005658D03*
X011393Y005914D03*
X011393Y006170D03*
X011393Y006425D03*
D19*
X007373Y008245D03*
X006664Y008245D03*
X005956Y008245D03*
X005247Y008245D03*
X004538Y008245D03*
D20*
X004051Y008244D02*
X003319Y008244D01*
X003303Y008228D02*
X003396Y008321D01*
X003396Y008321D01*
X003733Y008658D01*
X004263Y008658D01*
X004051Y008446D01*
X004051Y008043D01*
X004337Y007758D01*
X004700Y007758D01*
X005347Y007110D01*
X005295Y007110D01*
X004924Y007482D01*
X004741Y007482D01*
X003924Y007482D01*
X003824Y007582D01*
X003641Y007582D01*
X002072Y007582D01*
X002048Y007640D01*
X001910Y007777D01*
X001730Y007852D01*
X001535Y007852D01*
X001355Y007777D01*
X001217Y007640D01*
X001143Y007459D01*
X001143Y007265D01*
X001217Y007084D01*
X001355Y006947D01*
X001535Y006872D01*
X001730Y006872D01*
X001910Y006947D01*
X002048Y007084D01*
X002072Y007142D01*
X003641Y007142D01*
X003741Y007042D01*
X004741Y007042D01*
X004984Y006799D01*
X004984Y006693D01*
X005037Y006565D01*
X005135Y006467D01*
X005263Y006414D01*
X005402Y006414D01*
X005530Y006467D01*
X005628Y006565D01*
X005681Y006693D01*
X005681Y006777D01*
X006103Y006355D01*
X006103Y005667D01*
X006237Y005532D01*
X006387Y005382D01*
X006577Y005382D01*
X006653Y005382D01*
X006596Y005326D01*
X006596Y004398D01*
X006696Y004298D01*
X006861Y004298D01*
X006861Y004176D01*
X006696Y004176D01*
X006596Y004076D01*
X006596Y003148D01*
X006696Y003048D01*
X006861Y003048D01*
X006861Y002922D01*
X006984Y002799D01*
X006984Y002693D01*
X007037Y002565D01*
X007120Y002482D01*
X006424Y002482D01*
X005553Y003353D01*
X005553Y004489D01*
X005628Y004565D01*
X005681Y004693D01*
X005681Y004831D01*
X005628Y004959D01*
X005530Y005057D01*
X005402Y005110D01*
X005263Y005110D01*
X005135Y005057D01*
X005037Y004959D01*
X004984Y004831D01*
X004984Y004693D01*
X005037Y004565D01*
X005113Y004489D01*
X005113Y003353D01*
X005113Y003171D01*
X006113Y002171D01*
X006241Y002042D01*
X007589Y002042D01*
X007771Y002042D01*
X008273Y002544D01*
X008402Y002673D01*
X008402Y003048D01*
X008569Y003048D01*
X008669Y003148D01*
X008669Y004076D01*
X008569Y004176D01*
X007798Y004176D01*
X007699Y004076D01*
X007699Y003148D01*
X007798Y003048D01*
X007962Y003048D01*
X007962Y002855D01*
X007589Y002482D01*
X007545Y002482D01*
X007628Y002565D01*
X007681Y002693D01*
X007681Y002831D01*
X007628Y002959D01*
X007530Y003057D01*
X007492Y003073D01*
X007566Y003148D01*
X007566Y004076D01*
X007467Y004176D01*
X007301Y004176D01*
X007301Y004298D01*
X007467Y004298D01*
X007566Y004398D01*
X007566Y005326D01*
X007510Y005382D01*
X007755Y005382D01*
X007699Y005326D01*
X007699Y004398D01*
X007798Y004298D01*
X008569Y004298D01*
X008669Y004398D01*
X008669Y004642D01*
X008976Y004642D01*
X010333Y003285D01*
X010333Y000712D01*
X002185Y000712D01*
X002257Y000837D01*
X002332Y001117D01*
X002332Y001407D01*
X002257Y001687D01*
X002113Y001937D01*
X010333Y001937D01*
X010333Y001839D02*
X002170Y001839D01*
X002226Y001740D02*
X008707Y001740D01*
X008735Y001752D02*
X008555Y001677D01*
X008417Y001540D01*
X008343Y001359D01*
X008343Y001165D01*
X008417Y000984D01*
X008555Y000847D01*
X008735Y000772D01*
X008930Y000772D01*
X009110Y000847D01*
X009248Y000984D01*
X009323Y001165D01*
X009323Y001359D01*
X009248Y001540D01*
X009110Y001677D01*
X008930Y001752D01*
X008735Y001752D01*
X008959Y001740D02*
X009707Y001740D01*
X009735Y001752D02*
X009555Y001677D01*
X009417Y001540D01*
X009343Y001359D01*
X009343Y001165D01*
X009417Y000984D01*
X009555Y000847D01*
X009735Y000772D01*
X009930Y000772D01*
X010110Y000847D01*
X010248Y000984D01*
X010323Y001165D01*
X010323Y001359D01*
X010248Y001540D01*
X010110Y001677D01*
X009930Y001752D01*
X009735Y001752D01*
X009959Y001740D02*
X010333Y001740D01*
X010333Y001642D02*
X010146Y001642D01*
X010244Y001543D02*
X010333Y001543D01*
X010333Y001445D02*
X010287Y001445D01*
X010323Y001346D02*
X010333Y001346D01*
X010323Y001247D02*
X010333Y001247D01*
X010333Y001149D02*
X010316Y001149D01*
X010333Y001050D02*
X010275Y001050D01*
X010333Y000952D02*
X010215Y000952D01*
X010117Y000853D02*
X010333Y000853D01*
X010333Y000755D02*
X002210Y000755D01*
X002262Y000853D02*
X007600Y000853D01*
X007586Y000860D02*
X007652Y000826D01*
X007723Y000804D01*
X007783Y000794D01*
X007783Y001212D01*
X007883Y001212D01*
X007883Y001312D01*
X008300Y001312D01*
X008291Y001372D01*
X008268Y001442D01*
X008235Y001508D01*
X008191Y001568D01*
X008139Y001621D01*
X008079Y001664D01*
X008013Y001698D01*
X007943Y001720D01*
X007883Y001730D01*
X007883Y001312D01*
X007783Y001312D01*
X007783Y001730D01*
X007723Y001720D01*
X007652Y001698D01*
X007586Y001664D01*
X007526Y001621D01*
X007474Y001568D01*
X007431Y001508D01*
X007397Y001442D01*
X007374Y001372D01*
X007365Y001312D01*
X007782Y001312D01*
X007782Y001212D01*
X007365Y001212D01*
X007374Y001152D01*
X007397Y001082D01*
X007431Y001016D01*
X007474Y000956D01*
X007526Y000904D01*
X007586Y000860D01*
X007478Y000952D02*
X002288Y000952D01*
X002314Y001050D02*
X007413Y001050D01*
X007375Y001149D02*
X002332Y001149D01*
X002332Y001247D02*
X007782Y001247D01*
X007783Y001149D02*
X007883Y001149D01*
X007883Y001212D02*
X007883Y000794D01*
X007943Y000804D01*
X008013Y000826D01*
X008079Y000860D01*
X008139Y000904D01*
X008191Y000956D01*
X008235Y001016D01*
X008268Y001082D01*
X008291Y001152D01*
X008300Y001212D01*
X007883Y001212D01*
X007883Y001247D02*
X008343Y001247D01*
X008349Y001149D02*
X008290Y001149D01*
X008252Y001050D02*
X008390Y001050D01*
X008450Y000952D02*
X008187Y000952D01*
X008066Y000853D02*
X008548Y000853D01*
X007883Y000853D02*
X007783Y000853D01*
X007783Y000952D02*
X007883Y000952D01*
X007883Y001050D02*
X007783Y001050D01*
X007783Y001346D02*
X007883Y001346D01*
X007883Y001445D02*
X007783Y001445D01*
X007783Y001543D02*
X007883Y001543D01*
X007883Y001642D02*
X007783Y001642D01*
X007556Y001642D02*
X002269Y001642D01*
X002296Y001543D02*
X007456Y001543D01*
X007398Y001445D02*
X002322Y001445D01*
X002332Y001346D02*
X007370Y001346D01*
X008110Y001642D02*
X008519Y001642D01*
X008421Y001543D02*
X008209Y001543D01*
X008267Y001445D02*
X008378Y001445D01*
X008343Y001346D02*
X008295Y001346D01*
X009146Y001642D02*
X009519Y001642D01*
X009421Y001543D02*
X009244Y001543D01*
X009287Y001445D02*
X009378Y001445D01*
X009343Y001346D02*
X009323Y001346D01*
X009323Y001247D02*
X009343Y001247D01*
X009349Y001149D02*
X009316Y001149D01*
X009275Y001050D02*
X009390Y001050D01*
X009450Y000952D02*
X009215Y000952D01*
X009117Y000853D02*
X009548Y000853D01*
X010833Y001262D02*
X010833Y003096D01*
X009067Y004862D01*
X008184Y004862D01*
X007699Y004894D02*
X007566Y004894D01*
X007566Y004992D02*
X007699Y004992D01*
X007699Y005091D02*
X007566Y005091D01*
X007566Y005189D02*
X007699Y005189D01*
X007699Y005288D02*
X007566Y005288D01*
X008198Y005426D02*
X008290Y005517D01*
X008376Y005603D01*
X008550Y005603D01*
X008650Y005703D01*
X008650Y006631D01*
X008550Y006731D01*
X007779Y006731D01*
X007680Y006631D01*
X007680Y005842D01*
X007527Y005842D01*
X007527Y006117D01*
X007113Y006117D01*
X007113Y006217D01*
X007527Y006217D01*
X007527Y006581D01*
X007517Y006619D01*
X007497Y006653D01*
X007470Y006681D01*
X007435Y006701D01*
X007397Y006711D01*
X007112Y006711D01*
X007112Y006217D01*
X007013Y006217D01*
X007013Y006711D01*
X006728Y006711D01*
X006690Y006701D01*
X006655Y006681D01*
X006628Y006653D01*
X006608Y006619D01*
X006598Y006581D01*
X006598Y006217D01*
X007012Y006217D01*
X007012Y006117D01*
X006598Y006117D01*
X006598Y005842D01*
X006577Y005842D01*
X006563Y005857D01*
X006563Y006355D01*
X006563Y006545D01*
X005350Y007758D01*
X005449Y007758D01*
X005615Y007925D01*
X005762Y007778D01*
X005907Y007778D01*
X005907Y008196D01*
X006004Y008196D01*
X006004Y007778D01*
X006149Y007778D01*
X006296Y007925D01*
X006463Y007758D01*
X006866Y007758D01*
X007019Y007910D01*
X007171Y007758D01*
X007575Y007758D01*
X007860Y008043D01*
X007860Y008446D01*
X007575Y008731D01*
X007171Y008731D01*
X007019Y008579D01*
X007000Y008597D01*
X007000Y008801D01*
X006950Y008922D01*
X006857Y009015D01*
X006605Y009268D01*
X006483Y009318D01*
X006352Y009318D01*
X003530Y009318D01*
X003409Y009268D01*
X003316Y009175D01*
X003316Y009175D01*
X002997Y008855D01*
X002929Y008923D01*
X002749Y008998D01*
X002554Y008998D01*
X002374Y008923D01*
X002236Y008786D01*
X002161Y008606D01*
X002161Y008411D01*
X002236Y008231D01*
X002374Y008093D01*
X002554Y008018D01*
X002749Y008018D01*
X002929Y008093D01*
X003014Y008178D01*
X003182Y008178D01*
X003303Y008228D01*
X003417Y008343D02*
X004051Y008343D01*
X004051Y008441D02*
X003516Y008441D01*
X003614Y008540D02*
X004145Y008540D01*
X004244Y008638D02*
X003713Y008638D01*
X003075Y008934D02*
X002904Y008934D01*
X002831Y009073D02*
X002897Y009106D01*
X002957Y009150D01*
X003010Y009202D01*
X003053Y009262D01*
X003087Y009328D01*
X008539Y009328D01*
X008496Y009285D02*
X008496Y009122D01*
X008931Y009122D01*
X008931Y009062D01*
X008991Y009062D01*
X008991Y008627D01*
X009154Y008627D01*
X009426Y008900D01*
X009426Y009062D01*
X008991Y009062D01*
X008991Y009122D01*
X009426Y009122D01*
X009426Y009285D01*
X009154Y009557D01*
X008991Y009557D01*
X008991Y009122D01*
X008931Y009122D01*
X008931Y009557D01*
X008769Y009557D01*
X008496Y009285D01*
X008496Y009229D02*
X006643Y009229D01*
X006741Y009131D02*
X008496Y009131D01*
X008496Y009062D02*
X008496Y008900D01*
X008769Y008627D01*
X008931Y008627D01*
X008931Y009062D01*
X008496Y009062D01*
X008496Y009032D02*
X006840Y009032D01*
X006857Y009015D02*
X006857Y009015D01*
X006938Y008934D02*
X008496Y008934D01*
X008560Y008835D02*
X006986Y008835D01*
X007000Y008737D02*
X008659Y008737D01*
X008757Y008638D02*
X007668Y008638D01*
X007766Y008540D02*
X010333Y008540D01*
X010333Y008638D02*
X009165Y008638D01*
X009263Y008737D02*
X010333Y008737D01*
X010333Y008835D02*
X009362Y008835D01*
X009426Y008934D02*
X010333Y008934D01*
X010333Y009032D02*
X009426Y009032D01*
X009426Y009131D02*
X010333Y009131D01*
X010333Y009229D02*
X009426Y009229D01*
X009383Y009328D02*
X010333Y009328D01*
X010333Y009427D02*
X009284Y009427D01*
X009186Y009525D02*
X010333Y009525D01*
X010333Y009624D02*
X003108Y009624D01*
X003109Y009618D02*
X003087Y009689D01*
X003053Y009754D01*
X003010Y009814D01*
X002957Y009867D01*
X002897Y009910D01*
X002831Y009944D01*
X002761Y009966D01*
X002701Y009976D01*
X002701Y009558D01*
X002601Y009558D01*
X002601Y009976D01*
X002541Y009966D01*
X002471Y009944D01*
X002405Y009910D01*
X002345Y009867D01*
X002333Y009855D01*
X002333Y009907D01*
X002258Y010187D01*
X002187Y010311D01*
X010333Y010310D01*
X010333Y007482D01*
X010105Y007482D01*
X010030Y007557D01*
X009902Y007610D01*
X009763Y007610D01*
X009635Y007557D01*
X009537Y007459D01*
X009484Y007331D01*
X009484Y007193D01*
X009537Y007065D01*
X009635Y006967D01*
X009763Y006914D01*
X009902Y006914D01*
X010030Y006967D01*
X010105Y007042D01*
X010333Y007042D01*
X010333Y004808D01*
X010285Y004692D01*
X010285Y004554D01*
X010333Y004438D01*
X010333Y003908D01*
X010332Y003908D01*
X010333Y003908D02*
X009158Y005082D01*
X008976Y005082D01*
X008669Y005082D01*
X008669Y005326D01*
X008569Y005426D01*
X008198Y005426D01*
X008257Y005485D02*
X010333Y005485D01*
X010333Y005583D02*
X008356Y005583D01*
X008629Y005682D02*
X010333Y005682D01*
X010333Y005780D02*
X008650Y005780D01*
X008650Y005879D02*
X010333Y005879D01*
X010333Y005978D02*
X008650Y005978D01*
X008650Y006076D02*
X010333Y006076D01*
X010333Y006175D02*
X008650Y006175D01*
X008650Y006273D02*
X010333Y006273D01*
X010333Y006372D02*
X008650Y006372D01*
X008650Y006470D02*
X010333Y006470D01*
X010333Y006569D02*
X008650Y006569D01*
X008614Y006667D02*
X010333Y006667D01*
X010333Y006766D02*
X006342Y006766D01*
X006244Y006864D02*
X010333Y006864D01*
X010333Y006963D02*
X010021Y006963D01*
X009644Y006963D02*
X006145Y006963D01*
X006046Y007062D02*
X009540Y007062D01*
X009498Y007160D02*
X005948Y007160D01*
X005849Y007259D02*
X009484Y007259D01*
X009495Y007357D02*
X005751Y007357D01*
X005652Y007456D02*
X009536Y007456D01*
X009632Y007554D02*
X005554Y007554D01*
X005455Y007653D02*
X010333Y007653D01*
X010333Y007751D02*
X005357Y007751D01*
X005541Y007850D02*
X005690Y007850D01*
X005907Y007850D02*
X006004Y007850D01*
X006004Y007948D02*
X005907Y007948D01*
X005907Y008047D02*
X006004Y008047D01*
X006004Y008146D02*
X005907Y008146D01*
X006221Y007850D02*
X006370Y007850D01*
X006958Y007850D02*
X007079Y007850D01*
X007667Y007850D02*
X010333Y007850D01*
X010333Y007948D02*
X007765Y007948D01*
X007860Y008047D02*
X010333Y008047D01*
X010333Y008146D02*
X007860Y008146D01*
X007860Y008244D02*
X010333Y008244D01*
X010333Y008343D02*
X007860Y008343D01*
X007860Y008441D02*
X010333Y008441D01*
X008991Y008638D02*
X008931Y008638D01*
X008931Y008737D02*
X008991Y008737D01*
X008991Y008835D02*
X008931Y008835D01*
X008931Y008934D02*
X008991Y008934D01*
X008991Y009032D02*
X008931Y009032D01*
X008950Y009081D02*
X008961Y009092D01*
X008961Y009366D01*
X009340Y009745D01*
X011815Y009745D01*
X011833Y009762D01*
X011833Y009758D01*
X012236Y009355D01*
X012236Y008170D01*
X012233Y008166D01*
X013083Y008166D01*
X013983Y008166D01*
X013983Y007458D02*
X013083Y007458D01*
X012233Y007458D01*
X013533Y007062D02*
X013587Y007062D01*
X013983Y007458D01*
X014833Y006762D02*
X014833Y005262D01*
X014683Y005112D01*
X014306Y005112D01*
X014272Y005146D01*
X014272Y004890D02*
X014300Y004862D01*
X014783Y004862D01*
X015033Y005112D01*
X015033Y005612D01*
X015631Y006211D01*
X015631Y006312D01*
X014833Y006762D02*
X015483Y007412D01*
X015631Y007412D01*
X016734Y007412D02*
X016734Y008663D01*
X017333Y009262D01*
X018673Y009262D01*
X018729Y009318D01*
X019253Y009328D02*
X022853Y009328D01*
X022853Y009229D02*
X019253Y009229D01*
X019253Y009131D02*
X020291Y009131D01*
X020276Y009123D02*
X020311Y009142D01*
X020349Y009153D01*
X020683Y009153D01*
X020683Y008462D01*
X020782Y008462D01*
X020782Y009153D01*
X021116Y009153D01*
X021155Y009142D01*
X021189Y009123D01*
X021217Y009095D01*
X021236Y009060D01*
X021247Y009022D01*
X021247Y008462D01*
X020783Y008462D01*
X020783Y008362D01*
X021247Y008362D01*
X021247Y007836D01*
X022849Y007836D01*
X022854Y009647D01*
X017833Y009662D01*
X017833Y009482D01*
X018204Y009482D01*
X018204Y009545D01*
X018304Y009645D01*
X019153Y009645D01*
X019253Y009545D01*
X019253Y009090D01*
X019153Y008990D01*
X018304Y008990D01*
X018252Y009042D01*
X017833Y009042D01*
X017833Y006532D01*
X018204Y006532D01*
X018204Y006595D01*
X018304Y006695D01*
X019153Y006695D01*
X019253Y006595D01*
X019253Y006140D01*
X019153Y006040D01*
X018304Y006040D01*
X018252Y006092D01*
X017833Y006092D01*
X017833Y004424D01*
X018562Y003695D01*
X019153Y003695D01*
X019253Y003595D01*
X019253Y003140D01*
X019153Y003040D01*
X018304Y003040D01*
X018204Y003140D01*
X018204Y003430D01*
X017833Y003802D01*
X017833Y001162D01*
X022833Y001162D01*
X022835Y001981D01*
X022131Y001277D01*
X022009Y001227D01*
X021878Y001227D01*
X018663Y001227D01*
X018657Y001229D01*
X018304Y001229D01*
X018204Y001329D01*
X018204Y001784D01*
X018304Y001884D01*
X018657Y001884D01*
X018663Y001886D01*
X020218Y001886D01*
X020218Y002412D01*
X020682Y002412D01*
X020682Y002512D01*
X020218Y002512D01*
X020218Y003072D01*
X020229Y003110D01*
X020248Y003145D01*
X020276Y003173D01*
X020311Y003192D01*
X020349Y003203D01*
X020683Y003203D01*
X020683Y002512D01*
X020782Y002512D01*
X020782Y003203D01*
X021116Y003203D01*
X021155Y003192D01*
X021189Y003173D01*
X021217Y003145D01*
X021236Y003110D01*
X021247Y003072D01*
X021247Y002512D01*
X020783Y002512D01*
X020783Y002412D01*
X021247Y002412D01*
X021247Y001886D01*
X021807Y001886D01*
X022837Y002917D01*
X022840Y004238D01*
X022813Y004227D01*
X018663Y004227D01*
X018657Y004229D01*
X018304Y004229D01*
X018204Y004329D01*
X018204Y004784D01*
X018304Y004884D01*
X018657Y004884D01*
X018663Y004886D01*
X020218Y004886D01*
X020218Y005412D01*
X020682Y005412D01*
X020682Y005512D01*
X020218Y005512D01*
X020218Y006072D01*
X020229Y006110D01*
X020248Y006145D01*
X020276Y006173D01*
X020311Y006192D01*
X020349Y006203D01*
X020683Y006203D01*
X020683Y005512D01*
X020782Y005512D01*
X020782Y006203D01*
X021116Y006203D01*
X021155Y006192D01*
X021189Y006173D01*
X021217Y006145D01*
X021236Y006110D01*
X021247Y006072D01*
X021247Y005512D01*
X020783Y005512D01*
X020783Y005412D01*
X021247Y005412D01*
X021247Y004886D01*
X022611Y004886D01*
X022843Y005119D01*
X022848Y007139D01*
X022810Y007177D01*
X018663Y007177D01*
X018657Y007179D01*
X018304Y007179D01*
X018204Y007279D01*
X018204Y007734D01*
X018304Y007834D01*
X018657Y007834D01*
X018663Y007836D01*
X020218Y007836D01*
X020218Y008362D01*
X020682Y008362D01*
X020682Y008462D01*
X020218Y008462D01*
X020218Y009022D01*
X020229Y009060D01*
X020248Y009095D01*
X020276Y009123D01*
X020221Y009032D02*
X019196Y009032D01*
X019107Y008719D02*
X018761Y008719D01*
X018761Y008441D01*
X018704Y008441D01*
X018704Y008719D01*
X018359Y008719D01*
X018320Y008709D01*
X018286Y008690D01*
X018258Y008662D01*
X018239Y008627D01*
X018228Y008589D01*
X018228Y008441D01*
X017833Y008441D01*
X017833Y008343D02*
X018228Y008343D01*
X018228Y008383D02*
X018228Y008235D01*
X018239Y008197D01*
X018258Y008162D01*
X018286Y008135D01*
X018320Y008115D01*
X018359Y008105D01*
X018704Y008105D01*
X018704Y008383D01*
X018761Y008383D01*
X018761Y008105D01*
X019107Y008105D01*
X019145Y008115D01*
X019179Y008135D01*
X019207Y008162D01*
X019227Y008197D01*
X019237Y008235D01*
X019237Y008383D01*
X018762Y008383D01*
X018762Y008441D01*
X019237Y008441D01*
X020682Y008441D01*
X020733Y008412D02*
X018733Y008412D01*
X018733Y008411D01*
X018124Y008411D01*
X018124Y007797D01*
X018118Y007797D01*
X018118Y006723D01*
X018156Y006762D01*
X019333Y006762D01*
X019833Y006762D01*
X019971Y006028D01*
X019968Y005551D01*
X019738Y005462D01*
X020733Y005462D01*
X020783Y005485D02*
X022844Y005485D01*
X022844Y005583D02*
X021247Y005583D01*
X021247Y005682D02*
X022844Y005682D01*
X022844Y005780D02*
X021247Y005780D01*
X021247Y005879D02*
X022845Y005879D01*
X022845Y005978D02*
X021247Y005978D01*
X021246Y006076D02*
X022845Y006076D01*
X022845Y006175D02*
X021185Y006175D01*
X020782Y006175D02*
X020683Y006175D01*
X020683Y006076D02*
X020782Y006076D01*
X020782Y005978D02*
X020683Y005978D01*
X020683Y005879D02*
X020782Y005879D01*
X020782Y005780D02*
X020683Y005780D01*
X020683Y005682D02*
X020782Y005682D01*
X020782Y005583D02*
X020683Y005583D01*
X020682Y005485D02*
X018762Y005485D01*
X018762Y005491D02*
X019237Y005491D01*
X019237Y005639D01*
X019227Y005677D01*
X019207Y005712D01*
X019179Y005740D01*
X019145Y005759D01*
X019107Y005769D01*
X018761Y005769D01*
X018761Y005491D01*
X018704Y005491D01*
X018704Y005769D01*
X018359Y005769D01*
X018320Y005759D01*
X018286Y005740D01*
X018258Y005712D01*
X018239Y005677D01*
X018228Y005639D01*
X018228Y005491D01*
X018704Y005491D01*
X018704Y005433D01*
X018761Y005433D01*
X018761Y005155D01*
X019107Y005155D01*
X019145Y005165D01*
X019179Y005185D01*
X019207Y005212D01*
X019227Y005247D01*
X019237Y005285D01*
X019237Y005433D01*
X018762Y005433D01*
X018762Y005491D01*
X018733Y005462D02*
X019033Y005462D01*
X019237Y005386D02*
X020218Y005386D01*
X020218Y005288D02*
X019237Y005288D01*
X019184Y005189D02*
X020218Y005189D01*
X020218Y005091D02*
X017833Y005091D01*
X017833Y005189D02*
X018281Y005189D01*
X018286Y005185D02*
X018320Y005165D01*
X018359Y005155D01*
X018704Y005155D01*
X018704Y005433D01*
X018228Y005433D01*
X018228Y005285D01*
X018239Y005247D01*
X018258Y005212D01*
X018286Y005185D01*
X018228Y005288D02*
X017833Y005288D01*
X017833Y005386D02*
X018228Y005386D01*
X018228Y005583D02*
X017833Y005583D01*
X017833Y005485D02*
X018704Y005485D01*
X018733Y005462D02*
X019738Y005462D01*
X020218Y005583D02*
X019237Y005583D01*
X019224Y005682D02*
X020218Y005682D01*
X020218Y005780D02*
X017833Y005780D01*
X017833Y005682D02*
X018241Y005682D01*
X017833Y005879D02*
X020218Y005879D01*
X020218Y005978D02*
X017833Y005978D01*
X017833Y006076D02*
X018268Y006076D01*
X018673Y006312D02*
X018729Y006368D01*
X018673Y006312D02*
X016734Y006312D01*
X017833Y006569D02*
X018204Y006569D01*
X018276Y006667D02*
X017833Y006667D01*
X017833Y006766D02*
X022847Y006766D01*
X022847Y006864D02*
X017833Y006864D01*
X017833Y006963D02*
X022847Y006963D01*
X022848Y007062D02*
X017833Y007062D01*
X017833Y007160D02*
X022827Y007160D01*
X022846Y006667D02*
X019181Y006667D01*
X019253Y006569D02*
X022846Y006569D01*
X022846Y006470D02*
X019253Y006470D01*
X019253Y006372D02*
X022846Y006372D01*
X022846Y006273D02*
X019253Y006273D01*
X019253Y006175D02*
X020280Y006175D01*
X020219Y006076D02*
X019189Y006076D01*
X018761Y005682D02*
X018704Y005682D01*
X018704Y005583D02*
X018761Y005583D01*
X018761Y005386D02*
X018704Y005386D01*
X018704Y005288D02*
X018761Y005288D01*
X018761Y005189D02*
X018704Y005189D01*
X018215Y004795D02*
X017833Y004795D01*
X017833Y004696D02*
X018204Y004696D01*
X018204Y004598D02*
X017833Y004598D01*
X017833Y004499D02*
X018204Y004499D01*
X018204Y004401D02*
X017856Y004401D01*
X017955Y004302D02*
X018231Y004302D01*
X018053Y004204D02*
X022840Y004204D01*
X022840Y004105D02*
X018152Y004105D01*
X018250Y004007D02*
X022840Y004007D01*
X022840Y003908D02*
X018349Y003908D01*
X018447Y003810D02*
X022839Y003810D01*
X022839Y003711D02*
X018546Y003711D01*
X018204Y003415D02*
X017833Y003415D01*
X017833Y003317D02*
X018204Y003317D01*
X018204Y003218D02*
X017833Y003218D01*
X017833Y003120D02*
X018224Y003120D01*
X017833Y003021D02*
X020218Y003021D01*
X020218Y002923D02*
X017833Y002923D01*
X017833Y002824D02*
X020218Y002824D01*
X020218Y002726D02*
X019193Y002726D01*
X019179Y002740D02*
X019145Y002759D01*
X019107Y002769D01*
X018761Y002769D01*
X018761Y002491D01*
X018704Y002491D01*
X018704Y002769D01*
X018359Y002769D01*
X018320Y002759D01*
X018286Y002740D01*
X018258Y002712D01*
X018239Y002677D01*
X018228Y002639D01*
X018228Y002491D01*
X018704Y002491D01*
X018704Y002433D01*
X018761Y002433D01*
X018761Y002155D01*
X019107Y002155D01*
X019145Y002165D01*
X019179Y002185D01*
X019207Y002212D01*
X019227Y002247D01*
X019237Y002285D01*
X019237Y002433D01*
X018762Y002433D01*
X018762Y002491D01*
X019237Y002491D01*
X019237Y002639D01*
X019227Y002677D01*
X019207Y002712D01*
X019179Y002740D01*
X019237Y002627D02*
X020218Y002627D01*
X020218Y002529D02*
X019237Y002529D01*
X019237Y002430D02*
X020682Y002430D01*
X020683Y002529D02*
X020782Y002529D01*
X020782Y002627D02*
X020683Y002627D01*
X020683Y002726D02*
X020782Y002726D01*
X020782Y002824D02*
X020683Y002824D01*
X020683Y002923D02*
X020782Y002923D01*
X020782Y003021D02*
X020683Y003021D01*
X020683Y003120D02*
X020782Y003120D01*
X021231Y003120D02*
X022838Y003120D01*
X022838Y003218D02*
X019253Y003218D01*
X019253Y003317D02*
X022838Y003317D01*
X022838Y003415D02*
X019253Y003415D01*
X019253Y003514D02*
X022839Y003514D01*
X022839Y003613D02*
X019236Y003613D01*
X018729Y003368D02*
X018578Y003368D01*
X016734Y005212D01*
X015631Y005212D02*
X015483Y005212D01*
X014883Y004612D01*
X014294Y004612D01*
X014272Y004634D01*
X014272Y004378D02*
X013442Y004385D01*
X013083Y004762D01*
X013533Y005162D02*
X013772Y005402D01*
X014272Y005402D01*
X014272Y005658D02*
X013883Y005662D01*
X013421Y005662D01*
X012333Y004512D01*
X011930Y004504D02*
X011930Y004229D01*
X012035Y004124D01*
X012289Y004124D01*
X012290Y004122D01*
X014272Y004122D01*
X014282Y004112D01*
X014933Y004112D01*
X015737Y003308D01*
X015833Y003308D01*
X015833Y004016D02*
X015378Y004016D01*
X015033Y004362D01*
X014288Y004362D01*
X014272Y004378D01*
X015833Y004016D02*
X017528Y004016D01*
X018085Y003459D01*
X018085Y002566D01*
X018182Y002468D01*
X018726Y002468D01*
X018733Y002462D01*
X018704Y002433D02*
X018704Y002155D01*
X018359Y002155D01*
X018320Y002165D01*
X018286Y002185D01*
X018258Y002212D01*
X018239Y002247D01*
X018228Y002285D01*
X018228Y002433D01*
X018704Y002433D01*
X018704Y002430D02*
X018761Y002430D01*
X018761Y002331D02*
X018704Y002331D01*
X018704Y002233D02*
X018761Y002233D01*
X019219Y002233D02*
X020218Y002233D01*
X020218Y002331D02*
X019237Y002331D01*
X018761Y002529D02*
X018704Y002529D01*
X018704Y002627D02*
X018761Y002627D01*
X018761Y002726D02*
X018704Y002726D01*
X018272Y002726D02*
X017833Y002726D01*
X017833Y002627D02*
X018228Y002627D01*
X018228Y002529D02*
X017833Y002529D01*
X017833Y002430D02*
X018228Y002430D01*
X018228Y002331D02*
X017833Y002331D01*
X017833Y002233D02*
X018246Y002233D01*
X017833Y002134D02*
X020218Y002134D01*
X020218Y002036D02*
X017833Y002036D01*
X017833Y001937D02*
X020218Y001937D01*
X019935Y002028D02*
X019465Y002028D01*
X018259Y001839D02*
X017833Y001839D01*
X017833Y001740D02*
X018204Y001740D01*
X018204Y001642D02*
X017833Y001642D01*
X017833Y001543D02*
X018204Y001543D01*
X018204Y001445D02*
X017833Y001445D01*
X017833Y001346D02*
X018204Y001346D01*
X018285Y001247D02*
X017833Y001247D01*
X020783Y002430D02*
X022350Y002430D01*
X022252Y002331D02*
X021247Y002331D01*
X021247Y002233D02*
X022153Y002233D01*
X022055Y002134D02*
X021247Y002134D01*
X021247Y002036D02*
X021956Y002036D01*
X021858Y001937D02*
X021247Y001937D01*
X022298Y001445D02*
X022833Y001445D01*
X022834Y001543D02*
X022397Y001543D01*
X022495Y001642D02*
X022834Y001642D01*
X022834Y001740D02*
X022594Y001740D01*
X022692Y001839D02*
X022834Y001839D01*
X022835Y001937D02*
X022791Y001937D01*
X022833Y001346D02*
X022200Y001346D01*
X022060Y001247D02*
X022833Y001247D01*
X022449Y002529D02*
X021247Y002529D01*
X021247Y002627D02*
X022548Y002627D01*
X022646Y002726D02*
X021247Y002726D01*
X021247Y002824D02*
X022745Y002824D01*
X022837Y002923D02*
X021247Y002923D01*
X021247Y003021D02*
X022837Y003021D01*
X020234Y003120D02*
X019233Y003120D01*
X018121Y003514D02*
X017833Y003514D01*
X017833Y003613D02*
X018022Y003613D01*
X017924Y003711D02*
X017833Y003711D01*
X017833Y004894D02*
X020218Y004894D01*
X020218Y004992D02*
X017833Y004992D01*
X014272Y005914D02*
X013190Y005914D01*
X012535Y005259D01*
X012348Y005259D01*
X012342Y005264D01*
X011801Y004633D02*
X011394Y004633D01*
X011393Y004634D01*
X011091Y004634D01*
X010728Y004271D01*
X010289Y004271D01*
X009289Y005272D01*
X009279Y005272D01*
X008950Y005601D01*
X008950Y006774D01*
X008955Y006779D01*
X007077Y006779D01*
X007061Y006762D01*
X007013Y006667D02*
X007112Y006667D01*
X007112Y006569D02*
X007013Y006569D01*
X007013Y006470D02*
X007112Y006470D01*
X007112Y006372D02*
X007013Y006372D01*
X007013Y006273D02*
X007112Y006273D01*
X007113Y006175D02*
X007680Y006175D01*
X007680Y006273D02*
X007527Y006273D01*
X007527Y006372D02*
X007680Y006372D01*
X007680Y006470D02*
X007527Y006470D01*
X007527Y006569D02*
X007680Y006569D01*
X007716Y006667D02*
X007483Y006667D01*
X006642Y006667D02*
X006441Y006667D01*
X006539Y006569D02*
X006598Y006569D01*
X006598Y006470D02*
X006563Y006470D01*
X006563Y006372D02*
X006598Y006372D01*
X006598Y006273D02*
X006563Y006273D01*
X006563Y006175D02*
X007012Y006175D01*
X006598Y006076D02*
X006563Y006076D01*
X006563Y005978D02*
X006598Y005978D01*
X006598Y005879D02*
X006563Y005879D01*
X006103Y005879D02*
X001747Y005879D01*
X001730Y005872D02*
X001910Y005947D01*
X002048Y006084D01*
X002123Y006265D01*
X002123Y006459D01*
X002048Y006640D01*
X001910Y006777D01*
X001730Y006852D01*
X001535Y006852D01*
X001355Y006777D01*
X001217Y006640D01*
X001143Y006459D01*
X001143Y006265D01*
X001217Y006084D01*
X001355Y005947D01*
X001535Y005872D01*
X001730Y005872D01*
X001743Y005820D02*
X001683Y005830D01*
X001683Y005412D01*
X002100Y005412D01*
X002091Y005472D01*
X002068Y005542D01*
X002035Y005608D01*
X001991Y005668D01*
X001939Y005721D01*
X001879Y005764D01*
X001813Y005798D01*
X001743Y005820D01*
X001683Y005780D02*
X001583Y005780D01*
X001583Y005830D02*
X001523Y005820D01*
X001452Y005798D01*
X001386Y005764D01*
X001326Y005721D01*
X001274Y005668D01*
X001231Y005608D01*
X001197Y005542D01*
X001174Y005472D01*
X001165Y005412D01*
X001582Y005412D01*
X001582Y005312D01*
X001165Y005312D01*
X001174Y005252D01*
X001197Y005182D01*
X001231Y005116D01*
X001274Y005056D01*
X001326Y005004D01*
X001386Y004960D01*
X001452Y004926D01*
X001523Y004904D01*
X001583Y004894D01*
X001583Y005312D01*
X001683Y005312D01*
X001683Y005412D01*
X001583Y005412D01*
X001583Y005830D01*
X001518Y005879D02*
X000783Y005879D01*
X000783Y005780D02*
X001419Y005780D01*
X001288Y005682D02*
X000783Y005682D01*
X000783Y005583D02*
X001218Y005583D01*
X001178Y005485D02*
X000783Y005485D01*
X000783Y005386D02*
X001582Y005386D01*
X001583Y005288D02*
X001683Y005288D01*
X001683Y005312D02*
X001683Y004894D01*
X001743Y004904D01*
X001813Y004926D01*
X001879Y004960D01*
X001939Y005004D01*
X001991Y005056D01*
X002035Y005116D01*
X002068Y005182D01*
X002091Y005252D01*
X002100Y005312D01*
X001683Y005312D01*
X001683Y005386D02*
X006383Y005386D01*
X006285Y005485D02*
X002087Y005485D01*
X002047Y005583D02*
X006186Y005583D01*
X006103Y005682D02*
X001977Y005682D01*
X001847Y005780D02*
X006103Y005780D01*
X006103Y005978D02*
X001941Y005978D01*
X002040Y006076D02*
X006103Y006076D01*
X006103Y006175D02*
X002085Y006175D01*
X002123Y006273D02*
X006103Y006273D01*
X006086Y006372D02*
X002123Y006372D01*
X002118Y006470D02*
X005132Y006470D01*
X005035Y006569D02*
X002077Y006569D01*
X002020Y006667D02*
X004995Y006667D01*
X004984Y006766D02*
X001922Y006766D01*
X001926Y006963D02*
X004821Y006963D01*
X004919Y006864D02*
X000783Y006864D01*
X000783Y006766D02*
X001344Y006766D01*
X001245Y006667D02*
X000783Y006667D01*
X000783Y006569D02*
X001188Y006569D01*
X001147Y006470D02*
X000783Y006470D01*
X000783Y006372D02*
X001143Y006372D01*
X001143Y006273D02*
X000783Y006273D01*
X000783Y006175D02*
X001180Y006175D01*
X001226Y006076D02*
X000783Y006076D01*
X000783Y005978D02*
X001324Y005978D01*
X001583Y005682D02*
X001683Y005682D01*
X001683Y005583D02*
X001583Y005583D01*
X001583Y005485D02*
X001683Y005485D01*
X001683Y005189D02*
X001583Y005189D01*
X001583Y005091D02*
X001683Y005091D01*
X001683Y004992D02*
X001583Y004992D01*
X001535Y004852D02*
X001355Y004777D01*
X001217Y004640D01*
X001143Y004459D01*
X001143Y004265D01*
X001217Y004084D01*
X001355Y003947D01*
X001535Y003872D01*
X001730Y003872D01*
X001910Y003947D01*
X002048Y004084D01*
X002123Y004265D01*
X002123Y004459D01*
X002048Y004640D01*
X001910Y004777D01*
X001730Y004852D01*
X001535Y004852D01*
X001398Y004795D02*
X000783Y004795D01*
X000783Y004696D02*
X001274Y004696D01*
X001200Y004598D02*
X000783Y004598D01*
X000783Y004499D02*
X001159Y004499D01*
X001143Y004401D02*
X000783Y004401D01*
X000783Y004302D02*
X001143Y004302D01*
X001168Y004204D02*
X000783Y004204D01*
X000783Y004105D02*
X001209Y004105D01*
X001295Y004007D02*
X000783Y004007D01*
X000783Y003908D02*
X001448Y003908D01*
X001433Y003810D02*
X000783Y003810D01*
X000783Y003711D02*
X001289Y003711D01*
X001355Y003777D02*
X001217Y003640D01*
X001143Y003459D01*
X001143Y003265D01*
X001217Y003084D01*
X001355Y002947D01*
X001535Y002872D01*
X001730Y002872D01*
X001910Y002947D01*
X002048Y003084D01*
X002123Y003265D01*
X002123Y003459D01*
X002048Y003640D01*
X001910Y003777D01*
X001730Y003852D01*
X001535Y003852D01*
X001355Y003777D01*
X001206Y003613D02*
X000783Y003613D01*
X000783Y003514D02*
X001165Y003514D01*
X001143Y003415D02*
X000783Y003415D01*
X000783Y003317D02*
X001143Y003317D01*
X001162Y003218D02*
X000783Y003218D01*
X000783Y003120D02*
X001203Y003120D01*
X001280Y003021D02*
X000783Y003021D01*
X000783Y002923D02*
X001413Y002923D01*
X001852Y002923D02*
X005361Y002923D01*
X005262Y003021D02*
X001985Y003021D01*
X002063Y003120D02*
X005164Y003120D01*
X005113Y003218D02*
X002103Y003218D01*
X002123Y003317D02*
X005113Y003317D01*
X005113Y003415D02*
X002123Y003415D01*
X002100Y003514D02*
X005113Y003514D01*
X005113Y003613D02*
X002059Y003613D01*
X001976Y003711D02*
X005113Y003711D01*
X005113Y003810D02*
X001832Y003810D01*
X001817Y003908D02*
X005113Y003908D01*
X005113Y004007D02*
X001970Y004007D01*
X002057Y004105D02*
X005113Y004105D01*
X005113Y004204D02*
X002097Y004204D01*
X002123Y004302D02*
X005113Y004302D01*
X005113Y004401D02*
X002123Y004401D01*
X002106Y004499D02*
X005102Y004499D01*
X005023Y004598D02*
X002065Y004598D01*
X001991Y004696D02*
X004984Y004696D01*
X004984Y004795D02*
X001868Y004795D01*
X001923Y004992D02*
X005070Y004992D01*
X005010Y004894D02*
X000783Y004894D01*
X000783Y004992D02*
X001342Y004992D01*
X001249Y005091D02*
X000783Y005091D01*
X000783Y005189D02*
X001195Y005189D01*
X001168Y005288D02*
X000783Y005288D01*
X002016Y005091D02*
X005216Y005091D01*
X005450Y005091D02*
X006596Y005091D01*
X006596Y005189D02*
X002071Y005189D01*
X002097Y005288D02*
X006596Y005288D01*
X006596Y004992D02*
X005595Y004992D01*
X005655Y004894D02*
X006596Y004894D01*
X006596Y004795D02*
X005681Y004795D01*
X005681Y004696D02*
X006596Y004696D01*
X006596Y004598D02*
X005642Y004598D01*
X005563Y004499D02*
X006596Y004499D01*
X006596Y004401D02*
X005553Y004401D01*
X005553Y004302D02*
X006692Y004302D01*
X006861Y004204D02*
X005553Y004204D01*
X005553Y004105D02*
X006626Y004105D01*
X006596Y004007D02*
X005553Y004007D01*
X005553Y003908D02*
X006596Y003908D01*
X006596Y003810D02*
X005553Y003810D01*
X005553Y003711D02*
X006596Y003711D01*
X006596Y003613D02*
X005553Y003613D01*
X005553Y003514D02*
X006596Y003514D01*
X006596Y003415D02*
X005553Y003415D01*
X005589Y003317D02*
X006596Y003317D01*
X006596Y003218D02*
X005687Y003218D01*
X005786Y003120D02*
X006625Y003120D01*
X006861Y003021D02*
X005884Y003021D01*
X005983Y002923D02*
X006861Y002923D01*
X006959Y002824D02*
X006082Y002824D01*
X006180Y002726D02*
X006984Y002726D01*
X007011Y002627D02*
X006279Y002627D01*
X006377Y002529D02*
X007073Y002529D01*
X007333Y002762D02*
X007081Y003013D01*
X007081Y003612D01*
X007081Y004862D01*
X007566Y004795D02*
X007699Y004795D01*
X007699Y004696D02*
X007566Y004696D01*
X007566Y004598D02*
X007699Y004598D01*
X007699Y004499D02*
X007566Y004499D01*
X007566Y004401D02*
X007699Y004401D01*
X007794Y004302D02*
X007471Y004302D01*
X007301Y004204D02*
X009414Y004204D01*
X009316Y004302D02*
X008573Y004302D01*
X008669Y004401D02*
X009217Y004401D01*
X009119Y004499D02*
X008669Y004499D01*
X008669Y004598D02*
X009020Y004598D01*
X009445Y004795D02*
X010327Y004795D01*
X010333Y004894D02*
X009347Y004894D01*
X009248Y004992D02*
X010333Y004992D01*
X010333Y005091D02*
X008669Y005091D01*
X008669Y005189D02*
X010333Y005189D01*
X010333Y005288D02*
X008669Y005288D01*
X008609Y005386D02*
X010333Y005386D01*
X010286Y004696D02*
X009544Y004696D01*
X009642Y004598D02*
X010285Y004598D01*
X010307Y004499D02*
X009741Y004499D01*
X009839Y004401D02*
X010333Y004401D01*
X010333Y004302D02*
X009938Y004302D01*
X010036Y004204D02*
X010333Y004204D01*
X010333Y004105D02*
X010135Y004105D01*
X010233Y004007D02*
X010333Y004007D01*
X009808Y003810D02*
X008669Y003810D01*
X008669Y003908D02*
X009710Y003908D01*
X009611Y004007D02*
X008669Y004007D01*
X008640Y004105D02*
X009513Y004105D01*
X009907Y003711D02*
X008669Y003711D01*
X008669Y003613D02*
X010005Y003613D01*
X010104Y003514D02*
X008669Y003514D01*
X008669Y003415D02*
X010203Y003415D01*
X010301Y003317D02*
X008669Y003317D01*
X008669Y003218D02*
X010333Y003218D01*
X010333Y003120D02*
X008641Y003120D01*
X008402Y003021D02*
X010333Y003021D01*
X010333Y002923D02*
X008402Y002923D01*
X008402Y002824D02*
X010333Y002824D01*
X010333Y002726D02*
X008402Y002726D01*
X008356Y002627D02*
X010333Y002627D01*
X010333Y002529D02*
X008257Y002529D01*
X008159Y002430D02*
X010333Y002430D01*
X010333Y002331D02*
X008060Y002331D01*
X007962Y002233D02*
X010333Y002233D01*
X010333Y002134D02*
X007863Y002134D01*
X007680Y002262D02*
X008182Y002764D01*
X008182Y003610D01*
X008184Y003612D01*
X007699Y003613D02*
X007566Y003613D01*
X007566Y003711D02*
X007699Y003711D01*
X007699Y003810D02*
X007566Y003810D01*
X007566Y003908D02*
X007699Y003908D01*
X007699Y004007D02*
X007566Y004007D01*
X007537Y004105D02*
X007728Y004105D01*
X007699Y003514D02*
X007566Y003514D01*
X007566Y003415D02*
X007699Y003415D01*
X007699Y003317D02*
X007566Y003317D01*
X007566Y003218D02*
X007699Y003218D01*
X007727Y003120D02*
X007538Y003120D01*
X007566Y003021D02*
X007962Y003021D01*
X007962Y002923D02*
X007643Y002923D01*
X007681Y002824D02*
X007931Y002824D01*
X007832Y002726D02*
X007681Y002726D01*
X007654Y002627D02*
X007734Y002627D01*
X007635Y002529D02*
X007592Y002529D01*
X007680Y002262D02*
X006333Y002262D01*
X005333Y003262D01*
X005333Y004762D01*
X007527Y005879D02*
X007680Y005879D01*
X007680Y005978D02*
X007527Y005978D01*
X007527Y006076D02*
X007680Y006076D01*
X008950Y006774D02*
X008950Y009081D01*
X008931Y009131D02*
X008991Y009131D01*
X008991Y009229D02*
X008931Y009229D01*
X008931Y009328D02*
X008991Y009328D01*
X008991Y009427D02*
X008931Y009427D01*
X008931Y009525D02*
X008991Y009525D01*
X008737Y009525D02*
X002701Y009525D01*
X002701Y009558D02*
X003119Y009558D01*
X003109Y009618D01*
X003069Y009722D02*
X010333Y009722D01*
X010333Y009821D02*
X003003Y009821D01*
X002879Y009919D02*
X010333Y009919D01*
X010333Y010018D02*
X002304Y010018D01*
X002277Y010116D02*
X010333Y010116D01*
X010333Y010215D02*
X002242Y010215D01*
X002330Y009919D02*
X002423Y009919D01*
X002601Y009919D02*
X002701Y009919D01*
X002701Y009821D02*
X002601Y009821D01*
X002601Y009722D02*
X002701Y009722D01*
X002701Y009624D02*
X002601Y009624D01*
X002701Y009558D02*
X002701Y009458D01*
X002701Y009040D01*
X002761Y009050D01*
X002831Y009073D01*
X002932Y009131D02*
X003272Y009131D01*
X003174Y009032D02*
X002059Y009032D01*
X002114Y009087D02*
X002233Y009294D01*
X002249Y009262D01*
X002293Y009202D01*
X002345Y009150D01*
X002405Y009106D01*
X002471Y009073D01*
X002541Y009050D01*
X002601Y009040D01*
X002601Y009458D01*
X002701Y009458D01*
X003119Y009458D01*
X003109Y009398D01*
X003087Y009328D01*
X003114Y009427D02*
X008638Y009427D01*
X007078Y008638D02*
X007000Y008638D01*
X004805Y007653D02*
X002035Y007653D01*
X001936Y007751D02*
X004706Y007751D01*
X004903Y007554D02*
X003851Y007554D01*
X003733Y007362D02*
X003833Y007262D01*
X004833Y007262D01*
X005333Y006762D01*
X005681Y006766D02*
X005692Y006766D01*
X005670Y006667D02*
X005790Y006667D01*
X005889Y006569D02*
X005630Y006569D01*
X005534Y006470D02*
X005987Y006470D01*
X005297Y007160D02*
X005246Y007160D01*
X005199Y007259D02*
X005147Y007259D01*
X005100Y007357D02*
X005049Y007357D01*
X005002Y007456D02*
X004950Y007456D01*
X004244Y007850D02*
X001735Y007850D01*
X001530Y007850D02*
X000783Y007850D01*
X000783Y007948D02*
X004146Y007948D01*
X004051Y008047D02*
X002818Y008047D01*
X002981Y008146D02*
X004051Y008146D01*
X002484Y008047D02*
X000783Y008047D01*
X000783Y008146D02*
X002321Y008146D01*
X002230Y008244D02*
X000783Y008244D01*
X000783Y008343D02*
X002189Y008343D01*
X002161Y008441D02*
X000783Y008441D01*
X000783Y008540D02*
X002161Y008540D01*
X002175Y008638D02*
X000783Y008638D01*
X000783Y008737D02*
X000810Y008737D01*
X000809Y008737D02*
X001089Y008662D01*
X001378Y008662D01*
X001658Y008737D01*
X001909Y008882D01*
X002114Y009087D01*
X002139Y009131D02*
X002371Y009131D01*
X002273Y009229D02*
X002196Y009229D01*
X002399Y008934D02*
X001961Y008934D01*
X001828Y008835D02*
X002285Y008835D01*
X002215Y008737D02*
X001657Y008737D01*
X000809Y008737D02*
X000783Y008752D01*
X000783Y002272D01*
X000808Y002287D01*
X001088Y002362D01*
X001377Y002362D01*
X001657Y002287D01*
X001908Y002142D01*
X002113Y001937D01*
X002014Y002036D02*
X010333Y002036D01*
X010833Y003096D02*
X011089Y003352D01*
X011391Y003352D01*
X011393Y003355D01*
X011930Y004504D02*
X011801Y004633D01*
X010731Y004721D02*
X010633Y004623D01*
X010731Y004721D02*
X010731Y005957D01*
X010944Y006170D01*
X011393Y006170D01*
X011393Y006425D02*
X010557Y007262D01*
X009833Y007262D01*
X010033Y007554D02*
X010333Y007554D01*
X011332Y006429D02*
X011335Y006425D01*
X011393Y006425D01*
X011388Y006429D02*
X011332Y006429D01*
X012560Y006437D02*
X014258Y006439D01*
X014272Y006425D01*
X014272Y006170D02*
X014266Y006164D01*
X012866Y006164D01*
X012529Y005827D01*
X012498Y005831D01*
X017833Y007259D02*
X018224Y007259D01*
X018204Y007357D02*
X017833Y007357D01*
X017833Y007456D02*
X018204Y007456D01*
X018204Y007554D02*
X017833Y007554D01*
X017833Y007653D02*
X018204Y007653D01*
X018221Y007751D02*
X017833Y007751D01*
X017833Y007850D02*
X020218Y007850D01*
X020218Y007948D02*
X017833Y007948D01*
X017833Y008047D02*
X020218Y008047D01*
X020218Y008146D02*
X019190Y008146D01*
X019237Y008244D02*
X020218Y008244D01*
X020218Y008343D02*
X019237Y008343D01*
X019237Y008441D02*
X019237Y008589D01*
X019227Y008627D01*
X019207Y008662D01*
X019179Y008690D01*
X019145Y008709D01*
X019107Y008719D01*
X019220Y008638D02*
X020218Y008638D01*
X020218Y008540D02*
X019237Y008540D01*
X018761Y008540D02*
X018704Y008540D01*
X018704Y008638D02*
X018761Y008638D01*
X018761Y008441D02*
X018704Y008441D01*
X018704Y008383D01*
X018228Y008383D01*
X018228Y008441D02*
X018704Y008441D01*
X018704Y008343D02*
X018761Y008343D01*
X018761Y008244D02*
X018704Y008244D01*
X018704Y008146D02*
X018761Y008146D01*
X018275Y008146D02*
X017833Y008146D01*
X017833Y008244D02*
X018228Y008244D01*
X018228Y008540D02*
X017833Y008540D01*
X017833Y008638D02*
X018245Y008638D01*
X017833Y008737D02*
X020218Y008737D01*
X020218Y008835D02*
X017833Y008835D01*
X017833Y008934D02*
X020218Y008934D01*
X020683Y008934D02*
X020782Y008934D01*
X020782Y009032D02*
X020683Y009032D01*
X020683Y009131D02*
X020782Y009131D01*
X021174Y009131D02*
X022853Y009131D01*
X022853Y009032D02*
X021244Y009032D01*
X021247Y008934D02*
X022852Y008934D01*
X022852Y008835D02*
X021247Y008835D01*
X021247Y008737D02*
X022852Y008737D01*
X022851Y008638D02*
X021247Y008638D01*
X021247Y008540D02*
X022851Y008540D01*
X022851Y008441D02*
X020783Y008441D01*
X020782Y008540D02*
X020683Y008540D01*
X020683Y008638D02*
X020782Y008638D01*
X020782Y008737D02*
X020683Y008737D01*
X020683Y008835D02*
X020782Y008835D01*
X021247Y008343D02*
X022851Y008343D01*
X022851Y008244D02*
X021247Y008244D01*
X021247Y008146D02*
X022850Y008146D01*
X022850Y008047D02*
X021247Y008047D01*
X021247Y007948D02*
X022850Y007948D01*
X022849Y007850D02*
X021247Y007850D01*
X018262Y009032D02*
X017833Y009032D01*
X017833Y009525D02*
X018204Y009525D01*
X018283Y009624D02*
X017833Y009624D01*
X019175Y009624D02*
X022854Y009624D01*
X022854Y009525D02*
X019253Y009525D01*
X019253Y009427D02*
X022854Y009427D01*
X022843Y005386D02*
X021247Y005386D01*
X021247Y005288D02*
X022843Y005288D01*
X022843Y005189D02*
X021247Y005189D01*
X021247Y005091D02*
X022815Y005091D01*
X022716Y004992D02*
X021247Y004992D01*
X021247Y004894D02*
X022618Y004894D01*
X006149Y002134D02*
X001916Y002134D01*
X001751Y002233D02*
X006051Y002233D01*
X005952Y002331D02*
X001491Y002331D01*
X000974Y002331D02*
X000783Y002331D01*
X000783Y002430D02*
X005854Y002430D01*
X005755Y002529D02*
X000783Y002529D01*
X000783Y002627D02*
X005656Y002627D01*
X005558Y002726D02*
X000783Y002726D01*
X000783Y002824D02*
X005459Y002824D01*
X001339Y006963D02*
X000783Y006963D01*
X000783Y007062D02*
X001240Y007062D01*
X001186Y007160D02*
X000783Y007160D01*
X000783Y007259D02*
X001145Y007259D01*
X001143Y007357D02*
X000783Y007357D01*
X000783Y007456D02*
X001143Y007456D01*
X001182Y007554D02*
X000783Y007554D01*
X000783Y007653D02*
X001230Y007653D01*
X001329Y007751D02*
X000783Y007751D01*
X001633Y007362D02*
X003733Y007362D01*
X003722Y007062D02*
X002025Y007062D01*
X002601Y009131D02*
X002701Y009131D01*
X002701Y009229D02*
X002601Y009229D01*
X002601Y009328D02*
X002701Y009328D01*
X002701Y009427D02*
X002601Y009427D01*
X003030Y009229D02*
X003371Y009229D01*
D21*
X012342Y005264D03*
X013083Y004762D03*
X013533Y005162D03*
X012333Y004512D03*
X013533Y007062D03*
D22*
X012560Y006437D03*
X012498Y005831D03*
X010633Y004623D03*
X007333Y002762D03*
X005333Y004762D03*
X005333Y006762D03*
X009833Y007262D03*
D23*
X010960Y007970D02*
X011428Y007445D01*
X012233Y007458D01*
X010960Y007970D02*
X010961Y009092D01*
X006670Y008735D02*
X006670Y008251D01*
X006664Y008245D01*
X006670Y008735D02*
X006418Y008988D01*
X003596Y008988D01*
X003116Y008508D01*
X002651Y008508D01*
X018729Y007507D02*
X022947Y007507D01*
X024420Y006033D01*
X024420Y005034D02*
X023224Y005034D01*
X022747Y004557D01*
X018729Y004557D01*
X021944Y001557D02*
X024420Y004033D01*
X024420Y005033D02*
X024420Y005034D01*
X021944Y001557D02*
X018729Y001557D01*
D24*
X019465Y002028D03*
X019935Y002028D03*
X019935Y002492D03*
X019465Y002492D03*
X019465Y002950D03*
X019935Y002944D03*
X021333Y003262D03*
X021833Y003262D03*
X022333Y003262D03*
X022333Y002762D03*
X021833Y002762D03*
X021833Y002262D03*
X021833Y003762D03*
X022333Y003762D03*
X021333Y003762D03*
X020833Y003762D03*
X020333Y003762D03*
X019833Y003762D03*
X019333Y003762D03*
X019523Y005046D03*
X019962Y005030D03*
X019968Y005551D03*
X019514Y005554D03*
X019523Y006037D03*
X019971Y006028D03*
X019833Y006762D03*
X020333Y006762D03*
X020833Y006762D03*
X021333Y006762D03*
X021833Y006762D03*
X022333Y006762D03*
X022333Y006262D03*
X021833Y006262D03*
X021833Y005762D03*
X022333Y005762D03*
X022333Y005262D03*
X021833Y005262D03*
X019333Y006762D03*
X019478Y007992D03*
X019947Y007992D03*
X019947Y008450D03*
X019478Y008450D03*
X019467Y008909D03*
X019947Y008909D03*
X021333Y009262D03*
X021833Y009262D03*
X022333Y009262D03*
X022333Y008762D03*
X021833Y008762D03*
X021833Y008262D03*
X022333Y008262D03*
D25*
X008165Y006167D02*
X008165Y005718D01*
X008060Y005612D01*
X006482Y005612D01*
X006333Y005762D01*
X006333Y006450D01*
X004538Y008245D01*
X005956Y008245D02*
X005956Y007960D01*
X007061Y006855D01*
X007061Y006762D01*
X007061Y006169D01*
X007063Y006167D01*
M02*
