G75*
G70*
%OFA0B0*%
%FSLAX24Y24*%
%IPPOS*%
%LPD*%
%AMOC8*
5,1,8,0,0,1.08239X$1,22.5*
%
%ADD10R,0.0789X0.0395*%
%ADD11R,0.0808X0.1261*%
%ADD12R,0.0710X0.0867*%
%ADD13OC8,0.0710*%
%ADD14R,0.0552X0.0395*%
%ADD15C,0.0680*%
%ADD16R,0.0680X0.0680*%
%ADD17C,0.1380*%
%ADD18R,0.0630X0.0217*%
%ADD19OC8,0.0674*%
%ADD20R,0.0395X0.0789*%
%ADD21R,0.1261X0.0808*%
%ADD22R,0.0867X0.0710*%
%ADD23R,0.0395X0.0552*%
%ADD24R,0.0217X0.0630*%
%ADD25C,0.0440*%
%ADD26C,0.0437*%
%ADD27C,0.0476*%
D10*
X018729Y001627D03*
X018733Y002533D03*
X018729Y003438D03*
X018729Y004627D03*
X018733Y005533D03*
X018729Y006438D03*
X018729Y007577D03*
X018733Y008483D03*
X018729Y009388D03*
X018729Y012627D03*
X018733Y013533D03*
X018729Y014438D03*
X018729Y015627D03*
X018733Y016533D03*
X018729Y017438D03*
X018729Y018577D03*
X018733Y019483D03*
X018729Y020388D03*
X018729Y023627D03*
X018733Y024533D03*
X018729Y025438D03*
X018729Y026627D03*
X018733Y027533D03*
X018729Y028438D03*
X018729Y029577D03*
X018733Y030483D03*
X018729Y031388D03*
D11*
X020733Y030483D03*
X020733Y027533D03*
X020733Y024533D03*
X020733Y019483D03*
X020733Y016533D03*
X020733Y013533D03*
X020733Y008483D03*
X020733Y005533D03*
X020733Y002533D03*
D12*
X016734Y005283D03*
X015631Y005283D03*
X015631Y006383D03*
X016734Y006383D03*
X016734Y007483D03*
X015631Y007483D03*
X008165Y006238D03*
X007063Y006238D03*
X007081Y004933D03*
X008184Y004933D03*
X008184Y003683D03*
X007081Y003683D03*
X007081Y014683D03*
X008184Y014683D03*
X008184Y015933D03*
X007081Y015933D03*
X007063Y017238D03*
X008165Y017238D03*
X015631Y017383D03*
X016734Y017383D03*
X016734Y018483D03*
X015631Y018483D03*
X015631Y016283D03*
X016734Y016283D03*
X008184Y025683D03*
X007081Y025683D03*
X007081Y026933D03*
X008184Y026933D03*
X008165Y028238D03*
X007063Y028238D03*
X015631Y028383D03*
X016734Y028383D03*
X016734Y027283D03*
X015631Y027283D03*
X015631Y029483D03*
X016734Y029483D03*
D13*
X010961Y031163D03*
X008961Y031163D03*
X008961Y020163D03*
X010961Y020163D03*
X010961Y009163D03*
X008961Y009163D03*
X027502Y008961D03*
X027502Y010961D03*
D14*
X015833Y014378D03*
X015833Y015087D03*
X013983Y018528D03*
X013983Y019237D03*
X013083Y019237D03*
X013083Y018528D03*
X012233Y018528D03*
X012233Y019237D03*
X015833Y025378D03*
X015833Y026087D03*
X013983Y029528D03*
X013983Y030237D03*
X013083Y030237D03*
X013083Y029528D03*
X012233Y029528D03*
X012233Y030237D03*
X012233Y008237D03*
X012233Y007528D03*
X013083Y007528D03*
X013083Y008237D03*
X013983Y008237D03*
X013983Y007528D03*
X015833Y004087D03*
X015833Y003378D03*
D15*
X013833Y001333D03*
X012833Y001333D03*
X011833Y001333D03*
X010833Y001333D03*
X009833Y001333D03*
X008833Y001333D03*
X007833Y001333D03*
X001633Y003433D03*
X001633Y004433D03*
X001633Y005433D03*
X001633Y006433D03*
X001633Y007433D03*
X002651Y008579D03*
X002651Y009579D03*
X007833Y012333D03*
X008833Y012333D03*
X009833Y012333D03*
X010833Y012333D03*
X011833Y012333D03*
X012833Y012333D03*
X013833Y012333D03*
X013733Y009483D03*
X014733Y009483D03*
X012733Y009483D03*
X001633Y014433D03*
X001633Y015433D03*
X001633Y016433D03*
X001633Y017433D03*
X001633Y018433D03*
X002651Y019579D03*
X002651Y020579D03*
X007833Y023333D03*
X008833Y023333D03*
X009833Y023333D03*
X010833Y023333D03*
X011833Y023333D03*
X012833Y023333D03*
X013833Y023333D03*
X013733Y020483D03*
X014733Y020483D03*
X012733Y020483D03*
X001633Y025433D03*
X001633Y026433D03*
X001633Y027433D03*
X001633Y028433D03*
X001633Y029433D03*
X002651Y030579D03*
X002651Y031579D03*
X012733Y031483D03*
X013733Y031483D03*
X014733Y031483D03*
X027183Y014733D03*
X027183Y013733D03*
X027183Y012733D03*
X035333Y012833D03*
X035333Y013833D03*
X035333Y011833D03*
X035333Y010833D03*
X035333Y009833D03*
X035333Y008833D03*
X035333Y007833D03*
X028087Y002651D03*
X027087Y002651D03*
X029233Y001633D03*
X030233Y001633D03*
X031233Y001633D03*
X032233Y001633D03*
X033233Y001633D03*
D16*
X015733Y009483D03*
X027183Y015733D03*
X015733Y020483D03*
X015733Y031483D03*
D17*
X001232Y001333D03*
X001233Y009833D03*
X001232Y012333D03*
X001233Y020833D03*
X001232Y023333D03*
X001233Y031833D03*
X024333Y031833D03*
X026833Y024333D03*
X024333Y023333D03*
X024333Y020833D03*
X035333Y024333D03*
X024333Y012333D03*
X024333Y009833D03*
X024333Y001333D03*
X026833Y001233D03*
X035333Y001232D03*
D18*
X014272Y003169D03*
X014272Y003425D03*
X014272Y003681D03*
X014272Y003937D03*
X014272Y004193D03*
X014272Y004449D03*
X014272Y004705D03*
X014272Y004961D03*
X014272Y005216D03*
X014272Y005472D03*
X014272Y005728D03*
X014272Y005984D03*
X014272Y006240D03*
X014272Y006496D03*
X011393Y006496D03*
X011393Y006240D03*
X011393Y005984D03*
X011393Y005728D03*
X011393Y005472D03*
X011393Y005216D03*
X011393Y004961D03*
X011393Y004705D03*
X011393Y004449D03*
X011393Y004193D03*
X011393Y003937D03*
X011393Y003681D03*
X011393Y003425D03*
X011393Y003169D03*
X011393Y014169D03*
X011393Y014425D03*
X011393Y014681D03*
X011393Y014937D03*
X011393Y015193D03*
X011393Y015449D03*
X011393Y015705D03*
X011393Y015961D03*
X011393Y016216D03*
X011393Y016472D03*
X011393Y016728D03*
X011393Y016984D03*
X011393Y017240D03*
X011393Y017496D03*
X014272Y017496D03*
X014272Y017240D03*
X014272Y016984D03*
X014272Y016728D03*
X014272Y016472D03*
X014272Y016216D03*
X014272Y015961D03*
X014272Y015705D03*
X014272Y015449D03*
X014272Y015193D03*
X014272Y014937D03*
X014272Y014681D03*
X014272Y014425D03*
X014272Y014169D03*
X014272Y025169D03*
X014272Y025425D03*
X014272Y025681D03*
X014272Y025937D03*
X014272Y026193D03*
X014272Y026449D03*
X014272Y026705D03*
X014272Y026961D03*
X014272Y027216D03*
X014272Y027472D03*
X014272Y027728D03*
X014272Y027984D03*
X014272Y028240D03*
X014272Y028496D03*
X011393Y028496D03*
X011393Y028240D03*
X011393Y027984D03*
X011393Y027728D03*
X011393Y027472D03*
X011393Y027216D03*
X011393Y026961D03*
X011393Y026705D03*
X011393Y026449D03*
X011393Y026193D03*
X011393Y025937D03*
X011393Y025681D03*
X011393Y025425D03*
X011393Y025169D03*
D19*
X007351Y029833D03*
X006642Y029833D03*
X005934Y029833D03*
X005225Y029833D03*
X004516Y029833D03*
X004516Y018833D03*
X005225Y018833D03*
X005934Y018833D03*
X006642Y018833D03*
X007351Y018833D03*
X007351Y007833D03*
X006642Y007833D03*
X005934Y007833D03*
X005225Y007833D03*
X004516Y007833D03*
X028832Y007351D03*
X028832Y006642D03*
X028832Y005934D03*
X028832Y005225D03*
X028832Y004516D03*
D20*
X029088Y018729D03*
X028183Y018733D03*
X027277Y018729D03*
X030227Y018729D03*
X031133Y018733D03*
X032038Y018729D03*
X033227Y018729D03*
X034133Y018733D03*
X035038Y018729D03*
D21*
X034133Y020733D03*
X031133Y020733D03*
X028183Y020733D03*
D22*
X029183Y016734D03*
X030283Y016734D03*
X031383Y016734D03*
X031383Y015631D03*
X030283Y015631D03*
X029183Y015631D03*
X030427Y008165D03*
X030427Y007063D03*
X031733Y007081D03*
X031733Y008184D03*
X032983Y008184D03*
X032983Y007081D03*
D23*
X029137Y012233D03*
X028428Y012233D03*
X028428Y013083D03*
X029137Y013083D03*
X029137Y013983D03*
X028428Y013983D03*
X032578Y015833D03*
X033287Y015833D03*
D24*
X033240Y014272D03*
X032984Y014272D03*
X032728Y014272D03*
X032472Y014272D03*
X032216Y014272D03*
X031961Y014272D03*
X031705Y014272D03*
X031449Y014272D03*
X031193Y014272D03*
X030937Y014272D03*
X030681Y014272D03*
X030425Y014272D03*
X030169Y014272D03*
X033496Y014272D03*
X033496Y011393D03*
X033240Y011393D03*
X032984Y011393D03*
X032728Y011393D03*
X032472Y011393D03*
X032216Y011393D03*
X031961Y011393D03*
X031705Y011393D03*
X031449Y011393D03*
X031193Y011393D03*
X030937Y011393D03*
X030681Y011393D03*
X030425Y011393D03*
X030169Y011393D03*
D25*
X031330Y012342D03*
X032083Y012333D03*
X031833Y013083D03*
X031433Y013533D03*
X029533Y013533D03*
X028333Y017333D03*
X031418Y017481D03*
X033833Y017333D03*
X017481Y016247D03*
X017333Y013833D03*
X013533Y016233D03*
X013083Y015833D03*
X012333Y015583D03*
X012342Y016335D03*
X013533Y018133D03*
X017333Y019333D03*
X017333Y024833D03*
X017481Y027247D03*
X017333Y030333D03*
X013533Y029133D03*
X013533Y027233D03*
X013083Y026833D03*
X012333Y026583D03*
X012342Y027335D03*
X017333Y008333D03*
X013533Y007133D03*
X012342Y005335D03*
X013083Y004833D03*
X013533Y005233D03*
X012333Y004583D03*
X017481Y005247D03*
X017333Y002833D03*
D26*
X012402Y005898D03*
X012488Y006466D03*
X010633Y004694D03*
X007333Y002833D03*
X005333Y004833D03*
X005333Y006833D03*
X009833Y007333D03*
X007333Y013833D03*
X005333Y015833D03*
X005333Y017833D03*
X009833Y018333D03*
X012488Y017466D03*
X012402Y016898D03*
X010633Y015694D03*
X007333Y024833D03*
X005333Y026833D03*
X005333Y028833D03*
X009833Y029333D03*
X012488Y028466D03*
X012402Y027898D03*
X010633Y026694D03*
X030200Y012488D03*
X030768Y012402D03*
X031972Y010633D03*
X029333Y009833D03*
X033833Y007333D03*
X031833Y005333D03*
X029833Y005333D03*
D27*
X024333Y005333D03*
X023833Y005833D03*
X023333Y005333D03*
X022833Y005833D03*
X022333Y005333D03*
X022833Y004833D03*
X023333Y004333D03*
X023833Y004833D03*
X024333Y004333D03*
X023833Y003833D03*
X024333Y003333D03*
X023833Y002833D03*
X023333Y003333D03*
X022833Y003833D03*
X022333Y003333D03*
X022833Y002833D03*
X022333Y002333D03*
X022833Y001833D03*
X021833Y001833D03*
X021833Y002833D03*
X020837Y003538D03*
X021165Y004058D03*
X020865Y004524D03*
X020078Y004043D03*
X019357Y004043D03*
X019471Y004785D03*
X019737Y005185D03*
X020002Y004785D03*
X019718Y005927D03*
X019984Y006288D03*
X019452Y006288D03*
X019376Y006992D03*
X020097Y006992D03*
X020865Y007483D03*
X021193Y007044D03*
X021833Y006833D03*
X022333Y007333D03*
X022833Y007833D03*
X023333Y007333D03*
X023833Y007833D03*
X024333Y007333D03*
X023833Y006833D03*
X024333Y006333D03*
X023333Y006333D03*
X022833Y006833D03*
X022333Y006333D03*
X021833Y005833D03*
X020892Y006606D03*
X020002Y007715D03*
X019737Y008134D03*
X019452Y007715D03*
X019699Y008876D03*
X019452Y009256D03*
X019984Y009237D03*
X021357Y009455D03*
X021833Y008833D03*
X022333Y009333D03*
X022833Y008833D03*
X023333Y008333D03*
X024333Y008333D03*
X022333Y008333D03*
X021833Y007833D03*
X021833Y004833D03*
X022333Y004333D03*
X021833Y003833D03*
X019984Y003282D03*
X019737Y002901D03*
X019452Y003282D03*
X019756Y002140D03*
X020002Y001760D03*
X019471Y001779D03*
X020002Y012760D03*
X019756Y013140D03*
X019471Y012779D03*
X019737Y013901D03*
X019984Y014282D03*
X019452Y014282D03*
X019357Y015043D03*
X020078Y015043D03*
X020865Y015524D03*
X021165Y015058D03*
X021833Y014833D03*
X022333Y015333D03*
X022833Y015833D03*
X023333Y015333D03*
X023833Y015833D03*
X024333Y015333D03*
X023833Y014833D03*
X024333Y014333D03*
X023833Y013833D03*
X023333Y014333D03*
X022833Y014833D03*
X022333Y014333D03*
X022833Y013833D03*
X022333Y013333D03*
X022833Y012833D03*
X021833Y012833D03*
X021833Y013833D03*
X020837Y014538D03*
X020002Y015785D03*
X019737Y016185D03*
X019471Y015785D03*
X019718Y016927D03*
X019984Y017288D03*
X019452Y017288D03*
X019376Y017992D03*
X020097Y017992D03*
X020892Y017606D03*
X021193Y018044D03*
X020865Y018483D03*
X020002Y018715D03*
X019737Y019134D03*
X019452Y018715D03*
X019699Y019876D03*
X019452Y020256D03*
X019984Y020237D03*
X021357Y020455D03*
X021833Y019833D03*
X022333Y020333D03*
X022833Y019833D03*
X023333Y019333D03*
X023833Y018833D03*
X024333Y018333D03*
X023833Y017833D03*
X024333Y017333D03*
X023833Y016833D03*
X024333Y016333D03*
X023333Y016333D03*
X022833Y016833D03*
X022333Y016333D03*
X021833Y016833D03*
X022333Y017333D03*
X022833Y017833D03*
X023333Y017333D03*
X023333Y018333D03*
X022833Y018833D03*
X022333Y018333D03*
X021833Y018833D03*
X022333Y019333D03*
X024333Y019333D03*
X021833Y017833D03*
X021833Y015833D03*
X027409Y019452D03*
X027789Y019699D03*
X027428Y019984D03*
X028531Y019737D03*
X028950Y020002D03*
X028950Y019452D03*
X029673Y019376D03*
X030377Y019452D03*
X030739Y019718D03*
X030377Y019984D03*
X029673Y020097D03*
X030059Y020892D03*
X029621Y021193D03*
X029183Y020865D03*
X028833Y021833D03*
X029333Y022333D03*
X029833Y021833D03*
X030333Y022333D03*
X030833Y021833D03*
X031333Y022333D03*
X031833Y021833D03*
X032333Y022333D03*
X032833Y021833D03*
X033333Y022333D03*
X033833Y021833D03*
X034333Y022333D03*
X034833Y021833D03*
X034833Y022833D03*
X033833Y022833D03*
X033333Y023333D03*
X032833Y022833D03*
X032333Y023333D03*
X032833Y023833D03*
X033333Y024333D03*
X033833Y023833D03*
X032333Y024333D03*
X031833Y023833D03*
X031333Y024333D03*
X030833Y023833D03*
X030333Y024333D03*
X029833Y023833D03*
X029333Y024333D03*
X028833Y023833D03*
X028333Y024333D03*
X028333Y023333D03*
X028833Y022833D03*
X029333Y023333D03*
X029833Y022833D03*
X030333Y023333D03*
X030833Y022833D03*
X031333Y023333D03*
X031833Y022833D03*
X032607Y021165D03*
X032141Y020865D03*
X033127Y020837D03*
X033383Y019984D03*
X033764Y019737D03*
X033383Y019452D03*
X032622Y019357D03*
X031880Y019471D03*
X031481Y019737D03*
X031880Y020002D03*
X032622Y020078D03*
X034525Y019756D03*
X034906Y020002D03*
X034887Y019471D03*
X028333Y022333D03*
X027833Y021833D03*
X027333Y022333D03*
X027833Y022833D03*
X027210Y021357D03*
X022833Y023833D03*
X022333Y024333D03*
X022833Y024833D03*
X023333Y025333D03*
X023833Y024833D03*
X024333Y025333D03*
X023833Y025833D03*
X024333Y026333D03*
X023833Y026833D03*
X024333Y027333D03*
X023833Y027833D03*
X024333Y028333D03*
X023833Y028833D03*
X024333Y029333D03*
X023833Y029833D03*
X024333Y030333D03*
X023333Y030333D03*
X022833Y029833D03*
X022333Y030333D03*
X022833Y030833D03*
X022333Y031333D03*
X021833Y030833D03*
X021357Y031455D03*
X019984Y031237D03*
X019699Y030876D03*
X019452Y031256D03*
X019737Y030134D03*
X020002Y029715D03*
X019452Y029715D03*
X019376Y028992D03*
X019452Y028288D03*
X019718Y027927D03*
X019984Y028288D03*
X020097Y028992D03*
X020892Y028606D03*
X021193Y029044D03*
X021833Y028833D03*
X022333Y029333D03*
X022833Y028833D03*
X023333Y029333D03*
X023333Y028333D03*
X022833Y027833D03*
X022333Y028333D03*
X021833Y027833D03*
X022333Y027333D03*
X022833Y026833D03*
X023333Y027333D03*
X023333Y026333D03*
X022833Y025833D03*
X022333Y026333D03*
X021833Y026833D03*
X020865Y026524D03*
X021165Y026058D03*
X020837Y025538D03*
X020078Y026043D03*
X019357Y026043D03*
X019452Y025282D03*
X019737Y024901D03*
X019984Y025282D03*
X019756Y024140D03*
X020002Y023760D03*
X019471Y023779D03*
X021833Y023833D03*
X021833Y024833D03*
X022333Y025333D03*
X021833Y025833D03*
X020002Y026785D03*
X019737Y027185D03*
X019471Y026785D03*
X020865Y029483D03*
X021833Y029833D03*
M02*
