G75*
G70*
%OFA0B0*%
%FSLAX24Y24*%
%IPPOS*%
%LPD*%
%AMOC8*
5,1,8,0,0,1.08239X$1,22.5*
%
%ADD10C,0.0080*%
%ADD11OC8,0.0630*%
%ADD12C,0.0600*%
%ADD13R,0.0600X0.0600*%
%ADD14OC8,0.0594*%
%ADD15C,0.0240*%
%ADD16C,0.0360*%
%ADD17C,0.0100*%
%ADD18C,0.0357*%
%ADD19C,0.0396*%
%ADD20C,0.0320*%
D10*
X037372Y000873D02*
X037679Y001179D01*
X037372Y001486D01*
X038293Y001486D01*
X038139Y001793D02*
X038293Y001947D01*
X038293Y002254D01*
X038139Y002407D01*
X037832Y002407D01*
X037679Y002254D01*
X037679Y001947D01*
X037832Y001793D01*
X038139Y001793D01*
X038293Y000873D02*
X037372Y000873D01*
X039372Y001026D02*
X039525Y000873D01*
X039679Y000873D01*
X039832Y001026D01*
X039832Y001333D01*
X039986Y001486D01*
X040139Y001486D01*
X040293Y001333D01*
X040293Y001026D01*
X040139Y000873D01*
X039372Y001026D02*
X039372Y001333D01*
X039525Y001486D01*
X039679Y001793D02*
X040139Y001793D01*
X040293Y001947D01*
X040139Y002100D01*
X040293Y002254D01*
X040139Y002407D01*
X039679Y002407D01*
X039679Y002714D02*
X039679Y002868D01*
X040293Y002868D01*
X040293Y003021D02*
X040293Y002714D01*
X040139Y003481D02*
X039525Y003481D01*
X039679Y003328D02*
X039679Y003635D01*
X039832Y003942D02*
X040139Y003942D01*
X040293Y004095D01*
X040293Y004556D01*
X040293Y004862D02*
X039372Y004862D01*
X039679Y005016D02*
X039679Y005323D01*
X039832Y005476D01*
X040293Y005476D01*
X040293Y005873D02*
X039679Y005873D01*
X039372Y006179D01*
X039679Y006486D01*
X040293Y006486D01*
X040293Y006793D02*
X039679Y006793D01*
X039679Y006947D01*
X039832Y007100D01*
X039679Y007254D01*
X039832Y007407D01*
X040293Y007407D01*
X040293Y007100D02*
X039832Y007100D01*
X039832Y006486D02*
X039832Y005873D01*
X039679Y005016D02*
X039832Y004862D01*
X039679Y004556D02*
X039679Y004095D01*
X039832Y003942D01*
X040139Y003481D02*
X040293Y003635D01*
X039372Y002868D02*
X039218Y002868D01*
X038293Y003021D02*
X038139Y002868D01*
X037525Y002868D01*
X037679Y002714D02*
X037679Y003021D01*
X037832Y003328D02*
X037679Y003481D01*
X037679Y003788D01*
X037832Y003942D01*
X038139Y003942D01*
X038293Y003788D01*
X038293Y003481D01*
X038139Y003328D01*
X037832Y003328D01*
X037679Y004249D02*
X038293Y004249D01*
X037986Y004249D02*
X037679Y004556D01*
X037679Y004709D01*
X037986Y005373D02*
X037986Y005833D01*
X037832Y005986D01*
X037525Y005986D01*
X037372Y005833D01*
X037372Y005373D01*
X038293Y005373D01*
X038293Y006293D02*
X038293Y006600D01*
X038293Y006447D02*
X037372Y006447D01*
X037372Y006600D02*
X037372Y006293D01*
X037525Y006907D02*
X038139Y006907D01*
X038293Y007061D01*
X038293Y007368D01*
X038139Y007521D01*
X037525Y007521D02*
X037372Y007368D01*
X037372Y007061D01*
X037525Y006907D01*
X039679Y007714D02*
X039679Y008174D01*
X039832Y008328D01*
X040139Y008328D01*
X040293Y008174D01*
X040293Y007714D01*
X040599Y007714D02*
X039679Y007714D01*
X039372Y008635D02*
X039372Y008788D01*
X040293Y008788D01*
X040293Y008635D02*
X040293Y008942D01*
X040293Y009249D02*
X040293Y009556D01*
X040293Y009402D02*
X039679Y009402D01*
X039679Y009249D01*
X039372Y009402D02*
X039218Y009402D01*
X039832Y009862D02*
X039832Y010169D01*
X039525Y010016D02*
X039372Y010169D01*
X039525Y010016D02*
X040293Y010016D01*
X040293Y010476D02*
X040293Y010783D01*
X040293Y010630D02*
X039679Y010630D01*
X039679Y010476D01*
X039372Y010630D02*
X039218Y010630D01*
X039832Y011090D02*
X039679Y011244D01*
X039679Y011550D01*
X039832Y011704D01*
X039986Y011704D01*
X039986Y011090D01*
X040139Y011090D02*
X039832Y011090D01*
X040139Y011090D02*
X040293Y011244D01*
X040293Y011550D01*
X040293Y012011D02*
X039679Y012011D01*
X039986Y012011D02*
X039679Y012318D01*
X039679Y012471D01*
X039986Y012373D02*
X039986Y012833D01*
X039832Y012986D01*
X039525Y012986D01*
X039372Y012833D01*
X039372Y012373D01*
X040293Y012373D01*
X039986Y012679D02*
X040293Y012986D01*
X040139Y013293D02*
X039832Y013293D01*
X039679Y013447D01*
X039679Y013754D01*
X039832Y013907D01*
X039986Y013907D01*
X039986Y013293D01*
X040139Y013293D02*
X040293Y013447D01*
X040293Y013754D01*
X040139Y014214D02*
X039832Y014214D01*
X039679Y014368D01*
X039679Y014828D01*
X040446Y014828D01*
X040599Y014674D01*
X040599Y014521D01*
X040293Y014368D02*
X040139Y014214D01*
X040293Y014368D02*
X040293Y014828D01*
X040139Y015135D02*
X039679Y015135D01*
X040139Y015135D02*
X040293Y015288D01*
X040293Y015749D01*
X039679Y015749D01*
X039372Y016056D02*
X039372Y016209D01*
X040293Y016209D01*
X040293Y016056D02*
X040293Y016362D01*
X040139Y016669D02*
X039986Y016823D01*
X039986Y017283D01*
X039832Y017283D02*
X040293Y017283D01*
X040293Y016823D01*
X040139Y016669D01*
X039679Y016823D02*
X039679Y017130D01*
X039832Y017283D01*
X039679Y017590D02*
X039679Y017897D01*
X039525Y017744D02*
X040139Y017744D01*
X040293Y017897D01*
X040139Y018204D02*
X039832Y018204D01*
X039679Y018357D01*
X039679Y018664D01*
X039832Y018818D01*
X040139Y018818D01*
X040293Y018664D01*
X040293Y018357D01*
X040139Y018204D01*
X040293Y019123D02*
X040293Y019429D01*
X040293Y019276D02*
X039372Y019276D01*
X039372Y019123D02*
X039372Y019429D01*
X039679Y019432D02*
X039986Y019125D01*
X040293Y019125D02*
X039679Y019125D01*
X039679Y019432D02*
X039679Y019585D01*
X039525Y019736D02*
X039372Y019890D01*
X039372Y020197D01*
X039525Y020350D01*
X039525Y019736D02*
X040139Y019736D01*
X040293Y019890D01*
X040293Y020197D01*
X040139Y020350D01*
X041372Y019674D02*
X041372Y019214D01*
X042293Y019214D01*
X042293Y019674D01*
X042139Y019828D01*
X041525Y019828D01*
X041372Y019674D01*
X041525Y018907D02*
X041372Y018754D01*
X041372Y018447D01*
X041525Y018293D01*
X042139Y018293D01*
X042293Y018447D01*
X042293Y018754D01*
X042139Y018907D01*
X042293Y017986D02*
X042293Y017373D01*
X041372Y017373D01*
X041372Y016090D02*
X041372Y015476D01*
X041372Y015169D02*
X041372Y014556D01*
X042293Y014556D01*
X042293Y015169D01*
X041832Y014862D02*
X041832Y014556D01*
X041372Y014249D02*
X041372Y013635D01*
X042293Y013635D01*
X042139Y013328D02*
X042293Y013174D01*
X042293Y012868D01*
X042139Y012714D01*
X042139Y012407D02*
X041525Y012407D01*
X041372Y012254D01*
X041372Y011947D01*
X041525Y011793D01*
X042139Y011793D01*
X042293Y011947D01*
X042293Y012254D01*
X042139Y012407D01*
X041679Y012714D02*
X041832Y012868D01*
X041832Y013174D01*
X041986Y013328D01*
X042139Y013328D01*
X041832Y013635D02*
X041832Y013942D01*
X041525Y013328D02*
X041372Y013174D01*
X041372Y012868D01*
X041525Y012714D01*
X041679Y012714D01*
X041372Y011486D02*
X042293Y011486D01*
X041679Y011179D02*
X041372Y011486D01*
X041679Y011179D02*
X041372Y010873D01*
X042293Y010873D01*
X042293Y010704D02*
X042293Y010244D01*
X042139Y010090D01*
X041986Y010244D01*
X041986Y010704D01*
X041832Y010704D02*
X042293Y010704D01*
X041832Y010704D02*
X041679Y010551D01*
X041679Y010244D01*
X041832Y009783D02*
X042293Y009783D01*
X041832Y009783D02*
X041679Y009630D01*
X041679Y009169D01*
X042293Y009169D01*
X042293Y008862D02*
X041832Y008862D01*
X041679Y008709D01*
X041679Y008249D01*
X042293Y008249D01*
X041986Y007942D02*
X041986Y007328D01*
X042139Y007328D02*
X041832Y007328D01*
X041679Y007481D01*
X041679Y007788D01*
X041832Y007942D01*
X041986Y007942D01*
X042293Y007788D02*
X042293Y007481D01*
X042139Y007328D01*
X042293Y007021D02*
X042139Y006868D01*
X041525Y006868D01*
X041679Y006714D02*
X041679Y007021D01*
X041832Y006407D02*
X042293Y006407D01*
X041832Y006407D02*
X041679Y006254D01*
X041679Y005793D01*
X042293Y005793D01*
X042293Y005486D02*
X041679Y005486D01*
X041372Y005179D01*
X041679Y004873D01*
X042293Y004873D01*
X042293Y004556D02*
X041679Y004556D01*
X041679Y004862D02*
X041679Y005016D01*
X041679Y004862D02*
X041986Y004556D01*
X041986Y004249D02*
X041832Y004249D01*
X041679Y004095D01*
X041679Y003788D01*
X041832Y003635D01*
X042139Y003635D01*
X042293Y003788D01*
X042293Y004095D01*
X041986Y004249D02*
X041986Y003635D01*
X042293Y003328D02*
X042139Y003174D01*
X041525Y003174D01*
X041679Y003021D02*
X041679Y003328D01*
X042293Y002714D02*
X042293Y002407D01*
X042293Y002561D02*
X041372Y002561D01*
X041372Y002407D01*
X041372Y001947D02*
X041218Y001947D01*
X041679Y001947D02*
X042293Y001947D01*
X042293Y002100D02*
X042293Y001793D01*
X041679Y001793D02*
X041679Y001947D01*
X041372Y001486D02*
X041372Y000873D01*
X042293Y000873D01*
X041832Y000873D02*
X041832Y001179D01*
X043372Y001333D02*
X043372Y000873D01*
X044293Y000873D01*
X044293Y001333D01*
X044139Y001486D01*
X043986Y001486D01*
X043832Y001333D01*
X043832Y000873D01*
X043832Y001333D02*
X043679Y001486D01*
X043525Y001486D01*
X043372Y001333D01*
X043679Y001947D02*
X043679Y002254D01*
X043832Y002407D01*
X044293Y002407D01*
X044293Y001947D01*
X044139Y001793D01*
X043986Y001947D01*
X043986Y002407D01*
X043679Y002714D02*
X043679Y003021D01*
X043525Y002868D02*
X044139Y002868D01*
X044293Y003021D01*
X044139Y003481D02*
X044293Y003635D01*
X044139Y003481D02*
X043525Y003481D01*
X043679Y003328D02*
X043679Y003635D01*
X043832Y003942D02*
X043679Y004095D01*
X043679Y004402D01*
X043832Y004556D01*
X043986Y004556D01*
X043986Y003942D01*
X044139Y003942D02*
X043832Y003942D01*
X044139Y003942D02*
X044293Y004095D01*
X044293Y004402D01*
X044293Y004862D02*
X043679Y004862D01*
X043986Y004862D02*
X043679Y005169D01*
X043679Y005323D01*
X043679Y005630D02*
X044139Y005630D01*
X044293Y005783D01*
X044293Y006244D01*
X044446Y006244D02*
X044599Y006090D01*
X044599Y005937D01*
X044446Y006244D02*
X043679Y006244D01*
X043679Y006373D02*
X043832Y006526D01*
X043832Y006833D01*
X043986Y006986D01*
X044139Y006986D01*
X044293Y006833D01*
X044293Y006526D01*
X044139Y006373D01*
X043679Y006373D02*
X043525Y006373D01*
X043372Y006526D01*
X043372Y006833D01*
X043525Y006986D01*
X043679Y007293D02*
X043679Y007754D01*
X043832Y007907D01*
X044139Y007907D01*
X044293Y007754D01*
X044293Y007293D01*
X044599Y007293D02*
X043679Y007293D01*
X043832Y008214D02*
X043679Y008368D01*
X043679Y008674D01*
X043832Y008828D01*
X043986Y008828D01*
X043986Y008214D01*
X044139Y008214D02*
X043832Y008214D01*
X044139Y008214D02*
X044293Y008368D01*
X044293Y008674D01*
X044139Y009135D02*
X043986Y009288D01*
X043986Y009749D01*
X043832Y009749D02*
X044293Y009749D01*
X044293Y009288D01*
X044139Y009135D01*
X043679Y009288D02*
X043679Y009595D01*
X043832Y009749D01*
X043986Y010056D02*
X043679Y010516D01*
X043832Y010823D02*
X043679Y010976D01*
X043679Y011283D01*
X043832Y011437D01*
X043986Y011437D01*
X043986Y010823D01*
X044139Y010823D02*
X043832Y010823D01*
X044139Y010823D02*
X044293Y010976D01*
X044293Y011283D01*
X044293Y011744D02*
X043679Y011744D01*
X043679Y012051D02*
X043679Y012204D01*
X043679Y012051D02*
X043986Y011744D01*
X043986Y012873D02*
X043986Y013333D01*
X043832Y013486D01*
X043525Y013486D01*
X043372Y013333D01*
X043372Y012873D01*
X044293Y012873D01*
X044139Y013793D02*
X044293Y013947D01*
X044293Y014254D01*
X044139Y014407D01*
X043832Y014407D01*
X043679Y014254D01*
X043679Y013947D01*
X043832Y013793D01*
X044139Y013793D01*
X043679Y014714D02*
X043679Y015021D01*
X043525Y014868D02*
X044139Y014868D01*
X044293Y015021D01*
X044139Y015328D02*
X043832Y015328D01*
X043679Y015481D01*
X043679Y015788D01*
X043832Y015942D01*
X043986Y015942D01*
X043986Y015328D01*
X044139Y015328D02*
X044293Y015481D01*
X044293Y015788D01*
X044293Y016249D02*
X043679Y016249D01*
X043679Y016709D01*
X043832Y016862D01*
X044293Y016862D01*
X044139Y017323D02*
X043525Y017323D01*
X043679Y017169D02*
X043679Y017476D01*
X043679Y017783D02*
X043679Y017937D01*
X044293Y017937D01*
X044293Y018090D02*
X044293Y017783D01*
X044293Y017476D02*
X044139Y017323D01*
X043372Y017937D02*
X043218Y017937D01*
X043679Y018550D02*
X043832Y018397D01*
X044139Y018397D01*
X044293Y018550D01*
X044293Y018857D01*
X044139Y019011D01*
X043832Y019011D01*
X043679Y018857D01*
X043679Y018550D01*
X043679Y019318D02*
X043679Y019471D01*
X043832Y019625D01*
X043679Y019778D01*
X043832Y019932D01*
X044293Y019932D01*
X044293Y019625D02*
X043832Y019625D01*
X043679Y019318D02*
X044293Y019318D01*
X044139Y020239D02*
X043832Y020239D01*
X043679Y020392D01*
X043679Y020699D01*
X043832Y020852D01*
X043986Y020852D01*
X043986Y020239D01*
X044139Y020239D02*
X044293Y020392D01*
X044293Y020699D01*
X044139Y021313D02*
X043525Y021313D01*
X043679Y021159D02*
X043679Y021466D01*
X043832Y021773D02*
X043679Y021927D01*
X043679Y022233D01*
X043832Y022387D01*
X043986Y022387D01*
X043986Y021773D01*
X044139Y021773D02*
X043832Y021773D01*
X044139Y021773D02*
X044293Y021927D01*
X044293Y022233D01*
X044293Y022694D02*
X043679Y022694D01*
X043832Y022873D02*
X043832Y023179D01*
X043679Y023154D02*
X043679Y023001D01*
X043986Y022694D01*
X044293Y022873D02*
X043372Y022873D01*
X043372Y023486D01*
X043679Y023793D02*
X044139Y023793D01*
X044293Y023947D01*
X044293Y024407D01*
X043679Y024407D01*
X043832Y024714D02*
X043679Y024868D01*
X043679Y025328D01*
X043832Y025635D02*
X043679Y025788D01*
X043679Y026095D01*
X043832Y026249D01*
X043986Y026249D01*
X043986Y025635D01*
X044139Y025635D02*
X043832Y025635D01*
X044139Y025635D02*
X044293Y025788D01*
X044293Y026095D01*
X044139Y025328D02*
X043986Y025174D01*
X043986Y024868D01*
X043832Y024714D01*
X044293Y024714D02*
X044293Y025174D01*
X044139Y025328D01*
X042293Y025209D02*
X042139Y025056D01*
X041986Y025209D01*
X041986Y025669D01*
X041832Y025669D02*
X042293Y025669D01*
X042293Y025209D01*
X041679Y025209D02*
X041679Y025516D01*
X041832Y025669D01*
X041832Y025976D02*
X041679Y026130D01*
X041679Y026590D01*
X041372Y026590D02*
X042293Y026590D01*
X042293Y026130D01*
X042139Y025976D01*
X041832Y025976D01*
X040293Y025976D02*
X039679Y025976D01*
X039986Y025976D02*
X039679Y026283D01*
X039679Y026437D01*
X039832Y025669D02*
X039986Y025669D01*
X039986Y025056D01*
X040139Y025056D02*
X039832Y025056D01*
X039679Y025209D01*
X039679Y025516D01*
X039832Y025669D01*
X040293Y025516D02*
X040293Y025209D01*
X040139Y025056D01*
X040293Y024749D02*
X040293Y024288D01*
X040139Y024135D01*
X039832Y024135D01*
X039679Y024288D01*
X039679Y024749D01*
X039372Y024749D02*
X040293Y024749D01*
X040293Y023828D02*
X039832Y023828D01*
X039679Y023674D01*
X039679Y023368D01*
X039986Y023368D02*
X039986Y023828D01*
X040293Y023828D02*
X040293Y023368D01*
X040139Y023214D01*
X039986Y023368D01*
X039986Y022907D02*
X039986Y022293D01*
X040139Y022293D02*
X039832Y022293D01*
X039679Y022447D01*
X039679Y022754D01*
X039832Y022907D01*
X039986Y022907D01*
X040293Y022754D02*
X040293Y022447D01*
X040139Y022293D01*
X040293Y021986D02*
X039372Y021986D01*
X039832Y021986D02*
X039832Y021373D01*
X039372Y021373D02*
X040293Y021373D01*
X041372Y021373D02*
X042293Y021373D01*
X041986Y021373D02*
X041372Y021986D01*
X041832Y022293D02*
X041679Y022447D01*
X041679Y022754D01*
X041832Y022907D01*
X041986Y022907D01*
X041986Y022293D01*
X042139Y022293D02*
X041832Y022293D01*
X042139Y022293D02*
X042293Y022447D01*
X042293Y022754D01*
X042139Y023214D02*
X041679Y023214D01*
X042139Y023214D02*
X042293Y023368D01*
X042293Y023828D01*
X042446Y023828D02*
X042599Y023674D01*
X042599Y023521D01*
X042446Y023828D02*
X041679Y023828D01*
X041679Y024135D02*
X041679Y024595D01*
X041832Y024749D01*
X042139Y024749D01*
X042293Y024595D01*
X042293Y024135D01*
X042599Y024135D02*
X041679Y024135D01*
X042293Y021986D02*
X041832Y021526D01*
X044139Y021313D02*
X044293Y021466D01*
X038293Y021481D02*
X037679Y021481D01*
X037679Y021942D01*
X037832Y022095D01*
X038293Y022095D01*
X038293Y022402D02*
X038293Y022862D01*
X038139Y023016D01*
X037986Y022862D01*
X037986Y022556D01*
X037832Y022402D01*
X037679Y022556D01*
X037679Y023016D01*
X037832Y023323D02*
X037832Y023630D01*
X037832Y023937D02*
X037679Y024090D01*
X037679Y024397D01*
X037832Y024551D01*
X038139Y024551D01*
X038293Y024397D01*
X038293Y024090D01*
X038139Y023937D01*
X037832Y023937D01*
X037525Y023476D02*
X037372Y023630D01*
X037525Y023476D02*
X038293Y023476D01*
X038293Y024857D02*
X037679Y024857D01*
X037986Y024857D02*
X037679Y025164D01*
X037679Y025318D01*
X037679Y025625D02*
X037679Y025778D01*
X037832Y025932D01*
X037679Y026085D01*
X037832Y026239D01*
X038293Y026239D01*
X038293Y025932D02*
X037832Y025932D01*
X037679Y025625D02*
X038293Y025625D01*
X038139Y026545D02*
X037832Y026545D01*
X037679Y026699D01*
X037679Y027006D01*
X037832Y027159D01*
X037986Y027159D01*
X037986Y026545D01*
X038139Y026545D02*
X038293Y026699D01*
X038293Y027006D01*
X038526Y027373D02*
X038833Y027373D01*
X038986Y027526D01*
X039293Y027526D02*
X039447Y027373D01*
X039907Y027373D01*
X039907Y027833D01*
X039754Y027986D01*
X039447Y027986D01*
X039447Y027679D02*
X039907Y027679D01*
X040214Y027373D02*
X040674Y027373D01*
X040828Y027526D01*
X040828Y027833D01*
X040674Y027986D01*
X040214Y027986D01*
X040214Y027066D01*
X039447Y027679D02*
X039293Y027526D01*
X038986Y028140D02*
X038833Y028293D01*
X038526Y028293D01*
X038373Y028140D01*
X038373Y027526D01*
X038526Y027373D01*
X038293Y027466D02*
X037679Y027466D01*
X037986Y027466D02*
X037679Y027773D01*
X037679Y027927D01*
X037664Y027986D02*
X037511Y027986D01*
X037204Y027679D01*
X037204Y027373D02*
X037204Y027986D01*
X036897Y027833D02*
X036744Y027986D01*
X036437Y027986D01*
X036283Y027833D01*
X036283Y027526D01*
X036437Y027373D01*
X036744Y027373D01*
X036897Y027526D01*
X036897Y027833D01*
X035976Y027986D02*
X035669Y027986D01*
X035823Y028140D02*
X035823Y027526D01*
X035976Y027373D01*
X035362Y027373D02*
X034902Y027373D01*
X034749Y027526D01*
X034749Y027833D01*
X034902Y027986D01*
X035362Y027986D01*
X034442Y027986D02*
X034442Y027373D01*
X033981Y027373D01*
X033828Y027526D01*
X033828Y027986D01*
X033521Y027986D02*
X033061Y027986D01*
X032907Y027833D01*
X032907Y027526D01*
X033061Y027373D01*
X033521Y027373D01*
X033521Y028293D01*
X032600Y027833D02*
X032600Y027373D01*
X031986Y027373D02*
X031986Y027986D01*
X032447Y027986D01*
X032600Y027833D01*
X031679Y028293D02*
X031373Y028293D01*
X031526Y028293D02*
X031526Y027373D01*
X031373Y027373D02*
X031679Y027373D01*
X029328Y027373D02*
X029021Y027679D01*
X029174Y027679D02*
X028714Y027679D01*
X028714Y027373D02*
X028714Y028293D01*
X029174Y028293D01*
X029328Y028140D01*
X029328Y027833D01*
X029174Y027679D01*
X028407Y027679D02*
X028407Y028293D01*
X027793Y028293D02*
X027793Y027679D01*
X028100Y027373D01*
X028407Y027679D01*
X027486Y027833D02*
X026873Y027833D01*
X026873Y027986D02*
X027179Y028293D01*
X027486Y027986D01*
X027486Y027373D01*
X026873Y027373D02*
X026873Y027986D01*
X026873Y029373D02*
X027333Y029373D01*
X027486Y029526D01*
X027486Y030140D01*
X027333Y030293D01*
X026873Y030293D01*
X026873Y029373D01*
X027793Y029373D02*
X028100Y029373D01*
X027947Y029373D02*
X027947Y029986D01*
X027793Y029986D01*
X027947Y030293D02*
X027947Y030447D01*
X028561Y029986D02*
X028407Y029833D01*
X028407Y029526D01*
X028561Y029373D01*
X028868Y029373D01*
X029021Y029526D01*
X029021Y029833D01*
X028868Y029986D01*
X028561Y029986D01*
X029328Y029833D02*
X029328Y029526D01*
X029481Y029373D01*
X029942Y029373D01*
X029942Y030293D01*
X029942Y029986D02*
X029481Y029986D01*
X029328Y029833D01*
X030249Y029833D02*
X030249Y029526D01*
X030402Y029373D01*
X030709Y029373D01*
X030862Y029679D02*
X030249Y029679D01*
X030249Y029833D02*
X030402Y029986D01*
X030709Y029986D01*
X030862Y029833D01*
X030862Y029679D01*
X031873Y029373D02*
X031873Y030293D01*
X032179Y029986D01*
X032486Y030293D01*
X032486Y029373D01*
X032793Y029373D02*
X033100Y029373D01*
X032947Y029373D02*
X032947Y029986D01*
X032793Y029986D01*
X032947Y030293D02*
X032947Y030447D01*
X033561Y029986D02*
X033407Y029833D01*
X033407Y029526D01*
X033561Y029373D01*
X034021Y029373D01*
X034328Y029373D02*
X034328Y029986D01*
X034328Y029679D02*
X034635Y029986D01*
X034788Y029986D01*
X035095Y029833D02*
X035095Y029526D01*
X035249Y029373D01*
X035556Y029373D01*
X035709Y029526D01*
X035709Y029833D01*
X035556Y029986D01*
X035249Y029986D01*
X035095Y029833D01*
X036016Y029833D02*
X036016Y029526D01*
X036169Y029373D01*
X036630Y029373D01*
X036937Y029526D02*
X037090Y029373D01*
X037397Y029373D01*
X037551Y029526D01*
X037551Y029833D01*
X037397Y029986D01*
X037090Y029986D01*
X036937Y029833D01*
X036937Y029526D01*
X036630Y029986D02*
X036169Y029986D01*
X036016Y029833D01*
X036174Y031373D02*
X035714Y031373D01*
X035561Y031526D01*
X035714Y031679D01*
X036174Y031679D01*
X036174Y031833D02*
X036174Y031373D01*
X036481Y031373D02*
X036481Y031986D01*
X036942Y031986D01*
X037095Y031833D01*
X037095Y031373D01*
X037402Y031373D02*
X037862Y031373D01*
X038016Y031526D01*
X037862Y031679D01*
X037556Y031679D01*
X037402Y031833D01*
X037556Y031986D01*
X038016Y031986D01*
X038323Y031986D02*
X038476Y031986D01*
X038476Y031373D01*
X038323Y031373D02*
X038630Y031373D01*
X038937Y031373D02*
X039397Y031373D01*
X039551Y031526D01*
X039397Y031679D01*
X039090Y031679D01*
X038937Y031833D01*
X039090Y031986D01*
X039551Y031986D01*
X039857Y031986D02*
X040164Y031986D01*
X040011Y032140D02*
X040011Y031526D01*
X040164Y031373D01*
X040471Y031526D02*
X040625Y031373D01*
X040932Y031373D01*
X041085Y031526D01*
X041085Y031833D01*
X040932Y031986D01*
X040625Y031986D01*
X040471Y031833D01*
X040471Y031526D01*
X041392Y031373D02*
X041392Y031986D01*
X041392Y031679D02*
X041699Y031986D01*
X041852Y031986D01*
X041873Y032293D02*
X041873Y031373D01*
X042486Y031373D01*
X042793Y031373D02*
X043407Y031373D01*
X043714Y031373D02*
X044174Y031373D01*
X044328Y031526D01*
X044328Y032140D01*
X044174Y032293D01*
X043714Y032293D01*
X043714Y031373D01*
X043100Y031833D02*
X042793Y031833D01*
X042793Y032293D02*
X042793Y031373D01*
X042947Y030447D02*
X042947Y030293D01*
X042947Y029986D02*
X042947Y029373D01*
X043100Y029373D02*
X042793Y029373D01*
X042768Y029373D02*
X042461Y029373D01*
X042308Y029526D01*
X042308Y029833D01*
X042461Y029986D01*
X042768Y029986D01*
X042921Y029833D01*
X042921Y029679D01*
X042308Y029679D01*
X042179Y029679D02*
X042486Y029373D01*
X042486Y030293D01*
X042793Y029986D02*
X042947Y029986D01*
X043228Y029986D02*
X043228Y029373D01*
X043407Y029373D02*
X043407Y029986D01*
X043535Y029986D02*
X043689Y029986D01*
X043714Y029986D02*
X043407Y029679D01*
X043228Y029679D02*
X043535Y029986D01*
X043714Y029986D02*
X043868Y029986D01*
X044174Y029833D02*
X044174Y029526D01*
X044328Y029373D01*
X044635Y029373D01*
X044788Y029679D02*
X044174Y029679D01*
X044174Y029833D02*
X044328Y029986D01*
X044635Y029986D01*
X044788Y029833D01*
X044788Y029679D01*
X043744Y028140D02*
X043744Y027526D01*
X043897Y027373D01*
X044204Y027526D02*
X044357Y027373D01*
X044664Y027373D01*
X044818Y027526D01*
X044818Y027833D01*
X044664Y027986D01*
X044357Y027986D01*
X044204Y027833D01*
X044204Y027526D01*
X043897Y027986D02*
X043590Y027986D01*
X043130Y027986D02*
X043130Y027373D01*
X043283Y027373D02*
X042976Y027373D01*
X042669Y027373D02*
X042209Y027373D01*
X042056Y027526D01*
X042056Y027833D01*
X042209Y027986D01*
X042669Y027986D01*
X042976Y027986D02*
X043130Y027986D01*
X043130Y028293D02*
X043130Y028447D01*
X042001Y029373D02*
X041694Y029373D01*
X041847Y029373D02*
X041847Y030293D01*
X041694Y030293D01*
X041873Y030293D02*
X041873Y029373D01*
X042179Y029679D01*
X041387Y029373D02*
X041080Y029373D01*
X041233Y029373D02*
X041233Y030293D01*
X041080Y030293D01*
X040773Y029833D02*
X040620Y029986D01*
X040313Y029986D01*
X040159Y029833D01*
X040159Y029526D01*
X040313Y029373D01*
X040620Y029373D01*
X040773Y029526D01*
X040773Y029833D01*
X039852Y029986D02*
X039699Y029986D01*
X039392Y029679D01*
X039392Y029373D02*
X039392Y029986D01*
X039085Y029986D02*
X038778Y029986D01*
X038932Y030140D02*
X038932Y029526D01*
X039085Y029373D01*
X038471Y029373D02*
X038471Y029833D01*
X038318Y029986D01*
X037857Y029986D01*
X037857Y029373D01*
X034793Y031373D02*
X034793Y031986D01*
X034793Y031679D02*
X035100Y031986D01*
X035254Y031986D01*
X035714Y031986D02*
X036021Y031986D01*
X036174Y031833D01*
X034486Y032293D02*
X033873Y032293D01*
X034179Y032293D02*
X034179Y031373D01*
X033164Y031986D02*
X033011Y031986D01*
X032704Y031679D01*
X032704Y031373D02*
X032704Y031986D01*
X032397Y031833D02*
X032244Y031986D01*
X031937Y031986D01*
X031783Y031833D01*
X031783Y031526D01*
X031937Y031373D01*
X032244Y031373D01*
X032397Y031526D01*
X032397Y031833D01*
X031476Y031986D02*
X031169Y031986D01*
X031323Y032140D02*
X031323Y031526D01*
X031476Y031373D01*
X030862Y031526D02*
X030709Y031373D01*
X030249Y031373D01*
X029942Y031373D02*
X029635Y031373D01*
X029788Y031373D02*
X029788Y031986D01*
X029635Y031986D01*
X029328Y031986D02*
X028868Y031986D01*
X028714Y031833D01*
X028868Y031679D01*
X029174Y031679D01*
X029328Y031526D01*
X029174Y031373D01*
X028714Y031373D01*
X028407Y031679D02*
X027793Y031679D01*
X027793Y031526D02*
X027793Y031833D01*
X027947Y031986D01*
X028254Y031986D01*
X028407Y031833D01*
X028407Y031679D01*
X028254Y031373D02*
X027947Y031373D01*
X027793Y031526D01*
X027486Y031373D02*
X027179Y031679D01*
X027333Y031679D02*
X026873Y031679D01*
X026873Y031373D02*
X026873Y032293D01*
X027333Y032293D01*
X027486Y032140D01*
X027486Y031833D01*
X027333Y031679D01*
X029788Y032293D02*
X029788Y032447D01*
X030402Y031986D02*
X030862Y031986D01*
X030709Y031679D02*
X030402Y031679D01*
X030249Y031833D01*
X030402Y031986D01*
X030709Y031679D02*
X030862Y031526D01*
X033561Y029986D02*
X034021Y029986D01*
X038476Y032293D02*
X038476Y032447D01*
X042793Y032293D02*
X043407Y032293D01*
X045125Y027986D02*
X045125Y027373D01*
X045125Y027679D02*
X045432Y027986D01*
X045585Y027986D01*
X041749Y027833D02*
X041749Y027373D01*
X041288Y027373D01*
X041135Y027526D01*
X041288Y027679D01*
X041749Y027679D01*
X041749Y027833D02*
X041595Y027986D01*
X041288Y027986D01*
X038293Y021174D02*
X037832Y021174D01*
X037679Y021021D01*
X037679Y020714D01*
X037986Y020714D02*
X037986Y021174D01*
X038293Y021174D02*
X038293Y020714D01*
X038139Y020561D01*
X037986Y020714D01*
X037679Y020254D02*
X037679Y020100D01*
X037986Y019793D01*
X038293Y019793D02*
X037679Y019793D01*
X037372Y019486D02*
X037372Y018873D01*
X037372Y019179D02*
X038293Y019179D01*
X037986Y018694D02*
X037986Y018080D01*
X038139Y018080D02*
X037832Y018080D01*
X037679Y018234D01*
X037679Y018540D01*
X037832Y018694D01*
X037986Y018694D01*
X038293Y018540D02*
X038293Y018234D01*
X038139Y018080D01*
X038139Y017773D02*
X037832Y017773D01*
X037679Y017620D01*
X037679Y017159D01*
X037679Y016852D02*
X038293Y016852D01*
X038293Y016392D01*
X038139Y016239D01*
X037679Y016239D01*
X037372Y015932D02*
X037372Y015318D01*
X037372Y015625D02*
X038293Y015625D01*
X038293Y017159D02*
X037372Y017159D01*
X038293Y017159D02*
X038293Y017620D01*
X038139Y017773D01*
X041372Y015783D02*
X042293Y015783D01*
X038293Y014090D02*
X037832Y014090D01*
X037679Y013937D01*
X037832Y013783D01*
X038293Y013783D01*
X038293Y013476D02*
X037679Y013476D01*
X037679Y013630D01*
X037832Y013783D01*
X037679Y013169D02*
X038293Y013169D01*
X038293Y012709D01*
X038139Y012556D01*
X037679Y012556D01*
X037679Y012249D02*
X038293Y012249D01*
X038293Y011788D01*
X038139Y011635D01*
X037679Y011635D01*
X037679Y011328D02*
X037679Y010868D01*
X037832Y010714D01*
X038139Y010714D01*
X038293Y010868D01*
X038293Y011328D01*
X038293Y010407D02*
X037832Y010407D01*
X037679Y010254D01*
X037679Y009947D01*
X037986Y009947D02*
X038139Y009793D01*
X038293Y009947D01*
X038293Y010407D01*
X037986Y010407D02*
X037986Y009947D01*
X037986Y009486D02*
X037372Y009486D01*
X037986Y009486D02*
X038293Y009179D01*
X037986Y008873D01*
X037372Y008873D01*
X041832Y005486D02*
X041832Y004873D01*
X043372Y010056D02*
X044293Y010056D01*
X043986Y010056D02*
X044293Y010516D01*
D11*
X027502Y010961D03*
X027502Y008961D03*
X010961Y009163D03*
X008961Y009163D03*
X008961Y020163D03*
X010961Y020163D03*
X010961Y031163D03*
X008961Y031163D03*
D12*
X012733Y031483D03*
X013733Y031483D03*
X014733Y031483D03*
X013833Y023333D03*
X012833Y023333D03*
X011833Y023333D03*
X010833Y023333D03*
X009833Y023333D03*
X008833Y023333D03*
X007833Y023333D03*
X012733Y020483D03*
X013733Y020483D03*
X014733Y020483D03*
X013833Y012333D03*
X012833Y012333D03*
X011833Y012333D03*
X010833Y012333D03*
X009833Y012333D03*
X008833Y012333D03*
X007833Y012333D03*
X012733Y009483D03*
X013733Y009483D03*
X014733Y009483D03*
X013833Y001333D03*
X012833Y001333D03*
X011833Y001333D03*
X010833Y001333D03*
X009833Y001333D03*
X008833Y001333D03*
X007833Y001333D03*
X001633Y003433D03*
X001633Y004433D03*
X001633Y005433D03*
X001633Y006433D03*
X001633Y007433D03*
X002651Y008579D03*
X002651Y009579D03*
X001633Y014433D03*
X001633Y015433D03*
X001633Y016433D03*
X001633Y017433D03*
X001633Y018433D03*
X002651Y019579D03*
X002651Y020579D03*
X001633Y025433D03*
X001633Y026433D03*
X001633Y027433D03*
X001633Y028433D03*
X001633Y029433D03*
X002651Y030579D03*
X002651Y031579D03*
X027183Y014733D03*
X027183Y013733D03*
X027183Y012733D03*
X035333Y012833D03*
X035333Y013833D03*
X035333Y011833D03*
X035333Y010833D03*
X035333Y009833D03*
X035333Y008833D03*
X035333Y007833D03*
X028087Y002651D03*
X027087Y002651D03*
X029233Y001633D03*
X030233Y001633D03*
X031233Y001633D03*
X032233Y001633D03*
X033233Y001633D03*
D13*
X015733Y009483D03*
X027183Y015733D03*
X015733Y020483D03*
X015733Y031483D03*
D14*
X007351Y029833D03*
X006642Y029833D03*
X005934Y029833D03*
X005225Y029833D03*
X004516Y029833D03*
X004516Y018833D03*
X005225Y018833D03*
X005934Y018833D03*
X006642Y018833D03*
X007351Y018833D03*
X007351Y007833D03*
X006642Y007833D03*
X005934Y007833D03*
X005225Y007833D03*
X004516Y007833D03*
X028832Y007351D03*
X028832Y006642D03*
X028832Y005934D03*
X028832Y005225D03*
X028832Y004516D03*
D15*
X024833Y004626D02*
X017833Y004626D01*
X017833Y004388D02*
X024833Y004388D01*
X024833Y004149D02*
X017833Y004149D01*
X017833Y003911D02*
X024833Y003911D01*
X024833Y003672D02*
X017833Y003672D01*
X017833Y003434D02*
X024833Y003434D01*
X024833Y003195D02*
X017833Y003195D01*
X017833Y002957D02*
X024833Y002957D01*
X024833Y002718D02*
X017833Y002718D01*
X017833Y002479D02*
X024092Y002479D01*
X024179Y002503D02*
X023881Y002423D01*
X023614Y002269D01*
X023396Y002051D01*
X023242Y001784D01*
X023163Y001487D01*
X023163Y001369D01*
X022883Y001233D01*
X017833Y001233D01*
X017833Y005103D01*
X024833Y005103D01*
X024833Y004865D02*
X017833Y004865D01*
X017833Y005103D02*
X017861Y005171D01*
X017861Y005322D01*
X017833Y005391D01*
X017833Y009733D01*
X022933Y009733D01*
X023179Y009616D01*
X023242Y009381D01*
X023396Y009114D01*
X023614Y008896D01*
X023881Y008742D01*
X024179Y008663D01*
X024487Y008663D01*
X024784Y008742D01*
X024833Y008770D01*
X024833Y002395D01*
X024784Y002423D01*
X024487Y002503D01*
X024179Y002503D01*
X024573Y002479D02*
X024833Y002479D01*
X023586Y002241D02*
X017833Y002241D01*
X017833Y002002D02*
X023368Y002002D01*
X023237Y001764D02*
X017833Y001764D01*
X017833Y001525D02*
X023173Y001525D01*
X022994Y001287D02*
X017833Y001287D01*
X017853Y005342D02*
X024833Y005342D01*
X024833Y005581D02*
X017833Y005581D01*
X017833Y005819D02*
X024833Y005819D01*
X024833Y006058D02*
X017833Y006058D01*
X017833Y006296D02*
X024833Y006296D01*
X024833Y006535D02*
X017833Y006535D01*
X017833Y006773D02*
X024833Y006773D01*
X024833Y007012D02*
X017833Y007012D01*
X017833Y007250D02*
X024833Y007250D01*
X024833Y007489D02*
X017833Y007489D01*
X017833Y007727D02*
X024833Y007727D01*
X024833Y007966D02*
X017833Y007966D01*
X017833Y008205D02*
X024833Y008205D01*
X024833Y008443D02*
X017833Y008443D01*
X017833Y008682D02*
X024108Y008682D01*
X024558Y008682D02*
X024833Y008682D01*
X023590Y008920D02*
X017833Y008920D01*
X017833Y009159D02*
X023371Y009159D01*
X023238Y009397D02*
X017833Y009397D01*
X017833Y009636D02*
X023137Y009636D01*
X022883Y012233D02*
X017833Y012233D01*
X017833Y016103D01*
X017861Y016171D01*
X017861Y016322D01*
X017833Y016391D01*
X017833Y020733D01*
X022933Y020733D01*
X023179Y020616D01*
X023242Y020381D01*
X023396Y020114D01*
X023614Y019896D01*
X023881Y019742D01*
X024179Y019663D01*
X024487Y019663D01*
X024784Y019742D01*
X024833Y019770D01*
X024833Y013395D01*
X024784Y013423D01*
X024487Y013503D01*
X024179Y013503D01*
X023881Y013423D01*
X023614Y013269D01*
X023396Y013051D01*
X023242Y012784D01*
X023163Y012487D01*
X023163Y012369D01*
X022883Y012233D01*
X022938Y012260D02*
X017833Y012260D01*
X017833Y012498D02*
X023166Y012498D01*
X023230Y012737D02*
X017833Y012737D01*
X017833Y012975D02*
X023353Y012975D01*
X023559Y013214D02*
X017833Y013214D01*
X017833Y013452D02*
X023992Y013452D01*
X024674Y013452D02*
X024833Y013452D01*
X024833Y013691D02*
X017833Y013691D01*
X017833Y013930D02*
X024833Y013930D01*
X024833Y014168D02*
X017833Y014168D01*
X017833Y014407D02*
X024833Y014407D01*
X024833Y014645D02*
X017833Y014645D01*
X017833Y014884D02*
X024833Y014884D01*
X024833Y015122D02*
X017833Y015122D01*
X017833Y015361D02*
X024833Y015361D01*
X024833Y015599D02*
X017833Y015599D01*
X017833Y015838D02*
X024833Y015838D01*
X024833Y016076D02*
X017833Y016076D01*
X017861Y016315D02*
X024833Y016315D01*
X024833Y016554D02*
X017833Y016554D01*
X017833Y016792D02*
X024833Y016792D01*
X024833Y017031D02*
X017833Y017031D01*
X017833Y017269D02*
X024833Y017269D01*
X024833Y017508D02*
X017833Y017508D01*
X017833Y017746D02*
X024833Y017746D01*
X024833Y017985D02*
X017833Y017985D01*
X017833Y018223D02*
X024833Y018223D01*
X024833Y018462D02*
X017833Y018462D01*
X017833Y018700D02*
X024833Y018700D01*
X024833Y018939D02*
X017833Y018939D01*
X017833Y019178D02*
X024833Y019178D01*
X024833Y019416D02*
X017833Y019416D01*
X017833Y019655D02*
X024833Y019655D01*
X023620Y019893D02*
X017833Y019893D01*
X017833Y020132D02*
X023386Y020132D01*
X023249Y020370D02*
X017833Y020370D01*
X017833Y020609D02*
X023181Y020609D01*
X022883Y023233D02*
X017833Y023233D01*
X022883Y023233D01*
X023163Y023369D01*
X023163Y023487D01*
X023242Y023784D01*
X023396Y024051D01*
X023614Y024269D01*
X023881Y024423D01*
X024179Y024503D01*
X024487Y024503D01*
X024784Y024423D01*
X024833Y024395D01*
X024833Y030770D01*
X024784Y030742D01*
X024487Y030663D01*
X024179Y030663D01*
X023881Y030742D01*
X023614Y030896D01*
X023396Y031114D01*
X023242Y031381D01*
X023179Y031616D01*
X022933Y031733D01*
X017833Y031733D01*
X017833Y027391D01*
X017861Y027322D01*
X017861Y027171D01*
X017833Y027103D01*
X017833Y023233D01*
X017833Y023471D02*
X023163Y023471D01*
X023222Y023710D02*
X017833Y023710D01*
X017833Y023948D02*
X023337Y023948D01*
X023532Y024187D02*
X017833Y024187D01*
X017833Y024425D02*
X023891Y024425D01*
X024774Y024425D02*
X024833Y024425D01*
X024833Y024664D02*
X017833Y024664D01*
X017833Y024903D02*
X024833Y024903D01*
X024833Y025141D02*
X017833Y025141D01*
X017833Y025380D02*
X024833Y025380D01*
X024833Y025618D02*
X017833Y025618D01*
X017833Y025857D02*
X024833Y025857D01*
X024833Y026095D02*
X017833Y026095D01*
X017833Y026334D02*
X024833Y026334D01*
X024833Y026572D02*
X017833Y026572D01*
X017833Y026811D02*
X024833Y026811D01*
X024833Y027049D02*
X017833Y027049D01*
X017861Y027288D02*
X024833Y027288D01*
X024833Y027527D02*
X017833Y027527D01*
X017833Y027765D02*
X024833Y027765D01*
X024833Y028004D02*
X017833Y028004D01*
X017833Y028242D02*
X024833Y028242D01*
X024833Y028481D02*
X017833Y028481D01*
X017833Y028719D02*
X024833Y028719D01*
X024833Y028958D02*
X017833Y028958D01*
X017833Y029196D02*
X024833Y029196D01*
X024833Y029435D02*
X017833Y029435D01*
X017833Y029673D02*
X024833Y029673D01*
X024833Y029912D02*
X017833Y029912D01*
X017833Y030151D02*
X024833Y030151D01*
X024833Y030389D02*
X017833Y030389D01*
X017833Y030628D02*
X024833Y030628D01*
X023666Y030866D02*
X017833Y030866D01*
X017833Y031105D02*
X023406Y031105D01*
X023264Y031343D02*
X017833Y031343D01*
X017833Y031582D02*
X023189Y031582D01*
X027895Y024833D02*
X034270Y024833D01*
X034242Y024784D01*
X034163Y024487D01*
X034163Y024179D01*
X034242Y023881D01*
X034396Y023614D01*
X034614Y023396D01*
X034881Y023242D01*
X035179Y023163D01*
X035296Y023163D01*
X035433Y022883D01*
X035433Y017833D01*
X031563Y017833D01*
X031494Y017861D01*
X031343Y017861D01*
X031274Y017833D01*
X026933Y017833D01*
X026933Y022933D01*
X027050Y023179D01*
X027284Y023242D01*
X027551Y023396D01*
X027769Y023614D01*
X027923Y023881D01*
X028003Y024179D01*
X028003Y024487D01*
X027923Y024784D01*
X027895Y024833D01*
X027955Y024664D02*
X034210Y024664D01*
X034163Y024425D02*
X028003Y024425D01*
X028003Y024187D02*
X034163Y024187D01*
X034224Y023948D02*
X027941Y023948D01*
X027824Y023710D02*
X034341Y023710D01*
X034539Y023471D02*
X027626Y023471D01*
X027248Y023233D02*
X034917Y023233D01*
X035378Y022994D02*
X026962Y022994D01*
X026933Y022756D02*
X035433Y022756D01*
X035433Y022517D02*
X026933Y022517D01*
X026933Y022279D02*
X035433Y022279D01*
X035433Y022040D02*
X026933Y022040D01*
X026933Y021801D02*
X035433Y021801D01*
X035433Y021563D02*
X026933Y021563D01*
X026933Y021324D02*
X035433Y021324D01*
X035433Y021086D02*
X026933Y021086D01*
X026933Y020847D02*
X035433Y020847D01*
X035433Y020609D02*
X026933Y020609D01*
X026933Y020370D02*
X035433Y020370D01*
X035433Y020132D02*
X026933Y020132D01*
X026933Y019893D02*
X035433Y019893D01*
X035433Y019655D02*
X026933Y019655D01*
X026933Y019416D02*
X035433Y019416D01*
X035433Y019178D02*
X026933Y019178D01*
X026933Y018939D02*
X035433Y018939D01*
X035433Y018700D02*
X026933Y018700D01*
X026933Y018462D02*
X035433Y018462D01*
X035433Y018223D02*
X026933Y018223D01*
X026933Y017985D02*
X035433Y017985D01*
D16*
X033833Y017333D03*
X031418Y017481D03*
X028333Y017333D03*
X029533Y013533D03*
X031330Y012342D03*
X032083Y012333D03*
X031833Y013083D03*
X031433Y013533D03*
X017333Y013833D03*
X017481Y016247D03*
X017333Y019333D03*
X013533Y018133D03*
X013533Y016233D03*
X013083Y015833D03*
X012333Y015583D03*
X012342Y016335D03*
X017333Y008333D03*
X013533Y007133D03*
X012342Y005335D03*
X013083Y004833D03*
X013533Y005233D03*
X012333Y004583D03*
X017481Y005247D03*
X017333Y002833D03*
X017333Y024833D03*
X017481Y027247D03*
X017333Y030333D03*
X013533Y029133D03*
X013533Y027233D03*
X013083Y026833D03*
X012333Y026583D03*
X012342Y027335D03*
D17*
X002257Y000908D02*
X002185Y000782D01*
X009128Y000782D01*
X008982Y000929D01*
X008918Y000903D01*
X008747Y000903D01*
X008589Y000968D01*
X008468Y001089D01*
X008403Y001247D01*
X008403Y001418D01*
X008429Y001482D01*
X007386Y002524D01*
X007271Y002524D01*
X007158Y002571D01*
X007071Y002658D01*
X007024Y002771D01*
X007024Y002894D01*
X007071Y003007D01*
X007158Y003094D01*
X007271Y003141D01*
X007394Y003141D01*
X007507Y003094D01*
X007594Y003007D01*
X007641Y002894D01*
X007641Y002779D01*
X008683Y001736D01*
X008747Y001763D01*
X008918Y001763D01*
X009076Y001697D01*
X009197Y001576D01*
X009263Y001418D01*
X009263Y001247D01*
X009236Y001183D01*
X009429Y000991D01*
X009566Y000991D01*
X009468Y001089D01*
X009403Y001247D01*
X009403Y001418D01*
X009468Y001576D01*
X009589Y001697D01*
X009653Y001723D01*
X009653Y002407D01*
X009758Y002513D01*
X010453Y003208D01*
X010453Y004437D01*
X010372Y004519D01*
X010325Y004632D01*
X010325Y004755D01*
X010372Y004868D01*
X010420Y004916D01*
X007150Y004916D01*
X006513Y004279D01*
X006513Y004258D01*
X006407Y004153D01*
X005507Y003253D01*
X005358Y003253D01*
X002023Y003253D01*
X001997Y003189D01*
X001876Y003068D01*
X001718Y003003D01*
X001547Y003003D01*
X001389Y003068D01*
X001268Y003189D01*
X001203Y003347D01*
X001203Y003518D01*
X001268Y003676D01*
X001389Y003797D01*
X001547Y003863D01*
X001718Y003863D01*
X001876Y003797D01*
X001997Y003676D01*
X002023Y003613D01*
X005358Y003613D01*
X006153Y004407D01*
X006153Y004428D01*
X006878Y005153D01*
X006407Y005153D01*
X005507Y004253D01*
X005358Y004253D01*
X002023Y004253D01*
X001997Y004189D01*
X001876Y004068D01*
X001718Y004003D01*
X001547Y004003D01*
X001389Y004068D01*
X001268Y004189D01*
X001203Y004347D01*
X001203Y004518D01*
X001268Y004676D01*
X001389Y004797D01*
X001547Y004863D01*
X001718Y004863D01*
X001876Y004797D01*
X001997Y004676D01*
X002023Y004613D01*
X005116Y004613D01*
X005071Y004658D01*
X005024Y004771D01*
X005024Y004894D01*
X005071Y005007D01*
X005153Y005089D01*
X005153Y006576D01*
X005071Y006658D01*
X005024Y006771D01*
X005024Y006894D01*
X005071Y007007D01*
X005158Y007094D01*
X005271Y007141D01*
X005394Y007141D01*
X005507Y007094D01*
X005589Y007013D01*
X009258Y007013D01*
X009524Y007279D01*
X009524Y007394D01*
X009571Y007507D01*
X009658Y007594D01*
X009771Y007641D01*
X009894Y007641D01*
X010007Y007594D01*
X010094Y007507D01*
X010141Y007394D01*
X010141Y007271D01*
X010094Y007158D01*
X010007Y007071D01*
X009894Y007024D01*
X009779Y007024D01*
X009407Y006653D01*
X009258Y006653D01*
X005589Y006653D01*
X005513Y006576D01*
X005513Y005089D01*
X005594Y005007D01*
X005641Y004895D01*
X006153Y005407D01*
X006258Y005513D01*
X011406Y005513D01*
X012184Y006393D01*
X012179Y006404D01*
X012179Y006527D01*
X012226Y006640D01*
X012313Y006727D01*
X012426Y006774D01*
X012549Y006774D01*
X012662Y006727D01*
X012749Y006640D01*
X012796Y006527D01*
X012796Y006404D01*
X012749Y006291D01*
X012662Y006204D01*
X012565Y006164D01*
X012576Y006159D01*
X012663Y006072D01*
X012710Y005959D01*
X012710Y005836D01*
X012663Y005723D01*
X012576Y005636D01*
X012501Y005605D01*
X012518Y005598D01*
X012605Y005511D01*
X012652Y005397D01*
X012652Y005273D01*
X012605Y005159D01*
X012518Y005072D01*
X012404Y005025D01*
X012287Y005025D01*
X012106Y004844D01*
X012106Y004795D01*
X012157Y004845D01*
X012271Y004893D01*
X012394Y004893D01*
X012508Y004845D01*
X012595Y004758D01*
X012643Y004644D01*
X012643Y004521D01*
X012595Y004407D01*
X012513Y004324D01*
X012513Y003407D01*
X012903Y003017D01*
X012903Y003157D01*
X012903Y004574D01*
X012820Y004657D01*
X012773Y004771D01*
X012773Y004894D01*
X012820Y005008D01*
X012907Y005095D01*
X012909Y005096D01*
X012951Y006775D01*
X012944Y006784D01*
X012953Y006848D01*
X012955Y006912D01*
X012963Y006920D01*
X012965Y006932D01*
X013016Y006970D01*
X013063Y007014D01*
X013075Y007014D01*
X013223Y007125D01*
X013223Y007194D01*
X013270Y007308D01*
X013333Y007371D01*
X013333Y009325D01*
X013303Y009397D01*
X013303Y009568D01*
X013333Y009640D01*
X013333Y010380D01*
X002187Y010381D01*
X002258Y010257D01*
X002333Y009977D01*
X002333Y009897D01*
X002396Y009960D01*
X002562Y010029D01*
X002601Y010029D01*
X002601Y009629D01*
X002701Y009629D01*
X002701Y010029D01*
X002741Y010029D01*
X002906Y009960D01*
X003033Y009834D01*
X003101Y009668D01*
X003101Y009629D01*
X002701Y009629D01*
X002701Y009529D01*
X003101Y009529D01*
X003101Y009489D01*
X003033Y009324D01*
X002906Y009197D01*
X002741Y009129D01*
X002701Y009129D01*
X002701Y009528D01*
X002601Y009528D01*
X002601Y009129D01*
X002562Y009129D01*
X002396Y009197D01*
X002270Y009324D01*
X002245Y009384D01*
X002114Y009157D01*
X001909Y008952D01*
X001658Y008808D01*
X001378Y008733D01*
X001089Y008733D01*
X000809Y008808D01*
X000783Y008823D01*
X000783Y002343D01*
X000808Y002358D01*
X001088Y002433D01*
X001377Y002433D01*
X001657Y002358D01*
X001908Y002213D01*
X002113Y002008D01*
X007903Y002008D01*
X008001Y001909D02*
X002170Y001909D01*
X002226Y001811D02*
X008100Y001811D01*
X008087Y001714D02*
X007922Y001783D01*
X007883Y001783D01*
X007883Y001383D01*
X007783Y001383D01*
X007783Y001783D01*
X007743Y001783D01*
X007578Y001714D01*
X007451Y001587D01*
X007383Y001422D01*
X007383Y001383D01*
X007782Y001383D01*
X007782Y001283D01*
X007383Y001283D01*
X007383Y001243D01*
X007451Y001078D01*
X007578Y000951D01*
X007743Y000883D01*
X007783Y000883D01*
X007783Y001282D01*
X007883Y001282D01*
X007883Y000883D01*
X007922Y000883D01*
X008087Y000951D01*
X008214Y001078D01*
X008283Y001243D01*
X008283Y001283D01*
X007883Y001283D01*
X007883Y001383D01*
X008283Y001383D01*
X008283Y001422D01*
X008214Y001587D01*
X008087Y001714D01*
X008089Y001712D02*
X008198Y001712D01*
X008188Y001614D02*
X008297Y001614D01*
X008244Y001515D02*
X008396Y001515D01*
X008403Y001417D02*
X008283Y001417D01*
X008403Y001318D02*
X007883Y001318D01*
X007833Y001333D02*
X002833Y001333D01*
X000833Y003333D01*
X000833Y004933D01*
X001333Y005433D01*
X001633Y005433D01*
X001683Y005457D02*
X005153Y005457D01*
X005153Y005555D02*
X002069Y005555D01*
X002083Y005522D02*
X002014Y005687D01*
X001887Y005814D01*
X001722Y005883D01*
X001683Y005883D01*
X001683Y005483D01*
X002083Y005483D01*
X002083Y005522D01*
X002083Y005383D02*
X001683Y005383D01*
X001683Y005483D01*
X001583Y005483D01*
X001583Y005883D01*
X001543Y005883D01*
X001378Y005814D01*
X001251Y005687D01*
X001183Y005522D01*
X001183Y005483D01*
X001582Y005483D01*
X001582Y005383D01*
X001183Y005383D01*
X001183Y005343D01*
X001251Y005178D01*
X001378Y005051D01*
X001543Y004983D01*
X001583Y004983D01*
X001583Y005382D01*
X001683Y005382D01*
X001683Y004983D01*
X001722Y004983D01*
X001887Y005051D01*
X002014Y005178D01*
X002083Y005343D01*
X002083Y005383D01*
X002083Y005358D02*
X005153Y005358D01*
X005153Y005260D02*
X002048Y005260D01*
X001998Y005161D02*
X005153Y005161D01*
X005127Y005063D02*
X001899Y005063D01*
X001683Y005063D02*
X001583Y005063D01*
X001583Y005161D02*
X001683Y005161D01*
X001683Y005260D02*
X001583Y005260D01*
X001583Y005358D02*
X001683Y005358D01*
X001582Y005457D02*
X000783Y005457D01*
X000783Y005555D02*
X001196Y005555D01*
X001237Y005654D02*
X000783Y005654D01*
X000783Y005752D02*
X001316Y005752D01*
X001467Y005851D02*
X000783Y005851D01*
X000833Y005833D02*
X000833Y007760D01*
X002651Y009579D01*
X002701Y009596D02*
X008737Y009596D01*
X008769Y009628D02*
X008496Y009355D01*
X008496Y009193D01*
X008931Y009193D01*
X008931Y009628D01*
X008769Y009628D01*
X008931Y009596D02*
X008991Y009596D01*
X008991Y009628D02*
X009154Y009628D01*
X009426Y009355D01*
X009426Y009193D01*
X008991Y009193D01*
X008931Y009193D01*
X008931Y009133D01*
X008496Y009133D01*
X008496Y008970D01*
X008769Y008698D01*
X008931Y008698D01*
X008931Y009132D01*
X008991Y009132D01*
X008991Y008698D01*
X009154Y008698D01*
X009426Y008970D01*
X009426Y009133D01*
X008991Y009133D01*
X008991Y009193D01*
X008991Y009628D01*
X008991Y009497D02*
X008931Y009497D01*
X008931Y009399D02*
X008991Y009399D01*
X008991Y009300D02*
X008931Y009300D01*
X008931Y009201D02*
X008991Y009201D01*
X008991Y009103D02*
X008931Y009103D01*
X008931Y009004D02*
X008991Y009004D01*
X008991Y008906D02*
X008931Y008906D01*
X008931Y008807D02*
X008991Y008807D01*
X008991Y008709D02*
X008931Y008709D01*
X008757Y008709D02*
X003063Y008709D01*
X003081Y008664D02*
X003016Y008822D01*
X002895Y008943D01*
X002737Y009009D01*
X002566Y009009D01*
X002408Y008943D01*
X002287Y008822D01*
X002221Y008664D01*
X002221Y008493D01*
X002287Y008335D01*
X002408Y008214D01*
X002566Y008149D01*
X002737Y008149D01*
X002895Y008214D01*
X003016Y008335D01*
X003081Y008493D01*
X003081Y008664D01*
X003081Y008610D02*
X013333Y008610D01*
X013333Y008512D02*
X003081Y008512D01*
X003048Y008413D02*
X013333Y008413D01*
X013333Y008315D02*
X002995Y008315D01*
X002897Y008216D02*
X004296Y008216D01*
X004340Y008260D02*
X004090Y008010D01*
X004090Y007656D01*
X004340Y007406D01*
X004693Y007406D01*
X004871Y007584D01*
X005048Y007406D01*
X005402Y007406D01*
X005565Y007570D01*
X005749Y007386D01*
X005885Y007386D01*
X005885Y007784D01*
X005982Y007784D01*
X005982Y007386D01*
X006119Y007386D01*
X006302Y007570D01*
X006466Y007406D01*
X006819Y007406D01*
X006997Y007584D01*
X007174Y007406D01*
X007528Y007406D01*
X007778Y007656D01*
X007778Y008010D01*
X007528Y008260D01*
X007174Y008260D01*
X006997Y008082D01*
X006819Y008260D01*
X006466Y008260D01*
X006302Y008096D01*
X006119Y008280D01*
X005982Y008280D01*
X005982Y007882D01*
X005885Y007882D01*
X005885Y008280D01*
X005749Y008280D01*
X005565Y008096D01*
X005402Y008260D01*
X005048Y008260D01*
X004871Y008082D01*
X004693Y008260D01*
X004340Y008260D01*
X004197Y008118D02*
X000783Y008118D01*
X000783Y008216D02*
X002406Y008216D01*
X002307Y008315D02*
X000783Y008315D01*
X000783Y008413D02*
X002254Y008413D01*
X002221Y008512D02*
X000783Y008512D01*
X000783Y008610D02*
X002221Y008610D01*
X002240Y008709D02*
X000783Y008709D01*
X000783Y008807D02*
X000810Y008807D01*
X000783Y008019D02*
X004099Y008019D01*
X004090Y007920D02*
X000783Y007920D01*
X000783Y007822D02*
X001449Y007822D01*
X001389Y007797D02*
X001268Y007676D01*
X001203Y007518D01*
X001203Y007347D01*
X001268Y007189D01*
X001389Y007068D01*
X001547Y007003D01*
X001718Y007003D01*
X001876Y007068D01*
X001997Y007189D01*
X002063Y007347D01*
X002063Y007518D01*
X001997Y007676D01*
X001876Y007797D01*
X001718Y007863D01*
X001547Y007863D01*
X001389Y007797D01*
X001315Y007723D02*
X000783Y007723D01*
X000783Y007625D02*
X001247Y007625D01*
X001206Y007526D02*
X000783Y007526D01*
X000783Y007428D02*
X001203Y007428D01*
X001210Y007329D02*
X000783Y007329D01*
X000783Y007231D02*
X001251Y007231D01*
X001325Y007132D02*
X000783Y007132D01*
X000783Y007034D02*
X001472Y007034D01*
X001547Y006863D02*
X001389Y006797D01*
X001268Y006676D01*
X001203Y006518D01*
X001203Y006347D01*
X001268Y006189D01*
X001389Y006068D01*
X001547Y006003D01*
X001718Y006003D01*
X001876Y006068D01*
X001997Y006189D01*
X002063Y006347D01*
X002063Y006518D01*
X001997Y006676D01*
X001876Y006797D01*
X001718Y006863D01*
X001547Y006863D01*
X001484Y006836D02*
X000783Y006836D01*
X000783Y006738D02*
X001330Y006738D01*
X001253Y006639D02*
X000783Y006639D01*
X000783Y006541D02*
X001212Y006541D01*
X001203Y006442D02*
X000783Y006442D01*
X000783Y006344D02*
X001204Y006344D01*
X001245Y006245D02*
X000783Y006245D01*
X000783Y006147D02*
X001310Y006147D01*
X001437Y006048D02*
X000783Y006048D01*
X000783Y005950D02*
X005153Y005950D01*
X005153Y006048D02*
X001828Y006048D01*
X001955Y006147D02*
X005153Y006147D01*
X005153Y006245D02*
X002020Y006245D01*
X002061Y006344D02*
X005153Y006344D01*
X005153Y006442D02*
X002063Y006442D01*
X002053Y006541D02*
X005153Y006541D01*
X005090Y006639D02*
X002012Y006639D01*
X001935Y006738D02*
X005038Y006738D01*
X005024Y006836D02*
X001781Y006836D01*
X001793Y007034D02*
X005097Y007034D01*
X005041Y006935D02*
X000783Y006935D01*
X000833Y005833D02*
X001233Y005433D01*
X001333Y005433D01*
X001183Y005358D02*
X000783Y005358D01*
X000783Y005260D02*
X001217Y005260D01*
X001268Y005161D02*
X000783Y005161D01*
X000783Y005063D02*
X001366Y005063D01*
X001359Y004767D02*
X000783Y004767D01*
X000783Y004669D02*
X001265Y004669D01*
X001224Y004570D02*
X000783Y004570D01*
X000783Y004471D02*
X001203Y004471D01*
X001203Y004373D02*
X000783Y004373D01*
X000783Y004274D02*
X001233Y004274D01*
X001281Y004176D02*
X000783Y004176D01*
X000783Y004077D02*
X001380Y004077D01*
X001374Y003782D02*
X000783Y003782D01*
X000783Y003880D02*
X005626Y003880D01*
X005724Y003979D02*
X000783Y003979D01*
X000783Y003683D02*
X001275Y003683D01*
X001230Y003585D02*
X000783Y003585D01*
X000783Y003486D02*
X001203Y003486D01*
X001203Y003387D02*
X000783Y003387D01*
X000783Y003289D02*
X001227Y003289D01*
X001267Y003190D02*
X000783Y003190D01*
X000783Y003092D02*
X001365Y003092D01*
X001633Y003433D02*
X005433Y003433D01*
X006333Y004333D01*
X006333Y004353D01*
X007076Y005096D01*
X011600Y005096D01*
X012402Y005898D01*
X012675Y005752D02*
X012926Y005752D01*
X012923Y005654D02*
X012594Y005654D01*
X012560Y005555D02*
X012921Y005555D01*
X012918Y005457D02*
X012627Y005457D01*
X012652Y005358D02*
X012916Y005358D01*
X012913Y005260D02*
X012646Y005260D01*
X012606Y005161D02*
X012911Y005161D01*
X012874Y005063D02*
X012495Y005063D01*
X012459Y004866D02*
X012773Y004866D01*
X012774Y004767D02*
X012586Y004767D01*
X012633Y004669D02*
X012815Y004669D01*
X012903Y004570D02*
X012643Y004570D01*
X012622Y004471D02*
X012903Y004471D01*
X012903Y004373D02*
X012561Y004373D01*
X012513Y004274D02*
X012903Y004274D01*
X012903Y004176D02*
X012513Y004176D01*
X012513Y004077D02*
X012903Y004077D01*
X012903Y003979D02*
X012513Y003979D01*
X012513Y003880D02*
X012903Y003880D01*
X012903Y003782D02*
X012513Y003782D01*
X012513Y003683D02*
X012903Y003683D01*
X012903Y003585D02*
X012513Y003585D01*
X012513Y003486D02*
X012903Y003486D01*
X012903Y003387D02*
X012532Y003387D01*
X012631Y003289D02*
X012903Y003289D01*
X012903Y003190D02*
X012729Y003190D01*
X012828Y003092D02*
X012903Y003092D01*
X013083Y003083D02*
X013333Y002833D01*
X013333Y001082D01*
X013061Y000811D01*
X009354Y000811D01*
X008833Y001333D01*
X007333Y002833D01*
X007055Y002698D02*
X000783Y002698D01*
X000783Y002796D02*
X007024Y002796D01*
X007025Y002895D02*
X000783Y002895D01*
X000783Y002993D02*
X007065Y002993D01*
X007156Y003092D02*
X001900Y003092D01*
X001998Y003190D02*
X010436Y003190D01*
X010453Y003289D02*
X005543Y003289D01*
X005642Y003387D02*
X010453Y003387D01*
X010453Y003486D02*
X005741Y003486D01*
X005839Y003585D02*
X010453Y003585D01*
X010453Y003683D02*
X005938Y003683D01*
X006036Y003782D02*
X010453Y003782D01*
X010453Y003880D02*
X006135Y003880D01*
X006233Y003979D02*
X010453Y003979D01*
X010453Y004077D02*
X006332Y004077D01*
X006430Y004176D02*
X010453Y004176D01*
X010453Y004274D02*
X006513Y004274D01*
X006607Y004373D02*
X010453Y004373D01*
X010419Y004471D02*
X006705Y004471D01*
X006804Y004570D02*
X010351Y004570D01*
X010325Y004669D02*
X006903Y004669D01*
X007001Y004767D02*
X010330Y004767D01*
X010371Y004866D02*
X007100Y004866D01*
X006788Y005063D02*
X006317Y005063D01*
X006219Y004964D02*
X006689Y004964D01*
X006591Y004866D02*
X006120Y004866D01*
X006022Y004767D02*
X006492Y004767D01*
X006394Y004669D02*
X005923Y004669D01*
X005824Y004570D02*
X006295Y004570D01*
X006196Y004471D02*
X005726Y004471D01*
X005627Y004373D02*
X006118Y004373D01*
X006020Y004274D02*
X005529Y004274D01*
X005433Y004433D02*
X006333Y005333D01*
X011487Y005333D01*
X012488Y006466D01*
X012771Y006344D02*
X012940Y006344D01*
X012943Y006442D02*
X012796Y006442D01*
X012790Y006541D02*
X012945Y006541D01*
X012948Y006639D02*
X012750Y006639D01*
X012636Y006738D02*
X012950Y006738D01*
X012951Y006836D02*
X009591Y006836D01*
X009492Y006738D02*
X012339Y006738D01*
X012226Y006639D02*
X005576Y006639D01*
X005513Y006541D02*
X012185Y006541D01*
X012179Y006442D02*
X005513Y006442D01*
X005513Y006344D02*
X012140Y006344D01*
X012053Y006245D02*
X005513Y006245D01*
X005513Y006147D02*
X011966Y006147D01*
X011879Y006048D02*
X005513Y006048D01*
X005513Y005950D02*
X011792Y005950D01*
X011705Y005851D02*
X005513Y005851D01*
X005513Y005752D02*
X011618Y005752D01*
X011531Y005654D02*
X005513Y005654D01*
X005513Y005555D02*
X011444Y005555D01*
X012226Y004964D02*
X012802Y004964D01*
X013083Y004833D02*
X013083Y003083D01*
X012833Y002833D02*
X012333Y003333D01*
X012333Y004583D01*
X012206Y004866D02*
X012127Y004866D01*
X011926Y004919D02*
X011926Y001426D01*
X011833Y001333D01*
X012833Y001333D02*
X012833Y002833D01*
X013533Y003133D02*
X013833Y002833D01*
X013833Y001333D01*
X013533Y003133D02*
X013533Y005233D01*
X013083Y004833D02*
X013133Y006833D01*
X013533Y007133D01*
X013223Y007132D02*
X010068Y007132D01*
X010124Y007231D02*
X013238Y007231D01*
X013291Y007329D02*
X010141Y007329D01*
X010127Y007428D02*
X013333Y007428D01*
X013333Y007526D02*
X010075Y007526D01*
X009933Y007625D02*
X013333Y007625D01*
X013333Y007723D02*
X007778Y007723D01*
X007778Y007822D02*
X013333Y007822D01*
X013333Y007920D02*
X007778Y007920D01*
X007769Y008019D02*
X013333Y008019D01*
X013333Y008118D02*
X007670Y008118D01*
X007572Y008216D02*
X013333Y008216D01*
X013333Y008709D02*
X009165Y008709D01*
X009263Y008807D02*
X010687Y008807D01*
X010777Y008718D02*
X011145Y008718D01*
X011406Y008978D01*
X011406Y009347D01*
X011145Y009608D01*
X010777Y009608D01*
X010516Y009347D01*
X010516Y008978D01*
X010777Y008718D01*
X010589Y008906D02*
X009362Y008906D01*
X009426Y009004D02*
X010516Y009004D01*
X010516Y009103D02*
X009426Y009103D01*
X009426Y009201D02*
X010516Y009201D01*
X010516Y009300D02*
X009426Y009300D01*
X009383Y009399D02*
X010568Y009399D01*
X010666Y009497D02*
X009284Y009497D01*
X009186Y009596D02*
X010765Y009596D01*
X011157Y009596D02*
X012292Y009596D01*
X012283Y009572D02*
X012351Y009737D01*
X012478Y009864D01*
X012643Y009933D01*
X012683Y009933D01*
X012683Y009533D01*
X012783Y009533D01*
X012783Y009933D01*
X012822Y009933D01*
X012987Y009864D01*
X013114Y009737D01*
X013183Y009572D01*
X013183Y009533D01*
X012783Y009533D01*
X012783Y009433D01*
X013183Y009433D01*
X013183Y009393D01*
X013114Y009228D01*
X012987Y009101D01*
X012822Y009033D01*
X012783Y009033D01*
X012783Y009432D01*
X012683Y009432D01*
X012683Y009033D01*
X012643Y009033D01*
X012478Y009101D01*
X012351Y009228D01*
X012283Y009393D01*
X012283Y009433D01*
X012682Y009433D01*
X012682Y009533D01*
X012283Y009533D01*
X012283Y009572D01*
X012333Y009694D02*
X003090Y009694D01*
X003049Y009793D02*
X012406Y009793D01*
X012543Y009891D02*
X002975Y009891D01*
X002834Y009990D02*
X013333Y009990D01*
X013333Y010088D02*
X002304Y010088D01*
X002330Y009990D02*
X002468Y009990D01*
X002601Y009990D02*
X002701Y009990D01*
X002701Y009891D02*
X002601Y009891D01*
X002601Y009793D02*
X002701Y009793D01*
X002701Y009694D02*
X002601Y009694D01*
X002601Y009497D02*
X002701Y009497D01*
X002701Y009399D02*
X002601Y009399D01*
X002601Y009300D02*
X002701Y009300D01*
X002701Y009201D02*
X002601Y009201D01*
X002555Y009004D02*
X001961Y009004D01*
X002059Y009103D02*
X008496Y009103D01*
X008496Y009201D02*
X002910Y009201D01*
X003009Y009300D02*
X008496Y009300D01*
X008539Y009399D02*
X003064Y009399D01*
X003101Y009497D02*
X008638Y009497D01*
X008496Y009004D02*
X002747Y009004D01*
X002932Y008906D02*
X008560Y008906D01*
X008659Y008807D02*
X003022Y008807D01*
X002370Y008906D02*
X001828Y008906D01*
X001657Y008807D02*
X002280Y008807D01*
X002392Y009201D02*
X002139Y009201D01*
X002196Y009300D02*
X002293Y009300D01*
X002277Y010187D02*
X013333Y010187D01*
X013333Y010285D02*
X002242Y010285D01*
X002185Y011782D02*
X002257Y011908D01*
X002332Y012188D01*
X002332Y012477D01*
X002257Y012757D01*
X002113Y013008D01*
X001908Y013213D01*
X001657Y013358D01*
X001377Y013433D01*
X001088Y013433D01*
X000808Y013358D01*
X000783Y013343D01*
X000783Y019823D01*
X000809Y019808D01*
X001089Y019733D01*
X001378Y019733D01*
X001658Y019808D01*
X001909Y019952D01*
X002114Y020157D01*
X002245Y020384D01*
X002270Y020324D01*
X002396Y020197D01*
X002562Y020129D01*
X002601Y020129D01*
X002601Y020528D01*
X002701Y020528D01*
X002701Y020129D01*
X002741Y020129D01*
X002906Y020197D01*
X003033Y020324D01*
X003101Y020489D01*
X003101Y020529D01*
X002701Y020529D01*
X002701Y020629D01*
X002601Y020629D01*
X002601Y021029D01*
X002562Y021029D01*
X002396Y020960D01*
X002333Y020897D01*
X002333Y020977D01*
X002258Y021257D01*
X002187Y021381D01*
X013333Y021380D01*
X013333Y020640D01*
X013303Y020568D01*
X013303Y020397D01*
X013333Y020325D01*
X013333Y018371D01*
X013270Y018308D01*
X013223Y018194D01*
X013223Y018125D01*
X013075Y018014D01*
X013063Y018014D01*
X013016Y017970D01*
X012965Y017932D01*
X012963Y017920D01*
X012955Y017912D01*
X012953Y017848D01*
X012944Y017784D01*
X012951Y017775D01*
X009529Y017775D01*
X009431Y017676D02*
X012262Y017676D01*
X012226Y017640D02*
X012179Y017527D01*
X012179Y017404D01*
X012184Y017393D01*
X011406Y016513D01*
X006258Y016513D01*
X006153Y016407D01*
X005641Y015895D01*
X005594Y016007D01*
X005513Y016089D01*
X005513Y017576D01*
X005589Y017653D01*
X009258Y017653D01*
X009407Y017653D01*
X009779Y018024D01*
X009894Y018024D01*
X010007Y018071D01*
X010094Y018158D01*
X010141Y018271D01*
X010141Y018394D01*
X010094Y018507D01*
X010007Y018594D01*
X009894Y018641D01*
X009771Y018641D01*
X009658Y018594D01*
X009571Y018507D01*
X009524Y018394D01*
X009524Y018279D01*
X009258Y018013D01*
X005589Y018013D01*
X005507Y018094D01*
X005394Y018141D01*
X005271Y018141D01*
X005158Y018094D01*
X005071Y018007D01*
X005024Y017894D01*
X005024Y017771D01*
X005071Y017658D01*
X005153Y017576D01*
X005153Y016089D01*
X005071Y016007D01*
X005024Y015894D01*
X005024Y015771D01*
X005071Y015658D01*
X005116Y015613D01*
X002023Y015613D01*
X001997Y015676D01*
X001876Y015797D01*
X001718Y015863D01*
X001547Y015863D01*
X001389Y015797D01*
X001268Y015676D01*
X001203Y015518D01*
X001203Y015347D01*
X001268Y015189D01*
X001389Y015068D01*
X001547Y015003D01*
X001718Y015003D01*
X001876Y015068D01*
X001997Y015189D01*
X002023Y015253D01*
X005358Y015253D01*
X005507Y015253D01*
X006407Y016153D01*
X006878Y016153D01*
X006153Y015428D01*
X006153Y015407D01*
X005358Y014613D01*
X002023Y014613D01*
X001997Y014676D01*
X001876Y014797D01*
X001718Y014863D01*
X001547Y014863D01*
X001389Y014797D01*
X001268Y014676D01*
X001203Y014518D01*
X001203Y014347D01*
X001268Y014189D01*
X001389Y014068D01*
X001547Y014003D01*
X001718Y014003D01*
X001876Y014068D01*
X001997Y014189D01*
X002023Y014253D01*
X005358Y014253D01*
X005507Y014253D01*
X006407Y015153D01*
X006513Y015258D01*
X006513Y015279D01*
X007150Y015916D01*
X010420Y015916D01*
X010372Y015868D01*
X010325Y015755D01*
X010325Y015632D01*
X010372Y015519D01*
X010453Y015437D01*
X010453Y014208D01*
X009758Y013513D01*
X009653Y013407D01*
X009653Y012723D01*
X009589Y012697D01*
X009468Y012576D01*
X009403Y012418D01*
X009403Y012247D01*
X009468Y012089D01*
X009566Y011991D01*
X009429Y011991D01*
X009236Y012183D01*
X009263Y012247D01*
X009263Y012418D01*
X009197Y012576D01*
X009076Y012697D01*
X008918Y012763D01*
X008747Y012763D01*
X008683Y012736D01*
X007641Y013779D01*
X007641Y013894D01*
X007594Y014007D01*
X007507Y014094D01*
X007394Y014141D01*
X007271Y014141D01*
X007158Y014094D01*
X007071Y014007D01*
X007024Y013894D01*
X007024Y013771D01*
X007071Y013658D01*
X007158Y013571D01*
X007271Y013524D01*
X007386Y013524D01*
X008429Y012482D01*
X008403Y012418D01*
X008403Y012247D01*
X008468Y012089D01*
X008589Y011968D01*
X008747Y011903D01*
X008918Y011903D01*
X008982Y011929D01*
X009128Y011782D01*
X002185Y011782D01*
X002231Y011862D02*
X009049Y011862D01*
X009354Y011811D02*
X008833Y012333D01*
X007333Y013833D01*
X007641Y013833D02*
X010079Y013833D01*
X010177Y013932D02*
X007625Y013932D01*
X007571Y014030D02*
X010276Y014030D01*
X010374Y014129D02*
X007424Y014129D01*
X007241Y014129D02*
X001937Y014129D01*
X002013Y014227D02*
X010453Y014227D01*
X010453Y014326D02*
X005580Y014326D01*
X005679Y014424D02*
X010453Y014424D01*
X010453Y014523D02*
X005777Y014523D01*
X005876Y014621D02*
X010453Y014621D01*
X010453Y014720D02*
X005974Y014720D01*
X006073Y014818D02*
X010453Y014818D01*
X010453Y014917D02*
X006172Y014917D01*
X006270Y015016D02*
X010453Y015016D01*
X010453Y015114D02*
X006369Y015114D01*
X006467Y015213D02*
X010453Y015213D01*
X010453Y015311D02*
X006545Y015311D01*
X006644Y015410D02*
X010453Y015410D01*
X010382Y015508D02*
X006742Y015508D01*
X006841Y015607D02*
X010335Y015607D01*
X010325Y015705D02*
X006939Y015705D01*
X007038Y015804D02*
X010345Y015804D01*
X010406Y015902D02*
X007136Y015902D01*
X007076Y016096D02*
X011600Y016096D01*
X012402Y016898D01*
X012710Y016888D02*
X012929Y016888D01*
X012931Y016986D02*
X012699Y016986D01*
X012710Y016959D02*
X012663Y017072D01*
X012576Y017159D01*
X012565Y017164D01*
X012662Y017204D01*
X012749Y017291D01*
X012796Y017404D01*
X012796Y017527D01*
X012749Y017640D01*
X012662Y017727D01*
X012549Y017774D01*
X012426Y017774D01*
X012313Y017727D01*
X012226Y017640D01*
X012200Y017578D02*
X005514Y017578D01*
X005513Y017479D02*
X012179Y017479D01*
X012172Y017381D02*
X005513Y017381D01*
X005513Y017282D02*
X012085Y017282D01*
X011998Y017184D02*
X005513Y017184D01*
X005513Y017085D02*
X011911Y017085D01*
X011824Y016986D02*
X005513Y016986D01*
X005513Y016888D02*
X011737Y016888D01*
X011650Y016789D02*
X005513Y016789D01*
X005513Y016691D02*
X011563Y016691D01*
X011476Y016592D02*
X005513Y016592D01*
X005513Y016494D02*
X006239Y016494D01*
X006141Y016395D02*
X005513Y016395D01*
X005513Y016297D02*
X006042Y016297D01*
X005944Y016198D02*
X005513Y016198D01*
X005513Y016100D02*
X005845Y016100D01*
X005746Y016001D02*
X005597Y016001D01*
X005637Y015902D02*
X005648Y015902D01*
X005333Y015833D02*
X005333Y017833D01*
X009333Y017833D01*
X009833Y018333D01*
X010112Y018465D02*
X013333Y018465D01*
X013333Y018563D02*
X010038Y018563D01*
X010141Y018366D02*
X013328Y018366D01*
X013253Y018267D02*
X010139Y018267D01*
X010099Y018169D02*
X013223Y018169D01*
X013150Y018070D02*
X010005Y018070D01*
X009726Y017972D02*
X013018Y017972D01*
X012954Y017873D02*
X009628Y017873D01*
X009414Y018169D02*
X001977Y018169D01*
X001997Y018189D02*
X001876Y018068D01*
X001718Y018003D01*
X001547Y018003D01*
X001389Y018068D01*
X001268Y018189D01*
X001203Y018347D01*
X001203Y018518D01*
X001268Y018676D01*
X001389Y018797D01*
X001547Y018863D01*
X001718Y018863D01*
X001876Y018797D01*
X001997Y018676D01*
X002063Y018518D01*
X002063Y018347D01*
X001997Y018189D01*
X002030Y018267D02*
X009513Y018267D01*
X009524Y018366D02*
X002063Y018366D01*
X002063Y018465D02*
X004281Y018465D01*
X004340Y018406D02*
X004693Y018406D01*
X004871Y018584D01*
X005048Y018406D01*
X005402Y018406D01*
X005565Y018570D01*
X005749Y018386D01*
X005885Y018386D01*
X005885Y018784D01*
X005982Y018784D01*
X005982Y018386D01*
X006119Y018386D01*
X006302Y018570D01*
X006466Y018406D01*
X006819Y018406D01*
X006997Y018584D01*
X007174Y018406D01*
X007528Y018406D01*
X007778Y018656D01*
X007778Y019010D01*
X007528Y019260D01*
X007174Y019260D01*
X006997Y019082D01*
X006819Y019260D01*
X006466Y019260D01*
X006302Y019096D01*
X006119Y019280D01*
X005982Y019280D01*
X005982Y018882D01*
X005885Y018882D01*
X005885Y019280D01*
X005749Y019280D01*
X005565Y019096D01*
X005402Y019260D01*
X005048Y019260D01*
X004871Y019082D01*
X004693Y019260D01*
X004340Y019260D01*
X004090Y019010D01*
X004090Y018656D01*
X004340Y018406D01*
X004183Y018563D02*
X002044Y018563D01*
X002003Y018662D02*
X004090Y018662D01*
X004090Y018760D02*
X001913Y018760D01*
X001727Y018859D02*
X004090Y018859D01*
X004090Y018957D02*
X000783Y018957D01*
X000783Y018859D02*
X001538Y018859D01*
X001352Y018760D02*
X000783Y018760D01*
X000833Y018760D02*
X002651Y020579D01*
X002701Y020534D02*
X008675Y020534D01*
X008769Y020628D02*
X008496Y020355D01*
X008496Y020193D01*
X008931Y020193D01*
X008931Y020628D01*
X008769Y020628D01*
X008931Y020534D02*
X008991Y020534D01*
X008991Y020628D02*
X009154Y020628D01*
X009426Y020355D01*
X009426Y020193D01*
X008991Y020193D01*
X008931Y020193D01*
X008931Y020133D01*
X008496Y020133D01*
X008496Y019970D01*
X008769Y019698D01*
X008931Y019698D01*
X008931Y020132D01*
X008991Y020132D01*
X008991Y019698D01*
X009154Y019698D01*
X009426Y019970D01*
X009426Y020133D01*
X008991Y020133D01*
X008991Y020193D01*
X008991Y020628D01*
X008991Y020435D02*
X008931Y020435D01*
X008931Y020337D02*
X008991Y020337D01*
X008991Y020238D02*
X008931Y020238D01*
X008931Y020140D02*
X002767Y020140D01*
X002701Y020140D02*
X002601Y020140D01*
X002535Y020140D02*
X002096Y020140D01*
X002160Y020238D02*
X002355Y020238D01*
X002264Y020337D02*
X002217Y020337D01*
X001998Y020041D02*
X008496Y020041D01*
X008524Y019943D02*
X002895Y019943D01*
X002737Y020009D01*
X002566Y020009D01*
X002408Y019943D01*
X002287Y019822D01*
X002221Y019664D01*
X002221Y019493D01*
X002287Y019335D01*
X002408Y019214D01*
X002566Y019149D01*
X002737Y019149D01*
X002895Y019214D01*
X003016Y019335D01*
X003081Y019493D01*
X003081Y019664D01*
X003016Y019822D01*
X002895Y019943D01*
X002994Y019844D02*
X008622Y019844D01*
X008721Y019746D02*
X003047Y019746D01*
X003081Y019647D02*
X013333Y019647D01*
X013333Y019549D02*
X003081Y019549D01*
X003063Y019450D02*
X013333Y019450D01*
X013333Y019351D02*
X003022Y019351D01*
X002933Y019253D02*
X004333Y019253D01*
X004234Y019154D02*
X002750Y019154D01*
X002552Y019154D02*
X000783Y019154D01*
X000783Y019056D02*
X004136Y019056D01*
X004700Y019253D02*
X005041Y019253D01*
X004943Y019154D02*
X004799Y019154D01*
X004850Y018563D02*
X004891Y018563D01*
X004990Y018465D02*
X004752Y018465D01*
X005134Y018070D02*
X001878Y018070D01*
X001718Y017863D02*
X001876Y017797D01*
X001997Y017676D01*
X002063Y017518D01*
X002063Y017347D01*
X001997Y017189D01*
X001876Y017068D01*
X001718Y017003D01*
X001547Y017003D01*
X001389Y017068D01*
X001268Y017189D01*
X001203Y017347D01*
X001203Y017518D01*
X001268Y017676D01*
X001389Y017797D01*
X001547Y017863D01*
X001718Y017863D01*
X001898Y017775D02*
X005024Y017775D01*
X005024Y017873D02*
X000783Y017873D01*
X000783Y017775D02*
X001367Y017775D01*
X001268Y017676D02*
X000783Y017676D01*
X000783Y017578D02*
X001227Y017578D01*
X001203Y017479D02*
X000783Y017479D01*
X000783Y017381D02*
X001203Y017381D01*
X001230Y017282D02*
X000783Y017282D01*
X000783Y017184D02*
X001274Y017184D01*
X001372Y017085D02*
X000783Y017085D01*
X000783Y016986D02*
X005153Y016986D01*
X005153Y016888D02*
X000783Y016888D01*
X000833Y016833D02*
X000833Y018760D01*
X000783Y018662D02*
X001262Y018662D01*
X001221Y018563D02*
X000783Y018563D01*
X000783Y018465D02*
X001203Y018465D01*
X001203Y018366D02*
X000783Y018366D01*
X000783Y018267D02*
X001236Y018267D01*
X001288Y018169D02*
X000783Y018169D01*
X000783Y018070D02*
X001387Y018070D01*
X001997Y017676D02*
X005064Y017676D01*
X005151Y017578D02*
X002038Y017578D01*
X002063Y017479D02*
X005153Y017479D01*
X005153Y017381D02*
X002063Y017381D01*
X002036Y017282D02*
X005153Y017282D01*
X005153Y017184D02*
X001992Y017184D01*
X001893Y017085D02*
X005153Y017085D01*
X005153Y016789D02*
X001912Y016789D01*
X001887Y016814D02*
X001722Y016883D01*
X001683Y016883D01*
X001683Y016483D01*
X002083Y016483D01*
X002083Y016522D01*
X002014Y016687D01*
X001887Y016814D01*
X002011Y016691D02*
X005153Y016691D01*
X005153Y016592D02*
X002054Y016592D01*
X002083Y016494D02*
X005153Y016494D01*
X005153Y016395D02*
X001683Y016395D01*
X001683Y016383D02*
X001683Y016483D01*
X001583Y016483D01*
X001583Y016883D01*
X001543Y016883D01*
X001378Y016814D01*
X001251Y016687D01*
X001183Y016522D01*
X001183Y016483D01*
X001582Y016483D01*
X001582Y016383D01*
X001183Y016383D01*
X001183Y016343D01*
X001251Y016178D01*
X001378Y016051D01*
X001543Y015983D01*
X001583Y015983D01*
X001583Y016382D01*
X001683Y016382D01*
X001683Y015983D01*
X001722Y015983D01*
X001887Y016051D01*
X002014Y016178D01*
X002083Y016343D01*
X002083Y016383D01*
X001683Y016383D01*
X001633Y016433D02*
X001333Y016433D01*
X000833Y015933D01*
X000833Y014333D01*
X002833Y012333D01*
X007833Y012333D01*
X007883Y012355D02*
X008403Y012355D01*
X008403Y012256D02*
X008283Y012256D01*
X008283Y012243D02*
X008283Y012283D01*
X007883Y012283D01*
X007883Y012383D01*
X007783Y012383D01*
X007783Y012783D01*
X007743Y012783D01*
X007578Y012714D01*
X007451Y012587D01*
X007383Y012422D01*
X007383Y012383D01*
X007782Y012383D01*
X007782Y012283D01*
X007383Y012283D01*
X007383Y012243D01*
X007451Y012078D01*
X007578Y011951D01*
X007743Y011883D01*
X007783Y011883D01*
X007783Y012282D01*
X007883Y012282D01*
X007883Y011883D01*
X007922Y011883D01*
X008087Y011951D01*
X008214Y012078D01*
X008283Y012243D01*
X008247Y012158D02*
X008440Y012158D01*
X008498Y012059D02*
X008196Y012059D01*
X008097Y011961D02*
X008607Y011961D01*
X008417Y012453D02*
X008270Y012453D01*
X008283Y012422D02*
X008214Y012587D01*
X008087Y012714D01*
X007922Y012783D01*
X007883Y012783D01*
X007883Y012383D01*
X008283Y012383D01*
X008283Y012422D01*
X008229Y012552D02*
X008359Y012552D01*
X008260Y012651D02*
X008151Y012651D01*
X008162Y012749D02*
X008003Y012749D01*
X008063Y012848D02*
X002205Y012848D01*
X002260Y012749D02*
X007662Y012749D01*
X007783Y012749D02*
X007883Y012749D01*
X007883Y012651D02*
X007783Y012651D01*
X007783Y012552D02*
X007883Y012552D01*
X007883Y012453D02*
X007783Y012453D01*
X007782Y012355D02*
X002332Y012355D01*
X002332Y012453D02*
X007396Y012453D01*
X007436Y012552D02*
X002312Y012552D01*
X002286Y012651D02*
X007514Y012651D01*
X007383Y012256D02*
X002332Y012256D01*
X002324Y012158D02*
X007418Y012158D01*
X007470Y012059D02*
X002298Y012059D01*
X002271Y011961D02*
X007568Y011961D01*
X007783Y011961D02*
X007883Y011961D01*
X007883Y012059D02*
X007783Y012059D01*
X007783Y012158D02*
X007883Y012158D01*
X007883Y012256D02*
X007783Y012256D01*
X008572Y012848D02*
X009653Y012848D01*
X009653Y012946D02*
X008474Y012946D01*
X008375Y013045D02*
X009653Y013045D01*
X009653Y013143D02*
X008276Y013143D01*
X008178Y013242D02*
X009653Y013242D01*
X009653Y013340D02*
X008079Y013340D01*
X007981Y013439D02*
X009684Y013439D01*
X009783Y013537D02*
X007882Y013537D01*
X007784Y013636D02*
X009881Y013636D01*
X009980Y013734D02*
X007685Y013734D01*
X007472Y013439D02*
X000783Y013439D01*
X000783Y013537D02*
X007239Y013537D01*
X007093Y013636D02*
X000783Y013636D01*
X000783Y013734D02*
X007039Y013734D01*
X007024Y013833D02*
X000783Y013833D01*
X000783Y013932D02*
X007040Y013932D01*
X007094Y014030D02*
X001785Y014030D01*
X001481Y014030D02*
X000783Y014030D01*
X000783Y014129D02*
X001328Y014129D01*
X001252Y014227D02*
X000783Y014227D01*
X000783Y014326D02*
X001211Y014326D01*
X001203Y014424D02*
X000783Y014424D01*
X000783Y014523D02*
X001205Y014523D01*
X001245Y014621D02*
X000783Y014621D01*
X000783Y014720D02*
X001312Y014720D01*
X001441Y014818D02*
X000783Y014818D01*
X000783Y014917D02*
X005662Y014917D01*
X005564Y014818D02*
X001825Y014818D01*
X001953Y014720D02*
X005465Y014720D01*
X005367Y014621D02*
X002020Y014621D01*
X001633Y014433D02*
X005433Y014433D01*
X006333Y015333D01*
X006333Y015353D01*
X007076Y016096D01*
X006825Y016100D02*
X006354Y016100D01*
X006256Y016001D02*
X006726Y016001D01*
X006627Y015902D02*
X006157Y015902D01*
X006058Y015804D02*
X006529Y015804D01*
X006430Y015705D02*
X005960Y015705D01*
X005861Y015607D02*
X006332Y015607D01*
X006233Y015508D02*
X005763Y015508D01*
X005664Y015410D02*
X006153Y015410D01*
X006057Y015311D02*
X005566Y015311D01*
X005433Y015433D02*
X006333Y016333D01*
X011487Y016333D01*
X012488Y017466D01*
X012775Y017578D02*
X012946Y017578D01*
X012949Y017676D02*
X012713Y017676D01*
X012796Y017479D02*
X012944Y017479D01*
X012941Y017381D02*
X012786Y017381D01*
X012740Y017282D02*
X012939Y017282D01*
X012936Y017184D02*
X012612Y017184D01*
X012650Y017085D02*
X012934Y017085D01*
X012710Y016959D02*
X012710Y016836D01*
X012663Y016723D01*
X012576Y016636D01*
X012501Y016605D01*
X012518Y016598D01*
X012605Y016511D01*
X012652Y016397D01*
X012652Y016273D01*
X012605Y016159D01*
X012518Y016072D01*
X012404Y016025D01*
X012287Y016025D01*
X012106Y015844D01*
X012106Y015795D01*
X012157Y015845D01*
X012271Y015893D01*
X012394Y015893D01*
X012508Y015845D01*
X012595Y015758D01*
X012643Y015644D01*
X012643Y015521D01*
X012595Y015407D01*
X012513Y015324D01*
X012513Y014407D01*
X012903Y014017D01*
X012903Y014157D01*
X012903Y015574D01*
X012820Y015657D01*
X012773Y015771D01*
X012773Y015894D01*
X012820Y016008D01*
X012907Y016095D01*
X012909Y016096D01*
X012951Y017775D01*
X013133Y017833D02*
X013083Y015833D01*
X013083Y014083D01*
X013333Y013833D01*
X013333Y012082D01*
X013061Y011811D01*
X009354Y011811D01*
X009360Y012059D02*
X009498Y012059D01*
X009440Y012158D02*
X009262Y012158D01*
X009263Y012256D02*
X009403Y012256D01*
X009403Y012355D02*
X009263Y012355D01*
X009248Y012453D02*
X009417Y012453D01*
X009458Y012552D02*
X009207Y012552D01*
X009123Y012651D02*
X009542Y012651D01*
X009653Y012749D02*
X008951Y012749D01*
X008715Y012749D02*
X008671Y012749D01*
X007964Y012946D02*
X002148Y012946D01*
X002076Y013045D02*
X007866Y013045D01*
X007767Y013143D02*
X001977Y013143D01*
X001858Y013242D02*
X007669Y013242D01*
X007570Y013340D02*
X001687Y013340D01*
X001749Y015016D02*
X005761Y015016D01*
X005860Y015114D02*
X001922Y015114D01*
X002007Y015213D02*
X005958Y015213D01*
X005433Y015433D02*
X001633Y015433D01*
X001239Y015607D02*
X000783Y015607D01*
X000783Y015705D02*
X001297Y015705D01*
X001405Y015804D02*
X000783Y015804D01*
X000783Y015902D02*
X005028Y015902D01*
X005024Y015804D02*
X001860Y015804D01*
X001968Y015705D02*
X005051Y015705D01*
X005069Y016001D02*
X001766Y016001D01*
X001683Y016001D02*
X001583Y016001D01*
X001499Y016001D02*
X000783Y016001D01*
X000783Y016100D02*
X001329Y016100D01*
X001243Y016198D02*
X000783Y016198D01*
X000783Y016297D02*
X001202Y016297D01*
X001233Y016433D02*
X000833Y016833D01*
X000783Y016789D02*
X001353Y016789D01*
X001254Y016691D02*
X000783Y016691D01*
X000783Y016592D02*
X001212Y016592D01*
X001183Y016494D02*
X000783Y016494D01*
X000783Y016395D02*
X001582Y016395D01*
X001583Y016297D02*
X001683Y016297D01*
X001683Y016198D02*
X001583Y016198D01*
X001583Y016100D02*
X001683Y016100D01*
X001936Y016100D02*
X005153Y016100D01*
X005153Y016198D02*
X002022Y016198D01*
X002063Y016297D02*
X005153Y016297D01*
X005056Y017972D02*
X000783Y017972D01*
X000783Y019253D02*
X002369Y019253D01*
X002280Y019351D02*
X000783Y019351D01*
X000783Y019450D02*
X002239Y019450D01*
X002221Y019549D02*
X000783Y019549D01*
X000783Y019647D02*
X002221Y019647D01*
X002255Y019746D02*
X001427Y019746D01*
X001721Y019844D02*
X002309Y019844D01*
X002407Y019943D02*
X001892Y019943D01*
X002601Y020238D02*
X002701Y020238D01*
X002701Y020337D02*
X002601Y020337D01*
X002601Y020435D02*
X002701Y020435D01*
X002701Y020629D02*
X003101Y020629D01*
X003101Y020668D01*
X003033Y020834D01*
X002906Y020960D01*
X002741Y021029D01*
X002701Y021029D01*
X002701Y020629D01*
X002701Y020633D02*
X002601Y020633D01*
X002601Y020731D02*
X002701Y020731D01*
X002701Y020830D02*
X002601Y020830D01*
X002601Y020928D02*
X002701Y020928D01*
X002701Y021027D02*
X002601Y021027D01*
X002557Y021027D02*
X002320Y021027D01*
X002333Y020928D02*
X002364Y020928D01*
X002294Y021125D02*
X013333Y021125D01*
X013333Y021027D02*
X002745Y021027D01*
X002938Y020928D02*
X012632Y020928D01*
X012643Y020933D02*
X012478Y020864D01*
X012351Y020737D01*
X012283Y020572D01*
X012283Y020533D01*
X012682Y020533D01*
X012682Y020433D01*
X012283Y020433D01*
X012283Y020393D01*
X012351Y020228D01*
X012478Y020101D01*
X012643Y020033D01*
X012683Y020033D01*
X012683Y020432D01*
X012783Y020432D01*
X012783Y020033D01*
X012822Y020033D01*
X012987Y020101D01*
X013114Y020228D01*
X013183Y020393D01*
X013183Y020433D01*
X012783Y020433D01*
X012783Y020533D01*
X012683Y020533D01*
X012683Y020933D01*
X012643Y020933D01*
X012683Y020928D02*
X012783Y020928D01*
X012783Y020933D02*
X012783Y020533D01*
X013183Y020533D01*
X013183Y020572D01*
X013114Y020737D01*
X012987Y020864D01*
X012822Y020933D01*
X012783Y020933D01*
X012833Y020928D02*
X013333Y020928D01*
X013333Y020830D02*
X013022Y020830D01*
X013117Y020731D02*
X013333Y020731D01*
X013329Y020633D02*
X013158Y020633D01*
X013183Y020534D02*
X013303Y020534D01*
X013303Y020435D02*
X012783Y020435D01*
X012783Y020337D02*
X012683Y020337D01*
X012682Y020435D02*
X011318Y020435D01*
X011406Y020347D02*
X011145Y020608D01*
X010777Y020608D01*
X010516Y020347D01*
X010516Y019978D01*
X010777Y019718D01*
X011145Y019718D01*
X011406Y019978D01*
X011406Y020347D01*
X011406Y020337D02*
X012306Y020337D01*
X012347Y020238D02*
X011406Y020238D01*
X011406Y020140D02*
X012439Y020140D01*
X012622Y020041D02*
X011406Y020041D01*
X011370Y019943D02*
X013333Y019943D01*
X013333Y020041D02*
X012843Y020041D01*
X012783Y020041D02*
X012683Y020041D01*
X012683Y020140D02*
X012783Y020140D01*
X012783Y020238D02*
X012683Y020238D01*
X012683Y020534D02*
X012783Y020534D01*
X012783Y020633D02*
X012683Y020633D01*
X012683Y020731D02*
X012783Y020731D01*
X012783Y020830D02*
X012683Y020830D01*
X012443Y020830D02*
X003034Y020830D01*
X003075Y020731D02*
X012348Y020731D01*
X012308Y020633D02*
X003101Y020633D01*
X003079Y020435D02*
X008576Y020435D01*
X008496Y020337D02*
X003038Y020337D01*
X002947Y020238D02*
X008496Y020238D01*
X008931Y020041D02*
X008991Y020041D01*
X008991Y019943D02*
X008931Y019943D01*
X008931Y019844D02*
X008991Y019844D01*
X008991Y019746D02*
X008931Y019746D01*
X009202Y019746D02*
X010749Y019746D01*
X010650Y019844D02*
X009300Y019844D01*
X009399Y019943D02*
X010552Y019943D01*
X010516Y020041D02*
X009426Y020041D01*
X009426Y020238D02*
X010516Y020238D01*
X010516Y020140D02*
X008991Y020140D01*
X009346Y020435D02*
X010605Y020435D01*
X010516Y020337D02*
X009426Y020337D01*
X009247Y020534D02*
X010703Y020534D01*
X011219Y020534D02*
X012283Y020534D01*
X013026Y020140D02*
X013333Y020140D01*
X013333Y020238D02*
X013118Y020238D01*
X013159Y020337D02*
X013328Y020337D01*
X013333Y019844D02*
X011272Y019844D01*
X011173Y019746D02*
X013333Y019746D01*
X013333Y019253D02*
X007535Y019253D01*
X007633Y019154D02*
X013333Y019154D01*
X013333Y019056D02*
X007732Y019056D01*
X007778Y018957D02*
X013333Y018957D01*
X013333Y018859D02*
X007778Y018859D01*
X007778Y018760D02*
X013333Y018760D01*
X013333Y018662D02*
X007778Y018662D01*
X007685Y018563D02*
X009627Y018563D01*
X009553Y018465D02*
X007586Y018465D01*
X007116Y018465D02*
X006878Y018465D01*
X006976Y018563D02*
X007017Y018563D01*
X007069Y019154D02*
X006925Y019154D01*
X006826Y019253D02*
X007167Y019253D01*
X006459Y019253D02*
X006146Y019253D01*
X006244Y019154D02*
X006360Y019154D01*
X005982Y019154D02*
X005885Y019154D01*
X005885Y019056D02*
X005982Y019056D01*
X005982Y018957D02*
X005885Y018957D01*
X005885Y018760D02*
X005982Y018760D01*
X005982Y018662D02*
X005885Y018662D01*
X005885Y018563D02*
X005982Y018563D01*
X005982Y018465D02*
X005885Y018465D01*
X005670Y018465D02*
X005460Y018465D01*
X005559Y018563D02*
X005572Y018563D01*
X005623Y019154D02*
X005507Y019154D01*
X005409Y019253D02*
X005722Y019253D01*
X005885Y019253D02*
X005982Y019253D01*
X006296Y018563D02*
X006309Y018563D01*
X006407Y018465D02*
X006197Y018465D01*
X005531Y018070D02*
X009316Y018070D01*
X011926Y015919D02*
X011926Y012426D01*
X011833Y012333D01*
X012833Y012333D02*
X012833Y013833D01*
X012333Y014333D01*
X012333Y015583D01*
X012550Y015804D02*
X012773Y015804D01*
X012776Y015902D02*
X012164Y015902D01*
X012116Y015804D02*
X012106Y015804D01*
X011926Y015919D02*
X012342Y016335D01*
X012342Y016335D01*
X012621Y016198D02*
X012912Y016198D01*
X012909Y016100D02*
X012545Y016100D01*
X012652Y016297D02*
X012914Y016297D01*
X012917Y016395D02*
X012652Y016395D01*
X012612Y016494D02*
X012919Y016494D01*
X012922Y016592D02*
X012523Y016592D01*
X012631Y016691D02*
X012924Y016691D01*
X012926Y016789D02*
X012691Y016789D01*
X012817Y016001D02*
X012263Y016001D01*
X012617Y015705D02*
X012800Y015705D01*
X012870Y015607D02*
X012643Y015607D01*
X012637Y015508D02*
X012903Y015508D01*
X012903Y015410D02*
X012596Y015410D01*
X012513Y015311D02*
X012903Y015311D01*
X012903Y015213D02*
X012513Y015213D01*
X012513Y015114D02*
X012903Y015114D01*
X012903Y015016D02*
X012513Y015016D01*
X012513Y014917D02*
X012903Y014917D01*
X012903Y014818D02*
X012513Y014818D01*
X012513Y014720D02*
X012903Y014720D01*
X012903Y014621D02*
X012513Y014621D01*
X012513Y014523D02*
X012903Y014523D01*
X012903Y014424D02*
X012513Y014424D01*
X012594Y014326D02*
X012903Y014326D01*
X012903Y014227D02*
X012692Y014227D01*
X012791Y014129D02*
X012903Y014129D01*
X012890Y014030D02*
X012903Y014030D01*
X013533Y014133D02*
X013833Y013833D01*
X013833Y012333D01*
X013533Y014133D02*
X013533Y016233D01*
X013133Y017833D02*
X013533Y018133D01*
X010633Y015694D02*
X010633Y014133D01*
X009833Y013333D01*
X009833Y012333D01*
X012683Y009891D02*
X012783Y009891D01*
X012783Y009793D02*
X012683Y009793D01*
X012683Y009694D02*
X012783Y009694D01*
X012783Y009596D02*
X012683Y009596D01*
X012682Y009497D02*
X011256Y009497D01*
X011355Y009399D02*
X012283Y009399D01*
X012321Y009300D02*
X011406Y009300D01*
X011406Y009201D02*
X012377Y009201D01*
X012476Y009103D02*
X011406Y009103D01*
X011406Y009004D02*
X013333Y009004D01*
X013333Y008906D02*
X011334Y008906D01*
X011235Y008807D02*
X013333Y008807D01*
X013333Y009103D02*
X012989Y009103D01*
X013088Y009201D02*
X013333Y009201D01*
X013333Y009300D02*
X013144Y009300D01*
X013183Y009399D02*
X013303Y009399D01*
X013303Y009497D02*
X012783Y009497D01*
X012783Y009399D02*
X012683Y009399D01*
X012683Y009300D02*
X012783Y009300D01*
X012783Y009201D02*
X012683Y009201D01*
X012683Y009103D02*
X012783Y009103D01*
X013173Y009596D02*
X013314Y009596D01*
X013333Y009694D02*
X013132Y009694D01*
X013059Y009793D02*
X013333Y009793D01*
X013333Y009891D02*
X012922Y009891D01*
X009732Y007625D02*
X007747Y007625D01*
X007648Y007526D02*
X009590Y007526D01*
X009538Y007428D02*
X007549Y007428D01*
X007153Y007428D02*
X006841Y007428D01*
X006939Y007526D02*
X007054Y007526D01*
X006444Y007428D02*
X006160Y007428D01*
X006259Y007526D02*
X006346Y007526D01*
X005982Y007526D02*
X005885Y007526D01*
X005885Y007428D02*
X005982Y007428D01*
X005982Y007625D02*
X005885Y007625D01*
X005885Y007723D02*
X005982Y007723D01*
X005982Y007920D02*
X005885Y007920D01*
X005885Y008019D02*
X005982Y008019D01*
X005982Y008118D02*
X005885Y008118D01*
X005885Y008216D02*
X005982Y008216D01*
X006183Y008216D02*
X006422Y008216D01*
X006323Y008118D02*
X006281Y008118D01*
X005685Y008216D02*
X005446Y008216D01*
X005544Y008118D02*
X005586Y008118D01*
X005005Y008216D02*
X004737Y008216D01*
X004836Y008118D02*
X004906Y008118D01*
X004121Y007625D02*
X002018Y007625D01*
X002059Y007526D02*
X004220Y007526D01*
X004318Y007428D02*
X002063Y007428D01*
X002055Y007329D02*
X009524Y007329D01*
X009476Y007231D02*
X002014Y007231D01*
X001940Y007132D02*
X005250Y007132D01*
X005415Y007132D02*
X009378Y007132D01*
X009279Y007034D02*
X005568Y007034D01*
X005333Y006833D02*
X005333Y004833D01*
X005612Y004964D02*
X005710Y004964D01*
X005808Y005063D02*
X005539Y005063D01*
X005513Y005161D02*
X005907Y005161D01*
X006005Y005260D02*
X005513Y005260D01*
X005513Y005358D02*
X006104Y005358D01*
X006202Y005457D02*
X005513Y005457D01*
X005153Y005654D02*
X002028Y005654D01*
X001949Y005752D02*
X005153Y005752D01*
X005153Y005851D02*
X001798Y005851D01*
X001683Y005851D02*
X001583Y005851D01*
X001583Y005752D02*
X001683Y005752D01*
X001683Y005654D02*
X001583Y005654D01*
X001583Y005555D02*
X001683Y005555D01*
X001906Y004767D02*
X005026Y004767D01*
X005024Y004866D02*
X000783Y004866D01*
X000783Y004964D02*
X005053Y004964D01*
X005067Y004669D02*
X002000Y004669D01*
X001633Y004433D02*
X005433Y004433D01*
X005823Y004077D02*
X001885Y004077D01*
X001984Y004176D02*
X005921Y004176D01*
X005527Y003782D02*
X001892Y003782D01*
X001990Y003683D02*
X005429Y003683D01*
X007130Y002599D02*
X000783Y002599D01*
X000783Y002501D02*
X007410Y002501D01*
X007509Y002402D02*
X001491Y002402D01*
X001751Y002303D02*
X007607Y002303D01*
X007706Y002205D02*
X001916Y002205D01*
X002014Y002106D02*
X007804Y002106D01*
X008018Y002402D02*
X009653Y002402D01*
X009653Y002303D02*
X008116Y002303D01*
X008215Y002205D02*
X009653Y002205D01*
X009653Y002106D02*
X008313Y002106D01*
X008412Y002008D02*
X009653Y002008D01*
X009653Y001909D02*
X008510Y001909D01*
X008609Y001811D02*
X009653Y001811D01*
X009626Y001712D02*
X009040Y001712D01*
X009160Y001614D02*
X009506Y001614D01*
X009443Y001515D02*
X009222Y001515D01*
X009263Y001417D02*
X009403Y001417D01*
X009403Y001318D02*
X009263Y001318D01*
X009251Y001219D02*
X009414Y001219D01*
X009455Y001121D02*
X009299Y001121D01*
X009397Y001022D02*
X009535Y001022D01*
X009833Y001333D02*
X009833Y002333D01*
X010633Y003133D01*
X010633Y004694D01*
X011926Y004919D02*
X012342Y005335D01*
X012342Y005335D01*
X012710Y005851D02*
X012928Y005851D01*
X012931Y005950D02*
X012710Y005950D01*
X012673Y006048D02*
X012933Y006048D01*
X012935Y006147D02*
X012589Y006147D01*
X012703Y006245D02*
X012938Y006245D01*
X012969Y006935D02*
X009690Y006935D01*
X009917Y007034D02*
X013101Y007034D01*
X009833Y007333D02*
X009333Y006833D01*
X005333Y006833D01*
X005423Y007428D02*
X005707Y007428D01*
X005609Y007526D02*
X005522Y007526D01*
X005027Y007428D02*
X004715Y007428D01*
X004813Y007526D02*
X004928Y007526D01*
X004090Y007723D02*
X001950Y007723D01*
X001816Y007822D02*
X004090Y007822D01*
X006863Y008216D02*
X007131Y008216D01*
X007032Y008118D02*
X006961Y008118D01*
X007509Y003092D02*
X010337Y003092D01*
X010239Y002993D02*
X007600Y002993D01*
X007641Y002895D02*
X010140Y002895D01*
X010042Y002796D02*
X007641Y002796D01*
X007722Y002698D02*
X009943Y002698D01*
X009845Y002599D02*
X007821Y002599D01*
X007919Y002501D02*
X009746Y002501D01*
X008414Y001219D02*
X008273Y001219D01*
X008232Y001121D02*
X008455Y001121D01*
X008535Y001022D02*
X008159Y001022D01*
X008022Y000924D02*
X008696Y000924D01*
X008969Y000924D02*
X008987Y000924D01*
X009085Y000825D02*
X002210Y000825D01*
X002257Y000908D02*
X002332Y001188D01*
X002332Y001477D01*
X002257Y001757D01*
X002113Y002008D01*
X002269Y001712D02*
X007576Y001712D01*
X007477Y001614D02*
X002296Y001614D01*
X002322Y001515D02*
X007421Y001515D01*
X007383Y001417D02*
X002332Y001417D01*
X002332Y001318D02*
X007782Y001318D01*
X007783Y001219D02*
X007883Y001219D01*
X007883Y001121D02*
X007783Y001121D01*
X007783Y001022D02*
X007883Y001022D01*
X007883Y000924D02*
X007783Y000924D01*
X007643Y000924D02*
X002262Y000924D01*
X002288Y001022D02*
X007506Y001022D01*
X007433Y001121D02*
X002314Y001121D01*
X002332Y001219D02*
X007392Y001219D01*
X007783Y001417D02*
X007883Y001417D01*
X007883Y001515D02*
X007783Y001515D01*
X007783Y001614D02*
X007883Y001614D01*
X007883Y001712D02*
X007783Y001712D01*
X000974Y002402D02*
X000783Y002402D01*
X000783Y015016D02*
X001516Y015016D01*
X001343Y015114D02*
X000783Y015114D01*
X000783Y015213D02*
X001258Y015213D01*
X001217Y015311D02*
X000783Y015311D01*
X000783Y015410D02*
X001203Y015410D01*
X001203Y015508D02*
X000783Y015508D01*
X001233Y016433D02*
X001333Y016433D01*
X001583Y016494D02*
X001683Y016494D01*
X001683Y016592D02*
X001583Y016592D01*
X001583Y016691D02*
X001683Y016691D01*
X001683Y016789D02*
X001583Y016789D01*
X001040Y019746D02*
X000783Y019746D01*
X002267Y021224D02*
X013333Y021224D01*
X013333Y021322D02*
X002221Y021322D01*
X002185Y022782D02*
X002257Y022908D01*
X002332Y023188D01*
X002332Y023477D01*
X002257Y023757D01*
X002113Y024008D01*
X001908Y024213D01*
X001657Y024358D01*
X001377Y024433D01*
X001088Y024433D01*
X000808Y024358D01*
X000783Y024343D01*
X000783Y030823D01*
X000809Y030808D01*
X001089Y030733D01*
X001378Y030733D01*
X001658Y030808D01*
X001909Y030952D01*
X002114Y031157D01*
X002245Y031384D01*
X002270Y031324D01*
X002396Y031197D01*
X002562Y031129D01*
X002601Y031129D01*
X002601Y031528D01*
X002701Y031528D01*
X002701Y031129D01*
X002741Y031129D01*
X002906Y031197D01*
X003033Y031324D01*
X003101Y031489D01*
X003101Y031529D01*
X002701Y031529D01*
X002701Y031629D01*
X002601Y031629D01*
X002601Y032029D01*
X002562Y032029D01*
X002396Y031960D01*
X002333Y031897D01*
X002333Y031977D01*
X002258Y032257D01*
X002187Y032381D01*
X013333Y032380D01*
X013333Y031640D01*
X013303Y031568D01*
X013303Y031397D01*
X013333Y031325D01*
X013333Y029371D01*
X013270Y029308D01*
X013223Y029194D01*
X013223Y029125D01*
X013075Y029014D01*
X013063Y029014D01*
X013016Y028970D01*
X012965Y028932D01*
X012963Y028920D01*
X012955Y028912D01*
X012953Y028848D01*
X012944Y028784D01*
X012951Y028775D01*
X012909Y027096D01*
X012907Y027095D01*
X012820Y027008D01*
X012773Y026894D01*
X012773Y026771D01*
X012820Y026657D01*
X012903Y026574D01*
X012903Y025157D01*
X012903Y025017D01*
X012513Y025407D01*
X012513Y026324D01*
X012595Y026407D01*
X012643Y026521D01*
X012643Y026644D01*
X012595Y026758D01*
X012508Y026845D01*
X012394Y026893D01*
X012271Y026893D01*
X012157Y026845D01*
X012106Y026795D01*
X012106Y026844D01*
X012287Y027025D01*
X012404Y027025D01*
X012518Y027072D01*
X012605Y027159D01*
X012652Y027273D01*
X012652Y027397D01*
X012605Y027511D01*
X012518Y027598D01*
X012501Y027605D01*
X012576Y027636D01*
X012663Y027723D01*
X012710Y027836D01*
X012710Y027959D01*
X012663Y028072D01*
X012576Y028159D01*
X012565Y028164D01*
X012662Y028204D01*
X012749Y028291D01*
X012796Y028404D01*
X012796Y028527D01*
X012749Y028640D01*
X012662Y028727D01*
X012549Y028774D01*
X012426Y028774D01*
X012313Y028727D01*
X012226Y028640D01*
X012179Y028527D01*
X012179Y028404D01*
X012184Y028393D01*
X011406Y027513D01*
X006258Y027513D01*
X006153Y027407D01*
X005641Y026895D01*
X005594Y027007D01*
X005513Y027089D01*
X005513Y028576D01*
X005589Y028653D01*
X009258Y028653D01*
X009407Y028653D01*
X009779Y029024D01*
X009894Y029024D01*
X010007Y029071D01*
X010094Y029158D01*
X010141Y029271D01*
X010141Y029394D01*
X010094Y029507D01*
X010007Y029594D01*
X009894Y029641D01*
X009771Y029641D01*
X009658Y029594D01*
X009571Y029507D01*
X009524Y029394D01*
X009524Y029279D01*
X009258Y029013D01*
X005589Y029013D01*
X005507Y029094D01*
X005394Y029141D01*
X005271Y029141D01*
X005158Y029094D01*
X005071Y029007D01*
X005024Y028894D01*
X005024Y028771D01*
X005071Y028658D01*
X005153Y028576D01*
X005153Y027089D01*
X005071Y027007D01*
X005024Y026894D01*
X005024Y026771D01*
X005071Y026658D01*
X005116Y026613D01*
X002023Y026613D01*
X001997Y026676D01*
X001876Y026797D01*
X001718Y026863D01*
X001547Y026863D01*
X001389Y026797D01*
X001268Y026676D01*
X001203Y026518D01*
X001203Y026347D01*
X001268Y026189D01*
X001389Y026068D01*
X001547Y026003D01*
X001718Y026003D01*
X001876Y026068D01*
X001997Y026189D01*
X002023Y026253D01*
X005358Y026253D01*
X005507Y026253D01*
X006407Y027153D01*
X006878Y027153D01*
X006153Y026428D01*
X006153Y026407D01*
X005358Y025613D01*
X002023Y025613D01*
X001997Y025676D01*
X001876Y025797D01*
X001718Y025863D01*
X001547Y025863D01*
X001389Y025797D01*
X001268Y025676D01*
X001203Y025518D01*
X001203Y025347D01*
X001268Y025189D01*
X001389Y025068D01*
X001547Y025003D01*
X001718Y025003D01*
X001876Y025068D01*
X001997Y025189D01*
X002023Y025253D01*
X005358Y025253D01*
X005507Y025253D01*
X006407Y026153D01*
X006513Y026258D01*
X006513Y026279D01*
X007150Y026916D01*
X010420Y026916D01*
X010372Y026868D01*
X010325Y026755D01*
X010325Y026632D01*
X010372Y026519D01*
X010453Y026437D01*
X010453Y025208D01*
X009758Y024513D01*
X009653Y024407D01*
X009653Y023723D01*
X009589Y023697D01*
X009468Y023576D01*
X009403Y023418D01*
X009403Y023247D01*
X009468Y023089D01*
X009566Y022991D01*
X009429Y022991D01*
X009236Y023183D01*
X009263Y023247D01*
X009263Y023418D01*
X009197Y023576D01*
X009076Y023697D01*
X008918Y023763D01*
X008747Y023763D01*
X008683Y023736D01*
X007641Y024779D01*
X007641Y024894D01*
X007594Y025007D01*
X007507Y025094D01*
X007394Y025141D01*
X007271Y025141D01*
X007158Y025094D01*
X007071Y025007D01*
X007024Y024894D01*
X007024Y024771D01*
X007071Y024658D01*
X007158Y024571D01*
X007271Y024524D01*
X007386Y024524D01*
X008429Y023482D01*
X008403Y023418D01*
X008403Y023247D01*
X008468Y023089D01*
X008589Y022968D01*
X008747Y022903D01*
X008918Y022903D01*
X008982Y022929D01*
X009128Y022782D01*
X002185Y022782D01*
X002195Y022800D02*
X009110Y022800D01*
X009012Y022899D02*
X007962Y022899D01*
X007922Y022883D02*
X008087Y022951D01*
X008214Y023078D01*
X008283Y023243D01*
X008283Y023283D01*
X007883Y023283D01*
X007883Y023383D01*
X007783Y023383D01*
X007783Y023783D01*
X007743Y023783D01*
X007578Y023714D01*
X007451Y023587D01*
X007383Y023422D01*
X007383Y023383D01*
X007782Y023383D01*
X007782Y023283D01*
X007383Y023283D01*
X007383Y023243D01*
X007451Y023078D01*
X007578Y022951D01*
X007743Y022883D01*
X007783Y022883D01*
X007783Y023282D01*
X007883Y023282D01*
X007883Y022883D01*
X007922Y022883D01*
X007883Y022899D02*
X007783Y022899D01*
X007703Y022899D02*
X002252Y022899D01*
X002281Y022998D02*
X007531Y022998D01*
X007443Y023096D02*
X002308Y023096D01*
X002332Y023195D02*
X007403Y023195D01*
X007383Y023392D02*
X002332Y023392D01*
X002329Y023490D02*
X007411Y023490D01*
X007452Y023589D02*
X002303Y023589D01*
X002276Y023687D02*
X007551Y023687D01*
X007783Y023687D02*
X007883Y023687D01*
X007883Y023783D02*
X007883Y023383D01*
X008283Y023383D01*
X008283Y023422D01*
X008214Y023587D01*
X008087Y023714D01*
X007922Y023783D01*
X007883Y023783D01*
X008026Y023884D02*
X002184Y023884D01*
X002241Y023786D02*
X008125Y023786D01*
X008114Y023687D02*
X008223Y023687D01*
X008213Y023589D02*
X008322Y023589D01*
X008254Y023490D02*
X008420Y023490D01*
X008403Y023392D02*
X008283Y023392D01*
X008403Y023293D02*
X007883Y023293D01*
X007833Y023333D02*
X002833Y023333D01*
X000833Y025333D01*
X000833Y026933D01*
X001333Y027433D01*
X001633Y027433D01*
X001683Y027432D02*
X005153Y027432D01*
X005153Y027333D02*
X002079Y027333D01*
X002083Y027343D02*
X002083Y027383D01*
X001683Y027383D01*
X001683Y027483D01*
X002083Y027483D01*
X002083Y027522D01*
X002014Y027687D01*
X001887Y027814D01*
X001722Y027883D01*
X001683Y027883D01*
X001683Y027483D01*
X001583Y027483D01*
X001583Y027883D01*
X001543Y027883D01*
X001378Y027814D01*
X001251Y027687D01*
X001183Y027522D01*
X001183Y027483D01*
X001582Y027483D01*
X001582Y027383D01*
X001183Y027383D01*
X001183Y027343D01*
X001251Y027178D01*
X001378Y027051D01*
X001543Y026983D01*
X001583Y026983D01*
X001583Y027382D01*
X001683Y027382D01*
X001683Y026983D01*
X001722Y026983D01*
X001887Y027051D01*
X002014Y027178D01*
X002083Y027343D01*
X002038Y027235D02*
X005153Y027235D01*
X005153Y027136D02*
X001973Y027136D01*
X001855Y027038D02*
X005102Y027038D01*
X005043Y026939D02*
X000783Y026939D01*
X000783Y026841D02*
X001494Y026841D01*
X001334Y026742D02*
X000783Y026742D01*
X000783Y026644D02*
X001255Y026644D01*
X001214Y026545D02*
X000783Y026545D01*
X000783Y026447D02*
X001203Y026447D01*
X001203Y026348D02*
X000783Y026348D01*
X000783Y026249D02*
X001243Y026249D01*
X001306Y026151D02*
X000783Y026151D01*
X000783Y026052D02*
X001427Y026052D01*
X001530Y025855D02*
X000783Y025855D01*
X000783Y025757D02*
X001349Y025757D01*
X001261Y025658D02*
X000783Y025658D01*
X000783Y025560D02*
X001220Y025560D01*
X001203Y025461D02*
X000783Y025461D01*
X000783Y025363D02*
X001203Y025363D01*
X001237Y025264D02*
X000783Y025264D01*
X000783Y025166D02*
X001292Y025166D01*
X001392Y025067D02*
X000783Y025067D01*
X000783Y024968D02*
X007055Y024968D01*
X007024Y024870D02*
X000783Y024870D01*
X000783Y024771D02*
X007024Y024771D01*
X007065Y024673D02*
X000783Y024673D01*
X000783Y024574D02*
X007155Y024574D01*
X007435Y024476D02*
X000783Y024476D01*
X000783Y024377D02*
X000881Y024377D01*
X001584Y024377D02*
X007533Y024377D01*
X007632Y024279D02*
X001794Y024279D01*
X001941Y024180D02*
X007731Y024180D01*
X007829Y024082D02*
X002039Y024082D01*
X002127Y023983D02*
X007928Y023983D01*
X008141Y024279D02*
X009653Y024279D01*
X009653Y024377D02*
X008043Y024377D01*
X007944Y024476D02*
X009721Y024476D01*
X009820Y024574D02*
X007845Y024574D01*
X007747Y024673D02*
X009918Y024673D01*
X010017Y024771D02*
X007648Y024771D01*
X007641Y024870D02*
X010115Y024870D01*
X010214Y024968D02*
X007610Y024968D01*
X007534Y025067D02*
X010312Y025067D01*
X010411Y025166D02*
X001974Y025166D01*
X001873Y025067D02*
X007131Y025067D01*
X007333Y024833D02*
X008833Y023333D01*
X009354Y022811D01*
X013061Y022811D01*
X013333Y023082D01*
X013333Y024833D01*
X013083Y025083D01*
X013083Y026833D01*
X013133Y028833D01*
X013533Y029133D01*
X013227Y029206D02*
X010114Y029206D01*
X010141Y029304D02*
X013268Y029304D01*
X013333Y029403D02*
X010137Y029403D01*
X010096Y029501D02*
X013333Y029501D01*
X013333Y029600D02*
X009993Y029600D01*
X009833Y029333D02*
X009333Y028833D01*
X005333Y028833D01*
X005333Y026833D01*
X005622Y026939D02*
X005685Y026939D01*
X005783Y027038D02*
X005563Y027038D01*
X005513Y027136D02*
X005882Y027136D01*
X005980Y027235D02*
X005513Y027235D01*
X005513Y027333D02*
X006079Y027333D01*
X006177Y027432D02*
X005513Y027432D01*
X005513Y027531D02*
X011422Y027531D01*
X011509Y027629D02*
X005513Y027629D01*
X005513Y027728D02*
X011596Y027728D01*
X011683Y027826D02*
X005513Y027826D01*
X005513Y027925D02*
X011770Y027925D01*
X011857Y028023D02*
X005513Y028023D01*
X005513Y028122D02*
X011944Y028122D01*
X012031Y028220D02*
X005513Y028220D01*
X005513Y028319D02*
X012118Y028319D01*
X012179Y028417D02*
X005513Y028417D01*
X005513Y028516D02*
X012179Y028516D01*
X012216Y028615D02*
X005551Y028615D01*
X005153Y028516D02*
X002063Y028516D01*
X002063Y028518D02*
X001997Y028676D01*
X001876Y028797D01*
X001718Y028863D01*
X001547Y028863D01*
X001389Y028797D01*
X001268Y028676D01*
X001203Y028518D01*
X001203Y028347D01*
X001268Y028189D01*
X001389Y028068D01*
X001547Y028003D01*
X001718Y028003D01*
X001876Y028068D01*
X001997Y028189D01*
X002063Y028347D01*
X002063Y028518D01*
X002063Y028417D02*
X005153Y028417D01*
X005153Y028319D02*
X002051Y028319D01*
X002010Y028220D02*
X005153Y028220D01*
X005153Y028122D02*
X001930Y028122D01*
X001768Y028023D02*
X005153Y028023D01*
X005153Y027925D02*
X000783Y027925D01*
X000783Y028023D02*
X001497Y028023D01*
X001335Y028122D02*
X000783Y028122D01*
X000783Y028220D02*
X001255Y028220D01*
X001214Y028319D02*
X000783Y028319D01*
X000783Y028417D02*
X001203Y028417D01*
X001203Y028516D02*
X000783Y028516D01*
X000783Y028615D02*
X001243Y028615D01*
X001305Y028713D02*
X000783Y028713D01*
X000783Y028812D02*
X001424Y028812D01*
X001532Y029009D02*
X000783Y029009D01*
X000783Y029107D02*
X001350Y029107D01*
X001389Y029068D02*
X001268Y029189D01*
X001203Y029347D01*
X001203Y029518D01*
X001268Y029676D01*
X001389Y029797D01*
X000783Y029797D01*
X000833Y029760D02*
X002651Y031579D01*
X002701Y031571D02*
X008712Y031571D01*
X008769Y031628D02*
X008496Y031355D01*
X008496Y031193D01*
X008931Y031193D01*
X008931Y031628D01*
X008769Y031628D01*
X008931Y031571D02*
X008991Y031571D01*
X008991Y031628D02*
X009154Y031628D01*
X009426Y031355D01*
X009426Y031193D01*
X008991Y031193D01*
X008931Y031193D01*
X008931Y031133D01*
X008496Y031133D01*
X008496Y030970D01*
X008769Y030698D01*
X008931Y030698D01*
X008931Y031132D01*
X008991Y031132D01*
X008991Y030698D01*
X009154Y030698D01*
X009426Y030970D01*
X009426Y031133D01*
X008991Y031133D01*
X008991Y031193D01*
X008991Y031628D01*
X008991Y031472D02*
X008931Y031472D01*
X008931Y031374D02*
X008991Y031374D01*
X008991Y031275D02*
X008931Y031275D01*
X008931Y031177D02*
X002856Y031177D01*
X002701Y031177D02*
X002601Y031177D01*
X002601Y031275D02*
X002701Y031275D01*
X002701Y031374D02*
X002601Y031374D01*
X002601Y031472D02*
X002701Y031472D01*
X002701Y031629D02*
X003101Y031629D01*
X003101Y031668D01*
X003033Y031834D01*
X002906Y031960D01*
X002741Y032029D01*
X002701Y032029D01*
X002701Y031629D01*
X002701Y031669D02*
X002601Y031669D01*
X002601Y031768D02*
X002701Y031768D01*
X002701Y031866D02*
X002601Y031866D01*
X002601Y031965D02*
X002701Y031965D01*
X002894Y031965D02*
X013333Y031965D01*
X013333Y032064D02*
X002310Y032064D01*
X002284Y032162D02*
X013333Y032162D01*
X013333Y032261D02*
X002256Y032261D01*
X002200Y032359D02*
X013333Y032359D01*
X013333Y031866D02*
X012982Y031866D01*
X012987Y031864D02*
X012822Y031933D01*
X012783Y031933D01*
X012783Y031533D01*
X012683Y031533D01*
X012683Y031933D01*
X012643Y031933D01*
X012478Y031864D01*
X012351Y031737D01*
X012283Y031572D01*
X012283Y031533D01*
X012682Y031533D01*
X012682Y031433D01*
X012283Y031433D01*
X012283Y031393D01*
X012351Y031228D01*
X012478Y031101D01*
X012643Y031033D01*
X012683Y031033D01*
X012683Y031432D01*
X012783Y031432D01*
X012783Y031033D01*
X012822Y031033D01*
X012987Y031101D01*
X013114Y031228D01*
X013183Y031393D01*
X013183Y031433D01*
X012783Y031433D01*
X012783Y031533D01*
X013183Y031533D01*
X013183Y031572D01*
X013114Y031737D01*
X012987Y031864D01*
X013084Y031768D02*
X013333Y031768D01*
X013333Y031669D02*
X013142Y031669D01*
X013183Y031571D02*
X013304Y031571D01*
X013303Y031472D02*
X012783Y031472D01*
X012783Y031374D02*
X012683Y031374D01*
X012682Y031472D02*
X011281Y031472D01*
X011379Y031374D02*
X012291Y031374D01*
X012331Y031275D02*
X011406Y031275D01*
X011406Y031347D02*
X011145Y031608D01*
X010777Y031608D01*
X010516Y031347D01*
X010516Y030978D01*
X010777Y030718D01*
X011145Y030718D01*
X011406Y030978D01*
X011406Y031347D01*
X011406Y031177D02*
X012402Y031177D01*
X012533Y031078D02*
X011406Y031078D01*
X011406Y030980D02*
X013333Y030980D01*
X013333Y031078D02*
X012932Y031078D01*
X012783Y031078D02*
X012683Y031078D01*
X012683Y031177D02*
X012783Y031177D01*
X012783Y031275D02*
X012683Y031275D01*
X012683Y031571D02*
X012783Y031571D01*
X012783Y031669D02*
X012683Y031669D01*
X012683Y031768D02*
X012783Y031768D01*
X012783Y031866D02*
X012683Y031866D01*
X012484Y031866D02*
X003000Y031866D01*
X003060Y031768D02*
X012382Y031768D01*
X012323Y031669D02*
X003101Y031669D01*
X003094Y031472D02*
X008613Y031472D01*
X008515Y031374D02*
X003053Y031374D01*
X002984Y031275D02*
X008496Y031275D01*
X008496Y031078D02*
X002035Y031078D01*
X002125Y031177D02*
X002446Y031177D01*
X002318Y031275D02*
X002182Y031275D01*
X002239Y031374D02*
X002249Y031374D01*
X002408Y030943D02*
X002287Y030822D01*
X002221Y030664D01*
X002221Y030493D01*
X002287Y030335D01*
X002408Y030214D01*
X002566Y030149D01*
X002737Y030149D01*
X002895Y030214D01*
X003016Y030335D01*
X003081Y030493D01*
X003081Y030664D01*
X003016Y030822D01*
X002895Y030943D01*
X002737Y031009D01*
X002566Y031009D01*
X002408Y030943D01*
X002345Y030881D02*
X001785Y030881D01*
X001936Y030980D02*
X002495Y030980D01*
X002270Y030782D02*
X001564Y030782D01*
X002229Y030684D02*
X000783Y030684D01*
X000783Y030782D02*
X000902Y030782D01*
X000783Y030585D02*
X002221Y030585D01*
X002224Y030487D02*
X000783Y030487D01*
X000783Y030388D02*
X002264Y030388D01*
X002332Y030290D02*
X000783Y030290D01*
X000783Y030191D02*
X002463Y030191D01*
X002839Y030191D02*
X004271Y030191D01*
X004340Y030260D02*
X004090Y030010D01*
X004090Y029656D01*
X004340Y029406D01*
X004693Y029406D01*
X004871Y029584D01*
X005048Y029406D01*
X005402Y029406D01*
X005565Y029570D01*
X005749Y029386D01*
X005885Y029386D01*
X005885Y029784D01*
X005982Y029784D01*
X005982Y029386D01*
X006119Y029386D01*
X006302Y029570D01*
X006466Y029406D01*
X006819Y029406D01*
X006997Y029584D01*
X007174Y029406D01*
X007528Y029406D01*
X007778Y029656D01*
X007778Y030010D01*
X007528Y030260D01*
X007174Y030260D01*
X006997Y030082D01*
X006819Y030260D01*
X006466Y030260D01*
X006302Y030096D01*
X006119Y030280D01*
X005982Y030280D01*
X005982Y029882D01*
X005885Y029882D01*
X005885Y030280D01*
X005749Y030280D01*
X005565Y030096D01*
X005402Y030260D01*
X005048Y030260D01*
X004871Y030082D01*
X004693Y030260D01*
X004340Y030260D01*
X004173Y030093D02*
X000783Y030093D01*
X000783Y029994D02*
X004090Y029994D01*
X004090Y029896D02*
X000783Y029896D01*
X000833Y029760D02*
X000833Y027833D01*
X001233Y027433D01*
X001333Y027433D01*
X001186Y027531D02*
X000783Y027531D01*
X000783Y027629D02*
X001227Y027629D01*
X001291Y027728D02*
X000783Y027728D01*
X000783Y027826D02*
X001407Y027826D01*
X001583Y027826D02*
X001683Y027826D01*
X001683Y027728D02*
X001583Y027728D01*
X001583Y027629D02*
X001683Y027629D01*
X001683Y027531D02*
X001583Y027531D01*
X001582Y027432D02*
X000783Y027432D01*
X000783Y027333D02*
X001187Y027333D01*
X001227Y027235D02*
X000783Y027235D01*
X000783Y027136D02*
X001292Y027136D01*
X001410Y027038D02*
X000783Y027038D01*
X001583Y027038D02*
X001683Y027038D01*
X001683Y027136D02*
X001583Y027136D01*
X001583Y027235D02*
X001683Y027235D01*
X001683Y027333D02*
X001583Y027333D01*
X001771Y026841D02*
X005024Y026841D01*
X005036Y026742D02*
X001931Y026742D01*
X002011Y026644D02*
X005085Y026644D01*
X005433Y026433D02*
X006333Y027333D01*
X011487Y027333D01*
X012488Y028466D01*
X012760Y028615D02*
X012947Y028615D01*
X012950Y028713D02*
X012676Y028713D01*
X012796Y028516D02*
X012945Y028516D01*
X012942Y028417D02*
X012796Y028417D01*
X012761Y028319D02*
X012940Y028319D01*
X012937Y028220D02*
X012679Y028220D01*
X012614Y028122D02*
X012935Y028122D01*
X012932Y028023D02*
X012683Y028023D01*
X012710Y027925D02*
X012930Y027925D01*
X012927Y027826D02*
X012706Y027826D01*
X012665Y027728D02*
X012925Y027728D01*
X012922Y027629D02*
X012559Y027629D01*
X012585Y027531D02*
X012920Y027531D01*
X012918Y027432D02*
X012637Y027432D01*
X012652Y027333D02*
X012915Y027333D01*
X012913Y027235D02*
X012636Y027235D01*
X012582Y027136D02*
X012910Y027136D01*
X012849Y027038D02*
X012435Y027038D01*
X012513Y026841D02*
X012773Y026841D01*
X012784Y026742D02*
X012602Y026742D01*
X012643Y026644D02*
X012833Y026644D01*
X012903Y026545D02*
X012643Y026545D01*
X012612Y026447D02*
X012903Y026447D01*
X012903Y026348D02*
X012536Y026348D01*
X012513Y026249D02*
X012903Y026249D01*
X012903Y026151D02*
X012513Y026151D01*
X012513Y026052D02*
X012903Y026052D01*
X012903Y025954D02*
X012513Y025954D01*
X012513Y025855D02*
X012903Y025855D01*
X012903Y025757D02*
X012513Y025757D01*
X012513Y025658D02*
X012903Y025658D01*
X012903Y025560D02*
X012513Y025560D01*
X012513Y025461D02*
X012903Y025461D01*
X012903Y025363D02*
X012557Y025363D01*
X012656Y025264D02*
X012903Y025264D01*
X012903Y025166D02*
X012754Y025166D01*
X012853Y025067D02*
X012903Y025067D01*
X012833Y024833D02*
X012833Y023333D01*
X011926Y023426D02*
X011833Y023333D01*
X011926Y023426D02*
X011926Y026919D01*
X012342Y027335D01*
X012342Y027335D01*
X012201Y026939D02*
X012791Y026939D01*
X012333Y026583D02*
X012333Y025333D01*
X012833Y024833D01*
X013533Y025133D02*
X013833Y024833D01*
X013833Y023333D01*
X013533Y025133D02*
X013533Y027233D01*
X012402Y027898D02*
X011600Y027096D01*
X007076Y027096D01*
X006333Y026353D01*
X006333Y026333D01*
X005433Y025433D01*
X001633Y025433D01*
X001916Y025757D02*
X005502Y025757D01*
X005601Y025855D02*
X001736Y025855D01*
X001838Y026052D02*
X005798Y026052D01*
X005699Y025954D02*
X000783Y025954D01*
X001633Y026433D02*
X005433Y026433D01*
X005603Y026348D02*
X006094Y026348D01*
X006172Y026447D02*
X005701Y026447D01*
X005800Y026545D02*
X006270Y026545D01*
X006369Y026644D02*
X005898Y026644D01*
X005997Y026742D02*
X006467Y026742D01*
X006566Y026841D02*
X006095Y026841D01*
X006194Y026939D02*
X006664Y026939D01*
X006763Y027038D02*
X006292Y027038D01*
X006391Y027136D02*
X006861Y027136D01*
X007075Y026841D02*
X010360Y026841D01*
X010325Y026742D02*
X006976Y026742D01*
X006878Y026644D02*
X010325Y026644D01*
X010361Y026545D02*
X006779Y026545D01*
X006681Y026447D02*
X010444Y026447D01*
X010453Y026348D02*
X006582Y026348D01*
X006504Y026249D02*
X010453Y026249D01*
X010453Y026151D02*
X006405Y026151D01*
X006307Y026052D02*
X010453Y026052D01*
X010453Y025954D02*
X006208Y025954D01*
X006110Y025855D02*
X010453Y025855D01*
X010453Y025757D02*
X006011Y025757D01*
X005913Y025658D02*
X010453Y025658D01*
X010453Y025560D02*
X005814Y025560D01*
X005716Y025461D02*
X010453Y025461D01*
X010453Y025363D02*
X005617Y025363D01*
X005519Y025264D02*
X010453Y025264D01*
X010633Y025133D02*
X009833Y024333D01*
X009833Y023333D01*
X009433Y023490D02*
X009233Y023490D01*
X009263Y023392D02*
X009403Y023392D01*
X009403Y023293D02*
X009263Y023293D01*
X009241Y023195D02*
X009424Y023195D01*
X009465Y023096D02*
X009324Y023096D01*
X009422Y022998D02*
X009560Y022998D01*
X009481Y023589D02*
X009184Y023589D01*
X009086Y023687D02*
X009579Y023687D01*
X009653Y023786D02*
X008634Y023786D01*
X008535Y023884D02*
X009653Y023884D01*
X009653Y023983D02*
X008437Y023983D01*
X008338Y024082D02*
X009653Y024082D01*
X009653Y024180D02*
X008240Y024180D01*
X007883Y023589D02*
X007783Y023589D01*
X007783Y023490D02*
X007883Y023490D01*
X007883Y023392D02*
X007783Y023392D01*
X007782Y023293D02*
X002332Y023293D01*
X002005Y025658D02*
X005404Y025658D01*
X005896Y026151D02*
X001959Y026151D01*
X002022Y026249D02*
X005995Y026249D01*
X005153Y027531D02*
X002079Y027531D01*
X002038Y027629D02*
X005153Y027629D01*
X005153Y027728D02*
X001974Y027728D01*
X001858Y027826D02*
X005153Y027826D01*
X005114Y028615D02*
X002023Y028615D01*
X001960Y028713D02*
X005048Y028713D01*
X005024Y028812D02*
X001841Y028812D01*
X001733Y029009D02*
X005073Y029009D01*
X005031Y028910D02*
X000783Y028910D01*
X000783Y029206D02*
X001261Y029206D01*
X001220Y029304D02*
X000783Y029304D01*
X000783Y029403D02*
X001203Y029403D01*
X001203Y029501D02*
X000783Y029501D01*
X000783Y029600D02*
X001237Y029600D01*
X001290Y029699D02*
X000783Y029699D01*
X001389Y029797D02*
X001547Y029863D01*
X001718Y029863D01*
X001876Y029797D01*
X001997Y029676D01*
X002063Y029518D01*
X002063Y029347D01*
X001997Y029189D01*
X001876Y029068D01*
X001718Y029003D01*
X001547Y029003D01*
X001389Y029068D01*
X001915Y029107D02*
X005190Y029107D01*
X005475Y029107D02*
X009353Y029107D01*
X009451Y029206D02*
X002004Y029206D01*
X002045Y029304D02*
X009524Y029304D01*
X009528Y029403D02*
X006136Y029403D01*
X006234Y029501D02*
X006370Y029501D01*
X005982Y029501D02*
X005885Y029501D01*
X005885Y029403D02*
X005982Y029403D01*
X005982Y029600D02*
X005885Y029600D01*
X005885Y029699D02*
X005982Y029699D01*
X005982Y029896D02*
X005885Y029896D01*
X005885Y029994D02*
X005982Y029994D01*
X005982Y030093D02*
X005885Y030093D01*
X005885Y030191D02*
X005982Y030191D01*
X006207Y030191D02*
X006397Y030191D01*
X006888Y030191D02*
X007106Y030191D01*
X007007Y030093D02*
X006986Y030093D01*
X007596Y030191D02*
X013333Y030191D01*
X013333Y030093D02*
X007695Y030093D01*
X007778Y029994D02*
X013333Y029994D01*
X013333Y029896D02*
X007778Y029896D01*
X007778Y029797D02*
X013333Y029797D01*
X013333Y029699D02*
X007778Y029699D01*
X007722Y029600D02*
X009672Y029600D01*
X009569Y029501D02*
X007623Y029501D01*
X007079Y029501D02*
X006914Y029501D01*
X005732Y029403D02*
X002063Y029403D01*
X002063Y029501D02*
X004244Y029501D01*
X004146Y029600D02*
X002029Y029600D01*
X001975Y029699D02*
X004090Y029699D01*
X004090Y029797D02*
X001876Y029797D01*
X002970Y030290D02*
X013333Y030290D01*
X013333Y030388D02*
X003038Y030388D01*
X003078Y030487D02*
X013333Y030487D01*
X013333Y030585D02*
X003081Y030585D01*
X003073Y030684D02*
X013333Y030684D01*
X013333Y030782D02*
X011210Y030782D01*
X011309Y030881D02*
X013333Y030881D01*
X013333Y031177D02*
X013063Y031177D01*
X013134Y031275D02*
X013333Y031275D01*
X013312Y031374D02*
X013175Y031374D01*
X012283Y031571D02*
X011182Y031571D01*
X010740Y031571D02*
X009211Y031571D01*
X009309Y031472D02*
X010641Y031472D01*
X010543Y031374D02*
X009408Y031374D01*
X009426Y031275D02*
X010516Y031275D01*
X010516Y031177D02*
X008991Y031177D01*
X008991Y031078D02*
X008931Y031078D01*
X008931Y030980D02*
X008991Y030980D01*
X008991Y030881D02*
X008931Y030881D01*
X008931Y030782D02*
X008991Y030782D01*
X009238Y030782D02*
X010712Y030782D01*
X010614Y030881D02*
X009337Y030881D01*
X009426Y030980D02*
X010516Y030980D01*
X010516Y031078D02*
X009426Y031078D01*
X008684Y030782D02*
X003032Y030782D01*
X002957Y030881D02*
X008585Y030881D01*
X008496Y030980D02*
X002807Y030980D01*
X002408Y031965D02*
X002333Y031965D01*
X004762Y030191D02*
X004980Y030191D01*
X004881Y030093D02*
X004860Y030093D01*
X004789Y029501D02*
X004953Y029501D01*
X005497Y029501D02*
X005633Y029501D01*
X005660Y030191D02*
X005470Y030191D01*
X009468Y028713D02*
X012299Y028713D01*
X012948Y028812D02*
X009566Y028812D01*
X009665Y028910D02*
X012955Y028910D01*
X013057Y029009D02*
X009763Y029009D01*
X010043Y029107D02*
X013199Y029107D01*
X012152Y026841D02*
X012106Y026841D01*
X010633Y026694D02*
X010633Y025133D01*
X008424Y023195D02*
X008262Y023195D01*
X008222Y023096D02*
X008465Y023096D01*
X008560Y022998D02*
X008134Y022998D01*
X007883Y022998D02*
X007783Y022998D01*
X007783Y023096D02*
X007883Y023096D01*
X007883Y023195D02*
X007783Y023195D01*
X026285Y013333D02*
X027025Y013333D01*
X027097Y013303D01*
X027268Y013303D01*
X027340Y013333D01*
X029294Y013333D01*
X029357Y013270D01*
X029471Y013223D01*
X029540Y013223D01*
X029651Y013075D01*
X029651Y013063D01*
X029695Y013016D01*
X029733Y012965D01*
X029745Y012963D01*
X029754Y012955D01*
X029817Y012953D01*
X029881Y012944D01*
X029891Y012951D01*
X031569Y012909D01*
X031570Y012907D01*
X031657Y012820D01*
X031771Y012773D01*
X031894Y012773D01*
X032008Y012820D01*
X032091Y012903D01*
X033508Y012903D01*
X033648Y012903D01*
X033258Y012513D01*
X032341Y012513D01*
X032258Y012595D01*
X032144Y012643D01*
X032021Y012643D01*
X031907Y012595D01*
X031820Y012508D01*
X031773Y012394D01*
X031773Y012271D01*
X031820Y012157D01*
X031871Y012106D01*
X031821Y012106D01*
X031640Y012287D01*
X031640Y012404D01*
X031593Y012518D01*
X031506Y012605D01*
X031392Y012652D01*
X031269Y012652D01*
X031155Y012605D01*
X031067Y012518D01*
X031060Y012501D01*
X031029Y012576D01*
X030942Y012663D01*
X030829Y012710D01*
X030706Y012710D01*
X030593Y012663D01*
X030506Y012576D01*
X030501Y012565D01*
X030461Y012662D01*
X030374Y012749D01*
X030261Y012796D01*
X030138Y012796D01*
X030025Y012749D01*
X029938Y012662D01*
X029891Y012549D01*
X029891Y012426D01*
X029938Y012313D01*
X030025Y012226D01*
X030138Y012179D01*
X030261Y012179D01*
X030272Y012184D01*
X031153Y011406D01*
X031153Y006258D01*
X031258Y006153D01*
X031770Y005641D01*
X031658Y005594D01*
X031576Y005513D01*
X030089Y005513D01*
X030013Y005589D01*
X030013Y009258D01*
X030013Y009407D01*
X029641Y009779D01*
X029641Y009894D01*
X029594Y010007D01*
X029507Y010094D01*
X029394Y010141D01*
X029271Y010141D01*
X029158Y010094D01*
X029071Y010007D01*
X029024Y009894D01*
X029024Y009771D01*
X029071Y009658D01*
X029158Y009571D01*
X029271Y009524D01*
X029386Y009524D01*
X029653Y009258D01*
X029653Y005589D01*
X029571Y005507D01*
X029524Y005394D01*
X029524Y005271D01*
X029571Y005158D01*
X029658Y005071D01*
X029771Y005024D01*
X029894Y005024D01*
X030007Y005071D01*
X030089Y005153D01*
X031576Y005153D01*
X031658Y005071D01*
X031771Y005024D01*
X031894Y005024D01*
X032007Y005071D01*
X032053Y005116D01*
X032053Y002023D01*
X031989Y001997D01*
X031868Y001876D01*
X031803Y001718D01*
X031803Y001547D01*
X031868Y001389D01*
X031989Y001268D01*
X032147Y001203D01*
X032318Y001203D01*
X032476Y001268D01*
X032597Y001389D01*
X032663Y001547D01*
X032663Y001718D01*
X032597Y001876D01*
X032476Y001997D01*
X032413Y002023D01*
X032413Y005358D01*
X032413Y005507D01*
X031513Y006407D01*
X031513Y006878D01*
X032238Y006153D01*
X032258Y006153D01*
X033053Y005358D01*
X033053Y002023D01*
X032989Y001997D01*
X032868Y001876D01*
X032803Y001718D01*
X032803Y001547D01*
X032868Y001389D01*
X032989Y001268D01*
X033147Y001203D01*
X033318Y001203D01*
X033476Y001268D01*
X033597Y001389D01*
X033663Y001547D01*
X033663Y001718D01*
X033597Y001876D01*
X033476Y001997D01*
X033413Y002023D01*
X033413Y005358D01*
X033413Y005507D01*
X032513Y006407D01*
X032407Y006513D01*
X032387Y006513D01*
X031749Y007150D01*
X031749Y010420D01*
X031797Y010372D01*
X031910Y010325D01*
X032033Y010325D01*
X032146Y010372D01*
X032228Y010453D01*
X033457Y010453D01*
X034153Y009758D01*
X034258Y009653D01*
X034942Y009653D01*
X034968Y009589D01*
X035089Y009468D01*
X035247Y009403D01*
X035418Y009403D01*
X035576Y009468D01*
X035674Y009566D01*
X035674Y009429D01*
X035482Y009236D01*
X035418Y009263D01*
X035247Y009263D01*
X035089Y009197D01*
X034968Y009076D01*
X034903Y008918D01*
X034903Y008747D01*
X034929Y008683D01*
X033886Y007641D01*
X033771Y007641D01*
X033658Y007594D01*
X033571Y007507D01*
X033524Y007394D01*
X033524Y007271D01*
X033571Y007158D01*
X033658Y007071D01*
X033771Y007024D01*
X033894Y007024D01*
X034007Y007071D01*
X034094Y007158D01*
X034141Y007271D01*
X034141Y007386D01*
X035183Y008429D01*
X035247Y008403D01*
X035418Y008403D01*
X035576Y008468D01*
X035697Y008589D01*
X035763Y008747D01*
X035763Y008918D01*
X035736Y008982D01*
X035883Y009128D01*
X035883Y002185D01*
X035757Y002257D01*
X035477Y002332D01*
X035188Y002332D01*
X034908Y002257D01*
X034657Y002113D01*
X034452Y001908D01*
X034308Y001657D01*
X034233Y001377D01*
X034233Y001088D01*
X034308Y000808D01*
X034322Y000783D01*
X027842Y000783D01*
X027858Y000809D01*
X027933Y001089D01*
X027933Y001378D01*
X027858Y001658D01*
X027713Y001909D01*
X027508Y002114D01*
X027281Y002245D01*
X027341Y002270D01*
X027468Y002396D01*
X027536Y002562D01*
X027536Y002601D01*
X027137Y002601D01*
X027137Y002701D01*
X027536Y002701D01*
X027536Y002741D01*
X027468Y002906D01*
X027341Y003033D01*
X027176Y003101D01*
X027136Y003101D01*
X027136Y002701D01*
X027037Y002701D01*
X027037Y003101D01*
X026997Y003101D01*
X026832Y003033D01*
X026705Y002906D01*
X026637Y002741D01*
X026637Y002701D01*
X027036Y002701D01*
X027036Y002601D01*
X026637Y002601D01*
X026637Y002562D01*
X026705Y002396D01*
X026768Y002333D01*
X026688Y002333D01*
X026408Y002258D01*
X026284Y002187D01*
X026285Y013333D01*
X026285Y013242D02*
X029425Y013242D01*
X029600Y013143D02*
X027367Y013143D01*
X027437Y013114D02*
X027272Y013183D01*
X027233Y013183D01*
X027233Y012783D01*
X027633Y012783D01*
X027633Y012822D01*
X027564Y012987D01*
X027437Y013114D01*
X027507Y013045D02*
X029668Y013045D01*
X029833Y013133D02*
X031833Y013083D01*
X033583Y013083D01*
X033833Y013333D01*
X035583Y013333D01*
X035854Y013061D01*
X035854Y009354D01*
X035333Y008833D01*
X033833Y007333D01*
X034141Y007329D02*
X035883Y007329D01*
X035883Y007231D02*
X034124Y007231D01*
X034068Y007132D02*
X035883Y007132D01*
X035883Y007034D02*
X033917Y007034D01*
X033749Y007034D02*
X031866Y007034D01*
X031767Y007132D02*
X033597Y007132D01*
X033541Y007231D02*
X031749Y007231D01*
X031749Y007329D02*
X033524Y007329D01*
X033538Y007428D02*
X031749Y007428D01*
X031749Y007526D02*
X033590Y007526D01*
X033732Y007625D02*
X031749Y007625D01*
X031749Y007723D02*
X033969Y007723D01*
X034067Y007822D02*
X031749Y007822D01*
X031749Y007920D02*
X034166Y007920D01*
X034264Y008019D02*
X031749Y008019D01*
X031749Y008118D02*
X034363Y008118D01*
X034462Y008216D02*
X031749Y008216D01*
X031749Y008315D02*
X034560Y008315D01*
X034659Y008413D02*
X031749Y008413D01*
X031749Y008512D02*
X034757Y008512D01*
X034856Y008610D02*
X031749Y008610D01*
X031749Y008709D02*
X034918Y008709D01*
X034903Y008807D02*
X031749Y008807D01*
X031749Y008906D02*
X034903Y008906D01*
X034938Y009004D02*
X031749Y009004D01*
X031749Y009103D02*
X034995Y009103D01*
X035100Y009201D02*
X031749Y009201D01*
X031749Y009300D02*
X035546Y009300D01*
X035644Y009399D02*
X031749Y009399D01*
X031749Y009497D02*
X035060Y009497D01*
X034965Y009596D02*
X031749Y009596D01*
X031749Y009694D02*
X034216Y009694D01*
X034118Y009793D02*
X031749Y009793D01*
X031749Y009891D02*
X034019Y009891D01*
X033921Y009990D02*
X031749Y009990D01*
X031749Y010088D02*
X033822Y010088D01*
X033724Y010187D02*
X031749Y010187D01*
X031749Y010285D02*
X033625Y010285D01*
X033527Y010384D02*
X032159Y010384D01*
X031972Y010633D02*
X033532Y010633D01*
X034333Y009833D01*
X035333Y009833D01*
X035605Y009497D02*
X035674Y009497D01*
X035857Y009103D02*
X035883Y009103D01*
X035883Y009004D02*
X035759Y009004D01*
X035763Y008906D02*
X035883Y008906D01*
X035883Y008807D02*
X035763Y008807D01*
X035747Y008709D02*
X035883Y008709D01*
X035883Y008610D02*
X035706Y008610D01*
X035620Y008512D02*
X035883Y008512D01*
X035883Y008413D02*
X035444Y008413D01*
X035422Y008283D02*
X035383Y008283D01*
X035383Y007883D01*
X035783Y007883D01*
X035783Y007922D01*
X035714Y008087D01*
X035587Y008214D01*
X035422Y008283D01*
X035383Y008216D02*
X035283Y008216D01*
X035283Y008283D02*
X035283Y007883D01*
X035383Y007883D01*
X035383Y007783D01*
X035783Y007783D01*
X035783Y007743D01*
X035714Y007578D01*
X035587Y007451D01*
X035422Y007383D01*
X035383Y007383D01*
X035383Y007782D01*
X035283Y007782D01*
X035283Y007383D01*
X035243Y007383D01*
X035078Y007451D01*
X034951Y007578D01*
X034883Y007743D01*
X034883Y007783D01*
X035282Y007783D01*
X035282Y007883D01*
X034883Y007883D01*
X034883Y007922D01*
X034951Y008087D01*
X035078Y008214D01*
X035243Y008283D01*
X035283Y008283D01*
X035222Y008413D02*
X035168Y008413D01*
X035069Y008315D02*
X035883Y008315D01*
X035883Y008216D02*
X035583Y008216D01*
X035684Y008118D02*
X035883Y008118D01*
X035883Y008019D02*
X035742Y008019D01*
X035783Y007920D02*
X035883Y007920D01*
X035883Y007822D02*
X035383Y007822D01*
X035333Y007833D02*
X035333Y002833D01*
X033333Y000833D01*
X031733Y000833D01*
X031233Y001333D01*
X031233Y001633D01*
X031283Y001614D02*
X031803Y001614D01*
X031803Y001712D02*
X031683Y001712D01*
X031683Y001722D02*
X031614Y001887D01*
X031487Y002014D01*
X031322Y002083D01*
X031283Y002083D01*
X031283Y001683D01*
X031183Y001683D01*
X031183Y002083D01*
X031143Y002083D01*
X030978Y002014D01*
X030851Y001887D01*
X030783Y001722D01*
X030783Y001683D01*
X031182Y001683D01*
X031182Y001583D01*
X030783Y001583D01*
X030783Y001543D01*
X030851Y001378D01*
X030978Y001251D01*
X031143Y001183D01*
X031183Y001183D01*
X031183Y001582D01*
X031283Y001582D01*
X031283Y001183D01*
X031322Y001183D01*
X031487Y001251D01*
X031614Y001378D01*
X031683Y001543D01*
X031683Y001583D01*
X031283Y001583D01*
X031283Y001683D01*
X031683Y001683D01*
X031683Y001722D01*
X031646Y001811D02*
X031841Y001811D01*
X031901Y001909D02*
X031592Y001909D01*
X031494Y002008D02*
X032015Y002008D01*
X032053Y002106D02*
X027515Y002106D01*
X027614Y002008D02*
X029015Y002008D01*
X028989Y001997D02*
X028868Y001876D01*
X028803Y001718D01*
X028803Y001547D01*
X028868Y001389D01*
X028989Y001268D01*
X029147Y001203D01*
X029318Y001203D01*
X029476Y001268D01*
X029597Y001389D01*
X029663Y001547D01*
X029663Y001718D01*
X029597Y001876D01*
X029476Y001997D01*
X029318Y002063D01*
X029147Y002063D01*
X028989Y001997D01*
X028901Y001909D02*
X027712Y001909D01*
X027769Y001811D02*
X028841Y001811D01*
X028803Y001712D02*
X027826Y001712D01*
X027869Y001614D02*
X028803Y001614D01*
X028816Y001515D02*
X027896Y001515D01*
X027922Y001417D02*
X028857Y001417D01*
X028939Y001318D02*
X027933Y001318D01*
X027933Y001219D02*
X029106Y001219D01*
X029359Y001219D02*
X030106Y001219D01*
X030147Y001203D02*
X030318Y001203D01*
X030476Y001268D01*
X030597Y001389D01*
X030663Y001547D01*
X030663Y001718D01*
X030597Y001876D01*
X030476Y001997D01*
X030318Y002063D01*
X030147Y002063D01*
X029989Y001997D01*
X029868Y001876D01*
X029803Y001718D01*
X029803Y001547D01*
X029868Y001389D01*
X029989Y001268D01*
X030147Y001203D01*
X030359Y001219D02*
X031054Y001219D01*
X031183Y001219D02*
X031283Y001219D01*
X031233Y001233D02*
X030833Y000833D01*
X028905Y000833D01*
X027087Y002651D01*
X027137Y002698D02*
X027657Y002698D01*
X027657Y002737D02*
X027657Y002566D01*
X027722Y002408D01*
X027843Y002287D01*
X028001Y002221D01*
X028172Y002221D01*
X028330Y002287D01*
X028451Y002408D01*
X028516Y002566D01*
X028516Y002737D01*
X028451Y002895D01*
X032053Y002895D01*
X032053Y002993D02*
X028352Y002993D01*
X028330Y003016D02*
X028172Y003081D01*
X028001Y003081D01*
X027843Y003016D01*
X027722Y002895D01*
X027473Y002895D01*
X027514Y002796D02*
X027681Y002796D01*
X027657Y002737D02*
X027722Y002895D01*
X027821Y002993D02*
X027381Y002993D01*
X027198Y003092D02*
X032053Y003092D01*
X032053Y003190D02*
X026284Y003190D01*
X026284Y003092D02*
X026975Y003092D01*
X027037Y003092D02*
X027136Y003092D01*
X027136Y002993D02*
X027037Y002993D01*
X027037Y002895D02*
X027136Y002895D01*
X027136Y002796D02*
X027037Y002796D01*
X027036Y002698D02*
X026284Y002698D01*
X026284Y002796D02*
X026660Y002796D01*
X026700Y002895D02*
X026284Y002895D01*
X026284Y002993D02*
X026792Y002993D01*
X026284Y003289D02*
X032053Y003289D01*
X032053Y003387D02*
X026284Y003387D01*
X026284Y003486D02*
X032053Y003486D01*
X032053Y003585D02*
X026284Y003585D01*
X026284Y003683D02*
X032053Y003683D01*
X032053Y003782D02*
X026284Y003782D01*
X026284Y003880D02*
X032053Y003880D01*
X032053Y003979D02*
X026284Y003979D01*
X026284Y004077D02*
X032053Y004077D01*
X032053Y004176D02*
X029095Y004176D01*
X029009Y004090D02*
X029259Y004340D01*
X029259Y004693D01*
X029081Y004871D01*
X029259Y005048D01*
X029259Y005402D01*
X029096Y005565D01*
X029279Y005749D01*
X029279Y005885D01*
X028881Y005885D01*
X028881Y005982D01*
X029279Y005982D01*
X029279Y006119D01*
X029096Y006302D01*
X029259Y006466D01*
X029259Y006819D01*
X029081Y006997D01*
X029259Y007174D01*
X029259Y007528D01*
X029009Y007778D01*
X028655Y007778D01*
X028405Y007528D01*
X028405Y007174D01*
X028583Y006997D01*
X028405Y006819D01*
X028405Y006466D01*
X028569Y006302D01*
X028385Y006119D01*
X028385Y005982D01*
X028784Y005982D01*
X028784Y005885D01*
X028385Y005885D01*
X028385Y005749D01*
X028569Y005565D01*
X028405Y005402D01*
X028405Y005048D01*
X028583Y004871D01*
X028405Y004693D01*
X028405Y004340D01*
X028655Y004090D01*
X029009Y004090D01*
X029194Y004274D02*
X032053Y004274D01*
X032053Y004373D02*
X029259Y004373D01*
X029259Y004471D02*
X032053Y004471D01*
X032053Y004570D02*
X029259Y004570D01*
X029259Y004669D02*
X032053Y004669D01*
X032053Y004767D02*
X029185Y004767D01*
X029087Y004866D02*
X032053Y004866D01*
X032053Y004964D02*
X029175Y004964D01*
X029259Y005063D02*
X029678Y005063D01*
X029570Y005161D02*
X029259Y005161D01*
X029259Y005260D02*
X029529Y005260D01*
X029524Y005358D02*
X029259Y005358D01*
X029204Y005457D02*
X029550Y005457D01*
X029619Y005555D02*
X029106Y005555D01*
X029184Y005654D02*
X029653Y005654D01*
X029653Y005752D02*
X029279Y005752D01*
X029279Y005851D02*
X029653Y005851D01*
X029653Y005950D02*
X028881Y005950D01*
X028784Y005950D02*
X026284Y005950D01*
X026284Y006048D02*
X028385Y006048D01*
X028413Y006147D02*
X026284Y006147D01*
X026284Y006245D02*
X028512Y006245D01*
X028527Y006344D02*
X026284Y006344D01*
X026284Y006442D02*
X028429Y006442D01*
X028405Y006541D02*
X026284Y006541D01*
X026284Y006639D02*
X028405Y006639D01*
X028405Y006738D02*
X026284Y006738D01*
X026284Y006836D02*
X028423Y006836D01*
X028521Y006935D02*
X026284Y006935D01*
X026284Y007034D02*
X028546Y007034D01*
X028448Y007132D02*
X026284Y007132D01*
X026284Y007231D02*
X028405Y007231D01*
X028405Y007329D02*
X026284Y007329D01*
X026284Y007428D02*
X028405Y007428D01*
X028405Y007526D02*
X026284Y007526D01*
X026284Y007625D02*
X028502Y007625D01*
X028601Y007723D02*
X026284Y007723D01*
X026284Y007822D02*
X029653Y007822D01*
X029653Y007920D02*
X026284Y007920D01*
X026284Y008019D02*
X029653Y008019D01*
X029653Y008118D02*
X026284Y008118D01*
X026284Y008216D02*
X029653Y008216D01*
X029653Y008315D02*
X026284Y008315D01*
X026284Y008413D02*
X029653Y008413D01*
X029653Y008512D02*
X027711Y008512D01*
X027695Y008496D02*
X027967Y008769D01*
X027967Y008931D01*
X027533Y008931D01*
X027533Y008991D01*
X027967Y008991D01*
X027967Y009154D01*
X027695Y009426D01*
X027532Y009426D01*
X027532Y008991D01*
X027472Y008991D01*
X027472Y008931D01*
X027037Y008931D01*
X027037Y008769D01*
X027310Y008496D01*
X027472Y008496D01*
X027472Y008931D01*
X027532Y008931D01*
X027532Y008496D01*
X027695Y008496D01*
X027809Y008610D02*
X029653Y008610D01*
X029653Y008709D02*
X027908Y008709D01*
X027967Y008807D02*
X029653Y008807D01*
X029653Y008906D02*
X027967Y008906D01*
X027967Y009004D02*
X029653Y009004D01*
X029653Y009103D02*
X027967Y009103D01*
X027920Y009201D02*
X029653Y009201D01*
X029611Y009300D02*
X027821Y009300D01*
X027723Y009399D02*
X029512Y009399D01*
X029414Y009497D02*
X026285Y009497D01*
X026285Y009399D02*
X027282Y009399D01*
X027310Y009426D02*
X027037Y009154D01*
X027037Y008991D01*
X027472Y008991D01*
X027472Y009426D01*
X027310Y009426D01*
X027472Y009399D02*
X027532Y009399D01*
X027532Y009300D02*
X027472Y009300D01*
X027472Y009201D02*
X027532Y009201D01*
X027532Y009103D02*
X027472Y009103D01*
X027472Y009004D02*
X027532Y009004D01*
X027532Y008906D02*
X027472Y008906D01*
X027472Y008807D02*
X027532Y008807D01*
X027532Y008709D02*
X027472Y008709D01*
X027472Y008610D02*
X027532Y008610D01*
X027532Y008512D02*
X027472Y008512D01*
X027294Y008512D02*
X026284Y008512D01*
X026284Y008610D02*
X027196Y008610D01*
X027097Y008709D02*
X026284Y008709D01*
X026285Y008807D02*
X027037Y008807D01*
X027037Y008906D02*
X026285Y008906D01*
X026285Y009004D02*
X027037Y009004D01*
X027037Y009103D02*
X026285Y009103D01*
X026285Y009201D02*
X027085Y009201D01*
X027184Y009300D02*
X026285Y009300D01*
X026285Y009596D02*
X029133Y009596D01*
X029056Y009694D02*
X026285Y009694D01*
X026285Y009793D02*
X029024Y009793D01*
X029024Y009891D02*
X026285Y009891D01*
X026285Y009990D02*
X029064Y009990D01*
X029152Y010088D02*
X026285Y010088D01*
X026285Y010187D02*
X031153Y010187D01*
X031153Y010285D02*
X026285Y010285D01*
X026285Y010384D02*
X031153Y010384D01*
X031153Y010483D02*
X026285Y010483D01*
X026285Y010581D02*
X027253Y010581D01*
X027318Y010516D02*
X027057Y010777D01*
X027057Y011145D01*
X027318Y011406D01*
X027687Y011406D01*
X027947Y011145D01*
X027947Y010777D01*
X027687Y010516D01*
X027318Y010516D01*
X027155Y010680D02*
X026285Y010680D01*
X026285Y010778D02*
X027057Y010778D01*
X027057Y010877D02*
X026285Y010877D01*
X026285Y010975D02*
X027057Y010975D01*
X027057Y011074D02*
X026285Y011074D01*
X026285Y011172D02*
X027084Y011172D01*
X027183Y011271D02*
X026285Y011271D01*
X026285Y011369D02*
X027281Y011369D01*
X027723Y011369D02*
X031153Y011369D01*
X031153Y011271D02*
X027822Y011271D01*
X027921Y011172D02*
X031153Y011172D01*
X031153Y011074D02*
X027947Y011074D01*
X027947Y010975D02*
X031153Y010975D01*
X031153Y010877D02*
X027947Y010877D01*
X027947Y010778D02*
X031153Y010778D01*
X031153Y010680D02*
X027850Y010680D01*
X027752Y010581D02*
X031153Y010581D01*
X031153Y010088D02*
X029513Y010088D01*
X029601Y009990D02*
X031153Y009990D01*
X031153Y009891D02*
X029641Y009891D01*
X029641Y009793D02*
X031153Y009793D01*
X031153Y009694D02*
X029725Y009694D01*
X029824Y009596D02*
X031153Y009596D01*
X031153Y009497D02*
X029923Y009497D01*
X030013Y009399D02*
X031153Y009399D01*
X031153Y009300D02*
X030013Y009300D01*
X030013Y009201D02*
X031153Y009201D01*
X031153Y009103D02*
X030013Y009103D01*
X030013Y009004D02*
X031153Y009004D01*
X031153Y008906D02*
X030013Y008906D01*
X030013Y008807D02*
X031153Y008807D01*
X031153Y008709D02*
X030013Y008709D01*
X030013Y008610D02*
X031153Y008610D01*
X031153Y008512D02*
X030013Y008512D01*
X030013Y008413D02*
X031153Y008413D01*
X031153Y008315D02*
X030013Y008315D01*
X030013Y008216D02*
X031153Y008216D01*
X031153Y008118D02*
X030013Y008118D01*
X030013Y008019D02*
X031153Y008019D01*
X031153Y007920D02*
X030013Y007920D01*
X030013Y007822D02*
X031153Y007822D01*
X031153Y007723D02*
X030013Y007723D01*
X030013Y007625D02*
X031153Y007625D01*
X031153Y007526D02*
X030013Y007526D01*
X030013Y007428D02*
X031153Y007428D01*
X031153Y007329D02*
X030013Y007329D01*
X030013Y007231D02*
X031153Y007231D01*
X031153Y007132D02*
X030013Y007132D01*
X030013Y007034D02*
X031153Y007034D01*
X031153Y006935D02*
X030013Y006935D01*
X030013Y006836D02*
X031153Y006836D01*
X031153Y006738D02*
X030013Y006738D01*
X030013Y006639D02*
X031153Y006639D01*
X031153Y006541D02*
X030013Y006541D01*
X030013Y006442D02*
X031153Y006442D01*
X031153Y006344D02*
X030013Y006344D01*
X030013Y006245D02*
X031165Y006245D01*
X031264Y006147D02*
X030013Y006147D01*
X030013Y006048D02*
X031363Y006048D01*
X031461Y005950D02*
X030013Y005950D01*
X030013Y005851D02*
X031560Y005851D01*
X031658Y005752D02*
X030013Y005752D01*
X030013Y005654D02*
X031757Y005654D01*
X031619Y005555D02*
X030046Y005555D01*
X029833Y005333D02*
X031833Y005333D01*
X031987Y005063D02*
X032053Y005063D01*
X032413Y005063D02*
X033053Y005063D01*
X033053Y005161D02*
X032413Y005161D01*
X032413Y005260D02*
X033053Y005260D01*
X033052Y005358D02*
X032413Y005358D01*
X032413Y005457D02*
X032954Y005457D01*
X032855Y005555D02*
X032364Y005555D01*
X032266Y005654D02*
X032757Y005654D01*
X032658Y005752D02*
X032167Y005752D01*
X032069Y005851D02*
X032560Y005851D01*
X032461Y005950D02*
X031970Y005950D01*
X031872Y006048D02*
X032363Y006048D01*
X032264Y006147D02*
X031773Y006147D01*
X031674Y006245D02*
X032145Y006245D01*
X032046Y006344D02*
X031576Y006344D01*
X031513Y006442D02*
X031948Y006442D01*
X031849Y006541D02*
X031513Y006541D01*
X031513Y006639D02*
X031751Y006639D01*
X031652Y006738D02*
X031513Y006738D01*
X031513Y006836D02*
X031554Y006836D01*
X031569Y007076D02*
X031569Y011600D01*
X030768Y012402D01*
X031039Y012552D02*
X031102Y012552D01*
X030955Y012651D02*
X031265Y012651D01*
X031396Y012651D02*
X033396Y012651D01*
X033495Y012749D02*
X030374Y012749D01*
X030466Y012651D02*
X030580Y012651D01*
X030200Y012488D02*
X031333Y011487D01*
X031333Y006333D01*
X032233Y005433D01*
X032233Y001633D01*
X032624Y001811D02*
X032841Y001811D01*
X032803Y001712D02*
X032663Y001712D01*
X032663Y001614D02*
X032803Y001614D01*
X032816Y001515D02*
X032649Y001515D01*
X032609Y001417D02*
X032857Y001417D01*
X032939Y001318D02*
X032526Y001318D01*
X032359Y001219D02*
X033106Y001219D01*
X033359Y001219D02*
X034233Y001219D01*
X034233Y001121D02*
X027933Y001121D01*
X027915Y001022D02*
X034250Y001022D01*
X034276Y000924D02*
X027888Y000924D01*
X027862Y000825D02*
X034303Y000825D01*
X034233Y001318D02*
X033526Y001318D01*
X033609Y001417D02*
X034243Y001417D01*
X034270Y001515D02*
X033649Y001515D01*
X033663Y001614D02*
X034296Y001614D01*
X034339Y001712D02*
X033663Y001712D01*
X033624Y001811D02*
X034396Y001811D01*
X034454Y001909D02*
X033564Y001909D01*
X033450Y002008D02*
X034552Y002008D01*
X034651Y002106D02*
X033413Y002106D01*
X033413Y002205D02*
X034817Y002205D01*
X035080Y002303D02*
X033413Y002303D01*
X033413Y002402D02*
X035883Y002402D01*
X035883Y002501D02*
X033413Y002501D01*
X033413Y002599D02*
X035883Y002599D01*
X035883Y002698D02*
X033413Y002698D01*
X033413Y002796D02*
X035883Y002796D01*
X035883Y002895D02*
X033413Y002895D01*
X033413Y002993D02*
X035883Y002993D01*
X035883Y003092D02*
X033413Y003092D01*
X033413Y003190D02*
X035883Y003190D01*
X035883Y003289D02*
X033413Y003289D01*
X033413Y003387D02*
X035883Y003387D01*
X035883Y003486D02*
X033413Y003486D01*
X033413Y003585D02*
X035883Y003585D01*
X035883Y003683D02*
X033413Y003683D01*
X033413Y003782D02*
X035883Y003782D01*
X035883Y003880D02*
X033413Y003880D01*
X033413Y003979D02*
X035883Y003979D01*
X035883Y004077D02*
X033413Y004077D01*
X033413Y004176D02*
X035883Y004176D01*
X035883Y004274D02*
X033413Y004274D01*
X033413Y004373D02*
X035883Y004373D01*
X035883Y004471D02*
X033413Y004471D01*
X033413Y004570D02*
X035883Y004570D01*
X035883Y004669D02*
X033413Y004669D01*
X033413Y004767D02*
X035883Y004767D01*
X035883Y004866D02*
X033413Y004866D01*
X033413Y004964D02*
X035883Y004964D01*
X035883Y005063D02*
X033413Y005063D01*
X033413Y005161D02*
X035883Y005161D01*
X035883Y005260D02*
X033413Y005260D01*
X033413Y005358D02*
X035883Y005358D01*
X035883Y005457D02*
X033413Y005457D01*
X033364Y005555D02*
X035883Y005555D01*
X035883Y005654D02*
X033266Y005654D01*
X033167Y005752D02*
X035883Y005752D01*
X035883Y005851D02*
X033069Y005851D01*
X032970Y005950D02*
X035883Y005950D01*
X035883Y006048D02*
X032872Y006048D01*
X032773Y006147D02*
X035883Y006147D01*
X035883Y006245D02*
X032674Y006245D01*
X032576Y006344D02*
X035883Y006344D01*
X035883Y006442D02*
X032477Y006442D01*
X032358Y006541D02*
X035883Y006541D01*
X035883Y006639D02*
X032260Y006639D01*
X032161Y006738D02*
X035883Y006738D01*
X035883Y006836D02*
X032063Y006836D01*
X031964Y006935D02*
X035883Y006935D01*
X035883Y007428D02*
X035531Y007428D01*
X035383Y007428D02*
X035283Y007428D01*
X035283Y007526D02*
X035383Y007526D01*
X035383Y007625D02*
X035283Y007625D01*
X035283Y007723D02*
X035383Y007723D01*
X035282Y007822D02*
X034576Y007822D01*
X034478Y007723D02*
X034891Y007723D01*
X034932Y007625D02*
X034379Y007625D01*
X034281Y007526D02*
X035003Y007526D01*
X035134Y007428D02*
X034182Y007428D01*
X034675Y007920D02*
X034883Y007920D01*
X034923Y008019D02*
X034773Y008019D01*
X034872Y008118D02*
X034981Y008118D01*
X034971Y008216D02*
X035083Y008216D01*
X035283Y008118D02*
X035383Y008118D01*
X035383Y008019D02*
X035283Y008019D01*
X035283Y007920D02*
X035383Y007920D01*
X035774Y007723D02*
X035883Y007723D01*
X035883Y007625D02*
X035734Y007625D01*
X035663Y007526D02*
X035883Y007526D01*
X033233Y005433D02*
X032333Y006333D01*
X032312Y006333D01*
X031569Y007076D01*
X029653Y007034D02*
X029118Y007034D01*
X029143Y006935D02*
X029653Y006935D01*
X029653Y006836D02*
X029242Y006836D01*
X029259Y006738D02*
X029653Y006738D01*
X029653Y006639D02*
X029259Y006639D01*
X029259Y006541D02*
X029653Y006541D01*
X029653Y006442D02*
X029236Y006442D01*
X029137Y006344D02*
X029653Y006344D01*
X029653Y006245D02*
X029153Y006245D01*
X029251Y006147D02*
X029653Y006147D01*
X029653Y006048D02*
X029279Y006048D01*
X028559Y005555D02*
X026284Y005555D01*
X026284Y005457D02*
X028460Y005457D01*
X028405Y005358D02*
X026284Y005358D01*
X026284Y005260D02*
X028405Y005260D01*
X028405Y005161D02*
X026284Y005161D01*
X026284Y005063D02*
X028405Y005063D01*
X028490Y004964D02*
X026284Y004964D01*
X026284Y004866D02*
X028578Y004866D01*
X028479Y004767D02*
X026284Y004767D01*
X026284Y004669D02*
X028405Y004669D01*
X028405Y004570D02*
X026284Y004570D01*
X026284Y004471D02*
X028405Y004471D01*
X028405Y004373D02*
X026284Y004373D01*
X026284Y004274D02*
X028471Y004274D01*
X028569Y004176D02*
X026284Y004176D01*
X026284Y005654D02*
X028480Y005654D01*
X028385Y005752D02*
X026284Y005752D01*
X026284Y005851D02*
X028385Y005851D01*
X029833Y005333D02*
X029833Y009333D01*
X029333Y009833D01*
X030971Y011567D02*
X026285Y011567D01*
X026285Y011665D02*
X030859Y011665D01*
X030747Y011764D02*
X026285Y011764D01*
X026285Y011862D02*
X030636Y011862D01*
X030524Y011961D02*
X026285Y011961D01*
X026285Y012059D02*
X030413Y012059D01*
X030301Y012158D02*
X026285Y012158D01*
X026285Y012256D02*
X029995Y012256D01*
X029921Y012355D02*
X027441Y012355D01*
X027437Y012351D02*
X027564Y012478D01*
X027633Y012643D01*
X027633Y012683D01*
X027233Y012683D01*
X027233Y012783D01*
X027133Y012783D01*
X027133Y013183D01*
X027093Y013183D01*
X026928Y013114D01*
X026801Y012987D01*
X026733Y012822D01*
X026733Y012783D01*
X027132Y012783D01*
X027132Y012683D01*
X026733Y012683D01*
X026733Y012643D01*
X026801Y012478D01*
X026928Y012351D01*
X027093Y012283D01*
X027133Y012283D01*
X027133Y012682D01*
X027233Y012682D01*
X027233Y012283D01*
X027272Y012283D01*
X027437Y012351D01*
X027540Y012453D02*
X029891Y012453D01*
X029892Y012552D02*
X027595Y012552D01*
X027633Y012651D02*
X029933Y012651D01*
X030025Y012749D02*
X027233Y012749D01*
X027233Y012651D02*
X027133Y012651D01*
X027132Y012749D02*
X026285Y012749D01*
X026285Y012651D02*
X026733Y012651D01*
X026770Y012552D02*
X026285Y012552D01*
X026285Y012453D02*
X026825Y012453D01*
X026924Y012355D02*
X026285Y012355D01*
X026285Y012848D02*
X026743Y012848D01*
X026784Y012946D02*
X026285Y012946D01*
X026285Y013045D02*
X026858Y013045D01*
X026998Y013143D02*
X026285Y013143D01*
X027133Y013143D02*
X027233Y013143D01*
X027233Y013045D02*
X027133Y013045D01*
X027133Y012946D02*
X027233Y012946D01*
X027233Y012848D02*
X027133Y012848D01*
X027133Y012552D02*
X027233Y012552D01*
X027233Y012453D02*
X027133Y012453D01*
X027133Y012355D02*
X027233Y012355D01*
X027622Y012848D02*
X031629Y012848D01*
X031559Y012552D02*
X031864Y012552D01*
X031797Y012453D02*
X031620Y012453D01*
X031640Y012355D02*
X031773Y012355D01*
X031779Y012256D02*
X031671Y012256D01*
X031769Y012158D02*
X031819Y012158D01*
X031746Y011926D02*
X035239Y011926D01*
X035333Y011833D01*
X035333Y012833D02*
X033833Y012833D01*
X033333Y012333D01*
X032083Y012333D01*
X032302Y012552D02*
X033297Y012552D01*
X033593Y012848D02*
X032036Y012848D01*
X031330Y012342D02*
X031746Y011926D01*
X031330Y012342D02*
X031330Y012342D01*
X030089Y012946D02*
X029884Y012946D01*
X029865Y012946D02*
X027581Y012946D01*
X029533Y013533D02*
X029833Y013133D01*
X031433Y013533D02*
X033533Y013533D01*
X033833Y013833D01*
X035333Y013833D01*
X031082Y011468D02*
X026285Y011468D01*
X029064Y007723D02*
X029653Y007723D01*
X029653Y007625D02*
X029162Y007625D01*
X029259Y007526D02*
X029653Y007526D01*
X029653Y007428D02*
X029259Y007428D01*
X029259Y007329D02*
X029653Y007329D01*
X029653Y007231D02*
X029259Y007231D01*
X029217Y007132D02*
X029653Y007132D01*
X029987Y005063D02*
X031678Y005063D01*
X032413Y004964D02*
X033053Y004964D01*
X033053Y004866D02*
X032413Y004866D01*
X032413Y004767D02*
X033053Y004767D01*
X033053Y004669D02*
X032413Y004669D01*
X032413Y004570D02*
X033053Y004570D01*
X033053Y004471D02*
X032413Y004471D01*
X032413Y004373D02*
X033053Y004373D01*
X033053Y004274D02*
X032413Y004274D01*
X032413Y004176D02*
X033053Y004176D01*
X033053Y004077D02*
X032413Y004077D01*
X032413Y003979D02*
X033053Y003979D01*
X033053Y003880D02*
X032413Y003880D01*
X032413Y003782D02*
X033053Y003782D01*
X033053Y003683D02*
X032413Y003683D01*
X032413Y003585D02*
X033053Y003585D01*
X033053Y003486D02*
X032413Y003486D01*
X032413Y003387D02*
X033053Y003387D01*
X033053Y003289D02*
X032413Y003289D01*
X032413Y003190D02*
X033053Y003190D01*
X033053Y003092D02*
X032413Y003092D01*
X032413Y002993D02*
X033053Y002993D01*
X033053Y002895D02*
X032413Y002895D01*
X032413Y002796D02*
X033053Y002796D01*
X033053Y002698D02*
X032413Y002698D01*
X032413Y002599D02*
X033053Y002599D01*
X033053Y002501D02*
X032413Y002501D01*
X032413Y002402D02*
X033053Y002402D01*
X033053Y002303D02*
X032413Y002303D01*
X032413Y002205D02*
X033053Y002205D01*
X033053Y002106D02*
X032413Y002106D01*
X032450Y002008D02*
X033015Y002008D01*
X032901Y001909D02*
X032564Y001909D01*
X032053Y002205D02*
X027350Y002205D01*
X027375Y002303D02*
X027826Y002303D01*
X027728Y002402D02*
X027470Y002402D01*
X027511Y002501D02*
X027683Y002501D01*
X027657Y002599D02*
X027536Y002599D01*
X026703Y002402D02*
X026284Y002402D01*
X026284Y002501D02*
X026662Y002501D01*
X026637Y002599D02*
X026284Y002599D01*
X026284Y002303D02*
X026576Y002303D01*
X026315Y002205D02*
X026284Y002205D01*
X028347Y002303D02*
X032053Y002303D01*
X032053Y002402D02*
X028446Y002402D01*
X028490Y002501D02*
X032053Y002501D01*
X032053Y002599D02*
X028516Y002599D01*
X028516Y002698D02*
X032053Y002698D01*
X032053Y002796D02*
X028492Y002796D01*
X028451Y002895D02*
X028330Y003016D01*
X029450Y002008D02*
X030015Y002008D01*
X029901Y001909D02*
X029564Y001909D01*
X029624Y001811D02*
X029841Y001811D01*
X029803Y001712D02*
X029663Y001712D01*
X029663Y001614D02*
X029803Y001614D01*
X029816Y001515D02*
X029649Y001515D01*
X029609Y001417D02*
X029857Y001417D01*
X029939Y001318D02*
X029526Y001318D01*
X030526Y001318D02*
X030911Y001318D01*
X030835Y001417D02*
X030609Y001417D01*
X030649Y001515D02*
X030794Y001515D01*
X030663Y001614D02*
X031182Y001614D01*
X031183Y001712D02*
X031283Y001712D01*
X031283Y001811D02*
X031183Y001811D01*
X031183Y001909D02*
X031283Y001909D01*
X031283Y002008D02*
X031183Y002008D01*
X030971Y002008D02*
X030450Y002008D01*
X030564Y001909D02*
X030873Y001909D01*
X030819Y001811D02*
X030624Y001811D01*
X030663Y001712D02*
X030783Y001712D01*
X031183Y001515D02*
X031283Y001515D01*
X031283Y001417D02*
X031183Y001417D01*
X031233Y001333D02*
X031233Y001233D01*
X031183Y001318D02*
X031283Y001318D01*
X031411Y001219D02*
X032106Y001219D01*
X031939Y001318D02*
X031554Y001318D01*
X031630Y001417D02*
X031857Y001417D01*
X031816Y001515D02*
X031671Y001515D01*
X033233Y001633D02*
X033233Y005433D01*
X035585Y002303D02*
X035883Y002303D01*
X035883Y002205D02*
X035848Y002205D01*
X031785Y010384D02*
X031749Y010384D01*
D18*
X031972Y010633D03*
X030768Y012402D03*
X030200Y012488D03*
X029333Y009833D03*
X033833Y007333D03*
X031833Y005333D03*
X029833Y005333D03*
X012488Y006466D03*
X012402Y005898D03*
X010633Y004694D03*
X007333Y002833D03*
X005333Y004833D03*
X005333Y006833D03*
X009833Y007333D03*
X007333Y013833D03*
X005333Y015833D03*
X005333Y017833D03*
X009833Y018333D03*
X012488Y017466D03*
X012402Y016898D03*
X010633Y015694D03*
X007333Y024833D03*
X005333Y026833D03*
X005333Y028833D03*
X009833Y029333D03*
X012488Y028466D03*
X012402Y027898D03*
X010633Y026694D03*
D19*
X019357Y026043D03*
X020078Y026043D03*
X020837Y025538D03*
X021165Y026058D03*
X021833Y025833D03*
X022333Y026333D03*
X022833Y025833D03*
X023333Y026333D03*
X023833Y025833D03*
X024333Y026333D03*
X023833Y026833D03*
X024333Y027333D03*
X023833Y027833D03*
X024333Y028333D03*
X023833Y028833D03*
X024333Y029333D03*
X023833Y029833D03*
X024333Y030333D03*
X023333Y030333D03*
X022833Y029833D03*
X022333Y030333D03*
X022833Y030833D03*
X022333Y031333D03*
X021833Y030833D03*
X021357Y031455D03*
X019984Y031237D03*
X019699Y030876D03*
X019452Y031256D03*
X019737Y030134D03*
X020002Y029715D03*
X019452Y029715D03*
X019376Y028992D03*
X019452Y028288D03*
X019718Y027927D03*
X019984Y028288D03*
X020097Y028992D03*
X020892Y028606D03*
X021193Y029044D03*
X021833Y028833D03*
X022333Y029333D03*
X022833Y028833D03*
X023333Y029333D03*
X023333Y028333D03*
X022833Y027833D03*
X022333Y028333D03*
X021833Y027833D03*
X022333Y027333D03*
X022833Y026833D03*
X023333Y027333D03*
X021833Y026833D03*
X020865Y026524D03*
X020002Y026785D03*
X019737Y027185D03*
X019471Y026785D03*
X019452Y025282D03*
X019737Y024901D03*
X019984Y025282D03*
X019756Y024140D03*
X020002Y023760D03*
X019471Y023779D03*
X021833Y023833D03*
X022333Y024333D03*
X022833Y023833D03*
X022833Y024833D03*
X023333Y025333D03*
X023833Y024833D03*
X024333Y025333D03*
X022333Y025333D03*
X021833Y024833D03*
X027210Y021357D03*
X027833Y021833D03*
X028333Y022333D03*
X028833Y021833D03*
X029333Y022333D03*
X029833Y021833D03*
X030333Y022333D03*
X030833Y021833D03*
X031333Y022333D03*
X031833Y021833D03*
X032333Y022333D03*
X032833Y021833D03*
X033333Y022333D03*
X033833Y021833D03*
X034333Y022333D03*
X034833Y021833D03*
X034833Y022833D03*
X033833Y022833D03*
X033333Y023333D03*
X032833Y022833D03*
X032333Y023333D03*
X032833Y023833D03*
X033333Y024333D03*
X033833Y023833D03*
X032333Y024333D03*
X031833Y023833D03*
X031333Y024333D03*
X030833Y023833D03*
X030333Y024333D03*
X029833Y023833D03*
X029333Y024333D03*
X028833Y023833D03*
X028333Y024333D03*
X028333Y023333D03*
X028833Y022833D03*
X029333Y023333D03*
X029833Y022833D03*
X030333Y023333D03*
X030833Y022833D03*
X031333Y023333D03*
X031833Y022833D03*
X032607Y021165D03*
X032141Y020865D03*
X033127Y020837D03*
X033383Y019984D03*
X033764Y019737D03*
X033383Y019452D03*
X032622Y019357D03*
X031880Y019471D03*
X031481Y019737D03*
X031880Y020002D03*
X032622Y020078D03*
X030739Y019718D03*
X030377Y019984D03*
X029673Y020097D03*
X029673Y019376D03*
X030377Y019452D03*
X028950Y019452D03*
X028531Y019737D03*
X028950Y020002D03*
X027789Y019699D03*
X027409Y019452D03*
X027428Y019984D03*
X029183Y020865D03*
X029621Y021193D03*
X030059Y020892D03*
X027833Y022833D03*
X027333Y022333D03*
X024333Y019333D03*
X023833Y018833D03*
X024333Y018333D03*
X023833Y017833D03*
X024333Y017333D03*
X023833Y016833D03*
X024333Y016333D03*
X023833Y015833D03*
X024333Y015333D03*
X023833Y014833D03*
X024333Y014333D03*
X023833Y013833D03*
X023333Y014333D03*
X022833Y014833D03*
X022333Y014333D03*
X022833Y013833D03*
X022333Y013333D03*
X022833Y012833D03*
X021833Y012833D03*
X021833Y013833D03*
X020837Y014538D03*
X021165Y015058D03*
X020865Y015524D03*
X020078Y015043D03*
X019357Y015043D03*
X019471Y015785D03*
X019737Y016185D03*
X020002Y015785D03*
X019718Y016927D03*
X019984Y017288D03*
X019452Y017288D03*
X019376Y017992D03*
X020097Y017992D03*
X020892Y017606D03*
X021193Y018044D03*
X020865Y018483D03*
X020002Y018715D03*
X019737Y019134D03*
X019452Y018715D03*
X019699Y019876D03*
X019452Y020256D03*
X019984Y020237D03*
X021357Y020455D03*
X021833Y019833D03*
X022333Y020333D03*
X022833Y019833D03*
X023333Y019333D03*
X022833Y018833D03*
X023333Y018333D03*
X022833Y017833D03*
X023333Y017333D03*
X022833Y016833D03*
X023333Y016333D03*
X022833Y015833D03*
X023333Y015333D03*
X022333Y015333D03*
X021833Y015833D03*
X022333Y016333D03*
X021833Y016833D03*
X022333Y017333D03*
X021833Y017833D03*
X022333Y018333D03*
X021833Y018833D03*
X022333Y019333D03*
X021833Y014833D03*
X019984Y014282D03*
X019737Y013901D03*
X019452Y014282D03*
X019756Y013140D03*
X020002Y012760D03*
X019471Y012779D03*
X021357Y009455D03*
X021833Y008833D03*
X022333Y009333D03*
X022833Y008833D03*
X023333Y008333D03*
X023833Y007833D03*
X024333Y007333D03*
X023833Y006833D03*
X024333Y006333D03*
X023833Y005833D03*
X024333Y005333D03*
X023833Y004833D03*
X024333Y004333D03*
X023833Y003833D03*
X024333Y003333D03*
X023833Y002833D03*
X023333Y003333D03*
X022833Y003833D03*
X022333Y003333D03*
X022833Y002833D03*
X022333Y002333D03*
X022833Y001833D03*
X021833Y001833D03*
X021833Y002833D03*
X020837Y003538D03*
X021165Y004058D03*
X020865Y004524D03*
X020078Y004043D03*
X019357Y004043D03*
X019471Y004785D03*
X019737Y005185D03*
X020002Y004785D03*
X019718Y005927D03*
X019984Y006288D03*
X019452Y006288D03*
X019376Y006992D03*
X020097Y006992D03*
X020865Y007483D03*
X021193Y007044D03*
X021833Y006833D03*
X022333Y007333D03*
X022833Y007833D03*
X023333Y007333D03*
X022833Y006833D03*
X023333Y006333D03*
X022833Y005833D03*
X023333Y005333D03*
X022833Y004833D03*
X023333Y004333D03*
X022333Y004333D03*
X021833Y004833D03*
X022333Y005333D03*
X021833Y005833D03*
X022333Y006333D03*
X020892Y006606D03*
X020002Y007715D03*
X019737Y008134D03*
X019452Y007715D03*
X019699Y008876D03*
X019452Y009256D03*
X019984Y009237D03*
X021833Y007833D03*
X022333Y008333D03*
X024333Y008333D03*
X021833Y003833D03*
X019984Y003282D03*
X019737Y002901D03*
X019452Y003282D03*
X019756Y002140D03*
X020002Y001760D03*
X019471Y001779D03*
X034887Y019471D03*
X034525Y019756D03*
X034906Y020002D03*
X021833Y029833D03*
X020865Y029483D03*
D20*
X017333Y030333D02*
X016187Y031478D01*
X015737Y031478D01*
X015733Y031483D01*
X014733Y031483D02*
X014733Y029933D01*
X017481Y027247D01*
X017333Y026333D02*
X017333Y024833D01*
X017333Y026333D02*
X013733Y029933D01*
X013733Y031483D01*
X012733Y031483D02*
X012383Y031833D01*
X008833Y031833D01*
X008961Y031704D01*
X008961Y031163D01*
X008833Y031833D02*
X008333Y031833D01*
X008079Y031579D01*
X005833Y031579D01*
X005934Y031477D01*
X005934Y029833D01*
X005833Y031579D02*
X002651Y031579D01*
X008333Y020833D02*
X008833Y020833D01*
X008961Y020704D01*
X008961Y020163D01*
X008333Y020833D02*
X008079Y020579D01*
X005833Y020579D01*
X005934Y020477D01*
X005934Y018833D01*
X005833Y020579D02*
X002651Y020579D01*
X008833Y020833D02*
X012383Y020833D01*
X012733Y020483D01*
X013733Y020483D02*
X013733Y018933D01*
X017333Y015333D01*
X017333Y013833D01*
X017481Y016247D02*
X014733Y018933D01*
X014733Y020483D01*
X015733Y020483D02*
X015737Y020478D01*
X016187Y020478D01*
X017333Y019333D01*
X027187Y016187D02*
X027187Y015737D01*
X027183Y015733D01*
X027187Y016187D02*
X028333Y017333D01*
X028733Y014733D02*
X031418Y017481D01*
X032333Y017333D02*
X033833Y017333D01*
X032333Y017333D02*
X028733Y013733D01*
X027183Y013733D01*
X027183Y014733D02*
X028733Y014733D01*
X027183Y012733D02*
X026833Y012383D01*
X026833Y008833D01*
X026961Y008961D01*
X027502Y008961D01*
X026833Y008833D02*
X026833Y008333D01*
X027087Y008079D01*
X027087Y005833D01*
X027188Y005934D01*
X028832Y005934D01*
X027087Y005833D02*
X027087Y002651D01*
X017333Y002833D02*
X017333Y004333D01*
X013733Y007933D01*
X013733Y009483D01*
X014733Y009483D02*
X014733Y007933D01*
X017481Y005247D01*
X017333Y008333D02*
X016187Y009478D01*
X015737Y009478D01*
X015733Y009483D01*
X012733Y009483D02*
X012383Y009833D01*
X008833Y009833D01*
X008961Y009704D01*
X008961Y009163D01*
X008833Y009833D02*
X008333Y009833D01*
X008079Y009579D01*
X005833Y009579D01*
X005934Y009477D01*
X005934Y007833D01*
X005833Y009579D02*
X002651Y009579D01*
M02*
