G75*
G70*
%OFA0B0*%
%FSLAX24Y24*%
%IPPOS*%
%LPD*%
%AMOC8*
5,1,8,0,0,1.08239X$1,22.5*
%
%ADD10C,0.0000*%
%ADD11R,0.0866X0.0236*%
%ADD12R,0.0709X0.0315*%
%ADD13R,0.0728X0.1181*%
%ADD14R,0.0630X0.0787*%
%ADD15OC8,0.0630*%
%ADD16R,0.0472X0.0315*%
%ADD17C,0.0600*%
%ADD18R,0.0600X0.0600*%
%ADD19OC8,0.0515*%
%ADD20C,0.0250*%
%ADD21C,0.0100*%
%ADD22C,0.0150*%
%ADD23C,0.0360*%
D10*
X000433Y000383D02*
X000433Y016879D01*
X020803Y016879D01*
X020803Y000383D01*
X000433Y000383D01*
X000583Y001233D02*
X000585Y001283D01*
X000591Y001333D01*
X000601Y001383D01*
X000614Y001431D01*
X000631Y001479D01*
X000652Y001525D01*
X000676Y001569D01*
X000704Y001611D01*
X000735Y001651D01*
X000769Y001688D01*
X000806Y001723D01*
X000845Y001754D01*
X000886Y001783D01*
X000930Y001808D01*
X000976Y001830D01*
X001023Y001848D01*
X001071Y001862D01*
X001120Y001873D01*
X001170Y001880D01*
X001220Y001883D01*
X001271Y001882D01*
X001321Y001877D01*
X001371Y001868D01*
X001419Y001856D01*
X001467Y001839D01*
X001513Y001819D01*
X001558Y001796D01*
X001601Y001769D01*
X001641Y001739D01*
X001679Y001706D01*
X001714Y001670D01*
X001747Y001631D01*
X001776Y001590D01*
X001802Y001547D01*
X001825Y001502D01*
X001844Y001455D01*
X001859Y001407D01*
X001871Y001358D01*
X001879Y001308D01*
X001883Y001258D01*
X001883Y001208D01*
X001879Y001158D01*
X001871Y001108D01*
X001859Y001059D01*
X001844Y001011D01*
X001825Y000964D01*
X001802Y000919D01*
X001776Y000876D01*
X001747Y000835D01*
X001714Y000796D01*
X001679Y000760D01*
X001641Y000727D01*
X001601Y000697D01*
X001558Y000670D01*
X001513Y000647D01*
X001467Y000627D01*
X001419Y000610D01*
X001371Y000598D01*
X001321Y000589D01*
X001271Y000584D01*
X001220Y000583D01*
X001170Y000586D01*
X001120Y000593D01*
X001071Y000604D01*
X001023Y000618D01*
X000976Y000636D01*
X000930Y000658D01*
X000886Y000683D01*
X000845Y000712D01*
X000806Y000743D01*
X000769Y000778D01*
X000735Y000815D01*
X000704Y000855D01*
X000676Y000897D01*
X000652Y000941D01*
X000631Y000987D01*
X000614Y001035D01*
X000601Y001083D01*
X000591Y001133D01*
X000585Y001183D01*
X000583Y001233D01*
X000583Y010083D02*
X000585Y010133D01*
X000591Y010183D01*
X000601Y010233D01*
X000614Y010281D01*
X000631Y010329D01*
X000652Y010375D01*
X000676Y010419D01*
X000704Y010461D01*
X000735Y010501D01*
X000769Y010538D01*
X000806Y010573D01*
X000845Y010604D01*
X000886Y010633D01*
X000930Y010658D01*
X000976Y010680D01*
X001023Y010698D01*
X001071Y010712D01*
X001120Y010723D01*
X001170Y010730D01*
X001220Y010733D01*
X001271Y010732D01*
X001321Y010727D01*
X001371Y010718D01*
X001419Y010706D01*
X001467Y010689D01*
X001513Y010669D01*
X001558Y010646D01*
X001601Y010619D01*
X001641Y010589D01*
X001679Y010556D01*
X001714Y010520D01*
X001747Y010481D01*
X001776Y010440D01*
X001802Y010397D01*
X001825Y010352D01*
X001844Y010305D01*
X001859Y010257D01*
X001871Y010208D01*
X001879Y010158D01*
X001883Y010108D01*
X001883Y010058D01*
X001879Y010008D01*
X001871Y009958D01*
X001859Y009909D01*
X001844Y009861D01*
X001825Y009814D01*
X001802Y009769D01*
X001776Y009726D01*
X001747Y009685D01*
X001714Y009646D01*
X001679Y009610D01*
X001641Y009577D01*
X001601Y009547D01*
X001558Y009520D01*
X001513Y009497D01*
X001467Y009477D01*
X001419Y009460D01*
X001371Y009448D01*
X001321Y009439D01*
X001271Y009434D01*
X001220Y009433D01*
X001170Y009436D01*
X001120Y009443D01*
X001071Y009454D01*
X001023Y009468D01*
X000976Y009486D01*
X000930Y009508D01*
X000886Y009533D01*
X000845Y009562D01*
X000806Y009593D01*
X000769Y009628D01*
X000735Y009665D01*
X000704Y009705D01*
X000676Y009747D01*
X000652Y009791D01*
X000631Y009837D01*
X000614Y009885D01*
X000601Y009933D01*
X000591Y009983D01*
X000585Y010033D01*
X000583Y010083D01*
X019333Y010083D02*
X019335Y010133D01*
X019341Y010183D01*
X019351Y010233D01*
X019364Y010281D01*
X019381Y010329D01*
X019402Y010375D01*
X019426Y010419D01*
X019454Y010461D01*
X019485Y010501D01*
X019519Y010538D01*
X019556Y010573D01*
X019595Y010604D01*
X019636Y010633D01*
X019680Y010658D01*
X019726Y010680D01*
X019773Y010698D01*
X019821Y010712D01*
X019870Y010723D01*
X019920Y010730D01*
X019970Y010733D01*
X020021Y010732D01*
X020071Y010727D01*
X020121Y010718D01*
X020169Y010706D01*
X020217Y010689D01*
X020263Y010669D01*
X020308Y010646D01*
X020351Y010619D01*
X020391Y010589D01*
X020429Y010556D01*
X020464Y010520D01*
X020497Y010481D01*
X020526Y010440D01*
X020552Y010397D01*
X020575Y010352D01*
X020594Y010305D01*
X020609Y010257D01*
X020621Y010208D01*
X020629Y010158D01*
X020633Y010108D01*
X020633Y010058D01*
X020629Y010008D01*
X020621Y009958D01*
X020609Y009909D01*
X020594Y009861D01*
X020575Y009814D01*
X020552Y009769D01*
X020526Y009726D01*
X020497Y009685D01*
X020464Y009646D01*
X020429Y009610D01*
X020391Y009577D01*
X020351Y009547D01*
X020308Y009520D01*
X020263Y009497D01*
X020217Y009477D01*
X020169Y009460D01*
X020121Y009448D01*
X020071Y009439D01*
X020021Y009434D01*
X019970Y009433D01*
X019920Y009436D01*
X019870Y009443D01*
X019821Y009454D01*
X019773Y009468D01*
X019726Y009486D01*
X019680Y009508D01*
X019636Y009533D01*
X019595Y009562D01*
X019556Y009593D01*
X019519Y009628D01*
X019485Y009665D01*
X019454Y009705D01*
X019426Y009747D01*
X019402Y009791D01*
X019381Y009837D01*
X019364Y009885D01*
X019351Y009933D01*
X019341Y009983D01*
X019335Y010033D01*
X019333Y010083D01*
X019383Y001233D02*
X019385Y001283D01*
X019391Y001333D01*
X019401Y001383D01*
X019414Y001431D01*
X019431Y001479D01*
X019452Y001525D01*
X019476Y001569D01*
X019504Y001611D01*
X019535Y001651D01*
X019569Y001688D01*
X019606Y001723D01*
X019645Y001754D01*
X019686Y001783D01*
X019730Y001808D01*
X019776Y001830D01*
X019823Y001848D01*
X019871Y001862D01*
X019920Y001873D01*
X019970Y001880D01*
X020020Y001883D01*
X020071Y001882D01*
X020121Y001877D01*
X020171Y001868D01*
X020219Y001856D01*
X020267Y001839D01*
X020313Y001819D01*
X020358Y001796D01*
X020401Y001769D01*
X020441Y001739D01*
X020479Y001706D01*
X020514Y001670D01*
X020547Y001631D01*
X020576Y001590D01*
X020602Y001547D01*
X020625Y001502D01*
X020644Y001455D01*
X020659Y001407D01*
X020671Y001358D01*
X020679Y001308D01*
X020683Y001258D01*
X020683Y001208D01*
X020679Y001158D01*
X020671Y001108D01*
X020659Y001059D01*
X020644Y001011D01*
X020625Y000964D01*
X020602Y000919D01*
X020576Y000876D01*
X020547Y000835D01*
X020514Y000796D01*
X020479Y000760D01*
X020441Y000727D01*
X020401Y000697D01*
X020358Y000670D01*
X020313Y000647D01*
X020267Y000627D01*
X020219Y000610D01*
X020171Y000598D01*
X020121Y000589D01*
X020071Y000584D01*
X020020Y000583D01*
X019970Y000586D01*
X019920Y000593D01*
X019871Y000604D01*
X019823Y000618D01*
X019776Y000636D01*
X019730Y000658D01*
X019686Y000683D01*
X019645Y000712D01*
X019606Y000743D01*
X019569Y000778D01*
X019535Y000815D01*
X019504Y000855D01*
X019476Y000897D01*
X019452Y000941D01*
X019431Y000987D01*
X019414Y001035D01*
X019401Y001083D01*
X019391Y001133D01*
X019385Y001183D01*
X019383Y001233D01*
D11*
X012413Y002429D03*
X012413Y002941D03*
X012413Y003433D03*
X012413Y003945D03*
X012413Y004437D03*
X012413Y004929D03*
X012413Y005441D03*
X012413Y005933D03*
X012413Y006425D03*
X012413Y006937D03*
X012413Y007429D03*
X012413Y007921D03*
X012413Y008433D03*
X012413Y008925D03*
X008574Y008925D03*
X008574Y008433D03*
X008574Y007921D03*
X008574Y007429D03*
X008574Y006937D03*
X008574Y006425D03*
X008574Y005933D03*
X008574Y005441D03*
X008574Y004929D03*
X008574Y004437D03*
X008574Y003945D03*
X008574Y003433D03*
X008574Y002941D03*
X008574Y002429D03*
D12*
X016329Y002277D03*
X016333Y003183D03*
X016329Y004089D03*
X016329Y005277D03*
X016333Y006183D03*
X016329Y007089D03*
X016329Y008227D03*
X016333Y009133D03*
X016329Y010039D03*
D13*
X018333Y009133D03*
X018333Y006183D03*
X018333Y003183D03*
D14*
X014885Y004683D03*
X013782Y004683D03*
X013782Y006183D03*
X014885Y006183D03*
X014885Y007733D03*
X013782Y007733D03*
X005585Y005983D03*
X004482Y005983D03*
X004482Y004933D03*
X005585Y004933D03*
X005585Y003883D03*
X004482Y003883D03*
D15*
X005283Y008033D03*
X005283Y010033D03*
D16*
X007333Y009679D03*
X007333Y010387D03*
X008183Y010387D03*
X009083Y010387D03*
X009083Y009679D03*
X008183Y009679D03*
D17*
X010833Y010133D03*
X011833Y010133D03*
X012833Y010133D03*
X009433Y015883D03*
X008433Y015883D03*
X007433Y015883D03*
X006433Y015883D03*
X005433Y015883D03*
X004433Y015883D03*
X003433Y015883D03*
X003433Y014383D03*
X003433Y013383D03*
X003433Y012383D03*
X005433Y012383D03*
X005433Y013383D03*
X005433Y014383D03*
X001433Y014383D03*
X001433Y013383D03*
X001433Y012383D03*
X002533Y009733D03*
X002533Y008733D03*
X001583Y007383D03*
X001583Y006383D03*
X001583Y005383D03*
X001583Y004383D03*
X001583Y003383D03*
X004283Y001233D03*
X005283Y001233D03*
X006283Y001233D03*
X007283Y001233D03*
X008283Y001233D03*
X009283Y001233D03*
X010283Y001233D03*
D18*
X003283Y001233D03*
X013833Y010133D03*
X010433Y015883D03*
X001433Y015383D03*
D19*
X008992Y014072D03*
X008992Y012694D03*
X018855Y012714D03*
D20*
X016124Y010033D02*
X014933Y010033D01*
X014433Y009383D01*
X009433Y009383D01*
X009138Y009679D01*
X008913Y009663D02*
X008353Y009663D01*
X007953Y009663D02*
X007553Y009663D01*
X007333Y009679D02*
X005688Y008033D01*
X005283Y008033D01*
X004583Y008733D01*
X002533Y008733D01*
X002533Y009733D02*
X002833Y010033D01*
X005283Y010033D01*
X005638Y010387D01*
X007333Y010387D01*
X007553Y010383D02*
X007953Y010383D01*
X008353Y010383D02*
X008913Y010383D01*
X009083Y010387D02*
X010579Y010387D01*
X010833Y010133D01*
X015533Y008233D02*
X016274Y008233D01*
X016274Y005283D02*
X015433Y005283D01*
X015433Y002283D02*
X016274Y002283D01*
D21*
X016329Y002277D01*
X016333Y003183D02*
X015633Y003183D01*
X014933Y003883D01*
X014933Y004634D01*
X014885Y004683D01*
X015433Y004083D02*
X015833Y004083D01*
X016329Y004089D01*
X016329Y005277D02*
X016274Y005283D01*
X016333Y006183D02*
X014885Y006183D01*
X013782Y006183D02*
X013532Y005933D01*
X012413Y005933D01*
X012413Y005441D02*
X013024Y005441D01*
X013782Y004683D01*
X013083Y004883D02*
X012887Y004929D01*
X012413Y004929D01*
X012413Y004437D02*
X012359Y004383D01*
X011433Y004383D01*
X010933Y002883D02*
X010933Y006383D01*
X011433Y006883D01*
X012359Y006883D01*
X012413Y006937D01*
X012366Y007383D02*
X012413Y007429D01*
X012366Y007383D02*
X011433Y007383D01*
X010433Y006383D01*
X010433Y002883D01*
X009283Y001733D01*
X009283Y001233D01*
X008283Y001233D02*
X009933Y002883D01*
X009933Y006383D01*
X011433Y007883D01*
X012374Y007883D01*
X012413Y007921D01*
X012363Y008383D02*
X012413Y008433D01*
X012363Y008383D02*
X010933Y008383D01*
X010433Y007883D02*
X009433Y006883D01*
X009433Y005883D01*
X008991Y005441D01*
X008876Y005441D01*
X009433Y004883D01*
X008876Y005441D02*
X008574Y005441D01*
X007933Y006383D02*
X007433Y006883D01*
X007433Y007883D01*
X007983Y008433D01*
X008574Y008433D01*
X008524Y008383D01*
X008532Y008883D02*
X008574Y008925D01*
X007433Y008933D01*
X006933Y008383D01*
X006933Y006383D01*
X007433Y005883D01*
X007433Y004383D01*
X007933Y003883D02*
X007933Y006383D01*
X006933Y005383D02*
X006933Y003383D01*
X007433Y002883D01*
X008516Y002883D01*
X008574Y002941D01*
X008574Y002429D02*
X007979Y002429D01*
X007883Y002533D01*
X007433Y002883D02*
X006933Y002883D01*
X006283Y002233D01*
X006283Y001233D01*
X007283Y001233D02*
X007378Y001233D01*
X008574Y002429D01*
X007433Y003383D02*
X007933Y003883D01*
X006433Y003883D02*
X005585Y003883D01*
X004585Y002883D01*
X003933Y003383D02*
X003933Y001583D01*
X004283Y001233D01*
X003433Y002883D02*
X001933Y002883D01*
X001583Y003233D01*
X001583Y003383D01*
X001583Y004383D02*
X004482Y004383D01*
X004482Y004933D01*
X004513Y005263D01*
X004513Y005663D01*
X004482Y005983D01*
X004433Y006032D01*
X004433Y006883D01*
X005283Y007733D01*
X005283Y008033D01*
X003933Y007183D02*
X003633Y007183D01*
X003433Y007383D01*
X001583Y007383D01*
X000933Y008383D02*
X000933Y005883D01*
X001583Y005383D01*
X003933Y003383D02*
X004433Y003883D01*
X004482Y003883D01*
X004482Y004383D01*
X005585Y004933D02*
X005635Y004883D01*
X006433Y004883D01*
X006933Y005383D02*
X006333Y005983D01*
X005585Y005983D01*
X009733Y008183D02*
X010433Y008883D01*
X012370Y008883D01*
X012413Y008925D01*
X012833Y008863D01*
X013782Y007733D02*
X013433Y007384D01*
X013433Y006883D01*
X012976Y006425D01*
X012413Y006425D01*
X014885Y007733D02*
X014885Y008834D01*
X015183Y009133D01*
X016333Y009133D01*
X016274Y008233D02*
X016329Y008227D01*
X018333Y008983D02*
X018433Y008883D01*
X018333Y008983D02*
X018333Y009133D01*
X016329Y010039D02*
X016124Y010033D01*
X018433Y006383D02*
X018433Y006283D01*
X018333Y006183D01*
X010933Y002883D02*
X010283Y002233D01*
X010283Y001233D01*
X002283Y009733D02*
X000933Y008383D01*
X002283Y009733D02*
X002533Y009733D01*
X003433Y012383D02*
X002433Y013383D01*
X001433Y013383D01*
X007333Y010387D02*
X007553Y010383D01*
X007953Y010383D02*
X008183Y010387D01*
X008353Y010383D01*
X008913Y010383D02*
X009083Y010387D01*
X009083Y009679D02*
X008913Y009663D01*
X009083Y009679D02*
X009138Y009679D01*
X008353Y009663D02*
X008183Y009679D01*
X007953Y009663D01*
X007553Y009663D02*
X007333Y009679D01*
X008992Y012694D02*
X008992Y012824D01*
X008433Y013383D01*
X008433Y015883D01*
X009122Y014072D02*
X010433Y015383D01*
X010433Y015883D01*
X009122Y014072D02*
X008992Y014072D01*
D22*
X016329Y010039D02*
X017778Y010039D01*
X018433Y009383D01*
X018433Y008883D01*
X018933Y008383D01*
X018933Y006883D01*
X018433Y006383D01*
X017728Y007089D01*
X016329Y007089D01*
X018333Y006183D02*
X018933Y005383D01*
X018933Y003883D01*
X018433Y003383D01*
X018333Y003383D02*
X018933Y002383D01*
X019033Y002883D01*
X019033Y003383D01*
X018933Y003883D01*
X018333Y003383D02*
X017628Y004089D01*
X016329Y004089D01*
X018333Y003383D02*
X018333Y003183D01*
X018933Y005383D02*
X019033Y005883D01*
X019033Y006383D01*
X018933Y006883D01*
X018933Y008383D02*
X019033Y008883D01*
X019033Y009383D01*
X018933Y009883D01*
X018433Y009383D01*
D23*
X019033Y009383D03*
X019033Y008883D03*
X018933Y008383D03*
X018933Y007883D03*
X018933Y007383D03*
X018933Y006883D03*
X019033Y006383D03*
X019033Y005883D03*
X018933Y005383D03*
X018933Y004883D03*
X018933Y004383D03*
X018933Y003883D03*
X019033Y003383D03*
X019033Y002883D03*
X018933Y002383D03*
X015433Y002283D03*
X015433Y004083D03*
X015433Y005283D03*
X013083Y004883D03*
X011433Y004383D03*
X009433Y004883D03*
X007433Y004383D03*
X006433Y003883D03*
X007433Y003383D03*
X007883Y002533D03*
X006433Y004883D03*
X004585Y002883D03*
X003433Y002883D03*
X003933Y007183D03*
X009733Y008183D03*
X010433Y007883D03*
X010933Y008383D03*
X015533Y008233D03*
X018933Y009883D03*
M02*
