G75*
G70*
%OFA0B0*%
%FSLAX24Y24*%
%IPPOS*%
%LPD*%
%AMOC8*
5,1,8,0,0,1.08239X$1,22.5*
%
%ADD10R,0.0315X0.0709*%
%ADD11R,0.1181X0.0728*%
%ADD12R,0.0787X0.0630*%
%ADD13R,0.0315X0.0472*%
%ADD14R,0.0137X0.0550*%
%ADD15R,0.0709X0.0315*%
%ADD16R,0.0728X0.1181*%
%ADD17R,0.0630X0.0787*%
%ADD18R,0.0472X0.0315*%
%ADD19R,0.0550X0.0137*%
D10*
X027277Y018729D03*
X028183Y018733D03*
X029088Y018729D03*
X030227Y018729D03*
X031133Y018733D03*
X032038Y018729D03*
X033227Y018729D03*
X034133Y018733D03*
X035038Y018729D03*
D11*
X034133Y020733D03*
X031133Y020733D03*
X028183Y020733D03*
D12*
X029183Y016734D03*
X030283Y016734D03*
X031383Y016734D03*
X031383Y015631D03*
X030283Y015631D03*
X029183Y015631D03*
X030427Y008165D03*
X030427Y007063D03*
X031733Y007081D03*
X031733Y008184D03*
X032983Y008184D03*
X032983Y007081D03*
D13*
X029137Y012233D03*
X028428Y012233D03*
X028428Y013083D03*
X029137Y013083D03*
X029137Y013983D03*
X028428Y013983D03*
X032578Y015833D03*
X033287Y015833D03*
D14*
X033240Y014272D03*
X032984Y014272D03*
X032728Y014272D03*
X032472Y014272D03*
X032216Y014272D03*
X031961Y014272D03*
X031705Y014272D03*
X031449Y014272D03*
X031193Y014272D03*
X030937Y014272D03*
X030681Y014272D03*
X030425Y014272D03*
X030169Y014272D03*
X033496Y014272D03*
X033496Y011393D03*
X033240Y011393D03*
X032984Y011393D03*
X032728Y011393D03*
X032472Y011393D03*
X032216Y011393D03*
X031961Y011393D03*
X031705Y011393D03*
X031449Y011393D03*
X031193Y011393D03*
X030937Y011393D03*
X030681Y011393D03*
X030425Y011393D03*
X030169Y011393D03*
D15*
X018729Y012627D03*
X018733Y013533D03*
X018729Y014438D03*
X018729Y015627D03*
X018733Y016533D03*
X018729Y017438D03*
X018729Y018577D03*
X018733Y019483D03*
X018729Y020388D03*
X018729Y023627D03*
X018733Y024533D03*
X018729Y025438D03*
X018729Y026627D03*
X018733Y027533D03*
X018729Y028438D03*
X018729Y029577D03*
X018733Y030483D03*
X018729Y031388D03*
X018729Y009388D03*
X018733Y008483D03*
X018729Y007577D03*
X018729Y006438D03*
X018733Y005533D03*
X018729Y004627D03*
X018729Y003438D03*
X018733Y002533D03*
X018729Y001627D03*
D16*
X020733Y002533D03*
X020733Y005533D03*
X020733Y008483D03*
X020733Y013533D03*
X020733Y016533D03*
X020733Y019483D03*
X020733Y024533D03*
X020733Y027533D03*
X020733Y030483D03*
D17*
X007081Y003683D03*
X008184Y003683D03*
X008184Y004933D03*
X007081Y004933D03*
X007063Y006238D03*
X008165Y006238D03*
X015631Y006383D03*
X016734Y006383D03*
X016734Y007483D03*
X015631Y007483D03*
X015631Y005283D03*
X016734Y005283D03*
X008184Y014683D03*
X007081Y014683D03*
X007081Y015933D03*
X008184Y015933D03*
X008165Y017238D03*
X007063Y017238D03*
X015631Y017383D03*
X016734Y017383D03*
X016734Y018483D03*
X015631Y018483D03*
X015631Y016283D03*
X016734Y016283D03*
X008184Y025683D03*
X007081Y025683D03*
X007081Y026933D03*
X008184Y026933D03*
X008165Y028238D03*
X007063Y028238D03*
X015631Y028383D03*
X016734Y028383D03*
X016734Y027283D03*
X015631Y027283D03*
X015631Y029483D03*
X016734Y029483D03*
D18*
X013983Y029528D03*
X013983Y030237D03*
X013083Y030237D03*
X013083Y029528D03*
X012233Y029528D03*
X012233Y030237D03*
X015833Y026087D03*
X015833Y025378D03*
X013983Y019237D03*
X013983Y018528D03*
X013083Y018528D03*
X013083Y019237D03*
X012233Y019237D03*
X012233Y018528D03*
X015833Y015087D03*
X015833Y014378D03*
X013983Y008237D03*
X013983Y007528D03*
X013083Y007528D03*
X013083Y008237D03*
X012233Y008237D03*
X012233Y007528D03*
X015833Y004087D03*
X015833Y003378D03*
D19*
X014272Y003425D03*
X014272Y003169D03*
X014272Y003681D03*
X014272Y003937D03*
X014272Y004193D03*
X014272Y004449D03*
X014272Y004705D03*
X014272Y004961D03*
X014272Y005216D03*
X014272Y005472D03*
X014272Y005728D03*
X014272Y005984D03*
X014272Y006240D03*
X014272Y006496D03*
X011393Y006496D03*
X011393Y006240D03*
X011393Y005984D03*
X011393Y005728D03*
X011393Y005472D03*
X011393Y005216D03*
X011393Y004961D03*
X011393Y004705D03*
X011393Y004449D03*
X011393Y004193D03*
X011393Y003937D03*
X011393Y003681D03*
X011393Y003425D03*
X011393Y003169D03*
X011393Y014169D03*
X011393Y014425D03*
X011393Y014681D03*
X011393Y014937D03*
X011393Y015193D03*
X011393Y015449D03*
X011393Y015705D03*
X011393Y015961D03*
X011393Y016216D03*
X011393Y016472D03*
X011393Y016728D03*
X011393Y016984D03*
X011393Y017240D03*
X011393Y017496D03*
X014272Y017496D03*
X014272Y017240D03*
X014272Y016984D03*
X014272Y016728D03*
X014272Y016472D03*
X014272Y016216D03*
X014272Y015961D03*
X014272Y015705D03*
X014272Y015449D03*
X014272Y015193D03*
X014272Y014937D03*
X014272Y014681D03*
X014272Y014425D03*
X014272Y014169D03*
X014272Y025169D03*
X014272Y025425D03*
X014272Y025681D03*
X014272Y025937D03*
X014272Y026193D03*
X014272Y026449D03*
X014272Y026705D03*
X014272Y026961D03*
X014272Y027216D03*
X014272Y027472D03*
X014272Y027728D03*
X014272Y027984D03*
X014272Y028240D03*
X014272Y028496D03*
X011393Y028496D03*
X011393Y028240D03*
X011393Y027984D03*
X011393Y027728D03*
X011393Y027472D03*
X011393Y027216D03*
X011393Y026961D03*
X011393Y026705D03*
X011393Y026449D03*
X011393Y026193D03*
X011393Y025937D03*
X011393Y025681D03*
X011393Y025425D03*
X011393Y025169D03*
M02*
