G75*
G70*
%OFA0B0*%
%FSLAX24Y24*%
%IPPOS*%
%LPD*%
%AMOC8*
5,1,8,0,0,1.08239X$1,22.5*
%
%ADD10C,0.0160*%
%ADD11C,0.0060*%
%ADD12C,0.0070*%
%ADD13C,0.0080*%
%ADD14C,0.0050*%
D10*
X000181Y000181D02*
X022181Y000181D01*
X022181Y004181D01*
X000181Y004181D01*
X000181Y000181D01*
X000181Y004681D02*
X022181Y004681D01*
X022181Y008681D01*
X000181Y008681D01*
X000181Y004681D01*
X000181Y009181D02*
X022181Y009181D01*
X022181Y013181D01*
X000181Y013181D01*
X000181Y009181D01*
X000181Y013681D02*
X000181Y017681D01*
X022181Y017681D01*
X022181Y013681D01*
X000181Y013681D01*
X000181Y018181D02*
X022181Y018181D01*
X022181Y022181D01*
X000181Y022181D01*
X000181Y018181D01*
X000181Y022681D02*
X022181Y022681D01*
X022181Y026681D01*
X000181Y026681D01*
X000181Y022681D01*
X000181Y027181D02*
X022181Y027181D01*
X022181Y031181D01*
X000181Y031181D01*
X000181Y027181D01*
X022681Y031181D02*
X022681Y022681D01*
X040181Y022681D01*
X040181Y031181D01*
X022681Y031181D01*
X022681Y022181D02*
X022681Y000181D01*
X026681Y000181D01*
X026681Y022181D01*
X022681Y022181D01*
X027181Y022181D02*
X031181Y022181D01*
X031181Y000181D01*
X027181Y000181D01*
X027181Y022181D01*
X031681Y022181D02*
X035681Y022181D01*
X035681Y000181D01*
X031681Y000181D01*
X031681Y022181D01*
X036181Y022181D02*
X036181Y000181D01*
X040181Y000181D01*
X040181Y022181D01*
X036181Y022181D01*
D11*
X036095Y023211D02*
X035775Y023211D01*
X035668Y023318D01*
X035668Y023532D01*
X035775Y023638D01*
X036095Y023638D01*
X036095Y023852D02*
X036095Y023211D01*
X036313Y023318D02*
X036313Y023532D01*
X036420Y023638D01*
X036633Y023638D01*
X036740Y023532D01*
X036740Y023425D01*
X036313Y023425D01*
X036313Y023318D02*
X036420Y023211D01*
X036633Y023211D01*
X036957Y023211D02*
X036957Y023638D01*
X036957Y023425D02*
X037171Y023638D01*
X037278Y023638D01*
X037494Y023318D02*
X037601Y023318D01*
X037601Y023211D01*
X037494Y023211D01*
X037494Y023318D01*
X037817Y023318D02*
X037817Y023532D01*
X037923Y023638D01*
X038244Y023638D01*
X038461Y023532D02*
X038461Y023318D01*
X038568Y023211D01*
X038781Y023211D01*
X038888Y023318D01*
X038888Y023532D01*
X038781Y023638D01*
X038568Y023638D01*
X038461Y023532D01*
X038244Y023211D02*
X037923Y023211D01*
X037817Y023318D01*
X039106Y023211D02*
X039106Y023638D01*
X039213Y023638D01*
X039319Y023532D01*
X039426Y023638D01*
X039533Y023532D01*
X039533Y023211D01*
X039319Y023211D02*
X039319Y023532D01*
X035451Y023532D02*
X035451Y023211D01*
X035451Y023532D02*
X035344Y023638D01*
X035024Y023638D01*
X035024Y023211D01*
X034806Y023318D02*
X034806Y023532D01*
X034700Y023638D01*
X034486Y023638D01*
X034379Y023532D01*
X034379Y023318D01*
X034486Y023211D01*
X034700Y023211D01*
X034806Y023318D01*
X034162Y023318D02*
X034162Y023638D01*
X034162Y023318D02*
X034055Y023211D01*
X033948Y023318D01*
X033841Y023211D01*
X033735Y023318D01*
X033735Y023638D01*
X033519Y023638D02*
X033305Y023638D01*
X033412Y023745D02*
X033412Y023318D01*
X033519Y023211D01*
X033089Y023211D02*
X032875Y023211D01*
X032982Y023211D02*
X032982Y023638D01*
X032875Y023638D01*
X032982Y023852D02*
X032982Y023959D01*
X032658Y023532D02*
X032551Y023638D01*
X032231Y023638D01*
X032231Y023852D02*
X032231Y023211D01*
X032551Y023211D01*
X032658Y023318D01*
X032658Y023532D01*
X032013Y023532D02*
X032013Y023211D01*
X032013Y023532D02*
X031907Y023638D01*
X031586Y023638D01*
X031586Y023211D01*
X030942Y023211D02*
X031369Y023852D01*
X030724Y023852D02*
X030297Y023211D01*
X030082Y023211D02*
X029975Y023211D01*
X029975Y023318D01*
X030082Y023318D01*
X030082Y023211D01*
X030082Y023532D02*
X029975Y023532D01*
X029975Y023638D01*
X030082Y023638D01*
X030082Y023532D01*
X029758Y023532D02*
X029758Y023318D01*
X029651Y023211D01*
X029331Y023211D01*
X029331Y022998D02*
X029331Y023638D01*
X029651Y023638D01*
X029758Y023532D01*
X029114Y023638D02*
X028901Y023638D01*
X029008Y023745D02*
X029008Y023318D01*
X029114Y023211D01*
X028685Y023211D02*
X028578Y023318D01*
X028578Y023745D01*
X028471Y023638D02*
X028685Y023638D01*
X028254Y023532D02*
X028254Y023211D01*
X028254Y023532D02*
X028147Y023638D01*
X027933Y023638D01*
X027827Y023532D01*
X027827Y023852D02*
X027827Y023211D01*
X026967Y023211D02*
X026860Y023211D01*
X026860Y023318D01*
X026967Y023318D01*
X026967Y023211D01*
X026967Y023532D02*
X026860Y023532D01*
X026860Y023638D01*
X026967Y023638D01*
X026967Y023532D01*
X026642Y023532D02*
X026642Y023425D01*
X026215Y023425D01*
X026215Y023318D02*
X026215Y023532D01*
X026322Y023638D01*
X026536Y023638D01*
X026642Y023532D01*
X026536Y023211D02*
X026322Y023211D01*
X026215Y023318D01*
X025999Y023211D02*
X025892Y023318D01*
X025892Y023745D01*
X025786Y023638D02*
X025999Y023638D01*
X025463Y023638D02*
X025463Y023211D01*
X025569Y023211D02*
X025356Y023211D01*
X025138Y023318D02*
X025032Y023211D01*
X024818Y023211D01*
X024711Y023318D01*
X024818Y023532D02*
X025032Y023532D01*
X025138Y023425D01*
X025138Y023318D01*
X024818Y023532D02*
X024711Y023638D01*
X024711Y023745D01*
X024818Y023852D01*
X025032Y023852D01*
X025138Y023745D01*
X025356Y023638D02*
X025463Y023638D01*
X025463Y023852D02*
X025463Y023959D01*
X029116Y027498D02*
X029329Y027711D01*
X029222Y027711D01*
X029222Y027818D01*
X029329Y027818D01*
X029329Y027711D01*
X029545Y027711D02*
X029545Y028352D01*
X029972Y027711D01*
X029972Y028352D01*
X030190Y028352D02*
X030510Y028352D01*
X030617Y028245D01*
X030617Y028138D01*
X030510Y028032D01*
X030190Y028032D01*
X030190Y028352D02*
X030190Y027711D01*
X030510Y027711D01*
X030617Y027818D01*
X030617Y027925D01*
X030510Y028032D01*
X030834Y028138D02*
X030941Y028138D01*
X030941Y027711D01*
X030834Y027711D02*
X031048Y027711D01*
X031371Y027818D02*
X031478Y027711D01*
X031371Y027818D02*
X031371Y028245D01*
X031264Y028138D02*
X031478Y028138D01*
X031694Y028352D02*
X031694Y027711D01*
X031907Y027925D01*
X032121Y027711D01*
X032121Y028352D01*
X032338Y028032D02*
X032338Y027818D01*
X032445Y027711D01*
X032659Y027711D01*
X032765Y027818D01*
X032765Y028032D01*
X032659Y028138D01*
X032445Y028138D01*
X032338Y028032D01*
X032983Y028138D02*
X032983Y027711D01*
X033410Y027711D02*
X033410Y028032D01*
X033303Y028138D01*
X032983Y028138D01*
X033627Y028032D02*
X033627Y027818D01*
X033734Y027711D01*
X034054Y027711D01*
X034054Y028352D01*
X034054Y028138D02*
X033734Y028138D01*
X033627Y028032D01*
X034272Y028032D02*
X034272Y027818D01*
X034379Y027711D01*
X034592Y027711D01*
X034699Y027925D02*
X034272Y027925D01*
X034272Y028032D02*
X034379Y028138D01*
X034592Y028138D01*
X034699Y028032D01*
X034699Y027925D01*
X034916Y027925D02*
X035130Y028138D01*
X035237Y028138D01*
X034916Y028138D02*
X034916Y027711D01*
X032550Y029105D02*
X032550Y029638D01*
X032123Y029638D02*
X032123Y029318D01*
X032230Y029211D01*
X032550Y029211D01*
X032550Y029105D02*
X032444Y028998D01*
X032337Y028998D01*
X031906Y029425D02*
X031479Y029425D01*
X031479Y029318D02*
X031479Y029532D01*
X031586Y029638D01*
X031799Y029638D01*
X031906Y029532D01*
X031906Y029425D01*
X031799Y029211D02*
X031586Y029211D01*
X031479Y029318D01*
X031263Y029211D02*
X031049Y029211D01*
X031156Y029211D02*
X031156Y029852D01*
X031049Y029852D01*
X030832Y029852D02*
X030832Y029211D01*
X030511Y029211D01*
X030405Y029318D01*
X030405Y029532D01*
X030511Y029638D01*
X030832Y029638D01*
X030187Y029532D02*
X030187Y029211D01*
X029867Y029211D01*
X029760Y029318D01*
X029867Y029425D01*
X030187Y029425D01*
X030187Y029532D02*
X030080Y029638D01*
X029867Y029638D01*
X029543Y029532D02*
X029116Y029532D01*
X029116Y029852D02*
X029116Y029211D01*
X029543Y029211D02*
X029543Y029852D01*
X028254Y029532D02*
X028254Y029425D01*
X027827Y029425D01*
X027827Y029318D02*
X027827Y029532D01*
X027933Y029638D01*
X028147Y029638D01*
X028254Y029532D01*
X028147Y029211D02*
X027933Y029211D01*
X027827Y029318D01*
X027609Y029211D02*
X027289Y029211D01*
X027182Y029318D01*
X027182Y029532D01*
X027289Y029638D01*
X027609Y029638D01*
X027609Y029105D01*
X027502Y028998D01*
X027396Y028998D01*
X026645Y029211D02*
X026645Y029638D01*
X026645Y029425D02*
X026859Y029638D01*
X026965Y029638D01*
X026427Y029532D02*
X026427Y029318D01*
X026321Y029211D01*
X026107Y029211D01*
X026000Y029318D01*
X026000Y029532D01*
X026107Y029638D01*
X026321Y029638D01*
X026427Y029532D01*
X025783Y029532D02*
X025783Y029425D01*
X025356Y029425D01*
X025356Y029318D02*
X025356Y029532D01*
X025463Y029638D01*
X025676Y029638D01*
X025783Y029532D01*
X025676Y029211D02*
X025463Y029211D01*
X025356Y029318D01*
X025138Y029318D02*
X025138Y029532D01*
X024925Y029532D01*
X025138Y029745D02*
X025032Y029852D01*
X024818Y029852D01*
X024711Y029745D01*
X024711Y029318D01*
X024818Y029211D01*
X025032Y029211D01*
X025138Y029318D01*
X025138Y028352D02*
X024711Y028352D01*
X024711Y027711D01*
X024711Y028032D02*
X024925Y028032D01*
X025356Y028032D02*
X025356Y027818D01*
X025463Y027711D01*
X025676Y027711D01*
X025783Y027818D01*
X025783Y028032D01*
X025676Y028138D01*
X025463Y028138D01*
X025356Y028032D01*
X026000Y028138D02*
X026000Y027818D01*
X026107Y027711D01*
X026427Y027711D01*
X026427Y028138D01*
X026645Y028138D02*
X026645Y027711D01*
X027072Y027711D02*
X027072Y028032D01*
X026965Y028138D01*
X026645Y028138D01*
X027290Y028032D02*
X027290Y027818D01*
X027396Y027711D01*
X027717Y027711D01*
X027717Y028352D01*
X027717Y028138D02*
X027396Y028138D01*
X027290Y028032D01*
X027934Y028032D02*
X027934Y027818D01*
X028041Y027711D01*
X028254Y027711D01*
X028361Y027925D02*
X027934Y027925D01*
X027934Y028032D02*
X028041Y028138D01*
X028254Y028138D01*
X028361Y028032D01*
X028361Y027925D01*
X028579Y027925D02*
X028792Y028138D01*
X028899Y028138D01*
X028579Y028138D02*
X028579Y027711D01*
X030941Y028352D02*
X030941Y028459D01*
D12*
X030510Y026847D02*
X030300Y026847D01*
X030195Y026742D01*
X030195Y026637D01*
X030300Y026532D01*
X030615Y026532D01*
X030615Y026742D02*
X030615Y026321D01*
X030510Y026216D01*
X030300Y026216D01*
X030195Y026321D01*
X029971Y026216D02*
X029550Y026216D01*
X029761Y026216D02*
X029761Y026847D01*
X029550Y026637D01*
X029326Y026532D02*
X028906Y026532D01*
X029221Y026847D01*
X029221Y026216D01*
X029226Y025137D02*
X029436Y025137D01*
X029541Y025032D01*
X029541Y024927D01*
X029121Y024927D01*
X029121Y025032D02*
X029226Y025137D01*
X029121Y025032D02*
X029121Y024821D01*
X029226Y024716D01*
X029436Y024716D01*
X029765Y024821D02*
X029870Y024716D01*
X030080Y024716D01*
X030186Y024821D01*
X030186Y025032D01*
X030080Y025137D01*
X029870Y025137D01*
X029765Y025032D01*
X029765Y024821D01*
X030410Y024716D02*
X030410Y025137D01*
X030620Y025137D02*
X030725Y025137D01*
X030620Y025137D02*
X030410Y024927D01*
X030947Y025032D02*
X031052Y025137D01*
X031367Y025137D01*
X031367Y024611D01*
X031262Y024506D01*
X031157Y024506D01*
X031052Y024716D02*
X031367Y024716D01*
X031591Y024821D02*
X031591Y025032D01*
X031696Y025137D01*
X031907Y025137D01*
X032012Y025032D01*
X032012Y024927D01*
X031591Y024927D01*
X031591Y024821D02*
X031696Y024716D01*
X031907Y024716D01*
X032236Y024821D02*
X032236Y025242D01*
X032341Y025347D01*
X032551Y025347D01*
X032656Y025242D01*
X032656Y025032D01*
X032551Y024927D01*
X032551Y025137D01*
X032341Y025137D01*
X032341Y024927D01*
X032551Y024927D01*
X032656Y024821D02*
X032551Y024716D01*
X032341Y024716D01*
X032236Y024821D01*
X032880Y024716D02*
X032880Y025137D01*
X033196Y025137D01*
X033301Y025032D01*
X033301Y024716D01*
X033525Y024716D02*
X033840Y024716D01*
X033945Y024821D01*
X033945Y025032D01*
X033840Y025137D01*
X033525Y025137D01*
X033525Y025347D02*
X033525Y024716D01*
X034169Y024716D02*
X034380Y024716D01*
X034275Y024716D02*
X034275Y025137D01*
X034169Y025137D01*
X034275Y025347D02*
X034275Y025452D01*
X034599Y025137D02*
X034809Y025137D01*
X034704Y025242D02*
X034704Y024821D01*
X034809Y024716D01*
X035029Y024821D02*
X035134Y024716D01*
X035239Y024821D01*
X035344Y024716D01*
X035449Y024821D01*
X035449Y025137D01*
X035673Y025032D02*
X035673Y024821D01*
X035778Y024716D01*
X035989Y024716D01*
X036094Y024821D01*
X036094Y025032D01*
X035989Y025137D01*
X035778Y025137D01*
X035673Y025032D01*
X036318Y025137D02*
X036318Y024716D01*
X036738Y024716D02*
X036738Y025032D01*
X036633Y025137D01*
X036318Y025137D01*
X036962Y025032D02*
X037067Y025137D01*
X037383Y025137D01*
X037383Y025347D02*
X037383Y024716D01*
X037067Y024716D01*
X036962Y024821D01*
X036962Y025032D01*
X037607Y025032D02*
X037712Y025137D01*
X037922Y025137D01*
X038027Y025032D01*
X038027Y024927D01*
X037607Y024927D01*
X037607Y025032D02*
X037607Y024821D01*
X037712Y024716D01*
X037922Y024716D01*
X038251Y024716D02*
X038251Y025137D01*
X038251Y024927D02*
X038462Y025137D01*
X038567Y025137D01*
X038789Y024821D02*
X038894Y024821D01*
X038894Y024716D01*
X038789Y024716D01*
X038789Y024821D01*
X039111Y024821D02*
X039216Y024716D01*
X039531Y024716D01*
X039755Y024821D02*
X039860Y024716D01*
X040071Y024716D01*
X040176Y024821D01*
X040176Y025032D01*
X040071Y025137D01*
X039860Y025137D01*
X039755Y025032D01*
X039755Y024821D01*
X039531Y025137D02*
X039216Y025137D01*
X039111Y025032D01*
X039111Y024821D01*
X040400Y024716D02*
X040400Y025137D01*
X040505Y025137D01*
X040610Y025032D01*
X040715Y025137D01*
X040820Y025032D01*
X040820Y024716D01*
X040610Y024716D02*
X040610Y025032D01*
X036416Y026321D02*
X036311Y026216D01*
X036101Y026216D01*
X035996Y026321D01*
X035771Y026321D02*
X035666Y026216D01*
X035456Y026216D01*
X035351Y026321D01*
X035771Y026742D01*
X035771Y026321D01*
X035351Y026321D02*
X035351Y026742D01*
X035456Y026847D01*
X035666Y026847D01*
X035771Y026742D01*
X035996Y026742D02*
X036101Y026847D01*
X036311Y026847D01*
X036416Y026742D01*
X036416Y026637D01*
X036311Y026532D01*
X036416Y026427D01*
X036416Y026321D01*
X036311Y026532D02*
X036206Y026532D01*
X035127Y026637D02*
X035022Y026532D01*
X034812Y026532D01*
X034707Y026637D01*
X034707Y026742D01*
X034812Y026847D01*
X035022Y026847D01*
X035127Y026742D01*
X035127Y026637D01*
X035022Y026532D02*
X035127Y026427D01*
X035127Y026321D01*
X035022Y026216D01*
X034812Y026216D01*
X034707Y026321D01*
X034707Y026427D01*
X034812Y026532D01*
X034482Y026742D02*
X034482Y026321D01*
X034377Y026216D01*
X034167Y026216D01*
X034062Y026321D01*
X034482Y026742D01*
X034377Y026847D01*
X034167Y026847D01*
X034062Y026742D01*
X034062Y026321D01*
X033838Y026532D02*
X033418Y026532D01*
X033193Y026637D02*
X033193Y026742D01*
X033088Y026847D01*
X032878Y026847D01*
X032773Y026742D01*
X032549Y026847D02*
X032339Y026742D01*
X032128Y026532D01*
X032444Y026532D01*
X032549Y026427D01*
X032549Y026321D01*
X032444Y026216D01*
X032234Y026216D01*
X032128Y026321D01*
X032128Y026532D01*
X031904Y026637D02*
X031904Y026742D01*
X031799Y026847D01*
X031589Y026847D01*
X031484Y026742D01*
X031260Y026532D02*
X030839Y026532D01*
X030615Y026742D02*
X030510Y026847D01*
X031484Y026216D02*
X031904Y026637D01*
X031904Y026216D02*
X031484Y026216D01*
X032773Y026216D02*
X033193Y026637D01*
X033193Y026216D02*
X032773Y026216D01*
X030947Y025032D02*
X030947Y024821D01*
X031052Y024716D01*
X028896Y024716D02*
X028581Y024716D01*
X028476Y024821D01*
X028476Y025032D01*
X028581Y025137D01*
X028896Y025137D01*
X028896Y024611D01*
X028791Y024506D01*
X028686Y024506D01*
X027614Y024716D02*
X027509Y024716D01*
X027509Y024821D01*
X027614Y024821D01*
X027614Y024716D01*
X027614Y025032D02*
X027509Y025032D01*
X027509Y025137D01*
X027614Y025137D01*
X027614Y025032D01*
X027290Y024716D02*
X027080Y024716D01*
X027185Y024716D02*
X027185Y025347D01*
X027080Y025347D01*
X026755Y025347D02*
X026755Y025452D01*
X026755Y025137D02*
X026755Y024716D01*
X026650Y024716D02*
X026860Y024716D01*
X026426Y024716D02*
X026426Y025032D01*
X026321Y025137D01*
X026111Y025137D01*
X026111Y024927D02*
X026426Y024927D01*
X026426Y024716D02*
X026111Y024716D01*
X026005Y024821D01*
X026111Y024927D01*
X025781Y025032D02*
X025781Y024716D01*
X025571Y024716D02*
X025571Y025032D01*
X025676Y025137D01*
X025781Y025032D01*
X025571Y025032D02*
X025466Y025137D01*
X025361Y025137D01*
X025361Y024716D01*
X025137Y024716D02*
X024716Y024716D01*
X024716Y025347D01*
X025137Y025347D01*
X024927Y025032D02*
X024716Y025032D01*
X024716Y026216D02*
X024716Y026847D01*
X025032Y026847D01*
X025137Y026742D01*
X025137Y026532D01*
X025032Y026427D01*
X024716Y026427D01*
X025361Y026532D02*
X025466Y026637D01*
X025676Y026637D01*
X025781Y026532D01*
X025781Y026216D01*
X026005Y026321D02*
X026005Y026532D01*
X026111Y026637D01*
X026321Y026637D01*
X026426Y026532D01*
X026426Y026321D01*
X026321Y026216D01*
X026111Y026216D01*
X026005Y026321D01*
X025361Y026216D02*
X025361Y026847D01*
X026650Y026637D02*
X026650Y026216D01*
X027070Y026216D02*
X027070Y026532D01*
X026965Y026637D01*
X026650Y026637D01*
X027295Y026532D02*
X027295Y026321D01*
X027400Y026216D01*
X027610Y026216D01*
X027715Y026427D02*
X027295Y026427D01*
X027295Y026532D02*
X027400Y026637D01*
X027610Y026637D01*
X027715Y026532D01*
X027715Y026427D01*
X027939Y026532D02*
X027939Y026637D01*
X028044Y026637D01*
X028044Y026532D01*
X027939Y026532D01*
X027939Y026321D02*
X027939Y026216D01*
X028044Y026216D01*
X028044Y026321D01*
X027939Y026321D01*
X026755Y025137D02*
X026650Y025137D01*
X035029Y025137D02*
X035029Y024821D01*
D13*
X035211Y019183D02*
X034711Y019183D01*
X034461Y018933D01*
X034461Y018433D01*
X034711Y018183D01*
X034461Y017933D01*
X034461Y017433D01*
X034711Y017183D01*
X034461Y016933D01*
X034461Y016433D01*
X034711Y016183D01*
X034461Y015933D01*
X034461Y015433D01*
X034711Y015183D01*
X034461Y014933D01*
X034461Y014433D01*
X034711Y014183D01*
X034461Y013933D01*
X034461Y013433D01*
X034711Y013183D01*
X034461Y012933D01*
X034461Y012433D01*
X034711Y012183D01*
X035211Y012183D01*
X035461Y012433D01*
X035461Y012933D01*
X035211Y013183D01*
X035461Y013433D01*
X035461Y013933D01*
X035211Y014183D01*
X035461Y014433D01*
X035461Y014933D01*
X035211Y015183D01*
X035461Y015433D01*
X035461Y015933D01*
X035211Y016183D01*
X035461Y016433D01*
X035461Y016933D01*
X035211Y017183D01*
X035461Y017433D01*
X035461Y017933D01*
X035211Y018183D01*
X035461Y018433D01*
X035461Y018933D01*
X035211Y019183D01*
X034030Y017181D02*
X033530Y017181D01*
X033280Y016931D01*
X033280Y016431D01*
X033530Y016181D01*
X033280Y015931D01*
X033280Y015431D01*
X033530Y015181D01*
X033280Y014931D01*
X033280Y014431D01*
X033530Y014181D01*
X033280Y013931D01*
X033280Y013431D01*
X033530Y013181D01*
X034030Y013181D01*
X034280Y013431D01*
X034280Y013931D01*
X034030Y014181D01*
X034280Y014431D01*
X034280Y014931D01*
X034030Y015181D01*
X034280Y015431D01*
X034280Y015931D01*
X034030Y016181D01*
X034280Y016431D01*
X034280Y016931D01*
X034030Y017181D01*
X030961Y016933D02*
X030961Y016433D01*
X030711Y016183D01*
X030961Y015933D01*
X030961Y015433D01*
X030711Y015183D01*
X030961Y014933D01*
X030961Y014433D01*
X030711Y014183D01*
X030961Y013933D01*
X030961Y013433D01*
X030711Y013183D01*
X030961Y012933D01*
X030961Y012433D01*
X030711Y012183D01*
X030211Y012183D01*
X029961Y012433D01*
X029961Y012933D01*
X030211Y013183D01*
X029961Y013433D01*
X029961Y013933D01*
X030211Y014183D01*
X029961Y014433D01*
X029961Y014933D01*
X030211Y015183D01*
X029961Y015433D01*
X029961Y015933D01*
X030211Y016183D01*
X029961Y016433D01*
X029961Y016933D01*
X030211Y017183D01*
X029961Y017433D01*
X029961Y017933D01*
X030211Y018183D01*
X029961Y018433D01*
X029961Y018933D01*
X030211Y019183D01*
X030711Y019183D01*
X030961Y018933D01*
X030961Y018433D01*
X030711Y018183D01*
X030961Y017933D01*
X030961Y017433D01*
X030711Y017183D01*
X030961Y016933D01*
X029780Y016931D02*
X029780Y016431D01*
X029530Y016181D01*
X029780Y015931D01*
X029780Y015431D01*
X029530Y015181D01*
X029780Y014931D01*
X029780Y014431D01*
X029530Y014181D01*
X029780Y013931D01*
X029780Y013431D01*
X029530Y013181D01*
X029030Y013181D01*
X028780Y013431D01*
X028780Y013931D01*
X029030Y014181D01*
X028780Y014431D01*
X028780Y014931D01*
X029030Y015181D01*
X028780Y015431D01*
X028780Y015931D01*
X029030Y016181D01*
X028780Y016431D01*
X028780Y016931D01*
X029030Y017181D01*
X029530Y017181D01*
X029780Y016931D01*
X026461Y016933D02*
X026461Y016433D01*
X026211Y016183D01*
X026461Y015933D01*
X026461Y015433D01*
X026211Y015183D01*
X026461Y014933D01*
X026461Y014433D01*
X026211Y014183D01*
X026461Y013933D01*
X026461Y013433D01*
X026211Y013183D01*
X026461Y012933D01*
X026461Y012433D01*
X026211Y012183D01*
X025711Y012183D01*
X025461Y012433D01*
X025461Y012933D01*
X025711Y013183D01*
X025461Y013433D01*
X025461Y013933D01*
X025711Y014183D01*
X025461Y014433D01*
X025461Y014933D01*
X025711Y015183D01*
X025461Y015433D01*
X025461Y015933D01*
X025711Y016183D01*
X025461Y016433D01*
X025461Y016933D01*
X025711Y017183D01*
X025461Y017433D01*
X025461Y017933D01*
X025711Y018183D01*
X025461Y018433D01*
X025461Y018933D01*
X025711Y019183D01*
X026211Y019183D01*
X026461Y018933D01*
X026461Y018433D01*
X026211Y018183D01*
X026461Y017933D01*
X026461Y017433D01*
X026211Y017183D01*
X026461Y016933D01*
X025280Y016931D02*
X025280Y016431D01*
X025030Y016181D01*
X025280Y015931D01*
X025280Y015431D01*
X025030Y015181D01*
X025280Y014931D01*
X025280Y014431D01*
X025030Y014181D01*
X025280Y013931D01*
X025280Y013431D01*
X025030Y013181D01*
X024530Y013181D01*
X024280Y013431D01*
X024280Y013931D01*
X024530Y014181D01*
X024280Y014431D01*
X024280Y014931D01*
X024530Y015181D01*
X024280Y015431D01*
X024280Y015931D01*
X024530Y016181D01*
X024280Y016431D01*
X024280Y016931D01*
X024530Y017181D01*
X025030Y017181D01*
X025280Y016931D01*
X019183Y018652D02*
X019183Y019152D01*
X018933Y019402D01*
X018433Y019402D01*
X018183Y019152D01*
X017933Y019402D01*
X017433Y019402D01*
X017183Y019152D01*
X016933Y019402D01*
X016433Y019402D01*
X016183Y019152D01*
X015933Y019402D01*
X015433Y019402D01*
X015183Y019152D01*
X014933Y019402D01*
X014433Y019402D01*
X014183Y019152D01*
X013933Y019402D01*
X013433Y019402D01*
X013183Y019152D01*
X012933Y019402D01*
X012433Y019402D01*
X012183Y019152D01*
X012183Y018652D01*
X012433Y018402D01*
X012933Y018402D01*
X013183Y018652D01*
X013433Y018402D01*
X013933Y018402D01*
X014183Y018652D01*
X014433Y018402D01*
X014933Y018402D01*
X015183Y018652D01*
X015433Y018402D01*
X015933Y018402D01*
X016183Y018652D01*
X016433Y018402D01*
X016933Y018402D01*
X017183Y018652D01*
X017433Y018402D01*
X017933Y018402D01*
X018183Y018652D01*
X018433Y018402D01*
X018933Y018402D01*
X019183Y018652D01*
X017181Y019833D02*
X017181Y020333D01*
X016931Y020583D01*
X016431Y020583D01*
X016181Y020333D01*
X015931Y020583D01*
X015431Y020583D01*
X015181Y020333D01*
X014931Y020583D01*
X014431Y020583D01*
X014181Y020333D01*
X013931Y020583D01*
X013431Y020583D01*
X013181Y020333D01*
X013181Y019833D01*
X013431Y019583D01*
X013931Y019583D01*
X014181Y019833D01*
X014431Y019583D01*
X014931Y019583D01*
X015181Y019833D01*
X015431Y019583D01*
X015931Y019583D01*
X016181Y019833D01*
X016431Y019583D01*
X016931Y019583D01*
X017181Y019833D01*
X016933Y022902D02*
X016433Y022902D01*
X016183Y023152D01*
X015933Y022902D01*
X015433Y022902D01*
X015183Y023152D01*
X014933Y022902D01*
X014433Y022902D01*
X014183Y023152D01*
X013933Y022902D01*
X013433Y022902D01*
X013183Y023152D01*
X012933Y022902D01*
X012433Y022902D01*
X012183Y023152D01*
X012183Y023652D01*
X012433Y023902D01*
X012933Y023902D01*
X013183Y023652D01*
X013433Y023902D01*
X013933Y023902D01*
X014183Y023652D01*
X014433Y023902D01*
X014933Y023902D01*
X015183Y023652D01*
X015433Y023902D01*
X015933Y023902D01*
X016183Y023652D01*
X016433Y023902D01*
X016933Y023902D01*
X017183Y023652D01*
X017433Y023902D01*
X017933Y023902D01*
X018183Y023652D01*
X018433Y023902D01*
X018933Y023902D01*
X019183Y023652D01*
X019183Y023152D01*
X018933Y022902D01*
X018433Y022902D01*
X018183Y023152D01*
X017933Y022902D01*
X017433Y022902D01*
X017183Y023152D01*
X016933Y022902D01*
X016931Y024083D02*
X016431Y024083D01*
X016181Y024333D01*
X015931Y024083D01*
X015431Y024083D01*
X015181Y024333D01*
X014931Y024083D01*
X014431Y024083D01*
X014181Y024333D01*
X013931Y024083D01*
X013431Y024083D01*
X013181Y024333D01*
X013181Y024833D01*
X013431Y025083D01*
X013931Y025083D01*
X014181Y024833D01*
X014431Y025083D01*
X014931Y025083D01*
X015181Y024833D01*
X015431Y025083D01*
X015931Y025083D01*
X016181Y024833D01*
X016431Y025083D01*
X016931Y025083D01*
X017181Y024833D01*
X017181Y024333D01*
X016931Y024083D01*
X016933Y027402D02*
X016433Y027402D01*
X016183Y027652D01*
X015933Y027402D01*
X015433Y027402D01*
X015183Y027652D01*
X014933Y027402D01*
X014433Y027402D01*
X014183Y027652D01*
X013933Y027402D01*
X013433Y027402D01*
X013183Y027652D01*
X012933Y027402D01*
X012433Y027402D01*
X012183Y027652D01*
X012183Y028152D01*
X012433Y028402D01*
X012933Y028402D01*
X013183Y028152D01*
X013433Y028402D01*
X013933Y028402D01*
X014183Y028152D01*
X014433Y028402D01*
X014933Y028402D01*
X015183Y028152D01*
X015433Y028402D01*
X015933Y028402D01*
X016183Y028152D01*
X016433Y028402D01*
X016933Y028402D01*
X017183Y028152D01*
X017433Y028402D01*
X017933Y028402D01*
X018183Y028152D01*
X018433Y028402D01*
X018933Y028402D01*
X019183Y028152D01*
X019183Y027652D01*
X018933Y027402D01*
X018433Y027402D01*
X018183Y027652D01*
X017933Y027402D01*
X017433Y027402D01*
X017183Y027652D01*
X016933Y027402D01*
X016931Y028583D02*
X016431Y028583D01*
X016181Y028833D01*
X015931Y028583D01*
X015431Y028583D01*
X015181Y028833D01*
X014931Y028583D01*
X014431Y028583D01*
X014181Y028833D01*
X013931Y028583D01*
X013431Y028583D01*
X013181Y028833D01*
X013181Y029333D01*
X013431Y029583D01*
X013931Y029583D01*
X014181Y029333D01*
X014431Y029583D01*
X014931Y029583D01*
X015181Y029333D01*
X015431Y029583D01*
X015931Y029583D01*
X016181Y029333D01*
X016431Y029583D01*
X016931Y029583D01*
X017181Y029333D01*
X017181Y028833D01*
X016931Y028583D01*
X011381Y028331D02*
X011381Y030031D01*
X010581Y030381D02*
X009789Y030381D01*
X008981Y030031D02*
X008981Y028331D01*
X009777Y027981D02*
X010581Y027981D01*
X009481Y029181D02*
X009483Y029233D01*
X009489Y029285D01*
X009499Y029337D01*
X009512Y029387D01*
X009529Y029437D01*
X009550Y029485D01*
X009575Y029531D01*
X009603Y029575D01*
X009634Y029617D01*
X009668Y029657D01*
X009705Y029694D01*
X009745Y029728D01*
X009787Y029759D01*
X009831Y029787D01*
X009877Y029812D01*
X009925Y029833D01*
X009975Y029850D01*
X010025Y029863D01*
X010077Y029873D01*
X010129Y029879D01*
X010181Y029881D01*
X010233Y029879D01*
X010285Y029873D01*
X010337Y029863D01*
X010387Y029850D01*
X010437Y029833D01*
X010485Y029812D01*
X010531Y029787D01*
X010575Y029759D01*
X010617Y029728D01*
X010657Y029694D01*
X010694Y029657D01*
X010728Y029617D01*
X010759Y029575D01*
X010787Y029531D01*
X010812Y029485D01*
X010833Y029437D01*
X010850Y029387D01*
X010863Y029337D01*
X010873Y029285D01*
X010879Y029233D01*
X010881Y029181D01*
X010879Y029129D01*
X010873Y029077D01*
X010863Y029025D01*
X010850Y028975D01*
X010833Y028925D01*
X010812Y028877D01*
X010787Y028831D01*
X010759Y028787D01*
X010728Y028745D01*
X010694Y028705D01*
X010657Y028668D01*
X010617Y028634D01*
X010575Y028603D01*
X010531Y028575D01*
X010485Y028550D01*
X010437Y028529D01*
X010387Y028512D01*
X010337Y028499D01*
X010285Y028489D01*
X010233Y028483D01*
X010181Y028481D01*
X010129Y028483D01*
X010077Y028489D01*
X010025Y028499D01*
X009975Y028512D01*
X009925Y028529D01*
X009877Y028550D01*
X009831Y028575D01*
X009787Y028603D01*
X009745Y028634D01*
X009705Y028668D01*
X009668Y028705D01*
X009634Y028745D01*
X009603Y028787D01*
X009575Y028831D01*
X009550Y028877D01*
X009529Y028925D01*
X009512Y028975D01*
X009499Y029025D01*
X009489Y029077D01*
X009483Y029129D01*
X009481Y029181D01*
X009789Y025881D02*
X010581Y025881D01*
X011381Y025531D02*
X011381Y023831D01*
X010581Y023481D02*
X009777Y023481D01*
X008981Y023831D02*
X008981Y025531D01*
X009481Y024681D02*
X009483Y024733D01*
X009489Y024785D01*
X009499Y024837D01*
X009512Y024887D01*
X009529Y024937D01*
X009550Y024985D01*
X009575Y025031D01*
X009603Y025075D01*
X009634Y025117D01*
X009668Y025157D01*
X009705Y025194D01*
X009745Y025228D01*
X009787Y025259D01*
X009831Y025287D01*
X009877Y025312D01*
X009925Y025333D01*
X009975Y025350D01*
X010025Y025363D01*
X010077Y025373D01*
X010129Y025379D01*
X010181Y025381D01*
X010233Y025379D01*
X010285Y025373D01*
X010337Y025363D01*
X010387Y025350D01*
X010437Y025333D01*
X010485Y025312D01*
X010531Y025287D01*
X010575Y025259D01*
X010617Y025228D01*
X010657Y025194D01*
X010694Y025157D01*
X010728Y025117D01*
X010759Y025075D01*
X010787Y025031D01*
X010812Y024985D01*
X010833Y024937D01*
X010850Y024887D01*
X010863Y024837D01*
X010873Y024785D01*
X010879Y024733D01*
X010881Y024681D01*
X010879Y024629D01*
X010873Y024577D01*
X010863Y024525D01*
X010850Y024475D01*
X010833Y024425D01*
X010812Y024377D01*
X010787Y024331D01*
X010759Y024287D01*
X010728Y024245D01*
X010694Y024205D01*
X010657Y024168D01*
X010617Y024134D01*
X010575Y024103D01*
X010531Y024075D01*
X010485Y024050D01*
X010437Y024029D01*
X010387Y024012D01*
X010337Y023999D01*
X010285Y023989D01*
X010233Y023983D01*
X010181Y023981D01*
X010129Y023983D01*
X010077Y023989D01*
X010025Y023999D01*
X009975Y024012D01*
X009925Y024029D01*
X009877Y024050D01*
X009831Y024075D01*
X009787Y024103D01*
X009745Y024134D01*
X009705Y024168D01*
X009668Y024205D01*
X009634Y024245D01*
X009603Y024287D01*
X009575Y024331D01*
X009550Y024377D01*
X009529Y024425D01*
X009512Y024475D01*
X009499Y024525D01*
X009489Y024577D01*
X009483Y024629D01*
X009481Y024681D01*
X009789Y021381D02*
X010581Y021381D01*
X011381Y021031D02*
X011381Y019331D01*
X010581Y018981D02*
X009777Y018981D01*
X008981Y019331D02*
X008981Y021031D01*
X009481Y020181D02*
X009483Y020233D01*
X009489Y020285D01*
X009499Y020337D01*
X009512Y020387D01*
X009529Y020437D01*
X009550Y020485D01*
X009575Y020531D01*
X009603Y020575D01*
X009634Y020617D01*
X009668Y020657D01*
X009705Y020694D01*
X009745Y020728D01*
X009787Y020759D01*
X009831Y020787D01*
X009877Y020812D01*
X009925Y020833D01*
X009975Y020850D01*
X010025Y020863D01*
X010077Y020873D01*
X010129Y020879D01*
X010181Y020881D01*
X010233Y020879D01*
X010285Y020873D01*
X010337Y020863D01*
X010387Y020850D01*
X010437Y020833D01*
X010485Y020812D01*
X010531Y020787D01*
X010575Y020759D01*
X010617Y020728D01*
X010657Y020694D01*
X010694Y020657D01*
X010728Y020617D01*
X010759Y020575D01*
X010787Y020531D01*
X010812Y020485D01*
X010833Y020437D01*
X010850Y020387D01*
X010863Y020337D01*
X010873Y020285D01*
X010879Y020233D01*
X010881Y020181D01*
X010879Y020129D01*
X010873Y020077D01*
X010863Y020025D01*
X010850Y019975D01*
X010833Y019925D01*
X010812Y019877D01*
X010787Y019831D01*
X010759Y019787D01*
X010728Y019745D01*
X010694Y019705D01*
X010657Y019668D01*
X010617Y019634D01*
X010575Y019603D01*
X010531Y019575D01*
X010485Y019550D01*
X010437Y019529D01*
X010387Y019512D01*
X010337Y019499D01*
X010285Y019489D01*
X010233Y019483D01*
X010181Y019481D01*
X010129Y019483D01*
X010077Y019489D01*
X010025Y019499D01*
X009975Y019512D01*
X009925Y019529D01*
X009877Y019550D01*
X009831Y019575D01*
X009787Y019603D01*
X009745Y019634D01*
X009705Y019668D01*
X009668Y019705D01*
X009634Y019745D01*
X009603Y019787D01*
X009575Y019831D01*
X009550Y019877D01*
X009529Y019925D01*
X009512Y019975D01*
X009499Y020025D01*
X009489Y020077D01*
X009483Y020129D01*
X009481Y020181D01*
X009789Y016881D02*
X010581Y016881D01*
X011381Y016531D02*
X011381Y014831D01*
X012183Y014652D02*
X012183Y014152D01*
X012433Y013902D01*
X012933Y013902D01*
X013183Y014152D01*
X013433Y013902D01*
X013933Y013902D01*
X014183Y014152D01*
X014433Y013902D01*
X014933Y013902D01*
X015183Y014152D01*
X015433Y013902D01*
X015933Y013902D01*
X016183Y014152D01*
X016433Y013902D01*
X016933Y013902D01*
X017183Y014152D01*
X017433Y013902D01*
X017933Y013902D01*
X018183Y014152D01*
X018433Y013902D01*
X018933Y013902D01*
X019183Y014152D01*
X019183Y014652D01*
X018933Y014902D01*
X018433Y014902D01*
X018183Y014652D01*
X017933Y014902D01*
X017433Y014902D01*
X017183Y014652D01*
X016933Y014902D01*
X016433Y014902D01*
X016183Y014652D01*
X015933Y014902D01*
X015433Y014902D01*
X015183Y014652D01*
X014933Y014902D01*
X014433Y014902D01*
X014183Y014652D01*
X013933Y014902D01*
X013433Y014902D01*
X013183Y014652D01*
X012933Y014902D01*
X012433Y014902D01*
X012183Y014652D01*
X013181Y015333D02*
X013181Y015833D01*
X013431Y016083D01*
X013931Y016083D01*
X014181Y015833D01*
X014431Y016083D01*
X014931Y016083D01*
X015181Y015833D01*
X015431Y016083D01*
X015931Y016083D01*
X016181Y015833D01*
X016431Y016083D01*
X016931Y016083D01*
X017181Y015833D01*
X017181Y015333D01*
X016931Y015083D01*
X016431Y015083D01*
X016181Y015333D01*
X015931Y015083D01*
X015431Y015083D01*
X015181Y015333D01*
X014931Y015083D01*
X014431Y015083D01*
X014181Y015333D01*
X013931Y015083D01*
X013431Y015083D01*
X013181Y015333D01*
X010581Y014481D02*
X009777Y014481D01*
X008981Y014831D02*
X008981Y016531D01*
X009481Y015681D02*
X009483Y015733D01*
X009489Y015785D01*
X009499Y015837D01*
X009512Y015887D01*
X009529Y015937D01*
X009550Y015985D01*
X009575Y016031D01*
X009603Y016075D01*
X009634Y016117D01*
X009668Y016157D01*
X009705Y016194D01*
X009745Y016228D01*
X009787Y016259D01*
X009831Y016287D01*
X009877Y016312D01*
X009925Y016333D01*
X009975Y016350D01*
X010025Y016363D01*
X010077Y016373D01*
X010129Y016379D01*
X010181Y016381D01*
X010233Y016379D01*
X010285Y016373D01*
X010337Y016363D01*
X010387Y016350D01*
X010437Y016333D01*
X010485Y016312D01*
X010531Y016287D01*
X010575Y016259D01*
X010617Y016228D01*
X010657Y016194D01*
X010694Y016157D01*
X010728Y016117D01*
X010759Y016075D01*
X010787Y016031D01*
X010812Y015985D01*
X010833Y015937D01*
X010850Y015887D01*
X010863Y015837D01*
X010873Y015785D01*
X010879Y015733D01*
X010881Y015681D01*
X010879Y015629D01*
X010873Y015577D01*
X010863Y015525D01*
X010850Y015475D01*
X010833Y015425D01*
X010812Y015377D01*
X010787Y015331D01*
X010759Y015287D01*
X010728Y015245D01*
X010694Y015205D01*
X010657Y015168D01*
X010617Y015134D01*
X010575Y015103D01*
X010531Y015075D01*
X010485Y015050D01*
X010437Y015029D01*
X010387Y015012D01*
X010337Y014999D01*
X010285Y014989D01*
X010233Y014983D01*
X010181Y014981D01*
X010129Y014983D01*
X010077Y014989D01*
X010025Y014999D01*
X009975Y015012D01*
X009925Y015029D01*
X009877Y015050D01*
X009831Y015075D01*
X009787Y015103D01*
X009745Y015134D01*
X009705Y015168D01*
X009668Y015205D01*
X009634Y015245D01*
X009603Y015287D01*
X009575Y015331D01*
X009550Y015377D01*
X009529Y015425D01*
X009512Y015475D01*
X009499Y015525D01*
X009489Y015577D01*
X009483Y015629D01*
X009481Y015681D01*
X009789Y012381D02*
X010581Y012381D01*
X011381Y012031D02*
X011381Y010331D01*
X012183Y010152D02*
X012183Y009652D01*
X012433Y009402D01*
X012933Y009402D01*
X013183Y009652D01*
X013433Y009402D01*
X013933Y009402D01*
X014183Y009652D01*
X014433Y009402D01*
X014933Y009402D01*
X015183Y009652D01*
X015433Y009402D01*
X015933Y009402D01*
X016183Y009652D01*
X016433Y009402D01*
X016933Y009402D01*
X017183Y009652D01*
X017433Y009402D01*
X017933Y009402D01*
X018183Y009652D01*
X018433Y009402D01*
X018933Y009402D01*
X019183Y009652D01*
X019183Y010152D01*
X018933Y010402D01*
X018433Y010402D01*
X018183Y010152D01*
X017933Y010402D01*
X017433Y010402D01*
X017183Y010152D01*
X016933Y010402D01*
X016433Y010402D01*
X016183Y010152D01*
X015933Y010402D01*
X015433Y010402D01*
X015183Y010152D01*
X014933Y010402D01*
X014433Y010402D01*
X014183Y010152D01*
X013933Y010402D01*
X013433Y010402D01*
X013183Y010152D01*
X012933Y010402D01*
X012433Y010402D01*
X012183Y010152D01*
X013181Y010833D02*
X013181Y011333D01*
X013431Y011583D01*
X013931Y011583D01*
X014181Y011333D01*
X014431Y011583D01*
X014931Y011583D01*
X015181Y011333D01*
X015431Y011583D01*
X015931Y011583D01*
X016181Y011333D01*
X016431Y011583D01*
X016931Y011583D01*
X017181Y011333D01*
X017181Y010833D01*
X016931Y010583D01*
X016431Y010583D01*
X016181Y010833D01*
X015931Y010583D01*
X015431Y010583D01*
X015181Y010833D01*
X014931Y010583D01*
X014431Y010583D01*
X014181Y010833D01*
X013931Y010583D01*
X013431Y010583D01*
X013181Y010833D01*
X010581Y009981D02*
X009777Y009981D01*
X008981Y010331D02*
X008981Y012031D01*
X009481Y011181D02*
X009483Y011233D01*
X009489Y011285D01*
X009499Y011337D01*
X009512Y011387D01*
X009529Y011437D01*
X009550Y011485D01*
X009575Y011531D01*
X009603Y011575D01*
X009634Y011617D01*
X009668Y011657D01*
X009705Y011694D01*
X009745Y011728D01*
X009787Y011759D01*
X009831Y011787D01*
X009877Y011812D01*
X009925Y011833D01*
X009975Y011850D01*
X010025Y011863D01*
X010077Y011873D01*
X010129Y011879D01*
X010181Y011881D01*
X010233Y011879D01*
X010285Y011873D01*
X010337Y011863D01*
X010387Y011850D01*
X010437Y011833D01*
X010485Y011812D01*
X010531Y011787D01*
X010575Y011759D01*
X010617Y011728D01*
X010657Y011694D01*
X010694Y011657D01*
X010728Y011617D01*
X010759Y011575D01*
X010787Y011531D01*
X010812Y011485D01*
X010833Y011437D01*
X010850Y011387D01*
X010863Y011337D01*
X010873Y011285D01*
X010879Y011233D01*
X010881Y011181D01*
X010879Y011129D01*
X010873Y011077D01*
X010863Y011025D01*
X010850Y010975D01*
X010833Y010925D01*
X010812Y010877D01*
X010787Y010831D01*
X010759Y010787D01*
X010728Y010745D01*
X010694Y010705D01*
X010657Y010668D01*
X010617Y010634D01*
X010575Y010603D01*
X010531Y010575D01*
X010485Y010550D01*
X010437Y010529D01*
X010387Y010512D01*
X010337Y010499D01*
X010285Y010489D01*
X010233Y010483D01*
X010181Y010481D01*
X010129Y010483D01*
X010077Y010489D01*
X010025Y010499D01*
X009975Y010512D01*
X009925Y010529D01*
X009877Y010550D01*
X009831Y010575D01*
X009787Y010603D01*
X009745Y010634D01*
X009705Y010668D01*
X009668Y010705D01*
X009634Y010745D01*
X009603Y010787D01*
X009575Y010831D01*
X009550Y010877D01*
X009529Y010925D01*
X009512Y010975D01*
X009499Y011025D01*
X009489Y011077D01*
X009483Y011129D01*
X009481Y011181D01*
X009789Y007881D02*
X010581Y007881D01*
X011381Y007531D02*
X011381Y005831D01*
X012183Y005652D02*
X012183Y005152D01*
X012433Y004902D01*
X012933Y004902D01*
X013183Y005152D01*
X013433Y004902D01*
X013933Y004902D01*
X014183Y005152D01*
X014433Y004902D01*
X014933Y004902D01*
X015183Y005152D01*
X015433Y004902D01*
X015933Y004902D01*
X016183Y005152D01*
X016433Y004902D01*
X016933Y004902D01*
X017183Y005152D01*
X017433Y004902D01*
X017933Y004902D01*
X018183Y005152D01*
X018433Y004902D01*
X018933Y004902D01*
X019183Y005152D01*
X019183Y005652D01*
X018933Y005902D01*
X018433Y005902D01*
X018183Y005652D01*
X017933Y005902D01*
X017433Y005902D01*
X017183Y005652D01*
X016933Y005902D01*
X016433Y005902D01*
X016183Y005652D01*
X015933Y005902D01*
X015433Y005902D01*
X015183Y005652D01*
X014933Y005902D01*
X014433Y005902D01*
X014183Y005652D01*
X013933Y005902D01*
X013433Y005902D01*
X013183Y005652D01*
X012933Y005902D01*
X012433Y005902D01*
X012183Y005652D01*
X013181Y006333D02*
X013181Y006833D01*
X013431Y007083D01*
X013931Y007083D01*
X014181Y006833D01*
X014431Y007083D01*
X014931Y007083D01*
X015181Y006833D01*
X015431Y007083D01*
X015931Y007083D01*
X016181Y006833D01*
X016431Y007083D01*
X016931Y007083D01*
X017181Y006833D01*
X017181Y006333D01*
X016931Y006083D01*
X016431Y006083D01*
X016181Y006333D01*
X015931Y006083D01*
X015431Y006083D01*
X015181Y006333D01*
X014931Y006083D01*
X014431Y006083D01*
X014181Y006333D01*
X013931Y006083D01*
X013431Y006083D01*
X013181Y006333D01*
X010581Y005481D02*
X009777Y005481D01*
X008981Y005831D02*
X008981Y007531D01*
X009481Y006681D02*
X009483Y006733D01*
X009489Y006785D01*
X009499Y006837D01*
X009512Y006887D01*
X009529Y006937D01*
X009550Y006985D01*
X009575Y007031D01*
X009603Y007075D01*
X009634Y007117D01*
X009668Y007157D01*
X009705Y007194D01*
X009745Y007228D01*
X009787Y007259D01*
X009831Y007287D01*
X009877Y007312D01*
X009925Y007333D01*
X009975Y007350D01*
X010025Y007363D01*
X010077Y007373D01*
X010129Y007379D01*
X010181Y007381D01*
X010233Y007379D01*
X010285Y007373D01*
X010337Y007363D01*
X010387Y007350D01*
X010437Y007333D01*
X010485Y007312D01*
X010531Y007287D01*
X010575Y007259D01*
X010617Y007228D01*
X010657Y007194D01*
X010694Y007157D01*
X010728Y007117D01*
X010759Y007075D01*
X010787Y007031D01*
X010812Y006985D01*
X010833Y006937D01*
X010850Y006887D01*
X010863Y006837D01*
X010873Y006785D01*
X010879Y006733D01*
X010881Y006681D01*
X010879Y006629D01*
X010873Y006577D01*
X010863Y006525D01*
X010850Y006475D01*
X010833Y006425D01*
X010812Y006377D01*
X010787Y006331D01*
X010759Y006287D01*
X010728Y006245D01*
X010694Y006205D01*
X010657Y006168D01*
X010617Y006134D01*
X010575Y006103D01*
X010531Y006075D01*
X010485Y006050D01*
X010437Y006029D01*
X010387Y006012D01*
X010337Y005999D01*
X010285Y005989D01*
X010233Y005983D01*
X010181Y005981D01*
X010129Y005983D01*
X010077Y005989D01*
X010025Y005999D01*
X009975Y006012D01*
X009925Y006029D01*
X009877Y006050D01*
X009831Y006075D01*
X009787Y006103D01*
X009745Y006134D01*
X009705Y006168D01*
X009668Y006205D01*
X009634Y006245D01*
X009603Y006287D01*
X009575Y006331D01*
X009550Y006377D01*
X009529Y006425D01*
X009512Y006475D01*
X009499Y006525D01*
X009489Y006577D01*
X009483Y006629D01*
X009481Y006681D01*
X009789Y003381D02*
X010581Y003381D01*
X011381Y003031D02*
X011381Y001331D01*
X012183Y001152D02*
X012183Y000652D01*
X012433Y000402D01*
X012933Y000402D01*
X013183Y000652D01*
X013433Y000402D01*
X013933Y000402D01*
X014183Y000652D01*
X014433Y000402D01*
X014933Y000402D01*
X015183Y000652D01*
X015433Y000402D01*
X015933Y000402D01*
X016183Y000652D01*
X016433Y000402D01*
X016933Y000402D01*
X017183Y000652D01*
X017433Y000402D01*
X017933Y000402D01*
X018183Y000652D01*
X018433Y000402D01*
X018933Y000402D01*
X019183Y000652D01*
X019183Y001152D01*
X018933Y001402D01*
X018433Y001402D01*
X018183Y001152D01*
X017933Y001402D01*
X017433Y001402D01*
X017183Y001152D01*
X016933Y001402D01*
X016433Y001402D01*
X016183Y001152D01*
X015933Y001402D01*
X015433Y001402D01*
X015183Y001152D01*
X014933Y001402D01*
X014433Y001402D01*
X014183Y001152D01*
X013933Y001402D01*
X013433Y001402D01*
X013183Y001152D01*
X012933Y001402D01*
X012433Y001402D01*
X012183Y001152D01*
X013181Y001833D02*
X013181Y002333D01*
X013431Y002583D01*
X013931Y002583D01*
X014181Y002333D01*
X014431Y002583D01*
X014931Y002583D01*
X015181Y002333D01*
X015431Y002583D01*
X015931Y002583D01*
X016181Y002333D01*
X016431Y002583D01*
X016931Y002583D01*
X017181Y002333D01*
X017181Y001833D01*
X016931Y001583D01*
X016431Y001583D01*
X016181Y001833D01*
X015931Y001583D01*
X015431Y001583D01*
X015181Y001833D01*
X014931Y001583D01*
X014431Y001583D01*
X014181Y001833D01*
X013931Y001583D01*
X013431Y001583D01*
X013181Y001833D01*
X010581Y000981D02*
X009777Y000981D01*
X008981Y001331D02*
X008981Y003031D01*
X009481Y002181D02*
X009483Y002233D01*
X009489Y002285D01*
X009499Y002337D01*
X009512Y002387D01*
X009529Y002437D01*
X009550Y002485D01*
X009575Y002531D01*
X009603Y002575D01*
X009634Y002617D01*
X009668Y002657D01*
X009705Y002694D01*
X009745Y002728D01*
X009787Y002759D01*
X009831Y002787D01*
X009877Y002812D01*
X009925Y002833D01*
X009975Y002850D01*
X010025Y002863D01*
X010077Y002873D01*
X010129Y002879D01*
X010181Y002881D01*
X010233Y002879D01*
X010285Y002873D01*
X010337Y002863D01*
X010387Y002850D01*
X010437Y002833D01*
X010485Y002812D01*
X010531Y002787D01*
X010575Y002759D01*
X010617Y002728D01*
X010657Y002694D01*
X010694Y002657D01*
X010728Y002617D01*
X010759Y002575D01*
X010787Y002531D01*
X010812Y002485D01*
X010833Y002437D01*
X010850Y002387D01*
X010863Y002337D01*
X010873Y002285D01*
X010879Y002233D01*
X010881Y002181D01*
X010879Y002129D01*
X010873Y002077D01*
X010863Y002025D01*
X010850Y001975D01*
X010833Y001925D01*
X010812Y001877D01*
X010787Y001831D01*
X010759Y001787D01*
X010728Y001745D01*
X010694Y001705D01*
X010657Y001668D01*
X010617Y001634D01*
X010575Y001603D01*
X010531Y001575D01*
X010485Y001550D01*
X010437Y001529D01*
X010387Y001512D01*
X010337Y001499D01*
X010285Y001489D01*
X010233Y001483D01*
X010181Y001481D01*
X010129Y001483D01*
X010077Y001489D01*
X010025Y001499D01*
X009975Y001512D01*
X009925Y001529D01*
X009877Y001550D01*
X009831Y001575D01*
X009787Y001603D01*
X009745Y001634D01*
X009705Y001668D01*
X009668Y001705D01*
X009634Y001745D01*
X009603Y001787D01*
X009575Y001831D01*
X009550Y001877D01*
X009529Y001925D01*
X009512Y001975D01*
X009499Y002025D01*
X009489Y002077D01*
X009483Y002129D01*
X009481Y002181D01*
X023481Y009789D02*
X023481Y010581D01*
X023831Y011381D02*
X025531Y011381D01*
X025881Y010581D02*
X025881Y009777D01*
X025531Y008981D02*
X023831Y008981D01*
X023981Y010181D02*
X023983Y010233D01*
X023989Y010285D01*
X023999Y010337D01*
X024012Y010387D01*
X024029Y010437D01*
X024050Y010485D01*
X024075Y010531D01*
X024103Y010575D01*
X024134Y010617D01*
X024168Y010657D01*
X024205Y010694D01*
X024245Y010728D01*
X024287Y010759D01*
X024331Y010787D01*
X024377Y010812D01*
X024425Y010833D01*
X024475Y010850D01*
X024525Y010863D01*
X024577Y010873D01*
X024629Y010879D01*
X024681Y010881D01*
X024733Y010879D01*
X024785Y010873D01*
X024837Y010863D01*
X024887Y010850D01*
X024937Y010833D01*
X024985Y010812D01*
X025031Y010787D01*
X025075Y010759D01*
X025117Y010728D01*
X025157Y010694D01*
X025194Y010657D01*
X025228Y010617D01*
X025259Y010575D01*
X025287Y010531D01*
X025312Y010485D01*
X025333Y010437D01*
X025350Y010387D01*
X025363Y010337D01*
X025373Y010285D01*
X025379Y010233D01*
X025381Y010181D01*
X025379Y010129D01*
X025373Y010077D01*
X025363Y010025D01*
X025350Y009975D01*
X025333Y009925D01*
X025312Y009877D01*
X025287Y009831D01*
X025259Y009787D01*
X025228Y009745D01*
X025194Y009705D01*
X025157Y009668D01*
X025117Y009634D01*
X025075Y009603D01*
X025031Y009575D01*
X024985Y009550D01*
X024937Y009529D01*
X024887Y009512D01*
X024837Y009499D01*
X024785Y009489D01*
X024733Y009483D01*
X024681Y009481D01*
X024629Y009483D01*
X024577Y009489D01*
X024525Y009499D01*
X024475Y009512D01*
X024425Y009529D01*
X024377Y009550D01*
X024331Y009575D01*
X024287Y009603D01*
X024245Y009634D01*
X024205Y009668D01*
X024168Y009705D01*
X024134Y009745D01*
X024103Y009787D01*
X024075Y009831D01*
X024050Y009877D01*
X024029Y009925D01*
X024012Y009975D01*
X023999Y010025D01*
X023989Y010077D01*
X023983Y010129D01*
X023981Y010181D01*
X027981Y009789D02*
X027981Y010581D01*
X028331Y011381D02*
X030031Y011381D01*
X030381Y010581D02*
X030381Y009777D01*
X030031Y008981D02*
X028331Y008981D01*
X028481Y010181D02*
X028483Y010233D01*
X028489Y010285D01*
X028499Y010337D01*
X028512Y010387D01*
X028529Y010437D01*
X028550Y010485D01*
X028575Y010531D01*
X028603Y010575D01*
X028634Y010617D01*
X028668Y010657D01*
X028705Y010694D01*
X028745Y010728D01*
X028787Y010759D01*
X028831Y010787D01*
X028877Y010812D01*
X028925Y010833D01*
X028975Y010850D01*
X029025Y010863D01*
X029077Y010873D01*
X029129Y010879D01*
X029181Y010881D01*
X029233Y010879D01*
X029285Y010873D01*
X029337Y010863D01*
X029387Y010850D01*
X029437Y010833D01*
X029485Y010812D01*
X029531Y010787D01*
X029575Y010759D01*
X029617Y010728D01*
X029657Y010694D01*
X029694Y010657D01*
X029728Y010617D01*
X029759Y010575D01*
X029787Y010531D01*
X029812Y010485D01*
X029833Y010437D01*
X029850Y010387D01*
X029863Y010337D01*
X029873Y010285D01*
X029879Y010233D01*
X029881Y010181D01*
X029879Y010129D01*
X029873Y010077D01*
X029863Y010025D01*
X029850Y009975D01*
X029833Y009925D01*
X029812Y009877D01*
X029787Y009831D01*
X029759Y009787D01*
X029728Y009745D01*
X029694Y009705D01*
X029657Y009668D01*
X029617Y009634D01*
X029575Y009603D01*
X029531Y009575D01*
X029485Y009550D01*
X029437Y009529D01*
X029387Y009512D01*
X029337Y009499D01*
X029285Y009489D01*
X029233Y009483D01*
X029181Y009481D01*
X029129Y009483D01*
X029077Y009489D01*
X029025Y009499D01*
X028975Y009512D01*
X028925Y009529D01*
X028877Y009550D01*
X028831Y009575D01*
X028787Y009603D01*
X028745Y009634D01*
X028705Y009668D01*
X028668Y009705D01*
X028634Y009745D01*
X028603Y009787D01*
X028575Y009831D01*
X028550Y009877D01*
X028529Y009925D01*
X028512Y009975D01*
X028499Y010025D01*
X028489Y010077D01*
X028483Y010129D01*
X028481Y010181D01*
X032481Y009789D02*
X032481Y010581D01*
X032831Y011381D02*
X034531Y011381D01*
X034881Y010581D02*
X034881Y009777D01*
X034531Y008981D02*
X032831Y008981D01*
X032981Y010181D02*
X032983Y010233D01*
X032989Y010285D01*
X032999Y010337D01*
X033012Y010387D01*
X033029Y010437D01*
X033050Y010485D01*
X033075Y010531D01*
X033103Y010575D01*
X033134Y010617D01*
X033168Y010657D01*
X033205Y010694D01*
X033245Y010728D01*
X033287Y010759D01*
X033331Y010787D01*
X033377Y010812D01*
X033425Y010833D01*
X033475Y010850D01*
X033525Y010863D01*
X033577Y010873D01*
X033629Y010879D01*
X033681Y010881D01*
X033733Y010879D01*
X033785Y010873D01*
X033837Y010863D01*
X033887Y010850D01*
X033937Y010833D01*
X033985Y010812D01*
X034031Y010787D01*
X034075Y010759D01*
X034117Y010728D01*
X034157Y010694D01*
X034194Y010657D01*
X034228Y010617D01*
X034259Y010575D01*
X034287Y010531D01*
X034312Y010485D01*
X034333Y010437D01*
X034350Y010387D01*
X034363Y010337D01*
X034373Y010285D01*
X034379Y010233D01*
X034381Y010181D01*
X034379Y010129D01*
X034373Y010077D01*
X034363Y010025D01*
X034350Y009975D01*
X034333Y009925D01*
X034312Y009877D01*
X034287Y009831D01*
X034259Y009787D01*
X034228Y009745D01*
X034194Y009705D01*
X034157Y009668D01*
X034117Y009634D01*
X034075Y009603D01*
X034031Y009575D01*
X033985Y009550D01*
X033937Y009529D01*
X033887Y009512D01*
X033837Y009499D01*
X033785Y009489D01*
X033733Y009483D01*
X033681Y009481D01*
X033629Y009483D01*
X033577Y009489D01*
X033525Y009499D01*
X033475Y009512D01*
X033425Y009529D01*
X033377Y009550D01*
X033331Y009575D01*
X033287Y009603D01*
X033245Y009634D01*
X033205Y009668D01*
X033168Y009705D01*
X033134Y009745D01*
X033103Y009787D01*
X033075Y009831D01*
X033050Y009877D01*
X033029Y009925D01*
X033012Y009975D01*
X032999Y010025D01*
X032989Y010077D01*
X032983Y010129D01*
X032981Y010181D01*
X036981Y009789D02*
X036981Y010581D01*
X037331Y011381D02*
X039031Y011381D01*
X039211Y012183D02*
X038961Y012433D01*
X038961Y012933D01*
X039211Y013183D01*
X038961Y013433D01*
X038961Y013933D01*
X039211Y014183D01*
X038961Y014433D01*
X038961Y014933D01*
X039211Y015183D01*
X038961Y015433D01*
X038961Y015933D01*
X039211Y016183D01*
X038961Y016433D01*
X038961Y016933D01*
X039211Y017183D01*
X038961Y017433D01*
X038961Y017933D01*
X039211Y018183D01*
X038961Y018433D01*
X038961Y018933D01*
X039211Y019183D01*
X039711Y019183D01*
X039961Y018933D01*
X039961Y018433D01*
X039711Y018183D01*
X039961Y017933D01*
X039961Y017433D01*
X039711Y017183D01*
X039961Y016933D01*
X039961Y016433D01*
X039711Y016183D01*
X039961Y015933D01*
X039961Y015433D01*
X039711Y015183D01*
X039961Y014933D01*
X039961Y014433D01*
X039711Y014183D01*
X039961Y013933D01*
X039961Y013433D01*
X039711Y013183D01*
X039961Y012933D01*
X039961Y012433D01*
X039711Y012183D01*
X039211Y012183D01*
X038530Y013181D02*
X038030Y013181D01*
X037780Y013431D01*
X037780Y013931D01*
X038030Y014181D01*
X037780Y014431D01*
X037780Y014931D01*
X038030Y015181D01*
X037780Y015431D01*
X037780Y015931D01*
X038030Y016181D01*
X037780Y016431D01*
X037780Y016931D01*
X038030Y017181D01*
X038530Y017181D01*
X038780Y016931D01*
X038780Y016431D01*
X038530Y016181D01*
X038780Y015931D01*
X038780Y015431D01*
X038530Y015181D01*
X038780Y014931D01*
X038780Y014431D01*
X038530Y014181D01*
X038780Y013931D01*
X038780Y013431D01*
X038530Y013181D01*
X039381Y010581D02*
X039381Y009777D01*
X039031Y008981D02*
X037331Y008981D01*
X037481Y010181D02*
X037483Y010233D01*
X037489Y010285D01*
X037499Y010337D01*
X037512Y010387D01*
X037529Y010437D01*
X037550Y010485D01*
X037575Y010531D01*
X037603Y010575D01*
X037634Y010617D01*
X037668Y010657D01*
X037705Y010694D01*
X037745Y010728D01*
X037787Y010759D01*
X037831Y010787D01*
X037877Y010812D01*
X037925Y010833D01*
X037975Y010850D01*
X038025Y010863D01*
X038077Y010873D01*
X038129Y010879D01*
X038181Y010881D01*
X038233Y010879D01*
X038285Y010873D01*
X038337Y010863D01*
X038387Y010850D01*
X038437Y010833D01*
X038485Y010812D01*
X038531Y010787D01*
X038575Y010759D01*
X038617Y010728D01*
X038657Y010694D01*
X038694Y010657D01*
X038728Y010617D01*
X038759Y010575D01*
X038787Y010531D01*
X038812Y010485D01*
X038833Y010437D01*
X038850Y010387D01*
X038863Y010337D01*
X038873Y010285D01*
X038879Y010233D01*
X038881Y010181D01*
X038879Y010129D01*
X038873Y010077D01*
X038863Y010025D01*
X038850Y009975D01*
X038833Y009925D01*
X038812Y009877D01*
X038787Y009831D01*
X038759Y009787D01*
X038728Y009745D01*
X038694Y009705D01*
X038657Y009668D01*
X038617Y009634D01*
X038575Y009603D01*
X038531Y009575D01*
X038485Y009550D01*
X038437Y009529D01*
X038387Y009512D01*
X038337Y009499D01*
X038285Y009489D01*
X038233Y009483D01*
X038181Y009481D01*
X038129Y009483D01*
X038077Y009489D01*
X038025Y009499D01*
X037975Y009512D01*
X037925Y009529D01*
X037877Y009550D01*
X037831Y009575D01*
X037787Y009603D01*
X037745Y009634D01*
X037705Y009668D01*
X037668Y009705D01*
X037634Y009745D01*
X037603Y009787D01*
X037575Y009831D01*
X037550Y009877D01*
X037529Y009925D01*
X037512Y009975D01*
X037499Y010025D01*
X037489Y010077D01*
X037483Y010129D01*
X037481Y010181D01*
D14*
X036410Y006953D02*
X036410Y003410D01*
X039953Y003410D01*
X039953Y006953D01*
X036410Y006953D01*
X035453Y006953D02*
X031910Y006953D01*
X031910Y003410D01*
X035453Y003410D01*
X035453Y006953D01*
X030953Y006953D02*
X027410Y006953D01*
X027410Y003410D01*
X030953Y003410D01*
X030953Y006953D01*
X026453Y006953D02*
X022910Y006953D01*
X022910Y003410D01*
X026453Y003410D01*
X026453Y006953D01*
X006953Y008453D02*
X006953Y004910D01*
X003410Y004910D01*
X003410Y008453D01*
X006953Y008453D01*
X006953Y009410D02*
X006953Y012953D01*
X003410Y012953D01*
X003410Y009410D01*
X006953Y009410D01*
X006953Y013910D02*
X003410Y013910D01*
X003410Y017453D01*
X006953Y017453D01*
X006953Y013910D01*
X006953Y018410D02*
X003410Y018410D01*
X003410Y021953D01*
X006953Y021953D01*
X006953Y018410D01*
X006953Y022910D02*
X003410Y022910D01*
X003410Y026453D01*
X006953Y026453D01*
X006953Y022910D01*
X006953Y027410D02*
X003410Y027410D01*
X003410Y030953D01*
X006953Y030953D01*
X006953Y027410D01*
X006953Y003953D02*
X003410Y003953D01*
X003410Y000410D01*
X006953Y000410D01*
X006953Y003953D01*
M02*
