G75*
G70*
%OFA0B0*%
%FSLAX24Y24*%
%IPPOS*%
%LPD*%
%AMOC8*
5,1,8,0,0,1.08239X$1,22.5*
%
%ADD10C,0.1430*%
%ADD11R,0.0680X0.0680*%
%ADD12C,0.0680*%
%ADD13C,0.1380*%
%ADD14C,0.0595*%
D10*
X023681Y030181D03*
D11*
X016681Y029083D03*
X016681Y024583D03*
X016681Y020083D03*
X016681Y015583D03*
X016681Y011083D03*
X016681Y006583D03*
X016681Y002083D03*
X024780Y016681D03*
X029280Y016681D03*
X033780Y016681D03*
X038280Y016681D03*
D12*
X038280Y015681D03*
X038280Y014681D03*
X038280Y013681D03*
X039461Y013683D03*
X039461Y012683D03*
X039461Y011071D03*
X039461Y009291D03*
X036901Y009291D03*
X034961Y009291D03*
X034961Y011071D03*
X034961Y012683D03*
X034961Y013683D03*
X034961Y014683D03*
X033780Y014681D03*
X033780Y013681D03*
X033780Y015681D03*
X034961Y015683D03*
X034961Y016683D03*
X034961Y017683D03*
X034961Y018683D03*
X039461Y018683D03*
X039461Y017683D03*
X039461Y016683D03*
X039461Y015683D03*
X039461Y014683D03*
X036901Y011071D03*
X032401Y011071D03*
X030461Y011071D03*
X030461Y012683D03*
X030461Y013683D03*
X030461Y014683D03*
X029280Y014681D03*
X029280Y013681D03*
X029280Y015681D03*
X030461Y015683D03*
X030461Y016683D03*
X030461Y017683D03*
X030461Y018683D03*
X025961Y018683D03*
X025961Y017683D03*
X025961Y016683D03*
X025961Y015683D03*
X024780Y015681D03*
X024780Y014681D03*
X024780Y013681D03*
X025961Y013683D03*
X025961Y012683D03*
X025961Y011071D03*
X027901Y011071D03*
X027901Y009291D03*
X025961Y009291D03*
X023401Y009291D03*
X023401Y011071D03*
X025961Y014683D03*
X030461Y009291D03*
X032401Y009291D03*
X018683Y009902D03*
X017683Y009902D03*
X016683Y009902D03*
X015683Y009902D03*
X014683Y009902D03*
X013683Y009902D03*
X012683Y009902D03*
X013681Y011083D03*
X014681Y011083D03*
X015681Y011083D03*
X015683Y014402D03*
X014683Y014402D03*
X013683Y014402D03*
X012683Y014402D03*
X013681Y015583D03*
X014681Y015583D03*
X015681Y015583D03*
X016683Y014402D03*
X017683Y014402D03*
X018683Y014402D03*
X018683Y018902D03*
X017683Y018902D03*
X016683Y018902D03*
X015683Y018902D03*
X014683Y018902D03*
X013683Y018902D03*
X012683Y018902D03*
X013681Y020083D03*
X014681Y020083D03*
X015681Y020083D03*
X015683Y023402D03*
X014683Y023402D03*
X013683Y023402D03*
X012683Y023402D03*
X013681Y024583D03*
X014681Y024583D03*
X015681Y024583D03*
X016683Y023402D03*
X017683Y023402D03*
X018683Y023402D03*
X018683Y027902D03*
X017683Y027902D03*
X016683Y027902D03*
X015683Y027902D03*
X014683Y027902D03*
X013683Y027902D03*
X012683Y027902D03*
X013681Y029083D03*
X014681Y029083D03*
X015681Y029083D03*
X011071Y027901D03*
X009291Y027901D03*
X009291Y025961D03*
X011071Y025961D03*
X011071Y023401D03*
X009291Y023401D03*
X009291Y021461D03*
X011071Y021461D03*
X011071Y018901D03*
X009291Y018901D03*
X009291Y016961D03*
X011071Y016961D03*
X011071Y014401D03*
X009291Y014401D03*
X009291Y012461D03*
X011071Y012461D03*
X011071Y009901D03*
X009291Y009901D03*
X009291Y007961D03*
X011071Y007961D03*
X013681Y006583D03*
X014681Y006583D03*
X015681Y006583D03*
X015683Y005402D03*
X014683Y005402D03*
X013683Y005402D03*
X012683Y005402D03*
X011071Y005401D03*
X009291Y005401D03*
X009291Y003461D03*
X011071Y003461D03*
X013681Y002083D03*
X014681Y002083D03*
X015681Y002083D03*
X015683Y000902D03*
X014683Y000902D03*
X013683Y000902D03*
X012683Y000902D03*
X011071Y000901D03*
X009291Y000901D03*
X016683Y000902D03*
X017683Y000902D03*
X018683Y000902D03*
X018683Y005402D03*
X017683Y005402D03*
X016683Y005402D03*
X011071Y030461D03*
X009291Y030461D03*
D13*
X001681Y002181D03*
X001681Y006681D03*
X001681Y011181D03*
X001681Y015681D03*
X001681Y020181D03*
X001681Y024681D03*
X001681Y029181D03*
X020681Y029181D03*
X020681Y024681D03*
X024681Y020681D03*
X020681Y020181D03*
X020681Y015681D03*
X020681Y011181D03*
X020681Y006681D03*
X020681Y002181D03*
X024681Y001681D03*
X029181Y001681D03*
X033681Y001681D03*
X038181Y001681D03*
X038181Y020681D03*
X033681Y020681D03*
X029181Y020681D03*
D14*
X029181Y006166D03*
X028197Y004197D03*
X030166Y004197D03*
X032697Y004197D03*
X034666Y004197D03*
X033681Y006166D03*
X037197Y004197D03*
X039166Y004197D03*
X038181Y006166D03*
X025666Y004197D03*
X023697Y004197D03*
X024681Y006166D03*
X006166Y006681D03*
X004197Y005697D03*
X004197Y007666D03*
X004197Y010197D03*
X006166Y011181D03*
X004197Y012166D03*
X004197Y014697D03*
X006166Y015681D03*
X004197Y016666D03*
X004197Y019197D03*
X006166Y020181D03*
X004197Y021166D03*
X004197Y023697D03*
X006166Y024681D03*
X004197Y025666D03*
X004197Y028197D03*
X006166Y029181D03*
X004197Y030166D03*
X004197Y003166D03*
X006166Y002181D03*
X004197Y001197D03*
M02*
