%
M48
M72
T01C0.0315
T02C0.0400
T03C0.1300
T04C0.1350
%
T01
X4197Y1197
X6166Y2181
X4197Y3166
X4197Y5697
X6166Y6681
X4197Y7666
X4197Y10197
X6166Y11181
X4197Y12166
X4197Y14697
X6166Y15681
X4197Y16666
X4197Y19197
X6166Y20181
X4197Y21166
X4197Y23697
X6166Y24681
X4197Y25666
X4197Y28197
X6166Y29181
X4197Y30166
X24681Y6166
X23697Y4197
X25666Y4197
X28197Y4197
X30166Y4197
X29181Y6166
X32697Y4197
X34666Y4197
X33681Y6166
X37197Y4197
X39166Y4197
X38181Y6166
T02
X36901Y9291
X34961Y9291
X34961Y11071
X34961Y12683
X34961Y13683
X34961Y14683
X33780Y14681
X33780Y13681
X33780Y15681
X34961Y15683
X34961Y16683
X34961Y17683
X34961Y18683
X33780Y16681
X30461Y16683
X30461Y15683
X29280Y15681
X29280Y14681
X29280Y13681
X30461Y13683
X30461Y12683
X30461Y11071
X32401Y11071
X32401Y9291
X30461Y9291
X27901Y9291
X25961Y9291
X25961Y11071
X25961Y12683
X25961Y13683
X25961Y14683
X24780Y14681
X24780Y13681
X24780Y15681
X25961Y15683
X25961Y16683
X25961Y17683
X25961Y18683
X24780Y16681
X29280Y16681
X30461Y17683
X30461Y18683
X30461Y14683
X27901Y11071
X23401Y11071
X23401Y9291
X18683Y9902
X17683Y9902
X16683Y9902
X15683Y9902
X14683Y9902
X13683Y9902
X12683Y9902
X13681Y11083
X14681Y11083
X15681Y11083
X16681Y11083
X16683Y14402
X17683Y14402
X18683Y14402
X16681Y15583
X15681Y15583
X14681Y15583
X13681Y15583
X13683Y14402
X12683Y14402
X11071Y14401
X9291Y14401
X9291Y12461
X11071Y12461
X11071Y9901
X9291Y9901
X9291Y7961
X11071Y7961
X13681Y6583
X14681Y6583
X15681Y6583
X16681Y6583
X16683Y5402
X17683Y5402
X18683Y5402
X15683Y5402
X14683Y5402
X13683Y5402
X12683Y5402
X11071Y5401
X9291Y5401
X9291Y3461
X11071Y3461
X13681Y2083
X14681Y2083
X15681Y2083
X16681Y2083
X16683Y902
X17683Y902
X18683Y902
X15683Y902
X14683Y902
X13683Y902
X12683Y902
X11071Y901
X9291Y901
X14683Y14402
X15683Y14402
X11071Y16961
X9291Y16961
X9291Y18901
X11071Y18901
X12683Y18902
X13683Y18902
X14683Y18902
X15683Y18902
X16683Y18902
X17683Y18902
X18683Y18902
X16681Y20083
X15681Y20083
X14681Y20083
X13681Y20083
X11071Y21461
X9291Y21461
X9291Y23401
X11071Y23401
X12683Y23402
X13683Y23402
X14683Y23402
X15683Y23402
X16683Y23402
X17683Y23402
X18683Y23402
X16681Y24583
X15681Y24583
X14681Y24583
X13681Y24583
X11071Y25961
X9291Y25961
X9291Y27901
X11071Y27901
X12683Y27902
X13683Y27902
X14683Y27902
X15683Y27902
X16683Y27902
X17683Y27902
X18683Y27902
X16681Y29083
X15681Y29083
X14681Y29083
X13681Y29083
X11071Y30461
X9291Y30461
X36901Y11071
X39461Y11071
X39461Y12683
X39461Y13683
X39461Y14683
X38280Y14681
X38280Y13681
X38280Y15681
X39461Y15683
X39461Y16683
X39461Y17683
X39461Y18683
X38280Y16681
X39461Y9291
T03
X1681Y2181
X1681Y6681
X1681Y11181
X1681Y15681
X1681Y20181
X1681Y24681
X1681Y29181
X20681Y29181
X20681Y24681
X24681Y20681
X20681Y20181
X20681Y15681
X20681Y11181
X20681Y6681
X20681Y2181
X24681Y1681
X29181Y1681
X33681Y1681
X38181Y1681
X38181Y20681
X33681Y20681
X29181Y20681
T04
X23681Y30181
M30
