G75*
G70*
%OFA0B0*%
%FSLAX24Y24*%
%IPPOS*%
%LPD*%
%AMOC8*
5,1,8,0,0,1.08239X$1,22.5*
%
%ADD10C,0.0120*%
%ADD11C,0.0150*%
%ADD12R,0.0600X0.0600*%
%ADD13C,0.0600*%
%ADD14C,0.0515*%
%ADD15C,0.0100*%
D10*
X034767Y028791D02*
X034767Y030172D01*
X035688Y028791D01*
X035688Y030172D01*
D11*
X036282Y028907D02*
X036958Y028907D01*
X037183Y028682D01*
X037183Y028456D01*
X036958Y028231D01*
X036282Y028231D01*
X036282Y027556D02*
X036282Y028907D01*
X036958Y028231D02*
X037183Y028006D01*
X037183Y027781D01*
X036958Y027556D01*
X036282Y027556D01*
X037532Y027407D02*
X037532Y026056D01*
X037982Y026506D01*
X038433Y026056D01*
X038433Y027407D01*
D12*
X038280Y016681D03*
X033780Y016681D03*
X029280Y016681D03*
X024780Y016681D03*
X016681Y015583D03*
X016681Y011083D03*
X016681Y006583D03*
X016681Y002083D03*
X016681Y020083D03*
X016681Y024583D03*
X016681Y029083D03*
D13*
X015681Y029083D03*
X014681Y029083D03*
X013681Y029083D03*
X013683Y027902D03*
X012683Y027902D03*
X011071Y027901D03*
X009291Y027901D03*
X009291Y025961D03*
X011071Y025961D03*
X013681Y024583D03*
X014681Y024583D03*
X015681Y024583D03*
X015683Y023402D03*
X014683Y023402D03*
X013683Y023402D03*
X012683Y023402D03*
X011071Y023401D03*
X009291Y023401D03*
X009291Y021461D03*
X011071Y021461D03*
X013681Y020083D03*
X014681Y020083D03*
X015681Y020083D03*
X015683Y018902D03*
X014683Y018902D03*
X013683Y018902D03*
X012683Y018902D03*
X011071Y018901D03*
X009291Y018901D03*
X009291Y016961D03*
X011071Y016961D03*
X013681Y015583D03*
X014681Y015583D03*
X015681Y015583D03*
X015683Y014402D03*
X014683Y014402D03*
X013683Y014402D03*
X012683Y014402D03*
X011071Y014401D03*
X009291Y014401D03*
X009291Y012461D03*
X011071Y012461D03*
X013681Y011083D03*
X014681Y011083D03*
X015681Y011083D03*
X015683Y009902D03*
X014683Y009902D03*
X013683Y009902D03*
X012683Y009902D03*
X011071Y009901D03*
X009291Y009901D03*
X009291Y007961D03*
X011071Y007961D03*
X013681Y006583D03*
X014681Y006583D03*
X015681Y006583D03*
X015683Y005402D03*
X014683Y005402D03*
X013683Y005402D03*
X012683Y005402D03*
X011071Y005401D03*
X009291Y005401D03*
X009291Y003461D03*
X011071Y003461D03*
X013681Y002083D03*
X014681Y002083D03*
X015681Y002083D03*
X015683Y000902D03*
X014683Y000902D03*
X013683Y000902D03*
X012683Y000902D03*
X011071Y000901D03*
X009291Y000901D03*
X016683Y000902D03*
X017683Y000902D03*
X018683Y000902D03*
X018683Y005402D03*
X017683Y005402D03*
X016683Y005402D03*
X016683Y009902D03*
X017683Y009902D03*
X018683Y009902D03*
X023401Y009291D03*
X023401Y011071D03*
X025961Y011071D03*
X025961Y012683D03*
X025961Y013683D03*
X025961Y014683D03*
X024780Y014681D03*
X024780Y013681D03*
X024780Y015681D03*
X025961Y015683D03*
X025961Y016683D03*
X025961Y017683D03*
X025961Y018683D03*
X029280Y015681D03*
X029280Y014681D03*
X029280Y013681D03*
X030461Y013683D03*
X030461Y012683D03*
X030461Y011071D03*
X032401Y011071D03*
X032401Y009291D03*
X030461Y009291D03*
X027901Y009291D03*
X025961Y009291D03*
X027901Y011071D03*
X030461Y014683D03*
X030461Y015683D03*
X030461Y016683D03*
X030461Y017683D03*
X030461Y018683D03*
X033780Y015681D03*
X033780Y014681D03*
X033780Y013681D03*
X034961Y013683D03*
X034961Y012683D03*
X034961Y011071D03*
X036901Y011071D03*
X036901Y009291D03*
X034961Y009291D03*
X039461Y009291D03*
X039461Y011071D03*
X039461Y012683D03*
X039461Y013683D03*
X039461Y014683D03*
X038280Y014681D03*
X038280Y013681D03*
X038280Y015681D03*
X039461Y015683D03*
X039461Y016683D03*
X039461Y017683D03*
X039461Y018683D03*
X034961Y018683D03*
X034961Y017683D03*
X034961Y016683D03*
X034961Y015683D03*
X034961Y014683D03*
X018683Y014402D03*
X017683Y014402D03*
X016683Y014402D03*
X016683Y018902D03*
X017683Y018902D03*
X018683Y018902D03*
X018683Y023402D03*
X017683Y023402D03*
X016683Y023402D03*
X016683Y027902D03*
X017683Y027902D03*
X018683Y027902D03*
X015683Y027902D03*
X014683Y027902D03*
X011071Y030461D03*
X009291Y030461D03*
D14*
X006166Y029181D03*
X004197Y028197D03*
X004197Y030166D03*
X004197Y025666D03*
X006166Y024681D03*
X004197Y023697D03*
X004197Y021166D03*
X006166Y020181D03*
X004197Y019197D03*
X004197Y016666D03*
X006166Y015681D03*
X004197Y014697D03*
X004197Y012166D03*
X006166Y011181D03*
X004197Y010197D03*
X004197Y007666D03*
X006166Y006681D03*
X004197Y005697D03*
X004197Y003166D03*
X006166Y002181D03*
X004197Y001197D03*
X023697Y004197D03*
X025666Y004197D03*
X024681Y006166D03*
X028197Y004197D03*
X030166Y004197D03*
X029181Y006166D03*
X032697Y004197D03*
X034666Y004197D03*
X033681Y006166D03*
X037197Y004197D03*
X039166Y004197D03*
X038181Y006166D03*
D15*
X003181Y003751D02*
X003181Y000631D01*
X008953Y000631D01*
X008927Y000658D01*
X008900Y000724D01*
X006199Y000724D01*
X006094Y000829D01*
X005906Y001017D01*
X004542Y001017D01*
X004526Y000978D01*
X004417Y000869D01*
X004274Y000810D01*
X004120Y000810D01*
X003978Y000869D01*
X003869Y000978D01*
X003810Y001120D01*
X003810Y001274D01*
X003869Y001417D01*
X003978Y001526D01*
X004120Y001585D01*
X004274Y001585D01*
X004417Y001526D01*
X004526Y001417D01*
X004542Y001377D01*
X005906Y001377D01*
X006055Y001377D01*
X006348Y001084D01*
X008902Y001084D01*
X008927Y001145D01*
X009048Y001266D01*
X009174Y001318D01*
X006923Y001318D01*
X006774Y001318D01*
X006282Y001810D01*
X006243Y001794D01*
X006089Y001794D01*
X005946Y001853D01*
X005837Y001962D01*
X005778Y002104D01*
X005778Y002258D01*
X005837Y002401D01*
X005946Y002510D01*
X006089Y002569D01*
X006243Y002569D01*
X006385Y002510D01*
X006494Y002401D01*
X006553Y002258D01*
X006553Y002104D01*
X006537Y002065D01*
X006923Y001678D01*
X013535Y001678D01*
X013438Y001718D01*
X013317Y001839D01*
X013251Y001997D01*
X013251Y002169D01*
X013317Y002327D01*
X013438Y002447D01*
X013596Y002513D01*
X013767Y002513D01*
X013925Y002447D01*
X014046Y002327D01*
X014111Y002169D01*
X014111Y001997D01*
X014046Y001839D01*
X013925Y001718D01*
X013828Y001678D01*
X014043Y001678D01*
X014149Y001573D01*
X014451Y001271D01*
X014598Y001332D01*
X014769Y001332D01*
X014927Y001266D01*
X015048Y001145D01*
X015113Y000987D01*
X015113Y000847D01*
X015253Y000975D01*
X015253Y000987D01*
X015319Y001145D01*
X015440Y001266D01*
X015598Y001332D01*
X015769Y001332D01*
X015927Y001266D01*
X016048Y001145D01*
X016113Y000987D01*
X016113Y000816D01*
X016048Y000658D01*
X016021Y000631D01*
X016346Y000631D01*
X016319Y000658D01*
X016253Y000816D01*
X016253Y000987D01*
X016319Y001145D01*
X016440Y001266D01*
X016523Y001301D01*
X016331Y001301D01*
X016226Y001406D01*
X015917Y001715D01*
X015767Y001653D01*
X015596Y001653D01*
X015438Y001718D01*
X015317Y001839D01*
X015251Y001997D01*
X015251Y002169D01*
X015317Y002327D01*
X015438Y002447D01*
X015596Y002513D01*
X015767Y002513D01*
X015925Y002447D01*
X016046Y002327D01*
X016111Y002169D01*
X016111Y002030D01*
X016251Y001889D01*
X016251Y002437D01*
X016328Y002513D01*
X017035Y002513D01*
X017111Y002437D01*
X017111Y002263D01*
X017428Y002263D01*
X017577Y002263D01*
X018534Y001306D01*
X018598Y001332D01*
X018769Y001332D01*
X018927Y001266D01*
X019048Y001145D01*
X019113Y000987D01*
X019113Y000816D01*
X019048Y000658D01*
X019021Y000631D01*
X019181Y000631D01*
X019181Y003751D01*
X011390Y003751D01*
X011436Y003705D01*
X011501Y003547D01*
X011501Y003376D01*
X011436Y003218D01*
X011315Y003097D01*
X011157Y003031D01*
X010986Y003031D01*
X010828Y003097D01*
X010707Y003218D01*
X010641Y003376D01*
X010641Y003547D01*
X010707Y003705D01*
X010753Y003751D01*
X009610Y003751D01*
X009656Y003705D01*
X009721Y003547D01*
X009721Y003376D01*
X009656Y003218D01*
X009535Y003097D01*
X009377Y003031D01*
X009206Y003031D01*
X009048Y003097D01*
X008927Y003218D01*
X008861Y003376D01*
X008861Y003547D01*
X008927Y003705D01*
X008973Y003751D01*
X003181Y003751D01*
X003181Y003729D02*
X008951Y003729D01*
X008896Y003630D02*
X003181Y003630D01*
X003181Y003532D02*
X004017Y003532D01*
X003966Y003511D02*
X003852Y003396D01*
X003790Y003247D01*
X003790Y003194D01*
X004168Y003194D01*
X004168Y003137D01*
X003790Y003137D01*
X003790Y003085D01*
X003852Y002935D01*
X003966Y002820D01*
X004116Y002758D01*
X004168Y002758D01*
X004168Y003137D01*
X004226Y003137D01*
X004226Y003194D01*
X004605Y003194D01*
X004605Y003247D01*
X004543Y003396D01*
X004428Y003511D01*
X004278Y003573D01*
X004226Y003573D01*
X004226Y003195D01*
X004168Y003195D01*
X004168Y003573D01*
X004116Y003573D01*
X003966Y003511D01*
X003889Y003433D02*
X003181Y003433D01*
X003181Y003335D02*
X003826Y003335D01*
X003790Y003236D02*
X003181Y003236D01*
X003181Y003138D02*
X004168Y003138D01*
X004197Y003166D02*
X008197Y003166D01*
X008681Y002681D01*
X011681Y002681D01*
X012181Y003181D01*
X014181Y003181D01*
X014681Y002681D01*
X014681Y002083D01*
X014631Y002054D02*
X014111Y002054D01*
X014111Y002152D02*
X014231Y002152D01*
X014231Y002133D02*
X014631Y002133D01*
X014631Y002033D01*
X014231Y002033D01*
X014231Y001993D01*
X014300Y001828D01*
X014426Y001701D01*
X014592Y001633D01*
X014631Y001633D01*
X014631Y002033D01*
X014731Y002033D01*
X014731Y001633D01*
X014771Y001633D01*
X014936Y001701D01*
X015063Y001828D01*
X015131Y001993D01*
X015131Y002033D01*
X014732Y002033D01*
X014732Y002133D01*
X015131Y002133D01*
X015131Y002172D01*
X015063Y002338D01*
X014936Y002464D01*
X014771Y002533D01*
X014731Y002533D01*
X014731Y002133D01*
X014631Y002133D01*
X014631Y002533D01*
X014592Y002533D01*
X014426Y002464D01*
X014300Y002338D01*
X014231Y002172D01*
X014231Y002133D01*
X014264Y002251D02*
X014077Y002251D01*
X014023Y002349D02*
X014311Y002349D01*
X014410Y002448D02*
X013924Y002448D01*
X013439Y002448D02*
X006447Y002448D01*
X006515Y002349D02*
X013340Y002349D01*
X013286Y002251D02*
X006553Y002251D01*
X006553Y002152D02*
X013251Y002152D01*
X013251Y002054D02*
X006548Y002054D01*
X006646Y001955D02*
X013269Y001955D01*
X013310Y001857D02*
X006745Y001857D01*
X006843Y001758D02*
X013398Y001758D01*
X013513Y001318D02*
X013428Y001283D01*
X013302Y001157D01*
X013233Y000991D01*
X013233Y000952D01*
X013633Y000952D01*
X013633Y000852D01*
X013233Y000852D01*
X013233Y000812D01*
X013302Y000647D01*
X013318Y000631D01*
X013021Y000631D01*
X013048Y000658D01*
X013113Y000816D01*
X013113Y000987D01*
X013048Y001145D01*
X012927Y001266D01*
X012801Y001318D01*
X013513Y001318D01*
X013411Y001265D02*
X012928Y001265D01*
X013026Y001167D02*
X013312Y001167D01*
X013265Y001068D02*
X013080Y001068D01*
X013113Y000970D02*
X013233Y000970D01*
X013113Y000871D02*
X013633Y000871D01*
X013734Y000871D02*
X014253Y000871D01*
X014253Y000816D02*
X014253Y000959D01*
X014071Y001141D01*
X014133Y000991D01*
X014133Y000952D01*
X013734Y000952D01*
X013734Y000852D01*
X014133Y000852D01*
X014133Y000812D01*
X014065Y000647D01*
X014049Y000631D01*
X014346Y000631D01*
X014319Y000658D01*
X014253Y000816D01*
X014271Y000773D02*
X014117Y000773D01*
X014076Y000674D02*
X014312Y000674D01*
X014243Y000970D02*
X014133Y000970D01*
X014144Y001068D02*
X014101Y001068D01*
X014358Y001364D02*
X016268Y001364D01*
X016169Y001462D02*
X014259Y001462D01*
X014161Y001561D02*
X016071Y001561D01*
X015972Y001660D02*
X015783Y001660D01*
X015580Y001660D02*
X014835Y001660D01*
X014731Y001660D02*
X014631Y001660D01*
X014631Y001758D02*
X014731Y001758D01*
X014731Y001857D02*
X014631Y001857D01*
X014631Y001955D02*
X014731Y001955D01*
X014732Y002054D02*
X015251Y002054D01*
X015251Y002152D02*
X015131Y002152D01*
X015099Y002251D02*
X015286Y002251D01*
X015340Y002349D02*
X015051Y002349D01*
X014953Y002448D02*
X015439Y002448D01*
X015681Y002083D02*
X015803Y002083D01*
X016406Y001481D01*
X017105Y001481D01*
X017683Y000902D01*
X018279Y001561D02*
X019181Y001561D01*
X019181Y001462D02*
X018377Y001462D01*
X018476Y001364D02*
X019181Y001364D01*
X019181Y001265D02*
X018928Y001265D01*
X019026Y001167D02*
X019181Y001167D01*
X019181Y001068D02*
X019080Y001068D01*
X019113Y000970D02*
X019181Y000970D01*
X019181Y000871D02*
X019113Y000871D01*
X019095Y000773D02*
X019181Y000773D01*
X019181Y000674D02*
X019054Y000674D01*
X018683Y000902D02*
X017502Y002083D01*
X016681Y002083D01*
X016251Y002054D02*
X016111Y002054D01*
X016111Y002152D02*
X016251Y002152D01*
X016251Y002251D02*
X016077Y002251D01*
X016023Y002349D02*
X016251Y002349D01*
X016263Y002448D02*
X015924Y002448D01*
X016186Y001955D02*
X016251Y001955D01*
X016439Y001265D02*
X015928Y001265D01*
X016026Y001167D02*
X016340Y001167D01*
X016287Y001068D02*
X016080Y001068D01*
X016113Y000970D02*
X016253Y000970D01*
X016253Y000871D02*
X016113Y000871D01*
X016095Y000773D02*
X016271Y000773D01*
X016312Y000674D02*
X016054Y000674D01*
X015683Y000902D02*
X015439Y000902D01*
X014927Y000431D01*
X011567Y000431D01*
X011071Y000901D01*
X009291Y000901D02*
X009289Y000904D01*
X006274Y000904D01*
X005981Y001197D01*
X004197Y001197D01*
X003915Y001462D02*
X003181Y001462D01*
X003181Y001364D02*
X003847Y001364D01*
X003810Y001265D02*
X003181Y001265D01*
X003181Y001167D02*
X003810Y001167D01*
X003831Y001068D02*
X003181Y001068D01*
X003181Y000970D02*
X003877Y000970D01*
X003975Y000871D02*
X003181Y000871D01*
X003181Y000773D02*
X006151Y000773D01*
X006052Y000871D02*
X004419Y000871D01*
X004518Y000970D02*
X005953Y000970D01*
X006167Y001265D02*
X009047Y001265D01*
X008949Y001167D02*
X006265Y001167D01*
X006068Y001364D02*
X006729Y001364D01*
X006630Y001462D02*
X004480Y001462D01*
X004331Y001561D02*
X006531Y001561D01*
X006433Y001660D02*
X003181Y001660D01*
X003181Y001758D02*
X006334Y001758D01*
X005942Y001857D02*
X003181Y001857D01*
X003181Y001955D02*
X005844Y001955D01*
X005799Y002054D02*
X003181Y002054D01*
X003181Y002152D02*
X005778Y002152D01*
X005778Y002251D02*
X003181Y002251D01*
X003181Y002349D02*
X005816Y002349D01*
X005884Y002448D02*
X003181Y002448D01*
X003181Y002546D02*
X006035Y002546D01*
X006297Y002546D02*
X019181Y002546D01*
X019181Y002448D02*
X017100Y002448D01*
X017111Y002349D02*
X019181Y002349D01*
X019181Y002251D02*
X017589Y002251D01*
X017687Y002152D02*
X019181Y002152D01*
X019181Y002054D02*
X017786Y002054D01*
X017885Y001955D02*
X019181Y001955D01*
X019181Y001857D02*
X017983Y001857D01*
X018082Y001758D02*
X019181Y001758D01*
X019181Y001660D02*
X018180Y001660D01*
X019181Y002645D02*
X003181Y002645D01*
X003181Y002744D02*
X019181Y002744D01*
X019181Y002842D02*
X004450Y002842D01*
X004428Y002820D02*
X004543Y002935D01*
X004605Y003085D01*
X004605Y003137D01*
X004226Y003137D01*
X004226Y002758D01*
X004278Y002758D01*
X004428Y002820D01*
X004545Y002941D02*
X019181Y002941D01*
X019181Y003039D02*
X011176Y003039D01*
X011356Y003138D02*
X019181Y003138D01*
X019181Y003236D02*
X011444Y003236D01*
X011484Y003335D02*
X019181Y003335D01*
X019181Y003433D02*
X011501Y003433D01*
X011501Y003532D02*
X019181Y003532D01*
X019181Y003630D02*
X011467Y003630D01*
X011412Y003729D02*
X019181Y003729D01*
X019181Y005131D02*
X019021Y005131D01*
X019048Y005158D01*
X019113Y005316D01*
X019113Y005487D01*
X019048Y005645D01*
X018927Y005766D01*
X018769Y005832D01*
X018598Y005832D01*
X018534Y005805D01*
X017577Y006763D01*
X017428Y006763D01*
X017111Y006763D01*
X017111Y006937D01*
X017035Y007013D01*
X016328Y007013D01*
X016251Y006937D01*
X016251Y006389D01*
X016111Y006530D01*
X016111Y006669D01*
X016046Y006827D01*
X015925Y006947D01*
X015767Y007013D01*
X015596Y007013D01*
X015438Y006947D01*
X015317Y006827D01*
X015251Y006669D01*
X015251Y006497D01*
X015317Y006339D01*
X015438Y006218D01*
X015596Y006153D01*
X015767Y006153D01*
X015917Y006215D01*
X016226Y005906D01*
X016331Y005801D01*
X016523Y005801D01*
X016440Y005766D01*
X016319Y005645D01*
X016253Y005487D01*
X016253Y005316D01*
X016319Y005158D01*
X016346Y005131D01*
X016021Y005131D01*
X016048Y005158D01*
X016113Y005316D01*
X016113Y005487D01*
X016048Y005645D01*
X015927Y005766D01*
X015769Y005832D01*
X015598Y005832D01*
X015440Y005766D01*
X015319Y005645D01*
X015253Y005487D01*
X015253Y005475D01*
X015113Y005347D01*
X015113Y005487D01*
X015048Y005645D01*
X014927Y005766D01*
X014769Y005832D01*
X014598Y005832D01*
X014451Y005771D01*
X014149Y006073D01*
X014043Y006178D01*
X013828Y006178D01*
X013925Y006218D01*
X014046Y006339D01*
X014111Y006497D01*
X014111Y006669D01*
X014046Y006827D01*
X013925Y006947D01*
X013767Y007013D01*
X013596Y007013D01*
X013438Y006947D01*
X013317Y006827D01*
X013251Y006669D01*
X013251Y006497D01*
X013317Y006339D01*
X013438Y006218D01*
X013535Y006178D01*
X006923Y006178D01*
X006537Y006565D01*
X006553Y006604D01*
X006553Y006758D01*
X006494Y006901D01*
X006385Y007010D01*
X006243Y007069D01*
X006089Y007069D01*
X005946Y007010D01*
X005837Y006901D01*
X005778Y006758D01*
X005778Y006604D01*
X005837Y006462D01*
X005946Y006353D01*
X006089Y006294D01*
X006243Y006294D01*
X006282Y006310D01*
X006774Y005818D01*
X006923Y005818D01*
X009174Y005818D01*
X009048Y005766D01*
X008927Y005645D01*
X008902Y005584D01*
X006348Y005584D01*
X006055Y005877D01*
X005906Y005877D01*
X004542Y005877D01*
X004526Y005917D01*
X004417Y006026D01*
X004274Y006085D01*
X004120Y006085D01*
X003978Y006026D01*
X003869Y005917D01*
X003810Y005774D01*
X003810Y005620D01*
X003869Y005478D01*
X003978Y005369D01*
X004120Y005310D01*
X004274Y005310D01*
X004417Y005369D01*
X004526Y005478D01*
X004542Y005517D01*
X005906Y005517D01*
X006094Y005329D01*
X006199Y005224D01*
X008900Y005224D01*
X008927Y005158D01*
X008953Y005131D01*
X003181Y005131D01*
X003181Y008251D01*
X008973Y008251D01*
X008927Y008205D01*
X008861Y008047D01*
X008861Y007876D01*
X008927Y007718D01*
X009048Y007597D01*
X009206Y007531D01*
X009377Y007531D01*
X009535Y007597D01*
X009656Y007718D01*
X009721Y007876D01*
X009721Y008047D01*
X009656Y008205D01*
X009610Y008251D01*
X010753Y008251D01*
X010707Y008205D01*
X010641Y008047D01*
X010641Y007876D01*
X010707Y007718D01*
X010828Y007597D01*
X010986Y007531D01*
X011157Y007531D01*
X011315Y007597D01*
X011436Y007718D01*
X011501Y007876D01*
X011501Y008047D01*
X011436Y008205D01*
X011390Y008251D01*
X019181Y008251D01*
X019181Y005131D01*
X019181Y005207D02*
X019068Y005207D01*
X019109Y005306D02*
X019181Y005306D01*
X019181Y005404D02*
X019113Y005404D01*
X019107Y005503D02*
X019181Y005503D01*
X019181Y005601D02*
X019066Y005601D01*
X018993Y005700D02*
X019181Y005700D01*
X019181Y005798D02*
X018850Y005798D01*
X019181Y005897D02*
X018443Y005897D01*
X018344Y005995D02*
X019181Y005995D01*
X019181Y006094D02*
X018246Y006094D01*
X018147Y006193D02*
X019181Y006193D01*
X019181Y006291D02*
X018049Y006291D01*
X017950Y006390D02*
X019181Y006390D01*
X019181Y006488D02*
X017852Y006488D01*
X017753Y006587D02*
X019181Y006587D01*
X019181Y006685D02*
X017654Y006685D01*
X017502Y006583D02*
X018683Y005402D01*
X017683Y005402D02*
X017105Y005981D01*
X016406Y005981D01*
X015803Y006583D01*
X015681Y006583D01*
X015251Y006587D02*
X014732Y006587D01*
X014732Y006633D02*
X015131Y006633D01*
X015131Y006672D01*
X015063Y006838D01*
X014936Y006964D01*
X014771Y007033D01*
X014731Y007033D01*
X014731Y006633D01*
X014631Y006633D01*
X014631Y006533D01*
X014231Y006533D01*
X014231Y006493D01*
X014300Y006328D01*
X014426Y006201D01*
X014592Y006133D01*
X014631Y006133D01*
X014631Y006533D01*
X014731Y006533D01*
X014731Y006133D01*
X014771Y006133D01*
X014936Y006201D01*
X015063Y006328D01*
X015131Y006493D01*
X015131Y006533D01*
X014732Y006533D01*
X014732Y006633D01*
X014731Y006685D02*
X014631Y006685D01*
X014631Y006633D02*
X014631Y007033D01*
X014592Y007033D01*
X014426Y006964D01*
X014300Y006838D01*
X014231Y006672D01*
X014231Y006633D01*
X014631Y006633D01*
X014631Y006587D02*
X014111Y006587D01*
X014104Y006685D02*
X014237Y006685D01*
X014278Y006784D02*
X014064Y006784D01*
X013990Y006882D02*
X014344Y006882D01*
X014466Y006981D02*
X013844Y006981D01*
X013519Y006981D02*
X006414Y006981D01*
X006502Y006882D02*
X013373Y006882D01*
X013299Y006784D02*
X006543Y006784D01*
X006553Y006685D02*
X013258Y006685D01*
X013251Y006587D02*
X006546Y006587D01*
X006613Y006488D02*
X013255Y006488D01*
X013296Y006390D02*
X006712Y006390D01*
X006810Y006291D02*
X013365Y006291D01*
X013500Y006193D02*
X006909Y006193D01*
X006849Y005998D02*
X006166Y006681D01*
X005778Y006685D02*
X003181Y006685D01*
X003181Y006587D02*
X005785Y006587D01*
X005826Y006488D02*
X003181Y006488D01*
X003181Y006390D02*
X005909Y006390D01*
X006301Y006291D02*
X003181Y006291D01*
X003181Y006193D02*
X006400Y006193D01*
X006499Y006094D02*
X003181Y006094D01*
X003181Y005995D02*
X003948Y005995D01*
X003861Y005897D02*
X003181Y005897D01*
X003181Y005798D02*
X003820Y005798D01*
X003810Y005700D02*
X003181Y005700D01*
X003181Y005601D02*
X003817Y005601D01*
X003858Y005503D02*
X003181Y005503D01*
X003181Y005404D02*
X003942Y005404D01*
X004197Y005697D02*
X005981Y005697D01*
X006274Y005404D01*
X009289Y005404D01*
X009291Y005401D01*
X008982Y005700D02*
X006232Y005700D01*
X006134Y005798D02*
X009126Y005798D01*
X008909Y005601D02*
X006331Y005601D01*
X006118Y005306D02*
X003181Y005306D01*
X003181Y005207D02*
X008906Y005207D01*
X009632Y003729D02*
X010731Y003729D01*
X010676Y003630D02*
X009687Y003630D01*
X009721Y003532D02*
X010641Y003532D01*
X010641Y003433D02*
X009721Y003433D01*
X009704Y003335D02*
X010658Y003335D01*
X010699Y003236D02*
X009664Y003236D01*
X009576Y003138D02*
X010787Y003138D01*
X010967Y003039D02*
X009396Y003039D01*
X009187Y003039D02*
X004586Y003039D01*
X004605Y003236D02*
X008919Y003236D01*
X008878Y003335D02*
X004568Y003335D01*
X004506Y003433D02*
X008861Y003433D01*
X008861Y003532D02*
X004378Y003532D01*
X004226Y003532D02*
X004168Y003532D01*
X004168Y003433D02*
X004226Y003433D01*
X004226Y003335D02*
X004168Y003335D01*
X004168Y003236D02*
X004226Y003236D01*
X004226Y003138D02*
X009007Y003138D01*
X006849Y001498D02*
X006166Y002181D01*
X006849Y001498D02*
X013969Y001498D01*
X014565Y000902D01*
X014683Y000902D01*
X015080Y001068D02*
X015287Y001068D01*
X015247Y000970D02*
X015113Y000970D01*
X015113Y000871D02*
X015140Y000871D01*
X015026Y001167D02*
X015340Y001167D01*
X015439Y001265D02*
X014928Y001265D01*
X014993Y001758D02*
X015398Y001758D01*
X015310Y001857D02*
X015075Y001857D01*
X015116Y001955D02*
X015269Y001955D01*
X014731Y002152D02*
X014631Y002152D01*
X014631Y002251D02*
X014731Y002251D01*
X014731Y002349D02*
X014631Y002349D01*
X014631Y002448D02*
X014731Y002448D01*
X014247Y001955D02*
X014094Y001955D01*
X014053Y001857D02*
X014288Y001857D01*
X014370Y001758D02*
X013965Y001758D01*
X014062Y001660D02*
X014528Y001660D01*
X013250Y000773D02*
X013095Y000773D01*
X013054Y000674D02*
X013291Y000674D01*
X008920Y000674D02*
X003181Y000674D01*
X003181Y001561D02*
X004063Y001561D01*
X004168Y002842D02*
X004226Y002842D01*
X004226Y002941D02*
X004168Y002941D01*
X004168Y003039D02*
X004226Y003039D01*
X003944Y002842D02*
X003181Y002842D01*
X003181Y002941D02*
X003849Y002941D01*
X003808Y003039D02*
X003181Y003039D01*
X004452Y005404D02*
X006019Y005404D01*
X005920Y005503D02*
X004536Y005503D01*
X004534Y005897D02*
X006696Y005897D01*
X006597Y005995D02*
X004447Y005995D01*
X003181Y006784D02*
X005789Y006784D01*
X005830Y006882D02*
X003181Y006882D01*
X003181Y006981D02*
X005917Y006981D01*
X006849Y005998D02*
X013969Y005998D01*
X014565Y005402D01*
X014683Y005402D01*
X014253Y005404D02*
X013734Y005404D01*
X013734Y005452D02*
X014133Y005452D01*
X014133Y005491D01*
X014071Y005641D01*
X014253Y005459D01*
X014253Y005316D01*
X014319Y005158D01*
X014346Y005131D01*
X014049Y005131D01*
X014065Y005147D01*
X014133Y005312D01*
X014133Y005352D01*
X013734Y005352D01*
X013734Y005452D01*
X013633Y005452D02*
X013633Y005352D01*
X013233Y005352D01*
X013233Y005312D01*
X013302Y005147D01*
X013318Y005131D01*
X013021Y005131D01*
X013048Y005158D01*
X013113Y005316D01*
X013113Y005487D01*
X013048Y005645D01*
X012927Y005766D01*
X012801Y005818D01*
X013513Y005818D01*
X013428Y005783D01*
X013302Y005657D01*
X013233Y005491D01*
X013233Y005452D01*
X013633Y005452D01*
X013633Y005404D02*
X013113Y005404D01*
X013109Y005306D02*
X013236Y005306D01*
X013277Y005207D02*
X013068Y005207D01*
X013107Y005503D02*
X013238Y005503D01*
X013279Y005601D02*
X013066Y005601D01*
X012993Y005700D02*
X013345Y005700D01*
X013465Y005798D02*
X012850Y005798D01*
X013862Y006193D02*
X014448Y006193D01*
X014337Y006291D02*
X013998Y006291D01*
X014067Y006390D02*
X014274Y006390D01*
X014234Y006488D02*
X014108Y006488D01*
X014128Y006094D02*
X016038Y006094D01*
X016136Y005995D02*
X014226Y005995D01*
X014325Y005897D02*
X016235Y005897D01*
X016373Y005700D02*
X015993Y005700D01*
X016066Y005601D02*
X016301Y005601D01*
X016260Y005503D02*
X016107Y005503D01*
X016113Y005404D02*
X016253Y005404D01*
X016258Y005306D02*
X016109Y005306D01*
X016068Y005207D02*
X016299Y005207D01*
X016517Y005798D02*
X015850Y005798D01*
X015517Y005798D02*
X014850Y005798D01*
X014993Y005700D02*
X015373Y005700D01*
X015301Y005601D02*
X015066Y005601D01*
X015107Y005503D02*
X015260Y005503D01*
X015176Y005404D02*
X015113Y005404D01*
X015439Y005402D02*
X014927Y004931D01*
X011567Y004931D01*
X011071Y005401D01*
X011681Y007181D02*
X012181Y007681D01*
X014181Y007681D01*
X014681Y007181D01*
X014681Y006583D01*
X014631Y006488D02*
X014731Y006488D01*
X014731Y006390D02*
X014631Y006390D01*
X014631Y006291D02*
X014731Y006291D01*
X014731Y006193D02*
X014631Y006193D01*
X014915Y006193D02*
X015500Y006193D01*
X015365Y006291D02*
X015026Y006291D01*
X015088Y006390D02*
X015296Y006390D01*
X015255Y006488D02*
X015129Y006488D01*
X015126Y006685D02*
X015258Y006685D01*
X015299Y006784D02*
X015085Y006784D01*
X015018Y006882D02*
X015373Y006882D01*
X015519Y006981D02*
X014897Y006981D01*
X014731Y006981D02*
X014631Y006981D01*
X014631Y006882D02*
X014731Y006882D01*
X014731Y006784D02*
X014631Y006784D01*
X014517Y005798D02*
X014423Y005798D01*
X014210Y005503D02*
X014129Y005503D01*
X014111Y005601D02*
X014088Y005601D01*
X014131Y005306D02*
X014258Y005306D01*
X014299Y005207D02*
X014090Y005207D01*
X015439Y005402D02*
X015683Y005402D01*
X015862Y006193D02*
X015939Y006193D01*
X016153Y006488D02*
X016251Y006488D01*
X016251Y006390D02*
X016251Y006390D01*
X016251Y006587D02*
X016111Y006587D01*
X016104Y006685D02*
X016251Y006685D01*
X016251Y006784D02*
X016064Y006784D01*
X015990Y006882D02*
X016251Y006882D01*
X016296Y006981D02*
X015844Y006981D01*
X016681Y006583D02*
X017502Y006583D01*
X017111Y006784D02*
X019181Y006784D01*
X019181Y006882D02*
X017111Y006882D01*
X017067Y006981D02*
X019181Y006981D01*
X019181Y007079D02*
X003181Y007079D01*
X003181Y007178D02*
X019181Y007178D01*
X019181Y007277D02*
X004322Y007277D01*
X004278Y007258D02*
X004428Y007320D01*
X004543Y007435D01*
X004605Y007585D01*
X004605Y007637D01*
X004226Y007637D01*
X004226Y007694D01*
X004605Y007694D01*
X004605Y007747D01*
X004543Y007896D01*
X004428Y008011D01*
X004278Y008073D01*
X004226Y008073D01*
X004226Y007695D01*
X004168Y007695D01*
X004168Y008073D01*
X004116Y008073D01*
X003966Y008011D01*
X003852Y007896D01*
X003790Y007747D01*
X003790Y007694D01*
X004168Y007694D01*
X004168Y007637D01*
X003790Y007637D01*
X003790Y007585D01*
X003852Y007435D01*
X003966Y007320D01*
X004116Y007258D01*
X004168Y007258D01*
X004168Y007637D01*
X004226Y007637D01*
X004226Y007258D01*
X004278Y007258D01*
X004226Y007277D02*
X004168Y007277D01*
X004072Y007277D02*
X003181Y007277D01*
X003181Y007375D02*
X003911Y007375D01*
X003836Y007474D02*
X003181Y007474D01*
X003181Y007572D02*
X003795Y007572D01*
X003799Y007769D02*
X003181Y007769D01*
X003181Y007671D02*
X004168Y007671D01*
X004197Y007666D02*
X008197Y007666D01*
X008681Y007181D01*
X011681Y007181D01*
X011389Y007671D02*
X019181Y007671D01*
X019181Y007769D02*
X011457Y007769D01*
X011498Y007868D02*
X019181Y007868D01*
X019181Y007966D02*
X011501Y007966D01*
X011494Y008065D02*
X019181Y008065D01*
X019181Y008163D02*
X011453Y008163D01*
X011255Y007572D02*
X019181Y007572D01*
X019181Y007474D02*
X004559Y007474D01*
X004599Y007572D02*
X009107Y007572D01*
X008974Y007671D02*
X004226Y007671D01*
X004226Y007769D02*
X004168Y007769D01*
X004168Y007868D02*
X004226Y007868D01*
X004226Y007966D02*
X004168Y007966D01*
X004168Y008065D02*
X004226Y008065D01*
X004298Y008065D02*
X008869Y008065D01*
X008861Y007966D02*
X004473Y007966D01*
X004554Y007868D02*
X008865Y007868D01*
X008906Y007769D02*
X004595Y007769D01*
X004483Y007375D02*
X019181Y007375D01*
X019181Y009631D02*
X019021Y009631D01*
X019048Y009658D01*
X019113Y009816D01*
X019113Y009987D01*
X019048Y010145D01*
X018927Y010266D01*
X018769Y010332D01*
X018598Y010332D01*
X018534Y010305D01*
X017577Y011263D01*
X017428Y011263D01*
X017111Y011263D01*
X017111Y011437D01*
X017035Y011513D01*
X016328Y011513D01*
X016251Y011437D01*
X016251Y010889D01*
X016111Y011030D01*
X016111Y011169D01*
X016046Y011327D01*
X015925Y011447D01*
X015767Y011513D01*
X015596Y011513D01*
X015438Y011447D01*
X015317Y011327D01*
X015251Y011169D01*
X015251Y010997D01*
X015317Y010839D01*
X015438Y010718D01*
X015596Y010653D01*
X015767Y010653D01*
X015917Y010715D01*
X016226Y010406D01*
X016331Y010301D01*
X016523Y010301D01*
X016440Y010266D01*
X016319Y010145D01*
X016253Y009987D01*
X016253Y009816D01*
X016319Y009658D01*
X016346Y009631D01*
X016021Y009631D01*
X016048Y009658D01*
X016113Y009816D01*
X016113Y009987D01*
X016048Y010145D01*
X015927Y010266D01*
X015769Y010332D01*
X015598Y010332D01*
X015440Y010266D01*
X015319Y010145D01*
X015253Y009987D01*
X015253Y009975D01*
X015113Y009847D01*
X015113Y009987D01*
X015048Y010145D01*
X014927Y010266D01*
X014769Y010332D01*
X014598Y010332D01*
X014451Y010271D01*
X014149Y010573D01*
X014043Y010678D01*
X013828Y010678D01*
X013925Y010718D01*
X014046Y010839D01*
X014111Y010997D01*
X014111Y011169D01*
X014046Y011327D01*
X013925Y011447D01*
X013767Y011513D01*
X013596Y011513D01*
X013438Y011447D01*
X013317Y011327D01*
X013251Y011169D01*
X013251Y010997D01*
X013317Y010839D01*
X013438Y010718D01*
X013535Y010678D01*
X006923Y010678D01*
X006537Y011065D01*
X006553Y011104D01*
X006553Y011258D01*
X006494Y011401D01*
X006385Y011510D01*
X006243Y011569D01*
X006089Y011569D01*
X005946Y011510D01*
X005837Y011401D01*
X005778Y011258D01*
X005778Y011104D01*
X005837Y010962D01*
X005946Y010853D01*
X006089Y010794D01*
X006243Y010794D01*
X006282Y010810D01*
X006774Y010318D01*
X006923Y010318D01*
X009174Y010318D01*
X009048Y010266D01*
X008927Y010145D01*
X008902Y010084D01*
X006348Y010084D01*
X006055Y010377D01*
X005906Y010377D01*
X004542Y010377D01*
X004526Y010417D01*
X004417Y010526D01*
X004274Y010585D01*
X004120Y010585D01*
X003978Y010526D01*
X003869Y010417D01*
X003810Y010274D01*
X003810Y010120D01*
X003869Y009978D01*
X003978Y009869D01*
X004120Y009810D01*
X004274Y009810D01*
X004417Y009869D01*
X004526Y009978D01*
X004542Y010017D01*
X005906Y010017D01*
X006094Y009829D01*
X006199Y009724D01*
X008900Y009724D01*
X008927Y009658D01*
X008953Y009631D01*
X003181Y009631D01*
X003181Y012751D01*
X008973Y012751D01*
X008927Y012705D01*
X008861Y012547D01*
X008861Y012376D01*
X008927Y012218D01*
X009048Y012097D01*
X009206Y012031D01*
X009377Y012031D01*
X009535Y012097D01*
X009656Y012218D01*
X009721Y012376D01*
X009721Y012547D01*
X009656Y012705D01*
X009610Y012751D01*
X010753Y012751D01*
X010707Y012705D01*
X010641Y012547D01*
X010641Y012376D01*
X010707Y012218D01*
X010828Y012097D01*
X010986Y012031D01*
X011157Y012031D01*
X011315Y012097D01*
X011436Y012218D01*
X011501Y012376D01*
X011501Y012547D01*
X011436Y012705D01*
X011390Y012751D01*
X019181Y012751D01*
X019181Y009631D01*
X019181Y009642D02*
X019031Y009642D01*
X019082Y009740D02*
X019181Y009740D01*
X019181Y009839D02*
X019113Y009839D01*
X019113Y009937D02*
X019181Y009937D01*
X019181Y010036D02*
X019093Y010036D01*
X019053Y010134D02*
X019181Y010134D01*
X019181Y010233D02*
X018960Y010233D01*
X018770Y010331D02*
X019181Y010331D01*
X019181Y010430D02*
X018410Y010430D01*
X018508Y010331D02*
X018597Y010331D01*
X018311Y010528D02*
X019181Y010528D01*
X019181Y010627D02*
X018213Y010627D01*
X018114Y010726D02*
X019181Y010726D01*
X019181Y010824D02*
X018016Y010824D01*
X017917Y010923D02*
X019181Y010923D01*
X019181Y011021D02*
X017819Y011021D01*
X017720Y011120D02*
X019181Y011120D01*
X019181Y011218D02*
X017621Y011218D01*
X017502Y011083D02*
X018683Y009902D01*
X017683Y009902D02*
X017105Y010481D01*
X016406Y010481D01*
X015803Y011083D01*
X015681Y011083D01*
X015282Y010923D02*
X015102Y010923D01*
X015131Y010993D02*
X015063Y010828D01*
X014936Y010701D01*
X014771Y010633D01*
X014731Y010633D01*
X014731Y011033D01*
X014631Y011033D01*
X014231Y011033D01*
X014231Y010993D01*
X014300Y010828D01*
X014426Y010701D01*
X014592Y010633D01*
X014631Y010633D01*
X014631Y011033D01*
X014631Y011133D01*
X014231Y011133D01*
X014231Y011172D01*
X014300Y011338D01*
X014426Y011464D01*
X014592Y011533D01*
X014631Y011533D01*
X014631Y011133D01*
X014731Y011133D01*
X014731Y011533D01*
X014771Y011533D01*
X014936Y011464D01*
X015063Y011338D01*
X015131Y011172D01*
X015131Y011133D01*
X014732Y011133D01*
X014732Y011033D01*
X015131Y011033D01*
X015131Y010993D01*
X015131Y011021D02*
X015251Y011021D01*
X015251Y011120D02*
X014732Y011120D01*
X014681Y011083D02*
X014681Y011681D01*
X014181Y012181D01*
X012181Y012181D01*
X011681Y011681D01*
X008681Y011681D01*
X008197Y012166D01*
X004197Y012166D01*
X004168Y012194D02*
X004168Y012137D01*
X003790Y012137D01*
X003790Y012085D01*
X003852Y011935D01*
X003966Y011820D01*
X004116Y011758D01*
X004168Y011758D01*
X004168Y012137D01*
X004226Y012137D01*
X004226Y012194D01*
X004605Y012194D01*
X004605Y012247D01*
X004543Y012396D01*
X004428Y012511D01*
X004278Y012573D01*
X004226Y012573D01*
X004226Y012195D01*
X004168Y012195D01*
X004168Y012573D01*
X004116Y012573D01*
X003966Y012511D01*
X003852Y012396D01*
X003790Y012247D01*
X003790Y012194D01*
X004168Y012194D01*
X004168Y012204D02*
X004226Y012204D01*
X004226Y012137D02*
X004605Y012137D01*
X004605Y012085D01*
X004543Y011935D01*
X004428Y011820D01*
X004278Y011758D01*
X004226Y011758D01*
X004226Y012137D01*
X004226Y012105D02*
X004168Y012105D01*
X004168Y012007D02*
X004226Y012007D01*
X004226Y011908D02*
X004168Y011908D01*
X004168Y011810D02*
X004226Y011810D01*
X004402Y011810D02*
X019181Y011810D01*
X019181Y011908D02*
X004516Y011908D01*
X004572Y012007D02*
X019181Y012007D01*
X019181Y012105D02*
X011323Y012105D01*
X011422Y012204D02*
X019181Y012204D01*
X019181Y012302D02*
X011471Y012302D01*
X011501Y012401D02*
X019181Y012401D01*
X019181Y012499D02*
X011501Y012499D01*
X011480Y012598D02*
X019181Y012598D01*
X019181Y012696D02*
X011439Y012696D01*
X010703Y012696D02*
X009659Y012696D01*
X009700Y012598D02*
X010663Y012598D01*
X010641Y012499D02*
X009721Y012499D01*
X009721Y012401D02*
X010641Y012401D01*
X010672Y012302D02*
X009691Y012302D01*
X009642Y012204D02*
X010721Y012204D01*
X010820Y012105D02*
X009543Y012105D01*
X009040Y012105D02*
X004605Y012105D01*
X004605Y012204D02*
X008941Y012204D01*
X008892Y012302D02*
X004582Y012302D01*
X004538Y012401D02*
X008861Y012401D01*
X008861Y012499D02*
X004440Y012499D01*
X004226Y012499D02*
X004168Y012499D01*
X004168Y012401D02*
X004226Y012401D01*
X004226Y012302D02*
X004168Y012302D01*
X003955Y012499D02*
X003181Y012499D01*
X003181Y012401D02*
X003856Y012401D01*
X003813Y012302D02*
X003181Y012302D01*
X003181Y012204D02*
X003790Y012204D01*
X003790Y012105D02*
X003181Y012105D01*
X003181Y012007D02*
X003822Y012007D01*
X003879Y011908D02*
X003181Y011908D01*
X003181Y011810D02*
X003992Y011810D01*
X003181Y011711D02*
X019181Y011711D01*
X019181Y011612D02*
X003181Y011612D01*
X003181Y011514D02*
X005956Y011514D01*
X005852Y011415D02*
X003181Y011415D01*
X003181Y011317D02*
X005802Y011317D01*
X005778Y011218D02*
X003181Y011218D01*
X003181Y011120D02*
X005778Y011120D01*
X005813Y011021D02*
X003181Y011021D01*
X003181Y010923D02*
X005876Y010923D01*
X006016Y010824D02*
X003181Y010824D01*
X003181Y010726D02*
X006367Y010726D01*
X006466Y010627D02*
X003181Y010627D01*
X003181Y010528D02*
X003985Y010528D01*
X003882Y010430D02*
X003181Y010430D01*
X003181Y010331D02*
X003833Y010331D01*
X003810Y010233D02*
X003181Y010233D01*
X003181Y010134D02*
X003810Y010134D01*
X003845Y010036D02*
X003181Y010036D01*
X003181Y009937D02*
X003909Y009937D01*
X004050Y009839D02*
X003181Y009839D01*
X003181Y009740D02*
X006183Y009740D01*
X006085Y009839D02*
X004344Y009839D01*
X004485Y009937D02*
X005986Y009937D01*
X005981Y010197D02*
X006274Y009904D01*
X009289Y009904D01*
X009291Y009901D01*
X009015Y010233D02*
X006199Y010233D01*
X006101Y010331D02*
X006761Y010331D01*
X006663Y010430D02*
X004512Y010430D01*
X004410Y010528D02*
X006564Y010528D01*
X006849Y010498D02*
X006166Y011181D01*
X006529Y011317D02*
X013313Y011317D01*
X013272Y011218D02*
X006553Y011218D01*
X006553Y011120D02*
X013251Y011120D01*
X013251Y011021D02*
X006580Y011021D01*
X006679Y010923D02*
X013282Y010923D01*
X013332Y010824D02*
X006777Y010824D01*
X006876Y010726D02*
X013431Y010726D01*
X013932Y010726D02*
X014402Y010726D01*
X014304Y010824D02*
X014031Y010824D01*
X014080Y010923D02*
X014261Y010923D01*
X014231Y011021D02*
X014111Y011021D01*
X014111Y011120D02*
X014631Y011120D01*
X014631Y011218D02*
X014731Y011218D01*
X014731Y011317D02*
X014631Y011317D01*
X014631Y011415D02*
X014731Y011415D01*
X014731Y011514D02*
X014631Y011514D01*
X014546Y011514D02*
X006375Y011514D01*
X006480Y011415D02*
X013406Y011415D01*
X013957Y011415D02*
X014377Y011415D01*
X014291Y011317D02*
X014050Y011317D01*
X014091Y011218D02*
X014250Y011218D01*
X014631Y011021D02*
X014731Y011021D01*
X014731Y010923D02*
X014631Y010923D01*
X014631Y010824D02*
X014731Y010824D01*
X014731Y010726D02*
X014631Y010726D01*
X014960Y010726D02*
X015431Y010726D01*
X015332Y010824D02*
X015059Y010824D01*
X015112Y011218D02*
X015272Y011218D01*
X015313Y011317D02*
X015072Y011317D01*
X014985Y011415D02*
X015406Y011415D01*
X015957Y011415D02*
X016251Y011415D01*
X016251Y011317D02*
X016050Y011317D01*
X016091Y011218D02*
X016251Y011218D01*
X016251Y011120D02*
X016111Y011120D01*
X016120Y011021D02*
X016251Y011021D01*
X016251Y010923D02*
X016218Y010923D01*
X016005Y010627D02*
X014095Y010627D01*
X014193Y010528D02*
X016103Y010528D01*
X016202Y010430D02*
X014292Y010430D01*
X014390Y010331D02*
X014597Y010331D01*
X014770Y010331D02*
X015597Y010331D01*
X015770Y010331D02*
X016301Y010331D01*
X016406Y010233D02*
X015960Y010233D01*
X016053Y010134D02*
X016314Y010134D01*
X016273Y010036D02*
X016093Y010036D01*
X016113Y009937D02*
X016253Y009937D01*
X016253Y009839D02*
X016113Y009839D01*
X016082Y009740D02*
X016285Y009740D01*
X016336Y009642D02*
X016031Y009642D01*
X015683Y009902D02*
X015439Y009902D01*
X014927Y009431D01*
X011567Y009431D01*
X011071Y009901D01*
X012801Y010318D02*
X013513Y010318D01*
X013428Y010283D01*
X013302Y010157D01*
X013233Y009991D01*
X013233Y009952D01*
X013633Y009952D01*
X013633Y009852D01*
X013233Y009852D01*
X013233Y009812D01*
X013302Y009647D01*
X013318Y009631D01*
X013021Y009631D01*
X013048Y009658D01*
X013113Y009816D01*
X013113Y009987D01*
X013048Y010145D01*
X012927Y010266D01*
X012801Y010318D01*
X012960Y010233D02*
X013378Y010233D01*
X013293Y010134D02*
X013053Y010134D01*
X013093Y010036D02*
X013252Y010036D01*
X013113Y009937D02*
X013633Y009937D01*
X013734Y009937D02*
X014253Y009937D01*
X014253Y009959D02*
X014253Y009816D01*
X014319Y009658D01*
X014346Y009631D01*
X014049Y009631D01*
X014065Y009647D01*
X014133Y009812D01*
X014133Y009852D01*
X013734Y009852D01*
X013734Y009952D01*
X014133Y009952D01*
X014133Y009991D01*
X014071Y010141D01*
X014253Y009959D01*
X014177Y010036D02*
X014115Y010036D01*
X014078Y010134D02*
X014074Y010134D01*
X014133Y009839D02*
X014253Y009839D01*
X014285Y009740D02*
X014103Y009740D01*
X014059Y009642D02*
X014336Y009642D01*
X014565Y009902D02*
X013969Y010498D01*
X006849Y010498D01*
X006298Y010134D02*
X008922Y010134D01*
X008943Y009642D02*
X003181Y009642D01*
X004197Y010197D02*
X005981Y010197D01*
X004096Y008065D02*
X003181Y008065D01*
X003181Y008163D02*
X008910Y008163D01*
X009673Y008163D02*
X010690Y008163D01*
X010649Y008065D02*
X009714Y008065D01*
X009721Y007966D02*
X010641Y007966D01*
X010645Y007868D02*
X009718Y007868D01*
X009677Y007769D02*
X010686Y007769D01*
X010754Y007671D02*
X009609Y007671D01*
X009475Y007572D02*
X010887Y007572D01*
X013031Y009642D02*
X013307Y009642D01*
X013263Y009740D02*
X013082Y009740D01*
X013113Y009839D02*
X013233Y009839D01*
X014565Y009902D02*
X014683Y009902D01*
X015093Y010036D02*
X015273Y010036D01*
X015314Y010134D02*
X015053Y010134D01*
X014960Y010233D02*
X015406Y010233D01*
X015212Y009937D02*
X015113Y009937D01*
X016681Y011083D02*
X017502Y011083D01*
X017111Y011317D02*
X019181Y011317D01*
X019181Y011415D02*
X017111Y011415D01*
X019181Y011514D02*
X014817Y011514D01*
X014927Y013931D02*
X011567Y013931D01*
X011071Y014401D01*
X009291Y014401D02*
X009289Y014404D01*
X006274Y014404D01*
X005981Y014697D01*
X004197Y014697D01*
X003915Y014963D02*
X003181Y014963D01*
X003181Y015061D02*
X004064Y015061D01*
X004120Y015085D02*
X003978Y015026D01*
X003869Y014917D01*
X003810Y014774D01*
X003810Y014620D01*
X003869Y014478D01*
X003978Y014369D01*
X004120Y014310D01*
X004274Y014310D01*
X004417Y014369D01*
X004526Y014478D01*
X004542Y014517D01*
X005906Y014517D01*
X006094Y014329D01*
X006199Y014224D01*
X008900Y014224D01*
X008927Y014158D01*
X008953Y014131D01*
X003181Y014131D01*
X003181Y017251D01*
X008973Y017251D01*
X008927Y017205D01*
X008861Y017047D01*
X008861Y016876D01*
X008927Y016718D01*
X009048Y016597D01*
X009206Y016531D01*
X009377Y016531D01*
X009535Y016597D01*
X009656Y016718D01*
X009721Y016876D01*
X009721Y017047D01*
X009656Y017205D01*
X009610Y017251D01*
X010753Y017251D01*
X010707Y017205D01*
X010641Y017047D01*
X010641Y016876D01*
X010707Y016718D01*
X010828Y016597D01*
X010986Y016531D01*
X011157Y016531D01*
X011315Y016597D01*
X011436Y016718D01*
X011501Y016876D01*
X011501Y017047D01*
X011436Y017205D01*
X011390Y017251D01*
X019181Y017251D01*
X019181Y014131D01*
X019021Y014131D01*
X019048Y014158D01*
X019113Y014316D01*
X019113Y014487D01*
X019048Y014645D01*
X018927Y014766D01*
X018769Y014832D01*
X018598Y014832D01*
X018534Y014805D01*
X017577Y015763D01*
X017428Y015763D01*
X017111Y015763D01*
X017111Y015937D01*
X017035Y016013D01*
X016328Y016013D01*
X016251Y015937D01*
X016251Y015389D01*
X016111Y015530D01*
X016111Y015669D01*
X016046Y015827D01*
X015925Y015947D01*
X015767Y016013D01*
X015596Y016013D01*
X015438Y015947D01*
X015317Y015827D01*
X015251Y015669D01*
X015251Y015497D01*
X015317Y015339D01*
X015438Y015218D01*
X015596Y015153D01*
X015767Y015153D01*
X015917Y015215D01*
X016226Y014906D01*
X016331Y014801D01*
X016523Y014801D01*
X016440Y014766D01*
X016319Y014645D01*
X016253Y014487D01*
X016253Y014316D01*
X016319Y014158D01*
X016346Y014131D01*
X016021Y014131D01*
X016048Y014158D01*
X016113Y014316D01*
X016113Y014487D01*
X016048Y014645D01*
X015927Y014766D01*
X015769Y014832D01*
X015598Y014832D01*
X015440Y014766D01*
X015319Y014645D01*
X015253Y014487D01*
X015253Y014475D01*
X015113Y014347D01*
X015113Y014487D01*
X015048Y014645D01*
X014927Y014766D01*
X014769Y014832D01*
X014598Y014832D01*
X014451Y014771D01*
X014149Y015073D01*
X014043Y015178D01*
X013828Y015178D01*
X013925Y015218D01*
X014046Y015339D01*
X014111Y015497D01*
X014111Y015669D01*
X014046Y015827D01*
X013925Y015947D01*
X013767Y016013D01*
X013596Y016013D01*
X013438Y015947D01*
X013317Y015827D01*
X013251Y015669D01*
X013251Y015497D01*
X013317Y015339D01*
X013438Y015218D01*
X013535Y015178D01*
X006923Y015178D01*
X006537Y015565D01*
X006553Y015604D01*
X006553Y015758D01*
X006494Y015901D01*
X006385Y016010D01*
X006243Y016069D01*
X006089Y016069D01*
X005946Y016010D01*
X005837Y015901D01*
X005778Y015758D01*
X005778Y015604D01*
X005837Y015462D01*
X005946Y015353D01*
X006089Y015294D01*
X006243Y015294D01*
X006282Y015310D01*
X006774Y014818D01*
X006923Y014818D01*
X009175Y014818D01*
X009048Y014766D01*
X008927Y014645D01*
X008902Y014584D01*
X006348Y014584D01*
X006055Y014877D01*
X005906Y014877D01*
X004542Y014877D01*
X004526Y014917D01*
X004417Y015026D01*
X004274Y015085D01*
X004120Y015085D01*
X004330Y015061D02*
X006531Y015061D01*
X006630Y014963D02*
X004479Y014963D01*
X004518Y014470D02*
X005953Y014470D01*
X006052Y014372D02*
X004420Y014372D01*
X003975Y014372D02*
X003181Y014372D01*
X003181Y014470D02*
X003876Y014470D01*
X003831Y014569D02*
X003181Y014569D01*
X003181Y014667D02*
X003810Y014667D01*
X003810Y014766D02*
X003181Y014766D01*
X003181Y014864D02*
X003847Y014864D01*
X003181Y015160D02*
X006433Y015160D01*
X006334Y015259D02*
X003181Y015259D01*
X003181Y015357D02*
X005942Y015357D01*
X005843Y015456D02*
X003181Y015456D01*
X003181Y015554D02*
X005799Y015554D01*
X005778Y015653D02*
X003181Y015653D01*
X003181Y015751D02*
X005778Y015751D01*
X005816Y015850D02*
X003181Y015850D01*
X003181Y015948D02*
X005885Y015948D01*
X006036Y016047D02*
X003181Y016047D01*
X003181Y016145D02*
X019181Y016145D01*
X019181Y016047D02*
X006296Y016047D01*
X006447Y015948D02*
X013440Y015948D01*
X013340Y015850D02*
X006515Y015850D01*
X006553Y015751D02*
X013286Y015751D01*
X013251Y015653D02*
X006553Y015653D01*
X006547Y015554D02*
X013251Y015554D01*
X013269Y015456D02*
X006646Y015456D01*
X006744Y015357D02*
X013310Y015357D01*
X013398Y015259D02*
X006843Y015259D01*
X006849Y014998D02*
X006166Y015681D01*
X006068Y014864D02*
X006728Y014864D01*
X006849Y014998D02*
X013969Y014998D01*
X014565Y014402D01*
X014683Y014402D01*
X015080Y014569D02*
X015287Y014569D01*
X015248Y014470D02*
X015113Y014470D01*
X015113Y014372D02*
X015141Y014372D01*
X015439Y014402D02*
X014927Y013931D01*
X014346Y014131D02*
X014049Y014131D01*
X014065Y014147D01*
X014133Y014312D01*
X014133Y014352D01*
X013734Y014352D01*
X013734Y014452D01*
X014133Y014452D01*
X014133Y014491D01*
X014071Y014641D01*
X014253Y014459D01*
X014253Y014316D01*
X014319Y014158D01*
X014346Y014131D01*
X014312Y014175D02*
X014076Y014175D01*
X014117Y014273D02*
X014271Y014273D01*
X014253Y014372D02*
X013734Y014372D01*
X013633Y014372D02*
X013113Y014372D01*
X013113Y014316D02*
X013113Y014487D01*
X013048Y014645D01*
X012927Y014766D01*
X012801Y014818D01*
X013513Y014818D01*
X013428Y014783D01*
X013302Y014657D01*
X013233Y014491D01*
X013233Y014452D01*
X013633Y014452D01*
X013633Y014352D01*
X013233Y014352D01*
X013233Y014312D01*
X013302Y014147D01*
X013318Y014131D01*
X013021Y014131D01*
X013048Y014158D01*
X013113Y014316D01*
X013095Y014273D02*
X013250Y014273D01*
X013290Y014175D02*
X013055Y014175D01*
X013113Y014470D02*
X013233Y014470D01*
X013265Y014569D02*
X013080Y014569D01*
X013026Y014667D02*
X013312Y014667D01*
X013411Y014766D02*
X012927Y014766D01*
X013965Y015259D02*
X014369Y015259D01*
X014426Y015201D02*
X014592Y015133D01*
X014631Y015133D01*
X014631Y015533D01*
X014231Y015533D01*
X014231Y015493D01*
X014300Y015328D01*
X014426Y015201D01*
X014527Y015160D02*
X014062Y015160D01*
X014160Y015061D02*
X016070Y015061D01*
X016169Y014963D02*
X014259Y014963D01*
X014357Y014864D02*
X016268Y014864D01*
X016406Y014981D02*
X017105Y014981D01*
X017683Y014402D01*
X018377Y014963D02*
X019181Y014963D01*
X019181Y015061D02*
X018278Y015061D01*
X018180Y015160D02*
X019181Y015160D01*
X019181Y015259D02*
X018081Y015259D01*
X017983Y015357D02*
X019181Y015357D01*
X019181Y015456D02*
X017884Y015456D01*
X017786Y015554D02*
X019181Y015554D01*
X019181Y015653D02*
X017687Y015653D01*
X017589Y015751D02*
X019181Y015751D01*
X019181Y015850D02*
X017111Y015850D01*
X017100Y015948D02*
X019181Y015948D01*
X019181Y016244D02*
X003181Y016244D01*
X003181Y016343D02*
X003944Y016343D01*
X003966Y016320D02*
X004116Y016258D01*
X004168Y016258D01*
X004168Y016637D01*
X003790Y016637D01*
X003790Y016585D01*
X003852Y016435D01*
X003966Y016320D01*
X003849Y016441D02*
X003181Y016441D01*
X003181Y016540D02*
X003808Y016540D01*
X003790Y016694D02*
X004168Y016694D01*
X004168Y016637D01*
X004226Y016637D01*
X004226Y016694D01*
X004605Y016694D01*
X004605Y016747D01*
X004543Y016896D01*
X004428Y017011D01*
X004278Y017073D01*
X004226Y017073D01*
X004226Y016695D01*
X004168Y016695D01*
X004168Y017073D01*
X004116Y017073D01*
X003966Y017011D01*
X003852Y016896D01*
X003790Y016747D01*
X003790Y016694D01*
X003790Y016737D02*
X003181Y016737D01*
X003181Y016835D02*
X003826Y016835D01*
X003889Y016934D02*
X003181Y016934D01*
X003181Y017032D02*
X004018Y017032D01*
X004168Y017032D02*
X004226Y017032D01*
X004226Y016934D02*
X004168Y016934D01*
X004168Y016835D02*
X004226Y016835D01*
X004226Y016737D02*
X004168Y016737D01*
X004197Y016666D02*
X008197Y016666D01*
X008681Y016181D01*
X011681Y016181D01*
X012181Y016681D01*
X014181Y016681D01*
X014681Y016181D01*
X014681Y015583D01*
X014631Y015554D02*
X014111Y015554D01*
X014111Y015653D02*
X014231Y015653D01*
X014231Y015672D02*
X014231Y015633D01*
X014631Y015633D01*
X014631Y015533D01*
X014731Y015533D01*
X014731Y015133D01*
X014771Y015133D01*
X014936Y015201D01*
X015063Y015328D01*
X015131Y015493D01*
X015131Y015533D01*
X014732Y015533D01*
X014732Y015633D01*
X015131Y015633D01*
X015131Y015672D01*
X015063Y015838D01*
X014936Y015964D01*
X014771Y016033D01*
X014731Y016033D01*
X014731Y015633D01*
X014631Y015633D01*
X014631Y016033D01*
X014592Y016033D01*
X014426Y015964D01*
X014300Y015838D01*
X014231Y015672D01*
X014264Y015751D02*
X014077Y015751D01*
X014023Y015850D02*
X014312Y015850D01*
X014410Y015948D02*
X013923Y015948D01*
X014094Y015456D02*
X014247Y015456D01*
X014288Y015357D02*
X014053Y015357D01*
X014631Y015357D02*
X014731Y015357D01*
X014731Y015259D02*
X014631Y015259D01*
X014631Y015160D02*
X014731Y015160D01*
X014836Y015160D02*
X015579Y015160D01*
X015784Y015160D02*
X015972Y015160D01*
X016185Y015456D02*
X016251Y015456D01*
X016251Y015554D02*
X016111Y015554D01*
X016111Y015653D02*
X016251Y015653D01*
X016251Y015751D02*
X016077Y015751D01*
X016023Y015850D02*
X016251Y015850D01*
X016263Y015948D02*
X015923Y015948D01*
X015803Y015583D02*
X015681Y015583D01*
X015803Y015583D02*
X016406Y014981D01*
X016439Y014766D02*
X015927Y014766D01*
X016026Y014667D02*
X016341Y014667D01*
X016287Y014569D02*
X016080Y014569D01*
X016113Y014470D02*
X016253Y014470D01*
X016253Y014372D02*
X016113Y014372D01*
X016095Y014273D02*
X016271Y014273D01*
X016312Y014175D02*
X016055Y014175D01*
X015683Y014402D02*
X015439Y014402D01*
X015341Y014667D02*
X015026Y014667D01*
X014927Y014766D02*
X015439Y014766D01*
X015398Y015259D02*
X014993Y015259D01*
X015075Y015357D02*
X015310Y015357D01*
X015269Y015456D02*
X015116Y015456D01*
X015251Y015554D02*
X014732Y015554D01*
X014731Y015456D02*
X014631Y015456D01*
X014631Y015653D02*
X014731Y015653D01*
X014731Y015751D02*
X014631Y015751D01*
X014631Y015850D02*
X014731Y015850D01*
X014731Y015948D02*
X014631Y015948D01*
X014952Y015948D02*
X015440Y015948D01*
X015340Y015850D02*
X015051Y015850D01*
X015099Y015751D02*
X015286Y015751D01*
X015251Y015653D02*
X015131Y015653D01*
X014144Y014569D02*
X014101Y014569D01*
X014133Y014470D02*
X014242Y014470D01*
X016681Y015583D02*
X017502Y015583D01*
X018683Y014402D01*
X019080Y014569D02*
X019181Y014569D01*
X019181Y014667D02*
X019026Y014667D01*
X018927Y014766D02*
X019181Y014766D01*
X019181Y014864D02*
X018475Y014864D01*
X019113Y014470D02*
X019181Y014470D01*
X019181Y014372D02*
X019113Y014372D01*
X019095Y014273D02*
X019181Y014273D01*
X019181Y014175D02*
X019055Y014175D01*
X019181Y016343D02*
X004450Y016343D01*
X004428Y016320D02*
X004543Y016435D01*
X004605Y016585D01*
X004605Y016637D01*
X004226Y016637D01*
X004226Y016258D01*
X004278Y016258D01*
X004428Y016320D01*
X004545Y016441D02*
X019181Y016441D01*
X019181Y016540D02*
X011177Y016540D01*
X011356Y016638D02*
X019181Y016638D01*
X019181Y016737D02*
X011444Y016737D01*
X011485Y016835D02*
X019181Y016835D01*
X019181Y016934D02*
X011501Y016934D01*
X011501Y017032D02*
X019181Y017032D01*
X019181Y017131D02*
X011467Y017131D01*
X011411Y017229D02*
X019181Y017229D01*
X019181Y018631D02*
X019021Y018631D01*
X019048Y018658D01*
X019113Y018816D01*
X019113Y018987D01*
X019048Y019145D01*
X018927Y019266D01*
X018769Y019332D01*
X018598Y019332D01*
X018534Y019305D01*
X017577Y020263D01*
X017428Y020263D01*
X017111Y020263D01*
X017111Y020437D01*
X017035Y020513D01*
X016328Y020513D01*
X016251Y020437D01*
X016251Y019889D01*
X016111Y020030D01*
X016111Y020169D01*
X016046Y020327D01*
X015925Y020447D01*
X015767Y020513D01*
X015596Y020513D01*
X015438Y020447D01*
X015317Y020327D01*
X015251Y020169D01*
X015251Y019997D01*
X015317Y019839D01*
X015438Y019718D01*
X015596Y019653D01*
X015767Y019653D01*
X015917Y019715D01*
X016226Y019406D01*
X016331Y019301D01*
X016523Y019301D01*
X016440Y019266D01*
X016319Y019145D01*
X016253Y018987D01*
X016253Y018816D01*
X016319Y018658D01*
X016346Y018631D01*
X016021Y018631D01*
X016048Y018658D01*
X016113Y018816D01*
X016113Y018987D01*
X016048Y019145D01*
X015927Y019266D01*
X015769Y019332D01*
X015598Y019332D01*
X015440Y019266D01*
X015319Y019145D01*
X015253Y018987D01*
X015253Y018975D01*
X015113Y018847D01*
X015113Y018987D01*
X015048Y019145D01*
X014927Y019266D01*
X014769Y019332D01*
X014598Y019332D01*
X014451Y019271D01*
X014149Y019573D01*
X014043Y019678D01*
X013828Y019678D01*
X013925Y019718D01*
X014046Y019839D01*
X014111Y019997D01*
X014111Y020169D01*
X014046Y020327D01*
X013925Y020447D01*
X013767Y020513D01*
X013596Y020513D01*
X013438Y020447D01*
X013317Y020327D01*
X013251Y020169D01*
X013251Y019997D01*
X013317Y019839D01*
X013438Y019718D01*
X013535Y019678D01*
X006923Y019678D01*
X006537Y020065D01*
X006553Y020104D01*
X006553Y020258D01*
X006494Y020401D01*
X006385Y020510D01*
X006243Y020569D01*
X006089Y020569D01*
X005946Y020510D01*
X005837Y020401D01*
X005778Y020258D01*
X005778Y020104D01*
X005837Y019962D01*
X005946Y019853D01*
X006089Y019794D01*
X006243Y019794D01*
X006282Y019810D01*
X006774Y019318D01*
X006923Y019318D01*
X009174Y019318D01*
X009048Y019266D01*
X008927Y019145D01*
X008902Y019084D01*
X006348Y019084D01*
X006055Y019377D01*
X005906Y019377D01*
X004542Y019377D01*
X004526Y019417D01*
X004417Y019526D01*
X004274Y019585D01*
X004120Y019585D01*
X003978Y019526D01*
X003869Y019417D01*
X003810Y019274D01*
X003810Y019120D01*
X003869Y018978D01*
X003978Y018869D01*
X004120Y018810D01*
X004274Y018810D01*
X004417Y018869D01*
X004526Y018978D01*
X004542Y019017D01*
X005906Y019017D01*
X006094Y018829D01*
X006199Y018724D01*
X008900Y018724D01*
X008927Y018658D01*
X008953Y018631D01*
X003181Y018631D01*
X003181Y021751D01*
X008973Y021751D01*
X008927Y021705D01*
X008861Y021547D01*
X008861Y021376D01*
X008927Y021218D01*
X009048Y021097D01*
X009206Y021031D01*
X009377Y021031D01*
X009535Y021097D01*
X009656Y021218D01*
X009721Y021376D01*
X009721Y021547D01*
X009656Y021705D01*
X009610Y021751D01*
X010753Y021751D01*
X010707Y021705D01*
X010641Y021547D01*
X010641Y021376D01*
X010707Y021218D01*
X010828Y021097D01*
X010986Y021031D01*
X011157Y021031D01*
X011315Y021097D01*
X011436Y021218D01*
X011501Y021376D01*
X011501Y021547D01*
X011436Y021705D01*
X011390Y021751D01*
X019181Y021751D01*
X019181Y018631D01*
X019181Y018708D02*
X019068Y018708D01*
X019109Y018806D02*
X019181Y018806D01*
X019181Y018905D02*
X019113Y018905D01*
X019107Y019003D02*
X019181Y019003D01*
X019181Y019102D02*
X019066Y019102D01*
X018993Y019200D02*
X019181Y019200D01*
X019181Y019299D02*
X018849Y019299D01*
X019181Y019397D02*
X018442Y019397D01*
X018344Y019496D02*
X019181Y019496D01*
X019181Y019594D02*
X018245Y019594D01*
X018147Y019693D02*
X019181Y019693D01*
X019181Y019792D02*
X018048Y019792D01*
X017950Y019890D02*
X019181Y019890D01*
X019181Y019989D02*
X017851Y019989D01*
X017753Y020087D02*
X019181Y020087D01*
X019181Y020186D02*
X017654Y020186D01*
X017502Y020083D02*
X018683Y018902D01*
X017683Y018902D02*
X017105Y019481D01*
X016406Y019481D01*
X015803Y020083D01*
X015681Y020083D01*
X015251Y020087D02*
X014732Y020087D01*
X014732Y020133D02*
X015131Y020133D01*
X015131Y020172D01*
X015063Y020338D01*
X014936Y020464D01*
X014771Y020533D01*
X014731Y020533D01*
X014731Y020133D01*
X014631Y020133D01*
X014631Y020033D01*
X014231Y020033D01*
X014231Y019993D01*
X014300Y019828D01*
X014426Y019701D01*
X014592Y019633D01*
X014631Y019633D01*
X014631Y020033D01*
X014731Y020033D01*
X014731Y019633D01*
X014771Y019633D01*
X014936Y019701D01*
X015063Y019828D01*
X015131Y019993D01*
X015131Y020033D01*
X014732Y020033D01*
X014732Y020133D01*
X014731Y020186D02*
X014631Y020186D01*
X014631Y020133D02*
X014631Y020533D01*
X014592Y020533D01*
X014426Y020464D01*
X014300Y020338D01*
X014231Y020172D01*
X014231Y020133D01*
X014631Y020133D01*
X014631Y020087D02*
X014111Y020087D01*
X014108Y019989D02*
X014233Y019989D01*
X014274Y019890D02*
X014067Y019890D01*
X013998Y019792D02*
X014336Y019792D01*
X014447Y019693D02*
X013863Y019693D01*
X013969Y019498D02*
X006849Y019498D01*
X006166Y020181D01*
X006553Y020186D02*
X013259Y020186D01*
X013251Y020087D02*
X006546Y020087D01*
X006613Y019989D02*
X013255Y019989D01*
X013296Y019890D02*
X006711Y019890D01*
X006810Y019792D02*
X013365Y019792D01*
X013499Y019693D02*
X006909Y019693D01*
X006695Y019397D02*
X004534Y019397D01*
X004446Y019496D02*
X006597Y019496D01*
X006498Y019594D02*
X003181Y019594D01*
X003181Y019496D02*
X003948Y019496D01*
X003861Y019397D02*
X003181Y019397D01*
X003181Y019299D02*
X003820Y019299D01*
X003810Y019200D02*
X003181Y019200D01*
X003181Y019102D02*
X003817Y019102D01*
X003858Y019003D02*
X003181Y019003D01*
X003181Y018905D02*
X003942Y018905D01*
X004197Y019197D02*
X005981Y019197D01*
X006274Y018904D01*
X009289Y018904D01*
X009291Y018901D01*
X008982Y019200D02*
X006232Y019200D01*
X006331Y019102D02*
X008909Y019102D01*
X009127Y019299D02*
X006133Y019299D01*
X005920Y019003D02*
X004536Y019003D01*
X004453Y018905D02*
X006019Y018905D01*
X006117Y018806D02*
X003181Y018806D01*
X003181Y018708D02*
X008906Y018708D01*
X008951Y017229D02*
X003181Y017229D01*
X003181Y017131D02*
X008896Y017131D01*
X008861Y017032D02*
X004377Y017032D01*
X004505Y016934D02*
X008861Y016934D01*
X008878Y016835D02*
X004568Y016835D01*
X004605Y016737D02*
X008919Y016737D01*
X009007Y016638D02*
X004226Y016638D01*
X004168Y016638D02*
X003181Y016638D01*
X004168Y016540D02*
X004226Y016540D01*
X004226Y016441D02*
X004168Y016441D01*
X004168Y016343D02*
X004226Y016343D01*
X004586Y016540D02*
X009186Y016540D01*
X009397Y016540D02*
X010966Y016540D01*
X010787Y016638D02*
X009576Y016638D01*
X009664Y016737D02*
X010699Y016737D01*
X010658Y016835D02*
X009705Y016835D01*
X009721Y016934D02*
X010641Y016934D01*
X010641Y017032D02*
X009721Y017032D01*
X009687Y017131D02*
X010676Y017131D01*
X010731Y017229D02*
X009631Y017229D01*
X011071Y018901D02*
X011567Y018431D01*
X014927Y018431D01*
X015439Y018902D01*
X015683Y018902D01*
X015374Y019200D02*
X014993Y019200D01*
X015066Y019102D02*
X015301Y019102D01*
X015260Y019003D02*
X015107Y019003D01*
X015113Y018905D02*
X015176Y018905D01*
X014683Y018902D02*
X014565Y018902D01*
X013969Y019498D01*
X014127Y019594D02*
X016037Y019594D01*
X015939Y019693D02*
X015863Y019693D01*
X016136Y019496D02*
X014226Y019496D01*
X014324Y019397D02*
X016235Y019397D01*
X016374Y019200D02*
X015993Y019200D01*
X016066Y019102D02*
X016301Y019102D01*
X016260Y019003D02*
X016107Y019003D01*
X016113Y018905D02*
X016253Y018905D01*
X016258Y018806D02*
X016109Y018806D01*
X016068Y018708D02*
X016298Y018708D01*
X016518Y019299D02*
X015849Y019299D01*
X015518Y019299D02*
X014849Y019299D01*
X014518Y019299D02*
X014423Y019299D01*
X014209Y019003D02*
X014128Y019003D01*
X014133Y018991D02*
X014071Y019141D01*
X014253Y018959D01*
X014253Y018816D01*
X014319Y018658D01*
X014346Y018631D01*
X014049Y018631D01*
X014065Y018647D01*
X014133Y018812D01*
X014133Y018852D01*
X013734Y018852D01*
X013734Y018952D01*
X014133Y018952D01*
X014133Y018991D01*
X014111Y019102D02*
X014088Y019102D01*
X014253Y018905D02*
X013734Y018905D01*
X013633Y018905D02*
X013113Y018905D01*
X013113Y018987D02*
X013048Y019145D01*
X012927Y019266D01*
X012801Y019318D01*
X013513Y019318D01*
X013428Y019283D01*
X013302Y019157D01*
X013233Y018991D01*
X013233Y018952D01*
X013633Y018952D01*
X013633Y018852D01*
X013233Y018852D01*
X013233Y018812D01*
X013302Y018647D01*
X013318Y018631D01*
X013021Y018631D01*
X013048Y018658D01*
X013113Y018816D01*
X013113Y018987D01*
X013107Y019003D02*
X013238Y019003D01*
X013279Y019102D02*
X013066Y019102D01*
X012993Y019200D02*
X013345Y019200D01*
X013466Y019299D02*
X012849Y019299D01*
X013109Y018806D02*
X013236Y018806D01*
X013277Y018708D02*
X013068Y018708D01*
X014090Y018708D02*
X014298Y018708D01*
X014258Y018806D02*
X014131Y018806D01*
X014631Y019693D02*
X014731Y019693D01*
X014731Y019792D02*
X014631Y019792D01*
X014631Y019890D02*
X014731Y019890D01*
X014731Y019989D02*
X014631Y019989D01*
X014681Y020083D02*
X014681Y020681D01*
X014181Y021181D01*
X012181Y021181D01*
X011681Y020681D01*
X008681Y020681D01*
X008197Y021166D01*
X004197Y021166D01*
X004168Y021171D02*
X003181Y021171D01*
X003181Y021073D02*
X003795Y021073D01*
X003790Y021085D02*
X003852Y020935D01*
X003966Y020820D01*
X004116Y020758D01*
X004168Y020758D01*
X004168Y021137D01*
X003790Y021137D01*
X003790Y021085D01*
X003790Y021194D02*
X004168Y021194D01*
X004168Y021137D01*
X004226Y021137D01*
X004226Y021194D01*
X004605Y021194D01*
X004605Y021247D01*
X004543Y021396D01*
X004428Y021511D01*
X004278Y021573D01*
X004226Y021573D01*
X004226Y021195D01*
X004168Y021195D01*
X004168Y021573D01*
X004116Y021573D01*
X003966Y021511D01*
X003852Y021396D01*
X003790Y021247D01*
X003790Y021194D01*
X003799Y021270D02*
X003181Y021270D01*
X003181Y021368D02*
X003840Y021368D01*
X003922Y021467D02*
X003181Y021467D01*
X003181Y021565D02*
X004097Y021565D01*
X004168Y021565D02*
X004226Y021565D01*
X004297Y021565D02*
X008869Y021565D01*
X008861Y021467D02*
X004472Y021467D01*
X004554Y021368D02*
X008865Y021368D01*
X008905Y021270D02*
X004595Y021270D01*
X004605Y021137D02*
X004226Y021137D01*
X004226Y020758D01*
X004278Y020758D01*
X004428Y020820D01*
X004543Y020935D01*
X004605Y021085D01*
X004605Y021137D01*
X004600Y021073D02*
X009106Y021073D01*
X008974Y021171D02*
X004226Y021171D01*
X004226Y021073D02*
X004168Y021073D01*
X004168Y020974D02*
X004226Y020974D01*
X004226Y020876D02*
X004168Y020876D01*
X004168Y020777D02*
X004226Y020777D01*
X004324Y020777D02*
X019181Y020777D01*
X019181Y020876D02*
X004483Y020876D01*
X004559Y020974D02*
X019181Y020974D01*
X019181Y021073D02*
X011256Y021073D01*
X011389Y021171D02*
X019181Y021171D01*
X019181Y021270D02*
X011457Y021270D01*
X011498Y021368D02*
X019181Y021368D01*
X019181Y021467D02*
X011501Y021467D01*
X011494Y021565D02*
X019181Y021565D01*
X019181Y021664D02*
X011453Y021664D01*
X010690Y021664D02*
X009673Y021664D01*
X009714Y021565D02*
X010649Y021565D01*
X010641Y021467D02*
X009721Y021467D01*
X009718Y021368D02*
X010645Y021368D01*
X010685Y021270D02*
X009677Y021270D01*
X009609Y021171D02*
X010754Y021171D01*
X010886Y021073D02*
X009476Y021073D01*
X008910Y021664D02*
X003181Y021664D01*
X003181Y020974D02*
X003835Y020974D01*
X003911Y020876D02*
X003181Y020876D01*
X003181Y020777D02*
X004071Y020777D01*
X004168Y021270D02*
X004226Y021270D01*
X004226Y021368D02*
X004168Y021368D01*
X004168Y021467D02*
X004226Y021467D01*
X003181Y020678D02*
X019181Y020678D01*
X019181Y020580D02*
X003181Y020580D01*
X003181Y020481D02*
X005918Y020481D01*
X005830Y020383D02*
X003181Y020383D01*
X003181Y020284D02*
X005789Y020284D01*
X005778Y020186D02*
X003181Y020186D01*
X003181Y020087D02*
X005785Y020087D01*
X005826Y019989D02*
X003181Y019989D01*
X003181Y019890D02*
X005909Y019890D01*
X006301Y019792D02*
X003181Y019792D01*
X003181Y019693D02*
X006400Y019693D01*
X006542Y020284D02*
X013299Y020284D01*
X013373Y020383D02*
X006502Y020383D01*
X006414Y020481D02*
X013520Y020481D01*
X013843Y020481D02*
X014467Y020481D01*
X014345Y020383D02*
X013990Y020383D01*
X014063Y020284D02*
X014278Y020284D01*
X014237Y020186D02*
X014104Y020186D01*
X014631Y020284D02*
X014731Y020284D01*
X014731Y020383D02*
X014631Y020383D01*
X014631Y020481D02*
X014731Y020481D01*
X014896Y020481D02*
X015520Y020481D01*
X015373Y020383D02*
X015018Y020383D01*
X015085Y020284D02*
X015299Y020284D01*
X015259Y020186D02*
X015126Y020186D01*
X015129Y019989D02*
X015255Y019989D01*
X015296Y019890D02*
X015089Y019890D01*
X015026Y019792D02*
X015365Y019792D01*
X015499Y019693D02*
X014916Y019693D01*
X015843Y020481D02*
X016296Y020481D01*
X016251Y020383D02*
X015990Y020383D01*
X016063Y020284D02*
X016251Y020284D01*
X016251Y020186D02*
X016104Y020186D01*
X016111Y020087D02*
X016251Y020087D01*
X016251Y019989D02*
X016152Y019989D01*
X016251Y019890D02*
X016251Y019890D01*
X016681Y020083D02*
X017502Y020083D01*
X017111Y020284D02*
X019181Y020284D01*
X019181Y020383D02*
X017111Y020383D01*
X017067Y020481D02*
X019181Y020481D01*
X019181Y023131D02*
X019021Y023131D01*
X019048Y023158D01*
X019113Y023316D01*
X019113Y023487D01*
X019048Y023645D01*
X018927Y023766D01*
X018769Y023832D01*
X019181Y023832D01*
X019181Y023930D02*
X018409Y023930D01*
X018311Y024029D02*
X019181Y024029D01*
X019181Y024127D02*
X018212Y024127D01*
X018114Y024226D02*
X019181Y024226D01*
X019181Y024325D02*
X018015Y024325D01*
X017917Y024423D02*
X019181Y024423D01*
X019181Y024522D02*
X017818Y024522D01*
X017720Y024620D02*
X019181Y024620D01*
X019181Y024719D02*
X017621Y024719D01*
X017577Y024763D02*
X017428Y024763D01*
X017111Y024763D01*
X017111Y024937D01*
X017035Y025013D01*
X016328Y025013D01*
X016251Y024937D01*
X016251Y024389D01*
X016111Y024530D01*
X016111Y024669D01*
X016046Y024827D01*
X015925Y024947D01*
X015767Y025013D01*
X015596Y025013D01*
X015438Y024947D01*
X015317Y024827D01*
X015251Y024669D01*
X015251Y024497D01*
X015317Y024339D01*
X015438Y024218D01*
X015596Y024153D01*
X015767Y024153D01*
X015917Y024215D01*
X016226Y023906D01*
X016331Y023801D01*
X016523Y023801D01*
X016440Y023766D01*
X016319Y023645D01*
X016253Y023487D01*
X016253Y023316D01*
X016319Y023158D01*
X016346Y023131D01*
X016021Y023131D01*
X016048Y023158D01*
X016113Y023316D01*
X016113Y023487D01*
X016048Y023645D01*
X015927Y023766D01*
X015769Y023832D01*
X016300Y023832D01*
X016202Y023930D02*
X014291Y023930D01*
X014390Y023832D02*
X014598Y023832D01*
X014451Y023771D01*
X014149Y024073D01*
X014043Y024178D01*
X013828Y024178D01*
X013925Y024218D01*
X014046Y024339D01*
X014111Y024497D01*
X014111Y024669D01*
X014046Y024827D01*
X013925Y024947D01*
X013767Y025013D01*
X013596Y025013D01*
X013438Y024947D01*
X013317Y024827D01*
X013251Y024669D01*
X013251Y024497D01*
X013317Y024339D01*
X013438Y024218D01*
X013535Y024178D01*
X006923Y024178D01*
X006537Y024565D01*
X006553Y024604D01*
X006553Y024758D01*
X006494Y024901D01*
X006385Y025010D01*
X006243Y025069D01*
X006089Y025069D01*
X005946Y025010D01*
X005837Y024901D01*
X005778Y024758D01*
X005778Y024604D01*
X005837Y024462D01*
X005946Y024353D01*
X006089Y024294D01*
X006243Y024294D01*
X006282Y024310D01*
X006774Y023818D01*
X006923Y023818D01*
X009174Y023818D01*
X009048Y023766D01*
X008927Y023645D01*
X008902Y023584D01*
X006348Y023584D01*
X006055Y023877D01*
X005906Y023877D01*
X004542Y023877D01*
X004526Y023917D01*
X004417Y024026D01*
X004274Y024085D01*
X004120Y024085D01*
X003978Y024026D01*
X003869Y023917D01*
X003810Y023774D01*
X003810Y023620D01*
X003869Y023478D01*
X003978Y023369D01*
X004120Y023310D01*
X004274Y023310D01*
X004417Y023369D01*
X004526Y023478D01*
X004542Y023517D01*
X005906Y023517D01*
X006094Y023329D01*
X006199Y023224D01*
X008900Y023224D01*
X008927Y023158D01*
X008953Y023131D01*
X003181Y023131D01*
X003181Y026251D01*
X008973Y026251D01*
X008927Y026205D01*
X008861Y026047D01*
X008861Y025876D01*
X008927Y025718D01*
X009048Y025597D01*
X009206Y025531D01*
X009377Y025531D01*
X009535Y025597D01*
X009656Y025718D01*
X009721Y025876D01*
X009721Y026047D01*
X009656Y026205D01*
X009610Y026251D01*
X010753Y026251D01*
X010707Y026205D01*
X010641Y026047D01*
X010641Y025876D01*
X010707Y025718D01*
X010828Y025597D01*
X010986Y025531D01*
X011157Y025531D01*
X011315Y025597D01*
X011436Y025718D01*
X011501Y025876D01*
X011501Y026047D01*
X011436Y026205D01*
X011390Y026251D01*
X019181Y026251D01*
X019181Y023131D01*
X019181Y023142D02*
X019032Y023142D01*
X019082Y023241D02*
X019181Y023241D01*
X019181Y023339D02*
X019113Y023339D01*
X019113Y023438D02*
X019181Y023438D01*
X019181Y023536D02*
X019093Y023536D01*
X019052Y023635D02*
X019181Y023635D01*
X019181Y023733D02*
X018960Y023733D01*
X018769Y023832D02*
X018598Y023832D01*
X018534Y023805D01*
X017577Y024763D01*
X017502Y024583D02*
X018683Y023402D01*
X018598Y023832D02*
X018508Y023832D01*
X017683Y023402D02*
X017105Y023981D01*
X016406Y023981D01*
X015803Y024583D01*
X015681Y024583D01*
X015282Y024423D02*
X015102Y024423D01*
X015131Y024493D02*
X015063Y024328D01*
X014936Y024201D01*
X014771Y024133D01*
X014731Y024133D01*
X014731Y024533D01*
X014631Y024533D01*
X014231Y024533D01*
X014231Y024493D01*
X014300Y024328D01*
X014426Y024201D01*
X014592Y024133D01*
X014631Y024133D01*
X014631Y024533D01*
X014631Y024633D01*
X014231Y024633D01*
X014231Y024672D01*
X014300Y024838D01*
X014426Y024964D01*
X014592Y025033D01*
X014631Y025033D01*
X014631Y024633D01*
X014731Y024633D01*
X014731Y025033D01*
X014771Y025033D01*
X014936Y024964D01*
X015063Y024838D01*
X015131Y024672D01*
X015131Y024633D01*
X014732Y024633D01*
X014732Y024533D01*
X015131Y024533D01*
X015131Y024493D01*
X015131Y024522D02*
X015251Y024522D01*
X015251Y024620D02*
X014732Y024620D01*
X014681Y024583D02*
X014681Y025181D01*
X014181Y025681D01*
X012181Y025681D01*
X011681Y025181D01*
X008681Y025181D01*
X008197Y025666D01*
X004197Y025666D01*
X004168Y025694D02*
X004168Y025637D01*
X003790Y025637D01*
X003790Y025585D01*
X003852Y025435D01*
X003966Y025320D01*
X004116Y025258D01*
X004168Y025258D01*
X004168Y025637D01*
X004226Y025637D01*
X004226Y025694D01*
X004605Y025694D01*
X004605Y025747D01*
X004543Y025896D01*
X004428Y026011D01*
X004278Y026073D01*
X004226Y026073D01*
X004226Y025695D01*
X004168Y025695D01*
X004168Y026073D01*
X004116Y026073D01*
X003966Y026011D01*
X003852Y025896D01*
X003790Y025747D01*
X003790Y025694D01*
X004168Y025694D01*
X004168Y025704D02*
X004226Y025704D01*
X004226Y025637D02*
X004605Y025637D01*
X004605Y025585D01*
X004543Y025435D01*
X004428Y025320D01*
X004278Y025258D01*
X004226Y025258D01*
X004226Y025637D01*
X004226Y025606D02*
X004168Y025606D01*
X004168Y025507D02*
X004226Y025507D01*
X004226Y025409D02*
X004168Y025409D01*
X004168Y025310D02*
X004226Y025310D01*
X004403Y025310D02*
X019181Y025310D01*
X019181Y025409D02*
X004516Y025409D01*
X004572Y025507D02*
X019181Y025507D01*
X019181Y025606D02*
X011324Y025606D01*
X011422Y025704D02*
X019181Y025704D01*
X019181Y025803D02*
X011471Y025803D01*
X011501Y025901D02*
X019181Y025901D01*
X019181Y026000D02*
X011501Y026000D01*
X011480Y026098D02*
X019181Y026098D01*
X019181Y026197D02*
X011439Y026197D01*
X010704Y026197D02*
X009659Y026197D01*
X009700Y026098D02*
X010663Y026098D01*
X010641Y026000D02*
X009721Y026000D01*
X009721Y025901D02*
X010641Y025901D01*
X010672Y025803D02*
X009691Y025803D01*
X009642Y025704D02*
X010721Y025704D01*
X010819Y025606D02*
X009544Y025606D01*
X009039Y025606D02*
X004605Y025606D01*
X004605Y025704D02*
X008941Y025704D01*
X008892Y025803D02*
X004581Y025803D01*
X004538Y025901D02*
X008861Y025901D01*
X008861Y026000D02*
X004439Y026000D01*
X004226Y026000D02*
X004168Y026000D01*
X004168Y025901D02*
X004226Y025901D01*
X004226Y025803D02*
X004168Y025803D01*
X003955Y026000D02*
X003181Y026000D01*
X003181Y026098D02*
X008883Y026098D01*
X008924Y026197D02*
X003181Y026197D01*
X003181Y025901D02*
X003856Y025901D01*
X003813Y025803D02*
X003181Y025803D01*
X003181Y025704D02*
X003790Y025704D01*
X003790Y025606D02*
X003181Y025606D01*
X003181Y025507D02*
X003822Y025507D01*
X003878Y025409D02*
X003181Y025409D01*
X003181Y025310D02*
X003991Y025310D01*
X003181Y025211D02*
X019181Y025211D01*
X019181Y025113D02*
X003181Y025113D01*
X003181Y025014D02*
X005957Y025014D01*
X005852Y024916D02*
X003181Y024916D01*
X003181Y024817D02*
X005803Y024817D01*
X005778Y024719D02*
X003181Y024719D01*
X003181Y024620D02*
X005778Y024620D01*
X005812Y024522D02*
X003181Y024522D01*
X003181Y024423D02*
X005876Y024423D01*
X006015Y024325D02*
X003181Y024325D01*
X003181Y024226D02*
X006367Y024226D01*
X006465Y024127D02*
X003181Y024127D01*
X003181Y024029D02*
X003986Y024029D01*
X003882Y023930D02*
X003181Y023930D01*
X003181Y023832D02*
X003834Y023832D01*
X003810Y023733D02*
X003181Y023733D01*
X003181Y023635D02*
X003810Y023635D01*
X003844Y023536D02*
X003181Y023536D01*
X003181Y023438D02*
X003909Y023438D01*
X004049Y023339D02*
X003181Y023339D01*
X003181Y023241D02*
X006183Y023241D01*
X006084Y023339D02*
X004345Y023339D01*
X004486Y023438D02*
X005986Y023438D01*
X005981Y023697D02*
X006274Y023404D01*
X009289Y023404D01*
X009291Y023401D01*
X009015Y023733D02*
X006199Y023733D01*
X006298Y023635D02*
X008923Y023635D01*
X008943Y023142D02*
X003181Y023142D01*
X004197Y023697D02*
X005981Y023697D01*
X006100Y023832D02*
X006761Y023832D01*
X006662Y023930D02*
X004512Y023930D01*
X004409Y024029D02*
X006564Y024029D01*
X006849Y023998D02*
X006166Y024681D01*
X006529Y024817D02*
X013313Y024817D01*
X013272Y024719D02*
X006553Y024719D01*
X006553Y024620D02*
X013251Y024620D01*
X013251Y024522D02*
X006580Y024522D01*
X006679Y024423D02*
X013282Y024423D01*
X013332Y024325D02*
X006777Y024325D01*
X006876Y024226D02*
X013430Y024226D01*
X013932Y024226D02*
X014402Y024226D01*
X014303Y024325D02*
X014031Y024325D01*
X014081Y024423D02*
X014261Y024423D01*
X014231Y024522D02*
X014111Y024522D01*
X014111Y024620D02*
X014631Y024620D01*
X014631Y024522D02*
X014731Y024522D01*
X014731Y024423D02*
X014631Y024423D01*
X014631Y024325D02*
X014731Y024325D01*
X014731Y024226D02*
X014631Y024226D01*
X014961Y024226D02*
X015430Y024226D01*
X015332Y024325D02*
X015059Y024325D01*
X015112Y024719D02*
X015272Y024719D01*
X015313Y024817D02*
X015071Y024817D01*
X014985Y024916D02*
X015406Y024916D01*
X015957Y024916D02*
X016251Y024916D01*
X016251Y024817D02*
X016050Y024817D01*
X016091Y024719D02*
X016251Y024719D01*
X016251Y024620D02*
X016111Y024620D01*
X016119Y024522D02*
X016251Y024522D01*
X016251Y024423D02*
X016218Y024423D01*
X016004Y024127D02*
X014094Y024127D01*
X014193Y024029D02*
X016103Y024029D01*
X015960Y023733D02*
X016407Y023733D01*
X016314Y023635D02*
X016052Y023635D01*
X016093Y023536D02*
X016274Y023536D01*
X016253Y023438D02*
X016113Y023438D01*
X016113Y023339D02*
X016253Y023339D01*
X016285Y023241D02*
X016082Y023241D01*
X016032Y023142D02*
X016335Y023142D01*
X015683Y023402D02*
X015439Y023402D01*
X014927Y022931D01*
X011567Y022931D01*
X011071Y023401D01*
X012801Y023818D02*
X013513Y023818D01*
X013428Y023783D01*
X013302Y023657D01*
X013233Y023491D01*
X013233Y023452D01*
X013633Y023452D01*
X013633Y023352D01*
X013233Y023352D01*
X013233Y023312D01*
X013302Y023147D01*
X013318Y023131D01*
X013021Y023131D01*
X013048Y023158D01*
X013113Y023316D01*
X013113Y023487D01*
X013048Y023645D01*
X012927Y023766D01*
X012801Y023818D01*
X012960Y023733D02*
X013378Y023733D01*
X013293Y023635D02*
X013052Y023635D01*
X013093Y023536D02*
X013252Y023536D01*
X013113Y023438D02*
X013633Y023438D01*
X013734Y023438D02*
X014253Y023438D01*
X014253Y023459D02*
X014253Y023316D01*
X014319Y023158D01*
X014346Y023131D01*
X014049Y023131D01*
X014065Y023147D01*
X014133Y023312D01*
X014133Y023352D01*
X013734Y023352D01*
X013734Y023452D01*
X014133Y023452D01*
X014133Y023491D01*
X014071Y023641D01*
X014253Y023459D01*
X014176Y023536D02*
X014115Y023536D01*
X014078Y023635D02*
X014074Y023635D01*
X014133Y023339D02*
X014253Y023339D01*
X014285Y023241D02*
X014104Y023241D01*
X014060Y023142D02*
X014335Y023142D01*
X014565Y023402D02*
X013969Y023998D01*
X006849Y023998D01*
X006479Y024916D02*
X013406Y024916D01*
X013957Y024916D02*
X014378Y024916D01*
X014291Y024817D02*
X014050Y024817D01*
X014091Y024719D02*
X014251Y024719D01*
X014631Y024719D02*
X014731Y024719D01*
X014731Y024817D02*
X014631Y024817D01*
X014631Y024916D02*
X014731Y024916D01*
X014731Y025014D02*
X014631Y025014D01*
X014547Y025014D02*
X006374Y025014D01*
X006199Y027724D02*
X008900Y027724D01*
X008927Y027658D01*
X008953Y027631D01*
X003181Y027631D01*
X003181Y030751D01*
X008973Y030751D01*
X008927Y030705D01*
X008861Y030547D01*
X008861Y030376D01*
X008927Y030218D01*
X009048Y030097D01*
X009206Y030031D01*
X009377Y030031D01*
X009535Y030097D01*
X009656Y030218D01*
X009721Y030376D01*
X009721Y030547D01*
X009656Y030705D01*
X009610Y030751D01*
X010753Y030751D01*
X010707Y030705D01*
X010641Y030547D01*
X010641Y030376D01*
X010707Y030218D01*
X010828Y030097D01*
X010986Y030031D01*
X011157Y030031D01*
X011315Y030097D01*
X011436Y030218D01*
X011501Y030376D01*
X011501Y030547D01*
X011436Y030705D01*
X011390Y030751D01*
X019181Y030751D01*
X019181Y027631D01*
X019021Y027631D01*
X019048Y027658D01*
X019113Y027816D01*
X019113Y027987D01*
X019048Y028145D01*
X018927Y028266D01*
X019181Y028266D01*
X019181Y028168D02*
X019026Y028168D01*
X019079Y028069D02*
X019181Y028069D01*
X019181Y027971D02*
X019113Y027971D01*
X019113Y027872D02*
X019181Y027872D01*
X019181Y027774D02*
X019096Y027774D01*
X019055Y027675D02*
X019181Y027675D01*
X018683Y027902D02*
X017502Y029083D01*
X016681Y029083D01*
X016251Y029055D02*
X016111Y029055D01*
X016111Y029030D02*
X016111Y029169D01*
X016046Y029327D01*
X015925Y029447D01*
X015767Y029513D01*
X015596Y029513D01*
X015438Y029447D01*
X015317Y029327D01*
X015251Y029169D01*
X015251Y028997D01*
X015317Y028839D01*
X015438Y028718D01*
X015596Y028653D01*
X015767Y028653D01*
X015917Y028715D01*
X016226Y028406D01*
X016331Y028301D01*
X016523Y028301D01*
X016440Y028266D01*
X015927Y028266D01*
X015769Y028332D01*
X015598Y028332D01*
X015440Y028266D01*
X014927Y028266D01*
X014769Y028332D01*
X014598Y028332D01*
X014451Y028271D01*
X014149Y028573D01*
X014043Y028678D01*
X013828Y028678D01*
X013925Y028718D01*
X014046Y028839D01*
X014111Y028997D01*
X014111Y029169D01*
X014046Y029327D01*
X013925Y029447D01*
X013767Y029513D01*
X013596Y029513D01*
X013438Y029447D01*
X013317Y029327D01*
X013251Y029169D01*
X013251Y028997D01*
X013317Y028839D01*
X013438Y028718D01*
X013535Y028678D01*
X006923Y028678D01*
X006537Y029065D01*
X006553Y029104D01*
X006553Y029258D01*
X006494Y029401D01*
X006385Y029510D01*
X006243Y029569D01*
X006089Y029569D01*
X005946Y029510D01*
X005837Y029401D01*
X005778Y029258D01*
X005778Y029104D01*
X005837Y028962D01*
X005946Y028853D01*
X006089Y028794D01*
X006243Y028794D01*
X006282Y028810D01*
X006774Y028318D01*
X006923Y028318D01*
X009174Y028318D01*
X009048Y028266D01*
X008927Y028145D01*
X008902Y028084D01*
X006348Y028084D01*
X006055Y028377D01*
X005906Y028377D01*
X004542Y028377D01*
X004526Y028417D01*
X004417Y028526D01*
X004274Y028585D01*
X004120Y028585D01*
X003978Y028526D01*
X003869Y028417D01*
X003810Y028274D01*
X003810Y028120D01*
X003869Y027978D01*
X003978Y027869D01*
X004120Y027810D01*
X004274Y027810D01*
X004417Y027869D01*
X004526Y027978D01*
X004542Y028017D01*
X005906Y028017D01*
X006094Y027829D01*
X006199Y027724D01*
X006150Y027774D02*
X003181Y027774D01*
X003181Y027872D02*
X003974Y027872D01*
X003876Y027971D02*
X003181Y027971D01*
X003181Y028069D02*
X003831Y028069D01*
X003810Y028168D02*
X003181Y028168D01*
X003181Y028266D02*
X003810Y028266D01*
X003847Y028365D02*
X003181Y028365D01*
X003181Y028463D02*
X003915Y028463D01*
X004065Y028562D02*
X003181Y028562D01*
X003181Y028660D02*
X006432Y028660D01*
X006531Y028562D02*
X004329Y028562D01*
X004479Y028463D02*
X006629Y028463D01*
X006728Y028365D02*
X006067Y028365D01*
X006166Y028266D02*
X009049Y028266D01*
X008950Y028168D02*
X006265Y028168D01*
X006274Y027904D02*
X009289Y027904D01*
X009291Y027901D01*
X008920Y027675D02*
X003181Y027675D01*
X003181Y028759D02*
X006334Y028759D01*
X006547Y029055D02*
X013251Y029055D01*
X013251Y029153D02*
X006553Y029153D01*
X006553Y029252D02*
X013286Y029252D01*
X013341Y029350D02*
X006515Y029350D01*
X006446Y029449D02*
X013441Y029449D01*
X013922Y029449D02*
X014411Y029449D01*
X014426Y029464D02*
X014300Y029338D01*
X014231Y029172D01*
X014231Y029133D01*
X014631Y029133D01*
X014631Y029033D01*
X014231Y029033D01*
X014231Y028993D01*
X014300Y028828D01*
X014426Y028701D01*
X014592Y028633D01*
X014631Y028633D01*
X014631Y029033D01*
X014731Y029033D01*
X014731Y028633D01*
X014771Y028633D01*
X014936Y028701D01*
X015063Y028828D01*
X015131Y028993D01*
X015131Y029033D01*
X014732Y029033D01*
X014732Y029133D01*
X015131Y029133D01*
X015131Y029172D01*
X015063Y029338D01*
X014936Y029464D01*
X014771Y029533D01*
X014731Y029533D01*
X014731Y029133D01*
X014631Y029133D01*
X014631Y029533D01*
X014592Y029533D01*
X014426Y029464D01*
X014312Y029350D02*
X014022Y029350D01*
X014077Y029252D02*
X014264Y029252D01*
X014231Y029153D02*
X014111Y029153D01*
X014111Y029055D02*
X014631Y029055D01*
X014681Y029083D02*
X014681Y029681D01*
X014181Y030181D01*
X012181Y030181D01*
X011681Y029681D01*
X008681Y029681D01*
X008197Y030166D01*
X004197Y030166D01*
X004168Y030139D02*
X003181Y030139D01*
X003181Y030237D02*
X003790Y030237D01*
X003790Y030247D02*
X003790Y030194D01*
X004168Y030194D01*
X004168Y030137D01*
X003790Y030137D01*
X003790Y030085D01*
X003852Y029935D01*
X003966Y029820D01*
X004116Y029758D01*
X004168Y029758D01*
X004168Y030137D01*
X004226Y030137D01*
X004226Y030194D01*
X004605Y030194D01*
X004605Y030247D01*
X004543Y030396D01*
X004428Y030511D01*
X004278Y030573D01*
X004226Y030573D01*
X004226Y030195D01*
X004168Y030195D01*
X004168Y030573D01*
X004116Y030573D01*
X003966Y030511D01*
X003852Y030396D01*
X003790Y030247D01*
X003827Y030336D02*
X003181Y030336D01*
X003181Y030434D02*
X003889Y030434D01*
X004019Y030533D02*
X003181Y030533D01*
X003181Y030631D02*
X008896Y030631D01*
X008861Y030533D02*
X004376Y030533D01*
X004226Y030533D02*
X004168Y030533D01*
X004168Y030434D02*
X004226Y030434D01*
X004226Y030336D02*
X004168Y030336D01*
X004168Y030237D02*
X004226Y030237D01*
X004226Y030139D02*
X009006Y030139D01*
X008919Y030237D02*
X004605Y030237D01*
X004605Y030137D02*
X004226Y030137D01*
X004226Y029758D01*
X004278Y029758D01*
X004428Y029820D01*
X004543Y029935D01*
X004605Y030085D01*
X004605Y030137D01*
X004586Y030040D02*
X009185Y030040D01*
X009398Y030040D02*
X010965Y030040D01*
X010786Y030139D02*
X009577Y030139D01*
X009664Y030237D02*
X010699Y030237D01*
X010658Y030336D02*
X009705Y030336D01*
X009721Y030434D02*
X010641Y030434D01*
X010641Y030533D02*
X009721Y030533D01*
X009686Y030631D02*
X010676Y030631D01*
X010732Y030730D02*
X009631Y030730D01*
X008952Y030730D02*
X003181Y030730D01*
X003181Y030040D02*
X003808Y030040D01*
X003849Y029941D02*
X003181Y029941D01*
X003181Y029843D02*
X003944Y029843D01*
X004168Y029843D02*
X004226Y029843D01*
X004226Y029941D02*
X004168Y029941D01*
X004168Y030040D02*
X004226Y030040D01*
X004451Y029843D02*
X019181Y029843D01*
X019181Y029941D02*
X004545Y029941D01*
X004568Y030336D02*
X008878Y030336D01*
X008861Y030434D02*
X004505Y030434D01*
X003181Y029547D02*
X006037Y029547D01*
X005885Y029449D02*
X003181Y029449D01*
X003181Y029350D02*
X005816Y029350D01*
X005778Y029252D02*
X003181Y029252D01*
X003181Y029153D02*
X005778Y029153D01*
X005799Y029055D02*
X003181Y029055D01*
X003181Y028956D02*
X005843Y028956D01*
X005942Y028858D02*
X003181Y028858D01*
X003181Y029646D02*
X019181Y029646D01*
X019181Y029744D02*
X003181Y029744D01*
X004197Y028197D02*
X005981Y028197D01*
X006274Y027904D01*
X006051Y027872D02*
X004420Y027872D01*
X004519Y027971D02*
X005953Y027971D01*
X006849Y028498D02*
X006166Y029181D01*
X006295Y029547D02*
X019181Y029547D01*
X019181Y029449D02*
X017099Y029449D01*
X017111Y029437D02*
X017035Y029513D01*
X016328Y029513D01*
X016251Y029437D01*
X016251Y028889D01*
X016111Y029030D01*
X016185Y028956D02*
X016251Y028956D01*
X016251Y029153D02*
X016111Y029153D01*
X016077Y029252D02*
X016251Y029252D01*
X016251Y029350D02*
X016022Y029350D01*
X015922Y029449D02*
X016263Y029449D01*
X015803Y029083D02*
X016406Y028481D01*
X017105Y028481D01*
X017683Y027902D01*
X018376Y028463D02*
X019181Y028463D01*
X019181Y028365D02*
X018475Y028365D01*
X018534Y028305D02*
X017577Y029263D01*
X017428Y029263D01*
X017111Y029263D01*
X017111Y029437D01*
X017111Y029350D02*
X019181Y029350D01*
X019181Y029252D02*
X017588Y029252D01*
X017687Y029153D02*
X019181Y029153D01*
X019181Y029055D02*
X017785Y029055D01*
X017884Y028956D02*
X019181Y028956D01*
X019181Y028858D02*
X017982Y028858D01*
X018081Y028759D02*
X019181Y028759D01*
X019181Y028660D02*
X018179Y028660D01*
X018278Y028562D02*
X019181Y028562D01*
X018927Y028266D02*
X018769Y028332D01*
X018598Y028332D01*
X018534Y028305D01*
X019181Y030040D02*
X011178Y030040D01*
X011357Y030139D02*
X019181Y030139D01*
X019181Y030237D02*
X011444Y030237D01*
X011485Y030336D02*
X019181Y030336D01*
X019181Y030434D02*
X011501Y030434D01*
X011501Y030533D02*
X019181Y030533D01*
X019181Y030631D02*
X011466Y030631D01*
X011411Y030730D02*
X019181Y030730D01*
X016440Y028266D02*
X016319Y028145D01*
X016253Y027987D01*
X016253Y027816D01*
X016319Y027658D01*
X016346Y027631D01*
X016021Y027631D01*
X016048Y027658D01*
X016113Y027816D01*
X016113Y027987D01*
X016048Y028145D01*
X015927Y028266D01*
X016026Y028168D02*
X016341Y028168D01*
X016287Y028069D02*
X016079Y028069D01*
X016113Y027971D02*
X016253Y027971D01*
X016253Y027872D02*
X016113Y027872D01*
X016096Y027774D02*
X016271Y027774D01*
X016312Y027675D02*
X016055Y027675D01*
X015683Y027902D02*
X015439Y027902D01*
X014927Y027431D01*
X011567Y027431D01*
X011071Y027901D01*
X012801Y028318D02*
X013513Y028318D01*
X013428Y028283D01*
X013302Y028157D01*
X013233Y027991D01*
X013233Y027952D01*
X013633Y027952D01*
X013633Y027852D01*
X013233Y027852D01*
X013233Y027812D01*
X013302Y027647D01*
X013318Y027631D01*
X013021Y027631D01*
X013048Y027658D01*
X013113Y027816D01*
X013113Y027987D01*
X013048Y028145D01*
X012927Y028266D01*
X013411Y028266D01*
X013313Y028168D02*
X013026Y028168D01*
X013079Y028069D02*
X013266Y028069D01*
X013233Y027971D02*
X013113Y027971D01*
X013113Y027872D02*
X013633Y027872D01*
X013734Y027872D02*
X014253Y027872D01*
X014253Y027816D02*
X014253Y027959D01*
X014071Y028141D01*
X014133Y027991D01*
X014133Y027952D01*
X013734Y027952D01*
X013734Y027852D01*
X014133Y027852D01*
X014133Y027812D01*
X014065Y027647D01*
X014049Y027631D01*
X014346Y027631D01*
X014319Y027658D01*
X014253Y027816D01*
X014271Y027774D02*
X014117Y027774D01*
X014076Y027675D02*
X014312Y027675D01*
X014242Y027971D02*
X014133Y027971D01*
X014143Y028069D02*
X014101Y028069D01*
X014357Y028365D02*
X016267Y028365D01*
X016226Y028406D02*
X016226Y028406D01*
X016169Y028463D02*
X014258Y028463D01*
X014160Y028562D02*
X016070Y028562D01*
X015971Y028660D02*
X015785Y028660D01*
X015578Y028660D02*
X014837Y028660D01*
X014731Y028660D02*
X014631Y028660D01*
X014631Y028759D02*
X014731Y028759D01*
X014731Y028858D02*
X014631Y028858D01*
X014631Y028956D02*
X014731Y028956D01*
X014732Y029055D02*
X015251Y029055D01*
X015251Y029153D02*
X015131Y029153D01*
X015099Y029252D02*
X015286Y029252D01*
X015341Y029350D02*
X015051Y029350D01*
X014952Y029449D02*
X015441Y029449D01*
X015681Y029083D02*
X015803Y029083D01*
X015397Y028759D02*
X014994Y028759D01*
X015075Y028858D02*
X015309Y028858D01*
X015269Y028956D02*
X015116Y028956D01*
X014731Y029153D02*
X014631Y029153D01*
X014631Y029252D02*
X014731Y029252D01*
X014731Y029350D02*
X014631Y029350D01*
X014631Y029449D02*
X014731Y029449D01*
X014247Y028956D02*
X014094Y028956D01*
X014053Y028858D02*
X014288Y028858D01*
X014369Y028759D02*
X013965Y028759D01*
X014061Y028660D02*
X014526Y028660D01*
X014927Y028266D02*
X015048Y028145D01*
X015113Y027987D01*
X015113Y027847D01*
X015253Y027975D01*
X015253Y027987D01*
X015319Y028145D01*
X015440Y028266D01*
X015341Y028168D02*
X015026Y028168D01*
X015079Y028069D02*
X015287Y028069D01*
X015248Y027971D02*
X015113Y027971D01*
X015113Y027872D02*
X015141Y027872D01*
X014683Y027902D02*
X014565Y027902D01*
X013969Y028498D01*
X006849Y028498D01*
X006843Y028759D02*
X013397Y028759D01*
X013309Y028858D02*
X006744Y028858D01*
X006646Y028956D02*
X013269Y028956D01*
X012927Y028266D02*
X012801Y028318D01*
X013096Y027774D02*
X013249Y027774D01*
X013290Y027675D02*
X013055Y027675D01*
X014816Y025014D02*
X019181Y025014D01*
X019181Y024916D02*
X017111Y024916D01*
X017111Y024817D02*
X019181Y024817D01*
X017502Y024583D02*
X016681Y024583D01*
X015769Y023832D02*
X015598Y023832D01*
X015440Y023766D01*
X015319Y023645D01*
X015253Y023487D01*
X015253Y023475D01*
X015113Y023347D01*
X015113Y023487D01*
X015048Y023645D01*
X014927Y023766D01*
X014769Y023832D01*
X015598Y023832D01*
X015407Y023733D02*
X014960Y023733D01*
X015052Y023635D02*
X015314Y023635D01*
X015274Y023536D02*
X015093Y023536D01*
X015113Y023438D02*
X015212Y023438D01*
X014683Y023402D02*
X014565Y023402D01*
X014598Y023832D02*
X014769Y023832D01*
X013233Y023339D02*
X013113Y023339D01*
X013082Y023241D02*
X013263Y023241D01*
X013307Y023142D02*
X013032Y023142D01*
X023112Y019181D02*
X026231Y019181D01*
X026231Y019021D01*
X026204Y019048D01*
X026046Y019113D01*
X025875Y019113D01*
X025717Y019048D01*
X025596Y018927D01*
X025531Y018769D01*
X025531Y018598D01*
X025557Y018534D01*
X024600Y017577D01*
X024600Y017428D01*
X024600Y017111D01*
X024426Y017111D01*
X024350Y017035D01*
X024350Y016328D01*
X024426Y016251D01*
X024973Y016251D01*
X024833Y016111D01*
X024694Y016111D01*
X024536Y016046D01*
X024415Y015925D01*
X024350Y015767D01*
X024350Y015596D01*
X024415Y015438D01*
X024536Y015317D01*
X024694Y015251D01*
X024865Y015251D01*
X025023Y015317D01*
X025144Y015438D01*
X025210Y015596D01*
X025210Y015767D01*
X025148Y015917D01*
X025457Y016226D01*
X025562Y016331D01*
X025562Y016523D01*
X025596Y016440D01*
X025717Y016319D01*
X025875Y016253D01*
X026046Y016253D01*
X026204Y016319D01*
X026231Y016346D01*
X026231Y016021D01*
X026204Y016048D01*
X026046Y016113D01*
X025875Y016113D01*
X025717Y016048D01*
X025596Y015927D01*
X025531Y015769D01*
X025531Y015598D01*
X025596Y015440D01*
X025717Y015319D01*
X025875Y015253D01*
X025887Y015253D01*
X026016Y015113D01*
X025875Y015113D01*
X025717Y015048D01*
X025596Y014927D01*
X025531Y014769D01*
X025531Y014598D01*
X025592Y014451D01*
X025290Y014149D01*
X025184Y014043D01*
X025184Y013828D01*
X025144Y013925D01*
X025023Y014046D01*
X024865Y014111D01*
X024694Y014111D01*
X024536Y014046D01*
X024415Y013925D01*
X024350Y013767D01*
X024350Y013596D01*
X024415Y013438D01*
X024536Y013317D01*
X024694Y013251D01*
X024865Y013251D01*
X025023Y013317D01*
X025144Y013438D01*
X025184Y013535D01*
X025184Y006923D01*
X024798Y006537D01*
X024758Y006553D01*
X024604Y006553D01*
X024462Y006494D01*
X024353Y006385D01*
X024294Y006243D01*
X024294Y006089D01*
X024353Y005946D01*
X024462Y005837D01*
X024604Y005778D01*
X024758Y005778D01*
X024901Y005837D01*
X025010Y005946D01*
X025069Y006089D01*
X025069Y006243D01*
X025052Y006282D01*
X025544Y006774D01*
X025544Y006923D01*
X025544Y009174D01*
X025597Y009048D01*
X025718Y008927D01*
X025779Y008902D01*
X025779Y006348D01*
X025486Y006055D01*
X025486Y005906D01*
X025486Y004542D01*
X025446Y004526D01*
X025337Y004417D01*
X025278Y004274D01*
X025278Y004120D01*
X025337Y003978D01*
X025446Y003869D01*
X025589Y003810D01*
X025743Y003810D01*
X025885Y003869D01*
X025994Y003978D01*
X026053Y004120D01*
X026053Y004274D01*
X025994Y004417D01*
X025885Y004526D01*
X025846Y004542D01*
X025846Y005906D01*
X026033Y006094D01*
X026034Y006094D01*
X026231Y006094D01*
X026231Y006193D02*
X026132Y006193D01*
X026139Y006199D02*
X026139Y008900D01*
X026205Y008927D01*
X026231Y008953D01*
X026231Y003181D01*
X023112Y003181D01*
X023112Y008973D01*
X023158Y008927D01*
X023316Y008861D01*
X023487Y008861D01*
X023645Y008927D01*
X023766Y009048D01*
X023831Y009206D01*
X023831Y009377D01*
X023766Y009535D01*
X023645Y009656D01*
X023487Y009721D01*
X023316Y009721D01*
X023158Y009656D01*
X023112Y009610D01*
X023112Y010753D01*
X023158Y010707D01*
X023316Y010641D01*
X023487Y010641D01*
X023645Y010707D01*
X023766Y010828D01*
X023831Y010986D01*
X023831Y011157D01*
X023766Y011315D01*
X023645Y011436D01*
X023487Y011501D01*
X023316Y011501D01*
X023158Y011436D01*
X023112Y011390D01*
X023112Y019181D01*
X023112Y019102D02*
X025847Y019102D01*
X025673Y019003D02*
X023112Y019003D01*
X023112Y018905D02*
X025587Y018905D01*
X025546Y018806D02*
X023112Y018806D01*
X023112Y018708D02*
X025531Y018708D01*
X025531Y018609D02*
X023112Y018609D01*
X023112Y018510D02*
X025534Y018510D01*
X025435Y018412D02*
X023112Y018412D01*
X023112Y018313D02*
X025336Y018313D01*
X025238Y018215D02*
X023112Y018215D01*
X023112Y018116D02*
X025139Y018116D01*
X025041Y018018D02*
X023112Y018018D01*
X023112Y017919D02*
X024942Y017919D01*
X024844Y017821D02*
X023112Y017821D01*
X023112Y017722D02*
X024745Y017722D01*
X024647Y017624D02*
X023112Y017624D01*
X023112Y017525D02*
X024600Y017525D01*
X024600Y017426D02*
X023112Y017426D01*
X023112Y017328D02*
X024600Y017328D01*
X024600Y017229D02*
X023112Y017229D01*
X023112Y017131D02*
X024600Y017131D01*
X024350Y017032D02*
X023112Y017032D01*
X023112Y016934D02*
X024350Y016934D01*
X024350Y016835D02*
X023112Y016835D01*
X023112Y016737D02*
X024350Y016737D01*
X024350Y016638D02*
X023112Y016638D01*
X023112Y016540D02*
X024350Y016540D01*
X024350Y016441D02*
X023112Y016441D01*
X023112Y016343D02*
X024350Y016343D01*
X024539Y016047D02*
X023112Y016047D01*
X023112Y016145D02*
X024867Y016145D01*
X024966Y016244D02*
X023112Y016244D01*
X023112Y015948D02*
X024439Y015948D01*
X024384Y015850D02*
X023112Y015850D01*
X023112Y015751D02*
X024350Y015751D01*
X024350Y015653D02*
X023112Y015653D01*
X023112Y015554D02*
X024367Y015554D01*
X024408Y015456D02*
X023112Y015456D01*
X023112Y015357D02*
X024496Y015357D01*
X024677Y015259D02*
X023112Y015259D01*
X023112Y015160D02*
X025973Y015160D01*
X025863Y015259D02*
X024883Y015259D01*
X024869Y015131D02*
X024830Y015131D01*
X024830Y014732D01*
X024730Y014732D01*
X024730Y015131D01*
X024690Y015131D01*
X024525Y015063D01*
X024398Y014936D01*
X024330Y014771D01*
X024330Y014731D01*
X024730Y014731D01*
X024730Y014631D01*
X024830Y014631D01*
X024830Y014231D01*
X024869Y014231D01*
X025035Y014300D01*
X025161Y014426D01*
X025230Y014592D01*
X025230Y014631D01*
X024830Y014631D01*
X024830Y014731D01*
X025230Y014731D01*
X025230Y014771D01*
X025161Y014936D01*
X025035Y015063D01*
X024869Y015131D01*
X024830Y015061D02*
X024730Y015061D01*
X024730Y014963D02*
X024830Y014963D01*
X024830Y014864D02*
X024730Y014864D01*
X024730Y014766D02*
X024830Y014766D01*
X024780Y014681D02*
X024181Y014681D01*
X023681Y014181D01*
X023681Y012181D01*
X024181Y011681D01*
X024181Y008681D01*
X023697Y008197D01*
X023697Y004197D01*
X023668Y004222D02*
X023112Y004222D01*
X023112Y004320D02*
X023307Y004320D01*
X023290Y004278D02*
X023290Y004226D01*
X023668Y004226D01*
X023668Y004168D01*
X023290Y004168D01*
X023290Y004116D01*
X023352Y003966D01*
X023466Y003852D01*
X023616Y003790D01*
X023668Y003790D01*
X023668Y004168D01*
X023726Y004168D01*
X023726Y003790D01*
X023778Y003790D01*
X023928Y003852D01*
X024043Y003966D01*
X024105Y004116D01*
X024105Y004168D01*
X023726Y004168D01*
X023726Y004226D01*
X023668Y004226D01*
X023668Y004605D01*
X023616Y004605D01*
X023466Y004543D01*
X023352Y004428D01*
X023290Y004278D01*
X023348Y004419D02*
X023112Y004419D01*
X023112Y004517D02*
X023441Y004517D01*
X023668Y004517D02*
X023726Y004517D01*
X023726Y004605D02*
X023726Y004226D01*
X024105Y004226D01*
X024105Y004278D01*
X024043Y004428D01*
X023928Y004543D01*
X023778Y004605D01*
X023726Y004605D01*
X023726Y004419D02*
X023668Y004419D01*
X023668Y004320D02*
X023726Y004320D01*
X023726Y004222D02*
X025278Y004222D01*
X025278Y004123D02*
X024105Y004123D01*
X024067Y004025D02*
X025318Y004025D01*
X025389Y003926D02*
X024002Y003926D01*
X023869Y003828D02*
X025546Y003828D01*
X025786Y003828D02*
X026231Y003828D01*
X026231Y003926D02*
X025943Y003926D01*
X026014Y004025D02*
X026231Y004025D01*
X026231Y004123D02*
X026053Y004123D01*
X026053Y004222D02*
X026231Y004222D01*
X026231Y004320D02*
X026034Y004320D01*
X025992Y004419D02*
X026231Y004419D01*
X026231Y004517D02*
X025893Y004517D01*
X025846Y004616D02*
X026231Y004616D01*
X026231Y004714D02*
X025846Y004714D01*
X025846Y004813D02*
X026231Y004813D01*
X026231Y004911D02*
X025846Y004911D01*
X025846Y005010D02*
X026231Y005010D01*
X026231Y005109D02*
X025846Y005109D01*
X025846Y005207D02*
X026231Y005207D01*
X026231Y005306D02*
X025846Y005306D01*
X025846Y005404D02*
X026231Y005404D01*
X026231Y005503D02*
X025846Y005503D01*
X025846Y005601D02*
X026231Y005601D01*
X026231Y005700D02*
X025846Y005700D01*
X025846Y005798D02*
X026231Y005798D01*
X026231Y005897D02*
X025846Y005897D01*
X025935Y005995D02*
X026231Y005995D01*
X026034Y006094D02*
X026139Y006199D01*
X026139Y006291D02*
X026231Y006291D01*
X026231Y006390D02*
X026139Y006390D01*
X026139Y006488D02*
X026231Y006488D01*
X026231Y006587D02*
X026139Y006587D01*
X026139Y006685D02*
X026231Y006685D01*
X026231Y006784D02*
X026139Y006784D01*
X026139Y006882D02*
X026231Y006882D01*
X026231Y006981D02*
X026139Y006981D01*
X026139Y007079D02*
X026231Y007079D01*
X026231Y007178D02*
X026139Y007178D01*
X026139Y007277D02*
X026231Y007277D01*
X026231Y007375D02*
X026139Y007375D01*
X026139Y007474D02*
X026231Y007474D01*
X026231Y007572D02*
X026139Y007572D01*
X026139Y007671D02*
X026231Y007671D01*
X026231Y007769D02*
X026139Y007769D01*
X026139Y007868D02*
X026231Y007868D01*
X026231Y007966D02*
X026139Y007966D01*
X026139Y008065D02*
X026231Y008065D01*
X026231Y008163D02*
X026139Y008163D01*
X026139Y008262D02*
X026231Y008262D01*
X026231Y008361D02*
X026139Y008361D01*
X026139Y008459D02*
X026231Y008459D01*
X026231Y008558D02*
X026139Y008558D01*
X026139Y008656D02*
X026231Y008656D01*
X026231Y008755D02*
X026139Y008755D01*
X026139Y008853D02*
X026231Y008853D01*
X026230Y008952D02*
X026231Y008952D01*
X025959Y009289D02*
X025961Y009291D01*
X025959Y009289D02*
X025959Y006274D01*
X025666Y005981D01*
X025666Y004197D01*
X025297Y004320D02*
X024087Y004320D01*
X024046Y004419D02*
X025339Y004419D01*
X025438Y004517D02*
X023953Y004517D01*
X023726Y004123D02*
X023668Y004123D01*
X023668Y004025D02*
X023726Y004025D01*
X023726Y003926D02*
X023668Y003926D01*
X023668Y003828D02*
X023726Y003828D01*
X023525Y003828D02*
X023112Y003828D01*
X023112Y003926D02*
X023392Y003926D01*
X023328Y004025D02*
X023112Y004025D01*
X023112Y004123D02*
X023290Y004123D01*
X023112Y004616D02*
X025486Y004616D01*
X025486Y004714D02*
X023112Y004714D01*
X023112Y004813D02*
X025486Y004813D01*
X025486Y004911D02*
X023112Y004911D01*
X023112Y005010D02*
X025486Y005010D01*
X025486Y005109D02*
X023112Y005109D01*
X023112Y005207D02*
X025486Y005207D01*
X025486Y005306D02*
X023112Y005306D01*
X023112Y005404D02*
X025486Y005404D01*
X025486Y005503D02*
X023112Y005503D01*
X023112Y005601D02*
X025486Y005601D01*
X025486Y005700D02*
X023112Y005700D01*
X023112Y005798D02*
X024556Y005798D01*
X024402Y005897D02*
X023112Y005897D01*
X023112Y005995D02*
X024332Y005995D01*
X024294Y006094D02*
X023112Y006094D01*
X023112Y006193D02*
X024294Y006193D01*
X024314Y006291D02*
X023112Y006291D01*
X023112Y006390D02*
X024357Y006390D01*
X024456Y006488D02*
X023112Y006488D01*
X023112Y006587D02*
X024848Y006587D01*
X024947Y006685D02*
X023112Y006685D01*
X023112Y006784D02*
X025045Y006784D01*
X025144Y006882D02*
X023112Y006882D01*
X023112Y006981D02*
X025184Y006981D01*
X025184Y007079D02*
X023112Y007079D01*
X023112Y007178D02*
X025184Y007178D01*
X025184Y007277D02*
X023112Y007277D01*
X023112Y007375D02*
X025184Y007375D01*
X025184Y007474D02*
X023112Y007474D01*
X023112Y007572D02*
X025184Y007572D01*
X025184Y007671D02*
X023112Y007671D01*
X023112Y007769D02*
X025184Y007769D01*
X025184Y007868D02*
X023112Y007868D01*
X023112Y007966D02*
X025184Y007966D01*
X025184Y008065D02*
X023112Y008065D01*
X023112Y008163D02*
X025184Y008163D01*
X025184Y008262D02*
X023112Y008262D01*
X023112Y008361D02*
X025184Y008361D01*
X025184Y008459D02*
X023112Y008459D01*
X023112Y008558D02*
X025184Y008558D01*
X025184Y008656D02*
X023112Y008656D01*
X023112Y008755D02*
X025184Y008755D01*
X025184Y008853D02*
X023112Y008853D01*
X023112Y008952D02*
X023133Y008952D01*
X023670Y008952D02*
X025184Y008952D01*
X025184Y009050D02*
X023767Y009050D01*
X023808Y009149D02*
X025184Y009149D01*
X025184Y009247D02*
X023831Y009247D01*
X023831Y009346D02*
X025184Y009346D01*
X025184Y009444D02*
X023803Y009444D01*
X023758Y009543D02*
X025184Y009543D01*
X025184Y009642D02*
X023659Y009642D01*
X023144Y009642D02*
X023112Y009642D01*
X023112Y009740D02*
X025184Y009740D01*
X025184Y009839D02*
X023112Y009839D01*
X023112Y009937D02*
X025184Y009937D01*
X025184Y010036D02*
X023112Y010036D01*
X023112Y010134D02*
X025184Y010134D01*
X025184Y010233D02*
X023112Y010233D01*
X023112Y010331D02*
X025184Y010331D01*
X025184Y010430D02*
X023112Y010430D01*
X023112Y010528D02*
X025184Y010528D01*
X025184Y010627D02*
X023112Y010627D01*
X023112Y010726D02*
X023139Y010726D01*
X023664Y010726D02*
X025184Y010726D01*
X025184Y010824D02*
X023762Y010824D01*
X023805Y010923D02*
X025184Y010923D01*
X025184Y011021D02*
X023831Y011021D01*
X023831Y011120D02*
X025184Y011120D01*
X025184Y011218D02*
X023806Y011218D01*
X023764Y011317D02*
X025184Y011317D01*
X025184Y011415D02*
X023666Y011415D01*
X023137Y011415D02*
X023112Y011415D01*
X023112Y011514D02*
X025184Y011514D01*
X025184Y011612D02*
X023112Y011612D01*
X023112Y011711D02*
X025184Y011711D01*
X025184Y011810D02*
X023112Y011810D01*
X023112Y011908D02*
X025184Y011908D01*
X025184Y012007D02*
X023112Y012007D01*
X023112Y012105D02*
X025184Y012105D01*
X025184Y012204D02*
X023112Y012204D01*
X023112Y012302D02*
X025184Y012302D01*
X025184Y012401D02*
X023112Y012401D01*
X023112Y012499D02*
X025184Y012499D01*
X025184Y012598D02*
X023112Y012598D01*
X023112Y012696D02*
X025184Y012696D01*
X025184Y012795D02*
X023112Y012795D01*
X023112Y012894D02*
X025184Y012894D01*
X025184Y012992D02*
X023112Y012992D01*
X023112Y013091D02*
X025184Y013091D01*
X025184Y013189D02*
X023112Y013189D01*
X023112Y013288D02*
X024607Y013288D01*
X024467Y013386D02*
X023112Y013386D01*
X023112Y013485D02*
X024396Y013485D01*
X024355Y013583D02*
X023112Y013583D01*
X023112Y013682D02*
X024350Y013682D01*
X024355Y013780D02*
X023112Y013780D01*
X023112Y013879D02*
X024396Y013879D01*
X024468Y013977D02*
X023112Y013977D01*
X023112Y014076D02*
X024609Y014076D01*
X024690Y014231D02*
X024525Y014300D01*
X024398Y014426D01*
X024330Y014592D01*
X024330Y014631D01*
X024730Y014631D01*
X024730Y014231D01*
X024690Y014231D01*
X024730Y014273D02*
X024830Y014273D01*
X024830Y014372D02*
X024730Y014372D01*
X024730Y014470D02*
X024830Y014470D01*
X024830Y014569D02*
X024730Y014569D01*
X024730Y014667D02*
X023112Y014667D01*
X023112Y014569D02*
X024339Y014569D01*
X024380Y014470D02*
X023112Y014470D01*
X023112Y014372D02*
X024453Y014372D01*
X024590Y014273D02*
X023112Y014273D01*
X023112Y014175D02*
X025316Y014175D01*
X025414Y014273D02*
X024970Y014273D01*
X025106Y014372D02*
X025513Y014372D01*
X025584Y014470D02*
X025179Y014470D01*
X025220Y014569D02*
X025543Y014569D01*
X025531Y014667D02*
X024830Y014667D01*
X025191Y014864D02*
X025571Y014864D01*
X025531Y014766D02*
X025230Y014766D01*
X025135Y014963D02*
X025632Y014963D01*
X025750Y015061D02*
X025036Y015061D01*
X025064Y015357D02*
X025679Y015357D01*
X025590Y015456D02*
X025152Y015456D01*
X025193Y015554D02*
X025549Y015554D01*
X025531Y015653D02*
X025210Y015653D01*
X025210Y015751D02*
X025531Y015751D01*
X025564Y015850D02*
X025175Y015850D01*
X025179Y015948D02*
X025618Y015948D01*
X025716Y016047D02*
X025278Y016047D01*
X025376Y016145D02*
X026231Y016145D01*
X026231Y016047D02*
X026205Y016047D01*
X026231Y016244D02*
X025475Y016244D01*
X025562Y016343D02*
X025694Y016343D01*
X025596Y016441D02*
X025562Y016441D01*
X025382Y016406D02*
X025382Y017105D01*
X025961Y017683D01*
X025961Y018683D02*
X024780Y017502D01*
X024780Y016681D01*
X025382Y016406D02*
X024780Y015803D01*
X024780Y015681D01*
X024524Y015061D02*
X023112Y015061D01*
X023112Y014963D02*
X024425Y014963D01*
X024369Y014864D02*
X023112Y014864D01*
X023112Y014766D02*
X024330Y014766D01*
X024951Y014076D02*
X025217Y014076D01*
X025184Y013977D02*
X025092Y013977D01*
X025163Y013879D02*
X025184Y013879D01*
X025364Y013969D02*
X025364Y006849D01*
X024681Y006166D01*
X024961Y005897D02*
X025486Y005897D01*
X025486Y005995D02*
X025030Y005995D01*
X025069Y006094D02*
X025525Y006094D01*
X025623Y006193D02*
X025069Y006193D01*
X025061Y006291D02*
X025722Y006291D01*
X025779Y006390D02*
X025160Y006390D01*
X025258Y006488D02*
X025779Y006488D01*
X025779Y006587D02*
X025357Y006587D01*
X025456Y006685D02*
X025779Y006685D01*
X025779Y006784D02*
X025544Y006784D01*
X025544Y006882D02*
X025779Y006882D01*
X025779Y006981D02*
X025544Y006981D01*
X025544Y007079D02*
X025779Y007079D01*
X025779Y007178D02*
X025544Y007178D01*
X025544Y007277D02*
X025779Y007277D01*
X025779Y007375D02*
X025544Y007375D01*
X025544Y007474D02*
X025779Y007474D01*
X025779Y007572D02*
X025544Y007572D01*
X025544Y007671D02*
X025779Y007671D01*
X025779Y007769D02*
X025544Y007769D01*
X025544Y007868D02*
X025779Y007868D01*
X025779Y007966D02*
X025544Y007966D01*
X025544Y008065D02*
X025779Y008065D01*
X025779Y008163D02*
X025544Y008163D01*
X025544Y008262D02*
X025779Y008262D01*
X025779Y008361D02*
X025544Y008361D01*
X025544Y008459D02*
X025779Y008459D01*
X025779Y008558D02*
X025544Y008558D01*
X025544Y008656D02*
X025779Y008656D01*
X025779Y008755D02*
X025544Y008755D01*
X025544Y008853D02*
X025779Y008853D01*
X025693Y008952D02*
X025544Y008952D01*
X025544Y009050D02*
X025596Y009050D01*
X025555Y009149D02*
X025544Y009149D01*
X027612Y008973D02*
X027658Y008927D01*
X027816Y008861D01*
X027987Y008861D01*
X028145Y008927D01*
X028266Y009048D01*
X028331Y009206D01*
X028331Y009377D01*
X028266Y009535D01*
X028145Y009656D01*
X027987Y009721D01*
X027816Y009721D01*
X027658Y009656D01*
X027612Y009610D01*
X027612Y010753D01*
X027658Y010707D01*
X027816Y010641D01*
X027987Y010641D01*
X028145Y010707D01*
X028266Y010828D01*
X028331Y010986D01*
X028331Y011157D01*
X028266Y011315D01*
X028145Y011436D01*
X027987Y011501D01*
X027816Y011501D01*
X027658Y011436D01*
X027612Y011390D01*
X027612Y019181D01*
X030731Y019181D01*
X030731Y019021D01*
X030704Y019048D01*
X030546Y019113D01*
X030375Y019113D01*
X030217Y019048D01*
X030096Y018927D01*
X030031Y018769D01*
X030031Y018598D01*
X030057Y018534D01*
X029100Y017577D01*
X029100Y017428D01*
X029100Y017111D01*
X028926Y017111D01*
X028850Y017035D01*
X028850Y016328D01*
X028926Y016251D01*
X029473Y016251D01*
X029333Y016111D01*
X029194Y016111D01*
X029036Y016046D01*
X028915Y015925D01*
X028850Y015767D01*
X028850Y015596D01*
X028915Y015438D01*
X029036Y015317D01*
X029194Y015251D01*
X029365Y015251D01*
X029523Y015317D01*
X029644Y015438D01*
X029710Y015596D01*
X029710Y015767D01*
X029648Y015917D01*
X029957Y016226D01*
X030062Y016331D01*
X030062Y016523D01*
X030096Y016440D01*
X030217Y016319D01*
X030375Y016253D01*
X030546Y016253D01*
X030704Y016319D01*
X030731Y016346D01*
X030731Y016021D01*
X030704Y016048D01*
X030546Y016113D01*
X030375Y016113D01*
X030217Y016048D01*
X030096Y015927D01*
X030031Y015769D01*
X030031Y015598D01*
X030096Y015440D01*
X030217Y015319D01*
X030375Y015253D01*
X030387Y015253D01*
X030516Y015113D01*
X030375Y015113D01*
X030217Y015048D01*
X030096Y014927D01*
X030031Y014769D01*
X030031Y014598D01*
X030092Y014451D01*
X029790Y014149D01*
X029684Y014043D01*
X029684Y013828D01*
X029644Y013925D01*
X029523Y014046D01*
X029365Y014111D01*
X029194Y014111D01*
X029036Y014046D01*
X028915Y013925D01*
X028850Y013767D01*
X028850Y013596D01*
X028915Y013438D01*
X029036Y013317D01*
X029194Y013251D01*
X029365Y013251D01*
X029523Y013317D01*
X029644Y013438D01*
X029684Y013535D01*
X029684Y006923D01*
X029298Y006537D01*
X029258Y006553D01*
X029104Y006553D01*
X028962Y006494D01*
X028853Y006385D01*
X028794Y006243D01*
X028794Y006089D01*
X028853Y005946D01*
X028962Y005837D01*
X029104Y005778D01*
X029258Y005778D01*
X029401Y005837D01*
X029510Y005946D01*
X029569Y006089D01*
X029569Y006243D01*
X029552Y006282D01*
X030044Y006774D01*
X030044Y006923D01*
X030044Y009174D01*
X030097Y009048D01*
X030218Y008927D01*
X030279Y008902D01*
X030279Y006348D01*
X029986Y006055D01*
X029986Y005906D01*
X029986Y004542D01*
X029946Y004526D01*
X029837Y004417D01*
X029778Y004274D01*
X029778Y004120D01*
X029837Y003978D01*
X029946Y003869D01*
X030089Y003810D01*
X030243Y003810D01*
X030385Y003869D01*
X030494Y003978D01*
X030553Y004120D01*
X030553Y004274D01*
X030494Y004417D01*
X030385Y004526D01*
X030346Y004542D01*
X030346Y005906D01*
X030534Y006094D01*
X030731Y006094D01*
X030731Y006193D02*
X030632Y006193D01*
X030639Y006199D02*
X030639Y008900D01*
X030705Y008927D01*
X030731Y008953D01*
X030731Y003181D01*
X027612Y003181D01*
X027612Y008973D01*
X027612Y008952D02*
X027633Y008952D01*
X027612Y008853D02*
X029684Y008853D01*
X029684Y008755D02*
X027612Y008755D01*
X027612Y008656D02*
X029684Y008656D01*
X029684Y008558D02*
X027612Y008558D01*
X027612Y008459D02*
X029684Y008459D01*
X029684Y008361D02*
X027612Y008361D01*
X027612Y008262D02*
X029684Y008262D01*
X029684Y008163D02*
X027612Y008163D01*
X027612Y008065D02*
X029684Y008065D01*
X029684Y007966D02*
X027612Y007966D01*
X027612Y007868D02*
X029684Y007868D01*
X029684Y007769D02*
X027612Y007769D01*
X027612Y007671D02*
X029684Y007671D01*
X029684Y007572D02*
X027612Y007572D01*
X027612Y007474D02*
X029684Y007474D01*
X029684Y007375D02*
X027612Y007375D01*
X027612Y007277D02*
X029684Y007277D01*
X029684Y007178D02*
X027612Y007178D01*
X027612Y007079D02*
X029684Y007079D01*
X029684Y006981D02*
X027612Y006981D01*
X027612Y006882D02*
X029644Y006882D01*
X029545Y006784D02*
X027612Y006784D01*
X027612Y006685D02*
X029447Y006685D01*
X029348Y006587D02*
X027612Y006587D01*
X027612Y006488D02*
X028956Y006488D01*
X028857Y006390D02*
X027612Y006390D01*
X027612Y006291D02*
X028814Y006291D01*
X028794Y006193D02*
X027612Y006193D01*
X027612Y006094D02*
X028794Y006094D01*
X028832Y005995D02*
X027612Y005995D01*
X027612Y005897D02*
X028902Y005897D01*
X029056Y005798D02*
X027612Y005798D01*
X027612Y005700D02*
X029986Y005700D01*
X029986Y005798D02*
X029307Y005798D01*
X029461Y005897D02*
X029986Y005897D01*
X029986Y005995D02*
X029530Y005995D01*
X029569Y006094D02*
X030025Y006094D01*
X030123Y006193D02*
X029569Y006193D01*
X029561Y006291D02*
X030222Y006291D01*
X030279Y006390D02*
X029660Y006390D01*
X029758Y006488D02*
X030279Y006488D01*
X030279Y006587D02*
X029857Y006587D01*
X029956Y006685D02*
X030279Y006685D01*
X030279Y006784D02*
X030044Y006784D01*
X030044Y006882D02*
X030279Y006882D01*
X030279Y006981D02*
X030044Y006981D01*
X030044Y007079D02*
X030279Y007079D01*
X030279Y007178D02*
X030044Y007178D01*
X030044Y007277D02*
X030279Y007277D01*
X030279Y007375D02*
X030044Y007375D01*
X030044Y007474D02*
X030279Y007474D01*
X030279Y007572D02*
X030044Y007572D01*
X030044Y007671D02*
X030279Y007671D01*
X030279Y007769D02*
X030044Y007769D01*
X030044Y007868D02*
X030279Y007868D01*
X030279Y007966D02*
X030044Y007966D01*
X030044Y008065D02*
X030279Y008065D01*
X030279Y008163D02*
X030044Y008163D01*
X030044Y008262D02*
X030279Y008262D01*
X030279Y008361D02*
X030044Y008361D01*
X030044Y008459D02*
X030279Y008459D01*
X030279Y008558D02*
X030044Y008558D01*
X030044Y008656D02*
X030279Y008656D01*
X030279Y008755D02*
X030044Y008755D01*
X030044Y008853D02*
X030279Y008853D01*
X030193Y008952D02*
X030044Y008952D01*
X030044Y009050D02*
X030096Y009050D01*
X030055Y009149D02*
X030044Y009149D01*
X029684Y009149D02*
X028308Y009149D01*
X028331Y009247D02*
X029684Y009247D01*
X029684Y009346D02*
X028331Y009346D01*
X028303Y009444D02*
X029684Y009444D01*
X029684Y009543D02*
X028258Y009543D01*
X028159Y009642D02*
X029684Y009642D01*
X029684Y009740D02*
X027612Y009740D01*
X027612Y009642D02*
X027644Y009642D01*
X027612Y009839D02*
X029684Y009839D01*
X029684Y009937D02*
X027612Y009937D01*
X027612Y010036D02*
X029684Y010036D01*
X029684Y010134D02*
X027612Y010134D01*
X027612Y010233D02*
X029684Y010233D01*
X029684Y010331D02*
X027612Y010331D01*
X027612Y010430D02*
X029684Y010430D01*
X029684Y010528D02*
X027612Y010528D01*
X027612Y010627D02*
X029684Y010627D01*
X029684Y010726D02*
X028164Y010726D01*
X028262Y010824D02*
X029684Y010824D01*
X029684Y010923D02*
X028305Y010923D01*
X028331Y011021D02*
X029684Y011021D01*
X029684Y011120D02*
X028331Y011120D01*
X028306Y011218D02*
X029684Y011218D01*
X029684Y011317D02*
X028264Y011317D01*
X028166Y011415D02*
X029684Y011415D01*
X029684Y011514D02*
X027612Y011514D01*
X027612Y011612D02*
X029684Y011612D01*
X029684Y011711D02*
X027612Y011711D01*
X027612Y011810D02*
X029684Y011810D01*
X029684Y011908D02*
X027612Y011908D01*
X027612Y012007D02*
X029684Y012007D01*
X029684Y012105D02*
X027612Y012105D01*
X027612Y012204D02*
X029684Y012204D01*
X029684Y012302D02*
X027612Y012302D01*
X027612Y012401D02*
X029684Y012401D01*
X029684Y012499D02*
X027612Y012499D01*
X027612Y012598D02*
X029684Y012598D01*
X029684Y012696D02*
X027612Y012696D01*
X027612Y012795D02*
X029684Y012795D01*
X029684Y012894D02*
X027612Y012894D01*
X027612Y012992D02*
X029684Y012992D01*
X029684Y013091D02*
X027612Y013091D01*
X027612Y013189D02*
X029684Y013189D01*
X029684Y013288D02*
X029453Y013288D01*
X029593Y013386D02*
X029684Y013386D01*
X029684Y013485D02*
X029664Y013485D01*
X030044Y013485D02*
X030056Y013485D01*
X030044Y013513D02*
X030079Y013428D01*
X030206Y013302D01*
X030371Y013233D01*
X030411Y013233D01*
X030411Y013633D01*
X030511Y013633D01*
X030511Y013233D01*
X030550Y013233D01*
X030716Y013302D01*
X030731Y013318D01*
X030731Y013021D01*
X030704Y013048D01*
X030546Y013113D01*
X030375Y013113D01*
X030217Y013048D01*
X030096Y012927D01*
X030044Y012801D01*
X030044Y013513D01*
X030044Y013386D02*
X030122Y013386D01*
X030044Y013288D02*
X030240Y013288D01*
X030411Y013288D02*
X030511Y013288D01*
X030511Y013386D02*
X030411Y013386D01*
X030411Y013485D02*
X030511Y013485D01*
X030511Y013583D02*
X030411Y013583D01*
X030411Y013734D02*
X030411Y014133D01*
X030371Y014133D01*
X030221Y014071D01*
X030404Y014253D01*
X030546Y014253D01*
X030704Y014319D01*
X030731Y014346D01*
X030731Y014049D01*
X030716Y014065D01*
X030550Y014133D01*
X030511Y014133D01*
X030511Y013734D01*
X030411Y013734D01*
X030411Y013780D02*
X030511Y013780D01*
X030511Y013879D02*
X030411Y013879D01*
X030411Y013977D02*
X030511Y013977D01*
X030511Y014076D02*
X030411Y014076D01*
X030325Y014175D02*
X030731Y014175D01*
X030731Y014273D02*
X030594Y014273D01*
X030689Y014076D02*
X030731Y014076D01*
X030233Y014076D02*
X030226Y014076D01*
X030013Y014372D02*
X029606Y014372D01*
X029661Y014426D02*
X029730Y014592D01*
X029730Y014631D01*
X029330Y014631D01*
X029330Y014231D01*
X029369Y014231D01*
X029535Y014300D01*
X029661Y014426D01*
X029679Y014470D02*
X030084Y014470D01*
X030043Y014569D02*
X029720Y014569D01*
X029730Y014731D02*
X029730Y014771D01*
X029661Y014936D01*
X029535Y015063D01*
X029369Y015131D01*
X029330Y015131D01*
X029330Y014732D01*
X029230Y014732D01*
X029230Y015131D01*
X029190Y015131D01*
X029025Y015063D01*
X028898Y014936D01*
X028830Y014771D01*
X028830Y014731D01*
X029230Y014731D01*
X029230Y014631D01*
X029330Y014631D01*
X029330Y014731D01*
X029730Y014731D01*
X029730Y014766D02*
X030031Y014766D01*
X030031Y014667D02*
X029330Y014667D01*
X029280Y014681D02*
X028681Y014681D01*
X028181Y014181D01*
X028181Y012181D01*
X028681Y011681D01*
X028681Y008681D01*
X028197Y008197D01*
X028197Y004197D01*
X028168Y004222D02*
X027612Y004222D01*
X027612Y004320D02*
X027807Y004320D01*
X027790Y004278D02*
X027790Y004226D01*
X028168Y004226D01*
X028168Y004168D01*
X027790Y004168D01*
X027790Y004116D01*
X027852Y003966D01*
X027966Y003852D01*
X028116Y003790D01*
X028168Y003790D01*
X028168Y004168D01*
X028226Y004168D01*
X028226Y003790D01*
X028278Y003790D01*
X028428Y003852D01*
X028543Y003966D01*
X028605Y004116D01*
X028605Y004168D01*
X028226Y004168D01*
X028226Y004226D01*
X028168Y004226D01*
X028168Y004605D01*
X028116Y004605D01*
X027966Y004543D01*
X027852Y004428D01*
X027790Y004278D01*
X027848Y004419D02*
X027612Y004419D01*
X027612Y004517D02*
X027941Y004517D01*
X028168Y004517D02*
X028226Y004517D01*
X028226Y004605D02*
X028226Y004226D01*
X028605Y004226D01*
X028605Y004278D01*
X028543Y004428D01*
X028428Y004543D01*
X028278Y004605D01*
X028226Y004605D01*
X028226Y004419D02*
X028168Y004419D01*
X028168Y004320D02*
X028226Y004320D01*
X028226Y004222D02*
X029778Y004222D01*
X029778Y004123D02*
X028605Y004123D01*
X028567Y004025D02*
X029818Y004025D01*
X029889Y003926D02*
X028502Y003926D01*
X028369Y003828D02*
X030046Y003828D01*
X030286Y003828D02*
X030731Y003828D01*
X030731Y003926D02*
X030443Y003926D01*
X030514Y004025D02*
X030731Y004025D01*
X030731Y004123D02*
X030553Y004123D01*
X030553Y004222D02*
X030731Y004222D01*
X030731Y004320D02*
X030534Y004320D01*
X030492Y004419D02*
X030731Y004419D01*
X030731Y004517D02*
X030393Y004517D01*
X030346Y004616D02*
X030731Y004616D01*
X030731Y004714D02*
X030346Y004714D01*
X030346Y004813D02*
X030731Y004813D01*
X030731Y004911D02*
X030346Y004911D01*
X030346Y005010D02*
X030731Y005010D01*
X030731Y005109D02*
X030346Y005109D01*
X030346Y005207D02*
X030731Y005207D01*
X030731Y005306D02*
X030346Y005306D01*
X030346Y005404D02*
X030731Y005404D01*
X030731Y005503D02*
X030346Y005503D01*
X030346Y005601D02*
X030731Y005601D01*
X030731Y005700D02*
X030346Y005700D01*
X030346Y005798D02*
X030731Y005798D01*
X030731Y005897D02*
X030346Y005897D01*
X030435Y005995D02*
X030731Y005995D01*
X030534Y006094D02*
X030639Y006199D01*
X030639Y006291D02*
X030731Y006291D01*
X030731Y006390D02*
X030639Y006390D01*
X030639Y006488D02*
X030731Y006488D01*
X030731Y006587D02*
X030639Y006587D01*
X030639Y006685D02*
X030731Y006685D01*
X030731Y006784D02*
X030639Y006784D01*
X030639Y006882D02*
X030731Y006882D01*
X030731Y006981D02*
X030639Y006981D01*
X030639Y007079D02*
X030731Y007079D01*
X030731Y007178D02*
X030639Y007178D01*
X030639Y007277D02*
X030731Y007277D01*
X030731Y007375D02*
X030639Y007375D01*
X030639Y007474D02*
X030731Y007474D01*
X030731Y007572D02*
X030639Y007572D01*
X030639Y007671D02*
X030731Y007671D01*
X030731Y007769D02*
X030639Y007769D01*
X030639Y007868D02*
X030731Y007868D01*
X030731Y007966D02*
X030639Y007966D01*
X030639Y008065D02*
X030731Y008065D01*
X030731Y008163D02*
X030639Y008163D01*
X030639Y008262D02*
X030731Y008262D01*
X030731Y008361D02*
X030639Y008361D01*
X030639Y008459D02*
X030731Y008459D01*
X030731Y008558D02*
X030639Y008558D01*
X030639Y008656D02*
X030731Y008656D01*
X030731Y008755D02*
X030639Y008755D01*
X030639Y008853D02*
X030731Y008853D01*
X030730Y008952D02*
X030731Y008952D01*
X030459Y009289D02*
X030461Y009291D01*
X030459Y009289D02*
X030459Y006274D01*
X030166Y005981D01*
X030166Y004197D01*
X029797Y004320D02*
X028587Y004320D01*
X028546Y004419D02*
X029839Y004419D01*
X029938Y004517D02*
X028453Y004517D01*
X028226Y004123D02*
X028168Y004123D01*
X028168Y004025D02*
X028226Y004025D01*
X028226Y003926D02*
X028168Y003926D01*
X028168Y003828D02*
X028226Y003828D01*
X028025Y003828D02*
X027612Y003828D01*
X027612Y003926D02*
X027892Y003926D01*
X027828Y004025D02*
X027612Y004025D01*
X027612Y004123D02*
X027790Y004123D01*
X027612Y004616D02*
X029986Y004616D01*
X029986Y004714D02*
X027612Y004714D01*
X027612Y004813D02*
X029986Y004813D01*
X029986Y004911D02*
X027612Y004911D01*
X027612Y005010D02*
X029986Y005010D01*
X029986Y005109D02*
X027612Y005109D01*
X027612Y005207D02*
X029986Y005207D01*
X029986Y005306D02*
X027612Y005306D01*
X027612Y005404D02*
X029986Y005404D01*
X029986Y005503D02*
X027612Y005503D01*
X027612Y005601D02*
X029986Y005601D01*
X029181Y006166D02*
X029864Y006849D01*
X029864Y013969D01*
X030461Y014565D01*
X030461Y014683D01*
X030071Y014864D02*
X029691Y014864D01*
X029635Y014963D02*
X030132Y014963D01*
X030250Y015061D02*
X029536Y015061D01*
X029330Y015061D02*
X029230Y015061D01*
X029230Y014963D02*
X029330Y014963D01*
X029330Y014864D02*
X029230Y014864D01*
X029230Y014766D02*
X029330Y014766D01*
X029230Y014667D02*
X027612Y014667D01*
X027612Y014569D02*
X028839Y014569D01*
X028830Y014592D02*
X028898Y014426D01*
X029025Y014300D01*
X029190Y014231D01*
X029230Y014231D01*
X029230Y014631D01*
X028830Y014631D01*
X028830Y014592D01*
X028880Y014470D02*
X027612Y014470D01*
X027612Y014372D02*
X028953Y014372D01*
X029090Y014273D02*
X027612Y014273D01*
X027612Y014175D02*
X029816Y014175D01*
X029914Y014273D02*
X029470Y014273D01*
X029330Y014273D02*
X029230Y014273D01*
X029230Y014372D02*
X029330Y014372D01*
X029330Y014470D02*
X029230Y014470D01*
X029230Y014569D02*
X029330Y014569D01*
X028830Y014766D02*
X027612Y014766D01*
X027612Y014864D02*
X028869Y014864D01*
X028925Y014963D02*
X027612Y014963D01*
X027612Y015061D02*
X029024Y015061D01*
X029177Y015259D02*
X027612Y015259D01*
X027612Y015357D02*
X028996Y015357D01*
X028908Y015456D02*
X027612Y015456D01*
X027612Y015554D02*
X028867Y015554D01*
X028850Y015653D02*
X027612Y015653D01*
X027612Y015751D02*
X028850Y015751D01*
X028884Y015850D02*
X027612Y015850D01*
X027612Y015948D02*
X028939Y015948D01*
X029039Y016047D02*
X027612Y016047D01*
X027612Y016145D02*
X029367Y016145D01*
X029466Y016244D02*
X027612Y016244D01*
X027612Y016343D02*
X028850Y016343D01*
X028850Y016441D02*
X027612Y016441D01*
X027612Y016540D02*
X028850Y016540D01*
X028850Y016638D02*
X027612Y016638D01*
X027612Y016737D02*
X028850Y016737D01*
X028850Y016835D02*
X027612Y016835D01*
X027612Y016934D02*
X028850Y016934D01*
X028850Y017032D02*
X027612Y017032D01*
X027612Y017131D02*
X029100Y017131D01*
X029100Y017229D02*
X027612Y017229D01*
X027612Y017328D02*
X029100Y017328D01*
X029100Y017426D02*
X027612Y017426D01*
X027612Y017525D02*
X029100Y017525D01*
X029147Y017624D02*
X027612Y017624D01*
X027612Y017722D02*
X029245Y017722D01*
X029344Y017821D02*
X027612Y017821D01*
X027612Y017919D02*
X029442Y017919D01*
X029541Y018018D02*
X027612Y018018D01*
X027612Y018116D02*
X029639Y018116D01*
X029738Y018215D02*
X027612Y018215D01*
X027612Y018313D02*
X029836Y018313D01*
X029935Y018412D02*
X027612Y018412D01*
X027612Y018510D02*
X030034Y018510D01*
X030031Y018609D02*
X027612Y018609D01*
X027612Y018708D02*
X030031Y018708D01*
X030046Y018806D02*
X027612Y018806D01*
X027612Y018905D02*
X030087Y018905D01*
X030173Y019003D02*
X027612Y019003D01*
X027612Y019102D02*
X030347Y019102D01*
X030575Y019102D02*
X030731Y019102D01*
X030461Y018683D02*
X029280Y017502D01*
X029280Y016681D01*
X029882Y016406D02*
X029882Y017105D01*
X030461Y017683D01*
X030096Y016441D02*
X030062Y016441D01*
X030062Y016343D02*
X030194Y016343D01*
X029975Y016244D02*
X030731Y016244D01*
X030728Y016343D02*
X030731Y016343D01*
X030731Y016145D02*
X029876Y016145D01*
X029778Y016047D02*
X030216Y016047D01*
X030118Y015948D02*
X029679Y015948D01*
X029675Y015850D02*
X030064Y015850D01*
X030031Y015751D02*
X029710Y015751D01*
X029710Y015653D02*
X030031Y015653D01*
X030049Y015554D02*
X029693Y015554D01*
X029652Y015456D02*
X030090Y015456D01*
X030179Y015357D02*
X029564Y015357D01*
X029383Y015259D02*
X030363Y015259D01*
X030473Y015160D02*
X027612Y015160D01*
X026431Y014927D02*
X026431Y011567D01*
X025961Y011071D01*
X027612Y011415D02*
X027637Y011415D01*
X027612Y010726D02*
X027639Y010726D01*
X028267Y009050D02*
X029684Y009050D01*
X029684Y008952D02*
X028170Y008952D01*
X030461Y011071D02*
X030931Y011567D01*
X030931Y014927D01*
X030461Y015439D01*
X030461Y015683D01*
X030705Y016047D02*
X030731Y016047D01*
X029882Y016406D02*
X029280Y015803D01*
X029280Y015681D01*
X029451Y014076D02*
X029717Y014076D01*
X029684Y013977D02*
X029592Y013977D01*
X029663Y013879D02*
X029684Y013879D01*
X029109Y014076D02*
X027612Y014076D01*
X027612Y013977D02*
X028968Y013977D01*
X028896Y013879D02*
X027612Y013879D01*
X027612Y013780D02*
X028855Y013780D01*
X028850Y013682D02*
X027612Y013682D01*
X027612Y013583D02*
X028855Y013583D01*
X028896Y013485D02*
X027612Y013485D01*
X027612Y013386D02*
X028967Y013386D01*
X029107Y013288D02*
X027612Y013288D01*
X026231Y013288D02*
X026181Y013288D01*
X026216Y013302D02*
X026231Y013318D01*
X026231Y013021D01*
X026204Y013048D01*
X026046Y013113D01*
X025875Y013113D01*
X025717Y013048D01*
X025596Y012927D01*
X025544Y012801D01*
X025544Y013513D01*
X025579Y013428D01*
X025706Y013302D01*
X025871Y013233D01*
X025911Y013233D01*
X025911Y013633D01*
X026011Y013633D01*
X026011Y013233D01*
X026050Y013233D01*
X026216Y013302D01*
X026231Y013189D02*
X025544Y013189D01*
X025544Y013091D02*
X025820Y013091D01*
X025662Y012992D02*
X025544Y012992D01*
X025544Y012894D02*
X025583Y012894D01*
X025544Y013288D02*
X025740Y013288D01*
X025622Y013386D02*
X025544Y013386D01*
X025544Y013485D02*
X025556Y013485D01*
X025911Y013485D02*
X026011Y013485D01*
X026011Y013583D02*
X025911Y013583D01*
X025911Y013734D02*
X025911Y014133D01*
X025871Y014133D01*
X025721Y014071D01*
X025904Y014253D01*
X026046Y014253D01*
X026204Y014319D01*
X026231Y014346D01*
X026231Y014049D01*
X026216Y014065D01*
X026050Y014133D01*
X026011Y014133D01*
X026011Y013734D01*
X025911Y013734D01*
X025911Y013780D02*
X026011Y013780D01*
X026011Y013879D02*
X025911Y013879D01*
X025911Y013977D02*
X026011Y013977D01*
X026011Y014076D02*
X025911Y014076D01*
X025825Y014175D02*
X026231Y014175D01*
X026231Y014273D02*
X026094Y014273D01*
X026189Y014076D02*
X026231Y014076D01*
X025733Y014076D02*
X025726Y014076D01*
X025364Y013969D02*
X025961Y014565D01*
X025961Y014683D01*
X026431Y014927D02*
X025961Y015439D01*
X025961Y015683D01*
X026228Y016343D02*
X026231Y016343D01*
X026231Y019102D02*
X026075Y019102D01*
X032112Y019102D02*
X034847Y019102D01*
X034875Y019113D02*
X034717Y019048D01*
X034596Y018927D01*
X034531Y018769D01*
X034531Y018598D01*
X034557Y018534D01*
X033600Y017577D01*
X033600Y017428D01*
X033600Y017111D01*
X033426Y017111D01*
X033350Y017035D01*
X033350Y016328D01*
X033426Y016251D01*
X033973Y016251D01*
X033833Y016111D01*
X033694Y016111D01*
X033536Y016046D01*
X033415Y015925D01*
X033350Y015767D01*
X033350Y015596D01*
X033415Y015438D01*
X033536Y015317D01*
X033694Y015251D01*
X033865Y015251D01*
X034023Y015317D01*
X034144Y015438D01*
X034210Y015596D01*
X034210Y015767D01*
X034148Y015917D01*
X034457Y016226D01*
X034562Y016331D01*
X034562Y016523D01*
X034596Y016440D01*
X034717Y016319D01*
X034875Y016253D01*
X035046Y016253D01*
X035204Y016319D01*
X035231Y016346D01*
X035231Y016021D01*
X035204Y016048D01*
X035046Y016113D01*
X034875Y016113D01*
X034717Y016048D01*
X034596Y015927D01*
X034531Y015769D01*
X034531Y015598D01*
X034596Y015440D01*
X034717Y015319D01*
X034875Y015253D01*
X034887Y015253D01*
X035016Y015113D01*
X034875Y015113D01*
X034717Y015048D01*
X034596Y014927D01*
X034531Y014769D01*
X034531Y014598D01*
X034592Y014451D01*
X034290Y014149D01*
X034184Y014043D01*
X034184Y013828D01*
X034144Y013925D01*
X034023Y014046D01*
X033865Y014111D01*
X033694Y014111D01*
X033536Y014046D01*
X033415Y013925D01*
X033350Y013767D01*
X033350Y013596D01*
X033415Y013438D01*
X033536Y013317D01*
X033694Y013251D01*
X033865Y013251D01*
X034023Y013317D01*
X034144Y013438D01*
X034184Y013535D01*
X034184Y006923D01*
X033798Y006537D01*
X033758Y006553D01*
X033604Y006553D01*
X033462Y006494D01*
X033353Y006385D01*
X033294Y006243D01*
X033294Y006089D01*
X033353Y005946D01*
X033462Y005837D01*
X033604Y005778D01*
X033758Y005778D01*
X033901Y005837D01*
X034010Y005946D01*
X034069Y006089D01*
X034069Y006243D01*
X034052Y006282D01*
X034544Y006774D01*
X034544Y006923D01*
X034544Y009174D01*
X034597Y009048D01*
X034718Y008927D01*
X034779Y008902D01*
X034779Y006348D01*
X034486Y006055D01*
X034486Y005906D01*
X034486Y004542D01*
X034446Y004526D01*
X034337Y004417D01*
X034278Y004274D01*
X034278Y004120D01*
X034337Y003978D01*
X034446Y003869D01*
X034589Y003810D01*
X034743Y003810D01*
X034885Y003869D01*
X034994Y003978D01*
X035053Y004120D01*
X035053Y004274D01*
X034994Y004417D01*
X034885Y004526D01*
X034846Y004542D01*
X034846Y005906D01*
X035034Y006094D01*
X035231Y006094D01*
X035231Y006193D02*
X035132Y006193D01*
X035139Y006199D02*
X035139Y008900D01*
X035205Y008927D01*
X035231Y008953D01*
X035231Y003181D01*
X032112Y003181D01*
X032112Y008973D01*
X032158Y008927D01*
X032316Y008861D01*
X032487Y008861D01*
X032645Y008927D01*
X032766Y009048D01*
X032831Y009206D01*
X032831Y009377D01*
X032766Y009535D01*
X032645Y009656D01*
X032487Y009721D01*
X032316Y009721D01*
X032158Y009656D01*
X032112Y009610D01*
X032112Y010753D01*
X032158Y010707D01*
X032316Y010641D01*
X032487Y010641D01*
X032645Y010707D01*
X032766Y010828D01*
X032831Y010986D01*
X032831Y011157D01*
X032766Y011315D01*
X032645Y011436D01*
X032487Y011501D01*
X032316Y011501D01*
X032158Y011436D01*
X032112Y011390D01*
X032112Y019181D01*
X035231Y019181D01*
X035231Y019021D01*
X035204Y019048D01*
X035046Y019113D01*
X034875Y019113D01*
X035075Y019102D02*
X035231Y019102D01*
X034961Y018683D02*
X033780Y017502D01*
X033780Y016681D01*
X033350Y016638D02*
X032112Y016638D01*
X032112Y016540D02*
X033350Y016540D01*
X033350Y016441D02*
X032112Y016441D01*
X032112Y016343D02*
X033350Y016343D01*
X033539Y016047D02*
X032112Y016047D01*
X032112Y016145D02*
X033867Y016145D01*
X033966Y016244D02*
X032112Y016244D01*
X032112Y015948D02*
X033439Y015948D01*
X033384Y015850D02*
X032112Y015850D01*
X032112Y015751D02*
X033350Y015751D01*
X033350Y015653D02*
X032112Y015653D01*
X032112Y015554D02*
X033367Y015554D01*
X033408Y015456D02*
X032112Y015456D01*
X032112Y015357D02*
X033496Y015357D01*
X033677Y015259D02*
X032112Y015259D01*
X032112Y015160D02*
X034973Y015160D01*
X034863Y015259D02*
X033883Y015259D01*
X033869Y015131D02*
X033830Y015131D01*
X033830Y014732D01*
X033730Y014732D01*
X033730Y015131D01*
X033690Y015131D01*
X033525Y015063D01*
X033398Y014936D01*
X033330Y014771D01*
X033330Y014731D01*
X033730Y014731D01*
X033730Y014631D01*
X033830Y014631D01*
X033830Y014231D01*
X033869Y014231D01*
X034035Y014300D01*
X034161Y014426D01*
X034230Y014592D01*
X034230Y014631D01*
X033830Y014631D01*
X033830Y014731D01*
X034230Y014731D01*
X034230Y014771D01*
X034161Y014936D01*
X034035Y015063D01*
X033869Y015131D01*
X033830Y015061D02*
X033730Y015061D01*
X033730Y014963D02*
X033830Y014963D01*
X033830Y014864D02*
X033730Y014864D01*
X033730Y014766D02*
X033830Y014766D01*
X033780Y014681D02*
X033181Y014681D01*
X032681Y014181D01*
X032681Y012181D01*
X033181Y011681D01*
X033181Y008681D01*
X032697Y008197D01*
X032697Y004197D01*
X032668Y004222D02*
X032112Y004222D01*
X032112Y004320D02*
X032307Y004320D01*
X032290Y004278D02*
X032352Y004428D01*
X032466Y004543D01*
X032616Y004605D01*
X032668Y004605D01*
X032668Y004226D01*
X032668Y004168D01*
X032290Y004168D01*
X032290Y004116D01*
X032352Y003966D01*
X032466Y003852D01*
X032616Y003790D01*
X032668Y003790D01*
X032668Y004168D01*
X032726Y004168D01*
X032726Y003790D01*
X032778Y003790D01*
X032928Y003852D01*
X033043Y003966D01*
X033105Y004116D01*
X033105Y004168D01*
X032726Y004168D01*
X032726Y004226D01*
X032668Y004226D01*
X032290Y004226D01*
X032290Y004278D01*
X032348Y004419D02*
X032112Y004419D01*
X032112Y004517D02*
X032441Y004517D01*
X032668Y004517D02*
X032726Y004517D01*
X032726Y004605D02*
X032726Y004226D01*
X033105Y004226D01*
X033105Y004278D01*
X033043Y004428D01*
X032928Y004543D01*
X032778Y004605D01*
X032726Y004605D01*
X032726Y004419D02*
X032668Y004419D01*
X032668Y004320D02*
X032726Y004320D01*
X032726Y004222D02*
X034278Y004222D01*
X034278Y004123D02*
X033105Y004123D01*
X033067Y004025D02*
X034318Y004025D01*
X034389Y003926D02*
X033002Y003926D01*
X032869Y003828D02*
X034546Y003828D01*
X034786Y003828D02*
X035231Y003828D01*
X035231Y003926D02*
X034943Y003926D01*
X035014Y004025D02*
X035231Y004025D01*
X035231Y004123D02*
X035053Y004123D01*
X035053Y004222D02*
X035231Y004222D01*
X035231Y004320D02*
X035034Y004320D01*
X034992Y004419D02*
X035231Y004419D01*
X035231Y004517D02*
X034893Y004517D01*
X034846Y004616D02*
X035231Y004616D01*
X035231Y004714D02*
X034846Y004714D01*
X034846Y004813D02*
X035231Y004813D01*
X035231Y004911D02*
X034846Y004911D01*
X034846Y005010D02*
X035231Y005010D01*
X035231Y005109D02*
X034846Y005109D01*
X034846Y005207D02*
X035231Y005207D01*
X035231Y005306D02*
X034846Y005306D01*
X034846Y005404D02*
X035231Y005404D01*
X035231Y005503D02*
X034846Y005503D01*
X034846Y005601D02*
X035231Y005601D01*
X035231Y005700D02*
X034846Y005700D01*
X034846Y005798D02*
X035231Y005798D01*
X035231Y005897D02*
X034846Y005897D01*
X034935Y005995D02*
X035231Y005995D01*
X035034Y006094D02*
X035139Y006199D01*
X035139Y006291D02*
X035231Y006291D01*
X035231Y006390D02*
X035139Y006390D01*
X035139Y006488D02*
X035231Y006488D01*
X035231Y006587D02*
X035139Y006587D01*
X035139Y006685D02*
X035231Y006685D01*
X035231Y006784D02*
X035139Y006784D01*
X035139Y006882D02*
X035231Y006882D01*
X035231Y006981D02*
X035139Y006981D01*
X035139Y007079D02*
X035231Y007079D01*
X035231Y007178D02*
X035139Y007178D01*
X035139Y007277D02*
X035231Y007277D01*
X035231Y007375D02*
X035139Y007375D01*
X035139Y007474D02*
X035231Y007474D01*
X035231Y007572D02*
X035139Y007572D01*
X035139Y007671D02*
X035231Y007671D01*
X035231Y007769D02*
X035139Y007769D01*
X035139Y007868D02*
X035231Y007868D01*
X035231Y007966D02*
X035139Y007966D01*
X035139Y008065D02*
X035231Y008065D01*
X035231Y008163D02*
X035139Y008163D01*
X035139Y008262D02*
X035231Y008262D01*
X035231Y008361D02*
X035139Y008361D01*
X035139Y008459D02*
X035231Y008459D01*
X035231Y008558D02*
X035139Y008558D01*
X035139Y008656D02*
X035231Y008656D01*
X035231Y008755D02*
X035139Y008755D01*
X035139Y008853D02*
X035231Y008853D01*
X035230Y008952D02*
X035231Y008952D01*
X034959Y009289D02*
X034961Y009291D01*
X034959Y009289D02*
X034959Y006274D01*
X034666Y005981D01*
X034666Y004197D01*
X034297Y004320D02*
X033087Y004320D01*
X033046Y004419D02*
X034339Y004419D01*
X034438Y004517D02*
X032953Y004517D01*
X032726Y004123D02*
X032668Y004123D01*
X032668Y004025D02*
X032726Y004025D01*
X032726Y003926D02*
X032668Y003926D01*
X032668Y003828D02*
X032726Y003828D01*
X032525Y003828D02*
X032112Y003828D01*
X032112Y003926D02*
X032392Y003926D01*
X032328Y004025D02*
X032112Y004025D01*
X032112Y004123D02*
X032290Y004123D01*
X032112Y004616D02*
X034486Y004616D01*
X034486Y004714D02*
X032112Y004714D01*
X032112Y004813D02*
X034486Y004813D01*
X034486Y004911D02*
X032112Y004911D01*
X032112Y005010D02*
X034486Y005010D01*
X034486Y005109D02*
X032112Y005109D01*
X032112Y005207D02*
X034486Y005207D01*
X034486Y005306D02*
X032112Y005306D01*
X032112Y005404D02*
X034486Y005404D01*
X034486Y005503D02*
X032112Y005503D01*
X032112Y005601D02*
X034486Y005601D01*
X034486Y005700D02*
X032112Y005700D01*
X032112Y005798D02*
X033556Y005798D01*
X033402Y005897D02*
X032112Y005897D01*
X032112Y005995D02*
X033332Y005995D01*
X033294Y006094D02*
X032112Y006094D01*
X032112Y006193D02*
X033294Y006193D01*
X033314Y006291D02*
X032112Y006291D01*
X032112Y006390D02*
X033357Y006390D01*
X033456Y006488D02*
X032112Y006488D01*
X032112Y006587D02*
X033848Y006587D01*
X033946Y006685D02*
X032112Y006685D01*
X032112Y006784D02*
X034045Y006784D01*
X034144Y006882D02*
X032112Y006882D01*
X032112Y006981D02*
X034184Y006981D01*
X034184Y007079D02*
X032112Y007079D01*
X032112Y007178D02*
X034184Y007178D01*
X034184Y007277D02*
X032112Y007277D01*
X032112Y007375D02*
X034184Y007375D01*
X034184Y007474D02*
X032112Y007474D01*
X032112Y007572D02*
X034184Y007572D01*
X034184Y007671D02*
X032112Y007671D01*
X032112Y007769D02*
X034184Y007769D01*
X034184Y007868D02*
X032112Y007868D01*
X032112Y007966D02*
X034184Y007966D01*
X034184Y008065D02*
X032112Y008065D01*
X032112Y008163D02*
X034184Y008163D01*
X034184Y008262D02*
X032112Y008262D01*
X032112Y008361D02*
X034184Y008361D01*
X034184Y008459D02*
X032112Y008459D01*
X032112Y008558D02*
X034184Y008558D01*
X034184Y008656D02*
X032112Y008656D01*
X032112Y008755D02*
X034184Y008755D01*
X034184Y008853D02*
X032112Y008853D01*
X032112Y008952D02*
X032133Y008952D01*
X032670Y008952D02*
X034184Y008952D01*
X034184Y009050D02*
X032767Y009050D01*
X032808Y009149D02*
X034184Y009149D01*
X034184Y009247D02*
X032831Y009247D01*
X032831Y009346D02*
X034184Y009346D01*
X034184Y009444D02*
X032803Y009444D01*
X032758Y009543D02*
X034184Y009543D01*
X034184Y009642D02*
X032659Y009642D01*
X032144Y009642D02*
X032112Y009642D01*
X032112Y009740D02*
X034184Y009740D01*
X034184Y009839D02*
X032112Y009839D01*
X032112Y009937D02*
X034184Y009937D01*
X034184Y010036D02*
X032112Y010036D01*
X032112Y010134D02*
X034184Y010134D01*
X034184Y010233D02*
X032112Y010233D01*
X032112Y010331D02*
X034184Y010331D01*
X034184Y010430D02*
X032112Y010430D01*
X032112Y010528D02*
X034184Y010528D01*
X034184Y010627D02*
X032112Y010627D01*
X032112Y010726D02*
X032139Y010726D01*
X032664Y010726D02*
X034184Y010726D01*
X034184Y010824D02*
X032762Y010824D01*
X032805Y010923D02*
X034184Y010923D01*
X034184Y011021D02*
X032831Y011021D01*
X032831Y011120D02*
X034184Y011120D01*
X034184Y011218D02*
X032806Y011218D01*
X032764Y011317D02*
X034184Y011317D01*
X034184Y011415D02*
X032666Y011415D01*
X032137Y011415D02*
X032112Y011415D01*
X032112Y011514D02*
X034184Y011514D01*
X034184Y011612D02*
X032112Y011612D01*
X032112Y011711D02*
X034184Y011711D01*
X034184Y011810D02*
X032112Y011810D01*
X032112Y011908D02*
X034184Y011908D01*
X034184Y012007D02*
X032112Y012007D01*
X032112Y012105D02*
X034184Y012105D01*
X034184Y012204D02*
X032112Y012204D01*
X032112Y012302D02*
X034184Y012302D01*
X034184Y012401D02*
X032112Y012401D01*
X032112Y012499D02*
X034184Y012499D01*
X034184Y012598D02*
X032112Y012598D01*
X032112Y012696D02*
X034184Y012696D01*
X034184Y012795D02*
X032112Y012795D01*
X032112Y012894D02*
X034184Y012894D01*
X034184Y012992D02*
X032112Y012992D01*
X032112Y013091D02*
X034184Y013091D01*
X034184Y013189D02*
X032112Y013189D01*
X032112Y013288D02*
X033607Y013288D01*
X033467Y013386D02*
X032112Y013386D01*
X032112Y013485D02*
X033396Y013485D01*
X033355Y013583D02*
X032112Y013583D01*
X032112Y013682D02*
X033350Y013682D01*
X033355Y013780D02*
X032112Y013780D01*
X032112Y013879D02*
X033396Y013879D01*
X033468Y013977D02*
X032112Y013977D01*
X032112Y014076D02*
X033609Y014076D01*
X033690Y014231D02*
X033730Y014231D01*
X033730Y014631D01*
X033330Y014631D01*
X033330Y014592D01*
X033398Y014426D01*
X033525Y014300D01*
X033690Y014231D01*
X033730Y014273D02*
X033830Y014273D01*
X033830Y014372D02*
X033730Y014372D01*
X033730Y014470D02*
X033830Y014470D01*
X033830Y014569D02*
X033730Y014569D01*
X033730Y014667D02*
X032112Y014667D01*
X032112Y014569D02*
X033339Y014569D01*
X033380Y014470D02*
X032112Y014470D01*
X032112Y014372D02*
X033453Y014372D01*
X033590Y014273D02*
X032112Y014273D01*
X032112Y014175D02*
X034316Y014175D01*
X034414Y014273D02*
X033970Y014273D01*
X034106Y014372D02*
X034513Y014372D01*
X034584Y014470D02*
X034179Y014470D01*
X034220Y014569D02*
X034543Y014569D01*
X034531Y014667D02*
X033830Y014667D01*
X034191Y014864D02*
X034571Y014864D01*
X034531Y014766D02*
X034230Y014766D01*
X034135Y014963D02*
X034632Y014963D01*
X034750Y015061D02*
X034036Y015061D01*
X034064Y015357D02*
X034679Y015357D01*
X034590Y015456D02*
X034152Y015456D01*
X034193Y015554D02*
X034549Y015554D01*
X034531Y015653D02*
X034210Y015653D01*
X034210Y015751D02*
X034531Y015751D01*
X034564Y015850D02*
X034175Y015850D01*
X034179Y015948D02*
X034618Y015948D01*
X034716Y016047D02*
X034278Y016047D01*
X034376Y016145D02*
X035231Y016145D01*
X035231Y016047D02*
X035205Y016047D01*
X035231Y016244D02*
X034475Y016244D01*
X034562Y016343D02*
X034694Y016343D01*
X034596Y016441D02*
X034562Y016441D01*
X034382Y016406D02*
X034382Y017105D01*
X034961Y017683D01*
X034336Y018313D02*
X032112Y018313D01*
X032112Y018215D02*
X034238Y018215D01*
X034139Y018116D02*
X032112Y018116D01*
X032112Y018018D02*
X034041Y018018D01*
X033942Y017919D02*
X032112Y017919D01*
X032112Y017821D02*
X033844Y017821D01*
X033745Y017722D02*
X032112Y017722D01*
X032112Y017624D02*
X033647Y017624D01*
X033600Y017525D02*
X032112Y017525D01*
X032112Y017426D02*
X033600Y017426D01*
X033600Y017328D02*
X032112Y017328D01*
X032112Y017229D02*
X033600Y017229D01*
X033600Y017131D02*
X032112Y017131D01*
X032112Y017032D02*
X033350Y017032D01*
X033350Y016934D02*
X032112Y016934D01*
X032112Y016835D02*
X033350Y016835D01*
X033350Y016737D02*
X032112Y016737D01*
X033780Y015803D02*
X034382Y016406D01*
X035228Y016343D02*
X035231Y016343D01*
X034961Y015683D02*
X034961Y015439D01*
X035431Y014927D01*
X035431Y011567D01*
X034961Y011071D01*
X036612Y010753D02*
X036658Y010707D01*
X036816Y010641D01*
X036987Y010641D01*
X037145Y010707D01*
X037266Y010828D01*
X037331Y010986D01*
X037331Y011157D01*
X037266Y011315D01*
X037145Y011436D01*
X036987Y011501D01*
X036816Y011501D01*
X036658Y011436D01*
X036612Y011390D01*
X036612Y019181D01*
X039731Y019181D01*
X039731Y019021D01*
X039704Y019048D01*
X039546Y019113D01*
X039375Y019113D01*
X039217Y019048D01*
X039096Y018927D01*
X039031Y018769D01*
X039031Y018598D01*
X039057Y018534D01*
X038100Y017577D01*
X038100Y017428D01*
X038100Y017111D01*
X037926Y017111D01*
X037850Y017035D01*
X037850Y016328D01*
X037926Y016251D01*
X038473Y016251D01*
X038333Y016111D01*
X038194Y016111D01*
X038036Y016046D01*
X037915Y015925D01*
X037850Y015767D01*
X037850Y015596D01*
X037915Y015438D01*
X038036Y015317D01*
X038194Y015251D01*
X038365Y015251D01*
X038523Y015317D01*
X038644Y015438D01*
X038710Y015596D01*
X038710Y015767D01*
X038648Y015917D01*
X038957Y016226D01*
X039062Y016331D01*
X039062Y016523D01*
X039096Y016440D01*
X039217Y016319D01*
X039375Y016253D01*
X039546Y016253D01*
X039704Y016319D01*
X039731Y016346D01*
X039731Y016021D01*
X039704Y016048D01*
X039546Y016113D01*
X039375Y016113D01*
X039217Y016048D01*
X039096Y015927D01*
X039031Y015769D01*
X039031Y015598D01*
X039096Y015440D01*
X039217Y015319D01*
X039375Y015253D01*
X039387Y015253D01*
X039516Y015113D01*
X039375Y015113D01*
X039217Y015048D01*
X039096Y014927D01*
X039031Y014769D01*
X039031Y014598D01*
X039092Y014451D01*
X038790Y014149D01*
X038684Y014043D01*
X038684Y013828D01*
X038644Y013925D01*
X038523Y014046D01*
X038365Y014111D01*
X038194Y014111D01*
X038036Y014046D01*
X037915Y013925D01*
X037850Y013767D01*
X037850Y013596D01*
X037915Y013438D01*
X038036Y013317D01*
X038194Y013251D01*
X038365Y013251D01*
X038523Y013317D01*
X038644Y013438D01*
X038684Y013535D01*
X038684Y006923D01*
X038298Y006537D01*
X038258Y006553D01*
X038104Y006553D01*
X037962Y006494D01*
X037853Y006385D01*
X037794Y006243D01*
X037794Y006089D01*
X037853Y005946D01*
X037962Y005837D01*
X038104Y005778D01*
X038258Y005778D01*
X038401Y005837D01*
X038510Y005946D01*
X038569Y006089D01*
X038569Y006243D01*
X038552Y006282D01*
X039044Y006774D01*
X039044Y006923D01*
X039044Y009175D01*
X039097Y009048D01*
X039218Y008927D01*
X039279Y008902D01*
X039279Y006348D01*
X038986Y006055D01*
X038986Y005906D01*
X038986Y004542D01*
X038946Y004526D01*
X038837Y004417D01*
X038778Y004274D01*
X038778Y004120D01*
X038837Y003978D01*
X038946Y003869D01*
X039089Y003810D01*
X039243Y003810D01*
X039385Y003869D01*
X039494Y003978D01*
X039553Y004120D01*
X039553Y004274D01*
X039494Y004417D01*
X039385Y004526D01*
X039346Y004542D01*
X039346Y005906D01*
X039534Y006094D01*
X039731Y006094D01*
X039731Y006193D02*
X039632Y006193D01*
X039639Y006199D02*
X039639Y008900D01*
X039705Y008927D01*
X039731Y008953D01*
X039731Y003181D01*
X036612Y003181D01*
X036612Y008973D01*
X036658Y008927D01*
X036816Y008861D01*
X036987Y008861D01*
X037145Y008927D01*
X037266Y009048D01*
X037331Y009206D01*
X037331Y009377D01*
X037266Y009535D01*
X037145Y009656D01*
X036987Y009721D01*
X036816Y009721D01*
X036658Y009656D01*
X036612Y009610D01*
X036612Y010753D01*
X036612Y010726D02*
X036639Y010726D01*
X036612Y010627D02*
X038684Y010627D01*
X038684Y010528D02*
X036612Y010528D01*
X036612Y010430D02*
X038684Y010430D01*
X038684Y010331D02*
X036612Y010331D01*
X036612Y010233D02*
X038684Y010233D01*
X038684Y010134D02*
X036612Y010134D01*
X036612Y010036D02*
X038684Y010036D01*
X038684Y009937D02*
X036612Y009937D01*
X036612Y009839D02*
X038684Y009839D01*
X038684Y009740D02*
X036612Y009740D01*
X036612Y009642D02*
X036644Y009642D01*
X037159Y009642D02*
X038684Y009642D01*
X038684Y009543D02*
X037258Y009543D01*
X037303Y009444D02*
X038684Y009444D01*
X038684Y009346D02*
X037331Y009346D01*
X037331Y009247D02*
X038684Y009247D01*
X038684Y009149D02*
X037308Y009149D01*
X037267Y009050D02*
X038684Y009050D01*
X038684Y008952D02*
X037170Y008952D01*
X037681Y008681D02*
X037681Y011681D01*
X037181Y012181D01*
X037181Y014181D01*
X037681Y014681D01*
X038280Y014681D01*
X038330Y014667D02*
X039031Y014667D01*
X039031Y014766D02*
X038730Y014766D01*
X038730Y014771D02*
X038661Y014936D01*
X038535Y015063D01*
X038369Y015131D01*
X038330Y015131D01*
X038330Y014732D01*
X038230Y014732D01*
X038230Y015131D01*
X038190Y015131D01*
X038025Y015063D01*
X037898Y014936D01*
X037830Y014771D01*
X037830Y014731D01*
X038230Y014731D01*
X038230Y014631D01*
X038330Y014631D01*
X038330Y014231D01*
X038369Y014231D01*
X038535Y014300D01*
X038661Y014426D01*
X038730Y014592D01*
X038730Y014631D01*
X038330Y014631D01*
X038330Y014731D01*
X038730Y014731D01*
X038730Y014771D01*
X038691Y014864D02*
X039071Y014864D01*
X039132Y014963D02*
X038635Y014963D01*
X038536Y015061D02*
X039250Y015061D01*
X039363Y015259D02*
X038383Y015259D01*
X038330Y015061D02*
X038230Y015061D01*
X038230Y014963D02*
X038330Y014963D01*
X038330Y014864D02*
X038230Y014864D01*
X038230Y014766D02*
X038330Y014766D01*
X038230Y014667D02*
X036612Y014667D01*
X036612Y014569D02*
X037839Y014569D01*
X037830Y014592D02*
X037898Y014426D01*
X038025Y014300D01*
X038190Y014231D01*
X038230Y014231D01*
X038230Y014631D01*
X037830Y014631D01*
X037830Y014592D01*
X037880Y014470D02*
X036612Y014470D01*
X036612Y014372D02*
X037953Y014372D01*
X038090Y014273D02*
X036612Y014273D01*
X036612Y014175D02*
X038816Y014175D01*
X038790Y014149D02*
X038790Y014149D01*
X038717Y014076D02*
X038451Y014076D01*
X038592Y013977D02*
X038684Y013977D01*
X038684Y013879D02*
X038663Y013879D01*
X038864Y013969D02*
X038864Y006849D01*
X038181Y006166D01*
X037902Y005897D02*
X036612Y005897D01*
X036612Y005995D02*
X037832Y005995D01*
X037794Y006094D02*
X036612Y006094D01*
X036612Y006193D02*
X037794Y006193D01*
X037814Y006291D02*
X036612Y006291D01*
X036612Y006390D02*
X037857Y006390D01*
X037956Y006488D02*
X036612Y006488D01*
X036612Y006587D02*
X038348Y006587D01*
X038447Y006685D02*
X036612Y006685D01*
X036612Y006784D02*
X038545Y006784D01*
X038644Y006882D02*
X036612Y006882D01*
X036612Y006981D02*
X038684Y006981D01*
X038684Y007079D02*
X036612Y007079D01*
X036612Y007178D02*
X038684Y007178D01*
X038684Y007277D02*
X036612Y007277D01*
X036612Y007375D02*
X038684Y007375D01*
X038684Y007474D02*
X036612Y007474D01*
X036612Y007572D02*
X038684Y007572D01*
X038684Y007671D02*
X036612Y007671D01*
X036612Y007769D02*
X038684Y007769D01*
X038684Y007868D02*
X036612Y007868D01*
X036612Y007966D02*
X038684Y007966D01*
X038684Y008065D02*
X036612Y008065D01*
X036612Y008163D02*
X038684Y008163D01*
X038684Y008262D02*
X036612Y008262D01*
X036612Y008361D02*
X038684Y008361D01*
X038684Y008459D02*
X036612Y008459D01*
X036612Y008558D02*
X038684Y008558D01*
X038684Y008656D02*
X036612Y008656D01*
X036612Y008755D02*
X038684Y008755D01*
X038684Y008853D02*
X036612Y008853D01*
X036612Y008952D02*
X036633Y008952D01*
X037197Y008197D02*
X037681Y008681D01*
X037197Y008197D02*
X037197Y004197D01*
X037168Y004222D02*
X036612Y004222D01*
X036612Y004320D02*
X036807Y004320D01*
X036790Y004278D02*
X036790Y004226D01*
X037168Y004226D01*
X037168Y004168D01*
X036790Y004168D01*
X036790Y004116D01*
X036852Y003966D01*
X036966Y003852D01*
X037116Y003790D01*
X037168Y003790D01*
X037168Y004168D01*
X037226Y004168D01*
X037226Y003790D01*
X037278Y003790D01*
X037428Y003852D01*
X037543Y003966D01*
X037605Y004116D01*
X037605Y004168D01*
X037226Y004168D01*
X037226Y004226D01*
X037168Y004226D01*
X037168Y004605D01*
X037116Y004605D01*
X036966Y004543D01*
X036852Y004428D01*
X036790Y004278D01*
X036848Y004419D02*
X036612Y004419D01*
X036612Y004517D02*
X036941Y004517D01*
X037168Y004517D02*
X037226Y004517D01*
X037226Y004605D02*
X037226Y004226D01*
X037605Y004226D01*
X037605Y004278D01*
X037543Y004428D01*
X037428Y004543D01*
X037278Y004605D01*
X037226Y004605D01*
X037226Y004419D02*
X037168Y004419D01*
X037168Y004320D02*
X037226Y004320D01*
X037226Y004222D02*
X038778Y004222D01*
X038778Y004123D02*
X037605Y004123D01*
X037567Y004025D02*
X038818Y004025D01*
X038889Y003926D02*
X037502Y003926D01*
X037369Y003828D02*
X039046Y003828D01*
X039286Y003828D02*
X039731Y003828D01*
X039731Y003926D02*
X039443Y003926D01*
X039514Y004025D02*
X039731Y004025D01*
X039731Y004123D02*
X039553Y004123D01*
X039553Y004222D02*
X039731Y004222D01*
X039731Y004320D02*
X039534Y004320D01*
X039492Y004419D02*
X039731Y004419D01*
X039731Y004517D02*
X039393Y004517D01*
X039346Y004616D02*
X039731Y004616D01*
X039731Y004714D02*
X039346Y004714D01*
X039346Y004813D02*
X039731Y004813D01*
X039731Y004911D02*
X039346Y004911D01*
X039346Y005010D02*
X039731Y005010D01*
X039731Y005109D02*
X039346Y005109D01*
X039346Y005207D02*
X039731Y005207D01*
X039731Y005306D02*
X039346Y005306D01*
X039346Y005404D02*
X039731Y005404D01*
X039731Y005503D02*
X039346Y005503D01*
X039346Y005601D02*
X039731Y005601D01*
X039731Y005700D02*
X039346Y005700D01*
X039346Y005798D02*
X039731Y005798D01*
X039731Y005897D02*
X039346Y005897D01*
X039435Y005995D02*
X039731Y005995D01*
X039534Y006094D02*
X039639Y006199D01*
X039639Y006291D02*
X039731Y006291D01*
X039731Y006390D02*
X039639Y006390D01*
X039639Y006488D02*
X039731Y006488D01*
X039731Y006587D02*
X039639Y006587D01*
X039639Y006685D02*
X039731Y006685D01*
X039731Y006784D02*
X039639Y006784D01*
X039639Y006882D02*
X039731Y006882D01*
X039731Y006981D02*
X039639Y006981D01*
X039639Y007079D02*
X039731Y007079D01*
X039731Y007178D02*
X039639Y007178D01*
X039639Y007277D02*
X039731Y007277D01*
X039731Y007375D02*
X039639Y007375D01*
X039639Y007474D02*
X039731Y007474D01*
X039731Y007572D02*
X039639Y007572D01*
X039639Y007671D02*
X039731Y007671D01*
X039731Y007769D02*
X039639Y007769D01*
X039639Y007868D02*
X039731Y007868D01*
X039731Y007966D02*
X039639Y007966D01*
X039639Y008065D02*
X039731Y008065D01*
X039731Y008163D02*
X039639Y008163D01*
X039639Y008262D02*
X039731Y008262D01*
X039731Y008361D02*
X039639Y008361D01*
X039639Y008459D02*
X039731Y008459D01*
X039731Y008558D02*
X039639Y008558D01*
X039639Y008656D02*
X039731Y008656D01*
X039731Y008755D02*
X039639Y008755D01*
X039639Y008853D02*
X039731Y008853D01*
X039730Y008952D02*
X039731Y008952D01*
X039459Y009289D02*
X039461Y009291D01*
X039459Y009289D02*
X039459Y006274D01*
X039166Y005981D01*
X039166Y004197D01*
X038797Y004320D02*
X037587Y004320D01*
X037546Y004419D02*
X038839Y004419D01*
X038938Y004517D02*
X037453Y004517D01*
X037226Y004123D02*
X037168Y004123D01*
X037168Y004025D02*
X037226Y004025D01*
X037226Y003926D02*
X037168Y003926D01*
X037168Y003828D02*
X037226Y003828D01*
X037025Y003828D02*
X036612Y003828D01*
X036612Y003926D02*
X036892Y003926D01*
X036828Y004025D02*
X036612Y004025D01*
X036612Y004123D02*
X036790Y004123D01*
X036612Y004616D02*
X038986Y004616D01*
X038986Y004714D02*
X036612Y004714D01*
X036612Y004813D02*
X038986Y004813D01*
X038986Y004911D02*
X036612Y004911D01*
X036612Y005010D02*
X038986Y005010D01*
X038986Y005109D02*
X036612Y005109D01*
X036612Y005207D02*
X038986Y005207D01*
X038986Y005306D02*
X036612Y005306D01*
X036612Y005404D02*
X038986Y005404D01*
X038986Y005503D02*
X036612Y005503D01*
X036612Y005601D02*
X038986Y005601D01*
X038986Y005700D02*
X036612Y005700D01*
X036612Y005798D02*
X038056Y005798D01*
X038307Y005798D02*
X038986Y005798D01*
X038986Y005897D02*
X038461Y005897D01*
X038530Y005995D02*
X038986Y005995D01*
X039025Y006094D02*
X038569Y006094D01*
X038569Y006193D02*
X039123Y006193D01*
X039222Y006291D02*
X038561Y006291D01*
X038660Y006390D02*
X039279Y006390D01*
X039279Y006488D02*
X038758Y006488D01*
X038857Y006587D02*
X039279Y006587D01*
X039279Y006685D02*
X038956Y006685D01*
X039044Y006784D02*
X039279Y006784D01*
X039279Y006882D02*
X039044Y006882D01*
X039044Y006981D02*
X039279Y006981D01*
X039279Y007079D02*
X039044Y007079D01*
X039044Y007178D02*
X039279Y007178D01*
X039279Y007277D02*
X039044Y007277D01*
X039044Y007375D02*
X039279Y007375D01*
X039279Y007474D02*
X039044Y007474D01*
X039044Y007572D02*
X039279Y007572D01*
X039279Y007671D02*
X039044Y007671D01*
X039044Y007769D02*
X039279Y007769D01*
X039279Y007868D02*
X039044Y007868D01*
X039044Y007966D02*
X039279Y007966D01*
X039279Y008065D02*
X039044Y008065D01*
X039044Y008163D02*
X039279Y008163D01*
X039279Y008262D02*
X039044Y008262D01*
X039044Y008361D02*
X039279Y008361D01*
X039279Y008459D02*
X039044Y008459D01*
X039044Y008558D02*
X039279Y008558D01*
X039279Y008656D02*
X039044Y008656D01*
X039044Y008755D02*
X039279Y008755D01*
X039279Y008853D02*
X039044Y008853D01*
X039044Y008952D02*
X039193Y008952D01*
X039096Y009050D02*
X039044Y009050D01*
X039044Y009149D02*
X039055Y009149D01*
X038684Y010726D02*
X037164Y010726D01*
X037262Y010824D02*
X038684Y010824D01*
X038684Y010923D02*
X037305Y010923D01*
X037331Y011021D02*
X038684Y011021D01*
X038684Y011120D02*
X037331Y011120D01*
X037306Y011218D02*
X038684Y011218D01*
X038684Y011317D02*
X037264Y011317D01*
X037166Y011415D02*
X038684Y011415D01*
X038684Y011514D02*
X036612Y011514D01*
X036612Y011612D02*
X038684Y011612D01*
X038684Y011711D02*
X036612Y011711D01*
X036612Y011810D02*
X038684Y011810D01*
X038684Y011908D02*
X036612Y011908D01*
X036612Y012007D02*
X038684Y012007D01*
X038684Y012105D02*
X036612Y012105D01*
X036612Y012204D02*
X038684Y012204D01*
X038684Y012302D02*
X036612Y012302D01*
X036612Y012401D02*
X038684Y012401D01*
X038684Y012499D02*
X036612Y012499D01*
X036612Y012598D02*
X038684Y012598D01*
X038684Y012696D02*
X036612Y012696D01*
X036612Y012795D02*
X038684Y012795D01*
X038684Y012894D02*
X036612Y012894D01*
X036612Y012992D02*
X038684Y012992D01*
X038684Y013091D02*
X036612Y013091D01*
X036612Y013189D02*
X038684Y013189D01*
X038684Y013288D02*
X038453Y013288D01*
X038593Y013386D02*
X038684Y013386D01*
X038684Y013485D02*
X038664Y013485D01*
X039044Y013485D02*
X039056Y013485D01*
X039044Y013513D02*
X039079Y013428D01*
X039206Y013302D01*
X039371Y013233D01*
X039411Y013233D01*
X039411Y013633D01*
X039511Y013633D01*
X039511Y013233D01*
X039550Y013233D01*
X039716Y013302D01*
X039731Y013318D01*
X039731Y013021D01*
X039704Y013048D01*
X039546Y013113D01*
X039375Y013113D01*
X039217Y013048D01*
X039096Y012927D01*
X039044Y012801D01*
X039044Y013513D01*
X039044Y013386D02*
X039122Y013386D01*
X039044Y013288D02*
X039240Y013288D01*
X039411Y013288D02*
X039511Y013288D01*
X039511Y013386D02*
X039411Y013386D01*
X039411Y013485D02*
X039511Y013485D01*
X039511Y013583D02*
X039411Y013583D01*
X039411Y013734D02*
X039411Y014133D01*
X039371Y014133D01*
X039221Y014071D01*
X039404Y014253D01*
X039546Y014253D01*
X039704Y014319D01*
X039731Y014346D01*
X039731Y014049D01*
X039716Y014065D01*
X039550Y014133D01*
X039511Y014133D01*
X039511Y013734D01*
X039411Y013734D01*
X039411Y013780D02*
X039511Y013780D01*
X039511Y013879D02*
X039411Y013879D01*
X039411Y013977D02*
X039511Y013977D01*
X039511Y014076D02*
X039411Y014076D01*
X039325Y014175D02*
X039731Y014175D01*
X039731Y014273D02*
X039594Y014273D01*
X039689Y014076D02*
X039731Y014076D01*
X039233Y014076D02*
X039226Y014076D01*
X039013Y014372D02*
X038606Y014372D01*
X038679Y014470D02*
X039084Y014470D01*
X039043Y014569D02*
X038720Y014569D01*
X038914Y014273D02*
X038470Y014273D01*
X038330Y014273D02*
X038230Y014273D01*
X038230Y014372D02*
X038330Y014372D01*
X038330Y014470D02*
X038230Y014470D01*
X038230Y014569D02*
X038330Y014569D01*
X037830Y014766D02*
X036612Y014766D01*
X036612Y014864D02*
X037869Y014864D01*
X037925Y014963D02*
X036612Y014963D01*
X036612Y015061D02*
X038024Y015061D01*
X038177Y015259D02*
X036612Y015259D01*
X036612Y015357D02*
X037996Y015357D01*
X037908Y015456D02*
X036612Y015456D01*
X036612Y015554D02*
X037867Y015554D01*
X037850Y015653D02*
X036612Y015653D01*
X036612Y015751D02*
X037850Y015751D01*
X037884Y015850D02*
X036612Y015850D01*
X036612Y015948D02*
X037939Y015948D01*
X038039Y016047D02*
X036612Y016047D01*
X036612Y016145D02*
X038367Y016145D01*
X038466Y016244D02*
X036612Y016244D01*
X036612Y016343D02*
X037850Y016343D01*
X037850Y016441D02*
X036612Y016441D01*
X036612Y016540D02*
X037850Y016540D01*
X037850Y016638D02*
X036612Y016638D01*
X036612Y016737D02*
X037850Y016737D01*
X037850Y016835D02*
X036612Y016835D01*
X036612Y016934D02*
X037850Y016934D01*
X037850Y017032D02*
X036612Y017032D01*
X036612Y017131D02*
X038100Y017131D01*
X038100Y017229D02*
X036612Y017229D01*
X036612Y017328D02*
X038100Y017328D01*
X038100Y017426D02*
X036612Y017426D01*
X036612Y017525D02*
X038100Y017525D01*
X038147Y017624D02*
X036612Y017624D01*
X036612Y017722D02*
X038245Y017722D01*
X038344Y017821D02*
X036612Y017821D01*
X036612Y017919D02*
X038442Y017919D01*
X038541Y018018D02*
X036612Y018018D01*
X036612Y018116D02*
X038639Y018116D01*
X038738Y018215D02*
X036612Y018215D01*
X036612Y018313D02*
X038836Y018313D01*
X038935Y018412D02*
X036612Y018412D01*
X036612Y018510D02*
X039034Y018510D01*
X039031Y018609D02*
X036612Y018609D01*
X036612Y018708D02*
X039031Y018708D01*
X039046Y018806D02*
X036612Y018806D01*
X036612Y018905D02*
X039087Y018905D01*
X039173Y019003D02*
X036612Y019003D01*
X036612Y019102D02*
X039347Y019102D01*
X039575Y019102D02*
X039731Y019102D01*
X039461Y018683D02*
X038280Y017502D01*
X038280Y016681D01*
X038882Y016406D02*
X038882Y017105D01*
X039461Y017683D01*
X039096Y016441D02*
X039062Y016441D01*
X039062Y016343D02*
X039194Y016343D01*
X038975Y016244D02*
X039731Y016244D01*
X039728Y016343D02*
X039731Y016343D01*
X039731Y016145D02*
X038876Y016145D01*
X038778Y016047D02*
X039216Y016047D01*
X039118Y015948D02*
X038679Y015948D01*
X038675Y015850D02*
X039064Y015850D01*
X039031Y015751D02*
X038710Y015751D01*
X038710Y015653D02*
X039031Y015653D01*
X039049Y015554D02*
X038693Y015554D01*
X038652Y015456D02*
X039090Y015456D01*
X039179Y015357D02*
X038564Y015357D01*
X038280Y015681D02*
X038280Y015803D01*
X038882Y016406D01*
X039705Y016047D02*
X039731Y016047D01*
X039461Y015683D02*
X039461Y015439D01*
X039931Y014927D01*
X039931Y011567D01*
X039461Y011071D01*
X039083Y012894D02*
X039044Y012894D01*
X039044Y012992D02*
X039162Y012992D01*
X039044Y013091D02*
X039320Y013091D01*
X039601Y013091D02*
X039731Y013091D01*
X039731Y013189D02*
X039044Y013189D01*
X039681Y013288D02*
X039731Y013288D01*
X038864Y013969D02*
X039461Y014565D01*
X039461Y014683D01*
X039473Y015160D02*
X036612Y015160D01*
X035231Y014346D02*
X035231Y014049D01*
X035216Y014065D01*
X035050Y014133D01*
X035011Y014133D01*
X035011Y013734D01*
X034911Y013734D01*
X034911Y014133D01*
X034871Y014133D01*
X034721Y014071D01*
X034904Y014253D01*
X035046Y014253D01*
X035204Y014319D01*
X035231Y014346D01*
X035231Y014273D02*
X035094Y014273D01*
X035231Y014175D02*
X034825Y014175D01*
X034911Y014076D02*
X035011Y014076D01*
X035011Y013977D02*
X034911Y013977D01*
X034911Y013879D02*
X035011Y013879D01*
X035011Y013780D02*
X034911Y013780D01*
X034911Y013633D02*
X035011Y013633D01*
X035011Y013233D01*
X035050Y013233D01*
X035216Y013302D01*
X035231Y013318D01*
X035231Y013021D01*
X035204Y013048D01*
X035046Y013113D01*
X034875Y013113D01*
X034717Y013048D01*
X034596Y012927D01*
X034544Y012801D01*
X034544Y013513D01*
X034579Y013428D01*
X034706Y013302D01*
X034871Y013233D01*
X034911Y013233D01*
X034911Y013633D01*
X034911Y013583D02*
X035011Y013583D01*
X035011Y013485D02*
X034911Y013485D01*
X034911Y013386D02*
X035011Y013386D01*
X035011Y013288D02*
X034911Y013288D01*
X034740Y013288D02*
X034544Y013288D01*
X034544Y013386D02*
X034622Y013386D01*
X034556Y013485D02*
X034544Y013485D01*
X034544Y013189D02*
X035231Y013189D01*
X035231Y013091D02*
X035101Y013091D01*
X035181Y013288D02*
X035231Y013288D01*
X034820Y013091D02*
X034544Y013091D01*
X034544Y012992D02*
X034662Y012992D01*
X034583Y012894D02*
X034544Y012894D01*
X034184Y013288D02*
X033953Y013288D01*
X034093Y013386D02*
X034184Y013386D01*
X034184Y013485D02*
X034164Y013485D01*
X034163Y013879D02*
X034184Y013879D01*
X034184Y013977D02*
X034092Y013977D01*
X034217Y014076D02*
X033951Y014076D01*
X034364Y013969D02*
X034364Y006849D01*
X033681Y006166D01*
X033961Y005897D02*
X034486Y005897D01*
X034486Y005995D02*
X034030Y005995D01*
X034069Y006094D02*
X034525Y006094D01*
X034623Y006193D02*
X034069Y006193D01*
X034061Y006291D02*
X034722Y006291D01*
X034779Y006390D02*
X034160Y006390D01*
X034258Y006488D02*
X034779Y006488D01*
X034779Y006587D02*
X034357Y006587D01*
X034456Y006685D02*
X034779Y006685D01*
X034779Y006784D02*
X034544Y006784D01*
X034544Y006882D02*
X034779Y006882D01*
X034779Y006981D02*
X034544Y006981D01*
X034544Y007079D02*
X034779Y007079D01*
X034779Y007178D02*
X034544Y007178D01*
X034544Y007277D02*
X034779Y007277D01*
X034779Y007375D02*
X034544Y007375D01*
X034544Y007474D02*
X034779Y007474D01*
X034779Y007572D02*
X034544Y007572D01*
X034544Y007671D02*
X034779Y007671D01*
X034779Y007769D02*
X034544Y007769D01*
X034544Y007868D02*
X034779Y007868D01*
X034779Y007966D02*
X034544Y007966D01*
X034544Y008065D02*
X034779Y008065D01*
X034779Y008163D02*
X034544Y008163D01*
X034544Y008262D02*
X034779Y008262D01*
X034779Y008361D02*
X034544Y008361D01*
X034544Y008459D02*
X034779Y008459D01*
X034779Y008558D02*
X034544Y008558D01*
X034544Y008656D02*
X034779Y008656D01*
X034779Y008755D02*
X034544Y008755D01*
X034544Y008853D02*
X034779Y008853D01*
X034693Y008952D02*
X034544Y008952D01*
X034544Y009050D02*
X034596Y009050D01*
X034555Y009149D02*
X034544Y009149D01*
X036612Y011415D02*
X036637Y011415D01*
X036612Y013288D02*
X038107Y013288D01*
X037967Y013386D02*
X036612Y013386D01*
X036612Y013485D02*
X037896Y013485D01*
X037855Y013583D02*
X036612Y013583D01*
X036612Y013682D02*
X037850Y013682D01*
X037855Y013780D02*
X036612Y013780D01*
X036612Y013879D02*
X037896Y013879D01*
X037968Y013977D02*
X036612Y013977D01*
X036612Y014076D02*
X038109Y014076D01*
X035231Y014076D02*
X035189Y014076D01*
X034733Y014076D02*
X034726Y014076D01*
X034364Y013969D02*
X034961Y014565D01*
X034961Y014683D01*
X033524Y015061D02*
X032112Y015061D01*
X032112Y014963D02*
X033425Y014963D01*
X033369Y014864D02*
X032112Y014864D01*
X032112Y014766D02*
X033330Y014766D01*
X033780Y015681D02*
X033780Y015803D01*
X034435Y018412D02*
X032112Y018412D01*
X032112Y018510D02*
X034534Y018510D01*
X034531Y018609D02*
X032112Y018609D01*
X032112Y018708D02*
X034531Y018708D01*
X034546Y018806D02*
X032112Y018806D01*
X032112Y018905D02*
X034587Y018905D01*
X034673Y019003D02*
X032112Y019003D01*
X030731Y013288D02*
X030681Y013288D01*
X030731Y013189D02*
X030044Y013189D01*
X030044Y013091D02*
X030320Y013091D01*
X030162Y012992D02*
X030044Y012992D01*
X030044Y012894D02*
X030083Y012894D01*
X030601Y013091D02*
X030731Y013091D01*
X026231Y013091D02*
X026101Y013091D01*
X026011Y013288D02*
X025911Y013288D01*
X025911Y013386D02*
X026011Y013386D01*
X025184Y013386D02*
X025093Y013386D01*
X025164Y013485D02*
X025184Y013485D01*
X025184Y013288D02*
X024953Y013288D01*
X024807Y005798D02*
X025486Y005798D01*
X026231Y003729D02*
X023112Y003729D01*
X023112Y003630D02*
X026231Y003630D01*
X026231Y003532D02*
X023112Y003532D01*
X023112Y003433D02*
X026231Y003433D01*
X026231Y003335D02*
X023112Y003335D01*
X023112Y003236D02*
X026231Y003236D01*
X027612Y003236D02*
X030731Y003236D01*
X030731Y003335D02*
X027612Y003335D01*
X027612Y003433D02*
X030731Y003433D01*
X030731Y003532D02*
X027612Y003532D01*
X027612Y003630D02*
X030731Y003630D01*
X030731Y003729D02*
X027612Y003729D01*
X032112Y003729D02*
X035231Y003729D01*
X035231Y003630D02*
X032112Y003630D01*
X032112Y003532D02*
X035231Y003532D01*
X035231Y003433D02*
X032112Y003433D01*
X032112Y003335D02*
X035231Y003335D01*
X035231Y003236D02*
X032112Y003236D01*
X033807Y005798D02*
X034486Y005798D01*
X036612Y003729D02*
X039731Y003729D01*
X039731Y003630D02*
X036612Y003630D01*
X036612Y003532D02*
X039731Y003532D01*
X039731Y003433D02*
X036612Y003433D01*
X036612Y003335D02*
X039731Y003335D01*
X039731Y003236D02*
X036612Y003236D01*
X008923Y012696D02*
X003181Y012696D01*
X003181Y012598D02*
X008883Y012598D01*
X008920Y014175D02*
X003181Y014175D01*
X003181Y014273D02*
X006150Y014273D01*
X006265Y014667D02*
X008949Y014667D01*
X009048Y014766D02*
X006166Y014766D01*
X003922Y007966D02*
X003181Y007966D01*
X003181Y007868D02*
X003840Y007868D01*
X004168Y007572D02*
X004226Y007572D01*
X004226Y007474D02*
X004168Y007474D01*
X004168Y007375D02*
X004226Y007375D01*
M02*
