G75*
G70*
%OFA0B0*%
%FSLAX24Y24*%
%IPPOS*%
%LPD*%
%AMOC8*
5,1,8,0,0,1.08239X$1,22.5*
%
%ADD10OC8,0.0710*%
%ADD11C,0.0680*%
%ADD12R,0.0680X0.0680*%
%ADD13C,0.1380*%
%ADD14OC8,0.0674*%
%ADD15C,0.0440*%
%ADD16C,0.0437*%
%ADD17OC8,0.0437*%
D10*
X008961Y009163D03*
X010961Y009163D03*
X010961Y020163D03*
X008961Y020163D03*
X008961Y031163D03*
X010961Y031163D03*
X027502Y010961D03*
X027502Y008961D03*
D11*
X024420Y006104D03*
X024420Y005104D03*
X024420Y004104D03*
X027087Y002651D03*
X028087Y002651D03*
X029233Y001633D03*
X030233Y001633D03*
X031233Y001633D03*
X032233Y001633D03*
X033233Y001633D03*
X035333Y007833D03*
X035333Y008833D03*
X035333Y009833D03*
X035333Y010833D03*
X035333Y011833D03*
X035333Y012833D03*
X035333Y013833D03*
X024420Y015104D03*
X024420Y016104D03*
X024420Y017104D03*
X030561Y024420D03*
X031561Y024420D03*
X032561Y024420D03*
X024420Y026104D03*
X024420Y027104D03*
X024420Y028104D03*
X013833Y023333D03*
X012833Y023333D03*
X011833Y023333D03*
X010833Y023333D03*
X009833Y023333D03*
X008833Y023333D03*
X007833Y023333D03*
X002651Y020579D03*
X002651Y019579D03*
X001633Y018433D03*
X001633Y017433D03*
X001633Y016433D03*
X001633Y015433D03*
X001633Y014433D03*
X007833Y012333D03*
X008833Y012333D03*
X009833Y012333D03*
X010833Y012333D03*
X011833Y012333D03*
X012833Y012333D03*
X013833Y012333D03*
X002651Y009579D03*
X002651Y008579D03*
X001633Y007433D03*
X001633Y006433D03*
X001633Y005433D03*
X001633Y004433D03*
X001633Y003433D03*
X007833Y001333D03*
X008833Y001333D03*
X009833Y001333D03*
X010833Y001333D03*
X011833Y001333D03*
X012833Y001333D03*
X013833Y001333D03*
X001633Y025433D03*
X001633Y026433D03*
X001633Y027433D03*
X001633Y028433D03*
X001633Y029433D03*
X002651Y030579D03*
X002651Y031579D03*
D12*
X024420Y029104D03*
X029561Y024420D03*
X024420Y018104D03*
X024420Y007104D03*
D13*
X001232Y001333D03*
X001233Y009833D03*
X001232Y012333D03*
X001233Y020833D03*
X001232Y023333D03*
X001233Y031833D03*
X024333Y031833D03*
X026833Y024333D03*
X024333Y023333D03*
X024333Y020833D03*
X035333Y024333D03*
X024333Y012333D03*
X024333Y009833D03*
X024333Y001333D03*
X026833Y001233D03*
X035333Y001232D03*
D14*
X028350Y004538D03*
X028350Y005247D03*
X028350Y005956D03*
X028350Y006664D03*
X028350Y007373D03*
X007373Y008315D03*
X006664Y008315D03*
X005956Y008315D03*
X005247Y008315D03*
X004538Y008315D03*
X004538Y019315D03*
X005247Y019315D03*
X005956Y019315D03*
X006664Y019315D03*
X007373Y019315D03*
X007373Y030315D03*
X006664Y030315D03*
X005956Y030315D03*
X005247Y030315D03*
X004538Y030315D03*
D15*
X012342Y027335D03*
X013083Y026833D03*
X013533Y027233D03*
X012333Y026583D03*
X013533Y029133D03*
X013533Y018133D03*
X013533Y016233D03*
X013083Y015833D03*
X012333Y015583D03*
X012342Y016335D03*
X013533Y007133D03*
X012342Y005335D03*
X013083Y004833D03*
X013533Y005233D03*
X012333Y004583D03*
X029533Y013533D03*
X031330Y012342D03*
X032083Y012333D03*
X031833Y013083D03*
X031433Y013533D03*
D16*
X030763Y012498D03*
X030157Y012560D03*
X031972Y010633D03*
X029333Y009833D03*
X033833Y007333D03*
X031833Y005333D03*
X029833Y005333D03*
X012560Y006508D03*
X012498Y005902D03*
X010633Y004694D03*
X007333Y002833D03*
X005333Y004833D03*
X005333Y006833D03*
X009833Y007333D03*
X007333Y013833D03*
X005333Y015833D03*
X005333Y017833D03*
X009833Y018333D03*
X012560Y017508D03*
X012498Y016902D03*
X010633Y015694D03*
X007333Y024833D03*
X005333Y026833D03*
X005333Y028833D03*
X009833Y029333D03*
X012560Y028508D03*
X012498Y027902D03*
X010633Y026694D03*
D17*
X019333Y025833D03*
X019833Y025833D03*
X020333Y025833D03*
X020833Y025833D03*
X021333Y025833D03*
X021833Y025833D03*
X022333Y025833D03*
X022333Y025333D03*
X022333Y024833D03*
X021833Y024833D03*
X021833Y025333D03*
X021333Y025333D03*
X021833Y024333D03*
X019935Y024562D03*
X019935Y025014D03*
X019465Y025020D03*
X019465Y024562D03*
X019465Y024098D03*
X019935Y024098D03*
X019962Y027101D03*
X019523Y027116D03*
X019514Y027625D03*
X019968Y027621D03*
X019971Y028099D03*
X019523Y028108D03*
X019333Y028833D03*
X019833Y028833D03*
X020333Y028833D03*
X020833Y028833D03*
X021333Y028833D03*
X021833Y028833D03*
X022333Y028833D03*
X022333Y028333D03*
X022333Y027833D03*
X022333Y027333D03*
X021833Y027333D03*
X021833Y027833D03*
X021833Y028333D03*
X019947Y030062D03*
X019478Y030062D03*
X019478Y030521D03*
X019467Y030979D03*
X019947Y030979D03*
X019947Y030521D03*
X021333Y031333D03*
X021833Y031333D03*
X021833Y030833D03*
X022333Y030833D03*
X022333Y031333D03*
X022333Y030333D03*
X021833Y030333D03*
X027333Y022333D03*
X027833Y022333D03*
X028333Y022333D03*
X028333Y021833D03*
X027833Y021833D03*
X027333Y021833D03*
X027333Y021333D03*
X027686Y019947D03*
X028144Y019947D03*
X028603Y019947D03*
X028603Y019478D03*
X028144Y019478D03*
X027686Y019467D03*
X029833Y019333D03*
X029833Y019833D03*
X029833Y020333D03*
X029833Y020833D03*
X029833Y021333D03*
X029833Y021833D03*
X029833Y022333D03*
X030333Y022333D03*
X030833Y022333D03*
X031333Y022333D03*
X031333Y021833D03*
X030833Y021833D03*
X030333Y021833D03*
X030566Y019971D03*
X030557Y019523D03*
X031040Y019514D03*
X031044Y019968D03*
X031564Y019962D03*
X031549Y019523D03*
X032833Y019333D03*
X032833Y019833D03*
X033651Y019935D03*
X034103Y019935D03*
X034567Y019935D03*
X034567Y019465D03*
X034103Y019465D03*
X033645Y019465D03*
X032833Y020333D03*
X032833Y020833D03*
X032833Y021333D03*
X033333Y021333D03*
X033333Y021833D03*
X033333Y022333D03*
X033833Y022333D03*
X033833Y021833D03*
X034333Y021833D03*
X032833Y021833D03*
X032833Y022333D03*
X022333Y020333D03*
X022333Y019833D03*
X022333Y019333D03*
X021833Y019333D03*
X021833Y019833D03*
X021833Y020333D03*
X021333Y020333D03*
X019947Y019979D03*
X019947Y019521D03*
X019478Y019521D03*
X019467Y019979D03*
X019478Y019062D03*
X019947Y019062D03*
X019833Y017833D03*
X020333Y017833D03*
X020833Y017833D03*
X021333Y017833D03*
X021833Y017833D03*
X021833Y017333D03*
X022333Y017333D03*
X022333Y017833D03*
X022333Y016833D03*
X022333Y016333D03*
X021833Y016333D03*
X021833Y016833D03*
X019968Y016621D03*
X019514Y016625D03*
X019523Y017108D03*
X019971Y017099D03*
X019333Y017833D03*
X019523Y016116D03*
X019962Y016101D03*
X019833Y014833D03*
X020333Y014833D03*
X020833Y014833D03*
X021333Y014833D03*
X021833Y014833D03*
X021833Y014333D03*
X021333Y014333D03*
X021833Y013833D03*
X021833Y013333D03*
X022333Y013833D03*
X022333Y014333D03*
X022333Y014833D03*
X019935Y014014D03*
X019935Y013562D03*
X019465Y013562D03*
X019465Y014020D03*
X019333Y014833D03*
X019465Y013098D03*
X019935Y013098D03*
X021333Y009333D03*
X021833Y009333D03*
X022333Y009333D03*
X022333Y008833D03*
X022333Y008333D03*
X021833Y008333D03*
X021833Y008833D03*
X019947Y008979D03*
X019467Y008979D03*
X019478Y008521D03*
X019478Y008062D03*
X019947Y008062D03*
X019947Y008521D03*
X019833Y006833D03*
X020333Y006833D03*
X020833Y006833D03*
X021333Y006833D03*
X021833Y006833D03*
X021833Y006333D03*
X022333Y006333D03*
X022333Y006833D03*
X022333Y005833D03*
X022333Y005333D03*
X021833Y005333D03*
X021833Y005833D03*
X019968Y005621D03*
X019514Y005625D03*
X019523Y006108D03*
X019971Y006099D03*
X019333Y006833D03*
X019523Y005116D03*
X019962Y005101D03*
X019833Y003833D03*
X020333Y003833D03*
X020833Y003833D03*
X021333Y003833D03*
X021833Y003833D03*
X021833Y003333D03*
X021333Y003333D03*
X021833Y002833D03*
X021833Y002333D03*
X022333Y002833D03*
X022333Y003333D03*
X022333Y003833D03*
X019935Y003014D03*
X019465Y003020D03*
X019465Y002562D03*
X019465Y002098D03*
X019935Y002098D03*
X019935Y002562D03*
X019333Y003833D03*
M02*
