%
M48
M72
T01C0.0197
T02C0.0200
T03C0.0236
T04C0.0320
T05C0.0394
T06C0.0400
T07C0.1300
%
T01
X5333Y4833
X5333Y6833
X9833Y7333
X12488Y6466
X12402Y5898
X10633Y4694
X7333Y2833
X7333Y13833
X5333Y15833
X5333Y17833
X9833Y18333
X12488Y17466
X12402Y16898
X10633Y15694
X7333Y24833
X5333Y26833
X5333Y28833
X9833Y29333
X12488Y28466
X12402Y27898
X10633Y26694
X30200Y12488
X30768Y12402
X31972Y10633
X29333Y9833
X33833Y7333
X31833Y5333
X29833Y5333
T02
X31330Y12342
X32083Y12333
X31833Y13083
X31433Y13533
X29533Y13533
X28333Y17333
X31418Y17481
X33833Y17333
X17481Y16247
X17333Y13833
X13533Y16233
X13083Y15833
X12333Y15583
X12342Y16335
X13533Y18133
X17333Y19333
X17333Y24833
X17481Y27247
X17333Y30333
X13533Y29133
X13533Y27233
X13083Y26833
X12333Y26583
X12342Y27335
X17333Y8333
X13533Y7133
X12342Y5335
X13083Y4833
X13533Y5233
X12333Y4583
X17481Y5247
X17333Y2833
T03
X19452Y3282
X19737Y2901
X19984Y3282
X20837Y3538
X21165Y4058
X20865Y4524
X20078Y4043
X19357Y4043
X19471Y4785
X19737Y5185
X20002Y4785
X19718Y5927
X19984Y6288
X19452Y6288
X19376Y6992
X20097Y6992
X20865Y7483
X21193Y7044
X21833Y6833
X22333Y7333
X22833Y7833
X23333Y7333
X23833Y7833
X24333Y7333
X23833Y6833
X24333Y6333
X23833Y5833
X24333Y5333
X23833Y4833
X24333Y4333
X23833Y3833
X24333Y3333
X23833Y2833
X23333Y3333
X22833Y3833
X22333Y3333
X22833Y2833
X22333Y2333
X22833Y1833
X21833Y1833
X21833Y2833
X21833Y3833
X22333Y4333
X22833Y4833
X23333Y4333
X23333Y5333
X22833Y5833
X22333Y5333
X21833Y5833
X22333Y6333
X22833Y6833
X23333Y6333
X21833Y7833
X22333Y8333
X22833Y8833
X23333Y8333
X24333Y8333
X22333Y9333
X21833Y8833
X21357Y9455
X19984Y9237
X19699Y8876
X19452Y9256
X19737Y8134
X20002Y7715
X19452Y7715
X20892Y6606
X21833Y4833
X19756Y2140
X20002Y1760
X19471Y1779
X20002Y12760
X19756Y13140
X19471Y12779
X19737Y13901
X19984Y14282
X19452Y14282
X19357Y15043
X20078Y15043
X20865Y15524
X21165Y15058
X21833Y14833
X22333Y15333
X22833Y15833
X23333Y15333
X23833Y15833
X24333Y15333
X23833Y14833
X24333Y14333
X23833Y13833
X23333Y14333
X22833Y14833
X22333Y14333
X22833Y13833
X22333Y13333
X22833Y12833
X21833Y12833
X21833Y13833
X20837Y14538
X20002Y15785
X19737Y16185
X19471Y15785
X19718Y16927
X19984Y17288
X19452Y17288
X19376Y17992
X20097Y17992
X20892Y17606
X21193Y18044
X20865Y18483
X20002Y18715
X19737Y19134
X19452Y18715
X19699Y19876
X19452Y20256
X19984Y20237
X21357Y20455
X21833Y19833
X22333Y20333
X22833Y19833
X23333Y19333
X23833Y18833
X24333Y18333
X23833Y17833
X24333Y17333
X23833Y16833
X24333Y16333
X23333Y16333
X22833Y16833
X22333Y16333
X21833Y16833
X22333Y17333
X22833Y17833
X23333Y17333
X23333Y18333
X22833Y18833
X22333Y18333
X21833Y18833
X22333Y19333
X24333Y19333
X21833Y17833
X21833Y15833
X27409Y19452
X27789Y19699
X27428Y19984
X28531Y19737
X28950Y20002
X28950Y19452
X29673Y19376
X30377Y19452
X30739Y19718
X30377Y19984
X29673Y20097
X30059Y20892
X29621Y21193
X29183Y20865
X28833Y21833
X29333Y22333
X29833Y21833
X30333Y22333
X30833Y21833
X31333Y22333
X31833Y21833
X32333Y22333
X32833Y21833
X33333Y22333
X33833Y21833
X34333Y22333
X34833Y21833
X34833Y22833
X33833Y22833
X33333Y23333
X32833Y22833
X32333Y23333
X32833Y23833
X33333Y24333
X33833Y23833
X32333Y24333
X31833Y23833
X31333Y24333
X30833Y23833
X30333Y24333
X29833Y23833
X29333Y24333
X28833Y23833
X28333Y24333
X28333Y23333
X28833Y22833
X29333Y23333
X29833Y22833
X30333Y23333
X30833Y22833
X31333Y23333
X31833Y22833
X32607Y21165
X32141Y20865
X33127Y20837
X33383Y19984
X33764Y19737
X33383Y19452
X32622Y19357
X31880Y19471
X31481Y19737
X31880Y20002
X32622Y20078
X34525Y19756
X34906Y20002
X34887Y19471
X28333Y22333
X27833Y21833
X27333Y22333
X27833Y22833
X27210Y21357
X22833Y23833
X22333Y24333
X22833Y24833
X23333Y25333
X23833Y24833
X24333Y25333
X23833Y25833
X24333Y26333
X23833Y26833
X24333Y27333
X23833Y27833
X24333Y28333
X23833Y28833
X24333Y29333
X23833Y29833
X24333Y30333
X23333Y30333
X22833Y29833
X22333Y30333
X22833Y30833
X22333Y31333
X21833Y30833
X21357Y31455
X19984Y31237
X19699Y30876
X19452Y31256
X19737Y30134
X20002Y29715
X19452Y29715
X19376Y28992
X19452Y28288
X19718Y27927
X19984Y28288
X20097Y28992
X20892Y28606
X21193Y29044
X21833Y28833
X22333Y29333
X22833Y28833
X23333Y29333
X23333Y28333
X22833Y27833
X22333Y28333
X21833Y27833
X22333Y27333
X22833Y26833
X23333Y27333
X23333Y26333
X22833Y25833
X22333Y26333
X21833Y26833
X20865Y26524
X21165Y26058
X20837Y25538
X20078Y26043
X19357Y26043
X19452Y25282
X19737Y24901
X19984Y25282
X19756Y24140
X20002Y23760
X19471Y23779
X21833Y23833
X21833Y24833
X22333Y25333
X21833Y25833
X20002Y26785
X19737Y27185
X19471Y26785
X20865Y29483
X21833Y29833
T04
X10961Y31163
X8961Y31163
X8961Y20163
X10961Y20163
X10961Y9163
X8961Y9163
X27502Y8961
X27502Y10961
T05
X28832Y7351
X28832Y6642
X28832Y5934
X28832Y5225
X28832Y4516
X7351Y7833
X6642Y7833
X5934Y7833
X5225Y7833
X4516Y7833
X4516Y18833
X5225Y18833
X5934Y18833
X6642Y18833
X7351Y18833
X7351Y29833
X6642Y29833
X5934Y29833
X5225Y29833
X4516Y29833
T06
X2651Y30579
X2651Y31579
X1633Y29433
X1633Y28433
X1633Y27433
X1633Y26433
X1633Y25433
X2651Y20579
X2651Y19579
X1633Y18433
X1633Y17433
X1633Y16433
X1633Y15433
X1633Y14433
X7833Y12333
X8833Y12333
X9833Y12333
X10833Y12333
X11833Y12333
X12833Y12333
X13833Y12333
X13733Y9483
X14733Y9483
X15733Y9483
X12733Y9483
X2651Y9579
X2651Y8579
X1633Y7433
X1633Y6433
X1633Y5433
X1633Y4433
X1633Y3433
X7833Y1333
X8833Y1333
X9833Y1333
X10833Y1333
X11833Y1333
X12833Y1333
X13833Y1333
X27087Y2651
X28087Y2651
X29233Y1633
X30233Y1633
X31233Y1633
X32233Y1633
X33233Y1633
X35333Y7833
X35333Y8833
X35333Y9833
X35333Y10833
X35333Y11833
X35333Y12833
X35333Y13833
X27183Y13733
X27183Y14733
X27183Y15733
X27183Y12733
X15733Y20483
X14733Y20483
X13733Y20483
X12733Y20483
X12833Y23333
X13833Y23333
X11833Y23333
X10833Y23333
X9833Y23333
X8833Y23333
X7833Y23333
X12733Y31483
X13733Y31483
X14733Y31483
X15733Y31483
T07
X1232Y1333
X1233Y9833
X1232Y12333
X1233Y20833
X1232Y23333
X1233Y31833
X24333Y31833
X26833Y24333
X24333Y23333
X24333Y20833
X35333Y24333
X24333Y12333
X24333Y9833
X24333Y1333
X26833Y1233
X35333Y1232
M30
