G75*
G70*
%OFA0B0*%
%FSLAX24Y24*%
%IPPOS*%
%LPD*%
%AMOC8*
5,1,8,0,0,1.08239X$1,22.5*
%
%ADD10R,0.2300X0.9000*%
%ADD11OC8,0.0630*%
%ADD12C,0.0600*%
%ADD13R,0.0600X0.0600*%
%ADD14OC8,0.0515*%
%ADD15C,0.0360*%
%ADD16C,0.0100*%
%ADD17C,0.0250*%
D10*
X018083Y005883D03*
D11*
X005283Y008033D03*
X005283Y010033D03*
D12*
X005433Y012383D03*
X005433Y013383D03*
X005433Y014383D03*
X005433Y015883D03*
X004433Y015883D03*
X003433Y015883D03*
X003433Y014383D03*
X003433Y013383D03*
X003433Y012383D03*
X001433Y012383D03*
X001433Y013383D03*
X001433Y014383D03*
X006433Y015883D03*
X007433Y015883D03*
X008433Y015883D03*
X009433Y015883D03*
X010833Y010133D03*
X011833Y010133D03*
X012833Y010133D03*
X002533Y009733D03*
X002533Y008733D03*
X001583Y007383D03*
X001583Y006383D03*
X001583Y005383D03*
X001583Y004383D03*
X001583Y003383D03*
X004283Y001233D03*
X005283Y001233D03*
X006283Y001233D03*
X007283Y001233D03*
X008283Y001233D03*
X009283Y001233D03*
X010283Y001233D03*
D13*
X003283Y001233D03*
X013833Y010133D03*
X010433Y015883D03*
X001433Y015383D03*
D14*
X008992Y014072D03*
X008992Y012694D03*
X018855Y012714D03*
D15*
X018933Y009883D03*
X019033Y009383D03*
X019033Y008883D03*
X018933Y008383D03*
X018933Y007883D03*
X018933Y007383D03*
X018933Y006883D03*
X019033Y006383D03*
X019033Y005883D03*
X018933Y005383D03*
X018933Y004883D03*
X018933Y004383D03*
X018933Y003883D03*
X019033Y003383D03*
X019033Y002883D03*
X018933Y002383D03*
X015433Y002283D03*
X015433Y004083D03*
X015433Y005283D03*
X013083Y004883D03*
X011433Y004383D03*
X009433Y004883D03*
X007433Y004383D03*
X006433Y003883D03*
X007433Y003383D03*
X007883Y002533D03*
X006433Y004883D03*
X004585Y002883D03*
X003433Y002883D03*
X003933Y007183D03*
X009733Y008183D03*
X010433Y007883D03*
X010933Y008383D03*
X015533Y008233D03*
D16*
X003283Y001233D02*
X002433Y002083D01*
X002433Y004883D01*
X001933Y005383D01*
X001583Y005383D01*
X001583Y006383D02*
X007933Y006383D01*
X009733Y008183D01*
X010433Y007883D02*
X010933Y007883D01*
X011433Y008383D01*
X011433Y009533D01*
X010833Y010133D01*
X010933Y008383D02*
X007433Y008383D01*
X006433Y007383D01*
X004433Y007383D01*
X004233Y007183D01*
X003933Y007183D01*
X006433Y004883D02*
X007583Y004883D01*
X007883Y004383D01*
X007883Y002533D01*
X007433Y003383D02*
X005283Y001233D01*
X004585Y002883D02*
X003433Y002883D01*
X006433Y003883D02*
X006933Y003883D01*
X007433Y004383D01*
X009433Y004883D02*
X010933Y004883D01*
X011433Y004383D01*
X013083Y004883D02*
X014433Y004883D01*
X015433Y004083D01*
X005933Y012383D02*
X005433Y012383D01*
X003433Y012383D01*
X002433Y012883D02*
X002433Y014883D01*
X004433Y014883D01*
X005433Y015883D01*
X005433Y015383D02*
X005933Y015383D01*
X006433Y015883D01*
X007433Y015883D02*
X007433Y014883D01*
X005933Y013383D01*
X005433Y013383D01*
X004433Y013883D02*
X004433Y014383D01*
X005433Y015383D01*
X004433Y015883D02*
X003933Y015383D01*
X002433Y015383D01*
X001433Y014383D01*
X001433Y015383D02*
X001933Y015883D01*
X003433Y015883D01*
X004433Y013883D02*
X003933Y013383D01*
X003433Y013383D01*
X002433Y012883D02*
X001933Y012383D01*
X001433Y012383D01*
X005933Y012383D02*
X009433Y015883D01*
X009433Y015383D01*
X010433Y014383D01*
X017185Y014383D01*
X018855Y012714D01*
D17*
X015533Y008233D02*
X013833Y009983D01*
X013833Y010133D01*
X012833Y010133D02*
X012833Y006483D01*
X013933Y005283D01*
X015433Y005283D01*
X013433Y002283D02*
X011833Y003983D01*
X011833Y010133D01*
X013433Y002283D02*
X015433Y002283D01*
M02*
