G75*
G70*
%OFA0B0*%
%FSLAX24Y24*%
%IPPOS*%
%LPD*%
%AMOC8*
5,1,8,0,0,1.08239X$1,22.5*
%
%ADD10OC8,0.0710*%
%ADD11C,0.0680*%
%ADD12R,0.0680X0.0680*%
%ADD13C,0.1380*%
%ADD14OC8,0.0595*%
%ADD15C,0.0440*%
D10*
X005283Y008033D03*
X005283Y010033D03*
D11*
X005433Y012383D03*
X005433Y013383D03*
X005433Y014383D03*
X005433Y015883D03*
X004433Y015883D03*
X003433Y015883D03*
X003433Y014383D03*
X003433Y013383D03*
X003433Y012383D03*
X001433Y012383D03*
X001433Y013383D03*
X001433Y014383D03*
X006433Y015883D03*
X007433Y015883D03*
X008433Y015883D03*
X009433Y015883D03*
X010833Y010133D03*
X011833Y010133D03*
X012833Y010133D03*
X002533Y009733D03*
X002533Y008733D03*
X001583Y007383D03*
X001583Y006383D03*
X001583Y005383D03*
X001583Y004383D03*
X001583Y003383D03*
X004283Y001233D03*
X005283Y001233D03*
X006283Y001233D03*
X007283Y001233D03*
X008283Y001233D03*
X009283Y001233D03*
X010283Y001233D03*
D12*
X003283Y001233D03*
X013833Y010133D03*
X010433Y015883D03*
X001433Y015383D03*
D13*
X001233Y001233D03*
X001233Y010083D03*
X019983Y010083D03*
X020033Y001233D03*
D14*
X018855Y012714D03*
X008992Y012694D03*
X008992Y014072D03*
D15*
X010933Y008383D03*
X010433Y007883D03*
X009733Y008183D03*
X009433Y004883D03*
X011433Y004383D03*
X013083Y004883D03*
X015433Y005283D03*
X015433Y004083D03*
X015433Y002283D03*
X018933Y002383D03*
X019033Y002883D03*
X019033Y003383D03*
X018933Y003883D03*
X018933Y004383D03*
X018933Y004883D03*
X018933Y005383D03*
X019033Y005883D03*
X019033Y006383D03*
X018933Y006883D03*
X018933Y007383D03*
X018933Y007883D03*
X018933Y008383D03*
X019033Y008883D03*
X019033Y009383D03*
X018933Y009883D03*
X015533Y008233D03*
X007883Y002533D03*
X007433Y003383D03*
X006433Y003883D03*
X007433Y004383D03*
X006433Y004883D03*
X004585Y002883D03*
X003433Y002883D03*
X003933Y007183D03*
M02*
