%
M48
M72
T01C0.0200
T02C0.0315
T03C0.0320
T04C0.0400
T05C0.1300
%
T01
X3433Y2883
X4585Y2883
X6433Y3883
X7433Y3383
X7883Y2533
X7433Y4383
X6433Y4883
X9433Y4883
X11433Y4383
X13083Y4883
X15433Y5283
X15433Y4083
X15433Y2283
X18933Y2383
X19033Y2883
X19033Y3383
X18933Y3883
X18933Y4383
X18933Y4883
X18933Y5383
X19033Y5883
X19033Y6383
X18933Y6883
X18933Y7383
X18933Y7883
X18933Y8383
X19033Y8883
X19033Y9383
X18933Y9883
X15533Y8233
X10933Y8383
X10433Y7883
X9733Y8183
X3933Y7183
T02
X8992Y12694
X8992Y14072
X18855Y12714
T03
X5283Y10033
X5283Y8033
T04
X2533Y8733
X2533Y9733
X1583Y7383
X1583Y6383
X1583Y5383
X1583Y4383
X1583Y3383
X3283Y1233
X4283Y1233
X5283Y1233
X6283Y1233
X7283Y1233
X8283Y1233
X9283Y1233
X10283Y1233
X10833Y10133
X11833Y10133
X12833Y10133
X13833Y10133
X10433Y15883
X9433Y15883
X8433Y15883
X7433Y15883
X6433Y15883
X5433Y15883
X4433Y15883
X3433Y15883
X3433Y14383
X3433Y13383
X3433Y12383
X5433Y12383
X5433Y13383
X5433Y14383
X1433Y14383
X1433Y13383
X1433Y12383
X1433Y15383
T05
X1233Y1233
X1233Y10083
X19983Y10083
X20033Y1233
M30
