G75*
G70*
%OFA0B0*%
%FSLAX24Y24*%
%IPPOS*%
%LPD*%
%AMOC8*
5,1,8,0,0,1.08239X$1,22.5*
%
%ADD10R,0.0600X0.0600*%
%ADD11C,0.0600*%
%ADD12C,0.0515*%
%ADD13C,0.0100*%
D10*
X016601Y002053D03*
D11*
X015601Y002053D03*
X014601Y002053D03*
X013601Y002053D03*
X013603Y000872D03*
X014603Y000872D03*
X015603Y000872D03*
X016603Y000872D03*
X017603Y000872D03*
X018603Y000872D03*
X012603Y000872D03*
X010991Y000871D03*
X009211Y000871D03*
X009211Y003431D03*
X010991Y003431D03*
D12*
X006085Y002151D03*
X004117Y001167D03*
X004117Y003135D03*
D13*
X003101Y003721D02*
X003101Y000601D01*
X008873Y000601D01*
X008846Y000628D01*
X008819Y000694D01*
X006119Y000694D01*
X006013Y000799D01*
X005825Y000987D01*
X004461Y000987D01*
X004445Y000947D01*
X004336Y000838D01*
X004194Y000779D01*
X004039Y000779D01*
X003897Y000838D01*
X003788Y000947D01*
X003729Y001090D01*
X003729Y001244D01*
X003788Y001386D01*
X003897Y001495D01*
X004039Y001554D01*
X004194Y001554D01*
X004336Y001495D01*
X004445Y001386D01*
X004461Y001347D01*
X005825Y001347D01*
X005975Y001347D01*
X006268Y001054D01*
X008821Y001054D01*
X008846Y001115D01*
X008967Y001236D01*
X009094Y001288D01*
X006843Y001288D01*
X006694Y001288D01*
X006202Y001780D01*
X006162Y001764D01*
X006008Y001764D01*
X005866Y001823D01*
X005757Y001932D01*
X005698Y002074D01*
X005698Y002228D01*
X005757Y002371D01*
X005866Y002480D01*
X006008Y002539D01*
X006162Y002539D01*
X006304Y002480D01*
X006414Y002371D01*
X006472Y002228D01*
X006472Y002074D01*
X006456Y002035D01*
X006843Y001648D01*
X013454Y001648D01*
X013357Y001688D01*
X013236Y001809D01*
X013171Y001967D01*
X013171Y002138D01*
X013236Y002296D01*
X013357Y002417D01*
X013515Y002483D01*
X013686Y002483D01*
X013844Y002417D01*
X013965Y002296D01*
X014031Y002138D01*
X014031Y001967D01*
X013965Y001809D01*
X013844Y001688D01*
X013747Y001648D01*
X013963Y001648D01*
X014068Y001543D01*
X014370Y001241D01*
X014517Y001302D01*
X014688Y001302D01*
X014846Y001236D01*
X014967Y001115D01*
X015033Y000957D01*
X015033Y000816D01*
X015173Y000945D01*
X015173Y000957D01*
X015238Y001115D01*
X015359Y001236D01*
X015517Y001302D01*
X015688Y001302D01*
X015846Y001236D01*
X015967Y001115D01*
X016033Y000957D01*
X016033Y000786D01*
X015967Y000628D01*
X015940Y000601D01*
X016265Y000601D01*
X016238Y000628D01*
X016173Y000786D01*
X016173Y000957D01*
X016238Y001115D01*
X016359Y001236D01*
X016442Y001270D01*
X016251Y001270D01*
X016145Y001376D01*
X015836Y001685D01*
X015686Y001623D01*
X015515Y001623D01*
X015357Y001688D01*
X015236Y001809D01*
X015171Y001967D01*
X015171Y002138D01*
X015236Y002296D01*
X015357Y002417D01*
X015515Y002483D01*
X015686Y002483D01*
X015844Y002417D01*
X015965Y002296D01*
X016031Y002138D01*
X016031Y001999D01*
X016171Y001859D01*
X016171Y002407D01*
X016247Y002483D01*
X016955Y002483D01*
X017031Y002407D01*
X017031Y002233D01*
X017496Y002233D01*
X017602Y002127D01*
X017602Y002127D01*
X018454Y001275D01*
X018517Y001302D01*
X018688Y001302D01*
X018846Y001236D01*
X018967Y001115D01*
X019033Y000957D01*
X019033Y000786D01*
X018967Y000628D01*
X018940Y000601D01*
X019101Y000601D01*
X019101Y003721D01*
X011309Y003721D01*
X011355Y003675D01*
X011421Y003517D01*
X011421Y003346D01*
X011355Y003188D01*
X011234Y003067D01*
X011076Y003001D01*
X010905Y003001D01*
X010747Y003067D01*
X010626Y003188D01*
X010561Y003346D01*
X010561Y003517D01*
X010626Y003675D01*
X010672Y003721D01*
X009529Y003721D01*
X009575Y003675D01*
X009641Y003517D01*
X009641Y003346D01*
X009575Y003188D01*
X009454Y003067D01*
X009296Y003001D01*
X009125Y003001D01*
X008967Y003067D01*
X008846Y003188D01*
X008781Y003346D01*
X008781Y003517D01*
X008846Y003675D01*
X008892Y003721D01*
X003101Y003721D01*
X003101Y003699D02*
X008870Y003699D01*
X008815Y003600D02*
X003101Y003600D01*
X003101Y003502D02*
X003936Y003502D01*
X003886Y003481D02*
X003771Y003366D01*
X003709Y003216D01*
X003709Y003164D01*
X004088Y003164D01*
X004088Y003107D01*
X003709Y003107D01*
X003709Y003054D01*
X003771Y002905D01*
X003886Y002790D01*
X004035Y002728D01*
X004088Y002728D01*
X004088Y003106D01*
X004145Y003106D01*
X004145Y002728D01*
X004198Y002728D01*
X004347Y002790D01*
X004462Y002905D01*
X004524Y003054D01*
X004524Y003107D01*
X004146Y003107D01*
X004146Y003164D01*
X004524Y003164D01*
X004524Y003216D01*
X004462Y003366D01*
X004347Y003481D01*
X004198Y003543D01*
X004145Y003543D01*
X004145Y003164D01*
X004088Y003164D01*
X004088Y003543D01*
X004035Y003543D01*
X003886Y003481D01*
X003808Y003403D02*
X003101Y003403D01*
X003101Y003305D02*
X003746Y003305D01*
X003709Y003206D02*
X003101Y003206D01*
X003101Y003107D02*
X004088Y003107D01*
X004117Y003135D02*
X008117Y003135D01*
X008601Y002651D01*
X011601Y002651D01*
X012101Y003151D01*
X014101Y003151D01*
X014601Y002651D01*
X014601Y002053D01*
X014651Y002024D02*
X015171Y002024D01*
X015051Y002003D02*
X014651Y002003D01*
X014651Y002103D01*
X014551Y002103D01*
X014551Y002503D01*
X014511Y002503D01*
X014346Y002434D01*
X014219Y002308D01*
X014151Y002142D01*
X014151Y002103D01*
X014551Y002103D01*
X014551Y002003D01*
X014151Y002003D01*
X014151Y001963D01*
X014219Y001798D01*
X014346Y001671D01*
X014511Y001603D01*
X014551Y001603D01*
X014551Y002003D01*
X014651Y002003D01*
X014651Y001603D01*
X014690Y001603D01*
X014856Y001671D01*
X014982Y001798D01*
X015051Y001963D01*
X015051Y002003D01*
X015035Y001925D02*
X015188Y001925D01*
X015229Y001826D02*
X014994Y001826D01*
X014912Y001728D02*
X015318Y001728D01*
X015499Y001629D02*
X014754Y001629D01*
X014651Y001629D02*
X014551Y001629D01*
X014447Y001629D02*
X013981Y001629D01*
X014080Y001531D02*
X015990Y001531D01*
X015892Y001629D02*
X015702Y001629D01*
X015723Y002053D02*
X016325Y001450D01*
X017024Y001450D01*
X017603Y000872D01*
X018603Y000872D02*
X017422Y002053D01*
X016601Y002053D01*
X016171Y002024D02*
X016031Y002024D01*
X016031Y002122D02*
X016171Y002122D01*
X016171Y002221D02*
X015997Y002221D01*
X015942Y002319D02*
X016171Y002319D01*
X016182Y002418D02*
X015843Y002418D01*
X015358Y002418D02*
X014872Y002418D01*
X014856Y002434D02*
X014690Y002503D01*
X014651Y002503D01*
X014651Y002103D01*
X015051Y002103D01*
X015051Y002142D01*
X014982Y002308D01*
X014856Y002434D01*
X014651Y002418D02*
X014551Y002418D01*
X014329Y002418D02*
X013843Y002418D01*
X013358Y002418D02*
X006366Y002418D01*
X006216Y002516D02*
X019101Y002516D01*
X019101Y002418D02*
X017020Y002418D01*
X017031Y002319D02*
X019101Y002319D01*
X019101Y002221D02*
X017508Y002221D01*
X017607Y002122D02*
X019101Y002122D01*
X019101Y002024D02*
X017705Y002024D01*
X017804Y001925D02*
X019101Y001925D01*
X019101Y001826D02*
X017902Y001826D01*
X018001Y001728D02*
X019101Y001728D01*
X019101Y001629D02*
X018100Y001629D01*
X018198Y001531D02*
X019101Y001531D01*
X019101Y001432D02*
X018297Y001432D01*
X018395Y001334D02*
X019101Y001334D01*
X019101Y001235D02*
X018847Y001235D01*
X018946Y001137D02*
X019101Y001137D01*
X019101Y001038D02*
X018999Y001038D01*
X019033Y000940D02*
X019101Y000940D01*
X019101Y000841D02*
X019033Y000841D01*
X019015Y000742D02*
X019101Y000742D01*
X019101Y000644D02*
X018974Y000644D01*
X016232Y000644D02*
X015974Y000644D01*
X016015Y000742D02*
X016191Y000742D01*
X016173Y000841D02*
X016033Y000841D01*
X016033Y000940D02*
X016173Y000940D01*
X015603Y000872D02*
X015359Y000872D01*
X014847Y000401D01*
X011486Y000401D01*
X010991Y000871D01*
X012721Y001288D02*
X012846Y001236D01*
X012967Y001115D01*
X013033Y000957D01*
X013033Y000786D01*
X012967Y000628D01*
X012940Y000601D01*
X013237Y000601D01*
X013221Y000617D01*
X013153Y000782D01*
X013153Y000822D01*
X013553Y000822D01*
X013553Y000922D01*
X013153Y000922D01*
X013153Y000961D01*
X013221Y001127D01*
X013348Y001253D01*
X013432Y001288D01*
X012721Y001288D01*
X012847Y001235D02*
X013330Y001235D01*
X013231Y001137D02*
X012946Y001137D01*
X012999Y001038D02*
X013185Y001038D01*
X013153Y000940D02*
X013033Y000940D01*
X013033Y000841D02*
X013553Y000841D01*
X013653Y000841D02*
X014173Y000841D01*
X014173Y000786D02*
X014173Y000929D01*
X013991Y001111D01*
X014053Y000961D01*
X014053Y000922D01*
X013653Y000922D01*
X013653Y000822D01*
X014053Y000822D01*
X014053Y000782D01*
X013984Y000617D01*
X013969Y000601D01*
X014265Y000601D01*
X014238Y000628D01*
X014173Y000786D01*
X014191Y000742D02*
X014036Y000742D01*
X013995Y000644D02*
X014232Y000644D01*
X015033Y000841D02*
X015059Y000841D01*
X015033Y000940D02*
X015167Y000940D01*
X015206Y001038D02*
X014999Y001038D01*
X014946Y001137D02*
X015260Y001137D01*
X015358Y001235D02*
X014847Y001235D01*
X014277Y001334D02*
X016187Y001334D01*
X016089Y001432D02*
X014179Y001432D01*
X013888Y001468D02*
X006768Y001468D01*
X006085Y002151D01*
X005719Y002024D02*
X003101Y002024D01*
X003101Y002122D02*
X005698Y002122D01*
X005698Y002221D02*
X003101Y002221D01*
X003101Y002319D02*
X005735Y002319D01*
X005804Y002418D02*
X003101Y002418D01*
X003101Y002516D02*
X005954Y002516D01*
X006435Y002319D02*
X013259Y002319D01*
X013205Y002221D02*
X006472Y002221D01*
X006472Y002122D02*
X013171Y002122D01*
X013171Y002024D02*
X006467Y002024D01*
X006566Y001925D02*
X013188Y001925D01*
X013229Y001826D02*
X006664Y001826D01*
X006763Y001728D02*
X013318Y001728D01*
X013884Y001728D02*
X014289Y001728D01*
X014551Y001728D02*
X014651Y001728D01*
X014651Y001826D02*
X014551Y001826D01*
X014551Y001925D02*
X014651Y001925D01*
X014207Y001826D02*
X013972Y001826D01*
X014013Y001925D02*
X014167Y001925D01*
X014031Y002024D02*
X014551Y002024D01*
X014551Y002122D02*
X014651Y002122D01*
X014651Y002221D02*
X014551Y002221D01*
X014551Y002319D02*
X014651Y002319D01*
X014231Y002319D02*
X013942Y002319D01*
X013997Y002221D02*
X014183Y002221D01*
X014151Y002122D02*
X014031Y002122D01*
X014971Y002319D02*
X015259Y002319D01*
X015205Y002221D02*
X015018Y002221D01*
X015051Y002122D02*
X015171Y002122D01*
X015601Y002053D02*
X015723Y002053D01*
X016105Y001925D02*
X016171Y001925D01*
X014485Y000872D02*
X013888Y001468D01*
X015847Y001235D02*
X016358Y001235D01*
X016260Y001137D02*
X015946Y001137D01*
X015999Y001038D02*
X016206Y001038D01*
X014603Y000872D02*
X014485Y000872D01*
X014162Y000940D02*
X014053Y000940D01*
X014064Y001038D02*
X014021Y001038D01*
X013169Y000742D02*
X013015Y000742D01*
X012974Y000644D02*
X013210Y000644D01*
X009211Y000871D02*
X009208Y000874D01*
X006193Y000874D01*
X005900Y001167D01*
X004117Y001167D01*
X003729Y001137D02*
X003101Y001137D01*
X003101Y001235D02*
X003729Y001235D01*
X003766Y001334D02*
X003101Y001334D01*
X003101Y001432D02*
X003834Y001432D01*
X003983Y001531D02*
X003101Y001531D01*
X003101Y001629D02*
X006352Y001629D01*
X006451Y001531D02*
X004251Y001531D01*
X004399Y001432D02*
X006549Y001432D01*
X006648Y001334D02*
X005988Y001334D01*
X006086Y001235D02*
X008967Y001235D01*
X008868Y001137D02*
X006185Y001137D01*
X005873Y000940D02*
X004437Y000940D01*
X004339Y000841D02*
X005971Y000841D01*
X006070Y000742D02*
X003101Y000742D01*
X003101Y000841D02*
X003894Y000841D01*
X003796Y000940D02*
X003101Y000940D01*
X003101Y001038D02*
X003750Y001038D01*
X003101Y000644D02*
X008839Y000644D01*
X006254Y001728D02*
X003101Y001728D01*
X003101Y001826D02*
X005862Y001826D01*
X005763Y001925D02*
X003101Y001925D01*
X003101Y002615D02*
X019101Y002615D01*
X019101Y002713D02*
X003101Y002713D01*
X003101Y002812D02*
X003864Y002812D01*
X004088Y002812D02*
X004145Y002812D01*
X004369Y002812D02*
X019101Y002812D01*
X019101Y002910D02*
X004464Y002910D01*
X004505Y003009D02*
X009106Y003009D01*
X009315Y003009D02*
X010886Y003009D01*
X011095Y003009D02*
X019101Y003009D01*
X019101Y003107D02*
X011275Y003107D01*
X011363Y003206D02*
X019101Y003206D01*
X019101Y003305D02*
X011404Y003305D01*
X011421Y003403D02*
X019101Y003403D01*
X019101Y003502D02*
X011421Y003502D01*
X011386Y003600D02*
X019101Y003600D01*
X019101Y003699D02*
X011331Y003699D01*
X010650Y003699D02*
X009551Y003699D01*
X009606Y003600D02*
X010595Y003600D01*
X010561Y003502D02*
X009641Y003502D01*
X009641Y003403D02*
X010561Y003403D01*
X010578Y003305D02*
X009624Y003305D01*
X009583Y003206D02*
X010619Y003206D01*
X010706Y003107D02*
X009495Y003107D01*
X008926Y003107D02*
X004146Y003107D01*
X004145Y003206D02*
X004088Y003206D01*
X004088Y003305D02*
X004145Y003305D01*
X004487Y003305D02*
X008798Y003305D01*
X008839Y003206D02*
X004524Y003206D01*
X004425Y003403D02*
X008781Y003403D01*
X008781Y003502D02*
X004297Y003502D01*
X004145Y003502D02*
X004088Y003502D01*
X004088Y003403D02*
X004145Y003403D01*
X004145Y003009D02*
X004088Y003009D01*
X004088Y002910D02*
X004145Y002910D01*
X003769Y002910D02*
X003101Y002910D01*
X003101Y003009D02*
X003728Y003009D01*
M02*
